<svg width="48" height="40" viewBox="0 0 48 40" fill="none" xmlns="http://www.w3.org/2000/svg">
<path d="M47.9458 15.8679C47.8152 15.5712 47.7096 15.3859 47.3403 15.3103C47.3209 15.3063 47.2831 15.303 47.2339 15.2982C47.0968 15.2868 46.7743 15.2591 46.7299 15.1624C46.7195 15.1405 46.7275 15.1112 46.7525 15.0747C46.7694 15.0535 46.7888 15.0316 46.809 15.0072C46.8904 14.9186 47.0113 14.7837 46.8743 14.6439C46.792 14.5619 46.6961 14.4903 46.6033 14.4204C46.4518 14.3067 46.2937 14.1888 46.2075 14.032C46.1534 13.9328 46.072 13.8833 45.9656 13.8833C45.8608 13.8833 45.7495 13.9304 45.6519 13.9727C45.581 14.0027 45.5149 14.0312 45.4745 14.0312C45.4576 14.0312 45.452 14.0287 45.4463 14.0084C45.4197 13.9068 45.4633 13.8426 45.51 13.7735C45.5471 13.7207 45.585 13.6646 45.585 13.5931C45.585 13.5078 45.531 13.4574 45.4866 13.4176C45.4455 13.3794 45.4221 13.3566 45.4254 13.3201C45.4334 13.229 45.4745 13.2103 45.5382 13.2103C45.5842 13.2103 45.6382 13.2217 45.6906 13.2331C45.8035 13.2567 45.9027 13.2648 45.943 13.2055C45.9914 13.1348 46.0059 12.982 46.022 12.8203C46.0333 12.7154 46.043 12.6073 46.0631 12.5464C46.1881 12.1571 45.8567 11.9872 45.589 11.8515C45.4326 11.7719 45.2843 11.6963 45.2754 11.6012C45.2689 11.5199 45.3592 11.4078 45.5439 11.2672C45.6608 11.1786 45.7721 11.1193 45.8712 11.0673C46.1155 10.9372 46.3091 10.834 46.3615 10.4155C46.4453 9.74583 46.4437 9.30291 46.3494 8.59343L46.3413 8.52923L46.2824 8.55523C46.2099 8.58774 46.1381 8.62512 46.072 8.66007C45.9583 8.7194 45.8527 8.77629 45.7922 8.77629C45.7721 8.77629 45.7672 8.76978 45.7648 8.76572C45.7463 8.74053 45.7285 8.6495 45.8221 8.32524L45.839 8.26916C45.939 7.92783 46.076 7.46053 46.076 7.12408C46.076 6.89896 45.914 6.85264 45.7842 6.81444C45.6971 6.78925 45.6148 6.76568 45.5794 6.69823C45.5407 6.62346 45.5624 6.54788 45.589 6.46173C45.6019 6.42028 45.6132 6.37884 45.6197 6.33495C45.6334 6.22361 45.635 6.1269 45.6366 6.03263C45.639 5.81158 45.6414 5.63685 45.8156 5.41254C45.922 5.27601 46.0801 5.15736 46.2486 5.0322C46.5219 4.82822 46.8049 4.61854 46.8638 4.30891L46.8727 4.26502L46.8299 4.25283C46.2575 4.09354 45.539 3.78472 45.2447 3.39381C45.1899 3.32067 45.1536 3.23534 45.1182 3.15163C45.0891 3.08336 45.0593 3.01266 45.019 2.94764C44.8069 2.61119 44.6271 2.4901 44.2788 2.33081L44.2595 2.32674C43.9289 2.32674 43.7418 2.5096 43.5773 2.67051C43.4193 2.82493 43.283 2.95577 43.0549 2.9257C42.9444 2.91188 42.7856 2.91107 42.617 2.91026C42.3236 2.90944 41.9583 2.90701 41.8277 2.82899C41.6132 2.69896 41.4157 2.63475 41.2238 2.63475C41.027 2.63475 40.869 2.70058 40.7303 2.75828C40.6158 2.80542 40.5175 2.84606 40.4183 2.84606C40.278 2.84606 40.1498 2.76235 40.0031 2.57462C39.7176 2.21459 39.5588 2.20646 39.3387 2.1959C39.2097 2.1894 39.0637 2.18208 38.8517 2.09838C38.713 2.04474 38.5856 2.01873 38.4598 2.01873C38.1502 2.01873 37.9051 2.1829 37.6438 2.35681C37.4753 2.46978 37.3012 2.58518 37.0899 2.67701C36.9174 2.75097 36.823 2.78104 36.7537 2.80217C36.5949 2.85256 36.5812 2.86231 36.2651 3.15813C36.1627 3.25484 35.9087 3.31092 35.5676 3.31092C35.3112 3.31092 35.0371 3.27678 34.8847 3.22883C34.7025 3.16951 34.505 3.16951 34.33 3.16869C33.9502 3.16788 33.7527 3.15082 33.7527 2.79079C33.7527 2.66239 33.6761 2.58924 33.5439 2.58924C33.2738 2.58924 32.7835 2.87125 32.4586 3.05898C32.3586 3.11668 32.2546 3.17682 32.2328 3.18251L32.2151 3.19064C31.0855 4.0464 30.3179 4.15774 28.9464 4.19513C28.6271 4.19513 27.7305 3.59861 27.7305 3.24996C27.7305 3.17763 27.7732 3.12156 27.8611 3.08011C27.9724 3.02729 28.1466 3.00047 28.3828 3.00047C28.4279 3.00047 28.465 2.98015 28.4876 2.94277C28.6158 2.73065 28.2352 1.92365 28.2312 1.91552C28.0925 1.64083 27.8466 1.50755 27.4798 1.50755C27.1339 1.50755 26.7436 1.62701 26.4001 1.73185C26.2348 1.78224 26.0792 1.83019 25.9518 1.85619C24.9923 2.05368 24.6053 2.55511 24.2304 3.0411C23.9756 3.37106 23.712 3.7132 23.2661 3.96026C23.0895 4.05778 22.9919 4.15937 22.9686 4.2699C22.9395 4.40887 23.0323 4.53158 23.1137 4.63886C23.183 4.72988 23.2483 4.81603 23.2306 4.89161C23.2161 4.95418 23.1443 5.01595 23.0177 5.07771L21.4189 5.84977C21.2874 5.91316 21.1617 5.94486 21.0439 5.94486C20.5505 5.94486 20.2764 5.40198 20.1844 4.89404C20.0409 4.10085 19.8555 3.96676 19.3709 3.96676C19.3096 3.96676 19.2435 3.96839 19.1717 3.97082C19.0879 3.97326 18.9968 3.9757 18.8968 3.9757C18.7887 3.9757 18.6872 3.97245 18.5848 3.96676L16.5174 3.98952H16.5021C16.2497 3.98952 16.0103 3.92125 15.7571 3.84811C15.5063 3.77578 15.2475 3.70101 14.9758 3.70101C14.4686 3.70101 14.1824 3.37512 13.905 3.05898C13.6696 2.78998 13.4479 2.53723 13.1149 2.53723C13.0125 2.53723 12.9173 2.53804 12.8278 2.53886C12.7488 2.53967 12.6738 2.54048 12.6021 2.54048C12.0925 2.54048 11.774 2.50391 11.2378 2.28692C10.5767 2.01955 10.6146 1.46529 10.6517 0.928909C10.6638 0.750929 10.675 0.582702 10.6629 0.425039C10.6573 0.359211 10.5775 0.326703 10.4549 0.277128C10.3211 0.223491 10.1381 0.149536 10.101 0.0325077L10.0905 0H10.0558C9.73088 0 9.41481 0.138971 9.10842 0.273878C8.78026 0.41935 8.44323 0.568886 8.09491 0.542067L8.08443 0.541254L7.30233 0.813506C7.27088 0.830573 7.23621 0.849265 7.19993 0.867957C6.88548 1.037 6.40977 1.29137 6.60811 1.71641C6.65085 1.80662 6.75083 1.87163 6.83952 1.92771C6.91128 1.97403 6.99191 2.02605 6.99029 2.06424C6.99029 2.0805 6.97256 2.12682 6.82339 2.20647C6.56538 2.34381 6.54361 2.38444 6.49523 2.53479C6.4783 2.58681 6.45653 2.65345 6.41299 2.74691C6.32752 2.93464 6.36784 3.06711 6.41783 3.14513C6.50491 3.28328 6.69519 3.36943 6.9137 3.36943C7.15478 3.36943 7.3628 3.22558 7.54583 3.09962C7.69822 2.99478 7.83771 2.894 7.95543 2.91838C8.14732 2.95658 8.28923 2.97202 8.43033 2.97202C8.55611 2.97202 8.68431 2.95983 8.8746 2.93058C8.99312 2.9127 9.09068 2.90213 9.16325 2.90213C9.28339 2.90213 9.30112 2.92814 9.30112 2.92814C9.3366 3.04354 8.47548 3.5596 8.16506 3.67907C8.07718 3.7132 7.98606 3.72945 7.88608 3.72945C7.75063 3.72945 7.6192 3.7002 7.48052 3.67013C7.34184 3.63843 7.19832 3.60674 7.05157 3.60674H7.01207L7.00481 3.64575C6.97498 3.79772 7.00803 3.93263 7.04029 4.06266C7.07415 4.2 7.1064 4.33085 7.07334 4.48689C7.029 4.70144 6.80404 4.80627 6.62263 4.89161C6.48798 4.95418 6.39203 4.99888 6.38719 5.08178C6.38558 5.12404 6.38316 5.16305 6.38155 5.19799C6.36864 5.49625 6.36784 5.52063 5.95582 5.52063C5.64863 5.52063 5.58735 5.54014 5.57042 5.59621C5.55349 5.65554 5.61154 5.69455 5.7091 5.75956C5.76715 5.79939 5.83972 5.84815 5.90019 5.90422C5.99695 5.99443 6.1187 6.0627 6.23641 6.12853C6.42025 6.23093 6.60973 6.3382 6.70084 6.52431C6.71616 6.55682 6.7347 6.5942 6.75647 6.63727C6.95724 7.03631 7.37328 7.86851 7.17413 8.23097C7.1185 8.33255 7.0169 8.38944 6.86451 8.40407C6.48636 8.4382 6.46459 8.54467 6.47346 8.71452C6.4783 8.79741 6.48233 8.89087 6.40735 9.0014C6.32349 9.12412 6.209 9.18507 6.05822 9.18507C5.76635 9.18507 5.40029 8.96483 5.07697 8.76978C4.82782 8.61862 4.61174 8.48859 4.47064 8.48859C4.41581 8.48859 4.31905 8.50972 4.29809 8.65275C4.2731 8.81529 4.35292 8.99165 4.43032 9.16232C4.47789 9.26715 4.52305 9.36711 4.5424 9.45814C4.51821 9.53534 4.50611 9.6093 4.49402 9.68C4.46983 9.82141 4.44967 9.94494 4.34566 10.0563C4.31986 10.0839 4.29245 10.1091 4.26503 10.1351C4.16102 10.2326 4.05217 10.3342 4.07072 10.5146C4.07959 10.6016 4.13441 10.7056 4.19085 10.8145C4.26584 10.9567 4.35131 11.1185 4.31019 11.2176C4.29083 11.2639 4.24407 11.2989 4.16667 11.3216C4.04895 11.3582 3.92881 11.3607 3.80222 11.3631C3.69579 11.3647 3.58614 11.3663 3.47406 11.3907C3.21847 11.4435 3.17735 11.5736 3.13381 11.7101C3.11365 11.7735 3.09269 11.8385 3.04673 11.9117C3.01286 11.9816 3.03141 12.0579 3.04915 12.1246C3.07334 12.2172 3.08462 12.2766 3.02415 12.3286C2.90079 12.4367 2.72018 12.4204 2.54683 12.2969C2.42266 12.2091 2.28398 12.1612 2.15094 12.114L2.09531 12.0953C2.04128 12.0758 1.98888 12.0636 1.93808 12.0523C1.80746 12.0238 1.70425 12.0011 1.64378 11.867C1.54783 11.6548 1.49381 11.4159 1.48817 11.177L1.48656 11.0982L0.189235 11.7865L0.182784 11.8028C0.0666785 12.0848 0.0110445 12.3115 0.0021753 12.5382C-0.00911277 12.8349 0.0255578 13.1258 0.059422 13.4062C0.0731289 13.5184 0.0868358 13.6297 0.0973176 13.7427C0.117475 13.9515 0.12715 14.1628 0.13602 14.3668C0.147308 14.6252 0.159402 14.8918 0.193266 15.1576C0.238418 15.5127 0.369844 15.6777 0.609312 15.6777C0.773795 15.6777 0.975368 15.5972 1.18904 15.5111C1.19549 15.5233 1.20194 15.5363 1.20839 15.5493C1.22129 15.5745 1.23499 15.6005 1.24789 15.6232C1.21242 15.6501 1.15033 15.6769 1.09792 15.7013C1.04552 15.7248 0.997138 15.7468 0.961661 15.7703C0.924572 15.7955 0.872969 15.8215 0.818948 15.8484C0.662527 15.9264 0.469017 16.0231 0.44241 16.1986C0.437572 16.2328 0.427897 16.2612 0.419834 16.2888C0.397258 16.3587 0.374682 16.4311 0.422253 16.5375C0.485143 16.6773 0.650433 16.6838 0.795565 16.6879C0.872969 16.6911 0.953598 16.6936 1.00278 16.7171C1.06083 16.7464 1.22612 16.8675 1.25354 16.9195C1.24467 16.9219 1.22935 16.9244 1.20274 16.9244C0.872163 16.9244 0.731868 16.9552 0.663334 17.0414C0.589961 17.1324 0.6206 17.2698 0.666559 17.4762C0.674622 17.5127 0.683491 17.5518 0.69236 17.594C0.727031 17.7606 0.705261 17.9264 0.680266 18.102C0.64882 18.3263 0.616569 18.5587 0.717355 18.7895C0.802016 18.9829 0.897964 19.0772 1.01004 19.0772C1.23741 19.0772 1.42689 18.6725 1.57928 18.3474C1.61476 18.2718 1.65588 18.184 1.68652 18.1304C1.68732 18.1467 1.68813 18.1686 1.68813 18.1954C1.68813 18.6676 1.99936 18.7058 2.14852 18.7245C2.16223 18.7261 2.17755 18.7269 2.19045 18.7294C2.16948 18.7537 2.12272 18.7976 2.02596 18.8773C1.95824 18.9325 1.85987 18.9845 1.75666 19.0398C1.55428 19.1479 1.34384 19.26 1.32852 19.425C1.31965 19.5177 1.37287 19.6095 1.49139 19.7062C1.60186 19.7964 1.79295 20.0337 1.7615 20.1215C1.75021 20.1548 1.68813 20.1597 1.65185 20.1597C1.52606 20.1597 1.41802 20.1556 1.32772 20.1516C1.26241 20.1475 1.20516 20.1451 1.15759 20.1451C1.07212 20.1451 0.976174 20.1508 0.93586 20.2166C0.88587 20.2987 0.931828 20.4254 1.08744 20.7432C1.15114 20.8732 1.18904 21.0171 1.22532 21.1552C1.24709 21.2398 1.27047 21.3251 1.29869 21.408C1.33578 21.5169 1.43012 21.59 1.51316 21.6559C1.55106 21.6851 1.58815 21.7144 1.61476 21.7428C1.4277 21.755 1.30433 21.8111 1.23822 21.9143C1.1076 22.1158 1.24789 22.4352 1.37206 22.7156C1.42125 22.8253 1.4664 22.9302 1.48817 23.0098C1.50833 23.087 1.60831 23.1699 1.71393 23.2585C1.76876 23.304 1.85745 23.3772 1.87599 23.4121C1.87196 23.4137 1.86632 23.4153 1.85826 23.417C1.75102 23.4381 1.6712 23.4942 1.6204 23.5828C1.49301 23.8087 1.60669 24.1671 1.64136 24.2605C1.672 24.5149 1.98081 25.0131 2.11224 25.2155C2.5823 25.9412 2.68793 27.7933 2.7226 28.402C2.78226 29.4455 3.02899 30.3753 3.28942 31.3578C3.38779 31.726 3.48858 32.1079 3.57888 32.494L4.50611 36.8654C4.57626 37.197 4.66092 37.54 4.84959 37.7627C4.93425 37.8618 5.00682 37.9447 5.07052 38.0162C5.32611 38.3039 5.43174 38.4242 5.61315 38.9216C5.65508 39.0361 5.69539 39.145 5.73571 39.2507L5.75828 39.3084L6.28479 38.9346C6.43476 38.8939 6.52587 38.8208 6.59199 38.7671C6.63795 38.7298 6.671 38.7029 6.70164 38.7029C6.74841 38.7029 6.81855 38.7639 6.92337 38.8964C6.99836 38.9914 7.06044 39.132 7.12656 39.2816C7.27169 39.6075 7.43617 39.9781 7.80304 39.9992C7.81352 40 7.82319 40 7.83368 40C8.14974 40 8.28439 39.7164 8.40372 39.4669C8.50935 39.2458 8.60126 39.0532 8.78832 39.0532L8.80122 39.0524C8.8883 39.0272 8.97296 39.0134 9.0544 39.0004C9.33579 38.9557 9.57849 38.9159 9.57849 38.4413C9.57849 38.2381 9.61235 37.8561 9.6567 37.6692C9.69862 37.4912 9.8107 37.4806 9.94051 37.4685C10.0284 37.4603 10.1187 37.4514 10.1711 37.3791C10.2171 37.3132 10.2203 37.2125 10.1824 37.0572C10.1332 36.8606 10.1671 36.8378 10.2413 36.7907C10.2937 36.7565 10.367 36.7086 10.4283 36.5972C10.5243 36.4233 10.3961 36.2738 10.2832 36.1397C10.2195 36.0649 10.1542 35.9877 10.1364 35.9162L10.1332 35.9L10.1203 35.8902C9.98002 35.7756 9.91149 35.5757 9.84456 35.3823C9.80264 35.2596 9.7599 35.132 9.69782 35.0263C9.64702 34.941 9.54946 34.8638 9.44626 34.7833C9.31402 34.6793 9.17776 34.572 9.15841 34.4566C9.20114 34.442 9.27694 34.4558 9.35676 34.4712C9.42287 34.4842 9.49141 34.4964 9.55994 34.4964C9.63573 34.4964 9.69782 34.4802 9.75103 34.4452C9.88488 34.3583 9.99373 34.2128 10.0985 34.0714C10.2727 33.8365 10.434 33.6155 10.7033 33.6342C10.7621 33.639 10.8315 33.7049 10.8984 33.7699C10.9863 33.8544 11.0863 33.9503 11.2072 33.9503C11.2556 33.9503 11.3031 33.9341 11.3499 33.904C11.4604 33.8316 11.4967 33.7106 11.5313 33.5943C11.5628 33.4911 11.5926 33.3928 11.6708 33.3375L12.7101 32.611C12.9633 32.4346 13.0665 32.2079 13.1665 31.9893C13.2407 31.8275 13.3165 31.6609 13.4543 31.5147C13.5785 31.535 13.822 31.7512 14.0026 31.9104C14.1284 32.0218 14.2372 32.1169 14.3138 32.1632C14.3977 32.2144 14.4969 32.2388 14.6097 32.2388C14.9323 32.2388 15.329 32.0307 15.6789 31.8479C15.8805 31.7422 16.0707 31.6431 16.2272 31.5919C16.2707 31.5772 16.3183 31.5715 16.3675 31.5715C16.5924 31.5715 16.8343 31.7178 17.0464 31.8462C17.2665 31.9795 17.4535 32.0827 17.5721 32.0153L17.5962 32.0006V31.9738C17.5962 31.7544 17.5793 31.4594 17.5608 31.1465C17.51 30.2826 17.4463 29.2107 17.6664 28.7092C17.8607 28.7653 18.0381 28.8628 18.2106 28.9579C18.4646 29.0961 18.7049 29.2277 18.9823 29.2277C19.0451 29.2277 19.108 29.2204 19.1693 29.2074C19.233 29.1928 19.2854 29.1863 19.329 29.1863C19.4547 29.1863 19.4894 29.2399 19.5507 29.3383C19.6039 29.4228 19.67 29.5268 19.8192 29.617C19.8426 29.6325 19.9159 29.6755 20.328 29.6755C20.9423 29.6755 22.3767 29.5512 22.4646 29.4187C22.567 29.2627 22.3864 29.1343 22.1953 28.9994C21.9301 28.8116 21.6003 28.5768 21.7502 28.1867C21.8172 28.0128 21.7978 27.8405 21.7793 27.6739C21.7478 27.3927 21.7212 27.1497 22.0841 26.9311C22.1542 26.888 22.234 26.8677 22.3276 26.8677C22.4783 26.8677 22.6396 26.9205 22.796 26.9725C22.9419 27.0205 23.0798 27.0652 23.2016 27.0652C23.4539 27.0652 23.5773 26.8669 23.591 26.441C23.5983 26.2159 23.8684 26.1533 24.1304 26.094C24.2401 26.0696 24.3425 26.0452 24.4199 26.0095C24.7013 25.8786 24.7214 25.5974 24.74 25.3236C24.748 25.2049 24.7569 25.0814 24.7835 24.9879L24.7988 24.9627C24.9472 24.7108 25.131 24.3979 25.3907 24.2809C25.4947 24.2337 25.6301 24.2142 25.7744 24.1923C26.1252 24.1403 26.5227 24.0793 26.538 23.5933C26.5404 23.5072 26.5372 23.4162 26.5324 23.3186C26.5203 23.0261 26.5074 22.6929 26.696 22.4832C26.846 22.3182 26.9315 22.2841 26.9782 22.2841C27.1129 22.2841 27.1451 22.6165 27.1653 22.8375C27.175 22.9326 27.183 23.0163 27.1967 23.0732C27.2862 23.4365 27.7378 23.4511 28.0667 23.4625C28.1627 23.4657 28.253 23.4682 28.3199 23.4795L28.3667 23.4861L28.3755 23.4405C28.3997 23.3129 28.3868 23.1789 28.3747 23.0488C28.3578 22.8733 28.3433 22.7067 28.4167 22.5661C28.5424 22.3255 28.7303 22.2378 28.9278 22.1443C29.1713 22.0305 29.4229 21.9127 29.5503 21.5088C29.5826 21.4072 29.6035 21.3194 29.6237 21.243C29.6793 21.013 29.714 20.8741 29.9575 20.6668C30.1026 20.5441 30.2469 20.3994 30.388 20.2597C30.4743 20.1735 30.5606 20.0866 30.6452 20.0077C30.6678 19.9858 30.6783 19.9573 30.6735 19.9281C30.6573 19.833 30.4824 19.7485 30.1728 19.6071C29.9752 19.5177 29.7527 19.4161 29.689 19.3405C29.4914 19.1081 29.41 18.9325 29.4366 18.7854C29.4721 18.5831 29.7204 18.4295 30.0413 18.2491L30.0558 18.2409L30.0631 18.2247C30.1736 17.9573 30.2316 17.7395 30.28 17.5639C30.3647 17.2478 30.3985 17.1478 30.5525 17.1478C30.692 17.1478 30.9299 17.2381 31.2443 17.3746C31.2685 17.3852 31.3008 17.4006 31.3379 17.4177C31.4959 17.4941 31.7353 17.6095 31.9176 17.6095C31.9821 17.6095 32.0361 17.594 32.078 17.5656C32.174 17.4981 32.1345 17.3201 32.0885 17.1162C32.0579 16.9772 32.0232 16.8195 32.0506 16.748C32.0821 16.6635 32.2852 16.5847 32.465 16.5156C32.7247 16.4148 32.994 16.3116 33.0335 16.1247C33.0536 16.0255 33.0093 15.9223 32.8956 15.8077C32.4989 15.4079 32.5755 15.2908 32.8287 14.9081C32.8521 14.8731 32.8763 14.8357 32.9021 14.7967C33.1004 14.4912 33.0504 14.062 33.0101 13.7167C32.9875 13.5281 32.9641 13.3322 33.0109 13.2786C33.0174 13.2729 33.0262 13.2648 33.048 13.2648C33.1278 13.2648 33.281 13.3534 33.5068 13.5281C33.8333 13.7809 34.0647 13.7922 34.3574 13.8077C34.4687 13.8126 34.5832 13.8191 34.717 13.8377C34.9637 13.8719 35.0774 14.0108 35.208 14.1734C35.279 14.2587 35.3508 14.3473 35.4475 14.4269C35.587 14.5407 35.7692 14.5919 35.9466 14.6415C36.2256 14.7203 36.4892 14.7943 36.5497 15.1015C36.5634 15.173 36.5699 15.2575 36.5771 15.3469C36.6005 15.6436 36.6295 16.0133 36.969 16.1295C37.2085 16.2108 37.4036 16.2514 37.5664 16.2514C37.9543 16.2514 38.1518 16.0198 38.1518 15.5639C38.1518 15.1779 38.2865 15.1779 38.3308 15.1779C38.5122 15.1779 38.8122 15.4249 39.0532 15.6232C39.2339 15.7728 39.3887 15.9004 39.4943 15.9337L39.5112 15.9386L39.5273 15.9321C39.716 15.8614 39.7862 15.7695 39.8313 15.7078C39.8668 15.6614 39.8773 15.6517 39.9055 15.6517C39.9482 15.6517 40.0232 15.6777 40.1401 15.7346C40.1627 15.746 40.1893 15.7516 40.2167 15.7516C40.4417 15.7516 40.7747 15.3957 40.8263 15.329C40.9061 15.2291 40.9932 15.1803 41.0948 15.1803C41.2722 15.1803 41.4632 15.329 41.631 15.4591C41.6834 15.4997 41.7334 15.5379 41.7793 15.5696C41.8301 15.6045 41.8898 15.6655 41.9478 15.7256C42.0357 15.815 42.1204 15.9012 42.2002 15.9321C42.7154 16.1312 42.6146 16.479 42.4864 16.9211C42.4437 17.0682 42.3993 17.221 42.376 17.3787C42.3139 17.7801 42.3768 18.1735 42.4413 18.5871C42.4872 18.8797 42.5348 19.1812 42.5348 19.4843C42.5348 19.5225 42.5324 19.5713 42.5292 19.6266C42.5155 19.9216 42.513 20.1743 42.6162 20.28C42.6912 20.3564 42.7928 20.3937 42.8896 20.4303C42.9186 20.4417 42.9468 20.4515 42.975 20.4636C43.046 20.4937 43.1089 20.5571 43.1758 20.6237C43.2758 20.7245 43.3798 20.8285 43.5274 20.8359C43.7313 20.848 43.9192 20.8155 44.103 20.7847C44.2562 20.7595 44.4183 20.7326 44.5812 20.7326H44.6207L44.7166 20.2304C44.7561 20.1361 44.8005 20.0711 44.8343 20.0183C44.9335 19.8687 44.969 19.7924 44.7545 19.525C44.5747 19.3007 44.6207 19.1016 44.7053 18.8439C44.7586 18.6822 44.7989 18.5286 44.8376 18.3799C44.9513 17.9419 45.0504 17.5631 45.435 17.2039C45.4729 17.169 45.5802 17.0528 45.7043 16.9179C45.8406 16.7699 46.0333 16.5619 46.1212 16.4766C46.1809 16.6131 46.3042 16.7122 46.4147 16.8C46.4848 16.8569 46.5517 16.9105 46.5985 16.9691C46.7235 17.1259 46.7969 17.195 46.8944 17.195C46.9549 17.195 47.017 17.1682 47.1113 17.1267C47.1379 17.1145 47.1686 17.1015 47.2032 17.0869C47.4741 16.9715 47.8241 16.6952 47.9531 16.3571C48.0176 16.1824 48.016 16.0182 47.9458 15.8679Z" fill="#FF5100"/>
</svg>
