<svg width="29" height="24" viewBox="0 0 29 24" fill="none" xmlns="http://www.w3.org/2000/svg">
<path d="M28.7675 9.52071C28.6891 9.34273 28.6257 9.23156 28.4042 9.18621C28.3926 9.18377 28.3698 9.18182 28.3403 9.17889C28.2581 9.17207 28.0646 9.15549 28.038 9.09746C28.0317 9.0843 28.0365 9.06674 28.0515 9.0448C28.0617 9.03212 28.0733 9.01896 28.0854 9.00433C28.1342 8.95118 28.2068 8.87023 28.1246 8.78636C28.0752 8.73711 28.0176 8.6942 27.962 8.65227C27.8711 8.584 27.7762 8.5133 27.7245 8.41919C27.6921 8.3597 27.6432 8.32995 27.5793 8.32995C27.5165 8.32995 27.4497 8.35824 27.3912 8.38359C27.3486 8.40163 27.3089 8.4187 27.2847 8.4187C27.2746 8.4187 27.2712 8.41724 27.2678 8.40505C27.2518 8.34409 27.278 8.30557 27.306 8.26413C27.3283 8.23243 27.351 8.19878 27.351 8.15588C27.351 8.10468 27.3186 8.07444 27.292 8.05055C27.2673 8.02763 27.2533 8.01398 27.2552 7.99203C27.2601 7.93742 27.2847 7.92621 27.3229 7.92621C27.3505 7.92621 27.3829 7.93303 27.4144 7.93986C27.4821 7.954 27.5416 7.95888 27.5658 7.92328C27.5948 7.88086 27.6035 7.78919 27.6132 7.69215C27.62 7.62925 27.6258 7.5644 27.6379 7.52782C27.7129 7.29426 27.514 7.19234 27.3534 7.11091C27.2596 7.06313 27.1706 7.01778 27.1652 6.96073C27.1614 6.91196 27.2155 6.84467 27.3263 6.76032C27.3965 6.70717 27.4632 6.67157 27.5227 6.64036C27.6693 6.56234 27.7854 6.50042 27.8169 6.24929C27.8672 5.8475 27.8662 5.58175 27.8096 5.15606L27.8048 5.11754L27.7695 5.13314C27.7259 5.15264 27.6829 5.17508 27.6432 5.19604C27.575 5.23164 27.5116 5.26577 27.4753 5.26577C27.4632 5.26577 27.4603 5.26187 27.4589 5.25943C27.4478 5.24432 27.4371 5.1897 27.4932 4.99514L27.5034 4.9615C27.5634 4.7567 27.6456 4.47632 27.6456 4.27445C27.6456 4.13938 27.5484 4.11158 27.4705 4.08867C27.4182 4.07355 27.3689 4.05941 27.3476 4.01894C27.3244 3.97407 27.3375 3.92873 27.3534 3.87704C27.3612 3.85217 27.3679 3.8273 27.3718 3.80097C27.38 3.73417 27.381 3.67614 27.382 3.61958C27.3834 3.48695 27.3849 3.38211 27.4894 3.24753C27.5532 3.16561 27.648 3.09441 27.7491 3.01932C27.9131 2.89693 28.083 2.77113 28.1183 2.58534L28.1236 2.55901L28.0979 2.5517C27.7545 2.45612 27.3234 2.27083 27.1468 2.03629C27.114 1.9924 27.0922 1.9412 27.0709 1.89098C27.0535 1.85002 27.0356 1.80759 27.0114 1.76859C26.8842 1.56671 26.7763 1.49406 26.5673 1.39848L26.5557 1.39605C26.3573 1.39605 26.2451 1.50576 26.1464 1.60231C26.0516 1.69496 25.9698 1.77346 25.8329 1.75542C25.7666 1.74713 25.6713 1.74664 25.5702 1.74615C25.3941 1.74567 25.175 1.7442 25.0966 1.69739C24.9679 1.61937 24.8494 1.58085 24.7343 1.58085C24.6162 1.58085 24.5214 1.62035 24.4382 1.65497C24.3695 1.68325 24.3105 1.70763 24.251 1.70763C24.1668 1.70763 24.0899 1.65741 24.0018 1.54477C23.8306 1.32876 23.7353 1.32388 23.6032 1.31754C23.5258 1.31364 23.4382 1.30925 23.311 1.25903C23.2278 1.22684 23.1514 1.21124 23.0759 1.21124C22.8901 1.21124 22.743 1.30974 22.5863 1.41409C22.4852 1.48187 22.3807 1.55111 22.254 1.60621C22.1504 1.65058 22.0938 1.66862 22.0522 1.6813C21.9569 1.71153 21.9487 1.71739 21.7591 1.89488C21.6976 1.9529 21.5452 1.98655 21.3406 1.98655C21.1867 1.98655 21.0223 1.96607 20.9308 1.9373C20.8215 1.9017 20.703 1.9017 20.598 1.90122C20.3701 1.90073 20.2516 1.89049 20.2516 1.67448C20.2516 1.59743 20.2057 1.55355 20.1263 1.55355C19.9643 1.55355 19.6701 1.72275 19.4752 1.83539C19.4152 1.87001 19.3528 1.90609 19.3397 1.90951L19.3291 1.91438C18.6513 2.42784 18.1907 2.49465 17.3678 2.51708C17.1763 2.51708 16.6383 2.15917 16.6383 1.94998C16.6383 1.90658 16.6639 1.87294 16.7167 1.84807C16.7834 1.81637 16.8879 1.80028 17.0297 1.80028C17.0568 1.80028 17.079 1.78809 17.0926 1.76566C17.1695 1.63839 16.9411 1.15419 16.9387 1.14931C16.8555 0.984498 16.708 0.904529 16.4879 0.904529C16.2803 0.904529 16.0462 0.976208 15.8401 1.03911C15.7409 1.06934 15.6475 1.09811 15.5711 1.11372C14.9954 1.23221 14.7632 1.53307 14.5382 1.82466C14.3854 2.02263 14.2272 2.22792 13.9596 2.37616C13.8537 2.43467 13.7952 2.49562 13.7811 2.56194C13.7637 2.64532 13.8194 2.71895 13.8682 2.78332C13.9098 2.83793 13.949 2.88962 13.9384 2.93496C13.9297 2.97251 13.8866 3.00957 13.8106 3.04663L12.8513 3.50986C12.7725 3.5479 12.697 3.56692 12.6264 3.56692C12.3303 3.56692 12.1658 3.24119 12.1107 2.93643C12.0245 2.46051 11.9133 2.38006 11.6225 2.38006C11.5858 2.38006 11.5461 2.38103 11.503 2.38249C11.4527 2.38396 11.3981 2.38542 11.3381 2.38542C11.2732 2.38542 11.2123 2.38347 11.1509 2.38006L9.91045 2.39371H9.90126C9.74984 2.39371 9.60616 2.35275 9.45425 2.30886C9.3038 2.26547 9.14851 2.22061 8.98548 2.22061C8.68118 2.22061 8.50944 2.02507 8.34303 1.83539C8.20176 1.67399 8.06872 1.52234 7.86893 1.52234C7.80749 1.52234 7.7504 1.52283 7.6967 1.52331C7.64929 1.5238 7.6043 1.52429 7.56125 1.52429C7.2555 1.52429 7.06441 1.50235 6.7427 1.37215C6.346 1.21173 6.36874 0.879173 6.391 0.557346C6.39825 0.450558 6.40503 0.349621 6.39777 0.255023C6.39438 0.215526 6.34649 0.196022 6.27295 0.166277C6.19265 0.134094 6.08283 0.0897214 6.06058 0.0195046L6.05429 0H6.03349C5.83853 0 5.64889 0.0833824 5.46505 0.164327C5.26816 0.25161 5.06594 0.341332 4.85695 0.32524L4.85066 0.324752L4.3814 0.488104C4.36253 0.498344 4.34173 0.509559 4.31996 0.520774C4.13129 0.622199 3.84586 0.774823 3.96487 1.02985C3.99051 1.08397 4.0505 1.12298 4.10371 1.15663C4.14677 1.18442 4.19514 1.21563 4.19418 1.23855C4.19418 1.2483 4.18353 1.27609 4.09404 1.32388C3.93923 1.40629 3.92617 1.43067 3.89714 1.52088C3.88698 1.55208 3.87392 1.59207 3.84779 1.64814C3.79651 1.76078 3.8207 1.84026 3.8507 1.88708C3.90294 1.96997 4.01712 2.02166 4.14822 2.02166C4.29287 2.02166 4.41768 1.93535 4.5275 1.85977C4.61893 1.79687 4.70262 1.7364 4.77325 1.75103C4.88839 1.77395 4.97354 1.78321 5.0582 1.78321C5.13367 1.78321 5.21059 1.7759 5.32476 1.75835C5.39587 1.74762 5.45441 1.74128 5.49795 1.74128C5.57003 1.74128 5.58067 1.75688 5.58067 1.75688C5.60196 1.82612 5.08529 2.13576 4.89904 2.20744C4.8463 2.22792 4.79164 2.23767 4.73165 2.23767C4.65038 2.23767 4.57152 2.22012 4.48831 2.20208C4.4051 2.18306 4.31899 2.16404 4.23094 2.16404H4.20724L4.20289 2.18745C4.18499 2.27863 4.20482 2.35958 4.22417 2.4376C4.24449 2.52 4.26384 2.59851 4.24401 2.69213C4.2174 2.82086 4.08243 2.88376 3.97358 2.93496C3.89279 2.97251 3.83522 2.99933 3.83231 3.04907C3.83135 3.07442 3.82989 3.09783 3.82893 3.1188C3.82119 3.29775 3.8207 3.31238 3.57349 3.31238C3.38918 3.31238 3.35241 3.32408 3.34225 3.35773C3.33209 3.39332 3.36692 3.41673 3.42546 3.45574C3.46029 3.47963 3.50383 3.50889 3.54011 3.54253C3.59817 3.59666 3.67122 3.63762 3.74185 3.67712C3.85215 3.73856 3.96584 3.80292 4.0205 3.91459C4.02969 3.93409 4.04082 3.95652 4.05388 3.98236C4.17434 4.22178 4.42397 4.7211 4.30448 4.93858C4.2711 4.99953 4.21014 5.03367 4.11871 5.04244C3.89182 5.06292 3.87876 5.1268 3.88408 5.22871C3.88698 5.27845 3.8894 5.33453 3.84441 5.40084C3.7941 5.47447 3.7254 5.51104 3.63493 5.51104C3.45981 5.51104 3.24017 5.3789 3.04618 5.26187C2.89669 5.17117 2.76704 5.09315 2.68238 5.09315C2.64949 5.09315 2.59143 5.10583 2.57885 5.19165C2.56386 5.28918 2.61175 5.39499 2.65819 5.49739C2.68674 5.56029 2.71383 5.62027 2.72544 5.67488C2.71092 5.72121 2.70367 5.76558 2.69641 5.808C2.6819 5.89285 2.6698 5.96696 2.6074 6.03377C2.59192 6.05035 2.57547 6.06546 2.55902 6.08107C2.49661 6.13958 2.4313 6.20053 2.44243 6.30878C2.44775 6.36096 2.48065 6.42337 2.51451 6.48871C2.5595 6.57405 2.61078 6.67108 2.58611 6.73057C2.5745 6.75837 2.54644 6.77933 2.5 6.79299C2.42937 6.81493 2.35729 6.81639 2.28133 6.81786C2.21748 6.81883 2.15168 6.81981 2.08444 6.83443C1.93108 6.86613 1.90641 6.94415 1.88028 7.02607C1.86819 7.0641 1.85561 7.10311 1.82804 7.147C1.80772 7.18893 1.81885 7.23477 1.82949 7.27475C1.844 7.33034 1.85077 7.36594 1.81449 7.39714C1.74047 7.462 1.63211 7.45224 1.5281 7.37813C1.4536 7.32546 1.37039 7.29669 1.29056 7.26841L1.25718 7.2572C1.22477 7.24549 1.19333 7.23818 1.16285 7.23135C1.08448 7.21429 1.02255 7.20063 0.98627 7.12018C0.928701 6.99291 0.896288 6.84955 0.892901 6.70619L0.891934 6.65889L0.113541 7.0719L0.109671 7.08166C0.0400071 7.25086 0.0066267 7.3869 0.00130518 7.52295C-0.00546766 7.70093 0.0153347 7.87549 0.0356532 8.04372C0.0438774 8.11101 0.0521015 8.17782 0.0583906 8.2456C0.0704849 8.37091 0.0762903 8.49769 0.0816118 8.62009C0.0883846 8.77515 0.0956412 8.93509 0.11596 9.09454C0.143051 9.30762 0.221906 9.40661 0.365587 9.40661C0.464277 9.40661 0.585221 9.35834 0.713421 9.30665C0.717291 9.31396 0.721161 9.32177 0.725031 9.32957C0.732772 9.34468 0.740996 9.36029 0.748736 9.37394C0.72745 9.39003 0.6902 9.40612 0.658754 9.42075C0.627309 9.43489 0.598283 9.44806 0.576997 9.4622C0.554743 9.47732 0.523781 9.49292 0.491369 9.50901C0.397516 9.55582 0.28141 9.61385 0.265446 9.71917C0.262543 9.73965 0.256738 9.75672 0.2519 9.7733C0.238355 9.81523 0.224809 9.85863 0.253352 9.92251C0.291086 10.0064 0.39026 10.0103 0.477339 10.0127C0.523781 10.0147 0.572159 10.0161 0.601669 10.0303C0.636501 10.0478 0.735675 10.1205 0.752123 10.1517C0.746801 10.1532 0.73761 10.1546 0.721645 10.1546C0.523298 10.1546 0.439121 10.1731 0.398 10.2248C0.353977 10.2794 0.37236 10.3619 0.399935 10.4857C0.404773 10.5076 0.410095 10.5311 0.415416 10.5564C0.436218 10.6564 0.423156 10.7558 0.408159 10.8612C0.389292 10.9958 0.369941 11.1352 0.430413 11.2737C0.481209 11.3897 0.538778 11.4463 0.606023 11.4463C0.742447 11.4463 0.856134 11.2035 0.947568 11.0084C0.968854 10.9631 0.993526 10.9104 1.01191 10.8782C1.01239 10.888 1.01288 10.9012 1.01288 10.9172C1.01288 11.2006 1.19961 11.2235 1.28911 11.2347C1.29734 11.2357 1.30653 11.2361 1.31427 11.2376C1.30169 11.2522 1.27363 11.2786 1.21558 11.3264C1.17494 11.3595 1.11592 11.3907 1.054 11.4239C0.932571 11.4887 0.806306 11.556 0.797114 11.655C0.791792 11.7106 0.823722 11.7657 0.894836 11.8237C0.961113 11.8779 1.07577 12.0202 1.0569 12.0729C1.05013 12.0929 1.01288 12.0958 0.991107 12.0958C0.915639 12.0958 0.850813 12.0934 0.79663 12.0909C0.757444 12.0885 0.723096 12.087 0.694554 12.087C0.643274 12.087 0.585705 12.0905 0.561516 12.13C0.531522 12.1792 0.559097 12.2553 0.652465 12.4459C0.690684 12.5239 0.713421 12.6103 0.735191 12.6931C0.748253 12.7439 0.762282 12.7951 0.779214 12.8448C0.801468 12.9101 0.858069 12.954 0.907898 12.9935C0.930636 13.0111 0.952889 13.0286 0.968854 13.0457C0.856618 13.053 0.782601 13.0867 0.742931 13.1486C0.66456 13.2695 0.748737 13.4611 0.823238 13.6294C0.852748 13.6952 0.879839 13.7581 0.892901 13.8059C0.904996 13.8522 0.964984 13.9019 1.02836 13.9551C1.06125 13.9824 1.11447 14.0263 1.1256 14.0473C1.12318 14.0482 1.11979 14.0492 1.11495 14.0502C1.05061 14.0629 1.00272 14.0965 0.97224 14.1497C0.895804 14.2852 0.964016 14.5003 0.984818 14.5563C1.0032 14.709 1.18849 15.0079 1.26734 15.1293C1.54938 15.5647 1.61276 16.676 1.63356 17.0412C1.66936 17.6673 1.81739 18.2252 1.97365 18.8147C2.03267 19.0356 2.09315 19.2648 2.14733 19.4964L2.70367 22.1193C2.74576 22.3182 2.79655 22.524 2.90976 22.6576C2.96055 22.7171 3.00409 22.7668 3.04231 22.8097C3.19567 22.9823 3.25904 23.0545 3.36789 23.3529C3.39305 23.4217 3.41724 23.487 3.44142 23.5504L3.45497 23.585L3.77087 23.3607C3.86086 23.3364 3.91552 23.2925 3.95519 23.2603C3.98277 23.2379 4.0026 23.2218 4.02099 23.2218C4.04904 23.2218 4.09113 23.2583 4.15402 23.3378C4.19901 23.3949 4.23627 23.4792 4.27594 23.5689C4.36301 23.7645 4.4617 23.9868 4.68182 23.9995C4.68811 24 4.69392 24 4.7002 24C4.88984 24 4.97063 23.8298 5.04223 23.6801C5.10561 23.5475 5.16076 23.4319 5.27299 23.4319L5.28073 23.4314C5.33298 23.4163 5.38378 23.408 5.43264 23.4002C5.60148 23.3734 5.74709 23.3495 5.74709 23.0648C5.74709 22.9428 5.76741 22.7137 5.79402 22.6015C5.81917 22.4947 5.88642 22.4884 5.96431 22.4811C6.01704 22.4762 6.07122 22.4708 6.10267 22.4274C6.13024 22.3879 6.13218 22.3275 6.10944 22.2343C6.07993 22.1163 6.10025 22.1027 6.14475 22.0744C6.1762 22.0539 6.22022 22.0252 6.25699 21.9583C6.31456 21.854 6.23764 21.7643 6.16991 21.6838C6.13169 21.639 6.09251 21.5926 6.08186 21.5497L6.07993 21.54L6.07219 21.5341C5.98801 21.4654 5.94689 21.3454 5.90674 21.2294C5.88158 21.1557 5.85594 21.0792 5.81869 21.0158C5.78821 20.9646 5.72968 20.9183 5.66775 20.87C5.58841 20.8076 5.50666 20.7432 5.49505 20.674C5.52069 20.6652 5.56616 20.6735 5.61405 20.6827C5.65372 20.6905 5.69484 20.6979 5.73597 20.6979C5.78144 20.6979 5.81869 20.6881 5.85062 20.6671C5.93093 20.615 5.99624 20.5277 6.05913 20.4428C6.16362 20.3019 6.26038 20.1693 6.42196 20.1805C6.45727 20.1834 6.49888 20.2229 6.53903 20.2619C6.59176 20.3126 6.65175 20.3702 6.72432 20.3702C6.75334 20.3702 6.78189 20.3604 6.80994 20.3424C6.87622 20.299 6.89799 20.2263 6.91879 20.1566C6.93766 20.0947 6.95556 20.0357 7.00249 20.0025L7.62607 19.5666C7.77798 19.4608 7.8399 19.3247 7.89989 19.1936C7.9444 19.0965 7.98987 18.9966 8.0726 18.9088C8.1471 18.921 8.2932 19.0507 8.40156 19.1463C8.47703 19.2131 8.54234 19.2701 8.5883 19.2979C8.63861 19.3286 8.69812 19.3433 8.76584 19.3433C8.95935 19.3433 9.19737 19.2184 9.40733 19.1087C9.52827 19.0453 9.64244 18.9858 9.73629 18.9551C9.76242 18.9463 9.79096 18.9429 9.82047 18.9429C9.95545 18.9429 10.1006 19.0307 10.2278 19.1077C10.3599 19.1877 10.4721 19.2496 10.5432 19.2092L10.5577 19.2004V19.1843C10.5577 19.0526 10.5476 18.8756 10.5365 18.6879C10.506 18.1696 10.4678 17.5264 10.5998 17.2255C10.7164 17.2592 10.8229 17.3177 10.9264 17.3748C11.0788 17.4576 11.2229 17.5366 11.3894 17.5366C11.4271 17.5366 11.4648 17.5323 11.5016 17.5245C11.5398 17.5157 11.5713 17.5118 11.5974 17.5118C11.6728 17.5118 11.6936 17.544 11.7304 17.603C11.7623 17.6537 11.802 17.7161 11.8915 17.7702C11.9055 17.7795 11.9496 17.8053 12.1968 17.8053C12.5654 17.8053 13.426 17.7307 13.4788 17.6512C13.5402 17.5576 13.4318 17.4806 13.3172 17.3996C13.158 17.287 12.9602 17.1461 13.0501 16.912C13.0903 16.8077 13.0787 16.7043 13.0676 16.6043C13.0487 16.4356 13.0327 16.2898 13.2504 16.1586C13.2925 16.1328 13.3404 16.1206 13.3965 16.1206C13.487 16.1206 13.5838 16.1523 13.6776 16.1835C13.7652 16.2123 13.8479 16.2391 13.9209 16.2391C14.0724 16.2391 14.1464 16.1201 14.1546 15.8646C14.159 15.7295 14.321 15.692 14.4782 15.6564C14.544 15.6418 14.6055 15.6271 14.6519 15.6057C14.8208 15.5272 14.8329 15.3585 14.844 15.1941C14.8488 15.1229 14.8541 15.0488 14.8701 14.9927L14.8793 14.9776C14.9683 14.8265 15.0786 14.6387 15.2344 14.5685C15.2968 14.5402 15.3781 14.5285 15.4647 14.5154C15.6751 14.4842 15.9136 14.4476 15.9228 14.156C15.9243 14.1043 15.9223 14.0497 15.9194 13.9912C15.9122 13.8156 15.9044 13.6157 16.0176 13.4899C16.1076 13.3909 16.1589 13.3704 16.1869 13.3704C16.2677 13.3704 16.2871 13.5699 16.2992 13.7025C16.305 13.7596 16.3098 13.8098 16.318 13.8439C16.3717 14.0619 16.6427 14.0707 16.84 14.0775C16.8976 14.0794 16.9518 14.0809 16.9919 14.0877L17.02 14.0916L17.0253 14.0643C17.0398 13.9878 17.0321 13.9073 17.0248 13.8293C17.0147 13.724 17.006 13.624 17.05 13.5396C17.1255 13.3953 17.2382 13.3427 17.3567 13.2866C17.5028 13.2183 17.6537 13.1476 17.7302 12.9053C17.7495 12.8443 17.7621 12.7916 17.7742 12.7458C17.8076 12.6078 17.8284 12.5244 17.9745 12.4001C18.0616 12.3265 18.1482 12.2397 18.2328 12.1558C18.2846 12.1041 18.3364 12.0519 18.3871 12.0046C18.4007 11.9915 18.407 11.9744 18.4041 11.9568C18.3944 11.8998 18.2894 11.8491 18.1037 11.7642C17.9851 11.7106 17.8516 11.6496 17.8134 11.6043C17.6949 11.4648 17.646 11.3595 17.662 11.2713C17.6833 11.1498 17.8323 11.0577 18.0248 10.9494L18.0335 10.9446L18.0379 10.9348C18.1041 10.7744 18.139 10.6437 18.168 10.5384C18.2188 10.3487 18.2391 10.2887 18.3315 10.2887C18.4152 10.2887 18.5579 10.3428 18.7466 10.4248C18.7611 10.4311 18.7805 10.4404 18.8027 10.4506C18.8975 10.4964 19.0412 10.5657 19.1505 10.5657C19.1892 10.5657 19.2217 10.5564 19.2468 10.5393C19.3044 10.4989 19.2807 10.3921 19.2531 10.2697C19.2347 10.1863 19.2139 10.0917 19.2304 10.0488C19.2492 9.99809 19.3711 9.95079 19.479 9.90934C19.6348 9.84888 19.7964 9.78695 19.8201 9.6748C19.8322 9.61531 19.8056 9.55338 19.7374 9.48463C19.4993 9.24472 19.5453 9.17451 19.6972 8.94484C19.7112 8.92387 19.7257 8.90144 19.7412 8.87804C19.8602 8.69469 19.8302 8.43723 19.8061 8.22999C19.7925 8.11687 19.7785 7.99935 19.8065 7.96717C19.8104 7.96375 19.8157 7.95888 19.8288 7.95888C19.8767 7.95888 19.9686 8.01203 20.1041 8.11687C20.3 8.26851 20.4388 8.27534 20.6144 8.28461C20.6812 8.28753 20.7499 8.29143 20.8302 8.30265C20.9782 8.32313 21.0465 8.40651 21.1248 8.50403C21.1674 8.55523 21.2105 8.60838 21.2685 8.65617C21.3522 8.72443 21.4615 8.75516 21.568 8.7849C21.7353 8.8322 21.8935 8.87657 21.9298 9.06089C21.9381 9.1038 21.9419 9.15451 21.9463 9.20815C21.9603 9.38613 21.9777 9.608 22.1814 9.67773C22.3251 9.72649 22.4421 9.75087 22.5399 9.75087C22.7726 9.75087 22.8911 9.6119 22.8911 9.33834C22.8911 9.10673 22.9719 9.10673 22.9985 9.10673C23.1073 9.10673 23.2873 9.25496 23.4319 9.37394C23.5403 9.46366 23.6332 9.54022 23.6966 9.56021L23.7067 9.56314L23.7164 9.55924C23.8296 9.51681 23.8717 9.46171 23.8988 9.42465C23.9201 9.39686 23.9264 9.39101 23.9433 9.39101C23.9689 9.39101 24.0139 9.40661 24.0841 9.44074C24.0976 9.44757 24.1136 9.45098 24.13 9.45098C24.265 9.45098 24.4648 9.23741 24.4958 9.19742C24.5437 9.13745 24.5959 9.10819 24.6569 9.10819C24.7633 9.10819 24.8779 9.19742 24.9786 9.27544C25.01 9.29982 25.04 9.32274 25.0676 9.34176C25.0981 9.36273 25.1339 9.3993 25.1687 9.43538C25.2214 9.48902 25.2722 9.54071 25.3201 9.55924C25.6292 9.6787 25.5688 9.8874 25.4919 10.1527C25.4662 10.2409 25.4396 10.3326 25.4256 10.4272C25.3883 10.6681 25.4261 10.9041 25.4648 11.1523C25.4923 11.3278 25.5209 11.5087 25.5209 11.6906C25.5209 11.7135 25.5194 11.7428 25.5175 11.7759C25.5093 11.9529 25.5078 12.1046 25.5697 12.168C25.6147 12.2138 25.6757 12.2362 25.7337 12.2582C25.7512 12.265 25.7681 12.2709 25.785 12.2782C25.8276 12.2962 25.8653 12.3343 25.9055 12.3742C25.9655 12.4347 26.0279 12.4971 26.1164 12.5015C26.2388 12.5088 26.3515 12.4893 26.4618 12.4708C26.5537 12.4557 26.651 12.4396 26.7487 12.4396H26.7724L26.83 12.1382C26.8537 12.0817 26.8803 12.0427 26.9006 12.011C26.9601 11.9212 26.9814 11.8754 26.8527 11.715C26.7448 11.5804 26.7724 11.4609 26.8232 11.3064C26.8551 11.2093 26.8793 11.1172 26.9025 11.0279C26.9708 10.7651 27.0303 10.5379 27.261 10.3224C27.2838 10.3014 27.3481 10.2317 27.4226 10.1507C27.5044 10.062 27.62 9.93714 27.6727 9.88594C27.7085 9.96786 27.7825 10.0273 27.8488 10.08C27.8909 10.1141 27.931 10.1463 27.9591 10.1814C28.0341 10.2755 28.0781 10.317 28.1366 10.317C28.1729 10.317 28.2102 10.3009 28.2668 10.276C28.2828 10.2687 28.3011 10.2609 28.3219 10.2521C28.4845 10.1829 28.6944 10.0171 28.7718 9.81426C28.8105 9.70942 28.8096 9.61092 28.7675 9.52071Z" fill="white"/>
</svg>
