<svg width="25" height="26" viewBox="0 0 25 26" fill="none" xmlns="http://www.w3.org/2000/svg">
<g clip-path="url(#clip0_460_1262)">
<path d="M12.5 0.75C5.5965 0.75 0 6.3465 0 13.25C0 19.112 4.036 24.031 9.4805 25.382V17.07H6.903V13.25H9.4805V11.604C9.4805 7.3495 11.406 5.3775 15.583 5.3775C16.375 5.3775 17.7415 5.533 18.3005 5.688V9.1505C18.0055 9.1195 17.493 9.104 16.8565 9.104C14.807 9.104 14.015 9.8805 14.015 11.899V13.25H18.098L17.3965 17.07H14.015V25.6585C20.2045 24.911 25.0005 19.641 25.0005 13.25C25 6.3465 19.4035 0.75 12.5 0.75Z" fill="#2B2F34"/>
</g>
<defs>
<clipPath id="clip0_460_1262">
<rect width="25" height="25" fill="white" transform="translate(0 0.75)"/>
</clipPath>
</defs>
</svg>
