<svg width="25" height="26" viewBox="0 0 25 26" fill="none" xmlns="http://www.w3.org/2000/svg">
<g clip-path="url(#clip0_460_1264)">
<path d="M12.5 3.00098C15.8398 3.00098 16.2354 3.01562 17.5488 3.07422C18.7695 3.12793 19.4287 3.33301 19.8682 3.50391C20.4492 3.72852 20.8691 4.00195 21.3037 4.43652C21.7432 4.87598 22.0117 5.29102 22.2363 5.87207C22.4072 6.31152 22.6123 6.97559 22.666 8.19141C22.7246 9.50976 22.7393 9.90527 22.7393 13.2402C22.7393 16.5801 22.7246 16.9756 22.666 18.2891C22.6123 19.5098 22.4072 20.1689 22.2363 20.6084C22.0117 21.1895 21.7383 21.6094 21.3037 22.0439C20.8643 22.4834 20.4492 22.752 19.8682 22.9766C19.4287 23.1475 18.7646 23.3525 17.5488 23.4062C16.2305 23.4648 15.835 23.4795 12.5 23.4795C9.16016 23.4795 8.76465 23.4648 7.45117 23.4062C6.23047 23.3525 5.57129 23.1475 5.13184 22.9766C4.55078 22.752 4.13086 22.4785 3.69629 22.0439C3.25684 21.6045 2.98828 21.1895 2.76367 20.6084C2.59277 20.1689 2.3877 19.5049 2.33398 18.2891C2.27539 16.9707 2.26074 16.5752 2.26074 13.2402C2.26074 9.90039 2.27539 9.50488 2.33398 8.19141C2.3877 6.9707 2.59277 6.31152 2.76367 5.87207C2.98828 5.29102 3.26172 4.87109 3.69629 4.43652C4.13574 3.99707 4.55078 3.72852 5.13184 3.50391C5.57129 3.33301 6.23535 3.12793 7.45117 3.07422C8.76465 3.01562 9.16016 3.00098 12.5 3.00098ZM12.5 0.75C9.10645 0.75 8.68164 0.764648 7.34863 0.823242C6.02051 0.881836 5.10742 1.09668 4.31641 1.4043C3.49121 1.72656 2.79297 2.15137 2.09961 2.84961C1.40137 3.54297 0.976562 4.24121 0.654297 5.06152C0.34668 5.85742 0.131836 6.76562 0.0732422 8.09375C0.0146484 9.43164 0 9.85644 0 13.25C0 16.6436 0.0146484 17.0684 0.0732422 18.4014C0.131836 19.7295 0.34668 20.6426 0.654297 21.4336C0.976562 22.2588 1.40137 22.957 2.09961 23.6504C2.79297 24.3437 3.49121 24.7734 4.31152 25.0908C5.10742 25.3984 6.01562 25.6133 7.34375 25.6719C8.67676 25.7305 9.10156 25.7451 12.4951 25.7451C15.8887 25.7451 16.3135 25.7305 17.6465 25.6719C18.9746 25.6133 19.8877 25.3984 20.6787 25.0908C21.499 24.7734 22.1973 24.3437 22.8906 23.6504C23.584 22.957 24.0137 22.2588 24.3311 21.4385C24.6387 20.6426 24.8535 19.7344 24.9121 18.4063C24.9707 17.0732 24.9854 16.6484 24.9854 13.2549C24.9854 9.86133 24.9707 9.43652 24.9121 8.10352C24.8535 6.77539 24.6387 5.8623 24.3311 5.07129C24.0234 4.24121 23.5986 3.54297 22.9004 2.84961C22.207 2.15625 21.5088 1.72656 20.6885 1.40918C19.8926 1.10156 18.9844 0.886719 17.6563 0.828125C16.3184 0.764648 15.8936 0.75 12.5 0.75Z" fill="#2B2F34"/>
<path d="M12.5 6.8291C8.95508 6.8291 6.0791 9.70508 6.0791 13.25C6.0791 16.7949 8.95508 19.6709 12.5 19.6709C16.0449 19.6709 18.9209 16.7949 18.9209 13.25C18.9209 9.70508 16.0449 6.8291 12.5 6.8291ZM12.5 17.415C10.2002 17.415 8.33496 15.5498 8.33496 13.25C8.33496 10.9502 10.2002 9.08496 12.5 9.08496C14.7998 9.08496 16.665 10.9502 16.665 13.25C16.665 15.5498 14.7998 17.415 12.5 17.415Z" fill="#2B2F34"/>
<path d="M20.6738 6.5752C20.6738 7.40528 20 8.07422 19.1748 8.07422C18.3447 8.07422 17.6758 7.40039 17.6758 6.5752C17.6758 5.74512 18.3496 5.07617 19.1748 5.07617C20 5.07617 20.6738 5.75 20.6738 6.5752Z" fill="#2B2F34"/>
</g>
<defs>
<clipPath id="clip0_460_1264">
<rect width="25" height="25" fill="white" transform="translate(0 0.75)"/>
</clipPath>
</defs>
</svg>
