<svg width="60" height="51" viewBox="0 0 60 51" fill="none" xmlns="http://www.w3.org/2000/svg">
<path d="M59.9323 20.3348C59.769 19.964 59.637 19.7324 59.1754 19.6379C59.1512 19.6329 59.1038 19.6288 59.0423 19.6227C58.871 19.6085 58.4679 19.5739 58.4124 19.453C58.3993 19.4256 58.4094 19.389 58.4406 19.3433C58.4618 19.3169 58.486 19.2895 58.5112 19.259C58.613 19.1483 58.7642 18.9797 58.5928 18.8049C58.49 18.7023 58.3701 18.6129 58.2542 18.5256C58.0647 18.3833 57.8672 18.236 57.7593 18.04C57.6918 17.916 57.59 17.8541 57.457 17.8541C57.3259 17.8541 57.1869 17.913 57.0649 17.9658C56.9762 18.0034 56.8936 18.039 56.8432 18.039C56.822 18.039 56.815 18.0359 56.8079 18.0105C56.7746 17.8835 56.8291 17.8033 56.8875 17.7169C56.9339 17.6509 56.9813 17.5808 56.9813 17.4914C56.9813 17.3847 56.9137 17.3218 56.8583 17.272C56.8069 17.2242 56.7777 17.1958 56.7817 17.1501C56.7918 17.0363 56.8432 17.0129 56.9228 17.0129C56.9802 17.0129 57.0478 17.0272 57.1133 17.0414C57.2544 17.0708 57.3784 17.081 57.4287 17.0068C57.4892 16.9185 57.5074 16.7275 57.5275 16.5253C57.5416 16.3943 57.5537 16.2592 57.5789 16.183C57.7351 15.6964 57.3209 15.4841 56.9863 15.3144C56.7908 15.2148 56.6053 15.1204 56.5942 15.0015C56.5862 14.8999 56.6991 14.7597 56.9299 14.584C57.076 14.4733 57.2151 14.3991 57.339 14.3341C57.6444 14.1715 57.8863 14.0425 57.9518 13.5194C58.0566 12.6823 58.0546 12.1286 57.9367 11.2418L57.9266 11.1615L57.8531 11.194C57.7624 11.2347 57.6726 11.2814 57.59 11.3251C57.4479 11.3992 57.3159 11.4704 57.2403 11.4704C57.2151 11.4704 57.209 11.4622 57.206 11.4571C57.1828 11.4257 57.1607 11.3119 57.2776 10.9065L57.2987 10.8365C57.4237 10.4098 57.595 9.82567 57.595 9.4051C57.595 9.1237 57.3925 9.0658 57.2302 9.01805C57.1213 8.98656 57.0185 8.9571 56.9742 8.87278C56.9258 8.77932 56.953 8.68485 56.9863 8.57717C57.0024 8.52536 57.0165 8.47355 57.0246 8.41869C57.0417 8.27952 57.0437 8.15863 57.0458 8.04079C57.0488 7.76447 57.0518 7.54606 57.2695 7.26568C57.4025 7.09501 57.6001 6.9467 57.8107 6.79025C58.1524 6.53527 58.5062 6.27318 58.5797 5.88613L58.5908 5.83127L58.5374 5.81604C57.8218 5.61693 56.9238 5.2309 56.5559 4.74226C56.4874 4.65084 56.4421 4.54417 56.3977 4.43954C56.3614 4.3542 56.3241 4.26582 56.2737 4.18455C56.0087 3.76398 55.7839 3.61262 55.3485 3.41351L55.3243 3.40843C54.9111 3.40843 54.6773 3.637 54.4717 3.83814C54.2741 4.03116 54.1038 4.19471 53.8186 4.15712C53.6805 4.13985 53.482 4.13884 53.2713 4.13782C52.9044 4.13681 52.4479 4.13376 52.2846 4.03624C52.0165 3.8737 51.7696 3.79344 51.5297 3.79344C51.2838 3.79344 51.0863 3.87573 50.9129 3.94786C50.7698 4.00678 50.6468 4.05757 50.5229 4.05757C50.3475 4.05757 50.1872 3.95293 50.0038 3.71827C49.647 3.26824 49.4485 3.25808 49.1733 3.24487C49.0121 3.23675 48.8297 3.2276 48.5646 3.12297C48.3912 3.05592 48.232 3.02342 48.0748 3.02342C47.6878 3.02342 47.3814 3.22862 47.0548 3.44602C46.8442 3.58722 46.6265 3.73148 46.3624 3.84627C46.1467 3.93871 46.0288 3.9763 45.9421 4.00271C45.7436 4.0657 45.7264 4.07789 45.3314 4.44766C45.2034 4.56855 44.8859 4.63864 44.4596 4.63864C44.1391 4.63864 43.7964 4.59598 43.6059 4.53604C43.3781 4.46188 43.1312 4.46188 42.9125 4.46087C42.4378 4.45985 42.1909 4.43852 42.1909 3.98849C42.1909 3.82798 42.0951 3.73655 41.9298 3.73655C41.5922 3.73655 40.9794 4.08906 40.5732 4.32373C40.4483 4.39585 40.3183 4.47103 40.291 4.47814L40.2689 4.4883C38.8568 5.55801 37.8974 5.69718 36.183 5.74391C35.7839 5.74391 34.6631 4.99826 34.6631 4.56246C34.6631 4.47204 34.7166 4.40195 34.8264 4.35014C34.9655 4.28411 35.1832 4.25058 35.4785 4.25058C35.5349 4.25058 35.5813 4.22519 35.6095 4.17846C35.7698 3.91332 35.2941 2.90456 35.289 2.8944C35.1157 2.55104 34.8083 2.38443 34.3497 2.38443C33.9173 2.38443 33.4295 2.53377 33.0002 2.66481C32.7935 2.7278 32.599 2.78773 32.4398 2.82024C31.2404 3.0671 30.7567 3.69389 30.288 4.30138C29.9695 4.71382 29.6399 5.1415 29.0826 5.45032C28.8619 5.57223 28.7399 5.69921 28.7107 5.83737C28.6744 6.01108 28.7903 6.16448 28.8921 6.29857C28.9788 6.41235 29.0604 6.52003 29.0382 6.61451C29.0201 6.69273 28.9304 6.76994 28.7722 6.84714L26.7736 7.81222C26.6093 7.89145 26.4521 7.93107 26.3049 7.93107C25.6881 7.93107 25.3454 7.25247 25.2305 6.61756C25.0511 5.62607 24.8193 5.45845 24.2136 5.45845C24.137 5.45845 24.0544 5.46048 23.9647 5.46353C23.8598 5.46658 23.746 5.46963 23.621 5.46963C23.4859 5.46963 23.3589 5.46556 23.2309 5.45845L20.6468 5.48689H20.6276C20.3122 5.48689 20.0128 5.40156 19.6964 5.31013C19.3829 5.21972 19.0594 5.12626 18.7197 5.12626C18.0858 5.12626 17.728 4.7189 17.3813 4.32373C17.087 3.98747 16.8098 3.67154 16.3936 3.67154C16.2656 3.67154 16.1467 3.67255 16.0348 3.67357C15.936 3.67459 15.8423 3.6756 15.7526 3.6756C15.1156 3.6756 14.7175 3.62989 14.0473 3.35865C13.2208 3.02443 13.2682 2.33161 13.3146 1.66114C13.3297 1.43866 13.3438 1.22838 13.3287 1.0313C13.3216 0.949013 13.2219 0.908378 13.0687 0.846411C12.9014 0.779363 12.6726 0.68692 12.6262 0.540635L12.6131 0.5H12.5698C12.1636 0.5 11.7685 0.673713 11.3855 0.842347C10.9753 1.02419 10.554 1.21111 10.1186 1.17758L10.1055 1.17657L9.12791 1.51688C9.08861 1.53822 9.04527 1.56158 8.99991 1.58495C8.60685 1.79625 8.01221 2.11421 8.26014 2.64551C8.31356 2.75827 8.43853 2.83954 8.5494 2.90964C8.6391 2.96754 8.73988 3.03256 8.73787 3.0803C8.73787 3.10062 8.7157 3.15853 8.52924 3.25808C8.20673 3.42976 8.17951 3.48056 8.11904 3.66849C8.09788 3.73351 8.07066 3.81681 8.01624 3.93363C7.90941 4.1683 7.9598 4.33388 8.02229 4.43141C8.13113 4.60411 8.36899 4.71179 8.64212 4.71179C8.94347 4.71179 9.2035 4.53198 9.43229 4.37452C9.62277 4.24347 9.79713 4.1175 9.94428 4.14798C10.1842 4.19573 10.3615 4.21503 10.5379 4.21503C10.6951 4.21503 10.8554 4.19979 11.0932 4.16322C11.2414 4.14087 11.3634 4.12766 11.4541 4.12766C11.6042 4.12766 11.6264 4.16017 11.6264 4.16017C11.6708 4.30442 10.5944 4.9495 10.2063 5.09883C10.0965 5.1415 9.98258 5.16182 9.8576 5.16182C9.68828 5.16182 9.524 5.12525 9.35065 5.08766C9.1773 5.04804 8.9979 5.00842 8.81447 5.00842H8.76508L8.75601 5.05718C8.71872 5.24715 8.76004 5.41578 8.80036 5.57832C8.84269 5.75 8.883 5.91356 8.84168 6.10861C8.78625 6.3768 8.50505 6.50784 8.27828 6.61451C8.10997 6.69273 7.99003 6.7486 7.98399 6.85222C7.98197 6.90505 7.97895 6.95381 7.97693 6.99749C7.96081 7.37031 7.9598 7.40079 7.44478 7.40079C7.06078 7.40079 6.98419 7.42517 6.96302 7.49527C6.94186 7.56942 7.01442 7.61819 7.13637 7.69946C7.20894 7.74923 7.29965 7.81018 7.37524 7.88028C7.49618 7.99304 7.64837 8.07837 7.79552 8.16066C8.02531 8.28866 8.26216 8.42275 8.37605 8.65539C8.3952 8.69602 8.41838 8.74275 8.44559 8.79659C8.69655 9.29538 9.2166 10.3356 8.96766 10.7887C8.89812 10.9157 8.77113 10.9868 8.58064 11.0051C8.10795 11.0478 8.08074 11.1808 8.09183 11.3932C8.09788 11.4968 8.10292 11.6136 8.00918 11.7518C7.90437 11.9051 7.76125 11.9813 7.57278 11.9813C7.20793 11.9813 6.75036 11.706 6.34621 11.4622C6.03478 11.2733 5.76467 11.1107 5.5883 11.1107C5.51976 11.1107 5.39882 11.1372 5.37261 11.3159C5.34137 11.5191 5.44115 11.7396 5.5379 11.9529C5.59737 12.0839 5.65381 12.2089 5.678 12.3227C5.64776 12.4192 5.63264 12.5116 5.61753 12.6C5.58729 12.7768 5.56209 12.9312 5.43208 13.0703C5.39983 13.1049 5.36556 13.1364 5.33129 13.1689C5.20128 13.2908 5.06522 13.4178 5.0884 13.6433C5.09948 13.752 5.16802 13.882 5.23857 14.0182C5.3323 14.1959 5.43913 14.3981 5.38773 14.522C5.36354 14.5799 5.30509 14.6236 5.20833 14.6521C5.06118 14.6978 4.91101 14.7008 4.75278 14.7039C4.61974 14.7059 4.48267 14.7079 4.34258 14.7384C4.02309 14.8044 3.97168 14.967 3.91726 15.1376C3.89206 15.2169 3.86586 15.2981 3.80841 15.3896C3.76608 15.4769 3.78926 15.5724 3.81143 15.6557C3.84167 15.7715 3.85578 15.8457 3.78019 15.9107C3.62599 16.0458 3.40023 16.0255 3.18354 15.8711C3.02832 15.7614 2.85497 15.7014 2.68867 15.6425L2.61913 15.6192C2.55161 15.5948 2.48609 15.5795 2.4226 15.5653C2.25932 15.5298 2.13032 15.5013 2.05473 15.3337C1.93479 15.0686 1.86727 14.7699 1.86021 14.4712L1.8582 14.3727L0.236543 15.2331L0.22848 15.2534C0.0833482 15.606 0.0138056 15.8894 0.00271913 16.1728C-0.011391 16.5436 0.0319473 16.9073 0.0742775 17.2578C0.0914112 17.3979 0.108545 17.5371 0.121647 17.6783C0.146844 17.9394 0.158938 18.2035 0.170025 18.4585C0.184135 18.7816 0.199252 19.1148 0.241583 19.4469C0.298023 19.8909 0.462305 20.0971 0.76164 20.0971C0.967244 20.0971 1.21921 19.9965 1.48629 19.8889C1.49436 19.9041 1.50242 19.9203 1.51048 19.9366C1.52661 19.9681 1.54374 20.0006 1.55987 20.029C1.51552 20.0626 1.43792 20.0961 1.37241 20.1266C1.30689 20.156 1.24642 20.1835 1.20208 20.2129C1.15571 20.2444 1.09121 20.2769 1.02368 20.3104C0.828159 20.408 0.586272 20.5288 0.553012 20.7483C0.546965 20.7909 0.534871 20.8265 0.524792 20.861C0.496572 20.9484 0.468352 21.0388 0.527816 21.1719C0.606429 21.3466 0.813041 21.3548 0.994456 21.3598C1.09121 21.3639 1.192 21.3669 1.25348 21.3964C1.32604 21.433 1.53266 21.5843 1.56692 21.6494C1.55584 21.6524 1.53669 21.6554 1.50343 21.6554C1.0902 21.6554 0.914835 21.694 0.829167 21.8017C0.737451 21.9155 0.77575 22.0872 0.833198 22.3452C0.843277 22.3909 0.854364 22.4397 0.86545 22.4925C0.908788 22.7008 0.881576 22.908 0.850332 23.1274C0.811025 23.4078 0.770711 23.6984 0.896694 23.9869C1.00252 24.2286 1.12246 24.3465 1.26255 24.3465C1.54677 24.3465 1.78361 23.8406 1.9741 23.4342C2.01845 23.3398 2.06985 23.23 2.10815 23.163C2.10915 23.1833 2.11016 23.2107 2.11016 23.2443C2.11016 23.8345 2.4992 23.8822 2.68565 23.9056C2.70278 23.9076 2.72193 23.9086 2.73806 23.9117C2.71186 23.9422 2.6534 23.997 2.53246 24.0966C2.4478 24.1657 2.32484 24.2307 2.19583 24.2998C1.94286 24.4349 1.6798 24.5751 1.66065 24.7813C1.64957 24.8971 1.71609 25.0119 1.86424 25.1328C2.00232 25.2455 2.24118 25.5422 2.20188 25.6519C2.18777 25.6935 2.11016 25.6996 2.06481 25.6996C1.90758 25.6996 1.77253 25.6945 1.65965 25.6895C1.57801 25.6844 1.50645 25.6813 1.44699 25.6813C1.34015 25.6813 1.22022 25.6884 1.16982 25.7707C1.10734 25.8733 1.16479 26.0318 1.3593 26.429C1.43892 26.5915 1.48629 26.7714 1.53165 26.9441C1.55886 27.0497 1.58809 27.1564 1.62336 27.26C1.66972 27.3961 1.78764 27.4875 1.89145 27.5698C1.93882 27.6064 1.98519 27.643 2.01845 27.6785C1.78462 27.6938 1.63042 27.7639 1.54777 27.8929C1.3845 28.1448 1.55987 28.544 1.71508 28.8945C1.77656 29.0317 1.833 29.1627 1.86021 29.2623C1.88541 29.3588 2.01038 29.4624 2.14241 29.5731C2.21095 29.63 2.32181 29.7214 2.34499 29.7651C2.33995 29.7672 2.3329 29.7692 2.32282 29.7712C2.18877 29.7976 2.089 29.8677 2.0255 29.9785C1.86626 30.2609 2.00837 30.7089 2.0517 30.8257C2.09 31.1437 2.47602 31.7664 2.6403 32.0193C3.22788 32.9265 3.35991 35.2417 3.40325 36.0025C3.47783 37.3069 3.78624 38.4691 4.11178 39.6973C4.23474 40.1574 4.36072 40.6349 4.4736 41.1174L5.63264 46.5818C5.72033 46.9963 5.82615 47.425 6.06199 47.7033C6.16782 47.8273 6.25853 47.9309 6.33815 48.0203C6.65764 48.3799 6.78967 48.5302 7.01644 49.1519C7.06885 49.2952 7.11924 49.4313 7.16963 49.5634L7.19785 49.6355L7.85599 49.1682C8.04345 49.1174 8.15734 49.026 8.23999 48.9589C8.29743 48.9122 8.33876 48.8787 8.37705 48.8787C8.43551 48.8787 8.52319 48.9549 8.65422 49.1204C8.74795 49.2393 8.82555 49.4151 8.9082 49.602C9.08961 50.0093 9.29522 50.4726 9.7538 50.499C9.7669 50.5 9.77899 50.5 9.79209 50.5C10.1872 50.5 10.3555 50.1455 10.5047 49.8336C10.6367 49.5573 10.7516 49.3165 10.9854 49.3165L11.0015 49.3155C11.1104 49.284 11.2162 49.2667 11.318 49.2505C11.6697 49.1946 11.9731 49.1448 11.9731 48.5516C11.9731 48.2976 12.0154 47.8201 12.0709 47.5865C12.1233 47.364 12.2634 47.3508 12.4256 47.3356C12.5355 47.3254 12.6484 47.3142 12.7139 47.2238C12.7713 47.1415 12.7754 47.0156 12.728 46.8215C12.6665 46.5757 12.7089 46.5473 12.8016 46.4883C12.8671 46.4457 12.9588 46.3857 13.0354 46.2466C13.1553 46.0292 12.9951 45.8422 12.854 45.6746C12.7744 45.5812 12.6927 45.4847 12.6706 45.3953L12.6665 45.375L12.6504 45.3628C12.475 45.2195 12.3894 44.9696 12.3057 44.7278C12.2533 44.5744 12.1999 44.4149 12.1223 44.2829C12.0588 44.1762 11.9368 44.0797 11.8078 43.9791C11.6425 43.8491 11.4722 43.715 11.448 43.5708C11.5014 43.5525 11.5962 43.5697 11.6959 43.5891C11.7786 43.6053 11.8643 43.6205 11.9499 43.6205C12.0447 43.6205 12.1223 43.6002 12.1888 43.5565C12.3561 43.4478 12.4922 43.266 12.6232 43.0892C12.8409 42.7957 13.0425 42.5193 13.3791 42.5427C13.4527 42.5488 13.5393 42.6311 13.623 42.7124C13.7328 42.818 13.8578 42.9379 14.009 42.9379C14.0695 42.9379 14.1289 42.9176 14.1874 42.88C14.3255 42.7896 14.3708 42.6382 14.4142 42.4929C14.4535 42.3639 14.4908 42.241 14.5885 42.1719L15.8877 41.2637C16.2041 41.0433 16.3331 40.7599 16.4581 40.4866C16.5508 40.2844 16.6456 40.0762 16.8179 39.8933C16.9731 39.9187 17.2775 40.1889 17.5033 40.3881C17.6605 40.5272 17.7965 40.6461 17.8923 40.704C17.9971 40.768 18.1211 40.7985 18.2622 40.7985C18.6653 40.7985 19.1612 40.5384 19.5986 40.3098C19.8506 40.1778 20.0884 40.0538 20.2839 39.9898C20.3384 39.9715 20.3978 39.9644 20.4593 39.9644C20.7405 39.9644 21.0429 40.1473 21.3079 40.3078C21.5831 40.4744 21.8169 40.6034 21.9651 40.5191L21.9953 40.5008V40.4673C21.9953 40.193 21.9741 39.8242 21.951 39.4331C21.8875 38.3533 21.8078 37.0133 22.083 36.3865C22.3259 36.4566 22.5476 36.5785 22.7633 36.6974C23.0808 36.8701 23.3811 37.0347 23.7278 37.0347C23.8064 37.0347 23.885 37.0255 23.9616 37.0093C24.0413 36.991 24.1068 36.9829 24.1612 36.9829C24.3184 36.9829 24.3618 37.0499 24.4384 37.1728C24.5049 37.2785 24.5875 37.4085 24.774 37.5213C24.8032 37.5406 24.8949 37.5944 25.4099 37.5944C26.1779 37.5944 27.9709 37.439 28.0808 37.2734C28.2088 37.0784 27.983 36.9178 27.7442 36.7492C27.4126 36.5145 27.0004 36.221 27.1878 35.7333C27.2715 35.5159 27.2473 35.3006 27.2241 35.0923C27.1848 34.7408 27.1515 34.4371 27.6051 34.1638C27.6928 34.11 27.7925 34.0846 27.9094 34.0846C28.0979 34.0846 28.2995 34.1506 28.495 34.2156C28.6774 34.2756 28.8498 34.3314 29.002 34.3314C29.3174 34.3314 29.4716 34.0836 29.4888 33.5513C29.4978 33.2699 29.8355 33.1916 30.163 33.1175C30.3001 33.087 30.4281 33.0565 30.5248 33.0118C30.8766 32.8483 30.9018 32.4968 30.925 32.1544C30.935 32.0061 30.9461 31.8517 30.9794 31.7349L30.9985 31.7034C31.184 31.3885 31.4138 30.9974 31.7383 30.8511C31.8683 30.7922 32.0377 30.7678 32.2181 30.7404C32.6565 30.6753 33.1534 30.5991 33.1725 29.9917C33.1755 29.884 33.1715 29.7702 33.1654 29.6483C33.1503 29.2826 33.1342 28.8661 33.37 28.604C33.5575 28.3978 33.6643 28.3551 33.7228 28.3551C33.8911 28.3551 33.9314 28.7706 33.9566 29.0469C33.9687 29.1658 33.9788 29.2704 33.9959 29.3415C34.1078 29.7956 34.6722 29.8139 35.0834 29.8281C35.2033 29.8322 35.3162 29.8352 35.3999 29.8494L35.4583 29.8576L35.4694 29.8007C35.4997 29.6412 35.4835 29.4736 35.4684 29.311C35.4473 29.0916 35.4291 28.8833 35.5208 28.7076C35.6781 28.4069 35.9129 28.2972 36.1598 28.1804C36.4642 28.0381 36.7786 27.8908 36.9379 27.386C36.9782 27.259 37.0044 27.1493 37.0296 27.0538C37.0991 26.7663 37.1425 26.5926 37.4468 26.3335C37.6283 26.1801 37.8087 25.9993 37.9851 25.8246C38.0929 25.7169 38.2007 25.6082 38.3066 25.5097C38.3348 25.4822 38.3479 25.4467 38.3418 25.4101C38.3217 25.2912 38.103 25.1856 37.716 25.0088C37.469 24.8971 37.1909 24.7701 37.1112 24.6756C36.8643 24.3851 36.7625 24.1657 36.7958 23.9818C36.8401 23.7288 37.1505 23.5368 37.5517 23.3113L37.5698 23.3012L37.5789 23.2808C37.717 22.9466 37.7895 22.6744 37.85 22.4549C37.9558 22.0598 37.9981 21.9348 38.1907 21.9348C38.365 21.9348 38.6623 22.0476 39.0554 22.2182C39.0856 22.2314 39.126 22.2507 39.1723 22.2721C39.3699 22.3676 39.6692 22.5118 39.897 22.5118C39.9776 22.5118 40.0451 22.4925 40.0975 22.457C40.2175 22.3727 40.1681 22.1502 40.1106 21.8952C40.0723 21.7215 40.029 21.5244 40.0633 21.435C40.1026 21.3294 40.3566 21.2308 40.5813 21.1445C40.9058 21.0185 41.2425 20.8895 41.2919 20.6558C41.317 20.5319 41.2616 20.4029 41.1195 20.2596C40.6236 19.7598 40.7194 19.6136 41.0359 19.1351C41.0651 19.0914 41.0953 19.0447 41.1276 18.9959C41.3755 18.6139 41.313 18.0776 41.2626 17.6458C41.2344 17.4101 41.2052 17.1653 41.2636 17.0983C41.2717 17.0912 41.2828 17.081 41.31 17.081C41.4098 17.081 41.6013 17.1917 41.8835 17.4101C42.2916 17.7261 42.5809 17.7403 42.9468 17.7596C43.0858 17.7657 43.229 17.7738 43.3963 17.7972C43.7047 17.8398 43.8468 18.0136 44.0101 18.2167C44.0987 18.3234 44.1884 18.4341 44.3094 18.5337C44.4838 18.6759 44.7115 18.7399 44.9333 18.8019C45.282 18.9004 45.6116 18.9929 45.6871 19.3769C45.7043 19.4663 45.7123 19.5719 45.7214 19.6836C45.7506 20.0544 45.7869 20.5167 46.2112 20.6619C46.5106 20.7635 46.7545 20.8143 46.9581 20.8143C47.4428 20.8143 47.6898 20.5248 47.6898 19.9549C47.6898 19.4723 47.8581 19.4723 47.9135 19.4723C48.1403 19.4723 48.5152 19.7812 48.8166 20.029C49.0423 20.216 49.2358 20.3755 49.3679 20.4171L49.389 20.4232L49.4092 20.4151C49.645 20.3267 49.7327 20.2119 49.7891 20.1347C49.8335 20.0768 49.8466 20.0646 49.8819 20.0646C49.9353 20.0646 50.029 20.0971 50.1752 20.1682C50.2034 20.1824 50.2366 20.1896 50.2709 20.1896C50.5521 20.1896 50.9683 19.7446 51.0328 19.6613C51.1326 19.5363 51.2415 19.4754 51.3685 19.4754C51.5902 19.4754 51.8291 19.6613 52.0387 19.8238C52.1042 19.8746 52.1667 19.9224 52.2241 19.962C52.2876 20.0057 52.3622 20.0819 52.4348 20.157C52.5446 20.2688 52.6505 20.3765 52.7502 20.4151C53.3943 20.664 53.2683 21.0988 53.108 21.6514C53.0546 21.8353 52.9992 22.0262 52.97 22.2233C52.8924 22.7252 52.971 23.2168 53.0516 23.7339C53.109 24.0996 53.1685 24.4765 53.1685 24.8554C53.1685 24.9032 53.1655 24.9641 53.1615 25.0332C53.1443 25.402 53.1413 25.7179 53.2703 25.85C53.364 25.9455 53.491 25.9922 53.612 26.0379C53.6483 26.0521 53.6835 26.0643 53.7188 26.0795C53.8075 26.1171 53.8861 26.1964 53.9698 26.2797C54.0947 26.4056 54.2248 26.5357 54.4092 26.5448C54.6642 26.5601 54.899 26.5194 55.1288 26.4808C55.3203 26.4493 55.5229 26.4158 55.7265 26.4158H55.7759L55.8958 25.788C55.9452 25.6702 56.0006 25.5889 56.0429 25.5229C56.1669 25.3359 56.2113 25.2404 55.9432 24.9062C55.7184 24.6258 55.7759 24.377 55.8817 24.0549C55.9482 23.8528 55.9986 23.6608 56.047 23.4749C56.1891 22.9273 56.313 22.4539 56.7938 22.0049C56.8412 21.9612 56.9752 21.816 57.1304 21.6473C57.3007 21.4624 57.5416 21.2024 57.6515 21.0957C57.7261 21.2664 57.8803 21.3903 58.0183 21.5C58.106 21.5711 58.1897 21.6382 58.2481 21.7113C58.4044 21.9074 58.4961 21.9937 58.618 21.9937C58.6936 21.9937 58.7712 21.9602 58.8891 21.9084C58.9224 21.8932 58.9607 21.8769 59.004 21.8586C59.3427 21.7144 59.7801 21.369 59.9413 20.9464C60.022 20.728 60.02 20.5228 59.9323 20.3348Z" fill="#FF5100"/>
</svg>
