<svg width="25" height="26" viewBox="0 0 25 26" fill="none" xmlns="http://www.w3.org/2000/svg">
<path d="M24.751 8.25C24.751 8.25 24.5068 6.52637 23.7549 5.76953C22.8027 4.77344 21.7383 4.76855 21.25 4.70996C17.7539 4.45605 12.5049 4.45605 12.5049 4.45605H12.4951C12.4951 4.45605 7.24609 4.45605 3.75 4.70996C3.26172 4.76855 2.19727 4.77344 1.24512 5.76953C0.493164 6.52637 0.253906 8.25 0.253906 8.25C0.253906 8.25 0 10.2764 0 12.2979V14.1924C0 16.2139 0.249023 18.2402 0.249023 18.2402C0.249023 18.2402 0.493164 19.9639 1.24023 20.7207C2.19238 21.7168 3.44238 21.6826 3.99902 21.79C6.00098 21.9805 12.5 22.0391 12.5 22.0391C12.5 22.0391 17.7539 22.0293 21.25 21.7803C21.7383 21.7217 22.8027 21.7168 23.7549 20.7207C24.5068 19.9639 24.751 18.2402 24.751 18.2402C24.751 18.2402 25 16.2187 25 14.1924V12.2979C25 10.2764 24.751 8.25 24.751 8.25ZM9.91699 16.4922V9.46582L16.6699 12.9912L9.91699 16.4922Z" fill="#2B2F34"/>
</svg>
