<svg width="80" height="84" viewBox="0 0 80 84" fill="none" xmlns="http://www.w3.org/2000/svg">
<rect x="0.5" y="0.5" width="79" height="83" rx="39.5" stroke="white" stroke-opacity="0.5"/>
<path d="M59.9936 53.6937L58.7446 56.7535C58.7279 56.7944 58.6827 56.8194 58.6329 56.815C52.3825 56.2692 46.0102 52.8548 40.0854 59.9611C40.0648 59.986 40.0348 59.9998 39.9995 60C39.9643 60.0002 39.934 59.9867 39.9129 59.9622C33.6734 52.7194 27.5344 56.2998 21.3669 56.8153C21.3173 56.8195 21.2724 56.7944 21.2557 56.7538L20.0065 53.6932C19.995 53.6653 19.9988 53.6371 20.0173 53.6122C20.0358 53.5872 20.064 53.5726 20.0981 53.57C27.0081 53.0471 34.6334 46.9916 39.9033 54.7613C39.9235 54.7911 39.9578 54.8081 39.9977 54.8074C40.0375 54.8067 40.0711 54.7885 40.0898 54.7581C44.6227 47.4086 52.7914 53.0614 59.9016 53.5704C59.9357 53.5728 59.964 53.5874 59.9826 53.6124C60.0011 53.6374 60.005 53.6656 59.9936 53.6937ZM33.8745 46.9193C33.5063 46.9193 33.2079 47.2244 33.2079 47.6008C33.2079 47.9772 33.5063 48.2823 33.8745 48.2823H46.1254C46.4936 48.2823 46.7921 47.9772 46.7921 47.6008C46.7921 47.2244 46.4936 46.9193 46.1254 46.9193H33.8745ZM27.1768 40.7583C26.2305 39.7908 25.6452 38.4544 25.6452 36.9783C25.6452 36.8769 25.6669 36.7807 25.7058 36.6941C25.7066 36.6924 25.7072 36.6907 25.708 36.6888L30.2522 24.4419C30.3525 24.1695 30.6057 24.0016 30.8745 24.0016V24H49.1254V24.0015C49.3943 24.0016 49.6474 24.1695 49.7477 24.4418L54.2919 36.6887C54.2926 36.6906 54.2933 36.6922 54.2941 36.694C54.333 36.7806 54.3548 36.8768 54.3548 36.9782C54.3548 38.4543 53.7694 39.7907 52.8231 40.7582C51.8767 41.7256 50.5694 42.3239 49.1254 42.3239C47.6815 42.3239 46.3741 41.7255 45.4277 40.7582C44.4814 39.7907 43.8961 38.4543 43.8961 36.9782C43.8961 36.8768 43.9178 36.7806 43.9567 36.694C43.9575 36.6923 43.9582 36.6906 43.9589 36.6887L48.1185 25.4784C48.1285 25.4513 48.1252 25.4235 48.1092 25.3997C48.0932 25.376 48.069 25.3629 48.0407 25.3629H40.7501C40.7042 25.3629 40.6668 25.4011 40.6668 25.4481V43.8545C40.6668 43.9014 40.7042 43.9396 40.7501 43.9396H43.5932C43.9614 43.9396 44.2599 44.2447 44.2599 44.6211C44.2599 44.9975 43.9614 45.3026 43.5932 45.3026H36.407C36.0388 45.3026 35.7403 44.9975 35.7403 44.6211C35.7403 44.2447 36.0388 43.9396 36.407 43.9396H39.2502C39.2961 43.9396 39.3335 43.9014 39.3335 43.8545V25.4482C39.3335 25.4012 39.296 25.363 39.2502 25.363H31.9595C31.9313 25.363 31.9071 25.3761 31.891 25.3998C31.8749 25.4236 31.8716 25.4514 31.8817 25.4785L36.0414 36.6888C36.0421 36.6907 36.0428 36.6923 36.0436 36.6941C36.0825 36.7807 36.1042 36.8769 36.1042 36.9783C36.1042 38.4544 35.5189 39.7908 34.5726 40.7583C33.6262 41.7257 32.3188 42.324 30.8749 42.324C29.4306 42.324 28.1232 41.7257 27.1768 40.7583ZM49.0475 26.8084L45.5697 36.1813C45.5596 36.2084 45.563 36.2362 45.579 36.2599C45.5951 36.2837 45.6193 36.2968 45.6476 36.2968H52.6033C52.6315 36.2968 52.6557 36.2837 52.6718 36.2599C52.6879 36.2362 52.6912 36.2084 52.6811 36.1813L49.2033 26.8084C49.1908 26.7746 49.1607 26.7535 49.1253 26.7535C49.09 26.7535 49.06 26.7746 49.0475 26.8084ZM27.3281 36.2599C27.3442 36.2837 27.3684 36.2968 27.3967 36.2968H34.3525C34.3807 36.2968 34.4049 36.2837 34.421 36.2599C34.4371 36.2362 34.4404 36.2084 34.4303 36.1813L30.9525 26.8084C30.94 26.7746 30.9099 26.7535 30.8745 26.7535C30.8393 26.7535 30.8091 26.7746 30.7966 26.8084L27.3187 36.1813C27.3087 36.2084 27.312 36.2362 27.3281 36.2599Z" fill="white"/>
</svg>
