<svg width="32" height="32" viewBox="0 0 32 32" fill="none" xmlns="http://www.w3.org/2000/svg">
<rect width="32" height="32" rx="16" fill="white"/>
<path d="M22.7627 10.014L16.096 8.01399C16.0333 7.99534 15.9673 7.99534 15.9047 8.01399L9.238 10.014C9.09666 10.0566 9 10.186 9 10.3333V17.6667C9 20.6147 13.4947 23.236 15.9013 23.9853C15.9333 23.9953 15.9667 24 16 24C16.0333 24 16.0667 23.9953 16.0987 23.9853C18.5053 23.2367 23 20.6147 23 17.6667V10.3333C23 10.186 22.9033 10.0566 22.7627 10.014ZM20.236 13.9027L15.5693 18.5693C15.504 18.634 15.4187 18.6667 15.3333 18.6667C15.248 18.6667 15.1627 18.634 15.0973 18.5693L12.4307 15.9027C12.3007 15.7727 12.3007 15.5613 12.4307 15.4313C12.5607 15.3013 12.772 15.3013 12.902 15.4313L15.3334 17.862L19.764 13.4313C19.894 13.3013 20.1054 13.3013 20.2354 13.4313C20.3653 13.5613 20.366 13.772 20.236 13.9027Z" fill="#FF5100"/>
</svg>
