<svg width="24" height="24" viewBox="0 0 24 24" fill="none" xmlns="http://www.w3.org/2000/svg">
<rect width="24" height="24" rx="12" fill="white"/>
<path d="M14.7933 5.33301H9.20659C6.77992 5.33301 5.33325 6.77967 5.33325 9.20634V14.7863C5.33325 17.2197 6.77992 18.6663 9.20659 18.6663H14.7866C17.2133 18.6663 18.6599 17.2197 18.6599 14.793V9.20634C18.6666 6.77967 17.2199 5.33301 14.7933 5.33301ZM9.16659 10.093C9.16659 9.55301 9.60659 9.10634 10.1533 9.10634C10.6933 9.10634 11.1399 9.54634 11.1399 10.093C11.1399 10.633 10.6999 11.0797 10.1533 11.0797C9.60659 11.073 9.16659 10.633 9.16659 10.093ZM9.87992 14.6797C9.75325 14.6797 9.62659 14.633 9.52659 14.533C9.33325 14.3397 9.33325 14.0263 9.52659 13.8263L13.8933 9.45967C14.0866 9.26634 14.4066 9.26634 14.5999 9.45967C14.7933 9.65301 14.7933 9.97301 14.5999 10.1663L10.2333 14.533C10.1333 14.633 10.0066 14.6797 9.87992 14.6797ZM14.5133 14.893C13.9733 14.893 13.5266 14.453 13.5266 13.9063C13.5266 13.3663 13.9666 12.9197 14.5133 12.9197C15.0533 12.9197 15.4999 13.3597 15.4999 13.9063C15.4999 14.453 15.0599 14.893 14.5133 14.893Z" fill="#88B2DD"/>
</svg>
