<svg width="693" height="486" viewBox="0 0 693 486" fill="none" xmlns="http://www.w3.org/2000/svg">
<g id="Envelops">
<g id="BackEnvelop" filter="url(#filter0_d_700_399)">
<g id="Group 6276">
<path id="Vector 9" d="M542.936 15.0922L622.016 270.633C622.769 273.068 621.404 275.651 618.969 276.401L95.1334 437.647C92.6807 438.402 90.0838 437.008 89.3572 434.547L13.5004 177.585C12.7852 175.162 14.1533 172.616 16.5681 171.874L537.181 12.0488C539.61 11.303 542.185 12.6645 542.936 15.0922Z" fill="#FBFBFB"/>
<g id="Vector 11" filter="url(#filter1_d_700_399)">
<path d="M43.2976 177.464L13.0167 175.68L89.1162 434.65C90.038 437.786 93.3824 439.528 96.481 438.486L121.663 430.011L48.485 181.587C47.7984 179.257 45.7232 177.607 43.2976 177.464Z" fill="#FBFBFB"/>
</g>
<g id="Vector 12" filter="url(#filter2_d_700_399)">
<path d="M515.055 30.0752L537.38 15.9453L614.166 263.599C616.439 270.929 612.306 278.709 604.959 280.929L587.899 286.084L512.141 37.9353C511.232 34.9579 512.425 31.7401 515.055 30.0752Z" fill="#FBFBFB"/>
</g>
<g id="Vector 10" filter="url(#filter3_d_700_399)">
<path d="M28.9591 205.358L94.087 438.356L618.868 277.251C621.37 276.482 622.731 273.786 621.863 271.317L541.077 41.4931C538.802 35.0203 531.789 31.5332 525.255 33.6256L37.3004 189.876C30.8093 191.954 27.1243 198.794 28.9591 205.358Z" fill="#FBFBFB" shape-rendering="crispEdges"/>
<path d="M28.9591 205.358L94.087 438.356L618.868 277.251C621.37 276.482 622.731 273.786 621.863 271.317L541.077 41.4931C538.802 35.0203 531.789 31.5332 525.255 33.6256L37.3004 189.876C30.8093 191.954 27.1243 198.794 28.9591 205.358Z" stroke="url(#paint0_linear_700_399)" stroke-width="1.15221" shape-rendering="crispEdges"/>
</g>
</g>
<g id="Vector 13" filter="url(#filter4_d_700_399)">
<path d="M43.6678 204.327L31.8596 170.565C31.2118 168.713 32.2337 166.694 34.1096 166.119L524.438 15.8499C526.392 15.2508 528.437 16.4701 528.84 18.4747L535.489 51.6136C536.764 57.9627 533.047 64.2511 526.87 66.1963L60.8723 212.95C53.7497 215.193 46.133 211.375 43.6678 204.327Z" fill="white"/>
</g>
<path id="Vector 14" d="M42.1219 209.455L13.9599 176.949C12.3238 175.061 13.17 172.114 15.5588 171.381L538.241 11.0645C540.61 10.3379 542.952 12.2667 542.693 14.7311L538.574 53.8516C538.046 58.8705 534.59 63.0978 529.777 64.6137L56.7252 213.589C51.4685 215.244 45.7306 213.62 42.1219 209.455Z" fill="#FBFBFB"/>
</g>
<g id="FrontEnvelop">
<g id="FrontEnvelop_back_part">
<g id="Vector 9_2" filter="url(#filter5_d_700_399)">
<path d="M632.305 99.3257L675.302 367.098C675.706 369.614 673.992 371.98 671.475 372.38L130.187 458.464C127.652 458.867 125.277 457.122 124.903 454.583L85.3051 185.582C85.2486 185.199 85.2408 184.81 85.2817 184.424L90.5217 135.081C91.1348 122.422 99.0891 113.002 113.67 109.671L566.502 37.0059C582.206 34.3055 596.48 37.2998 601.733 47.9403L631.702 97.6777C632.007 98.1833 632.212 98.7428 632.305 99.3257Z" fill="#FAFAFA"/>
</g>
<g id="Vector 11_2" filter="url(#filter6_d_700_399)">
<path d="M115.404 193.578L85.6736 187.559L124.651 454.649C125.123 457.884 128.19 460.079 131.404 459.481L157.527 454.628L119.961 198.389C119.608 195.985 117.785 194.06 115.404 193.578Z" fill="#FAFAFA" shape-rendering="crispEdges"/>
<path d="M115.404 193.578L85.6736 187.559L124.651 454.649C125.123 457.884 128.19 460.079 131.404 459.481L157.527 454.628L119.961 198.389C119.608 195.985 117.785 194.06 115.404 193.578Z" stroke="url(#paint1_linear_700_399)" stroke-width="1.15221" shape-rendering="crispEdges"/>
</g>
<g id="Vector 12_2" filter="url(#filter7_d_700_399)">
<path d="M608.955 113.855L633.042 103L674.289 358.982C675.51 366.56 670.325 373.681 662.74 374.848L645.124 377.556L604.965 121.228C604.483 118.152 606.117 115.134 608.955 113.855Z" fill="#FAFAFA" shape-rendering="crispEdges"/>
<path d="M608.955 113.855L633.042 103L674.289 358.982C675.51 366.56 670.325 373.681 662.74 374.848L645.124 377.556L604.965 121.228C604.483 118.152 606.117 115.134 608.955 113.855Z" stroke="url(#paint2_linear_700_399)" stroke-width="1.15221" shape-rendering="crispEdges"/>
</g>
</g>
<g id="FrontEnvelop_front_part">
<g id="FrontEnvelop_content_card" filter="url(#filter8_d_700_399)">
<path d="M98.2907 219.184L130.052 459.019L672.257 373.207C674.843 372.798 676.569 370.32 676.056 367.752L628.346 128.861C627.002 122.133 620.548 117.696 613.785 118.85L108.724 205.026C102.005 206.173 97.3958 212.427 98.2907 219.184Z" fill="#FBFBFB" shape-rendering="crispEdges"/>
<path d="M98.2907 219.184L130.052 459.019L672.257 373.207C674.843 372.798 676.569 370.32 676.056 367.752L628.346 128.861C627.002 122.133 620.548 117.696 613.785 118.85L108.724 205.026C102.005 206.173 97.3958 212.427 98.2907 219.184Z" stroke="url(#paint3_linear_700_399)" stroke-width="1.15221" shape-rendering="crispEdges"/>
</g>
<g id="FrontEnvelop_content">
<path id="All you need is" d="M215.377 378.69L212.46 379.161L217.182 354.823L220.054 354.359L232.204 375.97L229.287 376.441L219.296 358.211L219.116 358.24L215.377 378.69ZM215.003 369.541L226.76 367.641L227.159 370.109L215.402 372.009L215.003 369.541ZM233.725 352.149L237.439 375.124L234.792 375.551L231.078 352.577L233.725 352.149ZM240.59 351.039L244.304 374.014L241.656 374.442L237.943 351.467L240.59 351.039ZM259.523 378.184C259.075 378.257 258.669 378.284 258.305 378.266C257.943 378.256 257.689 378.228 257.543 378.182L257.839 375.74C258.509 375.8 259.087 375.768 259.573 375.644C260.06 375.519 260.461 375.228 260.779 374.77C261.105 374.318 261.358 373.629 261.538 372.702L261.814 371.276L252.642 354.985L255.514 354.521L262.49 367.483L262.67 367.454L265.207 352.954L268.078 352.49L263.956 373.416C263.77 374.359 263.482 375.162 263.09 375.823C262.7 376.493 262.206 377.022 261.608 377.41C261.019 377.797 260.324 378.055 259.523 378.184ZM280.167 368.585C278.612 368.837 277.187 368.687 275.893 368.136C274.607 367.585 273.527 366.696 272.654 365.472C271.788 364.246 271.211 362.743 270.923 360.963C270.633 359.168 270.705 357.548 271.14 356.104C271.581 354.659 272.326 353.472 273.373 352.543C274.427 351.613 275.732 351.022 277.288 350.771C278.843 350.52 280.264 350.67 281.551 351.222C282.845 351.772 283.925 352.664 284.792 353.898C285.667 355.13 286.249 356.644 286.539 358.438C286.827 360.218 286.749 361.827 286.306 363.265C285.871 364.701 285.126 365.884 284.071 366.815C283.024 367.744 281.723 368.334 280.167 368.585ZM279.783 366.207C280.965 366.016 281.888 365.556 282.553 364.827C283.218 364.098 283.654 363.21 283.86 362.164C284.067 361.117 284.078 360.018 283.892 358.866C283.705 357.715 283.349 356.671 282.821 355.736C282.294 354.8 281.6 354.088 280.738 353.598C279.876 353.108 278.854 352.958 277.672 353.149C276.491 353.34 275.568 353.804 274.904 354.541C274.241 355.277 273.806 356.172 273.6 357.226C273.395 358.28 273.385 359.383 273.571 360.535C273.757 361.686 274.113 362.726 274.639 363.654C275.165 364.582 275.859 365.287 276.719 365.77C277.58 366.252 278.601 366.398 279.783 366.207ZM301.047 357.613L299.4 347.427L302.048 346.999L304.833 364.23L302.186 364.658L301.714 361.741L301.535 361.77C301.272 362.71 300.764 363.556 300.011 364.307C299.256 365.051 298.228 365.528 296.927 365.738C295.85 365.912 294.855 365.831 293.941 365.496C293.026 365.152 292.252 364.541 291.618 363.661C290.984 362.773 290.548 361.597 290.311 360.131L288.541 349.182L291.189 348.754L292.93 359.524C293.133 360.78 293.646 361.725 294.47 362.36C295.301 362.993 296.267 363.22 297.366 363.043C298.024 362.936 298.666 362.66 299.293 362.213C299.926 361.765 300.419 361.156 300.77 360.386C301.129 359.614 301.221 358.69 301.047 357.613ZM318.275 351.421L319.951 361.786L317.303 362.214L314.518 344.983L317.076 344.57L317.511 347.262L317.735 347.226C317.998 346.286 318.497 345.484 319.234 344.82C319.97 344.148 320.988 343.707 322.289 343.497C323.456 343.308 324.516 343.383 325.468 343.72C326.419 344.05 327.216 344.657 327.858 345.544C328.499 346.422 328.938 347.595 329.175 349.06L330.944 360.009L328.297 360.437L326.556 349.668C326.337 348.314 325.815 347.317 324.99 346.675C324.164 346.026 323.138 345.8 321.911 345.998C321.066 346.135 320.34 346.44 319.734 346.914C319.135 347.387 318.702 348.006 318.434 348.771C318.166 349.535 318.113 350.419 318.275 351.421ZM342.433 358.521C340.772 358.789 339.281 358.654 337.958 358.116C336.642 357.569 335.552 356.686 334.687 355.467C333.829 354.24 333.257 352.744 332.972 350.979C332.686 349.214 332.757 347.607 333.182 346.156C333.614 344.698 334.348 343.497 335.386 342.554C336.429 341.603 337.728 341.001 339.284 340.75C340.181 340.605 341.092 340.611 342.015 340.769C342.939 340.927 343.814 341.284 344.64 341.841C345.466 342.39 346.181 343.18 346.785 344.211C347.389 345.241 347.821 346.561 348.08 348.169L348.262 349.29L334.98 351.437L334.61 349.149L345.2 347.437C345.042 346.465 344.708 345.629 344.196 344.929C343.691 344.228 343.048 343.714 342.266 343.387C341.491 343.06 340.626 342.973 339.668 343.128C338.614 343.299 337.744 343.708 337.058 344.356C336.379 344.995 335.9 345.763 335.623 346.66C335.346 347.556 335.284 348.48 335.438 349.429L335.684 350.955C335.895 352.256 336.297 353.323 336.892 354.156C337.494 354.979 338.236 355.561 339.12 355.902C340.003 356.235 340.979 356.315 342.048 356.142C342.744 356.03 343.356 355.831 343.886 355.546C344.422 355.252 344.863 354.874 345.21 354.411C345.556 353.941 345.793 353.388 345.921 352.754L348.595 353.058C348.466 353.969 348.136 354.805 347.607 355.566C347.077 356.32 346.374 356.955 345.498 357.473C344.621 357.983 343.599 358.332 342.433 358.521ZM360.187 355.651C358.527 355.919 357.036 355.784 355.713 355.246C354.397 354.699 353.306 353.816 352.442 352.598C351.583 351.37 351.012 349.874 350.726 348.109C350.441 346.344 350.511 344.737 350.937 343.287C351.369 341.828 352.103 340.627 353.14 339.684C354.183 338.733 355.483 338.131 357.039 337.88C357.936 337.735 358.846 337.741 359.77 337.899C360.693 338.057 361.568 338.414 362.395 338.971C363.22 339.521 363.935 340.311 364.539 341.341C365.143 342.372 365.575 343.691 365.835 345.299L366.016 346.42L352.734 348.567L352.364 346.279L362.954 344.567C362.797 343.595 362.462 342.759 361.95 342.059C361.445 341.358 360.802 340.844 360.02 340.518C359.246 340.19 358.38 340.103 357.423 340.258C356.368 340.429 355.498 340.838 354.813 341.486C354.133 342.125 353.655 342.893 353.378 343.79C353.101 344.686 353.039 345.61 353.192 346.559L353.439 348.085C353.649 349.386 354.052 350.453 354.647 351.286C355.248 352.109 355.991 352.691 356.875 353.032C357.757 353.365 358.733 353.445 359.803 353.272C360.498 353.16 361.111 352.961 361.64 352.676C362.176 352.382 362.618 352.004 362.965 351.541C363.311 351.071 363.548 350.518 363.675 349.884L366.349 350.188C366.22 351.099 365.891 351.935 365.362 352.696C364.831 353.45 364.128 354.085 363.252 354.603C362.376 355.113 361.354 355.462 360.187 355.651ZM377.224 352.897C375.788 353.129 374.462 352.971 373.245 352.423C372.027 351.868 371 350.975 370.164 349.744C369.327 348.506 368.761 346.974 368.466 345.15C368.174 343.34 368.23 341.719 368.636 340.288C369.041 338.856 369.739 337.688 370.729 336.784C371.718 335.879 372.938 335.31 374.389 335.075C375.511 334.894 376.427 334.938 377.139 335.207C377.856 335.467 378.425 335.804 378.845 336.22C379.271 336.627 379.606 336.964 379.849 337.232L380.073 337.196L378.702 328.715L381.35 328.287L385.063 351.261L382.506 351.675L382.078 349.027L381.764 349.078C381.62 349.424 381.407 349.865 381.126 350.401C380.843 350.931 380.399 351.436 379.794 351.917C379.187 352.391 378.331 352.718 377.224 352.897ZM377.198 350.461C378.26 350.289 379.113 349.867 379.757 349.195C380.399 348.516 380.831 347.652 381.053 346.603C381.273 345.547 381.278 344.368 381.068 343.067C380.86 341.78 380.491 340.685 379.961 339.781C379.43 338.869 378.755 338.203 377.935 337.783C377.114 337.355 376.165 337.229 375.088 337.403C373.966 337.584 373.078 338.023 372.423 338.72C371.774 339.408 371.342 340.272 371.127 341.312C370.917 342.344 370.911 343.465 371.107 344.677C371.305 345.903 371.672 346.987 372.208 347.929C372.75 348.862 373.439 349.564 374.275 350.035C375.117 350.498 376.092 350.64 377.198 350.461ZM397.901 349.186L395.116 331.955L397.763 331.527L400.548 348.758L397.901 349.186ZM395.998 328.866C395.481 328.949 395.008 328.846 394.577 328.555C394.154 328.262 393.903 327.869 393.823 327.376C393.743 326.882 393.858 326.43 394.168 326.019C394.485 325.607 394.901 325.36 395.417 325.276C395.933 325.193 396.403 325.297 396.826 325.589C397.257 325.881 397.512 326.273 397.592 326.766C397.672 327.26 397.553 327.713 397.236 328.125C396.926 328.535 396.514 328.783 395.998 328.866ZM414.809 332.732L412.54 333.789C412.326 333.417 412.043 333.068 411.691 332.741C411.345 332.405 410.906 332.154 410.372 331.987C409.839 331.82 409.187 331.799 408.416 331.923C407.362 332.094 406.522 332.479 405.898 333.079C405.28 333.67 405.031 334.336 405.15 335.076C405.257 335.734 405.58 336.215 406.12 336.519C406.661 336.823 407.46 337.02 408.518 337.11L411.177 337.325C412.778 337.45 414.019 337.836 414.899 338.485C415.777 339.125 416.314 340.048 416.509 341.252C416.668 342.239 416.527 343.167 416.084 344.037C415.649 344.905 414.963 345.646 414.026 346.258C413.089 346.869 411.951 347.284 410.612 347.5C408.854 347.784 407.338 347.638 406.063 347.061C404.788 346.484 403.879 345.488 403.335 344.072L405.747 343.037C406.136 343.926 406.701 344.548 407.441 344.904C408.189 345.259 409.105 345.349 410.19 345.174C411.424 344.974 412.361 344.554 413.002 343.914C413.649 343.264 413.913 342.569 413.793 341.829C413.696 341.23 413.406 340.763 412.922 340.427C412.437 340.083 411.744 339.881 410.844 339.819L407.863 339.61C406.225 339.491 404.972 339.099 404.105 338.434C403.243 337.759 402.717 336.828 402.525 335.638C402.368 334.666 402.501 333.762 402.927 332.926C403.359 332.089 404.016 331.38 404.897 330.8C405.785 330.219 406.835 329.831 408.047 329.635C409.752 329.359 411.151 329.517 412.244 330.108C413.344 330.697 414.2 331.572 414.809 332.732Z" fill="black"/>
<path id="Start your story." d="M339.53 372.254C339.211 371.139 338.523 370.345 337.464 369.872C336.405 369.398 335.18 369.274 333.789 369.499C332.772 369.663 331.909 369.972 331.199 370.424C330.497 370.875 329.979 371.423 329.646 372.068C329.32 372.711 329.217 373.4 329.335 374.132C329.434 374.746 329.665 375.249 330.028 375.644C330.397 376.029 330.837 376.33 331.348 376.547C331.858 376.756 332.382 376.913 332.921 377.018C333.458 377.115 333.949 377.185 334.394 377.229L336.829 377.48C337.452 377.54 338.153 377.649 338.931 377.807C339.716 377.965 340.484 378.228 341.234 378.598C341.991 378.959 342.65 379.474 343.211 380.143C343.771 380.812 344.139 381.685 344.313 382.762C344.514 384.004 344.37 385.178 343.881 386.285C343.4 387.391 342.586 388.34 341.44 389.132C340.302 389.922 338.85 390.46 337.085 390.745C335.44 391.011 333.972 390.976 332.682 390.639C331.4 390.302 330.338 389.714 329.496 388.875C328.662 388.035 328.099 386.995 327.806 385.753L330.678 385.288C330.893 386.144 331.301 386.815 331.901 387.301C332.508 387.778 333.226 388.092 334.056 388.242C334.892 388.383 335.767 388.38 336.679 388.232C337.741 388.061 338.667 387.734 339.456 387.254C340.244 386.766 340.835 386.171 341.228 385.471C341.621 384.763 341.749 383.99 341.613 383.152C341.49 382.39 341.177 381.803 340.673 381.394C340.169 380.984 339.546 380.686 338.802 380.499C338.058 380.312 337.264 380.172 336.42 380.078L333.462 379.727C331.584 379.501 330.044 378.995 328.842 378.206C327.641 377.418 326.915 376.25 326.664 374.702C326.457 373.416 326.623 372.238 327.164 371.168C327.711 370.09 328.532 369.19 329.628 368.468C330.73 367.737 332.014 367.253 333.48 367.016C334.961 366.777 336.32 366.83 337.557 367.174C338.794 367.512 339.822 368.082 340.643 368.886C341.471 369.688 341.997 370.666 342.222 371.819L339.53 372.254ZM353.613 369.978L353.976 372.222L345.046 373.665L344.683 371.421L353.613 369.978ZM346.619 366.872L349.266 366.444L351.921 382.868C352.042 383.616 352.241 384.159 352.518 384.498C352.802 384.828 353.126 385.029 353.49 385.1C353.861 385.163 354.241 385.163 354.63 385.1C354.922 385.053 355.159 385 355.341 384.939C355.522 384.872 355.666 384.818 355.775 384.777L356.698 387.068C356.529 387.165 356.29 387.272 355.979 387.392C355.669 387.519 355.268 387.622 354.774 387.702C354.026 387.822 353.267 387.78 352.498 387.575C351.735 387.368 351.065 386.973 350.488 386.392C349.917 385.808 349.551 385.016 349.389 384.014L346.619 366.872ZM364.885 386.251C363.793 386.428 362.769 386.382 361.812 386.115C360.855 385.84 360.05 385.352 359.4 384.652C358.748 383.943 358.332 383.029 358.151 381.907C357.991 380.92 358.056 380.088 358.346 379.412C358.634 378.728 359.076 378.158 359.669 377.701C360.263 377.245 360.939 376.867 361.696 376.568C362.46 376.26 363.234 375.99 364.017 375.755C365.042 375.452 365.875 375.213 366.514 375.041C367.16 374.86 367.619 374.659 367.89 374.439C368.169 374.217 368.274 373.893 368.205 373.467L368.191 373.377C368.012 372.27 367.57 371.459 366.865 370.944C366.168 370.427 365.209 370.268 363.99 370.465C362.727 370.669 361.78 371.106 361.152 371.775C360.523 372.445 360.114 373.117 359.924 373.793L357.266 373.301C357.546 372.182 358.012 371.27 358.666 370.566C359.325 369.853 360.082 369.308 360.934 368.933C361.793 368.548 362.656 368.286 363.524 368.146C364.077 368.056 364.724 368.021 365.463 368.039C366.209 368.049 366.951 368.202 367.69 368.497C368.436 368.791 369.099 369.309 369.679 370.052C370.26 370.794 370.661 371.85 370.882 373.218L372.717 384.571L370.069 384.999L369.692 382.666L369.558 382.687C369.439 383.09 369.204 383.539 368.854 384.033C368.504 384.527 368.006 384.98 367.359 385.391C366.711 385.803 365.887 386.089 364.885 386.251ZM364.904 383.808C365.951 383.639 366.8 383.29 367.452 382.763C368.111 382.234 368.571 381.615 368.832 380.905C369.101 380.194 369.177 379.48 369.061 378.762L368.67 376.339C368.579 376.491 368.352 376.655 367.989 376.829C367.632 376.994 367.213 377.157 366.733 377.319C366.259 377.473 365.795 377.617 365.341 377.752C364.893 377.878 364.53 377.982 364.252 378.066C363.579 378.267 362.959 378.516 362.393 378.815C361.834 379.105 361.403 379.478 361.101 379.933C360.805 380.38 360.711 380.94 360.82 381.613C360.968 382.533 361.421 383.174 362.178 383.535C362.941 383.887 363.85 383.978 364.904 383.808ZM376.917 383.892L374.132 366.661L376.69 366.248L377.11 368.85L377.29 368.821C377.466 367.918 377.923 367.134 378.66 366.47C379.396 365.806 380.281 365.391 381.313 365.224C381.507 365.193 381.751 365.157 382.044 365.118C382.337 365.078 382.559 365.053 382.711 365.044L383.146 367.737C383.053 367.729 382.842 367.728 382.513 367.735C382.191 367.734 381.853 367.761 381.502 367.818C380.664 367.954 379.945 368.25 379.344 368.708C378.749 369.157 378.31 369.719 378.028 370.394C377.752 371.06 377.676 371.782 377.802 372.56L379.565 383.464L376.917 383.892ZM393.827 363.478L394.19 365.721L385.26 367.165L384.898 364.921L393.827 363.478ZM386.833 360.372L389.48 359.944L392.135 376.367C392.256 377.115 392.455 377.659 392.732 377.997C393.016 378.328 393.34 378.529 393.705 378.6C394.076 378.663 394.455 378.663 394.844 378.6C395.136 378.553 395.373 378.499 395.555 378.439C395.736 378.372 395.881 378.317 395.989 378.277L396.912 380.568C396.744 380.664 396.504 380.772 396.193 380.891C395.884 381.018 395.482 381.121 394.989 381.201C394.241 381.322 393.482 381.28 392.712 381.074C391.949 380.868 391.279 380.473 390.702 379.891C390.132 379.308 389.766 378.515 389.604 377.513L386.833 360.372ZM410.966 385.019C410.517 385.091 410.111 385.119 409.747 385.101C409.385 385.09 409.131 385.062 408.985 385.017L409.281 382.575C409.951 382.635 410.529 382.603 411.015 382.478C411.502 382.354 411.904 382.062 412.221 381.604C412.547 381.153 412.8 380.463 412.98 379.536L413.256 378.11L404.085 361.82L406.956 361.355L413.932 374.317L414.112 374.288L416.649 359.789L419.521 359.325L415.398 380.251C415.213 381.194 414.924 381.996 414.532 382.658C414.142 383.328 413.648 383.856 413.051 384.244C412.461 384.631 411.766 384.89 410.966 385.019ZM431.61 375.42C430.054 375.671 428.629 375.522 427.335 374.971C426.049 374.419 424.969 373.531 424.096 372.306C423.23 371.08 422.653 369.577 422.366 367.797C422.076 366.002 422.148 364.383 422.582 362.939C423.024 361.494 423.768 360.307 424.815 359.378C425.869 358.448 427.174 357.857 428.73 357.606C430.286 357.354 431.707 357.504 432.993 358.056C434.287 358.607 435.367 359.499 436.234 360.732C437.109 361.965 437.691 363.478 437.981 365.273C438.269 367.053 438.191 368.662 437.748 370.099C437.313 371.536 436.568 372.719 435.513 373.649C434.466 374.578 433.165 375.168 431.61 375.42ZM431.225 373.042C432.407 372.851 433.33 372.391 433.995 371.662C434.66 370.933 435.096 370.045 435.303 368.998C435.51 367.952 435.52 366.853 435.334 365.701C435.148 364.549 434.791 363.506 434.264 362.57C433.736 361.635 433.042 360.922 432.18 360.432C431.318 359.942 430.296 359.793 429.114 359.984C427.933 360.175 427.01 360.639 426.346 361.375C425.683 362.112 425.248 363.007 425.042 364.061C424.837 365.115 424.827 366.218 425.013 367.369C425.199 368.521 425.555 369.561 426.081 370.489C426.607 371.417 427.301 372.122 428.162 372.605C429.022 373.087 430.043 373.233 431.225 373.042ZM452.489 364.448L450.843 354.262L453.49 353.834L456.275 371.065L453.628 371.493L453.156 368.576L452.977 368.605C452.714 369.545 452.207 370.391 451.453 371.142C450.698 371.885 449.67 372.362 448.369 372.573C447.292 372.747 446.297 372.666 445.383 372.33C444.468 371.987 443.694 371.375 443.061 370.495C442.426 369.608 441.99 368.432 441.753 366.966L439.984 356.017L442.631 355.589L444.372 366.358C444.575 367.615 445.088 368.56 445.912 369.194C446.744 369.827 447.709 370.055 448.808 369.877C449.466 369.771 450.109 369.494 450.735 369.048C451.368 368.6 451.861 367.991 452.212 367.22C452.571 366.449 452.663 365.525 452.489 364.448ZM460.492 370.383L457.707 353.152L460.265 352.739L460.686 355.341L460.865 355.312C461.041 354.409 461.498 353.625 462.235 352.961C462.972 352.297 463.856 351.882 464.888 351.715C465.083 351.684 465.326 351.648 465.619 351.608C465.912 351.569 466.134 351.544 466.286 351.535L466.722 354.227C466.628 354.219 466.417 354.219 466.088 354.226C465.766 354.225 465.429 354.252 465.077 354.309C464.24 354.444 463.52 354.741 462.919 355.199C462.324 355.648 461.885 356.21 461.603 356.885C461.327 357.551 461.252 358.273 461.377 359.051L463.14 369.955L460.492 370.383ZM489.911 351.906L487.642 352.964C487.428 352.592 487.145 352.242 486.793 351.915C486.447 351.58 486.007 351.329 485.474 351.162C484.94 350.995 484.289 350.973 483.518 351.098C482.464 351.268 481.624 351.653 481 352.253C480.382 352.844 480.133 353.51 480.252 354.25C480.359 354.909 480.682 355.39 481.222 355.694C481.762 355.998 482.562 356.195 483.62 356.285L486.279 356.499C487.88 356.624 489.121 357.011 490.001 357.659C490.879 358.3 491.416 359.222 491.61 360.426C491.77 361.413 491.628 362.342 491.186 363.211C490.751 364.08 490.065 364.82 489.127 365.432C488.19 366.044 487.052 366.458 485.714 366.674C483.956 366.959 482.44 366.812 481.165 366.236C479.89 365.659 478.981 364.662 478.437 363.246L480.848 362.212C481.238 363.1 481.803 363.723 482.543 364.079C483.291 364.434 484.207 364.524 485.292 364.348C486.526 364.149 487.463 363.729 488.104 363.088C488.751 362.439 489.015 361.744 488.895 361.003C488.798 360.405 488.508 359.938 488.024 359.602C487.539 359.258 486.846 359.055 485.946 358.994L482.965 358.785C481.327 358.666 480.074 358.274 479.206 357.608C478.345 356.934 477.819 356.002 477.626 354.813C477.469 353.841 477.603 352.937 478.028 352.1C478.461 351.263 479.118 350.555 479.998 349.975C480.887 349.394 481.937 349.005 483.148 348.809C484.853 348.534 486.253 348.691 487.346 349.282C488.446 349.872 489.301 350.746 489.911 351.906ZM500.448 346.243L500.811 348.487L491.881 349.93L491.519 347.687L500.448 346.243ZM493.454 343.138L496.102 342.71L498.756 359.133C498.877 359.881 499.076 360.424 499.354 360.763C499.637 361.093 499.961 361.294 500.326 361.366C500.697 361.429 501.077 361.429 501.465 361.366C501.757 361.319 501.994 361.265 502.176 361.205C502.357 361.137 502.502 361.083 502.61 361.042L503.533 363.334C503.365 363.43 503.125 363.538 502.814 363.657C502.505 363.784 502.103 363.887 501.61 363.967C500.862 364.088 500.103 364.045 499.333 363.84C498.57 363.633 497.9 363.239 497.323 362.657C496.753 362.074 496.387 361.281 496.225 360.279L493.454 343.138ZM513.457 362.19C511.902 362.441 510.477 362.292 509.183 361.741C507.897 361.189 506.817 360.301 505.944 359.076C505.078 357.85 504.501 356.347 504.213 354.567C503.923 352.772 503.995 351.153 504.429 349.709C504.871 348.264 505.616 347.077 506.663 346.148C507.717 345.218 509.022 344.627 510.578 344.376C512.133 344.124 513.554 344.274 514.841 344.826C516.134 345.377 517.215 346.269 518.082 347.502C518.956 348.735 519.539 350.248 519.829 352.043C520.116 353.823 520.039 355.432 519.596 356.87C519.16 358.306 518.415 359.489 517.361 360.419C516.314 361.348 515.013 361.939 513.457 362.19ZM513.073 359.812C514.254 359.621 515.178 359.161 515.843 358.432C516.507 357.703 516.943 356.815 517.15 355.768C517.357 354.722 517.367 353.623 517.181 352.471C516.995 351.319 516.638 350.276 516.111 349.34C515.584 348.405 514.889 347.692 514.027 347.202C513.165 346.712 512.144 346.563 510.962 346.754C509.78 346.945 508.858 347.409 508.194 348.145C507.53 348.882 507.096 349.777 506.89 350.831C506.684 351.885 506.675 352.988 506.861 354.139C507.047 355.291 507.403 356.331 507.929 357.259C508.455 358.187 509.148 358.892 510.009 359.375C510.87 359.857 511.891 360.003 513.073 359.812ZM524.616 360.018L521.831 342.787L524.389 342.373L524.81 344.976L524.989 344.947C525.165 344.044 525.622 343.26 526.359 342.596C527.096 341.932 527.98 341.517 529.012 341.35C529.206 341.318 529.45 341.283 529.743 341.243C530.036 341.204 530.258 341.179 530.41 341.17L530.846 343.862C530.752 343.854 530.541 343.854 530.212 343.861C529.89 343.859 529.553 343.887 529.201 343.944C528.364 344.079 527.644 344.376 527.043 344.834C526.448 345.283 526.009 345.845 525.727 346.52C525.451 347.186 525.376 347.908 525.501 348.686L527.264 359.59L524.616 360.018ZM539.012 364.321C538.564 364.394 538.157 364.421 537.794 364.403C537.431 364.393 537.178 364.365 537.032 364.319L537.328 361.877C537.998 361.937 538.576 361.905 539.062 361.781C539.548 361.656 539.95 361.365 540.268 360.907C540.594 360.455 540.847 359.766 541.027 358.839L541.303 357.413L532.131 341.122L535.003 340.658L541.979 353.62L542.159 353.591L544.696 339.091L547.567 338.627L543.445 359.553C543.259 360.496 542.971 361.299 542.579 361.96C542.188 362.63 541.694 363.159 541.097 363.547C540.508 363.934 539.813 364.192 539.012 364.321ZM554.094 355.437C553.541 355.527 553.034 355.405 552.573 355.073C552.113 354.741 551.838 354.298 551.748 353.744C551.659 353.191 551.78 352.684 552.113 352.224C552.445 351.763 552.888 351.488 553.441 351.399C553.995 351.309 554.502 351.431 554.962 351.763C555.422 352.095 555.697 352.538 555.787 353.092C555.846 353.458 555.807 353.81 555.67 354.147C555.54 354.482 555.336 354.768 555.06 355.005C554.79 355.233 554.468 355.377 554.094 355.437Z" fill="black"/>
<path id="Logo" d="M422.919 239.705C422.642 239.296 422.433 239.047 421.853 239.032C421.822 239.031 421.764 239.037 421.688 239.042C421.477 239.062 420.98 239.107 420.888 238.974C420.866 238.944 420.87 238.898 420.899 238.837C420.919 238.8 420.942 238.762 420.967 238.72C421.067 238.566 421.215 238.332 420.97 238.159C420.823 238.058 420.659 237.977 420.5 237.897C420.24 237.767 419.969 237.633 419.797 237.421C419.688 237.287 419.552 237.235 419.39 237.263C419.231 237.292 419.075 237.392 418.938 237.481C418.838 237.545 418.745 237.605 418.684 237.616C418.658 237.621 418.649 237.619 418.635 237.59C418.568 237.445 418.617 237.337 418.67 237.221C418.712 237.132 418.755 237.038 418.736 236.931C418.714 236.803 418.618 236.742 418.541 236.694C418.468 236.648 418.427 236.62 418.422 236.565C418.41 236.426 418.467 236.387 418.564 236.37C418.634 236.358 418.719 236.361 418.801 236.364C418.979 236.369 419.132 236.354 419.177 236.255C419.232 236.136 419.214 235.904 419.195 235.657C419.185 235.497 419.171 235.333 419.186 235.236C419.273 234.62 418.725 234.454 418.283 234.323C418.024 234.245 417.779 234.172 417.741 234.032C417.71 233.912 417.817 233.72 418.06 233.46C418.214 233.296 418.367 233.178 418.504 233.073C418.841 232.813 419.107 232.607 419.076 231.966C419.027 230.941 418.907 230.279 418.577 229.242L418.548 229.148L418.465 229.203C418.364 229.271 418.265 229.346 418.174 229.416C418.017 229.535 417.872 229.649 417.78 229.665C417.749 229.67 417.74 229.662 417.735 229.656C417.701 229.624 417.65 229.492 417.706 228.982L417.717 228.893C417.779 228.355 417.863 227.619 417.775 227.116C417.715 226.779 417.457 226.753 417.25 226.73C417.111 226.716 416.98 226.702 416.909 226.611C416.83 226.509 416.843 226.39 416.861 226.254C416.87 226.189 416.876 226.124 416.874 226.056C416.865 225.886 416.842 225.741 416.82 225.599C416.765 225.268 416.723 225.005 416.928 224.623C417.053 224.39 417.262 224.17 417.485 223.938C417.846 223.559 418.22 223.17 418.227 222.691L418.229 222.622L418.161 222.616C417.25 222.53 416.079 222.26 415.529 221.754C415.427 221.659 415.349 221.541 415.273 221.425C415.211 221.331 415.147 221.233 415.069 221.146C414.658 220.699 414.353 220.566 413.783 220.421L413.752 220.42C413.251 220.508 413.015 220.832 412.808 221.117C412.609 221.39 412.436 221.623 412.082 221.639C411.911 221.647 411.67 221.689 411.414 221.733C410.968 221.81 410.413 221.904 410.194 221.822C409.835 221.685 409.518 221.641 409.227 221.693C408.928 221.745 408.706 221.886 408.51 222.01C408.349 222.111 408.211 222.198 408.06 222.224C407.847 222.262 407.631 222.171 407.358 221.929C406.83 221.467 406.587 221.497 406.25 221.54C406.053 221.565 405.829 221.593 405.485 221.524C405.261 221.481 405.061 221.476 404.87 221.51C404.4 221.593 404.071 221.904 403.721 222.234C403.495 222.448 403.261 222.668 402.964 222.862C402.722 223.018 402.587 223.089 402.487 223.139C402.259 223.257 402.241 223.275 401.84 223.802C401.71 223.975 401.339 224.126 400.822 224.218C400.432 224.286 400.007 224.308 399.763 224.277C399.471 224.237 399.171 224.29 398.906 224.336C398.329 224.436 398.025 224.463 397.93 223.924C397.896 223.732 397.761 223.643 397.56 223.679C397.15 223.751 396.48 224.304 396.037 224.672C395.9 224.785 395.758 224.903 395.727 224.917L395.702 224.934C394.214 226.517 393.078 226.889 391.007 227.312C390.522 227.397 389.004 226.744 388.912 226.222C388.893 226.114 388.943 226.019 389.065 225.933C389.22 225.824 389.478 225.738 389.836 225.674C389.905 225.662 389.956 225.622 389.98 225.56C390.119 225.208 389.328 224.102 389.32 224.091C389.037 223.717 388.629 223.583 388.072 223.681C387.547 223.774 386.986 224.057 386.493 224.306C386.255 224.425 386.032 224.539 385.845 224.612C384.441 225.164 383.986 226.018 383.545 226.846C383.246 227.408 382.936 227.991 382.324 228.48C382.082 228.673 381.961 228.851 381.955 229.023C381.947 229.239 382.12 229.397 382.272 229.536C382.401 229.654 382.523 229.765 382.516 229.883C382.511 229.981 382.418 230.093 382.242 230.219L380.02 231.802C379.837 231.932 379.654 232.013 379.476 232.045C378.727 232.177 378.168 231.437 377.894 230.702C377.467 229.553 377.15 229.401 376.415 229.531C376.322 229.547 376.222 229.568 376.114 229.59C375.987 229.617 375.849 229.645 375.698 229.671C375.534 229.7 375.379 229.722 375.222 229.741L372.091 230.328L372.067 230.332C371.684 230.4 371.303 230.362 370.899 230.32C370.5 230.279 370.087 230.236 369.675 230.309C368.905 230.444 368.385 230.033 367.881 229.634C367.452 229.294 367.049 228.975 366.544 229.064C366.388 229.092 366.244 229.118 366.109 229.143C365.989 229.166 365.875 229.187 365.766 229.206C364.993 229.342 364.5 229.373 363.629 229.191C362.555 228.968 362.467 228.128 362.381 227.315C362.353 227.046 362.326 226.791 362.266 226.558C362.24 226.461 362.11 226.434 361.911 226.392C361.694 226.348 361.396 226.286 361.309 226.121L361.285 226.075L361.232 226.084C360.739 226.171 360.296 226.464 359.867 226.747C359.407 227.053 358.935 227.367 358.399 227.42L358.383 227.422L357.268 228.038C357.225 228.072 357.177 228.11 357.127 228.147C356.694 228.484 356.04 228.992 356.453 229.576C356.541 229.699 356.71 229.77 356.86 229.83C356.981 229.88 357.117 229.936 357.125 229.994C357.129 230.018 357.114 230.093 356.909 230.252C356.553 230.526 356.531 230.593 356.497 230.831C356.485 230.913 356.47 231.019 356.429 231.17C356.348 231.474 356.444 231.662 356.541 231.765C356.71 231.949 357.021 232.027 357.353 231.968C357.718 231.904 357.996 231.633 358.241 231.395C358.444 231.198 358.629 231.01 358.815 231.015C359.116 231.02 359.335 231.006 359.549 230.968C359.74 230.934 359.932 230.882 360.213 230.787C360.388 230.729 360.533 230.687 360.643 230.667C360.826 230.635 360.859 230.669 360.859 230.669C360.944 230.833 359.773 231.835 359.333 232.097C359.209 232.172 359.075 232.221 358.923 232.247C358.718 232.284 358.511 232.275 358.292 232.267C358.073 232.257 357.847 232.248 357.624 232.287L357.565 232.297L357.564 232.358C357.559 232.593 357.644 232.786 357.728 232.972C357.815 233.169 357.899 233.356 357.89 233.599C357.879 233.932 357.565 234.149 357.312 234.325C357.125 234.455 356.991 234.547 357.005 234.673C357.014 234.736 357.021 234.795 357.027 234.848C357.087 235.298 357.092 235.335 356.466 235.445C356 235.527 355.912 235.573 355.902 235.661C355.892 235.755 355.99 235.797 356.155 235.869C356.254 235.913 356.377 235.966 356.483 236.034C356.654 236.143 356.857 236.213 357.053 236.28C357.359 236.384 357.675 236.494 357.862 236.748C357.894 236.793 357.932 236.844 357.976 236.902C358.386 237.446 359.237 238.581 359.03 239.176C358.973 239.343 358.834 239.456 358.606 239.518C358.041 239.671 358.036 239.836 358.095 240.088C358.124 240.211 358.155 240.349 358.07 240.535C357.975 240.741 357.817 240.863 357.589 240.903C357.146 240.981 356.532 240.749 355.99 240.544C355.572 240.384 355.21 240.247 354.996 240.285C354.912 240.3 354.771 240.357 354.777 240.577C354.782 240.827 354.95 241.07 355.112 241.304C355.212 241.449 355.307 241.586 355.36 241.717C355.344 241.839 355.345 241.953 355.345 242.062C355.346 242.281 355.348 242.471 355.22 242.665C355.188 242.714 355.153 242.759 355.118 242.805C354.986 242.979 354.847 243.16 354.923 243.425C354.96 243.553 355.07 243.694 355.185 243.842C355.336 244.035 355.508 244.254 355.472 244.413C355.455 244.488 355.393 244.553 355.282 244.607C355.113 244.694 354.931 244.73 354.74 244.767C354.578 244.798 354.413 244.83 354.249 244.896C353.875 245.044 353.847 245.249 353.817 245.465C353.803 245.566 353.788 245.668 353.738 245.79C353.705 245.904 353.753 246.013 353.798 246.108C353.859 246.241 353.892 246.326 353.814 246.42C353.655 246.615 353.376 246.639 353.081 246.501C352.869 246.402 352.646 246.368 352.432 246.333L352.342 246.32C352.255 246.305 352.173 246.301 352.092 246.297C351.887 246.29 351.724 246.283 351.597 246.099C351.395 245.807 351.25 245.463 351.179 245.107L351.156 244.99L349.368 246.367L349.363 246.393C349.261 246.846 349.236 247.201 349.283 247.542C349.344 247.99 349.473 248.416 349.599 248.827C349.649 248.991 349.699 249.154 349.745 249.32C349.831 249.627 349.901 249.941 349.968 250.244C350.054 250.628 350.142 251.024 350.264 251.412C350.426 251.932 350.669 252.144 351.032 252.08C351.282 252.036 351.567 251.861 351.868 251.675C351.881 251.692 351.894 251.71 351.908 251.727C351.934 251.762 351.962 251.797 351.987 251.828C351.94 251.877 351.853 251.934 351.78 251.984C351.707 252.034 351.639 252.08 351.592 252.124C351.542 252.172 351.47 252.225 351.396 252.279C351.179 252.438 350.911 252.634 350.917 252.904C350.918 252.957 350.911 253.002 350.906 253.045C350.89 253.156 350.875 253.27 350.975 253.417C351.108 253.609 351.36 253.575 351.582 253.542C351.7 253.526 351.823 253.509 351.904 253.531C352 253.559 352.282 253.696 352.338 253.767C352.325 253.773 352.302 253.78 352.262 253.787C351.76 253.876 351.555 253.96 351.474 254.107C351.387 254.263 351.47 254.46 351.594 254.757C351.616 254.809 351.639 254.865 351.664 254.926C351.761 255.166 351.771 255.42 351.78 255.69C351.791 256.034 351.803 256.391 352.017 256.709C352.197 256.976 352.367 257.092 352.537 257.062C352.882 257.001 353.063 256.344 353.209 255.817C353.243 255.694 353.282 255.552 353.314 255.463C353.32 255.488 353.327 255.52 353.334 255.56C353.458 256.267 353.941 256.241 354.172 256.229C354.193 256.228 354.217 256.225 354.237 256.225C354.212 256.267 354.152 256.346 354.026 256.491C353.938 256.592 353.803 256.696 353.661 256.806C353.382 257.022 353.092 257.246 353.112 257.497C353.123 257.638 353.228 257.762 353.434 257.875C353.625 257.98 353.978 258.284 353.953 258.424C353.945 258.477 353.852 258.501 353.797 258.511C353.606 258.544 353.441 258.567 353.303 258.585C353.203 258.596 353.115 258.608 353.043 258.621C352.913 258.644 352.769 258.678 352.725 258.787C352.671 258.923 352.774 259.101 353.094 259.535C353.225 259.713 353.321 259.918 353.412 260.115C353.468 260.236 353.526 260.357 353.59 260.474C353.675 260.627 353.838 260.711 353.981 260.787C354.046 260.821 354.11 260.855 354.158 260.89C353.878 260.959 353.705 261.076 353.632 261.248C353.487 261.584 353.784 262.025 354.047 262.412C354.15 262.563 354.246 262.708 354.3 262.821C354.351 262.931 354.525 263.028 354.709 263.133C354.804 263.186 354.958 263.272 354.995 263.319C354.989 263.323 354.981 263.327 354.969 263.331C354.812 263.392 354.706 263.497 354.652 263.643C354.519 264.016 354.786 264.522 354.863 264.652C354.976 265.025 355.577 265.688 355.829 265.956C356.734 266.917 357.383 269.661 357.596 270.563C357.962 272.109 358.582 273.435 359.236 274.836C359.483 275.361 359.736 275.906 359.975 276.459L362.536 282.756C362.73 283.233 362.949 283.724 363.294 284.007C363.448 284.133 363.58 284.237 363.696 284.327C364.16 284.69 364.352 284.841 364.758 285.537C364.852 285.698 364.942 285.85 365.031 285.997L365.08 286.078L365.781 285.377C365.998 285.276 366.117 285.143 366.203 285.045C366.263 284.976 366.306 284.927 366.352 284.919C366.423 284.907 366.546 284.979 366.74 285.149C366.879 285.272 367.01 285.465 367.15 285.672C367.456 286.121 367.803 286.631 368.366 286.565C368.382 286.563 368.397 286.561 368.412 286.558C368.892 286.474 369.022 286.013 369.137 285.607C369.239 285.248 369.328 284.935 369.611 284.885L369.631 284.881C369.756 284.82 369.881 284.776 370.001 284.735C370.416 284.593 370.774 284.468 370.649 283.758C370.595 283.454 370.546 282.873 370.564 282.581C370.581 282.304 370.748 282.258 370.942 282.205C371.073 282.169 371.208 282.132 371.268 282.009C371.321 281.899 371.299 281.747 371.2 281.525C371.074 281.243 371.119 281.2 371.219 281.11C371.29 281.045 371.389 280.953 371.452 280.77C371.552 280.484 371.318 280.295 371.111 280.124C370.995 280.029 370.875 279.931 370.83 279.829L370.82 279.805L370.798 279.794C370.555 279.66 370.398 279.379 370.246 279.108C370.15 278.935 370.051 278.755 369.929 278.614C369.83 278.5 369.661 278.41 369.483 278.317C369.255 278.197 369.02 278.073 368.96 277.905C369.021 277.872 369.14 277.872 369.265 277.874C369.369 277.876 369.476 277.876 369.58 277.858C369.695 277.837 369.785 277.796 369.857 277.73C370.037 277.564 370.164 277.317 370.285 277.077C370.488 276.679 370.674 276.305 371.088 276.261C371.178 276.253 371.301 276.333 371.42 276.412C371.575 276.515 371.752 276.632 371.936 276.599C372.009 276.587 372.077 276.549 372.14 276.492C372.289 276.354 372.312 276.163 372.334 275.98C372.354 275.817 372.374 275.662 372.478 275.558L373.863 274.193C374.201 273.861 374.298 273.494 374.392 273.14C374.462 272.878 374.533 272.608 374.704 272.352C374.897 272.35 375.324 272.608 375.64 272.798C375.86 272.931 376.051 273.044 376.179 273.093C376.32 273.148 376.477 273.158 376.648 273.127C377.137 273.041 377.685 272.624 378.167 272.256C378.445 272.044 378.708 271.845 378.932 271.726C378.994 271.693 379.065 271.672 379.139 271.658C379.481 271.598 379.887 271.753 380.242 271.888C380.611 272.029 380.923 272.133 381.085 272.001L381.117 271.972L381.11 271.932C381.052 271.604 380.949 271.166 380.838 270.703C380.533 269.423 380.154 267.836 380.356 267.026C380.665 267.058 380.96 267.157 381.247 267.253C381.669 267.392 382.068 267.525 382.489 267.45C382.585 267.434 382.678 267.406 382.768 267.37C382.861 267.331 382.938 267.307 383.004 267.296C383.195 267.262 383.262 267.333 383.381 267.464C383.484 267.576 383.612 267.714 383.862 267.809C383.902 267.826 384.024 267.871 384.65 267.761C385.582 267.597 387.726 267.027 387.824 266.805C387.939 266.544 387.631 266.4 387.305 266.249C386.853 266.039 386.291 265.776 386.415 265.152C386.471 264.873 386.396 264.621 386.324 264.376C386.202 263.964 386.098 263.607 386.591 263.183C386.686 263.1 386.801 263.048 386.943 263.023C387.172 262.982 387.431 263.018 387.682 263.054C387.916 263.087 388.137 263.117 388.322 263.085C388.705 263.017 388.84 262.687 388.748 262.046C388.7 261.707 389.093 261.541 389.475 261.382C389.635 261.317 389.784 261.253 389.892 261.179C390.285 260.907 390.241 260.481 390.197 260.066C390.178 259.886 390.159 259.699 390.175 259.552L390.191 259.51C390.35 259.093 390.546 258.576 390.909 258.331C391.055 258.233 391.255 258.167 391.468 258.096C391.987 257.924 392.574 257.727 392.469 256.995C392.45 256.865 392.421 256.73 392.388 256.585C392.293 256.151 392.185 255.655 392.416 255.291C392.6 255.004 392.721 254.93 392.792 254.917C392.996 254.881 393.133 255.37 393.222 255.696C393.262 255.836 393.296 255.959 393.332 256.04C393.563 256.56 394.252 256.461 394.755 256.39C394.901 256.37 395.039 256.349 395.143 256.348L395.216 256.345L395.217 256.275C395.221 256.077 395.166 255.88 395.113 255.689C395.041 255.431 394.975 255.185 395.049 254.955C395.177 254.561 395.439 254.38 395.714 254.187C396.053 253.951 396.404 253.708 396.491 253.069C396.513 252.908 396.521 252.771 396.532 252.651C396.556 252.292 396.572 252.075 396.886 251.7C397.074 251.477 397.255 251.222 397.432 250.975C397.541 250.823 397.649 250.67 397.756 250.529C397.785 250.49 397.793 250.445 397.778 250.402C397.729 250.264 397.441 250.184 396.934 250.056C396.61 249.975 396.246 249.882 396.129 249.786C395.768 249.491 395.598 249.25 395.6 249.023C395.6 248.71 395.936 248.414 396.376 248.058L396.396 248.042L396.402 248.016C396.5 247.586 396.53 247.244 396.557 246.968C396.602 246.473 396.627 246.314 396.861 246.273C397.073 246.235 397.458 246.307 397.971 246.427C398.01 246.436 398.063 246.451 398.124 246.467C398.384 246.539 398.778 246.647 399.054 246.599C399.152 246.581 399.23 246.544 399.286 246.49C399.414 246.363 399.307 246.107 399.184 245.814C399.101 245.615 399.006 245.388 399.029 245.273C399.054 245.138 399.342 244.966 399.597 244.815C399.964 244.594 400.346 244.368 400.356 244.077C400.361 243.924 400.266 243.781 400.063 243.64C399.356 243.147 399.441 242.952 399.724 242.311C399.751 242.252 399.778 242.19 399.806 242.125C400.027 241.614 399.838 240.985 399.685 240.479C399.601 240.203 399.514 239.916 399.571 239.823C399.579 239.813 399.591 239.798 399.624 239.792C399.745 239.771 400.001 239.863 400.389 240.064C400.952 240.355 401.306 240.31 401.754 240.255C401.924 240.232 402.1 240.211 402.308 240.204C402.691 240.189 402.9 240.366 403.141 240.575C403.272 240.684 403.404 240.797 403.572 240.89C403.813 241.023 404.103 241.051 404.386 241.078C404.83 241.121 405.25 241.162 405.422 241.605C405.462 241.709 405.494 241.834 405.529 241.965C405.642 242.403 405.784 242.949 406.33 243.032C406.715 243.09 407.022 243.098 407.269 243.055C407.857 242.951 408.096 242.552 407.976 241.869C407.874 241.291 408.078 241.255 408.145 241.243C408.421 241.195 408.941 241.484 409.359 241.717C409.673 241.892 409.941 242.042 410.11 242.064L410.137 242.066L410.16 242.052C410.428 241.896 410.51 241.74 410.562 241.635C410.604 241.556 410.617 241.539 410.66 241.532C410.725 241.52 410.846 241.539 411.038 241.593C411.075 241.604 411.117 241.605 411.159 241.598C411.5 241.538 411.912 240.916 411.972 240.802C412.067 240.631 412.186 240.535 412.341 240.508C412.61 240.46 412.939 240.632 413.228 240.782C413.318 240.829 413.404 240.872 413.482 240.908C413.568 240.946 413.675 241.022 413.779 241.096C413.936 241.206 414.087 241.313 414.216 241.338C415.051 241.498 414.99 242.045 414.912 242.742C414.886 242.973 414.859 243.214 414.865 243.456C414.877 244.074 415.076 244.646 415.283 245.248C415.43 245.673 415.581 246.112 415.661 246.566C415.671 246.623 415.681 246.697 415.69 246.78C415.747 247.225 415.81 247.605 415.995 247.735C416.129 247.829 416.293 247.858 416.449 247.887C416.496 247.896 416.542 247.903 416.588 247.914C416.703 247.94 416.816 248.018 416.935 248.1C417.113 248.224 417.298 248.352 417.524 248.324C417.837 248.287 418.114 248.188 418.384 248.093C418.61 248.014 418.849 247.931 419.096 247.887L419.156 247.877L419.169 247.099C419.204 246.947 419.255 246.838 419.292 246.75C419.403 246.5 419.437 246.376 419.041 246.033C418.709 245.745 418.726 245.435 418.786 245.027C418.824 244.77 418.845 244.53 418.865 244.297C418.922 243.61 418.972 243.017 419.461 242.376C419.509 242.314 419.641 242.111 419.794 241.876C419.962 241.618 420.2 241.255 420.31 241.104C420.437 241.292 420.65 241.408 420.841 241.51C420.963 241.576 421.078 241.639 421.165 241.714C421.396 241.915 421.525 241.999 421.673 241.973C421.765 241.957 421.852 241.9 421.985 241.813C422.022 241.787 422.065 241.759 422.114 241.728C422.494 241.483 422.952 240.976 423.059 240.435C423.111 240.156 423.065 239.911 422.919 239.705Z" fill="#FF5100"/>
<path id="here," d="M425.693 344.547C425.558 344.569 425.428 344.535 425.302 344.444C425.177 344.354 425.074 344.232 424.994 344.079C424.914 343.926 424.861 343.768 424.835 343.606C424.769 343.202 424.744 342.79 424.76 342.372C424.802 341.95 424.856 341.429 424.922 340.809L427.469 320.338C427.53 319.857 427.584 319.336 427.632 318.775C427.675 318.186 427.675 317.757 427.632 317.487C427.588 317.218 427.38 317.043 427.007 316.965C426.662 316.883 426.318 316.814 425.977 316.758C425.779 316.735 425.595 316.709 425.425 316.681C425.277 316.622 425.194 316.538 425.177 316.431C425.159 316.323 425.184 316.222 425.252 316.128C425.316 316.007 425.487 315.868 425.766 315.712C425.969 315.596 426.249 315.44 426.605 315.244C426.987 315.044 427.384 314.842 427.794 314.637C428.226 314.401 428.611 314.214 428.949 314.076C429.31 313.907 429.557 313.812 429.692 313.79C429.827 313.768 429.978 313.758 430.144 313.759C430.31 313.76 430.411 313.868 430.446 314.084C430.48 314.3 430.484 314.493 430.456 314.663C430.455 314.83 430.443 315.012 430.42 315.209L427.99 335.122C427.967 335.32 427.982 335.414 428.036 335.405C428.117 335.392 428.189 335.325 428.253 335.204C429.156 333.258 430.133 331.508 431.183 329.954C432.229 328.373 433.256 327.1 434.262 326.134C435.269 325.168 436.177 324.62 436.987 324.489C437.877 324.345 438.6 324.533 439.154 325.053C439.736 325.568 440.09 326.217 440.217 326.999C440.439 328.375 440.418 329.874 440.154 331.495C439.917 333.111 439.507 334.686 438.925 336.22C438.342 337.754 437.659 339.097 436.876 340.248C436.74 340.436 436.532 340.691 436.252 341.013C435.968 341.308 435.629 341.612 435.237 341.925C434.844 342.238 434.432 342.512 433.999 342.748C433.598 343.007 433.208 343.166 432.831 343.228C432.642 343.258 432.399 343.214 432.103 343.096C431.834 342.973 431.586 342.806 431.358 342.593C431.156 342.377 431.041 342.174 431.01 341.985C430.988 341.85 431.016 341.68 431.093 341.473C431.171 341.267 431.28 341.083 431.42 340.922C431.56 340.761 431.711 340.667 431.873 340.641C432.115 340.602 432.327 340.623 432.506 340.705C432.708 340.755 432.887 340.837 433.044 340.95C433.228 341.059 433.409 341.154 433.589 341.236C433.768 341.318 433.965 341.341 434.181 341.306C434.64 341.232 435.082 340.884 435.508 340.261C435.933 339.639 436.303 338.845 436.618 337.881C436.96 336.912 437.234 335.871 437.442 334.757C437.645 333.617 437.768 332.489 437.809 331.375C437.877 330.257 437.838 329.239 437.689 328.321C437.589 327.701 437.378 327.25 437.056 326.97C436.756 326.659 436.35 326.544 435.837 326.627C435.244 326.723 434.617 327.129 433.957 327.845C433.32 328.529 432.674 329.409 432.017 330.484C431.387 331.555 430.781 332.691 430.2 333.893C429.619 335.094 429.101 336.258 428.646 337.383C428.192 338.509 427.834 339.467 427.574 340.256C427.109 341.66 426.753 342.715 426.507 343.419C426.288 344.119 426.017 344.495 425.693 344.547ZM445.841 341.166C445.274 341.258 444.659 341.136 443.996 340.8C443.359 340.46 442.8 339.996 442.317 339.41C441.831 338.796 441.537 338.179 441.437 337.559C441.219 336.209 441.257 334.736 441.553 333.137C441.871 331.508 442.409 329.953 443.166 328.474C443.92 326.968 444.863 325.694 445.996 324.653C447.151 323.58 448.444 322.928 449.874 322.697C450.819 322.544 451.58 322.629 452.158 322.951C452.759 323.241 453.116 323.737 453.229 324.439C453.365 325.275 453.212 326.047 452.773 326.755C452.361 327.459 451.746 328.112 450.93 328.714C450.11 329.29 449.17 329.816 448.112 330.291C447.08 330.763 446.015 331.198 444.917 331.597C444.76 331.65 444.631 331.712 444.532 331.784C444.455 331.824 444.403 331.929 444.375 332.1C444.282 332.724 444.198 333.402 444.123 334.134C444.047 334.866 444.06 335.543 444.16 336.163C444.313 337.108 444.606 337.808 445.039 338.264C445.5 338.715 446.081 338.884 446.783 338.771C447.754 338.614 448.538 338.238 449.134 337.643C449.73 337.049 450.205 336.474 450.558 335.918C450.78 335.578 450.999 335.39 451.214 335.355C451.484 335.312 451.641 335.425 451.685 335.694C451.689 335.721 451.698 335.775 451.711 335.856C451.72 335.91 451.701 335.969 451.656 336.031C451.26 337.009 450.775 337.863 450.201 338.592C449.622 339.295 448.966 339.858 448.231 340.281C447.528 340.727 446.731 341.022 445.841 341.166ZM445.05 330.62C445.347 330.572 445.833 330.411 446.508 330.135C447.206 329.829 447.916 329.423 448.637 328.919C449.355 328.388 449.937 327.795 450.385 327.141C450.856 326.456 451.026 325.709 450.895 324.899C450.838 324.548 450.696 324.267 450.468 324.055C450.235 323.815 449.944 323.724 449.593 323.781C449.026 323.872 448.445 324.215 447.849 324.81C447.275 325.374 446.746 326.04 446.262 326.811C445.773 327.555 445.376 328.269 445.072 328.955C444.794 329.637 444.679 330.126 444.727 330.423C444.754 330.585 444.861 330.651 445.05 330.62ZM456.168 339.58C456.033 339.602 455.876 339.572 455.696 339.49C455.521 339.435 455.367 339.336 455.233 339.191C455.103 339.074 455.025 338.934 454.999 338.772C454.946 338.448 454.962 338.03 455.045 337.519C455.151 336.975 455.278 336.304 455.426 335.505L457.579 325.189C457.658 324.817 457.659 324.484 457.584 324.192C457.536 323.895 457.377 323.768 457.108 323.812C456.73 323.873 456.361 323.988 456.001 324.157C455.663 324.295 455.408 324.433 455.237 324.571C455.092 324.705 454.935 324.758 454.764 324.731C454.616 324.671 454.527 324.547 454.496 324.359C454.462 324.143 454.517 323.885 454.662 323.584C454.834 323.279 455.076 322.977 455.388 322.678C455.672 322.383 456.017 322.119 456.423 321.888C456.855 321.651 457.314 321.494 457.8 321.416C458.556 321.294 459.058 321.406 459.308 321.753C459.585 322.096 459.695 322.605 459.638 323.278C459.603 323.921 459.49 324.673 459.297 325.535L458.215 330.403C458.137 330.609 458.184 330.726 458.354 330.754C458.552 330.777 458.68 330.715 458.739 330.567C459.518 328.531 460.335 326.737 461.192 325.187C462.072 323.605 462.923 322.36 463.745 321.452C464.563 320.516 465.282 319.999 465.903 319.898C466.604 319.785 467.123 319.909 467.458 320.27C467.82 320.627 468.045 321.075 468.132 321.615C468.211 322.1 468.197 322.615 468.091 323.158C468.012 323.697 467.839 324.168 467.572 324.571C467.327 324.943 467.016 325.159 466.638 325.22C466.423 325.255 466.241 325.16 466.094 324.934C465.942 324.682 465.832 324.34 465.762 323.908C465.696 323.503 465.592 323.202 465.45 323.003C465.302 322.778 465.08 322.689 464.784 322.737C464.514 322.781 464.178 323.015 463.776 323.44C463.401 323.861 462.946 324.557 462.411 325.53C462.179 325.982 461.877 326.599 461.505 327.379C461.133 328.159 460.733 329.026 460.306 329.982C459.902 330.905 459.502 331.856 459.106 332.834C458.706 333.784 458.362 334.657 458.075 335.451C457.556 336.864 457.183 337.893 456.955 338.539C456.754 339.181 456.492 339.528 456.168 339.58ZM471.734 336.981C471.167 337.072 470.552 336.95 469.888 336.614C469.252 336.274 468.693 335.811 468.21 335.224C467.723 334.611 467.43 333.994 467.329 333.373C467.111 332.024 467.15 330.55 467.446 328.952C467.764 327.322 468.301 325.768 469.059 324.289C469.812 322.783 470.756 321.509 471.889 320.467C473.044 319.395 474.337 318.743 475.767 318.511C476.712 318.359 477.473 318.443 478.051 318.765C478.652 319.056 479.009 319.552 479.122 320.253C479.257 321.09 479.105 321.862 478.666 322.57C478.253 323.273 477.639 323.926 476.823 324.529C476.002 325.105 475.063 325.63 474.004 326.106C472.973 326.577 471.908 327.012 470.81 327.412C470.652 327.465 470.524 327.527 470.425 327.598C470.348 327.638 470.296 327.744 470.268 327.914C470.175 328.539 470.091 329.217 470.015 329.949C469.94 330.681 469.952 331.357 470.053 331.978C470.205 332.922 470.499 333.622 470.932 334.078C471.393 334.53 471.974 334.699 472.675 334.586C473.647 334.429 474.431 334.053 475.027 333.458C475.623 332.863 476.097 332.288 476.451 331.733C476.672 331.392 476.891 331.205 477.107 331.17C477.377 331.126 477.534 331.239 477.577 331.509C477.582 331.536 477.59 331.59 477.604 331.671C477.612 331.725 477.594 331.783 477.549 331.846C477.153 332.824 476.668 333.677 476.094 334.407C475.515 335.11 474.859 335.673 474.124 336.096C473.421 336.542 472.624 336.837 471.734 336.981ZM470.943 326.435C471.239 326.387 471.726 326.225 472.401 325.95C473.099 325.643 473.809 325.238 474.53 324.734C475.247 324.202 475.83 323.61 476.278 322.956C476.749 322.271 476.918 321.523 476.788 320.714C476.731 320.363 476.588 320.082 476.36 319.869C476.128 319.63 475.836 319.539 475.485 319.595C474.919 319.687 474.337 320.03 473.741 320.625C473.168 321.188 472.639 321.855 472.154 322.626C471.665 323.369 471.269 324.084 470.964 324.77C470.687 325.452 470.572 325.941 470.62 326.238C470.646 326.4 470.754 326.465 470.943 326.435ZM479.069 340.53C478.881 340.56 478.717 340.573 478.577 340.568C478.415 340.594 478.324 340.539 478.302 340.405C478.28 340.27 478.357 340.146 478.533 340.035C478.708 339.923 478.932 339.763 479.202 339.553C479.915 338.995 480.502 338.429 480.963 337.856C481.451 337.279 481.787 336.699 481.969 336.115C482.179 335.528 482.24 334.964 482.153 334.424C482.079 333.966 481.876 333.652 481.544 333.484C481.239 333.312 480.928 333.183 480.609 333.096C480.286 332.982 479.974 332.852 479.674 332.707C479.396 332.53 479.225 332.24 479.159 331.835C479.085 331.376 479.253 330.961 479.664 330.59C480.097 330.188 480.584 329.943 481.124 329.856C481.852 329.738 482.512 329.881 483.103 330.284C483.717 330.655 484.1 331.313 484.253 332.258C484.414 333.256 484.351 334.235 484.063 335.195C483.802 336.151 483.387 337.008 482.817 337.764C482.274 338.516 481.669 339.14 481.002 339.636C480.334 340.131 479.69 340.429 479.069 340.53Z" fill="#FF5100"/>
</g>
</g>
</g>
</g>
<defs>
<filter id="filter0_d_700_399" x="8.01669" y="5.90918" width="623.685" height="442.171" filterUnits="userSpaceOnUse" color-interpolation-filters="sRGB">
<feFlood flood-opacity="0" result="BackgroundImageFix"/>
<feColorMatrix in="SourceAlpha" type="matrix" values="0 0 0 0 0 0 0 0 0 0 0 0 0 0 0 0 0 0 127 0" result="hardAlpha"/>
<feOffset dx="2" dy="2"/>
<feGaussianBlur stdDeviation="3.5"/>
<feComposite in2="hardAlpha" operator="out"/>
<feColorMatrix type="matrix" values="0 0 0 0 0 0 0 0 0 0 0 0 0 0 0 0 0 0 0.25 0"/>
<feBlend mode="normal" in2="BackgroundImageFix" result="effect1_dropShadow_700_399"/>
<feBlend mode="normal" in="SourceGraphic" in2="effect1_dropShadow_700_399" result="shape"/>
</filter>
<filter id="filter1_d_700_399" x="9.56005" y="171.071" width="117.864" height="272.326" filterUnits="userSpaceOnUse" color-interpolation-filters="sRGB">
<feFlood flood-opacity="0" result="BackgroundImageFix"/>
<feColorMatrix in="SourceAlpha" type="matrix" values="0 0 0 0 0 0 0 0 0 0 0 0 0 0 0 0 0 0 127 0" result="hardAlpha"/>
<feOffset dx="1.15221"/>
<feGaussianBlur stdDeviation="2.30443"/>
<feComposite in2="hardAlpha" operator="out"/>
<feColorMatrix type="matrix" values="0 0 0 0 0 0 0 0 0 0 0 0 0 0 0 0 0 0 0.05 0"/>
<feBlend mode="normal" in2="BackgroundImageFix" result="effect1_dropShadow_700_399"/>
<feBlend mode="normal" in="SourceGraphic" in2="effect1_dropShadow_700_399" result="shape"/>
</filter>
<filter id="filter2_d_700_399" x="504.695" y="11.106" width="112.63" height="279.817" filterUnits="userSpaceOnUse" color-interpolation-filters="sRGB">
<feFlood flood-opacity="0" result="BackgroundImageFix"/>
<feColorMatrix in="SourceAlpha" type="matrix" values="0 0 0 0 0 0 0 0 0 0 0 0 0 0 0 0 0 0 127 0" result="hardAlpha"/>
<feOffset dx="-2.30443"/>
<feGaussianBlur stdDeviation="2.41965"/>
<feComposite in2="hardAlpha" operator="out"/>
<feColorMatrix type="matrix" values="0 0 0 0 0 0 0 0 0 0 0 0 0 0 0 0 0 0 0.05 0"/>
<feBlend mode="normal" in2="BackgroundImageFix" result="effect1_dropShadow_700_399"/>
<feBlend mode="normal" in="SourceGraphic" in2="effect1_dropShadow_700_399" result="shape"/>
</filter>
<filter id="filter3_d_700_399" x="23.3033" y="25.5291" width="604.007" height="415.855" filterUnits="userSpaceOnUse" color-interpolation-filters="sRGB">
<feFlood flood-opacity="0" result="BackgroundImageFix"/>
<feColorMatrix in="SourceAlpha" type="matrix" values="0 0 0 0 0 0 0 0 0 0 0 0 0 0 0 0 0 0 127 0" result="hardAlpha"/>
<feOffset dy="-2.30443"/>
<feGaussianBlur stdDeviation="2.30443"/>
<feComposite in2="hardAlpha" operator="out"/>
<feColorMatrix type="matrix" values="0 0 0 0 0 0 0 0 0 0 0 0 0 0 0 0 0 0 0.05 0"/>
<feBlend mode="normal" in2="BackgroundImageFix" result="effect1_dropShadow_700_399"/>
<feBlend mode="normal" in="SourceGraphic" in2="effect1_dropShadow_700_399" result="shape"/>
</filter>
<filter id="filter4_d_700_399" x="24.7514" y="12.2406" width="517.901" height="211.721" filterUnits="userSpaceOnUse" color-interpolation-filters="sRGB">
<feFlood flood-opacity="0" result="BackgroundImageFix"/>
<feColorMatrix in="SourceAlpha" type="matrix" values="0 0 0 0 0 0 0 0 0 0 0 0 0 0 0 0 0 0 127 0" result="hardAlpha"/>
<feOffset dy="3.45664"/>
<feGaussianBlur stdDeviation="3.45664"/>
<feComposite in2="hardAlpha" operator="out"/>
<feColorMatrix type="matrix" values="0 0 0 0 0 0 0 0 0 0 0 0 0 0 0 0 0 0 0.27 0"/>
<feBlend mode="normal" in2="BackgroundImageFix" result="effect1_dropShadow_700_399"/>
<feBlend mode="normal" in="SourceGraphic" in2="effect1_dropShadow_700_399" result="shape"/>
</filter>
<filter id="filter5_d_700_399" x="74.886" y="30.3092" width="610.845" height="443.191" filterUnits="userSpaceOnUse" color-interpolation-filters="sRGB">
<feFlood flood-opacity="0" result="BackgroundImageFix"/>
<feColorMatrix in="SourceAlpha" type="matrix" values="0 0 0 0 0 0 0 0 0 0 0 0 0 0 0 0 0 0 127 0" result="hardAlpha"/>
<feOffset dy="4.60885"/>
<feGaussianBlur stdDeviation="5.18496"/>
<feComposite in2="hardAlpha" operator="out"/>
<feColorMatrix type="matrix" values="0 0 0 0 0 0 0 0 0 0 0 0 0 0 0 0 0 0 0.2 0"/>
<feBlend mode="normal" in2="BackgroundImageFix" result="effect1_dropShadow_700_399"/>
<feBlend mode="normal" in="SourceGraphic" in2="effect1_dropShadow_700_399" result="shape"/>
</filter>
<filter id="filter6_d_700_399" x="81.5286" y="182.222" width="82.4096" height="282.542" filterUnits="userSpaceOnUse" color-interpolation-filters="sRGB">
<feFlood flood-opacity="0" result="BackgroundImageFix"/>
<feColorMatrix in="SourceAlpha" type="matrix" values="0 0 0 0 0 0 0 0 0 0 0 0 0 0 0 0 0 0 127 0" result="hardAlpha"/>
<feOffset dx="1.15221"/>
<feGaussianBlur stdDeviation="2.30443"/>
<feComposite in2="hardAlpha" operator="out"/>
<feColorMatrix type="matrix" values="0 0 0 0 0 0 0 0 0 0 0 0 0 0 0 0 0 0 0.05 0"/>
<feBlend mode="normal" in2="BackgroundImageFix" result="effect1_dropShadow_700_399"/>
<feBlend mode="normal" in="SourceGraphic" in2="effect1_dropShadow_700_399" result="shape"/>
</filter>
<filter id="filter7_d_700_399" x="597.162" y="97.3267" width="80.4163" height="285.725" filterUnits="userSpaceOnUse" color-interpolation-filters="sRGB">
<feFlood flood-opacity="0" result="BackgroundImageFix"/>
<feColorMatrix in="SourceAlpha" type="matrix" values="0 0 0 0 0 0 0 0 0 0 0 0 0 0 0 0 0 0 127 0" result="hardAlpha"/>
<feOffset dx="-2.30443"/>
<feGaussianBlur stdDeviation="2.41965"/>
<feComposite in2="hardAlpha" operator="out"/>
<feColorMatrix type="matrix" values="0 0 0 0 0 0 0 0 0 0 0 0 0 0 0 0 0 0 0.05 0"/>
<feBlend mode="normal" in2="BackgroundImageFix" result="effect1_dropShadow_700_399"/>
<feBlend mode="normal" in="SourceGraphic" in2="effect1_dropShadow_700_399" result="shape"/>
</filter>
<filter id="filter8_d_700_399" x="92.9946" y="111.178" width="588.337" height="350.807" filterUnits="userSpaceOnUse" color-interpolation-filters="sRGB">
<feFlood flood-opacity="0" result="BackgroundImageFix"/>
<feColorMatrix in="SourceAlpha" type="matrix" values="0 0 0 0 0 0 0 0 0 0 0 0 0 0 0 0 0 0 127 0" result="hardAlpha"/>
<feOffset dy="-2.30443"/>
<feGaussianBlur stdDeviation="2.30443"/>
<feComposite in2="hardAlpha" operator="out"/>
<feColorMatrix type="matrix" values="0 0 0 0 0 0 0 0 0 0 0 0 0 0 0 0 0 0 0.05 0"/>
<feBlend mode="normal" in2="BackgroundImageFix" result="effect1_dropShadow_700_399"/>
<feBlend mode="normal" in="SourceGraphic" in2="effect1_dropShadow_700_399" result="shape"/>
</filter>
<linearGradient id="paint0_linear_700_399" x1="261.132" y1="118.525" x2="341.327" y2="415.418" gradientUnits="userSpaceOnUse">
<stop stop-color="white"/>
<stop offset="0.0396942" stop-color="white" stop-opacity="0"/>
</linearGradient>
<linearGradient id="paint1_linear_700_399" x1="121.013" y1="194.616" x2="92.7837" y2="205.562" gradientUnits="userSpaceOnUse">
<stop offset="0.119797" stop-color="white"/>
<stop offset="1" stop-color="white" stop-opacity="0"/>
</linearGradient>
<linearGradient id="paint2_linear_700_399" x1="606.679" y1="111.611" x2="642.974" y2="117.948" gradientUnits="userSpaceOnUse">
<stop offset="0.172101" stop-color="white"/>
<stop offset="0.508995" stop-color="#F4F4F4" stop-opacity="0"/>
</linearGradient>
<linearGradient id="paint3_linear_700_399" x1="340.357" y1="165.816" x2="378.064" y2="471.03" gradientUnits="userSpaceOnUse">
<stop stop-color="white"/>
<stop offset="0.0396942" stop-color="white" stop-opacity="0"/>
</linearGradient>
</defs>
</svg>
