<svg width="40" height="40" viewBox="0 0 40 40" fill="none" xmlns="http://www.w3.org/2000/svg">
<path d="M36.6667 29.1666H25" stroke="url(#paint0_linear_621_15602)" stroke-width="1.5"/>
<path d="M8.33398 29.1666H3.33398" stroke="url(#paint1_linear_621_15602)" stroke-width="1.5"/>
<path d="M36.666 10.8334H31.666" stroke="url(#paint2_linear_621_15602)" stroke-width="1.5"/>
<path d="M15.0007 10.8334H3.33398" stroke="url(#paint3_linear_621_15602)" stroke-width="1.5"/>
<path d="M11.6673 24.1666H21.6673C23.5007 24.1666 25.0007 25 25.0007 27.5V30.8333C25.0007 33.3333 23.5007 34.1666 21.6673 34.1666H11.6673C9.83398 34.1666 8.33398 33.3333 8.33398 30.8333V27.5C8.33398 25 9.83398 24.1666 11.6673 24.1666Z" stroke="url(#paint4_linear_621_15602)" stroke-width="1.5"/>
<path d="M18.3333 5.83337H28.3333C30.1667 5.83337 31.6667 6.66671 31.6667 9.16671V12.5C31.6667 15 30.1667 15.8334 28.3333 15.8334H18.3333C16.5 15.8334 15 15 15 12.5V9.16671C15 6.66671 16.5 5.83337 18.3333 5.83337Z" stroke="url(#paint5_linear_621_15602)" stroke-width="1.5"/>
<defs>
<linearGradient id="paint0_linear_621_15602" x1="25" y1="12.6666" x2="38.6704" y2="15.6333" gradientUnits="userSpaceOnUse">
<stop stop-color="#2599FF"/>
<stop offset="1" stop-color="#02BE7C"/>
</linearGradient>
<linearGradient id="paint1_linear_621_15602" x1="3.33398" y1="12.6666" x2="9.41605" y2="13.2323" gradientUnits="userSpaceOnUse">
<stop stop-color="#2599FF"/>
<stop offset="1" stop-color="#02BE7C"/>
</linearGradient>
<linearGradient id="paint2_linear_621_15602" x1="31.666" y1="-5.66663" x2="37.7481" y2="-5.10096" gradientUnits="userSpaceOnUse">
<stop stop-color="#2599FF"/>
<stop offset="1" stop-color="#02BE7C"/>
</linearGradient>
<linearGradient id="paint3_linear_621_15602" x1="3.33398" y1="-5.66663" x2="17.0044" y2="-2.69995" gradientUnits="userSpaceOnUse">
<stop stop-color="#2599FF"/>
<stop offset="1" stop-color="#02BE7C"/>
</linearGradient>
<linearGradient id="paint4_linear_621_15602" x1="8.33398" y1="-140.833" x2="28.7633" y2="-140.2" gradientUnits="userSpaceOnUse">
<stop stop-color="#2599FF"/>
<stop offset="1" stop-color="#02BE7C"/>
</linearGradient>
<linearGradient id="paint5_linear_621_15602" x1="15" y1="-159.167" x2="35.4293" y2="-158.533" gradientUnits="userSpaceOnUse">
<stop stop-color="#2599FF"/>
<stop offset="1" stop-color="#02BE7C"/>
</linearGradient>
</defs>
</svg>
