<svg width="64" height="64" viewBox="0 0 64 64" fill="none" xmlns="http://www.w3.org/2000/svg">
<path d="M0 14.3983L24.306 25.6949C24.306 25.6949 27.6284 24.1186 30.8633 22.6299C30.8633 22.6299 31.4754 22.2797 31.4754 21.5791C31.4754 21.5791 31.4754 20.7909 30.6885 20.4407C30.6885 20.4407 19.7596 15.3616 8.83064 10.37L28.4153 1.35034L30.0765 1L31.6503 1.35034L61.0273 14.9237C61.0273 14.9237 64 16.3248 64 18.1638C64 18.1638 64 20.0028 61.0273 21.3164L38.0328 31.9125L61.0273 42.5085C61.0273 42.5085 64 43.8221 64 45.8362C64 45.8362 64 47.5876 61.0273 49.0763L31.6503 62.4746C31.6503 62.4746 31.0383 63 30.0765 63L28.4153 62.4746L8.83064 53.5425L30.6885 43.5593L31.4754 42.4209C31.4754 42.4209 31.4754 41.8954 30.8634 41.2825L24.3061 38.3051L0 49.6017V36.8164L10.5793 31.9124L0 27.1837V14.3983Z" fill="#0A53A0"/>
</svg>
