<svg width="64" height="64" viewBox="0 0 64 64" fill="none" xmlns="http://www.w3.org/2000/svg">
<g clip-path="url(#clip0_3386_4654)">
<path fill-rule="evenodd" clip-rule="evenodd" d="M9.04792 49.7487C9.62816 49.5366 10.126 49.1619 10.4747 48.675C10.8235 48.1881 11.0066 47.6121 10.9994 47.0242C10.9994 44.572 9.1588 43.3564 6.63071 43.3564H0V56.6901H7.20729C9.42492 56.6901 11.5982 55.2231 11.5982 52.9805C11.5982 50.3146 9.04792 49.7739 9.04792 49.7487ZM3.4595 46.1229H6.03195C6.19667 46.1133 6.36179 46.1344 6.51785 46.1852C6.67392 46.2359 6.81786 46.3152 6.94145 46.4186C7.06504 46.522 7.16585 46.6474 7.2381 46.7876C7.31036 46.9278 7.35264 47.0801 7.36253 47.2358C7.36253 47.2833 7.36253 47.3315 7.36253 47.3804C7.35553 47.7082 7.21176 48.0201 6.96254 48.2482C6.71332 48.4763 6.37884 48.6021 6.03195 48.5981H3.43732L3.4595 46.1229ZM6.05412 53.8985H3.48168V51.2787H5.98759C7.25164 51.2787 7.8504 51.8027 7.8504 52.5781C7.8504 53.5464 7.09641 53.8985 6.05412 53.8985Z" fill="#ED0007"/>
<path fill-rule="evenodd" clip-rule="evenodd" d="M19.2274 43.021C15.147 43.021 12.752 46.1019 12.752 50.0001C12.752 53.8984 15.147 56.9792 19.2274 56.9792C23.3079 56.9792 25.7029 53.9193 25.7029 50.0001C25.7029 46.0809 23.33 43.021 19.2274 43.021ZM19.2274 53.7936C17.2316 53.7936 16.2336 52.096 16.2336 50.0001C16.2336 47.9043 17.2316 46.2276 19.2274 46.2276C21.2233 46.2276 22.2434 47.9252 22.2434 50.0001C22.2434 52.1169 21.2233 53.7936 19.2274 53.7936Z" fill="#ED0007"/>
<path fill-rule="evenodd" clip-rule="evenodd" d="M33.221 48.5959L32.7332 48.4911C31.5356 48.2605 30.5821 47.9671 30.5821 47.1497C30.5821 46.2695 31.4913 45.9132 32.2896 45.9132C32.8343 45.9209 33.3715 46.0346 33.8675 46.2474C34.3636 46.4602 34.8078 46.7674 35.1726 47.1497L37.368 45.0958C36.3701 44.027 34.7512 43 32.2231 43C29.2515 43 26.9895 44.5719 26.9895 47.1917C26.9895 49.5809 28.808 50.7546 31.0256 51.1947L31.5135 51.2995C33.3541 51.6558 34.0416 51.9282 34.0416 52.7666C34.0416 53.563 33.2876 54.087 32.1344 54.087C30.7595 54.087 29.5176 53.5211 28.564 52.3684L26.3242 54.4642C27.5661 55.8684 29.1406 56.9582 32.1788 56.9582C34.8177 56.9582 37.6341 55.5331 37.6341 52.6199C37.6785 49.5809 35.2391 48.9941 33.221 48.5959Z" fill="#ED0007"/>
<path fill-rule="evenodd" clip-rule="evenodd" d="M45.5293 53.7936C43.9769 53.7936 42.3581 52.578 42.3581 49.9163C42.3581 47.548 43.866 46.2277 45.4406 46.2277C46.6824 46.2277 47.4142 46.7726 47.9908 47.7157L50.8294 45.9342C49.4101 43.9013 47.7247 43.042 45.3962 43.042C41.1384 43.042 38.832 46.1648 38.832 49.9373C38.832 53.8984 41.3823 57.0002 45.3519 57.0002C48.1461 57.0002 49.4766 56.0781 50.9181 54.108L48.0574 52.2888C47.4808 53.1649 46.8598 53.7936 45.5293 53.7936Z" fill="#ED0007"/>
<path fill-rule="evenodd" clip-rule="evenodd" d="M60.296 43.3564V48.2607H56.0159V43.3564H52.3125V56.6859H56.0159V51.4254H60.296V56.6859H63.9994V43.3564H60.296Z" fill="#ED0007"/>
<path d="M32 7C28.8355 7 25.7421 7.93838 23.1109 9.69649C20.4797 11.4546 18.4289 13.9534 17.2179 16.8771C16.0069 19.8007 15.6901 23.0177 16.3074 26.1214C16.9248 29.2251 18.4487 32.0761 20.6863 34.3137C22.9239 36.5513 25.7749 38.0752 28.8786 38.6926C31.9823 39.3099 35.1993 38.9931 38.1229 37.7821C41.0466 36.5711 43.5454 34.5203 45.3035 31.8891C47.0616 29.2579 48 26.1645 48 23C48 18.7565 46.3143 14.6869 43.3137 11.6863C40.3131 8.68571 36.2435 7 32 7ZM32 37.5062C29.1309 37.5062 26.3263 36.6554 23.9408 35.0615C21.5552 33.4675 19.6959 31.202 18.598 28.5513C17.5001 25.9006 17.2128 22.9839 17.7725 20.17C18.3322 17.356 19.7138 14.7713 21.7426 12.7425C23.7713 10.7138 26.3561 9.33223 29.17 8.77251C31.9839 8.21278 34.9006 8.50005 37.5513 9.598C40.202 10.6959 42.4675 12.5552 44.0615 14.9408C45.6555 17.3263 46.5062 20.1309 46.5062 23C46.5054 26.847 44.9767 30.5362 42.2565 33.2565C39.5362 35.9767 35.847 37.5053 32 37.5062Z" fill="black"/>
<path d="M38.6057 13.0093H37.5103V18.4865H26.5227V13.0093H25.3941C23.741 14.0998 22.3843 15.5835 21.4457 17.3273C20.507 19.0711 20.0156 21.0206 20.0156 23.001C20.0156 24.9814 20.507 26.9308 21.4457 28.6746C22.3843 30.4185 23.741 31.9021 25.3941 32.9927H26.5227V27.5221H37.5103V32.9993H38.6057C40.2595 31.9093 41.6169 30.4258 42.5561 28.6819C43.4953 26.9381 43.9869 24.9883 43.9869 23.0076C43.9869 21.0269 43.4953 19.0772 42.5561 17.3333C41.6169 15.5894 40.2595 14.1059 38.6057 13.0159V13.0093ZM24.9958 30.8416C23.9663 29.9269 23.127 28.8183 22.526 27.5792C21.9249 26.3401 21.5739 24.9948 21.4928 23.62C21.4117 22.2452 21.6023 20.8679 22.0535 19.5667C22.5048 18.2656 23.2079 17.0661 24.1227 16.0367C24.3969 15.7304 24.6884 15.44 24.9958 15.167V30.8416ZM37.5103 25.9952H26.5227V19.9802H37.5103V25.9952ZM39.0041 30.8084V27.4889V18.4865V15.167C40.031 16.0891 40.8662 17.2046 41.462 18.4497C42.0577 19.6948 42.4022 21.045 42.4759 22.4233C42.5496 23.8016 42.3509 25.1809 41.8913 26.4824C41.4318 27.7839 40.7202 28.982 39.7974 30.0084C39.5464 30.286 39.2816 30.5508 39.0041 30.8018V30.8084Z" fill="black"/>
</g>
<defs>
<clipPath id="clip0_3386_4654">
<rect width="64" height="64" fill="white"/>
</clipPath>
</defs>
</svg>
