<svg width="40" height="40" viewBox="0 0 40 40" fill="none" xmlns="http://www.w3.org/2000/svg">
<path d="M3.45074 7.66668C4.78408 1.90001 13.4674 1.90001 14.7841 7.66668C15.5674 11.05 13.4174 13.9167 11.5507 15.7C10.1841 17 8.03408 16.9833 6.66741 15.7C4.81741 13.9167 2.66741 11.05 3.45074 7.66668Z" stroke="#FF5100" stroke-width="1.5"/>
<path d="M25.1167 27.6667C26.45 21.9 35.1833 21.9 36.5167 27.6667C37.3 31.05 35.15 33.9167 33.2667 35.7C31.9 37 29.7333 36.9833 28.3667 35.7C26.4833 33.9167 24.3333 31.05 25.1167 27.6667Z" stroke="#FF5100" stroke-width="1.5"/>
<path d="M20.0008 8.33331H24.4675C27.5508 8.33331 28.9841 12.15 26.6675 14.1833L13.3508 25.8333C11.0341 27.85 12.4675 31.6666 15.5341 31.6666H20.0008" stroke="#FF5100" stroke-width="1.5" stroke-linecap="round" stroke-linejoin="round"/>
<path d="M9.14418 9.16665H9.16344" stroke="#FF5100" stroke-width="2" stroke-linecap="round" stroke-linejoin="round"/>
<path d="M30.8102 29.1666H30.8295" stroke="#FF5100" stroke-width="2" stroke-linecap="round" stroke-linejoin="round"/>
</svg>
