<svg width="64" height="64" viewBox="0 0 64 64" fill="none" xmlns="http://www.w3.org/2000/svg">
<g clip-path="url(#clip0_621_12704)">
<path fill-rule="evenodd" clip-rule="evenodd" d="M0.21875 35.8897H7.04545L8.49704 32.4921H15.2396L13.7985 35.8897H20.7199L24.5277 27.4536H17.5222L16.2494 30.3252H9.54892L10.7691 27.4536H3.9424L0.21875 35.8897Z" fill="#0066B3"/>
<path fill-rule="evenodd" clip-rule="evenodd" d="M40.0567 30.3748C46.5679 30.3748 46.5679 30.3748 46.5679 30.3748C46.4627 28.9338 45.1163 28.0081 42.434 27.5979C37.0589 26.7774 31.263 27.0825 27.1291 29.344C23.8157 31.1953 23.6159 33.8671 26.8241 35.1925C29.6221 36.318 35.3022 36.4232 39.4361 35.7079C42.1289 35.2976 44.0854 34.372 45.232 33.1413C38.6157 33.1413 38.6157 33.1413 38.6157 33.1413C37.7952 33.7619 36.6487 34.0669 35.3128 34.1721C31.5891 34.1721 31.0737 33.0466 31.7995 31.7107C32.5253 30.2697 34.1767 29.344 36.6592 29.344C38.6052 29.2388 39.5413 29.6491 40.0567 30.3748Z" fill="#0066B3"/>
<path fill-rule="evenodd" clip-rule="evenodd" d="M57.4218 27.4536L54.4976 33.7964H64.2169L63.428 35.8897H46.5664L50.3742 27.4536H57.4218Z" fill="#0066B3"/>
</g>
<defs>
<clipPath id="clip0_621_12704">
<rect width="64" height="64" fill="white"/>
</clipPath>
</defs>
</svg>
