<svg width="52" height="64" viewBox="0 0 52 64" fill="none" xmlns="http://www.w3.org/2000/svg">
<path d="M0 0H51.596V51.0093H0V0Z" fill="#004C8F"/>
<path d="M0 0.0224609H51.5505V50.9867H0V0.0224609Z" fill="#ED232A"/>
<path d="M9.02344 8.94238H42.5351V42.073H9.02344V8.94238Z" fill="white"/>
<path d="M23.1992 0.0229492H28.3529V50.9872H23.1992V0.0229492Z" fill="white"/>
<path d="M0 22.9634H51.5505V28.0584H0V22.9634Z" fill="white"/>
<path d="M18.0449 17.8618H33.5102V33.1523H18.0449V17.8618Z" fill="#004C8F"/>
<path d="M0.404297 53.7988H52.0003V63.9999H0.404297V53.7988Z" fill="#004C8F"/>
<path d="M3.68555 61.3126V56.4858H5.29176V58.1149H6.79684V56.4858H8.40542V61.3126H6.79684V59.4398H5.29176V61.3126H3.68555ZM10.9472 57.6852H11.3636C11.6633 57.6852 11.8826 57.7159 12.0228 57.7775C12.1265 57.8222 12.2108 57.8892 12.2848 57.9892C12.3523 58.0879 12.4068 58.2124 12.4469 58.3688C12.4834 58.524 12.5028 58.6882 12.5028 58.8613C12.5028 59.1435 12.464 59.3795 12.3794 59.5707C12.2977 59.7617 12.1798 59.899 12.028 59.9836C11.8762 60.0698 11.6504 60.1107 11.352 60.1107L10.9472 60.1132V57.6852ZM11.5674 61.3126C11.9462 61.3126 12.2602 61.2819 12.517 61.2139C12.7753 61.1484 12.9853 61.0612 13.1462 60.9572C13.3099 60.8506 13.4576 60.7071 13.5939 60.5287C13.7288 60.3441 13.847 60.112 13.9389 59.8274C14.0337 59.5438 14.079 59.2243 14.079 58.8628C14.079 58.3317 13.9766 57.8828 13.7692 57.5082C13.5589 57.1414 13.2734 56.8757 12.9088 56.7195C12.5457 56.5628 12.1123 56.4858 11.6088 56.4858H9.37596V61.3126H11.5674ZM14.8149 61.3126V56.4858H18.624V57.6762H16.4002V58.4496H18.1792V59.6078H16.4002V61.3126H14.8149ZM24.0031 58.3317H22.4865C22.4579 58.0917 22.3697 57.902 22.2231 57.766C22.0751 57.6325 21.8897 57.5671 21.6613 57.5671C21.3771 57.5671 21.1462 57.6762 20.9685 57.8917C20.7896 58.1098 20.6999 58.4624 20.6999 58.9474C20.6999 59.2859 20.7402 59.54 20.8141 59.7131C20.8907 59.8913 20.9983 60.0197 21.132 60.1056C21.2695 60.1915 21.4369 60.2313 21.643 60.2313C21.8897 60.2313 22.0868 60.1695 22.2308 60.0286C22.3787 59.8964 22.4643 59.699 22.493 59.4347H24.0369C24.0031 59.7349 23.942 59.9862 23.8538 60.1915C23.7697 60.3955 23.619 60.5982 23.4155 60.802C23.2065 61.0103 22.9553 61.1725 22.6785 61.278C22.3943 61.3895 22.0661 61.4422 21.6898 61.4422C21.3189 61.4422 20.9724 61.3895 20.6598 61.2819C20.3432 61.1714 20.0758 61.015 19.863 60.8186C19.6463 60.6148 19.4777 60.3865 19.3571 60.1286C19.1831 59.7658 19.1014 59.3667 19.1014 58.9216C19.1014 58.5496 19.1624 58.1968 19.2858 57.8738C19.4089 57.553 19.579 57.2799 19.7955 57.0593C20.0135 56.8397 20.2509 56.6756 20.5157 56.5654C20.8504 56.4242 21.2189 56.3564 21.6275 56.3564C21.9831 56.3564 22.3125 56.4076 22.6239 56.5114C22.934 56.6155 23.1884 56.7668 23.3868 56.9683C23.5865 57.1671 23.744 57.4034 23.85 57.6632C23.9278 57.8468 23.9772 58.0687 24.0031 58.3317ZM29.1475 57.5724C29.3746 57.5724 29.5212 57.5826 29.5938 57.6031C29.6832 57.6283 29.7625 57.6803 29.8207 57.7519C29.8778 57.8237 29.9078 57.9071 29.9078 58.0034C29.9078 58.1264 29.8584 58.2277 29.7638 58.3047C29.6624 58.3857 29.4899 58.4228 29.2419 58.4228H28.6375V57.5722L29.1475 57.5724ZM29.5507 61.3126C29.9311 61.3126 30.1983 61.2947 30.3552 61.2614C30.5193 61.2218 30.6789 61.1659 30.8316 61.0945C30.9898 61.0124 31.1119 60.9355 31.1921 60.8508C31.3167 60.7366 31.4088 60.5982 31.4763 60.4313C31.5438 60.2633 31.5776 60.0736 31.5776 59.8696C31.5776 59.5784 31.5047 59.3386 31.357 59.1435C31.2091 58.9474 31.0105 58.8178 30.7602 58.7472C31.1843 58.4829 31.3959 58.1418 31.3959 57.7261C31.3959 57.2966 31.2091 56.9683 30.8393 56.7451C30.5538 56.573 30.1088 56.4858 29.5054 56.4858H27.0833V61.3126H29.5507ZM29.2928 59.291C29.6107 59.291 29.8168 59.3294 29.9207 59.4104C30.0167 59.4886 30.0687 59.5963 30.0687 59.7412C30.0687 59.8875 30.0167 60.003 29.9117 60.0838C29.8116 60.1697 29.6029 60.2055 29.2928 60.2055H28.6375V59.291H29.2928ZM35.1053 59.6901H34.0841L34.5876 57.9339L35.1053 59.6901ZM33.6041 61.3126L33.7895 60.679H35.388L35.5749 61.3126H37.1721L35.4205 56.4858H33.7895L32.0367 61.3126H33.6041ZM37.8466 61.3126V56.4858H39.3426L41.0305 59.0704V56.4858H42.5692V61.3126H41.0409L39.3892 58.7922V61.3126H37.8466ZM43.6396 61.3126V56.4858H45.1954V58.0776L46.6472 56.4858H48.5335L46.7444 58.3034L48.7192 61.3126H46.7964L45.6221 59.3897L45.1952 59.8067V61.3126H43.6396Z" fill="white"/>
</svg>
