<svg width="40" height="40" viewBox="0 0 40 40" fill="none" xmlns="http://www.w3.org/2000/svg">
<path d="M15.2663 18.1168C15.0996 18.1001 14.8996 18.1001 14.7163 18.1168C10.7496 17.9834 7.59961 14.7334 7.59961 10.7334C7.59961 6.6501 10.8996 3.33344 14.9996 3.33344C19.0829 3.33344 22.3996 6.6501 22.3996 10.7334C22.3829 14.7334 19.2329 17.9834 15.2663 18.1168Z" stroke="#FF5100" stroke-width="1.25" stroke-linecap="round" stroke-linejoin="round"/>
<path d="M27.3495 6.66687C30.5828 6.66687 33.1828 9.28354 33.1828 12.5002C33.1828 15.6502 30.6828 18.2169 27.5661 18.3335C27.4328 18.3169 27.2828 18.3169 27.1328 18.3335" stroke="#FF5100" stroke-width="1.25" stroke-linecap="round" stroke-linejoin="round"/>
<path d="M6.9332 24.2669C2.89987 26.9669 2.89987 31.3669 6.9332 34.0502C11.5165 37.1169 19.0332 37.1169 23.6165 34.0502C27.6499 31.3502 27.6499 26.9502 23.6165 24.2669C19.0499 21.2169 11.5332 21.2169 6.9332 24.2669Z" stroke="#FF5100" stroke-width="1.25" stroke-linecap="round" stroke-linejoin="round"/>
<path d="M30.5664 33.3334C31.7664 33.0834 32.8997 32.6001 33.8331 31.8834C36.4331 29.9334 36.4331 26.7168 33.8331 24.7668C32.9164 24.0668 31.7997 23.6001 30.6164 23.3334" stroke="#FF5100" stroke-width="1.25" stroke-linecap="round" stroke-linejoin="round"/>
</svg>
