<svg width="64" height="64" viewBox="0 0 64 64" fill="none" xmlns="http://www.w3.org/2000/svg">
<path fill-rule="evenodd" clip-rule="evenodd" d="M0.000509273 21.5633L0 21.5325V19.0695H2.45781V37.1346L2.45883 37.191V39.6284H0V37.1654L0.000509273 37.1346V21.5633Z" fill="#3781C2"/>
<path fill-rule="evenodd" clip-rule="evenodd" d="M24.9923 32.1414C25.0554 35.8779 27.3672 38.866 30.1561 38.816C32.9446 38.7659 35.1536 35.6964 35.0905 31.9599C35.0269 28.2228 32.7151 25.2347 29.9262 25.2852C27.1377 25.3353 24.9287 28.4048 24.9923 32.1414ZM45.3426 27.6236C45.4067 27.766 45.2545 27.4109 45.2545 27.4109L45.3426 27.6236ZM47.0176 43.0928C47.1303 42.8998 47.2873 42.6046 47.474 42.2359L47.0176 43.0928ZM47.1621 26.3345C47.1918 26.4174 47.2262 26.504 47.2648 26.5953L48.0924 28.6338L47.1621 26.3345ZM36.8636 36.5965C38.3827 37.9837 39.7506 38.7007 41.4997 38.7007C43.29 38.7143 44.8816 37.8335 44.8816 36.1381C44.8816 34.7233 43.6347 33.8957 41.4069 32.9481C39.5191 32.1262 38.1141 31.55 37.3799 30.3604C37.4696 30.8772 37.5165 31.4113 37.5165 31.9578C37.5165 36.5464 34.2081 40.2668 30.1269 40.2668C26.0457 40.2668 22.7373 36.5464 22.7373 31.9578C22.7373 29.1912 23.9399 26.7407 25.7886 25.2305H20.788V37.1347L20.7885 37.1821V39.6285H18.5675V37.2619C18.569 37.2202 18.5695 37.178 18.5695 37.1347V25.2305H16.6113V23.7322H18.5982C18.8548 20.7097 20.716 19.0002 23.2927 19.0002C24.9636 19.0002 25.8809 19.1754 26.4108 19.4221V21.471C26.4024 21.6238 26.4024 21.7172 26.4024 21.7172C26.3795 21.7146 26.3247 21.7135 26.3247 21.7135C25.5206 20.9673 24.7274 20.4119 22.8745 20.414C21.3987 20.414 20.4224 21.6202 20.7635 23.7322H29.0761C29.4198 23.6775 29.7702 23.6488 30.1269 23.6488C33.0874 23.6488 35.6418 25.6065 36.8209 28.434C36.8099 28.2771 36.8047 28.1133 36.8047 27.9423C36.8047 24.9922 39.6432 23.7375 42.5917 23.7437C42.7044 23.7432 42.8149 23.7437 42.9234 23.7463C43.9612 23.7296 45.4396 24.0702 46.3423 24.309L48.0924 28.6338L50.5935 34.7707L50.8871 35.7564L51.2141 34.7707L54.377 26.8935C54.9605 24.7246 57.2702 23.7859 59.8214 23.7912C61.0897 23.7854 62.0263 23.9393 63.1496 24.3366V26.7188C61.7666 25.7077 60.7762 25.1199 59.2071 25.1199C57.8277 25.1199 56.1699 25.7343 56.1699 27.7764C56.1433 29.3112 57.0585 29.5918 59.7442 30.9325C61.9517 31.8968 63.9881 32.9611 64.0001 35.4262C64.0001 39.5362 59.9752 40.248 58.016 40.2542C56.2669 40.2542 54.6638 39.8198 53.772 39.0736V36.3602L53.9155 36.4797C55.5065 37.9743 56.9125 38.7487 58.7294 38.7487C60.5202 38.7623 62.1113 37.8809 62.1113 36.1855C62.1113 34.7707 60.8644 33.9431 58.6365 32.9956C56.5073 32.0683 55.1102 31.454 54.5392 29.9182C53.6709 32.0485 49.6319 41.9439 48.6812 44.0591H46.5034L47.4891 42.2078C48.0351 41.1262 48.8293 39.4292 49.5349 37.8058L45.3426 27.6236C45.3144 27.5616 45.2456 27.4051 45.1053 27.0844C44.7836 26.347 44.4842 25.6659 43.5789 25.3228C43.0939 25.1585 42.5776 25.0725 41.9774 25.0725C40.5981 25.0725 38.8338 25.6868 38.8338 27.729C38.8072 29.2637 39.8283 29.5443 42.5145 30.8845C44.722 31.8493 46.7585 32.9137 46.7705 35.3788C46.7705 39.4887 42.745 40.2 40.7858 40.2068C39.2307 40.2068 37.7903 39.8631 36.8636 39.2624V36.5965Z" fill="#3781C2"/>
<path fill-rule="evenodd" clip-rule="evenodd" d="M7.04481 23.8854L7.07193 25.6835L7.07037 25.8045L7.09434 25.804C7.12302 25.7289 7.16163 25.6652 7.19814 25.6178C8.10085 24.6442 9.23875 23.6768 11.9432 23.6768C14.5319 23.6768 16.2075 25.8895 16.2747 27.2824L16.2774 37.1345V37.1835V39.6283H14.0589V36.6907L14.0584 28.3035C14.0584 26.5669 12.5434 25.3112 10.689 25.3112C9.14747 25.3112 7.16893 26.7067 7.10322 28.1194V37.1371L7.10427 37.2033V39.6304H4.88477V25.9557L4.88531 23.8854H7.04481Z" fill="#3781C2"/>
</svg>
