<svg width="64" height="64" viewBox="0 0 64 64" fill="none" xmlns="http://www.w3.org/2000/svg">
<path fill-rule="evenodd" clip-rule="evenodd" d="M62.9972 24.134C61.3242 25.2171 59.2203 27.2503 57.0401 29.8232C56.7142 26.9138 56.36 23.8844 56.1415 20.4231C55.6423 12.3323 55.612 5.5778 56.9303 2.12102C57.7111 0.0598548 56.9622 -0.343126 55.612 0.250185C49.9636 2.70216 41.6837 9.84542 41.5176 21.3233C41.4613 25.3303 42.3914 28.8882 43.8851 31.7841C41.8834 33.5596 39.4544 33.2897 37.5722 33.6558C36.6488 30.5252 35.8281 26.8737 32.6446 25.099C27.4076 21.1565 20.649 25.11 15.3956 28.6593C15.1077 26.1014 14.8169 23.4307 14.6276 20.4231C14.1276 12.3323 14.0944 5.5778 15.4136 2.12102C16.1956 0.0598548 15.4475 -0.343126 14.0944 0.250185C8.44806 2.70256 0.167404 9.84582 0.0024621 21.3233C-0.118549 29.9047 4.23904 36.4588 9.12181 38.75C8.97644 38.9984 8.81549 39.2398 8.66253 39.4801C5.08252 45.5126 4.11843 48.7052 3.19148 52.3028C1.84838 57.5704 2.26133 63.2068 5.58933 63.9194C10.139 64.9019 14.8205 56.7324 15.8541 48.859C16.6968 42.3533 16.3509 37.369 15.7954 32.1899C15.8565 32.1092 15.9416 31.9976 15.9999 31.927C16.4719 31.3356 16.9208 30.7254 17.3454 30.0979C19.4413 28.0741 21.8156 26.8347 24.0197 25.8307C26.5877 25.2029 29.2579 25.7264 31.2081 27.396C32.1307 28.5436 33.467 29.8979 32.9514 31.3592C30.8986 30.8377 29.2579 29.4819 26.9975 29.5854C24.8408 29.3768 22.6854 29.6921 21.5564 31.6741C20.8379 33.2378 22.068 34.6979 23.0956 35.8452C25.9715 39.1847 34.5944 34.178 35.108 40.1245C36.5466 39.601 36.4435 37.5143 37.0597 36.1572C39.6058 35.1435 41.9928 34.7803 45.3344 34.1537C46.8576 36.2583 48.7044 37.8426 50.6369 38.7504C50.4928 38.9988 50.3334 39.2403 50.1785 39.4805C46.5964 45.513 45.6355 48.7056 44.7074 52.3032C43.3651 57.5708 43.7792 63.2072 47.1068 63.9199C51.6537 64.9024 56.336 56.7328 57.3704 48.8594C58.2143 42.3537 57.8672 37.3694 57.3113 32.1903C57.3712 32.1096 57.4547 31.998 57.5158 31.9274C59.565 29.3447 62.4001 26.7527 63.3738 25.7268C64.1362 24.905 64.4054 23.2205 62.9972 24.134ZM12.8128 52.2752C12.0616 60.2123 8.48161 60.9241 6.92045 60.3393C5.08212 59.6466 4.5825 53.9034 7.41767 46.6221C8.77036 43.1434 10.4793 40.0312 12.0596 37.5143C12.705 42.9284 13.2022 48.1464 12.8128 52.2752ZM13.7258 3.13679C12.6914 5.53682 10.6255 10.0686 10.3715 17.666C10.1981 22.6568 10.9865 28.749 11.7257 34.7604C11.1079 35.6467 10.5068 36.5635 9.90858 37.492C6.4396 35.0351 4.7127 29.8228 4.47228 21.7818C4.09527 9.74437 9.86385 3.84941 13.0393 2.32515C13.8137 1.95057 14.2214 1.99603 13.7258 3.13679ZM32.1307 34.9069C30.6949 35.4276 28.2299 35.1139 26.7934 34.1776C26.3824 33.7596 25.2526 32.9236 25.9719 32.0893C28.3322 30.7318 30.3862 32.1936 32.1307 34.1776V34.9069ZM54.328 52.2752C53.5775 60.2123 49.9979 60.9241 48.438 60.3393C46.5964 59.6466 46.098 53.9034 48.9316 46.6221C50.2879 43.1434 51.9932 40.0312 53.5759 37.5143C54.2205 42.9284 54.719 48.1464 54.328 52.2752ZM55.2397 3.13679C54.2053 5.53682 52.1414 10.0686 51.8858 17.666C51.7148 22.6568 52.5012 28.749 53.2421 34.7604C52.6185 35.6587 52.0126 36.5694 51.4245 37.492C47.9555 35.0351 46.2278 29.8228 45.9878 21.7818C45.612 9.74437 51.3802 3.84941 54.5556 2.32515C55.3304 1.95057 55.737 1.99603 55.2397 3.13679Z" fill="#D51900"/>
</svg>
