<svg width="64" height="64" viewBox="0 0 64 64" fill="none" xmlns="http://www.w3.org/2000/svg">
<path d="M32.4553 2.45508C15.9072 2.45508 2.45312 15.9092 2.45312 32.4529C2.45312 49.001 15.9116 62.4551 32.4553 62.4551C49.0034 62.4551 62.4487 48.9966 62.4487 32.4529C62.4487 15.9092 49.0034 2.45508 32.4553 2.45508ZM32.4553 6.20206C46.9787 6.20206 58.7105 17.9339 58.7105 32.4573C58.7105 46.9675 46.9963 58.6949 32.4904 58.7125L45.3265 36.2568H52.6978L57.0057 28.8856H36.7019L32.394 36.2568H41.0142L28.3621 58.3969C15.7889 56.438 6.19135 45.5871 6.19135 32.4573C6.19135 20.8526 13.6897 11.0271 24.1111 7.55186L11.8666 28.8856L7.78217 36.2568H27.9721L32.28 28.8856H16.1745L29.0721 6.41681C30.1808 6.27218 31.3115 6.20206 32.4553 6.20206Z" fill="#174171"/>
</svg>
