<svg width="64" height="64" viewBox="0 0 64 64" fill="none" xmlns="http://www.w3.org/2000/svg">
<path d="M32.2851 17.271C16.2432 17.2741 1.79936 22.7456 0.148601 30.0785C-0.948805 34.9565 4.13767 39.9604 11.9114 42.8881C21.0045 34.6271 31.2889 25.8871 44.7055 19.8839C32.4751 27.7536 23.4532 36.4007 16.1038 44.3076C18.5753 44.9539 21.276 45.5455 24.1367 45.8737C28.2672 39.4968 32.8653 31.562 46.4472 20.013C36.5808 31.878 31.9785 38.9239 27.9936 46.3713C42.679 47.6855 59.7667 45.8448 63.8374 32.9506C65.5955 25.1273 52.8984 18.1588 35.5103 17.366C34.4361 17.3098 33.3608 17.2781 32.2851 17.271ZM31.7039 18.4644C38.214 18.389 43.318 19.1096 43.318 19.1096C30.6963 23.6273 21.8035 28.2512 10.0893 34.8852C10.2028 34.9988 0.84545 33.5256 7.57235 25.788C12.6495 19.9469 23.3345 18.5615 31.7039 18.4644ZM48.1898 20.6262C48.1898 20.6262 56.7326 21.7081 58.8366 29.2723C61.1511 37.6014 39.2113 40.9411 37.7371 39.6919C41.7963 29.8803 42.9949 29.7967 48.1898 20.6262Z" fill="#E51636"/>
</svg>
