<svg width="40" height="40" viewBox="0 0 40 40" fill="none" xmlns="http://www.w3.org/2000/svg">
<path d="M3.33398 25H30.834C34.0507 25 36.6673 27.6167 36.6673 30.8333C36.6673 34.05 34.0507 36.6667 30.834 36.6667C27.6173 36.6667 25.0007 34.05 25.0007 30.8333V30" stroke="#FF5100" stroke-width="1.5" stroke-miterlimit="10" stroke-linecap="round" stroke-linejoin="round"/>
<path d="M3.33398 20H30.834C34.034 20 36.6673 17.3833 36.6673 14.1666C36.6673 10.9666 34.034 8.33331 30.834 8.33331C27.634 8.33331 25.0007 10.95 25.0007 14.1666V15" stroke="#FF5100" stroke-width="1.5" stroke-miterlimit="10" stroke-linecap="round" stroke-linejoin="round"/>
<path d="M3.33398 15H15.5173C18.0006 15 20.0007 12.9833 20.0007 10.5167C20.0007 8.03333 17.984 6.03333 15.5173 6.03333C13.034 6.03333 11.034 8.04999 11.034 10.5167V11.15" stroke="#FF5100" stroke-width="1.5" stroke-miterlimit="10" stroke-linecap="round" stroke-linejoin="round"/>
</svg>
