<svg width="64" height="64" viewBox="0 0 64 64" fill="none" xmlns="http://www.w3.org/2000/svg">
<path d="M57.4043 27.4248C60.398 28.3497 63.0799 30.3051 59.9069 32.6526C57.4855 34.4363 52.4974 35.6078 50.5458 36.0702C43.0423 37.8362 34.7108 38.1974 28.9409 37.9684C23.9571 37.7746 19.8231 37.0259 16.7227 35.9909C18.9091 36.5326 21.1555 36.9378 23.4403 37.2109C28.8469 37.8583 34.4456 37.7878 39.874 37.1448C43.5338 36.7132 49.1326 35.8191 53.5652 34.3745C57.4001 33.1238 62.7426 30.0629 57.4044 27.4248" fill="#8CC53D"/>
<path d="M60.306 31.4414C62.6378 32.3663 64.6279 33.5862 63.8165 34.9779C63.714 35.154 63.5731 35.3302 63.3766 35.5108C61.489 37.2812 57.1671 38.2502 54.2119 38.8183C42.8991 40.9851 26.5983 40.1307 17.6133 36.5986C19.8724 37.3517 22.2853 37.8714 24.7494 38.2502C27.7857 38.7126 30.8862 38.9945 33.9952 39.131C38.5135 39.3248 43.1513 39.2588 47.6189 38.8536C50.1129 38.6246 52.5728 38.2678 54.9003 37.7085C56.3993 37.3518 58.1075 36.8805 59.551 36.2507C60.8535 35.6781 62.4508 34.7974 62.3141 33.6215C62.2672 33.2427 62.0451 32.8331 61.5967 32.3927C61.2806 32.0844 60.8536 31.7673 60.3069 31.4414" fill="#F57F1E"/>
<path d="M0 24.5445V24.2847C1.06765 24.3023 2.14812 24.3067 3.23711 24.2935C3.74105 24.2847 3.96311 24.2626 4.44998 24.4564C7.00798 25.4914 5.63291 29.3186 2.94674 29.1821L2.93821 28.9442C5.5347 28.6976 5.00521 24.1967 2.34888 24.866V32.2649C2.37877 32.8463 2.75458 33.0489 3.44641 32.8991V33.1854C2.38303 33.1457 1.31967 33.1413 0.256297 33.1854V32.9211C0.751682 33.0489 1.02927 32.8463 1.08907 32.3222V24.9848C1.08907 24.5973 0.760232 24.5312 0.521083 24.5356L0 24.5445Z" fill="#AB2B30"/>
<path d="M6.40657 31.5681L9.15681 24.1119C9.25076 24.0194 9.34044 24.0326 9.43439 24.1163L12.364 32.1187C12.5775 32.6383 12.9363 32.9378 13.5 32.8982V33.1801H10.959L10.9334 32.9422C10.9291 32.8762 11.258 32.8453 11.1768 32.5238L10.3014 30.1148H7.69637L6.98319 32.0086C6.73976 32.612 6.73976 33.0656 7.58534 32.9379V33.1977H5.07422L5.07848 32.9247L5.59096 32.9159C6.12052 32.7309 6.21873 32.0659 6.40664 31.5683L6.40657 31.5681ZM7.88419 29.5862H10.0537L9.02446 26.3755L7.88419 29.5862Z" fill="#AB2B30"/>
<path d="M13.4014 24.9972H15.5068V32.5018C15.5068 32.7308 15.2975 32.9114 15.0626 32.9378L14.7082 32.9774V33.1976H17.9752V32.9334L17.3047 32.9114C17.0527 32.8981 16.852 32.6867 16.852 32.3917V24.953H18.667C19.1069 25.0983 19.3546 25.4242 19.3759 25.9748H19.598L19.5724 24.1646C19.457 24.2439 19.3204 24.2923 19.1581 24.3232H13.3844C13.1495 24.3055 12.9744 24.2263 12.8121 24.1338L12.4961 25.8778L12.6968 25.9042C12.7993 25.433 13 25.0851 13.4015 24.997" fill="#AB2B30"/>
<path d="M19.9066 31.5681L22.6568 24.1119C22.7508 24.0194 22.8447 24.0326 22.9344 24.1163L25.8683 32.1187C26.0818 32.6383 26.432 32.9378 27 32.8982V33.1801H24.459L24.4377 32.9422C24.4292 32.8762 24.758 32.8453 24.6768 32.5238L23.8014 30.1148H21.1964L20.4832 32.0086C20.2398 32.612 20.244 33.0656 21.0853 32.9379V33.1977H18.5742L18.5785 32.9247L19.0952 32.9159C19.6205 32.7309 19.723 32.0659 19.9066 31.5683L19.9066 31.5681ZM21.3842 29.5862H23.5537L22.5245 26.3755L21.3842 29.5862Z" fill="#AB2B30"/>
<path d="M28.2275 24.0109L34.138 30.877L34.1209 24.8476C34.1209 24.4909 33.4632 24.4777 33.0532 24.4733V24.2355H35.7865V24.4733C35.4705 24.5041 34.8854 24.5306 34.8811 24.8124L34.7829 33.123C34.7829 33.3168 34.5395 33.2419 34.437 33.123L28.8681 26.7062L28.7186 26.6974L28.7912 32.4096C28.9792 32.9557 29.3678 32.8853 29.8717 32.8941V33.1803H26.9336L26.9507 32.9029C27.4503 32.9601 27.9073 32.8456 28.044 32.414L28.0995 24.2224C28.0995 24.0815 28.1849 23.9626 28.2276 24.011" fill="#AB2B30"/>
<path d="M37.1173 24.3105H40.3118V24.5352H39.8036C39.62 24.5352 39.4235 24.6981 39.4278 24.9756L39.4492 30.3046V31.4762C39.4492 33.7356 39.0307 34.9027 37.1345 35.898C36.5153 36.2239 36.652 36.1711 37.0534 35.7791C38.2235 34.634 38.1595 33.326 38.1552 31.6612C38.1509 29.4548 38.121 27.266 38.121 25.0199C38.1253 24.6455 37.899 24.5178 37.6726 24.5178H37.1217L37.1175 24.3108" fill="#AB2B30"/>
<path d="M41.637 31.5681L44.3873 24.1119C44.4812 24.0194 44.5709 24.0326 44.6649 24.1163L47.5987 32.1186C47.8123 32.6383 48.1667 32.9378 48.7347 32.8982V33.1801H46.1895L46.1682 32.9422C46.1596 32.8762 46.4885 32.8454 46.4073 32.5239L45.5318 30.1148H42.9268L42.2137 32.0086C41.9702 32.612 41.9702 33.0656 42.8158 32.9379V33.1977H40.3047L40.3089 32.9247L40.8257 32.9159C41.351 32.7309 41.4535 32.0659 41.6371 31.5683L41.637 31.5681ZM43.1146 29.5862H45.2841L44.2549 26.3755L43.1146 29.5862Z" fill="#AB2B30"/>
<path d="M48.9806 24.3106H52.2902V24.5352H51.6283C51.4403 24.5352 51.2482 24.6982 51.2482 24.9756L51.2738 31.7491C51.2781 32.0706 51.4062 32.4582 51.8204 32.4582H53.5372C53.9685 32.4229 54.2376 32.1455 54.3486 31.3704H54.5664C54.5237 31.9825 54.4554 32.5727 54.323 33.11H49.2154V32.8589C49.5954 32.8677 49.7577 32.7356 49.9371 32.5066L49.9456 25.0196C49.9456 24.6453 49.7236 24.5175 49.4972 24.5175H48.9847L48.9805 24.3105" fill="#AB2B30"/>
<path d="M55.5508 24.3105H58.6128V24.5352H58.1046C57.9209 24.5352 57.7288 24.6981 57.7288 24.9756L57.7501 30.3046V32.4186C57.7758 32.6696 57.8526 32.8766 58.1601 32.8898H58.8776V33.1849H55.5593L55.5636 32.9383L56.0675 32.9251C56.3024 32.9207 56.4561 32.7049 56.4561 32.3702C56.4561 29.917 56.422 27.5036 56.422 25.0197C56.422 24.6453 56.1999 24.5176 55.9736 24.5176H55.5508L55.5508 24.3105Z" fill="#AB2B30"/>
</svg>
