<svg width="64" height="64" viewBox="0 0 64 64" fill="none" xmlns="http://www.w3.org/2000/svg">
<path fill-rule="evenodd" clip-rule="evenodd" d="M61.6772 31.3501C61.0368 33.0508 60.2135 34.7266 59.3194 36.4232H47.144L45.5555 41.761H55.972C54.0301 44.492 51.8761 47.1486 49.273 49.6148C34.3905 63.7829 14.4641 67.0808 5.02894 57.6961C0.17207 52.8589 -1.05878 45.241 0.870661 37.0728H12.1604L13.9983 31.7266H2.50902C3.17435 30.0301 4.04343 28.3584 4.97072 26.6701H14.6554L16.5432 21.324H8.43457C10.2226 18.8909 12.1853 16.5116 14.514 14.3144C29.4048 0.14211 49.3895 -3.08545 58.9452 6.41515C63.6648 11.1117 64.9747 18.2785 63.3114 26.0164H49.8427L48.3665 31.3501H61.6772ZM53.3856 21.3033L55.0821 13.5075H41.8214C32.5152 13.5075 26.3692 19.9005 25.3505 25.6853L21.8991 40.0935C21.8617 40.4783 21.5997 40.8548 21.3918 41.0948C20.8387 41.7114 20.1734 42.0217 19.3251 42.0217H11.0085L8.76307 50.4961H21.7078C31.0182 50.4961 38.1621 44.7196 39.1892 38.939L43.5596 22.4454C43.6095 22.1391 43.6635 21.9819 43.8049 21.8329C44.1542 21.444 44.516 21.3033 45.3767 21.3033H53.3856Z" fill="#009E4D"/>
</svg>
