<svg width="64" height="64" viewBox="0 0 64 64" fill="none" xmlns="http://www.w3.org/2000/svg">
<path d="M32.0139 64.0003C49.6829 64.0003 64 49.6823 64 32.0142C64.0001 14.3453 49.6829 0 32.0139 0C14.3453 0 0 14.3453 0 32.0141C0 49.6822 14.3453 64.0003 32.0139 64.0003Z" fill="#000C0A"/>
<path d="M32.0151 63.1974C49.2408 63.1974 63.1986 49.2396 63.1986 32.0139C63.1986 14.7881 49.2408 0.802734 32.0151 0.802734C14.7895 0.802734 0.832031 14.7882 0.832031 32.0139C0.832031 49.2396 14.7896 63.1974 32.0151 63.1974Z" fill="white"/>
<path d="M32.0154 62.2553C48.7147 62.2553 62.2849 48.7135 62.2849 32.0143C62.2849 15.287 48.7147 1.74463 32.0154 1.74463C15.316 1.74463 1.74609 15.2869 1.74609 32.0143C1.74616 48.7135 15.316 62.2553 32.0154 62.2553Z" fill="#000C0A"/>
<path d="M32.0124 50.9011C42.453 50.9011 50.8996 42.4275 50.8996 32.0143C50.8996 21.5735 42.453 13.0991 32.0124 13.0991C21.5719 13.0991 13.0977 21.5735 13.0977 32.0143C13.0977 42.4275 21.5719 50.9011 32.0124 50.9011ZM35.502 4.79083C36.3047 5.92658 36.416 7.50515 36.1944 8.86172C35.9455 10.1083 34.9483 10.8837 33.8127 11.2438C32.0402 11.4653 29.8803 11.9083 28.3017 10.2191C27.4155 8.97281 27.4155 7.39419 27.7475 5.81562C28.1908 4.12642 30.1293 3.68336 31.7079 3.57227C33.0928 3.57239 34.5048 3.79406 35.502 4.79083Z" fill="white"/>
<path d="M33.4819 6.17529C33.5929 7.20021 33.9254 8.77877 33.1499 9.66498C32.4575 10.1636 31.4884 10.3571 30.7959 9.88645C29.8821 9.00024 30.0205 7.64322 30.2422 6.50779C30.3525 5.84299 30.7959 5.1507 31.4884 5.04006C32.2359 4.92923 33.2608 5.26153 33.4819 6.17529Z" fill="#000C0A"/>
<path d="M48.9629 9.96976C49.4337 11.3269 48.9629 12.5732 48.2979 13.6809C47.7442 14.7056 46.1934 15.5361 45.3623 15.3981C43.5348 15.0658 41.9833 13.9303 40.1836 12.8227L43.7564 6.36963C45.5842 7.36647 47.8273 7.94806 48.9629 9.96976Z" fill="white"/>
<path d="M46.8316 10.3022C46.9424 11.3268 46.4992 12.4623 45.5851 13.1271C44.6988 13.8193 42.8711 12.4623 42.8711 12.4623L44.8925 8.72363C45.6959 9.19433 46.61 9.41599 46.8316 10.3022Z" fill="#000C0A"/>
<path d="M10.163 16.3947C9.49815 17.1704 8.69503 17.8628 8.58439 18.8596C8.58439 19.1921 8.88874 19.6073 9.27649 19.5519C10.3846 18.6379 11.5198 16.7273 13.0984 17.1704C13.9014 17.1704 14.677 17.9735 14.8984 18.6378C15.3694 20.6595 13.9014 22.3768 12.5445 23.7059L11.2985 22.9305C12.2123 22.1273 13.5416 20.9091 12.9874 19.6627C11.2431 18.8041 10.9659 22.0167 9.16585 22.0167C8.36266 22.0167 7.28261 21.4627 7.00576 20.549C7.00576 20.549 6.89493 19.995 6.89493 19.6349C6.8673 18.998 7.14416 18.3056 7.44889 17.7241C7.78113 17.1704 8.14132 16.7272 8.14132 16.7272L9.16592 15.5918L10.163 16.3947ZM6.89499 18.3056C6.6457 18.3334 6.20257 18.3889 5.92578 18.4164C5.98116 18.2226 6.23039 17.6136 6.23039 17.6136L7.11666 17.4751L6.70109 16.7548C6.89493 16.4779 7.03332 16.1733 7.22742 15.8965L7.72568 16.8102L6.89499 18.3056ZM57.5195 19.746L51.9806 25.9215L50.9284 23.6783L52.2579 22.4042L50.7618 19.8291L49.0729 20.2165L47.7984 18.4164L55.9131 17.0593L57.5195 19.746Z" fill="white"/>
<path d="M53.1456 21.2689L52.1484 19.4689L55.5547 18.8042L53.1456 21.2689Z" fill="#000C0A"/>
<path d="M20.5193 56.7719L18.8301 55.6918L19.1902 54.5015L17.6667 53.3657L16.559 54.1138C16.116 53.726 15.7005 53.3383 15.2852 52.9507L19.6884 49.6821L21.9594 51.0394L20.5193 56.7719ZM47.3267 52.1752C47.7423 53.1166 47.4375 54.1137 46.7452 54.6674C45.859 55.5813 44.8344 56.135 43.5885 56.0247C42.4806 55.9132 41.5665 54.7777 41.2345 53.8919C41.0128 52.9778 41.0128 52.0081 41.6773 51.3999C42.5908 50.5961 43.4777 50.0697 44.7236 49.9321C45.859 49.9321 46.8839 51.1783 47.3267 52.1752Z" fill="white"/>
<path d="M19.6615 53.4212L18.6094 52.6731L20.1049 51.427L19.6615 53.4212ZM45.6387 53.006C45.9986 53.8089 45.6108 54.5568 44.7521 54.6945C43.5894 54.9163 43.2013 53.6428 42.8136 52.9777C42.4816 52.3126 42.9245 51.3997 43.7004 51.2882C44.8356 51.0666 45.1954 52.3411 45.6387 53.006Z" fill="#000C0A"/>
<path d="M26.4456 56.8004C26.418 57.3814 27.4981 57.7692 27.8857 57.1597C28.0241 56.7447 28.3843 54.6948 28.6059 53.4489C29.1872 53.5875 29.852 53.7262 30.2949 53.8375C30.1567 54.7778 30.0183 57.4087 28.8827 58.4067C28.1071 58.9878 26.8611 58.6557 26.058 58.4067C24.2577 57.769 24.5625 56.2739 24.5625 56.2739L25.3933 52.7847L27.1103 53.144L26.4456 56.8004ZM36.7754 54.4185L37.5786 58.4341L35.8062 58.7945L35.003 54.7505L33.6183 55.0825L33.3414 53.8639L37.9386 52.8394L38.271 54.0582L36.7754 54.4185Z" fill="white"/>
<path d="M35.3102 16.1177C40.1289 21.2965 42.7876 28.303 40.7105 35.7247C40.7105 35.7247 40.1011 37.4971 39.9351 38.2173C39.7964 38.9373 39.8242 39.491 39.8242 39.491C40.0454 39.9622 40.7656 40.1003 41.2368 39.9895C41.707 39.5188 40.8764 38.9097 41.3472 38.3282C43.6738 38.1065 45.6121 39.7406 47.3569 41.2636C45.834 43.1197 43.5352 44.8912 41.1812 44.3102C40.8492 43.8393 41.9287 43.2301 41.209 42.7594L24.0665 42.7311C23.5679 42.7594 22.6542 44.2273 22.1278 44.3659C21.3802 44.5318 20.134 44.5036 19.8017 44.3102C19.0814 43.5895 18.9154 42.4275 18.4448 41.5959C17.9738 40.5715 15.8413 39.519 16.2014 38.7436C16.3676 38.4667 20.4665 37.8574 23.0973 38.7987C24.0941 39.2421 25.119 40.1559 26.1712 39.8787C26.2264 39.8511 26.3097 39.8236 26.3651 39.6852C26.6419 36.4725 24.3158 32.9277 20.9093 31.2939C19.9122 30.823 19.1925 30.7121 18.223 30.7953C17.1984 30.8505 16.1183 30.9613 15.4262 30.4632C14.8444 30.02 14.9553 28.5244 15.3983 27.0567C15.6198 26.3922 15.9245 25.6719 16.2292 25.0907C17.6139 22.0441 21.9896 25.2842 22.5709 25.589C23.3189 25.9767 24.0941 26.8074 24.3158 25.7274C24.2603 25.0351 22.9034 24.3705 22.0172 23.8996C19.4139 22.5151 17.7523 22.8474 18.5831 21.2687C18.8324 20.7981 19.6629 19.718 20.7986 18.7486C21.9618 17.724 23.4292 16.7546 24.5095 16.6163C26.448 16.4225 28.525 19.1641 28.525 19.1641L30.99 21.9058C31.4609 22.1826 31.7375 21.8779 31.7929 21.6844C31.9314 21.2688 31.5439 20.8255 31.5439 20.8255C31.5439 20.8255 30.4085 19.4409 29.799 18.8318C29.2178 18.2225 27.5006 16.5887 27.5006 16.5887C26.8358 15.4256 28.0821 15.0655 28.7742 14.9545C31.0175 14.7328 33.4819 14.1238 35.3102 16.1177Z" fill="#009036"/>
<path d="M35.3663 38.5775C36.8063 38.5775 37.9699 37.4144 37.9699 35.9743C37.9699 34.5342 36.8063 33.3435 35.3663 33.3435C33.9265 33.3435 32.7634 34.5341 32.7634 35.9743C32.7634 37.4145 33.9265 38.5775 35.3663 38.5775ZM20.4396 10.1358C21.7689 10.9668 23.4303 11.5205 24.7599 12.4624L22.4889 13.5422L18.5012 11.4654L18.5566 7.22832L20.6059 6.14795C20.827 7.28376 20.4674 8.88969 20.4396 10.1358ZM18.8334 15.9519L14.707 9.7759L16.4241 8.55739L20.578 14.6502L18.8334 15.9519Z" fill="white"/>
</svg>
