<svg width="64" height="64" viewBox="0 0 64 64" fill="none" xmlns="http://www.w3.org/2000/svg">
<path fill-rule="evenodd" clip-rule="evenodd" d="M62.271 24.9112C61.5034 23.4016 60.4923 21.9547 59.2346 20.5979C56.4082 17.5473 52.4204 15.0088 47.7011 13.258C42.943 11.4936 37.516 10.5601 32.001 10.5601C26.486 10.5601 21.0589 11.4936 16.3033 13.258C11.5816 15.009 7.59358 17.5475 4.76717 20.5979C3.51027 21.9545 2.49597 23.4034 1.72852 24.9139C7.8724 23.4281 18.3819 21.4665 28.14 21.2591C29.0813 21.2389 29.7294 21.5403 30.1561 22.0812C30.6759 22.7398 30.6368 25.0875 30.6241 26.1378L30.3467 53.285C30.8962 53.3032 31.4484 53.3149 32.001 53.3149C32.5582 53.3149 33.1134 53.3058 33.663 53.2876L33.3856 26.1376C33.3712 25.0875 33.3309 22.7396 33.8525 22.081C34.2803 21.5403 34.9261 21.2389 35.8672 21.2589C45.6213 21.4647 56.1283 23.4267 62.271 24.9112Z" fill="#486AAE"/>
<path fill-rule="evenodd" clip-rule="evenodd" d="M63.5817 28.4415C54.5896 26.4087 48.5845 26.0327 42.6593 25.704C37.4945 25.4168 37.4272 27.2611 37.9427 30.7856C37.9765 31.0007 38.018 31.2718 38.0671 31.581C39.7995 41.8417 41.9568 50.6716 42.3275 52.1703C54.9188 49.2921 63.9993 41.3122 63.9993 31.9381C63.9993 30.7577 63.8567 29.5882 63.5817 28.4415Z" fill="#486AAE"/>
<path fill-rule="evenodd" clip-rule="evenodd" d="M26.0627 30.7856C26.5789 27.2613 26.5127 25.4168 21.3485 25.7039C15.4213 26.0327 9.41482 26.4085 0.419237 28.4427C0.144466 29.5894 0 30.7575 0 31.9379C0 35.9894 1.64822 39.9098 4.767 43.2781C7.59341 46.3287 11.5814 48.8672 16.3031 50.6192C18.012 51.2519 19.8154 51.7705 21.673 52.1853C22.0217 50.7813 24.2285 41.7677 25.9797 31.3234C26.0121 31.1233 26.0421 30.9385 26.0627 30.7856Z" fill="#486AAE"/>
</svg>
