<svg width="64" height="64" viewBox="0 0 64 64" fill="none" xmlns="http://www.w3.org/2000/svg">
<path fill-rule="evenodd" clip-rule="evenodd" d="M32 2C15.4313 2 2 15.4319 2 32C2 48.5684 15.4316 62 32 62C48.5678 62 62 48.5684 62 32C62 15.4322 48.5678 2 32 2ZM32 59.3102C16.9168 59.3102 4.68978 47.0832 4.68978 32C4.68978 16.9174 16.9168 4.6901 32 4.6901C47.0826 4.6901 59.3102 16.9174 59.3102 32C59.3102 47.0832 47.0826 59.3102 32 59.3102Z" fill="#001E50"/>
<path fill-rule="evenodd" clip-rule="evenodd" d="M26.0215 11.5968C27.9639 11.0297 29.9773 10.7428 32.0008 10.7446C34.0741 10.7446 36.0786 11.0416 37.9733 11.5952L32.0008 24.834L26.0215 11.5968Z" fill="#001E50"/>
<path fill-rule="evenodd" clip-rule="evenodd" d="M43.4072 14.062C45.6456 15.49 47.5985 17.3222 49.1662 19.465L39.3634 41.1577L35.5807 32.7465H28.4135L24.6311 41.1574L14.8424 19.4448C16.4072 17.3105 18.3547 15.4854 20.586 14.0623L28.4135 31.4274H35.6051L43.4072 14.062ZM11.4589 26.4981C10.9804 28.2927 10.7388 30.1422 10.7402 31.9995C10.7402 40.3299 15.5313 47.5404 22.5083 51.0268L11.4589 26.4981Z" fill="#001E50"/>
<path fill-rule="evenodd" clip-rule="evenodd" d="M26.1172 52.4328C28.0291 52.9813 30.0086 53.2586 31.9977 53.2567C34.0355 53.2567 36.0059 52.9697 37.8711 52.435L31.9977 39.3909L26.1172 52.4328ZM41.4855 51.0271C48.4628 47.5407 53.2539 40.3302 53.2539 31.9998C53.2539 30.1141 53.0082 28.2857 52.548 26.5449L41.4855 51.0271Z" fill="#001E50"/>
</svg>
