<svg width="40" height="40" viewBox="0 0 40 40" fill="none" xmlns="http://www.w3.org/2000/svg">
<path d="M3.33398 21.8333L7.50065 19.3333C10.0673 17.8 13.2673 17.8 15.834 19.3333C18.4007 20.8667 21.6007 20.8667 24.1673 19.3333C26.734 17.8 29.934 17.8 32.5007 19.3333L36.6673 21.8333" stroke="#FF5100" stroke-width="1.5" stroke-miterlimit="10" stroke-linecap="round" stroke-linejoin="round"/>
<path d="M3.33398 6.5L7.50065 9C10.0673 10.5333 13.2673 10.5333 15.834 9C18.4007 7.46667 21.6007 7.46667 24.1673 9C26.734 10.5333 29.934 10.5333 32.5007 9L36.6673 6.5" stroke="#FF5100" stroke-width="1.5" stroke-miterlimit="10" stroke-linecap="round" stroke-linejoin="round"/>
<path d="M3.33398 33.5L7.50065 31C10.0673 29.4666 13.2673 29.4666 15.834 31C18.4007 32.5333 21.6007 32.5333 24.1673 31C26.734 29.4666 29.934 29.4666 32.5007 31L36.6673 33.5" stroke="#FF5100" stroke-width="1.5" stroke-miterlimit="10" stroke-linecap="round" stroke-linejoin="round"/>
</svg>
