<svg width="40" height="40" viewBox="0 0 40 40" fill="none" xmlns="http://www.w3.org/2000/svg">
<path d="M21.6663 36.6666H8.33301C4.99967 36.6666 3.33301 34.9999 3.33301 31.6666V18.3333C3.33301 14.9999 4.99967 13.3333 8.33301 13.3333H16.6663V31.6666C16.6663 34.9999 18.333 36.6666 21.6663 36.6666Z" stroke="black" stroke-width="1.25" stroke-miterlimit="10" stroke-linecap="round" stroke-linejoin="round"/>
<path d="M16.8496 6.66699C16.7163 7.16699 16.6663 7.71699 16.6663 8.33366V13.3337H8.33301V10.0003C8.33301 8.16699 9.83301 6.66699 11.6663 6.66699H16.8496Z" stroke="black" stroke-width="1.25" stroke-miterlimit="10" stroke-linecap="round" stroke-linejoin="round"/>
<path d="M23.333 13.3333V21.6666" stroke="black" stroke-width="1.25" stroke-miterlimit="10" stroke-linecap="round" stroke-linejoin="round"/>
<path d="M30 13.3333V21.6666" stroke="black" stroke-width="1.25" stroke-miterlimit="10" stroke-linecap="round" stroke-linejoin="round"/>
<path d="M28.333 28.3333H24.9997C24.083 28.3333 23.333 29.0833 23.333 29.9999V36.6666H29.9997V29.9999C29.9997 29.0833 29.2497 28.3333 28.333 28.3333Z" stroke="black" stroke-width="1.25" stroke-miterlimit="10" stroke-linecap="round" stroke-linejoin="round"/>
<path d="M10 21.667V28.3337" stroke="black" stroke-width="1.25" stroke-miterlimit="10" stroke-linecap="round" stroke-linejoin="round"/>
<path d="M16.6665 31.6666V8.33325C16.6665 4.99992 18.3332 3.33325 21.6665 3.33325H31.6665C34.9998 3.33325 36.6665 4.99992 36.6665 8.33325V31.6666C36.6665 34.9999 34.9998 36.6666 31.6665 36.6666H21.6665C18.3332 36.6666 16.6665 34.9999 16.6665 31.6666Z" stroke="black" stroke-width="1.25" stroke-miterlimit="10" stroke-linecap="round" stroke-linejoin="round"/>
</svg>
