<svg width="40" height="40" viewBox="0 0 40 40" fill="none" xmlns="http://www.w3.org/2000/svg">
<path d="M11.1666 30.0002H6.91663C4.53329 30.0002 3.33325 28.8001 3.33325 26.4168V6.91687C3.33325 4.53354 4.53329 3.3335 6.91663 3.3335H14.0833C16.4666 3.3335 17.6665 4.53354 17.6665 6.91687V10.0002" stroke="#292D32" stroke-width="1.25" stroke-miterlimit="10" stroke-linecap="round" stroke-linejoin="round"/>
<path d="M28.9498 14.0333V32.6334C28.9498 35.3167 27.6165 36.6667 24.9332 36.6667H15.1998C12.5165 36.6667 11.1665 35.3167 11.1665 32.6334V14.0333C11.1665 11.35 12.5165 10 15.1998 10H24.9332C27.6165 10 28.9498 11.35 28.9498 14.0333Z" stroke="#292D32" stroke-width="1.25" stroke-miterlimit="10" stroke-linecap="round" stroke-linejoin="round"/>
<path d="M22.333 10.0002V6.91687C22.333 4.53354 23.5329 3.3335 25.9163 3.3335H33.0829C35.4663 3.3335 36.6663 4.53354 36.6663 6.91687V26.4168C36.6663 28.8001 35.4663 30.0002 33.0829 30.0002H28.9496" stroke="#292D32" stroke-width="1.25" stroke-miterlimit="10" stroke-linecap="round" stroke-linejoin="round"/>
<path d="M16.6665 18.3335H23.3332" stroke="#292D32" stroke-width="1.25" stroke-miterlimit="10" stroke-linecap="round" stroke-linejoin="round"/>
<path d="M16.6665 23.3335H23.3332" stroke="#292D32" stroke-width="1.25" stroke-miterlimit="10" stroke-linecap="round" stroke-linejoin="round"/>
<path d="M19.9998 36.667V31.667" stroke="#292D32" stroke-width="1.25" stroke-miterlimit="10" stroke-linecap="round" stroke-linejoin="round"/>
</svg>
