<svg width="40" height="40" viewBox="0 0 40 40" fill="none" xmlns="http://www.w3.org/2000/svg">
<path d="M15.2668 18.1168C15.1001 18.1002 14.9001 18.1002 14.7168 18.1168C10.7501 17.9835 7.6001 14.7335 7.6001 10.7335C7.6001 6.65016 10.9001 3.3335 15.0001 3.3335C19.0834 3.3335 22.4001 6.65016 22.4001 10.7335C22.3834 14.7335 19.2334 17.9835 15.2668 18.1168Z" stroke="black" stroke-width="1.25" stroke-linecap="round" stroke-linejoin="round"/>
<path d="M27.35 6.66699C30.5833 6.66699 33.1833 9.28366 33.1833 12.5003C33.1833 15.6503 30.6833 18.217 27.5666 18.3337C27.4333 18.317 27.2833 18.317 27.1333 18.3337" stroke="black" stroke-width="1.25" stroke-linecap="round" stroke-linejoin="round"/>
<path d="M6.9332 24.267C2.89987 26.967 2.89987 31.367 6.9332 34.0503C11.5165 37.117 19.0332 37.117 23.6165 34.0503C27.6499 31.3503 27.6499 26.9503 23.6165 24.267C19.0499 21.217 11.5332 21.217 6.9332 24.267Z" stroke="black" stroke-width="1.25" stroke-linecap="round" stroke-linejoin="round"/>
<path d="M30.5667 33.3335C31.7667 33.0835 32.9 32.6002 33.8333 31.8835C36.4333 29.9335 36.4333 26.7168 33.8333 24.7668C32.9166 24.0668 31.8 23.6002 30.6167 23.3335" stroke="black" stroke-width="1.25" stroke-linecap="round" stroke-linejoin="round"/>
</svg>
