<svg width="1200" height="12" viewBox="0 0 1200 12" fill="none" xmlns="http://www.w3.org/2000/svg">
<line y1="6.2" x2="1200" y2="6.2" stroke="#72777F" stroke-width="0.6"/>
<line x1="0.5" y1="2.18561e-08" x2="0.499999" y2="12" stroke="black"/>
<line x1="31.1374" y1="3" x2="31.1374" y2="9" stroke="#72777F" stroke-width="0.6"/>
<line x1="61.9749" y1="3" x2="61.9749" y2="9" stroke="#72777F" stroke-width="0.6"/>
<line x1="92.8123" y1="3" x2="92.8123" y2="9" stroke="#72777F" stroke-width="0.6"/>
<line x1="123.65" y1="3" x2="123.65" y2="9" stroke="#72777F" stroke-width="0.6"/>
<line x1="154.487" y1="3" x2="154.487" y2="9" stroke="#72777F" stroke-width="0.6"/>
<line x1="185.325" y1="3" x2="185.325" y2="9" stroke="#72777F" stroke-width="0.6"/>
<line x1="216.162" y1="3" x2="216.162" y2="9" stroke="#72777F" stroke-width="0.6"/>
<line x1="247" y1="3" x2="247" y2="9" stroke="#72777F" stroke-width="0.6"/>
<line x1="277.837" y1="3" x2="277.837" y2="9" stroke="#72777F" stroke-width="0.6"/>
<line x1="307.987" y1="2.18561e-08" x2="307.987" y2="12" stroke="black"/>
<line x1="338.624" y1="3" x2="338.624" y2="9" stroke="#72777F" stroke-width="0.6"/>
<line x1="369.462" y1="3" x2="369.462" y2="9" stroke="#72777F" stroke-width="0.6"/>
<line x1="400.299" y1="3" x2="400.299" y2="9" stroke="#72777F" stroke-width="0.6"/>
<line x1="431.137" y1="3" x2="431.137" y2="9" stroke="#72777F" stroke-width="0.6"/>
<line x1="461.974" y1="3" x2="461.974" y2="9" stroke="#72777F" stroke-width="0.6"/>
<line x1="492.812" y1="3" x2="492.812" y2="9" stroke="#72777F" stroke-width="0.6"/>
<line x1="523.649" y1="3" x2="523.649" y2="9" stroke="#72777F" stroke-width="0.6"/>
<line x1="554.487" y1="3" x2="554.487" y2="9" stroke="#72777F" stroke-width="0.6"/>
<line x1="585.324" y1="3" x2="585.324" y2="9" stroke="#72777F" stroke-width="0.6"/>
<line x1="614.476" y1="2.18561e-08" x2="614.476" y2="12" stroke="black"/>
<line x1="645.113" y1="3" x2="645.113" y2="9" stroke="#72777F" stroke-width="0.6"/>
<line x1="675.951" y1="3" x2="675.951" y2="9" stroke="#72777F" stroke-width="0.6"/>
<line x1="706.788" y1="3" x2="706.788" y2="9" stroke="#72777F" stroke-width="0.6"/>
<line x1="737.626" y1="3" x2="737.626" y2="9" stroke="#72777F" stroke-width="0.6"/>
<line x1="768.463" y1="3" x2="768.463" y2="9" stroke="#72777F" stroke-width="0.6"/>
<line x1="799.3" y1="3" x2="799.3" y2="9" stroke="#72777F" stroke-width="0.6"/>
<line x1="830.138" y1="3" x2="830.138" y2="9" stroke="#72777F" stroke-width="0.6"/>
<line x1="860.976" y1="3" x2="860.976" y2="9" stroke="#72777F" stroke-width="0.6"/>
<line x1="891.813" y1="3" x2="891.813" y2="9" stroke="#72777F" stroke-width="0.6"/>
<line x1="921.963" y1="2.18561e-08" x2="921.963" y2="12" stroke="black"/>
<line x1="952.6" y1="3" x2="952.6" y2="9" stroke="#72777F" stroke-width="0.6"/>
<line x1="983.438" y1="3" x2="983.438" y2="9" stroke="#72777F" stroke-width="0.6"/>
<line x1="1014.28" y1="3" x2="1014.28" y2="9" stroke="#72777F" stroke-width="0.6"/>
<line x1="1045.11" y1="3" x2="1045.11" y2="9" stroke="#72777F" stroke-width="0.6"/>
<line x1="1075.95" y1="3" x2="1075.95" y2="9" stroke="#72777F" stroke-width="0.6"/>
<line x1="1106.79" y1="3" x2="1106.79" y2="9" stroke="#72777F" stroke-width="0.6"/>
<line x1="1137.62" y1="3" x2="1137.62" y2="9" stroke="#72777F" stroke-width="0.6"/>
<line x1="1168.46" y1="3" x2="1168.46" y2="9" stroke="#72777F" stroke-width="0.6"/>
<line x1="1199.5" y1="2.18561e-08" x2="1199.5" y2="12" stroke="black"/>
</svg>
