<svg width="40" height="40" viewBox="0 0 40 40" fill="none" xmlns="http://www.w3.org/2000/svg">
<path d="M24.2502 3.3335H15.7502C12.7502 3.3335 12.0835 4.83351 11.7002 6.68351L10.3335 13.2168H29.6668L28.3002 6.68351C27.9168 4.83351 27.2502 3.3335 24.2502 3.3335Z" stroke="black" stroke-width="1.25" stroke-linecap="round" stroke-linejoin="round"/>
<path d="M32.0669 23.8669C32.2003 25.2836 31.0669 26.5003 29.6169 26.5003H27.3503C26.0503 26.5003 25.8669 25.9503 25.6336 25.2503L25.3836 24.5335C25.0502 23.5502 24.8336 22.8835 23.0836 22.8835H16.9003C15.1669 22.8835 14.9002 23.6335 14.6002 24.5335L14.3503 25.2503C14.1169 25.9336 13.9336 26.5003 12.6336 26.5003H10.3669C8.91692 26.5003 7.78359 25.2836 7.91692 23.8669L8.60026 16.5003C8.76693 14.6836 9.11691 13.2002 12.2836 13.2002H27.7002C30.8669 13.2002 31.2169 14.6836 31.3836 16.5003L32.0669 23.8669Z" stroke="black" stroke-width="1.25" stroke-linecap="round" stroke-linejoin="round"/>
<path d="M10.3334 9.5835H9.1167" stroke="black" stroke-width="1.25" stroke-linecap="round" stroke-linejoin="round"/>
<path d="M30.8834 9.5835H29.6667" stroke="black" stroke-width="1.25" stroke-linecap="round" stroke-linejoin="round"/>
<path d="M12.75 18.0503H16.3667" stroke="black" stroke-width="1.25" stroke-linecap="round" stroke-linejoin="round"/>
<path d="M23.6333 18.0503H27.25" stroke="black" stroke-width="1.25" stroke-linecap="round" stroke-linejoin="round"/>
<path d="M20 28.3335V30.0002" stroke="black" stroke-width="1.25" stroke-linecap="round" stroke-linejoin="round"/>
<path d="M20 35V36.6667" stroke="black" stroke-width="1.25" stroke-linecap="round" stroke-linejoin="round"/>
<path d="M5.00016 30L3.3335 36.6667" stroke="black" stroke-width="1.25" stroke-linecap="round" stroke-linejoin="round"/>
<path d="M35 30L36.6667 36.6667" stroke="black" stroke-width="1.25" stroke-linecap="round" stroke-linejoin="round"/>
</svg>
