<svg width="227" height="188" viewBox="0 0 227 188" fill="none" xmlns="http://www.w3.org/2000/svg">
<path d="M131.544 49.02C131.544 71.196 118.44 81.276 103.572 86.316V86.82C122.472 90.096 138.6 104.46 138.6 131.424C138.6 164.688 114.912 183.84 77.616 183.84H0V3.66H72.576C109.368 3.66 131.544 21.048 131.544 49.02ZM22.68 79.008H76.104C101.808 79.008 108.864 67.92 108.864 51.54C108.864 35.16 99.288 23.82 78.624 23.82H22.68V79.008ZM22.68 99.168V163.68H79.884C108.864 163.68 115.92 148.308 115.92 131.424C115.92 112.02 103.824 99.168 84.924 99.168H22.68Z" fill="black"/>
<path d="M138.6 93.3742C138.6 147.486 173.1 187.5 226.689 187.5V166.865C181.386 166.865 161.251 132.133 161.251 93.3742C161.251 54.6151 182.189 22 226.689 20.5V0C173.836 0 138.6 39.2625 138.6 93.3742Z" fill="black"/>
</svg>
