<svg width="218" height="220" viewBox="0 0 218 220" fill="none" xmlns="http://www.w3.org/2000/svg">
<path d="M149.352 65.18C149.352 87.356 136.248 97.436 121.38 102.476V102.98C140.28 106.256 156.408 120.62 156.408 147.584C156.408 180.848 132.72 200 95.4238 200H17.8078V19.82H90.3838C127.176 19.82 149.352 37.208 149.352 65.18ZM40.4878 95.168H93.9118C119.616 95.168 126.672 84.08 126.672 67.7C126.672 51.32 117.096 39.98 96.4318 39.98H40.4878V95.168ZM40.4878 115.328V179.84H97.6918C126.672 179.84 133.728 164.468 133.728 147.584C133.728 128.18 121.632 115.328 102.732 115.328H40.4878Z" fill="black"/>
<path d="M199.708 0.12793H217.348C200.212 30.6199 186.604 63.8839 186.604 110.504C186.604 156.116 200.212 189.38 217.348 219.872H199.708C180.052 194.42 163.924 156.116 163.924 110.504C163.924 63.3799 180.052 25.5799 199.708 0.12793Z" fill="black"/>
</svg>
