<svg width="1208" height="188" viewBox="0 0 1208 188" fill="none" xmlns="http://www.w3.org/2000/svg">
<path d="M88.7778 93.3742C88.7778 147.486 54.2778 187.5 0.688965 187.5V166.865C45.9918 166.865 66.1264 132.133 66.1264 93.3742C66.1264 54.6151 45.189 22 0.688965 20.5V0C53.5423 0 88.7778 39.2625 88.7778 93.3742Z" fill="black"/>
<path d="M92.7778 3.66H115.458V163.68H209.958V183.84H92.7778V3.66Z" fill="black"/>
<path d="M222.233 3.66H244.913V163.68H339.413V183.84H222.233V3.66Z" fill="black"/>
<path d="M310.746 3.66H335.19L387.354 91.86H387.858L440.274 3.66H464.718L398.946 110.004V183.84H376.266V110.004L310.746 3.66Z" fill="black"/>
<path d="M463.112 3.66H487.052L521.323 151.332H521.828L562.147 3.66H587.347L627.667 151.332H628.171L662.443 3.66H686.383L641.779 183.84H616.579L575 29.364H574.495L532.915 183.84H507.716L463.112 3.66Z" fill="black"/>
<path d="M770.498 187.368C717.578 187.368 682.298 147.804 682.298 93.624C682.298 39.444 717.578 0.131996 770.498 0.131996C823.418 0.131996 858.698 39.444 858.698 93.624C858.698 147.804 823.418 187.368 770.498 187.368ZM770.498 167.208C815.858 167.208 836.018 132.432 836.018 93.624C836.018 54.816 815.858 20.292 770.498 20.292C725.138 20.292 704.978 54.816 704.978 93.624C704.978 132.432 725.138 167.208 770.498 167.208Z" fill="black"/>
<path d="M957.047 187.368C904.127 187.368 868.847 147.804 868.847 93.624C868.847 39.444 904.127 0.131996 957.047 0.131996C1009.97 0.131996 1045.25 39.444 1045.25 93.624C1045.25 147.804 1009.97 187.368 957.047 187.368ZM957.047 167.208C1002.41 167.208 1022.57 132.432 1022.57 93.624C1022.57 54.816 1002.41 20.292 957.047 20.292C911.687 20.292 891.527 54.816 891.527 93.624C891.527 132.432 911.687 167.208 957.047 167.208Z" fill="black"/>
<path d="M1062.2 183.84V3.66H1127.47C1177.11 3.66 1207.6 35.916 1207.6 93.876C1207.6 151.836 1177.11 183.84 1127.47 183.84H1062.2ZM1084.88 23.82V163.68H1127.47C1173.33 163.68 1184.92 129.156 1184.92 93.876C1184.92 58.596 1173.33 23.82 1127.47 23.82H1084.88Z" fill="black"/>
</svg>
