<svg width="1220" height="220" viewBox="0 0 1220 220" fill="none" xmlns="http://www.w3.org/2000/svg">
<path d="M25.9877 0.12793C45.6437 25.5799 61.7717 63.3799 61.7717 110.504C61.7717 156.116 45.6437 194.42 25.9877 219.872H8.34766C25.4837 189.38 39.0917 156.116 39.0917 110.504C39.0917 63.8839 25.4837 30.6199 8.34766 0.12793H25.9877Z" fill="black"/>
<path d="M86.6555 19.82H109.335V179.84H203.835V200H86.6555V19.82ZM216.111 19.82H238.791V179.84H333.291V200H216.111V19.82ZM304.624 19.82H329.068L381.232 108.02H381.736L434.152 19.82H458.596L392.824 126.164V200H370.144V126.164L304.624 19.82ZM456.989 19.82H480.929L515.201 167.492H515.705L556.025 19.82H581.225L621.545 167.492H622.049L656.321 19.82H680.261L635.657 200H610.457L568.877 45.524H568.373L526.793 200H501.593L456.989 19.82ZM764.376 203.528C711.456 203.528 676.176 163.964 676.176 109.784C676.176 55.604 711.456 16.292 764.376 16.292C817.296 16.292 852.576 55.604 852.576 109.784C852.576 163.964 817.296 203.528 764.376 203.528ZM764.376 183.368C809.736 183.368 829.896 148.592 829.896 109.784C829.896 70.976 809.736 36.452 764.376 36.452C719.016 36.452 698.856 70.976 698.856 109.784C698.856 148.592 719.016 183.368 764.376 183.368ZM950.925 203.528C898.005 203.528 862.725 163.964 862.725 109.784C862.725 55.604 898.005 16.292 950.925 16.292C1003.84 16.292 1039.12 55.604 1039.12 109.784C1039.12 163.964 1003.84 203.528 950.925 203.528ZM950.925 183.368C996.285 183.368 1016.44 148.592 1016.44 109.784C1016.44 70.976 996.285 36.452 950.925 36.452C905.565 36.452 885.405 70.976 885.405 109.784C885.405 148.592 905.565 183.368 950.925 183.368ZM1056.08 200V19.82H1121.35C1170.99 19.82 1201.48 52.076 1201.48 110.036C1201.48 167.996 1170.99 200 1121.35 200H1056.08ZM1078.76 39.98V179.84H1121.35C1167.21 179.84 1178.8 145.316 1178.8 110.036C1178.8 74.756 1167.21 39.98 1121.35 39.98H1078.76Z" fill="black"/>
</svg>
