<svg width="40" height="40" viewBox="0 0 40 40" fill="none" xmlns="http://www.w3.org/2000/svg">
<path d="M3.33203 14.9997V11.6663C3.33203 6.66634 6.66536 3.33301 11.6654 3.33301H28.332C33.332 3.33301 36.6654 6.66634 36.6654 11.6663V14.9997" stroke="#00B74B" stroke-width="1.5" stroke-miterlimit="10" stroke-linecap="round" stroke-linejoin="round"/>
<path d="M3.33203 25V28.3333C3.33203 33.3333 6.66536 36.6667 11.6654 36.6667H28.332C33.332 36.6667 36.6654 33.3333 36.6654 28.3333V25" stroke="#00B74B" stroke-width="1.5" stroke-miterlimit="10" stroke-linecap="round" stroke-linejoin="round"/>
<path d="M11.168 15.4336L20.0013 20.5503L28.768 15.467" stroke="#00B74B" stroke-width="1.5" stroke-linecap="round" stroke-linejoin="round"/>
<path d="M20 29.6166V20.5332" stroke="#00B74B" stroke-width="1.5" stroke-linecap="round" stroke-linejoin="round"/>
<path d="M17.9318 10.4836L12.5984 13.4503C11.3984 14.117 10.3984 15.8003 10.3984 17.1836V22.8337C10.3984 24.217 11.3818 25.9003 12.5984 26.567L17.9318 29.5336C19.0651 30.1669 20.9318 30.1669 22.0818 29.5336L27.4151 26.567C28.6151 25.9003 29.6151 24.217 29.6151 22.8337V17.1836C29.6151 15.8003 28.6318 14.117 27.4151 13.4503L22.0818 10.4836C20.9318 9.83359 19.0651 9.83359 17.9318 10.4836Z" stroke="#00B74B" stroke-width="1.5" stroke-linecap="round" stroke-linejoin="round"/>
</svg>
