<svg width="572" height="389" viewBox="0 0 572 389" fill="none" xmlns="http://www.w3.org/2000/svg">
<g id="Infrastructure">
<g id="Pie chart">
<path id="Fullsegment" d="M566.307 199.374C566.307 174.513 561.411 149.897 551.897 126.929C542.383 103.961 528.439 83.0919 510.86 65.5132C493.282 47.9344 472.413 33.9901 449.445 24.4765C426.477 14.9629 401.86 10.0664 377 10.0664C352.14 10.0664 327.523 14.9629 304.555 24.4765C281.587 33.9901 260.718 47.9344 243.14 65.5132C225.561 83.092 211.617 103.961 202.103 126.929C192.589 149.897 187.693 174.513 187.693 199.374C187.693 224.234 192.589 248.85 202.103 271.818C211.617 294.786 225.561 315.655 243.14 333.234C260.718 350.813 281.588 364.757 304.555 374.271C327.523 383.784 352.14 388.681 377 388.681C401.86 388.681 426.477 383.784 449.445 374.271C472.413 364.757 493.282 350.813 510.86 333.234C528.439 315.655 542.383 294.786 551.897 271.818C561.411 248.85 566.307 224.234 566.307 199.374L566.307 199.374Z" stroke="url(#paint0_linear_245_1822)" stroke-width="1.38567"/>
<path id="Fullsegment_2" d="M423.609 315.551C420.792 309.43 416.797 303.924 411.853 299.347C406.908 294.771 401.11 291.212 394.791 288.876C388.471 286.54 381.753 285.471 375.02 285.731C368.287 285.991 361.672 287.575 355.551 290.391C349.43 293.208 343.924 297.203 339.347 302.147C334.77 307.092 331.212 312.89 328.876 319.209C326.54 325.529 325.471 332.247 325.731 338.98C325.991 345.712 327.574 352.328 330.391 358.449C333.208 364.57 337.203 370.076 342.147 374.653C347.092 379.229 352.889 382.788 359.209 385.124C365.529 387.46 372.247 388.529 378.98 388.269C385.712 388.009 392.328 386.425 398.449 383.609C404.569 380.792 410.075 376.797 414.652 371.853C419.229 366.908 422.788 361.11 425.124 354.791C427.46 348.471 428.529 341.753 428.269 335.02C428.009 328.288 426.425 321.672 423.609 315.551L423.609 315.551Z" stroke="url(#paint1_linear_245_1822)" stroke-width="1.38567"/>
<path id="Fullsegment_3" d="M417.093 238.417C407.955 233.152 397.87 229.738 387.413 228.371C376.956 227.003 366.332 227.709 356.147 230.447C345.963 233.186 336.418 237.903 328.057 244.331C319.695 250.758 312.682 258.769 307.417 267.907C302.152 277.045 298.738 287.13 297.371 297.587C296.003 308.044 296.709 318.668 299.447 328.852C302.186 339.037 306.903 348.582 313.33 356.943C319.758 365.304 327.769 372.318 336.907 377.583C346.045 382.848 356.13 386.262 366.587 387.629C377.044 388.997 387.668 388.291 397.852 385.553C408.037 382.814 417.582 378.097 425.943 371.669C434.304 365.242 441.318 357.231 446.583 348.093C451.848 338.955 455.262 328.87 456.629 318.413C457.997 307.956 457.291 297.332 454.553 287.148C451.814 276.963 447.097 267.418 440.669 259.057C434.242 250.696 426.231 243.682 417.093 238.417L417.093 238.417Z" stroke="url(#paint2_linear_245_1822)" stroke-width="1.38567"/>
<path id="Fullsegment_4" d="M441.183 195.004C429.89 186.575 417.048 180.454 403.389 176.988C389.73 173.523 375.522 172.782 361.576 174.807C347.631 176.833 334.221 181.585 322.112 188.793C310.003 196.001 299.433 205.523 291.004 216.816C282.575 228.11 276.453 240.952 272.988 254.611C269.523 268.27 268.782 282.478 270.807 296.424C272.832 310.369 277.585 323.779 284.793 335.888C292.001 347.997 301.523 358.567 312.816 366.996C324.109 375.425 336.952 381.546 350.611 385.012C364.27 388.477 378.478 389.218 392.424 387.193C406.369 385.167 419.779 380.415 431.888 373.207C443.997 365.999 454.567 356.477 462.996 345.184C471.425 333.89 477.546 321.048 481.012 307.389C484.477 293.73 485.218 279.522 483.193 265.576C481.167 251.631 476.415 238.221 469.207 226.112C461.999 214.003 452.477 203.433 441.183 195.004L441.183 195.004Z" stroke="url(#paint3_linear_245_1822)" stroke-width="1.38567"/>
<path id="Fullsegment_5" d="M496.22 189.011C487.817 173.355 476.413 159.507 462.658 148.259C448.903 137.01 433.067 128.58 416.055 123.452C399.042 118.323 381.186 116.595 363.506 118.367C345.826 120.139 328.668 125.377 313.011 133.78C297.355 142.183 283.507 153.587 272.259 167.342C261.01 181.097 252.58 196.933 247.452 213.945C242.323 230.958 240.595 248.814 242.367 266.494C244.139 284.174 249.377 301.332 257.78 316.989C266.183 332.645 277.587 346.493 291.342 357.741C305.097 368.99 320.933 377.42 337.945 382.548C354.958 387.677 372.814 389.405 390.494 387.633C408.174 385.861 425.332 380.623 440.989 372.22C456.645 363.817 470.493 352.413 481.741 338.658C492.99 324.903 501.42 309.067 506.548 292.055C511.677 275.042 513.405 257.186 511.633 239.506C509.861 221.826 504.623 204.668 496.22 189.011L496.22 189.011Z" stroke="url(#paint4_linear_245_1822)" stroke-width="1.38567"/>
<path id="Fullsegment_6" d="M536.647 196.735C532.804 175.77 524.869 155.767 513.295 137.868C501.722 119.97 486.736 104.526 469.194 92.419C451.652 80.3119 431.897 71.7785 411.057 67.3061C390.217 62.8337 368.7 62.5098 347.735 66.353C326.77 70.1961 306.767 78.131 288.868 89.7047C270.97 101.278 255.526 116.264 243.419 133.806C231.312 151.348 222.778 171.103 218.306 191.943C213.834 212.783 213.51 234.3 217.353 255.265C221.196 276.23 229.131 296.233 240.705 314.132C252.278 332.03 267.264 347.474 284.806 359.581C302.348 371.688 322.103 380.221 342.943 384.694C363.783 389.166 385.3 389.49 406.265 385.647C427.23 381.804 447.233 373.869 465.132 362.295C483.03 350.722 498.474 335.736 510.581 318.194C522.688 300.652 531.221 280.897 535.694 260.057C540.166 239.217 540.49 217.7 536.647 196.735L536.647 196.735Z" stroke="url(#paint5_linear_245_1822)" stroke-width="1.38567"/>
<path id="segment" d="M536.48 301.481C554.766 272.932 565.05 239.997 566.257 206.116C567.465 172.234 559.551 138.65 543.344 108.873C527.136 79.095 503.229 54.2162 474.12 36.8357C445.011 19.4551 411.769 10.2107 377.867 10.068" stroke="#215CFF" stroke-width="1.38567"/>
<path id="segment_2" d="M539.302 227.28C539.47 205.967 535.439 184.828 527.438 165.073C519.437 145.317 507.623 127.331 492.67 112.14C477.718 96.9504 459.92 84.8542 440.293 76.5424C420.666 68.2306 399.594 63.866 378.28 63.6979" stroke="#039C6D" stroke-width="1.38567"/>
<path id="segment_3" d="M486.877 174.037C474.416 156.698 458.028 142.553 439.053 132.761C420.078 122.968 399.054 117.805 377.702 117.695" stroke="#EE0032" stroke-width="1.38567"/>
<path id="segment_4" d="M440.507 194.503C422.241 181.092 400.198 173.808 377.537 173.694" stroke="#FF5100" stroke-width="1.38567"/>
<path id="segment_5" d="M420.608 240.564C407.812 232.289 392.925 227.826 377.686 227.696" stroke="#6C4FFF" stroke-width="1.38567"/>
<path id="segment_6" d="M399.756 291.016C392.988 287.666 385.562 285.852 378.011 285.703" stroke="#E300D4" stroke-width="1.38567"/>
</g>
<g id="Frame 6451">
<g id="Share in India&#226;&#128;&#153;s Output">
<path id="Real Estate and Construction" d="M68.8166 18V3.7H74.6166C77.4366 3.7 79.3366 5.22 79.3366 7.76C79.3366 9.82 78.3566 10.96 76.7766 11.36V11.4C79.9566 12.02 78.7966 17.64 79.5366 17.88V18H77.5966C76.9766 17.4 78.3366 12.22 74.7166 12.22H70.6166V18H68.8166ZM70.6166 5.3V10.62H74.1966C75.6766 10.62 77.5366 10.44 77.5366 7.96C77.5366 5.48 75.6766 5.3 74.1966 5.3H70.6166ZM85.4752 16.88C87.5152 16.88 88.2752 15.56 88.4552 14.86H90.0552C89.5352 16.76 88.0752 18.28 85.5352 18.28C82.4352 18.28 80.5552 16.1 80.5552 12.9C80.5552 9.5 82.4752 7.52 85.4552 7.52C88.6552 7.52 90.2152 9.7 90.2152 13.32H82.1552C82.1552 15.16 83.2552 16.88 85.4752 16.88ZM85.4552 8.92C83.5352 8.92 82.1552 10.28 82.1552 11.92H88.6152C88.6152 10.28 87.3752 8.92 85.4552 8.92ZM98.0392 10.4C98.0392 9.6 97.5992 8.92 95.9592 8.92C94.0192 8.92 93.3792 9.48 93.2792 10.96H91.6792C91.7792 9 92.9992 7.52 95.9592 7.52C97.8992 7.52 99.6392 8.28 99.6392 10.74V15.7C99.6392 16.5 99.7792 16.94 100.799 16.82V17.94C100.379 18.08 100.159 18.1 99.8592 18.1C98.8992 18.1 98.3192 17.84 98.0392 16.72H97.9992C97.3592 17.68 96.2192 18.28 94.5392 18.28C92.4792 18.28 91.1792 17.1 91.1792 15.38C91.1792 13.06 92.8992 12.46 95.5392 11.96C97.2592 11.64 98.0392 11.42 98.0392 10.4ZM94.6992 16.88C96.5992 16.88 98.0392 16.02 98.0392 14.06V12.36C97.7392 12.66 96.7592 12.94 95.6792 13.16C93.6992 13.58 92.7792 14.08 92.7792 15.3C92.7792 16.3 93.3792 16.88 94.6992 16.88ZM102.055 3.7H103.655V18H102.055V3.7ZM111.964 9.8H119.304V11.4H111.964V16.4H120.504V18H110.164V3.7H120.264V5.3H111.964V9.8ZM126.31 11.94C128.13 12.38 130.19 12.68 130.19 15.2C130.19 17.06 128.49 18.28 126.17 18.28C123.05 18.28 121.61 16.8 121.51 14.6H123.11C123.21 15.74 123.61 16.88 126.17 16.88C127.91 16.88 128.59 15.98 128.59 15.3C128.59 13.82 127.25 13.74 125.79 13.38C124.23 13 121.91 12.82 121.91 10.42C121.91 8.82 123.33 7.52 125.73 7.52C128.27 7.52 129.63 8.96 129.79 10.72H128.19C128.03 9.94 127.65 8.92 125.73 8.92C124.29 8.92 123.51 9.5 123.51 10.3C123.51 11.5 124.89 11.6 126.31 11.94ZM135.985 9.2H133.985V15.34C133.985 16.5 134.625 16.7 135.985 16.6V18C135.625 18.08 135.205 18.12 134.785 18.12C133.425 18.12 132.385 17.58 132.385 15.5V9.2H130.885V7.8H132.385V4.4H133.985V7.8H135.985V9.2ZM143.899 10.4C143.899 9.6 143.459 8.92 141.819 8.92C139.879 8.92 139.239 9.48 139.139 10.96H137.539C137.639 9 138.859 7.52 141.819 7.52C143.759 7.52 145.499 8.28 145.499 10.74V15.7C145.499 16.5 145.639 16.94 146.659 16.82V17.94C146.239 18.08 146.019 18.1 145.719 18.1C144.759 18.1 144.179 17.84 143.899 16.72H143.859C143.219 17.68 142.079 18.28 140.399 18.28C138.339 18.28 137.039 17.1 137.039 15.38C137.039 13.06 138.759 12.46 141.399 11.96C143.119 11.64 143.899 11.42 143.899 10.4ZM140.559 16.88C142.459 16.88 143.899 16.02 143.899 14.06V12.36C143.599 12.66 142.619 12.94 141.539 13.16C139.559 13.58 138.639 14.08 138.639 15.3C138.639 16.3 139.239 16.88 140.559 16.88ZM152.099 9.2H150.099V15.34C150.099 16.5 150.739 16.7 152.099 16.6V18C151.739 18.08 151.319 18.12 150.899 18.12C149.539 18.12 148.499 17.58 148.499 15.5V9.2H146.999V7.8H148.499V4.4H150.099V7.8H152.099V9.2ZM158.014 16.88C160.054 16.88 160.814 15.56 160.994 14.86H162.594C162.074 16.76 160.614 18.28 158.074 18.28C154.974 18.28 153.094 16.1 153.094 12.9C153.094 9.5 155.014 7.52 157.994 7.52C161.194 7.52 162.754 9.7 162.754 13.32H154.694C154.694 15.16 155.794 16.88 158.014 16.88ZM157.994 8.92C156.074 8.92 154.694 10.28 154.694 11.92H161.154C161.154 10.28 159.914 8.92 157.994 8.92ZM174.582 10.4C174.582 9.6 174.142 8.92 172.502 8.92C170.562 8.92 169.922 9.48 169.822 10.96H168.222C168.322 9 169.542 7.52 172.502 7.52C174.442 7.52 176.182 8.28 176.182 10.74V15.7C176.182 16.5 176.322 16.94 177.342 16.82V17.94C176.922 18.08 176.702 18.1 176.402 18.1C175.442 18.1 174.862 17.84 174.582 16.72H174.542C173.902 17.68 172.762 18.28 171.082 18.28C169.022 18.28 167.722 17.1 167.722 15.38C167.722 13.06 169.442 12.46 172.082 11.96C173.802 11.64 174.582 11.42 174.582 10.4ZM171.242 16.88C173.142 16.88 174.582 16.02 174.582 14.06V12.36C174.282 12.66 173.302 12.94 172.222 13.16C170.242 13.58 169.322 14.08 169.322 15.3C169.322 16.3 169.922 16.88 171.242 16.88ZM183.538 7.52C185.398 7.52 186.958 8.54 186.958 10.88V18H185.358V11.28C185.358 9.96 184.738 8.92 183.138 8.92C181.338 8.92 180.138 10.06 180.138 11.64V18H178.538V7.8H180.138V9.02H180.178C180.718 8.3 181.798 7.52 183.538 7.52ZM196.364 3.7H197.964V18H196.364V16.74H196.324C195.724 17.52 194.764 18.28 193.124 18.28C190.564 18.28 188.524 16.26 188.524 12.9C188.524 9.54 190.564 7.52 193.124 7.52C194.764 7.52 195.724 8.24 196.324 9.12H196.364V3.7ZM193.284 16.88C195.184 16.88 196.364 15.3 196.364 12.9C196.364 10.5 195.184 8.92 193.284 8.92C191.184 8.92 190.124 10.9 190.124 12.9C190.124 14.9 191.184 16.88 193.284 16.88ZM214.763 8.42C214.503 7.06 213.463 5.02 210.483 5.02C207.083 5.02 205.663 7.96 205.663 10.84C205.663 13.74 207.083 16.68 210.483 16.68C213.483 16.68 214.643 14.64 214.763 12.84H216.563C216.243 16 214.003 18.28 210.483 18.28C206.563 18.28 203.863 15.16 203.863 10.84C203.863 6.54 206.563 3.42 210.483 3.42C213.983 3.42 216.223 5.7 216.563 8.42H214.763ZM222.762 18.28C219.642 18.28 217.762 16.08 217.762 12.9C217.762 9.72 219.642 7.52 222.762 7.52C225.862 7.52 227.742 9.72 227.742 12.9C227.742 16.08 225.862 18.28 222.762 18.28ZM222.762 16.88C225.042 16.88 226.142 15.08 226.142 12.9C226.142 10.72 225.042 8.92 222.762 8.92C220.462 8.92 219.362 10.72 219.362 12.9C219.362 15.08 220.462 16.88 222.762 16.88ZM234.358 7.52C236.218 7.52 237.778 8.54 237.778 10.88V18H236.178V11.28C236.178 9.96 235.558 8.92 233.958 8.92C232.158 8.92 230.958 10.06 230.958 11.64V18H229.358V7.8H230.958V9.02H230.998C231.538 8.3 232.618 7.52 234.358 7.52ZM244.064 11.94C245.884 12.38 247.944 12.68 247.944 15.2C247.944 17.06 246.244 18.28 243.924 18.28C240.804 18.28 239.364 16.8 239.264 14.6H240.864C240.964 15.74 241.364 16.88 243.924 16.88C245.664 16.88 246.344 15.98 246.344 15.3C246.344 13.82 245.004 13.74 243.544 13.38C241.984 13 239.664 12.82 239.664 10.42C239.664 8.82 241.084 7.52 243.484 7.52C246.024 7.52 247.384 8.96 247.544 10.72H245.944C245.784 9.94 245.404 8.92 243.484 8.92C242.044 8.92 241.264 9.5 241.264 10.3C241.264 11.5 242.644 11.6 244.064 11.94ZM253.739 9.2H251.739V15.34C251.739 16.5 252.379 16.7 253.739 16.6V18C253.379 18.08 252.959 18.12 252.539 18.12C251.179 18.12 250.139 17.58 250.139 15.5V9.2H248.639V7.8H250.139V4.4H251.739V7.8H253.739V9.2ZM259.873 7.52C260.253 7.52 260.533 7.54 260.813 7.58V9.18H260.773C258.553 8.82 257.013 10.38 257.013 12.56V18H255.413V7.8H257.013V9.82H257.053C257.593 8.48 258.413 7.52 259.873 7.52ZM269.028 7.8H270.628V18H269.028V16.78H268.988C268.448 17.5 267.368 18.28 265.628 18.28C263.768 18.28 262.208 17.26 262.208 14.92V7.8H263.808V14.52C263.808 15.84 264.428 16.88 266.028 16.88C267.828 16.88 269.028 15.74 269.028 14.16V7.8ZM280.074 11.48C279.994 10.36 279.234 8.92 277.194 8.92C274.774 8.92 273.854 10.98 273.854 12.9C273.854 14.82 274.774 16.88 277.194 16.88C279.254 16.88 279.994 15.46 280.074 14.24H281.674C281.534 16.56 279.714 18.28 277.194 18.28C274.214 18.28 272.254 16.1 272.254 12.9C272.254 9.7 274.214 7.52 277.194 7.52C279.714 7.52 281.434 9.2 281.674 11.48H280.074ZM287.645 9.2H285.645V15.34C285.645 16.5 286.285 16.7 287.645 16.6V18C287.285 18.08 286.865 18.12 286.445 18.12C285.085 18.12 284.045 17.58 284.045 15.5V9.2H282.545V7.8H284.045V4.4H285.645V7.8H287.645V9.2ZM290.319 5.82C289.879 5.82 289.319 5.48 289.319 4.86C289.319 4.24 289.879 3.9 290.319 3.9C290.779 3.9 291.319 4.24 291.319 4.86C291.319 5.48 290.779 5.82 290.319 5.82ZM289.519 7.8H291.119V18H289.519V7.8ZM297.938 18.28C294.818 18.28 292.938 16.08 292.938 12.9C292.938 9.72 294.818 7.52 297.938 7.52C301.038 7.52 302.918 9.72 302.918 12.9C302.918 16.08 301.038 18.28 297.938 18.28ZM297.938 16.88C300.218 16.88 301.318 15.08 301.318 12.9C301.318 10.72 300.218 8.92 297.938 8.92C295.638 8.92 294.538 10.72 294.538 12.9C294.538 15.08 295.638 16.88 297.938 16.88ZM309.534 7.52C311.394 7.52 312.954 8.54 312.954 10.88V18H311.354V11.28C311.354 9.96 310.734 8.92 309.134 8.92C307.334 8.92 306.134 10.06 306.134 11.64V18H304.534V7.8H306.134V9.02H306.174C306.714 8.3 307.794 7.52 309.534 7.52Z" fill="#2B2F34"/>
<path id="34%" d="M338.141 8.32H336.341C336.341 5.78 338.001 3.9 341.421 3.9C343.781 3.9 345.861 5.28 345.861 7.72C345.861 9.18 345.141 10.1 343.741 10.66V10.7C345.701 11.24 346.361 12.5 346.361 14.12C346.361 16.84 344.421 18.28 341.461 18.28C337.941 18.28 335.981 16.44 335.981 13.32H337.781C337.781 15.32 338.701 16.68 341.321 16.68C343.701 16.68 344.561 15.78 344.561 14.12C344.561 11.96 342.981 11.58 341.641 11.58H340.161V9.98H341.561C342.981 9.98 344.061 9.32 344.061 7.72C344.061 6.6 343.301 5.5 341.421 5.5C338.721 5.5 338.141 6.96 338.141 8.32ZM355.988 18H354.188V14.76H347.528V13.16L354.188 4.18H355.988V13.16H357.888V14.76H355.988V18ZM354.188 6.68L349.368 13.16H354.188V6.68ZM361.43 11.82C359.25 11.82 358.21 10 358.21 7.86C358.21 5.72 359.25 3.9 361.43 3.9C363.65 3.9 364.65 5.72 364.65 7.86C364.65 10 363.65 11.82 361.43 11.82ZM370.19 4.18L362.93 18H361.53L368.79 4.18H370.19ZM361.43 10.42C362.65 10.42 363.25 9.38 363.25 7.86C363.25 6.34 362.65 5.3 361.43 5.3C360.21 5.3 359.61 6.34 359.61 7.86C359.61 9.38 360.21 10.42 361.43 10.42ZM370.29 18.28C368.11 18.28 367.07 16.46 367.07 14.32C367.07 12.18 368.11 10.36 370.29 10.36C372.51 10.36 373.51 12.18 373.51 14.32C373.51 16.46 372.51 18.28 370.29 18.28ZM370.29 16.88C371.51 16.88 372.11 15.84 372.11 14.32C372.11 12.8 371.51 11.76 370.29 11.76C369.07 11.76 368.47 12.8 368.47 14.32C368.47 15.84 369.07 16.88 370.29 16.88Z" fill="#215CFF"/>
</g>
<g id="Share in India&#226;&#128;&#153;s Output_2">
<path id="Transport" d="M236.602 72.7998V60.0998H231.842V58.4998H243.162V60.0998H238.402V72.7998H236.602ZM247.665 62.3198C248.045 62.3198 248.325 62.3398 248.605 62.3798V63.9798H248.565C246.345 63.6198 244.805 65.1798 244.805 67.3598V72.7998H243.205V62.5998H244.805V64.6198H244.845C245.385 63.2798 246.205 62.3198 247.665 62.3198ZM255.91 65.1998C255.91 64.3998 255.47 63.7198 253.83 63.7198C251.89 63.7198 251.25 64.2798 251.15 65.7598H249.55C249.65 63.7998 250.87 62.3198 253.83 62.3198C255.77 62.3198 257.51 63.0798 257.51 65.5398V70.4998C257.51 71.2998 257.65 71.7398 258.67 71.6198V72.7398C258.25 72.8798 258.03 72.8998 257.73 72.8998C256.77 72.8998 256.19 72.6398 255.91 71.5198H255.87C255.23 72.4798 254.09 73.0798 252.41 73.0798C250.35 73.0798 249.05 71.8998 249.05 70.1798C249.05 67.8598 250.77 67.2598 253.41 66.7598C255.13 66.4398 255.91 66.2198 255.91 65.1998ZM252.57 71.6798C254.47 71.6798 255.91 70.8198 255.91 68.8598V67.1598C255.61 67.4598 254.63 67.7398 253.55 67.9598C251.57 68.3798 250.65 68.8798 250.65 70.0998C250.65 71.0998 251.25 71.6798 252.57 71.6798ZM264.866 62.3198C266.726 62.3198 268.286 63.3398 268.286 65.6798V72.7998H266.686V66.0798C266.686 64.7598 266.066 63.7198 264.466 63.7198C262.666 63.7198 261.466 64.8598 261.466 66.4398V72.7998H259.866V62.5998H261.466V63.8198H261.506C262.046 63.0998 263.126 62.3198 264.866 62.3198ZM274.572 66.7398C276.392 67.1798 278.452 67.4798 278.452 69.9998C278.452 71.8598 276.752 73.0798 274.432 73.0798C271.312 73.0798 269.872 71.5998 269.772 69.3998H271.372C271.472 70.5398 271.872 71.6798 274.432 71.6798C276.172 71.6798 276.852 70.7798 276.852 70.0998C276.852 68.6198 275.512 68.5398 274.052 68.1798C272.492 67.7998 270.172 67.6198 270.172 65.2198C270.172 63.6198 271.592 62.3198 273.992 62.3198C276.532 62.3198 277.892 63.7598 278.052 65.5198H276.452C276.292 64.7398 275.912 63.7198 273.992 63.7198C272.552 63.7198 271.772 64.2998 271.772 65.0998C271.772 66.2998 273.152 66.3998 274.572 66.7398ZM284.882 62.3198C287.402 62.3198 289.442 64.3398 289.442 67.6998C289.442 71.0598 287.402 73.0798 284.882 73.0798C283.202 73.0798 282.242 72.3598 281.642 71.4798H281.602V76.2398H280.002V62.5998H281.602V63.8598H281.642C282.242 63.0798 283.202 62.3198 284.882 62.3198ZM284.682 71.6798C286.782 71.6798 287.842 69.6998 287.842 67.6998C287.842 65.6998 286.782 63.7198 284.682 63.7198C282.782 63.7198 281.602 65.2998 281.602 67.6998C281.602 70.0998 282.782 71.6798 284.682 71.6798ZM295.536 73.0798C292.416 73.0798 290.536 70.8798 290.536 67.6998C290.536 64.5198 292.416 62.3198 295.536 62.3198C298.636 62.3198 300.516 64.5198 300.516 67.6998C300.516 70.8798 298.636 73.0798 295.536 73.0798ZM295.536 71.6798C297.816 71.6798 298.916 69.8798 298.916 67.6998C298.916 65.5198 297.816 63.7198 295.536 63.7198C293.236 63.7198 292.136 65.5198 292.136 67.6998C292.136 69.8798 293.236 71.6798 295.536 71.6798ZM306.591 62.3198C306.971 62.3198 307.251 62.3398 307.531 62.3798V63.9798H307.491C305.271 63.6198 303.731 65.1798 303.731 67.3598V72.7998H302.131V62.5998H303.731V64.6198H303.771C304.311 63.2798 305.131 62.3198 306.591 62.3198ZM313.427 63.9998H311.427V70.1398C311.427 71.2998 312.067 71.4998 313.427 71.3998V72.7998C313.067 72.8798 312.647 72.9198 312.227 72.9198C310.867 72.9198 309.827 72.3798 309.827 70.2998V63.9998H308.327V62.5998H309.827V59.1998H311.427V62.5998H313.427V63.9998Z" fill="#2B2F34"/>
<path id="25%" d="M338.578 63.8198H336.778C336.778 60.9598 338.338 58.6998 341.758 58.6998C344.118 58.6998 346.158 60.1998 346.158 62.8398C346.158 67.5798 339.418 67.8598 338.558 71.1598V71.1998H345.958V72.7998H336.378C336.378 70.2998 337.958 68.3398 340.498 66.8598C343.078 65.3598 344.358 64.8798 344.358 62.8598C344.358 61.6998 343.838 60.2998 341.718 60.2998C339.298 60.2998 338.578 61.9198 338.578 63.8198ZM352.871 63.5198C355.471 63.5198 357.291 65.5198 357.291 68.0798C357.291 71.0598 355.111 73.0798 352.331 73.0798C349.171 73.0798 347.411 71.0398 347.331 68.8198H349.131C349.291 70.1598 350.091 71.4798 352.251 71.4798C354.151 71.4798 355.491 70.2998 355.491 68.0798C355.491 65.9998 354.231 65.1198 352.451 65.1198C351.211 65.1198 350.131 65.5198 349.431 66.4198H347.511L348.951 58.9798H356.551V60.5798H350.411L349.591 64.7598V64.7998C350.291 63.9998 351.331 63.5198 352.871 63.5198ZM361.43 66.6198C359.25 66.6198 358.21 64.7998 358.21 62.6598C358.21 60.5198 359.25 58.6998 361.43 58.6998C363.65 58.6998 364.65 60.5198 364.65 62.6598C364.65 64.7998 363.65 66.6198 361.43 66.6198ZM370.19 58.9798L362.93 72.7998H361.53L368.79 58.9798H370.19ZM361.43 65.2198C362.65 65.2198 363.25 64.1798 363.25 62.6598C363.25 61.1398 362.65 60.0998 361.43 60.0998C360.21 60.0998 359.61 61.1398 359.61 62.6598C359.61 64.1798 360.21 65.2198 361.43 65.2198ZM370.29 73.0798C368.11 73.0798 367.07 71.2598 367.07 69.1198C367.07 66.9798 368.11 65.1598 370.29 65.1598C372.51 65.1598 373.51 66.9798 373.51 69.1198C373.51 71.2598 372.51 73.0798 370.29 73.0798ZM370.29 71.6798C371.51 71.6798 372.11 70.6398 372.11 69.1198C372.11 67.5998 371.51 66.5598 370.29 66.5598C369.07 66.5598 368.47 67.5998 368.47 69.1198C368.47 70.6398 369.07 71.6798 370.29 71.6798Z" fill="#039C6D"/>
</g>
<g id="Share in India&#226;&#128;&#153;s Output_3">
<path id="Power and Energy" d="M159.949 127.6V113.3H165.629C168.249 113.3 170.269 114.46 170.269 117.46C170.269 120.46 168.249 121.62 165.629 121.62H161.749V127.6H159.949ZM161.749 114.9V120.02H165.829C167.609 120.02 168.469 119.2 168.469 117.46C168.469 115.72 167.609 114.9 165.829 114.9H161.749ZM175.887 127.88C172.767 127.88 170.887 125.68 170.887 122.5C170.887 119.32 172.767 117.12 175.887 117.12C178.987 117.12 180.867 119.32 180.867 122.5C180.867 125.68 178.987 127.88 175.887 127.88ZM175.887 126.48C178.167 126.48 179.267 124.68 179.267 122.5C179.267 120.32 178.167 118.52 175.887 118.52C173.587 118.52 172.487 120.32 172.487 122.5C172.487 124.68 173.587 126.48 175.887 126.48ZM181.268 117.4H183.028L185.348 125.86H185.388L187.668 117.4H189.368L191.668 125.86H191.708L194.028 117.4H195.788L192.528 127.6H190.828L188.528 119.18H188.488L186.228 127.6H184.528L181.268 117.4ZM201.12 126.48C203.16 126.48 203.92 125.16 204.1 124.46H205.7C205.18 126.36 203.72 127.88 201.18 127.88C198.08 127.88 196.2 125.7 196.2 122.5C196.2 119.1 198.12 117.12 201.1 117.12C204.3 117.12 205.86 119.3 205.86 122.92H197.8C197.8 124.76 198.9 126.48 201.12 126.48ZM201.1 118.52C199.18 118.52 197.8 119.88 197.8 121.52H204.26C204.26 119.88 203.02 118.52 201.1 118.52ZM211.904 117.12C212.284 117.12 212.564 117.14 212.844 117.18V118.78H212.804C210.584 118.42 209.044 119.98 209.044 122.16V127.6H207.444V117.4H209.044V119.42H209.084C209.624 118.08 210.444 117.12 211.904 117.12ZM224.543 120C224.543 119.2 224.103 118.52 222.463 118.52C220.523 118.52 219.883 119.08 219.783 120.56H218.183C218.283 118.6 219.503 117.12 222.463 117.12C224.403 117.12 226.143 117.88 226.143 120.34V125.3C226.143 126.1 226.283 126.54 227.303 126.42V127.54C226.883 127.68 226.663 127.7 226.363 127.7C225.403 127.7 224.823 127.44 224.543 126.32H224.503C223.863 127.28 222.723 127.88 221.043 127.88C218.983 127.88 217.683 126.7 217.683 124.98C217.683 122.66 219.403 122.06 222.043 121.56C223.763 121.24 224.543 121.02 224.543 120ZM221.203 126.48C223.103 126.48 224.543 125.62 224.543 123.66V121.96C224.243 122.26 223.263 122.54 222.183 122.76C220.203 123.18 219.283 123.68 219.283 124.9C219.283 125.9 219.883 126.48 221.203 126.48ZM233.498 117.12C235.358 117.12 236.918 118.14 236.918 120.48V127.6H235.318V120.88C235.318 119.56 234.698 118.52 233.098 118.52C231.298 118.52 230.098 119.66 230.098 121.24V127.6H228.498V117.4H230.098V118.62H230.138C230.678 117.9 231.758 117.12 233.498 117.12ZM246.325 113.3H247.925V127.6H246.325V126.34H246.285C245.685 127.12 244.725 127.88 243.085 127.88C240.525 127.88 238.485 125.86 238.485 122.5C238.485 119.14 240.525 117.12 243.085 117.12C244.725 117.12 245.685 117.84 246.285 118.72H246.325V113.3ZM243.245 126.48C245.145 126.48 246.325 124.9 246.325 122.5C246.325 120.1 245.145 118.52 243.245 118.52C241.145 118.52 240.085 120.5 240.085 122.5C240.085 124.5 241.145 126.48 243.245 126.48ZM256.163 119.4H263.503V121H256.163V126H264.703V127.6H254.363V113.3H264.463V114.9H256.163V119.4ZM271.565 117.12C273.425 117.12 274.985 118.14 274.985 120.48V127.6H273.385V120.88C273.385 119.56 272.765 118.52 271.165 118.52C269.365 118.52 268.165 119.66 268.165 121.24V127.6H266.565V117.4H268.165V118.62H268.205C268.745 117.9 269.825 117.12 271.565 117.12ZM281.471 126.48C283.511 126.48 284.271 125.16 284.451 124.46H286.051C285.531 126.36 284.071 127.88 281.531 127.88C278.431 127.88 276.551 125.7 276.551 122.5C276.551 119.1 278.471 117.12 281.451 117.12C284.651 117.12 286.211 119.3 286.211 122.92H278.151C278.151 124.76 279.251 126.48 281.471 126.48ZM281.451 118.52C279.531 118.52 278.151 119.88 278.151 121.52H284.611C284.611 119.88 283.371 118.52 281.451 118.52ZM292.255 117.12C292.635 117.12 292.915 117.14 293.195 117.18V118.78H293.155C290.935 118.42 289.395 119.98 289.395 122.16V127.6H287.795V117.4H289.395V119.42H289.435C289.975 118.08 290.795 117.12 292.255 117.12ZM301.52 117.4H303.12V127.04C303.12 129.76 301.4 131.14 298.6 131.14C295.8 131.14 294.14 129.66 293.98 127.92H295.58C295.78 128.96 296.62 129.74 298.52 129.74C300.42 129.74 301.52 128.92 301.52 127.02V125.48H301.48C300.88 126.36 299.92 127.08 298.24 127.08C295.72 127.08 293.68 125.46 293.68 122.1C293.68 118.74 295.72 117.12 298.24 117.12C299.92 117.12 300.88 117.88 301.48 118.66H301.52V117.4ZM298.44 125.68C300.34 125.68 301.52 124.5 301.52 122.1C301.52 119.7 300.34 118.52 298.44 118.52C296.34 118.52 295.28 120.1 295.28 122.1C295.28 124.1 296.34 125.68 298.44 125.68ZM313.955 117.4L309.595 128.44C309.155 129.54 308.635 131.04 306.755 131.04C306.115 131.04 305.655 130.92 305.395 130.84V129.64H305.635C306.515 129.72 307.135 129.66 307.675 129.08C308.095 128.62 308.515 127.76 308.115 126.76L304.255 117.4H306.055L309.175 125.72H309.215L312.155 117.4H313.955Z" fill="#2B2F34"/>
<path id="15%" d="M343.917 113.78H345.317V127.6H343.517V117.26C342.677 118.06 341.877 118.06 340.637 118.06V116.76C343.057 116.76 343.717 115.58 343.917 113.78ZM352.871 118.32C355.471 118.32 357.291 120.32 357.291 122.88C357.291 125.86 355.111 127.88 352.331 127.88C349.171 127.88 347.411 125.84 347.331 123.62H349.131C349.291 124.96 350.091 126.28 352.251 126.28C354.151 126.28 355.491 125.1 355.491 122.88C355.491 120.8 354.231 119.92 352.451 119.92C351.211 119.92 350.131 120.32 349.431 121.22H347.511L348.951 113.78H356.551V115.38H350.411L349.591 119.56V119.6C350.291 118.8 351.331 118.32 352.871 118.32ZM361.43 121.42C359.25 121.42 358.21 119.6 358.21 117.46C358.21 115.32 359.25 113.5 361.43 113.5C363.65 113.5 364.65 115.32 364.65 117.46C364.65 119.6 363.65 121.42 361.43 121.42ZM370.19 113.78L362.93 127.6H361.53L368.79 113.78H370.19ZM361.43 120.02C362.65 120.02 363.25 118.98 363.25 117.46C363.25 115.94 362.65 114.9 361.43 114.9C360.21 114.9 359.61 115.94 359.61 117.46C359.61 118.98 360.21 120.02 361.43 120.02ZM370.29 127.88C368.11 127.88 367.07 126.06 367.07 123.92C367.07 121.78 368.11 119.96 370.29 119.96C372.51 119.96 373.51 121.78 373.51 123.92C373.51 126.06 372.51 127.88 370.29 127.88ZM370.29 126.48C371.51 126.48 372.11 125.44 372.11 123.92C372.11 122.4 371.51 121.36 370.29 121.36C369.07 121.36 368.47 122.4 368.47 123.92C368.47 125.44 369.07 126.48 370.29 126.48Z" fill="#EE0032"/>
</g>
<g id="Share in India&#226;&#128;&#153;s Output_4">
<path id="Urban Development and Smart Cities" d="M13.0327 177.64C13.0327 180.56 11.3727 182.68 7.55266 182.68C3.73266 182.68 2.07266 180.56 2.07266 177.64V168.1H3.87266V177.64C3.87266 179.96 5.07266 181.08 7.55266 181.08C10.0327 181.08 11.2327 179.96 11.2327 177.64V168.1H13.0327V177.64ZM19.6967 171.92C20.0767 171.92 20.3567 171.94 20.6367 171.98V173.58H20.5967C18.3767 173.22 16.8367 174.78 16.8367 176.96V182.4H15.2367V172.2H16.8367V174.22H16.8767C17.4167 172.88 18.2367 171.92 19.6967 171.92ZM26.9322 171.92C29.4922 171.92 31.5322 173.94 31.5322 177.3C31.5322 180.66 29.4922 182.68 26.9322 182.68C25.2922 182.68 24.3322 181.92 23.7322 181.14H23.6922V182.4H22.0922V168.1H23.6922V173.52H23.7322C24.3322 172.64 25.2922 171.92 26.9322 171.92ZM26.7722 181.28C28.8722 181.28 29.9322 179.3 29.9322 177.3C29.9322 175.3 28.8722 173.32 26.7722 173.32C24.8722 173.32 23.6922 174.9 23.6922 177.3C23.6922 179.7 24.8722 181.28 26.7722 181.28ZM39.3869 174.8C39.3869 174 38.9469 173.32 37.3069 173.32C35.3669 173.32 34.7269 173.88 34.6269 175.36H33.0269C33.1269 173.4 34.3469 171.92 37.3069 171.92C39.2469 171.92 40.9869 172.68 40.9869 175.14V180.1C40.9869 180.9 41.1269 181.34 42.1469 181.22V182.34C41.7269 182.48 41.5069 182.5 41.2069 182.5C40.2469 182.5 39.6669 182.24 39.3869 181.12H39.3469C38.7069 182.08 37.5669 182.68 35.8869 182.68C33.8269 182.68 32.5269 181.5 32.5269 179.78C32.5269 177.46 34.2469 176.86 36.8869 176.36C38.6069 176.04 39.3869 175.82 39.3869 174.8ZM36.0469 181.28C37.9469 181.28 39.3869 180.42 39.3869 178.46V176.76C39.0869 177.06 38.1069 177.34 37.0269 177.56C35.0469 177.98 34.1269 178.48 34.1269 179.7C34.1269 180.7 34.7269 181.28 36.0469 181.28ZM48.3422 171.92C50.2022 171.92 51.7622 172.94 51.7622 175.28V182.4H50.1622V175.68C50.1622 174.36 49.5422 173.32 47.9422 173.32C46.1422 173.32 44.9422 174.46 44.9422 176.04V182.4H43.3422V172.2H44.9422V173.42H44.9822C45.5222 172.7 46.6022 171.92 48.3422 171.92ZM58.1525 182.4V168.1H63.3325C67.2725 168.1 69.6925 170.66 69.6925 175.26C69.6925 179.86 67.2725 182.4 63.3325 182.4H58.1525ZM59.9525 169.7V180.8H63.3325C66.9725 180.8 67.8925 178.06 67.8925 175.26C67.8925 172.46 66.9725 169.7 63.3325 169.7H59.9525ZM75.9244 181.28C77.9644 181.28 78.7244 179.96 78.9044 179.26H80.5044C79.9844 181.16 78.5244 182.68 75.9844 182.68C72.8844 182.68 71.0044 180.5 71.0044 177.3C71.0044 173.9 72.9244 171.92 75.9044 171.92C79.1044 171.92 80.6644 174.1 80.6644 177.72H72.6044C72.6044 179.56 73.7044 181.28 75.9244 181.28ZM75.9044 173.32C73.9844 173.32 72.6044 174.68 72.6044 176.32H79.0644C79.0644 174.68 77.8244 173.32 75.9044 173.32ZM80.9931 172.2H82.7331L85.5531 180.8H85.5731L88.3931 172.2H90.1331L86.4731 182.4H84.6531L80.9931 172.2ZM95.4166 181.28C97.4566 181.28 98.2166 179.96 98.3966 179.26H99.9966C99.4766 181.16 98.0166 182.68 95.4766 182.68C92.3766 182.68 90.4966 180.5 90.4966 177.3C90.4966 173.9 92.4166 171.92 95.3966 171.92C98.5966 171.92 100.157 174.1 100.157 177.72H92.0966C92.0966 179.56 93.1966 181.28 95.4166 181.28ZM95.3966 173.32C93.4766 173.32 92.0966 174.68 92.0966 176.32H98.5566C98.5566 174.68 97.3166 173.32 95.3966 173.32ZM101.801 168.1H103.401V182.4H101.801V168.1ZM110.086 182.68C106.966 182.68 105.086 180.48 105.086 177.3C105.086 174.12 106.966 171.92 110.086 171.92C113.186 171.92 115.066 174.12 115.066 177.3C115.066 180.48 113.186 182.68 110.086 182.68ZM110.086 181.28C112.366 181.28 113.466 179.48 113.466 177.3C113.466 175.12 112.366 173.32 110.086 173.32C107.786 173.32 106.686 175.12 106.686 177.3C106.686 179.48 107.786 181.28 110.086 181.28ZM121.562 171.92C124.082 171.92 126.122 173.94 126.122 177.3C126.122 180.66 124.082 182.68 121.562 182.68C119.882 182.68 118.922 181.96 118.322 181.08H118.282V185.84H116.682V172.2H118.282V173.46H118.322C118.922 172.68 119.882 171.92 121.562 171.92ZM121.362 181.28C123.462 181.28 124.522 179.3 124.522 177.3C124.522 175.3 123.462 173.32 121.362 173.32C119.462 173.32 118.282 174.9 118.282 177.3C118.282 179.7 119.462 181.28 121.362 181.28ZM138.455 171.92C140.515 171.92 141.515 173.14 141.515 175.28V182.4H139.915V175.68C139.915 174.36 139.655 173.32 138.055 173.32C136.455 173.32 135.455 174.46 135.455 176.04V182.4H133.855V175.68C133.855 174.36 133.595 173.32 131.995 173.32C130.395 173.32 129.395 174.46 129.395 176.04V182.4H127.795V172.2H129.395V173.42H129.435C129.975 172.7 130.855 171.92 132.395 171.92C133.855 171.92 134.695 172.54 135.115 173.68H135.155C135.855 172.72 136.915 171.92 138.455 171.92ZM147.995 181.28C150.035 181.28 150.795 179.96 150.975 179.26H152.575C152.055 181.16 150.595 182.68 148.055 182.68C144.955 182.68 143.075 180.5 143.075 177.3C143.075 173.9 144.995 171.92 147.975 171.92C151.175 171.92 152.735 174.1 152.735 177.72H144.675C144.675 179.56 145.775 181.28 147.995 181.28ZM147.975 173.32C146.055 173.32 144.675 174.68 144.675 176.32H151.135C151.135 174.68 149.895 173.32 147.975 173.32ZM159.319 171.92C161.179 171.92 162.739 172.94 162.739 175.28V182.4H161.139V175.68C161.139 174.36 160.519 173.32 158.919 173.32C157.119 173.32 155.919 174.46 155.919 176.04V182.4H154.319V172.2H155.919V173.42H155.959C156.499 172.7 157.579 171.92 159.319 171.92ZM169.13 173.6H167.13V179.74C167.13 180.9 167.77 181.1 169.13 181V182.4C168.77 182.48 168.35 182.52 167.93 182.52C166.57 182.52 165.53 181.98 165.53 179.9V173.6H164.03V172.2H165.53V168.8H167.13V172.2H169.13V173.6ZM181.047 174.8C181.047 174 180.607 173.32 178.967 173.32C177.027 173.32 176.387 173.88 176.287 175.36H174.687C174.787 173.4 176.007 171.92 178.967 171.92C180.907 171.92 182.647 172.68 182.647 175.14V180.1C182.647 180.9 182.787 181.34 183.807 181.22V182.34C183.387 182.48 183.167 182.5 182.867 182.5C181.907 182.5 181.327 182.24 181.047 181.12H181.007C180.367 182.08 179.227 182.68 177.547 182.68C175.487 182.68 174.187 181.5 174.187 179.78C174.187 177.46 175.907 176.86 178.547 176.36C180.267 176.04 181.047 175.82 181.047 174.8ZM177.707 181.28C179.607 181.28 181.047 180.42 181.047 178.46V176.76C180.747 177.06 179.767 177.34 178.687 177.56C176.707 177.98 175.787 178.48 175.787 179.7C175.787 180.7 176.387 181.28 177.707 181.28ZM190.002 171.92C191.862 171.92 193.422 172.94 193.422 175.28V182.4H191.822V175.68C191.822 174.36 191.202 173.32 189.602 173.32C187.802 173.32 186.602 174.46 186.602 176.04V182.4H185.002V172.2H186.602V173.42H186.642C187.182 172.7 188.262 171.92 190.002 171.92ZM202.829 168.1H204.429V182.4H202.829V181.14H202.789C202.189 181.92 201.229 182.68 199.589 182.68C197.029 182.68 194.989 180.66 194.989 177.3C194.989 173.94 197.029 171.92 199.589 171.92C201.229 171.92 202.189 172.64 202.789 173.52H202.829V168.1ZM199.749 181.28C201.649 181.28 202.829 179.7 202.829 177.3C202.829 174.9 201.649 173.32 199.749 173.32C197.649 173.32 196.589 175.3 196.589 177.3C196.589 179.3 197.649 181.28 199.749 181.28ZM216.007 174.06C219.227 174.86 221.327 175.4 221.327 178.66C221.327 180.74 219.787 182.68 216.167 182.68C212.787 182.68 210.167 180.88 209.967 177.6H211.767C211.967 179.56 213.167 181.08 216.167 181.08C218.647 181.08 219.527 179.94 219.527 178.66C219.527 176.7 218.467 176.34 215.267 175.6C213.127 175.1 210.567 174.36 210.567 171.58C210.567 169.32 212.307 167.82 215.467 167.82C218.507 167.82 220.627 169.38 220.867 172.34H219.067C218.807 170.42 217.727 169.42 215.467 169.42C213.447 169.42 212.367 170.2 212.367 171.38C212.367 173.28 213.907 173.54 216.007 174.06ZM233.807 171.92C235.867 171.92 236.867 173.14 236.867 175.28V182.4H235.267V175.68C235.267 174.36 235.007 173.32 233.407 173.32C231.807 173.32 230.807 174.46 230.807 176.04V182.4H229.207V175.68C229.207 174.36 228.947 173.32 227.347 173.32C225.747 173.32 224.747 174.46 224.747 176.04V182.4H223.147V172.2H224.747V173.42H224.787C225.327 172.7 226.207 171.92 227.747 171.92C229.207 171.92 230.047 172.54 230.467 173.68H230.507C231.207 172.72 232.267 171.92 233.807 171.92ZM245.246 174.8C245.246 174 244.806 173.32 243.166 173.32C241.226 173.32 240.586 173.88 240.486 175.36H238.886C238.986 173.4 240.206 171.92 243.166 171.92C245.106 171.92 246.846 172.68 246.846 175.14V180.1C246.846 180.9 246.986 181.34 248.006 181.22V182.34C247.586 182.48 247.366 182.5 247.066 182.5C246.106 182.5 245.526 182.24 245.246 181.12H245.206C244.566 182.08 243.426 182.68 241.746 182.68C239.686 182.68 238.386 181.5 238.386 179.78C238.386 177.46 240.106 176.86 242.746 176.36C244.466 176.04 245.246 175.82 245.246 174.8ZM241.906 181.28C243.806 181.28 245.246 180.42 245.246 178.46V176.76C244.946 177.06 243.966 177.34 242.886 177.56C240.906 177.98 239.986 178.48 239.986 179.7C239.986 180.7 240.586 181.28 241.906 181.28ZM253.662 171.92C254.042 171.92 254.322 171.94 254.602 171.98V173.58H254.562C252.342 173.22 250.802 174.78 250.802 176.96V182.4H249.202V172.2H250.802V174.22H250.842C251.382 172.88 252.202 171.92 253.662 171.92ZM260.497 173.6H258.497V179.74C258.497 180.9 259.137 181.1 260.497 181V182.4C260.137 182.48 259.717 182.52 259.297 182.52C257.937 182.52 256.897 181.98 256.897 179.9V173.6H255.397V172.2H256.897V168.8H258.497V172.2H260.497V173.6ZM276.774 172.82C276.514 171.46 275.474 169.42 272.494 169.42C269.094 169.42 267.674 172.36 267.674 175.24C267.674 178.14 269.094 181.08 272.494 181.08C275.494 181.08 276.654 179.04 276.774 177.24H278.574C278.254 180.4 276.014 182.68 272.494 182.68C268.574 182.68 265.874 179.56 265.874 175.24C265.874 170.94 268.574 167.82 272.494 167.82C275.994 167.82 278.234 170.1 278.574 172.82H276.774ZM281.354 170.22C280.914 170.22 280.354 169.88 280.354 169.26C280.354 168.64 280.914 168.3 281.354 168.3C281.814 168.3 282.354 168.64 282.354 169.26C282.354 169.88 281.814 170.22 281.354 170.22ZM280.554 172.2H282.154V182.4H280.554V172.2ZM288.993 173.6H286.993V179.74C286.993 180.9 287.633 181.1 288.993 181V182.4C288.633 182.48 288.213 182.52 287.793 182.52C286.433 182.52 285.393 181.98 285.393 179.9V173.6H283.893V172.2H285.393V168.8H286.993V172.2H288.993V173.6ZM291.666 170.22C291.226 170.22 290.666 169.88 290.666 169.26C290.666 168.64 291.226 168.3 291.666 168.3C292.126 168.3 292.666 168.64 292.666 169.26C292.666 169.88 292.126 170.22 291.666 170.22ZM290.866 172.2H292.466V182.4H290.866V172.2ZM299.206 181.28C301.246 181.28 302.006 179.96 302.186 179.26H303.786C303.266 181.16 301.806 182.68 299.266 182.68C296.166 182.68 294.286 180.5 294.286 177.3C294.286 173.9 296.206 171.92 299.186 171.92C302.386 171.92 303.946 174.1 303.946 177.72H295.886C295.886 179.56 296.986 181.28 299.206 181.28ZM299.186 173.32C297.266 173.32 295.886 174.68 295.886 176.32H302.346C302.346 174.68 301.106 173.32 299.186 173.32ZM309.67 176.34C311.49 176.78 313.55 177.08 313.55 179.6C313.55 181.46 311.85 182.68 309.53 182.68C306.41 182.68 304.97 181.2 304.87 179H306.47C306.57 180.14 306.97 181.28 309.53 181.28C311.27 181.28 311.95 180.38 311.95 179.7C311.95 178.22 310.61 178.14 309.15 177.78C307.59 177.4 305.27 177.22 305.27 174.82C305.27 173.22 306.69 171.92 309.09 171.92C311.63 171.92 312.99 173.36 313.15 175.12H311.55C311.39 174.34 311.01 173.32 309.09 173.32C307.65 173.32 306.87 173.9 306.87 174.7C306.87 175.9 308.25 176 309.67 176.34Z" fill="#2B2F34"/>
<path id="10%" d="M342.374 168.58H343.774V182.4H341.974V172.06C341.134 172.86 340.334 172.86 339.094 172.86V171.56C341.514 171.56 342.174 170.38 342.374 168.58ZM351.528 182.68C347.748 182.68 346.208 179.42 346.208 175.5C346.208 171.58 347.748 168.3 351.528 168.3C355.308 168.3 356.848 171.58 356.848 175.5C356.848 179.42 355.308 182.68 351.528 182.68ZM351.528 181.08C354.168 181.08 355.048 178.44 355.048 175.5C355.048 172.56 354.168 169.9 351.528 169.9C348.888 169.9 348.008 172.56 348.008 175.5C348.008 178.44 348.888 181.08 351.528 181.08ZM361.43 176.22C359.25 176.22 358.21 174.4 358.21 172.26C358.21 170.12 359.25 168.3 361.43 168.3C363.65 168.3 364.65 170.12 364.65 172.26C364.65 174.4 363.65 176.22 361.43 176.22ZM370.19 168.58L362.93 182.4H361.53L368.79 168.58H370.19ZM361.43 174.82C362.65 174.82 363.25 173.78 363.25 172.26C363.25 170.74 362.65 169.7 361.43 169.7C360.21 169.7 359.61 170.74 359.61 172.26C359.61 173.78 360.21 174.82 361.43 174.82ZM370.29 182.68C368.11 182.68 367.07 180.86 367.07 178.72C367.07 176.58 368.11 174.76 370.29 174.76C372.51 174.76 373.51 176.58 373.51 178.72C373.51 180.86 372.51 182.68 370.29 182.68ZM370.29 181.28C371.51 181.28 372.11 180.24 372.11 178.72C372.11 177.2 371.51 176.16 370.29 176.16C369.07 176.16 368.47 177.2 368.47 178.72C368.47 180.24 369.07 181.28 370.29 181.28Z" fill="#FF5100"/>
</g>
<g id="Share in India&#226;&#128;&#153;s Output_5">
<path id="Industrial" d="M237.978 222.9H239.778V237.2H237.978V222.9ZM247.248 226.72C249.108 226.72 250.668 227.74 250.668 230.08V237.2H249.068V230.48C249.068 229.16 248.448 228.12 246.848 228.12C245.048 228.12 243.848 229.26 243.848 230.84V237.2H242.248V227H243.848V228.22H243.888C244.428 227.5 245.508 226.72 247.248 226.72ZM260.075 222.9H261.675V237.2H260.075V235.94H260.035C259.435 236.72 258.475 237.48 256.835 237.48C254.275 237.48 252.235 235.46 252.235 232.1C252.235 228.74 254.275 226.72 256.835 226.72C258.475 226.72 259.435 227.44 260.035 228.32H260.075V222.9ZM256.995 236.08C258.895 236.08 260.075 234.5 260.075 232.1C260.075 229.7 258.895 228.12 256.995 228.12C254.895 228.12 253.835 230.1 253.835 232.1C253.835 234.1 254.895 236.08 256.995 236.08ZM270.63 227H272.23V237.2H270.63V235.98H270.59C270.05 236.7 268.97 237.48 267.23 237.48C265.37 237.48 263.81 236.46 263.81 234.12V227H265.41V233.72C265.41 235.04 266.03 236.08 267.63 236.08C269.43 236.08 270.63 234.94 270.63 233.36V227ZM278.576 231.14C280.396 231.58 282.456 231.88 282.456 234.4C282.456 236.26 280.756 237.48 278.436 237.48C275.316 237.48 273.876 236 273.776 233.8H275.376C275.476 234.94 275.876 236.08 278.436 236.08C280.176 236.08 280.856 235.18 280.856 234.5C280.856 233.02 279.516 232.94 278.056 232.58C276.496 232.2 274.176 232.02 274.176 229.62C274.176 228.02 275.596 226.72 277.996 226.72C280.536 226.72 281.896 228.16 282.056 229.92H280.456C280.296 229.14 279.916 228.12 277.996 228.12C276.556 228.12 275.776 228.7 275.776 229.5C275.776 230.7 277.156 230.8 278.576 231.14ZM288.251 228.4H286.251V234.54C286.251 235.7 286.891 235.9 288.251 235.8V237.2C287.891 237.28 287.471 237.32 287.051 237.32C285.691 237.32 284.651 236.78 284.651 234.7V228.4H283.151V227H284.651V223.6H286.251V227H288.251V228.4ZM294.384 226.72C294.764 226.72 295.044 226.74 295.324 226.78V228.38H295.284C293.064 228.02 291.524 229.58 291.524 231.76V237.2H289.924V227H291.524V229.02H291.564C292.104 227.68 292.924 226.72 294.384 226.72ZM297.78 225.02C297.34 225.02 296.78 224.68 296.78 224.06C296.78 223.44 297.34 223.1 297.78 223.1C298.24 223.1 298.78 223.44 298.78 224.06C298.78 224.68 298.24 225.02 297.78 225.02ZM296.98 227H298.58V237.2H296.98V227ZM307.219 229.6C307.219 228.8 306.779 228.12 305.139 228.12C303.199 228.12 302.559 228.68 302.459 230.16H300.859C300.959 228.2 302.179 226.72 305.139 226.72C307.079 226.72 308.819 227.48 308.819 229.94V234.9C308.819 235.7 308.959 236.14 309.979 236.02V237.14C309.559 237.28 309.339 237.3 309.039 237.3C308.079 237.3 307.499 237.04 307.219 235.92H307.179C306.539 236.88 305.399 237.48 303.719 237.48C301.659 237.48 300.359 236.3 300.359 234.58C300.359 232.26 302.079 231.66 304.719 231.16C306.439 230.84 307.219 230.62 307.219 229.6ZM303.879 236.08C305.779 236.08 307.219 235.22 307.219 233.26V231.56C306.919 231.86 305.939 232.14 304.859 232.36C302.879 232.78 301.959 233.28 301.959 234.5C301.959 235.5 302.559 236.08 303.879 236.08ZM311.234 222.9H312.834V237.2H311.234V222.9Z" fill="#2B2F34"/>
<path id="9%" d="M355.128 230.34C354.448 231.64 353.048 232.4 351.428 232.4C348.788 232.4 346.948 230.58 346.948 227.84C346.948 225.28 348.748 223.1 351.748 223.1C355.528 223.1 356.928 225.9 356.928 230.3C356.928 234.9 355.128 237.48 351.688 237.48C349.108 237.48 347.508 235.72 347.308 233.7H349.108C349.288 235.04 350.128 235.88 351.688 235.88C354.548 235.88 355.088 233.16 355.128 230.38V230.34ZM351.748 224.7C349.848 224.7 348.748 225.88 348.748 227.72C348.748 229.7 349.948 230.8 351.588 230.8C353.588 230.8 354.928 229.54 354.928 227.68C354.928 225.9 353.748 224.7 351.748 224.7ZM361.43 231.02C359.25 231.02 358.21 229.2 358.21 227.06C358.21 224.92 359.25 223.1 361.43 223.1C363.65 223.1 364.65 224.92 364.65 227.06C364.65 229.2 363.65 231.02 361.43 231.02ZM370.19 223.38L362.93 237.2H361.53L368.79 223.38H370.19ZM361.43 229.62C362.65 229.62 363.25 228.58 363.25 227.06C363.25 225.54 362.65 224.5 361.43 224.5C360.21 224.5 359.61 225.54 359.61 227.06C359.61 228.58 360.21 229.62 361.43 229.62ZM370.29 237.48C368.11 237.48 367.07 235.66 367.07 233.52C367.07 231.38 368.11 229.56 370.29 229.56C372.51 229.56 373.51 231.38 373.51 233.52C373.51 235.66 372.51 237.48 370.29 237.48ZM370.29 236.08C371.51 236.08 372.11 235.04 372.11 233.52C372.11 232 371.51 230.96 370.29 230.96C369.07 230.96 368.47 232 368.47 233.52C368.47 235.04 369.07 236.08 370.29 236.08Z" fill="#6C4FFF"/>
</g>
<g id="Share in India&#226;&#128;&#153;s Output_6">
<path id="Others" d="M262.425 292.28C258.225 292.28 255.425 289.14 255.425 284.84C255.425 280.54 258.225 277.42 262.425 277.42C266.625 277.42 269.425 280.54 269.425 284.84C269.425 289.14 266.625 292.28 262.425 292.28ZM262.425 290.68C266.025 290.68 267.625 287.92 267.625 284.84C267.625 281.76 266.025 279.02 262.425 279.02C258.825 279.02 257.225 281.76 257.225 284.84C257.225 287.92 258.825 290.68 262.425 290.68ZM275.77 283.2H273.77V289.34C273.77 290.5 274.41 290.7 275.77 290.6V292C275.41 292.08 274.99 292.12 274.57 292.12C273.21 292.12 272.17 291.58 272.17 289.5V283.2H270.67V281.8H272.17V278.4H273.77V281.8H275.77V283.2ZM282.444 281.52C284.304 281.52 285.864 282.54 285.864 284.88V292H284.264V285.28C284.264 283.96 283.644 282.92 282.044 282.92C280.244 282.92 279.044 284.06 279.044 285.64V292H277.444V277.7H279.044V283.02H279.084C279.624 282.3 280.704 281.52 282.444 281.52ZM292.35 290.88C294.39 290.88 295.15 289.56 295.33 288.86H296.93C296.41 290.76 294.95 292.28 292.41 292.28C289.31 292.28 287.43 290.1 287.43 286.9C287.43 283.5 289.35 281.52 292.33 281.52C295.53 281.52 297.09 283.7 297.09 287.32H289.03C289.03 289.16 290.13 290.88 292.35 290.88ZM292.33 282.92C290.41 282.92 289.03 284.28 289.03 285.92H295.49C295.49 284.28 294.25 282.92 292.33 282.92ZM303.134 281.52C303.514 281.52 303.794 281.54 304.074 281.58V283.18H304.034C301.814 282.82 300.274 284.38 300.274 286.56V292H298.674V281.8H300.274V283.82H300.314C300.854 282.48 301.674 281.52 303.134 281.52ZM309.67 285.94C311.49 286.38 313.55 286.68 313.55 289.2C313.55 291.06 311.85 292.28 309.53 292.28C306.41 292.28 304.97 290.8 304.87 288.6H306.47C306.57 289.74 306.97 290.88 309.53 290.88C311.27 290.88 311.95 289.98 311.95 289.3C311.95 287.82 310.61 287.74 309.15 287.38C307.59 287 305.27 286.82 305.27 284.42C305.27 282.82 306.69 281.52 309.09 281.52C311.63 281.52 312.99 282.96 313.15 284.72H311.55C311.39 283.94 311.01 282.92 309.09 282.92C307.65 282.92 306.87 283.5 306.87 284.3C306.87 285.5 308.25 285.6 309.67 285.94Z" fill="#2B2F34"/>
<path id="7%" d="M347.546 278.18H357.126V279.58C353.986 282.22 351.446 287.54 351.446 292H349.546C349.546 287.38 352.666 282.02 355.126 279.82V279.78H347.546V278.18ZM361.43 285.82C359.25 285.82 358.21 284 358.21 281.86C358.21 279.72 359.25 277.9 361.43 277.9C363.65 277.9 364.65 279.72 364.65 281.86C364.65 284 363.65 285.82 361.43 285.82ZM370.19 278.18L362.93 292H361.53L368.79 278.18H370.19ZM361.43 284.42C362.65 284.42 363.25 283.38 363.25 281.86C363.25 280.34 362.65 279.3 361.43 279.3C360.21 279.3 359.61 280.34 359.61 281.86C359.61 283.38 360.21 284.42 361.43 284.42ZM370.29 292.28C368.11 292.28 367.07 290.46 367.07 288.32C367.07 286.18 368.11 284.36 370.29 284.36C372.51 284.36 373.51 286.18 373.51 288.32C373.51 290.46 372.51 292.28 370.29 292.28ZM370.29 290.88C371.51 290.88 372.11 289.84 372.11 288.32C372.11 286.8 371.51 285.76 370.29 285.76C369.07 285.76 368.47 286.8 368.47 288.32C368.47 289.84 369.07 290.88 370.29 290.88Z" fill="#E300D4"/>
</g>
</g>
</g>
<defs>
<linearGradient id="paint0_linear_245_1822" x1="187" y1="188.399" x2="567" y2="188.399" gradientUnits="userSpaceOnUse">
<stop stop-color="#EFEFEF" stop-opacity="0"/>
<stop offset="1" stop-color="#EFEFEF"/>
</linearGradient>
<linearGradient id="paint1_linear_245_1822" x1="325" y1="330.247" x2="429" y2="330.247" gradientUnits="userSpaceOnUse">
<stop stop-color="#EFEFEF" stop-opacity="0"/>
<stop offset="1" stop-color="#EFEFEF"/>
</linearGradient>
<linearGradient id="paint2_linear_245_1822" x1="296" y1="304.538" x2="458" y2="305.231" gradientUnits="userSpaceOnUse">
<stop stop-color="#EFEFEF" stop-opacity="0"/>
<stop offset="1" stop-color="#EFEFEF"/>
</linearGradient>
<linearGradient id="paint3_linear_245_1822" x1="269" y1="268.618" x2="485" y2="276.185" gradientUnits="userSpaceOnUse">
<stop stop-color="#EFEFEF" stop-opacity="0"/>
<stop offset="1" stop-color="#EFEFEF"/>
</linearGradient>
<linearGradient id="paint4_linear_245_1822" x1="241" y1="235.051" x2="513" y2="235.051" gradientUnits="userSpaceOnUse">
<stop stop-color="#EFEFEF" stop-opacity="0"/>
<stop offset="1" stop-color="#EFEFEF"/>
</linearGradient>
<linearGradient id="paint5_linear_245_1822" x1="214" y1="221.186" x2="540" y2="221.873" gradientUnits="userSpaceOnUse">
<stop stop-color="#E5E5E5" stop-opacity="0"/>
<stop offset="1" stop-color="#EFEFEF"/>
</linearGradient>
</defs>
</svg>
