<svg width="557" height="396" viewBox="0 0 557 396" fill="none" xmlns="http://www.w3.org/2000/svg">
<g id="Manufacturing">
<g id="Pie chart">
<path id="Fullsegment" d="M556.307 199.374C556.307 174.513 551.411 149.897 541.897 126.929C532.383 103.961 518.439 83.0919 500.86 65.5132C483.282 47.9344 462.413 33.9901 439.445 24.4765C416.477 14.9629 391.86 10.0664 367 10.0664C342.14 10.0664 317.523 14.9629 294.555 24.4765C271.587 33.9901 250.718 47.9344 233.14 65.5132C215.561 83.092 201.617 103.961 192.103 126.929C182.589 149.897 177.693 174.513 177.693 199.374C177.693 224.234 182.589 248.85 192.103 271.818C201.617 294.786 215.561 315.655 233.14 333.234C250.718 350.813 271.588 364.757 294.555 374.271C317.523 383.784 342.14 388.681 367 388.681C391.86 388.681 416.477 383.784 439.445 374.271C462.413 364.757 483.282 350.813 500.86 333.234C518.439 315.655 532.383 294.786 541.897 271.818C551.411 248.85 556.307 224.234 556.307 199.374L556.307 199.374Z" stroke="url(#paint0_linear_245_1740)" stroke-width="1.38567"/>
<path id="Fullsegment_2" d="M413.609 315.551C410.792 309.43 406.797 303.924 401.853 299.347C396.908 294.771 391.11 291.212 384.791 288.876C378.471 286.54 371.753 285.471 365.02 285.731C358.287 285.991 351.672 287.575 345.551 290.391C339.43 293.208 333.924 297.203 329.347 302.147C324.77 307.092 321.212 312.89 318.876 319.209C316.54 325.529 315.471 332.247 315.731 338.98C315.991 345.712 317.574 352.328 320.391 358.449C323.208 364.57 327.203 370.076 332.147 374.653C337.092 379.229 342.889 382.788 349.209 385.124C355.529 387.46 362.247 388.529 368.98 388.269C375.712 388.009 382.328 386.425 388.449 383.609C394.569 380.792 400.075 376.797 404.652 371.853C409.229 366.908 412.788 361.11 415.124 354.791C417.46 348.471 418.529 341.753 418.269 335.02C418.009 328.288 416.425 321.672 413.609 315.551L413.609 315.551Z" stroke="url(#paint1_linear_245_1740)" stroke-width="1.38567"/>
<path id="Fullsegment_3" d="M407.093 238.417C397.955 233.152 387.87 229.738 377.413 228.371C366.956 227.003 356.332 227.709 346.147 230.447C335.963 233.186 326.418 237.903 318.057 244.331C309.695 250.758 302.682 258.769 297.417 267.907C292.152 277.045 288.738 287.13 287.371 297.587C286.003 308.044 286.709 318.668 289.447 328.852C292.186 339.037 296.903 348.582 303.33 356.943C309.758 365.304 317.769 372.318 326.907 377.583C336.045 382.848 346.13 386.262 356.587 387.629C367.044 388.997 377.668 388.291 387.852 385.553C398.037 382.814 407.582 378.097 415.943 371.669C424.304 365.242 431.318 357.231 436.583 348.093C441.848 338.955 445.262 328.87 446.629 318.413C447.997 307.956 447.291 297.332 444.553 287.148C441.814 276.963 437.097 267.418 430.669 259.057C424.242 250.696 416.231 243.682 407.093 238.417L407.093 238.417Z" stroke="url(#paint2_linear_245_1740)" stroke-width="1.38567"/>
<path id="Fullsegment_4" d="M431.183 195.004C419.89 186.575 407.048 180.454 393.389 176.988C379.73 173.523 365.522 172.782 351.576 174.807C337.631 176.833 324.221 181.585 312.112 188.793C300.003 196.001 289.433 205.523 281.004 216.816C272.575 228.11 266.453 240.952 262.988 254.611C259.523 268.27 258.782 282.478 260.807 296.424C262.832 310.369 267.585 323.779 274.793 335.888C282.001 347.997 291.523 358.567 302.816 366.996C314.109 375.425 326.952 381.546 340.611 385.012C354.27 388.477 368.478 389.218 382.424 387.193C396.369 385.167 409.779 380.415 421.888 373.207C433.997 365.999 444.567 356.477 452.996 345.184C461.425 333.89 467.546 321.048 471.012 307.389C474.477 293.73 475.218 279.522 473.193 265.576C471.167 251.631 466.415 238.221 459.207 226.112C451.999 214.003 442.477 203.433 431.183 195.004L431.183 195.004Z" stroke="url(#paint3_linear_245_1740)" stroke-width="1.38567"/>
<path id="Fullsegment_5" d="M486.22 189.011C477.817 173.355 466.413 159.507 452.658 148.259C438.903 137.01 423.067 128.58 406.055 123.452C389.042 118.323 371.186 116.595 353.506 118.367C335.826 120.139 318.668 125.377 303.011 133.78C287.355 142.183 273.507 153.587 262.259 167.342C251.01 181.097 242.58 196.933 237.452 213.945C232.323 230.958 230.595 248.814 232.367 266.494C234.139 284.174 239.377 301.332 247.78 316.989C256.183 332.645 267.587 346.493 281.342 357.741C295.097 368.99 310.933 377.42 327.945 382.548C344.958 387.677 362.814 389.405 380.494 387.633C398.174 385.861 415.332 380.623 430.989 372.22C446.645 363.817 460.493 352.413 471.741 338.658C482.99 324.903 491.42 309.067 496.548 292.055C501.677 275.042 503.405 257.186 501.633 239.506C499.861 221.826 494.623 204.668 486.22 189.011L486.22 189.011Z" stroke="url(#paint4_linear_245_1740)" stroke-width="1.38567"/>
<path id="Fullsegment_6" d="M526.647 196.735C522.804 175.77 514.869 155.767 503.295 137.868C491.722 119.97 476.736 104.526 459.194 92.419C441.652 80.3119 421.897 71.7785 401.057 67.3061C380.217 62.8337 358.7 62.5098 337.735 66.353C316.77 70.1961 296.767 78.131 278.868 89.7047C260.97 101.278 245.526 116.264 233.419 133.806C221.312 151.348 212.778 171.103 208.306 191.943C203.834 212.783 203.51 234.3 207.353 255.265C211.196 276.23 219.131 296.233 230.705 314.132C242.278 332.03 257.264 347.474 274.806 359.581C292.348 371.688 312.103 380.221 332.943 384.694C353.783 389.166 375.3 389.49 396.265 385.647C417.23 381.804 437.233 373.869 455.132 362.295C473.03 350.722 488.474 335.736 500.581 318.194C512.688 300.652 521.221 280.897 525.694 260.057C530.166 239.217 530.49 217.7 526.647 196.735L526.647 196.735Z" stroke="url(#paint5_linear_245_1740)" stroke-width="1.38567"/>
<path id="segment" d="M556.377 199.374C556.377 174.513 551.481 149.897 541.967 126.929C532.454 103.961 518.509 83.0919 500.931 65.5131C483.352 47.9343 462.483 33.9901 439.515 24.4765C416.547 14.9629 391.93 10.0664 367.07 10.0664" stroke="#215CFF" stroke-width="1.38567"/>
<path id="segment_2" d="M526.537 196.14C519.588 159.015 499.91 125.476 470.892 101.3C441.873 77.1237 405.332 63.8248 367.563 63.6938" stroke="#039C6D" stroke-width="1.38567"/>
<path id="segment_3" d="M485.888 188.395C474.317 167.104 457.242 149.31 436.445 136.873C415.648 124.436 391.893 117.813 367.661 117.694" stroke="#EE0032" stroke-width="1.38567"/>
<path id="segment_4" d="M430.48 194.483C412.21 181.078 390.164 173.8 367.503 173.694" stroke="#FF5100" stroke-width="1.38567"/>
<path id="segment_5" d="M406.046 237.824C394.226 231.247 380.936 227.763 367.409 227.694" stroke="#6C4FFF" stroke-width="1.38567"/>
<path id="segment_6" d="M413.696 315.742C409.662 306.881 403.191 299.351 395.037 294.031C386.883 288.71 377.383 285.82 367.648 285.697" stroke="#E300D4" stroke-width="1.38567"/>
</g>
<g id="Frame 6451">
<g id="Share in India&#226;&#128;&#153;s Output">
<path id="Chemicals and Pharmaceuticals" d="M36.2547 8.42C35.9947 7.06 34.9547 5.02 31.9747 5.02C28.5747 5.02 27.1547 7.96 27.1547 10.84C27.1547 13.74 28.5747 16.68 31.9747 16.68C34.9747 16.68 36.1347 14.64 36.2547 12.84H38.0547C37.7347 16 35.4947 18.28 31.9747 18.28C28.0547 18.28 25.3547 15.16 25.3547 10.84C25.3547 6.54 28.0547 3.42 31.9747 3.42C35.4747 3.42 37.7147 5.7 38.0547 8.42H36.2547ZM44.8344 7.52C46.6944 7.52 48.2544 8.54 48.2544 10.88V18H46.6544V11.28C46.6544 9.96 46.0344 8.92 44.4344 8.92C42.6344 8.92 41.4344 10.06 41.4344 11.64V18H39.8344V3.7H41.4344V9.02H41.4744C42.0144 8.3 43.0944 7.52 44.8344 7.52ZM54.7408 16.88C56.7808 16.88 57.5408 15.56 57.7208 14.86H59.3208C58.8008 16.76 57.3408 18.28 54.8008 18.28C51.7008 18.28 49.8208 16.1 49.8208 12.9C49.8208 9.5 51.7408 7.52 54.7208 7.52C57.9208 7.52 59.4808 9.7 59.4808 13.32H51.4208C51.4208 15.16 52.5208 16.88 54.7408 16.88ZM54.7208 8.92C52.8008 8.92 51.4208 10.28 51.4208 11.92H57.8808C57.8808 10.28 56.6408 8.92 54.7208 8.92ZM71.7248 7.52C73.7848 7.52 74.7848 8.74 74.7848 10.88V18H73.1848V11.28C73.1848 9.96 72.9248 8.92 71.3248 8.92C69.7248 8.92 68.7248 10.06 68.7248 11.64V18H67.1248V11.28C67.1248 9.96 66.8648 8.92 65.2648 8.92C63.6648 8.92 62.6648 10.06 62.6648 11.64V18H61.0648V7.8H62.6648V9.02H62.7048C63.2448 8.3 64.1248 7.52 65.6648 7.52C67.1248 7.52 67.9648 8.14 68.3848 9.28H68.4248C69.1248 8.32 70.1848 7.52 71.7248 7.52ZM77.9242 5.82C77.4842 5.82 76.9242 5.48 76.9242 4.86C76.9242 4.24 77.4842 3.9 77.9242 3.9C78.3842 3.9 78.9242 4.24 78.9242 4.86C78.9242 5.48 78.3842 5.82 77.9242 5.82ZM77.1242 7.8H78.7242V18H77.1242V7.8ZM88.3634 11.48C88.2834 10.36 87.5234 8.92 85.4834 8.92C83.0634 8.92 82.1434 10.98 82.1434 12.9C82.1434 14.82 83.0634 16.88 85.4834 16.88C87.5434 16.88 88.2834 15.46 88.3634 14.24H89.9634C89.8234 16.56 88.0034 18.28 85.4834 18.28C82.5034 18.28 80.5434 16.1 80.5434 12.9C80.5434 9.7 82.5034 7.52 85.4834 7.52C88.0034 7.52 89.7234 9.2 89.9634 11.48H88.3634ZM97.9298 10.4C97.9298 9.6 97.4898 8.92 95.8498 8.92C93.9098 8.92 93.2698 9.48 93.1698 10.96H91.5698C91.6698 9 92.8898 7.52 95.8498 7.52C97.7898 7.52 99.5298 8.28 99.5298 10.74V15.7C99.5298 16.5 99.6698 16.94 100.69 16.82V17.94C100.27 18.08 100.05 18.1 99.7498 18.1C98.7898 18.1 98.2098 17.84 97.9298 16.72H97.8898C97.2498 17.68 96.1098 18.28 94.4298 18.28C92.3698 18.28 91.0698 17.1 91.0698 15.38C91.0698 13.06 92.7898 12.46 95.4298 11.96C97.1498 11.64 97.9298 11.42 97.9298 10.4ZM94.5898 16.88C96.4898 16.88 97.9298 16.02 97.9298 14.06V12.36C97.6298 12.66 96.6498 12.94 95.5698 13.16C93.5898 13.58 92.6698 14.08 92.6698 15.3C92.6698 16.3 93.2698 16.88 94.5898 16.88ZM101.945 3.7H103.545V18H101.945V3.7ZM109.951 11.94C111.771 12.38 113.831 12.68 113.831 15.2C113.831 17.06 112.131 18.28 109.811 18.28C106.691 18.28 105.251 16.8 105.151 14.6H106.751C106.851 15.74 107.251 16.88 109.811 16.88C111.551 16.88 112.231 15.98 112.231 15.3C112.231 13.82 110.891 13.74 109.431 13.38C107.871 13 105.551 12.82 105.551 10.42C105.551 8.82 106.971 7.52 109.371 7.52C111.911 7.52 113.271 8.96 113.431 10.72H111.831C111.671 9.94 111.291 8.92 109.371 8.92C107.931 8.92 107.151 9.5 107.151 10.3C107.151 11.5 108.531 11.6 109.951 11.94ZM125.625 10.4C125.625 9.6 125.185 8.92 123.545 8.92C121.605 8.92 120.965 9.48 120.865 10.96H119.265C119.365 9 120.585 7.52 123.545 7.52C125.485 7.52 127.225 8.28 127.225 10.74V15.7C127.225 16.5 127.365 16.94 128.385 16.82V17.94C127.965 18.08 127.745 18.1 127.445 18.1C126.485 18.1 125.905 17.84 125.625 16.72H125.585C124.945 17.68 123.805 18.28 122.125 18.28C120.065 18.28 118.765 17.1 118.765 15.38C118.765 13.06 120.485 12.46 123.125 11.96C124.845 11.64 125.625 11.42 125.625 10.4ZM122.285 16.88C124.185 16.88 125.625 16.02 125.625 14.06V12.36C125.325 12.66 124.345 12.94 123.265 13.16C121.285 13.58 120.365 14.08 120.365 15.3C120.365 16.3 120.965 16.88 122.285 16.88ZM134.58 7.52C136.44 7.52 138 8.54 138 10.88V18H136.4V11.28C136.4 9.96 135.78 8.92 134.18 8.92C132.38 8.92 131.18 10.06 131.18 11.64V18H129.58V7.8H131.18V9.02H131.22C131.76 8.3 132.84 7.52 134.58 7.52ZM147.407 3.7H149.007V18H147.407V16.74H147.367C146.767 17.52 145.807 18.28 144.167 18.28C141.607 18.28 139.567 16.26 139.567 12.9C139.567 9.54 141.607 7.52 144.167 7.52C145.807 7.52 146.767 8.24 147.367 9.12H147.407V3.7ZM144.327 16.88C146.227 16.88 147.407 15.3 147.407 12.9C147.407 10.5 146.227 8.92 144.327 8.92C142.227 8.92 141.167 10.9 141.167 12.9C141.167 14.9 142.227 16.88 144.327 16.88ZM155.445 18V3.7H161.125C163.745 3.7 165.765 4.86 165.765 7.86C165.765 10.86 163.745 12.02 161.125 12.02H157.245V18H155.445ZM157.245 5.3V10.42H161.325C163.105 10.42 163.965 9.6 163.965 7.86C163.965 6.12 163.105 5.3 161.325 5.3H157.245ZM172.256 7.52C174.116 7.52 175.676 8.54 175.676 10.88V18H174.076V11.28C174.076 9.96 173.456 8.92 171.856 8.92C170.056 8.92 168.856 10.06 168.856 11.64V18H167.256V3.7H168.856V9.02H168.896C169.436 8.3 170.516 7.52 172.256 7.52ZM184.063 10.4C184.063 9.6 183.623 8.92 181.983 8.92C180.043 8.92 179.403 9.48 179.303 10.96H177.703C177.803 9 179.023 7.52 181.983 7.52C183.923 7.52 185.663 8.28 185.663 10.74V15.7C185.663 16.5 185.803 16.94 186.823 16.82V17.94C186.403 18.08 186.183 18.1 185.883 18.1C184.923 18.1 184.343 17.84 184.063 16.72H184.023C183.383 17.68 182.243 18.28 180.563 18.28C178.503 18.28 177.203 17.1 177.203 15.38C177.203 13.06 178.923 12.46 181.563 11.96C183.283 11.64 184.063 11.42 184.063 10.4ZM180.723 16.88C182.623 16.88 184.063 16.02 184.063 14.06V12.36C183.763 12.66 182.783 12.94 181.703 13.16C179.723 13.58 178.803 14.08 178.803 15.3C178.803 16.3 179.403 16.88 180.723 16.88ZM192.478 7.52C192.858 7.52 193.138 7.54 193.418 7.58V9.18H193.378C191.158 8.82 189.618 10.38 189.618 12.56V18H188.018V7.8H189.618V9.82H189.658C190.198 8.48 191.018 7.52 192.478 7.52ZM205.533 7.52C207.593 7.52 208.593 8.74 208.593 10.88V18H206.993V11.28C206.993 9.96 206.733 8.92 205.133 8.92C203.533 8.92 202.533 10.06 202.533 11.64V18H200.933V11.28C200.933 9.96 200.673 8.92 199.073 8.92C197.473 8.92 196.473 10.06 196.473 11.64V18H194.873V7.8H196.473V9.02H196.513C197.053 8.3 197.933 7.52 199.473 7.52C200.933 7.52 201.773 8.14 202.193 9.28H202.233C202.933 8.32 203.993 7.52 205.533 7.52ZM216.973 10.4C216.973 9.6 216.533 8.92 214.893 8.92C212.953 8.92 212.313 9.48 212.213 10.96H210.613C210.713 9 211.933 7.52 214.893 7.52C216.833 7.52 218.573 8.28 218.573 10.74V15.7C218.573 16.5 218.713 16.94 219.733 16.82V17.94C219.313 18.08 219.093 18.1 218.793 18.1C217.833 18.1 217.253 17.84 216.973 16.72H216.933C216.293 17.68 215.153 18.28 213.473 18.28C211.413 18.28 210.113 17.1 210.113 15.38C210.113 13.06 211.833 12.46 214.473 11.96C216.193 11.64 216.973 11.42 216.973 10.4ZM213.633 16.88C215.533 16.88 216.973 16.02 216.973 14.06V12.36C216.673 12.66 215.693 12.94 214.613 13.16C212.633 13.58 211.713 14.08 211.713 15.3C211.713 16.3 212.313 16.88 213.633 16.88ZM228.168 11.48C228.088 10.36 227.328 8.92 225.288 8.92C222.868 8.92 221.948 10.98 221.948 12.9C221.948 14.82 222.868 16.88 225.288 16.88C227.348 16.88 228.088 15.46 228.168 14.24H229.768C229.628 16.56 227.808 18.28 225.288 18.28C222.308 18.28 220.348 16.1 220.348 12.9C220.348 9.7 222.308 7.52 225.288 7.52C227.808 7.52 229.528 9.2 229.768 11.48H228.168ZM235.639 16.88C237.679 16.88 238.439 15.56 238.619 14.86H240.219C239.699 16.76 238.239 18.28 235.699 18.28C232.599 18.28 230.719 16.1 230.719 12.9C230.719 9.5 232.639 7.52 235.619 7.52C238.819 7.52 240.379 9.7 240.379 13.32H232.319C232.319 15.16 233.419 16.88 235.639 16.88ZM235.619 8.92C233.699 8.92 232.319 10.28 232.319 11.92H238.779C238.779 10.28 237.539 8.92 235.619 8.92ZM248.723 7.8H250.323V18H248.723V16.78H248.683C248.143 17.5 247.063 18.28 245.323 18.28C243.463 18.28 241.903 17.26 241.903 14.92V7.8H243.503V14.52C243.503 15.84 244.123 16.88 245.723 16.88C247.523 16.88 248.723 15.74 248.723 14.16V7.8ZM256.97 9.2H254.97V15.34C254.97 16.5 255.61 16.7 256.97 16.6V18C256.61 18.08 256.19 18.12 255.77 18.12C254.41 18.12 253.37 17.58 253.37 15.5V9.2H251.87V7.8H253.37V4.4H254.97V7.8H256.97V9.2ZM259.643 5.82C259.203 5.82 258.643 5.48 258.643 4.86C258.643 4.24 259.203 3.9 259.643 3.9C260.103 3.9 260.643 4.24 260.643 4.86C260.643 5.48 260.103 5.82 259.643 5.82ZM258.843 7.8H260.443V18H258.843V7.8ZM270.082 11.48C270.002 10.36 269.242 8.92 267.202 8.92C264.782 8.92 263.862 10.98 263.862 12.9C263.862 14.82 264.782 16.88 267.202 16.88C269.262 16.88 270.002 15.46 270.082 14.24H271.682C271.542 16.56 269.722 18.28 267.202 18.28C264.222 18.28 262.262 16.1 262.262 12.9C262.262 9.7 264.222 7.52 267.202 7.52C269.722 7.52 271.442 9.2 271.682 11.48H270.082ZM279.649 10.4C279.649 9.6 279.209 8.92 277.569 8.92C275.629 8.92 274.989 9.48 274.889 10.96H273.289C273.389 9 274.609 7.52 277.569 7.52C279.509 7.52 281.249 8.28 281.249 10.74V15.7C281.249 16.5 281.389 16.94 282.409 16.82V17.94C281.989 18.08 281.769 18.1 281.469 18.1C280.509 18.1 279.929 17.84 279.649 16.72H279.609C278.969 17.68 277.829 18.28 276.149 18.28C274.089 18.28 272.789 17.1 272.789 15.38C272.789 13.06 274.509 12.46 277.149 11.96C278.869 11.64 279.649 11.42 279.649 10.4ZM276.309 16.88C278.209 16.88 279.649 16.02 279.649 14.06V12.36C279.349 12.66 278.369 12.94 277.289 13.16C275.309 13.58 274.389 14.08 274.389 15.3C274.389 16.3 274.989 16.88 276.309 16.88ZM283.664 3.7H285.264V18H283.664V3.7ZM291.67 11.94C293.49 12.38 295.55 12.68 295.55 15.2C295.55 17.06 293.85 18.28 291.53 18.28C288.41 18.28 286.97 16.8 286.87 14.6H288.47C288.57 15.74 288.97 16.88 291.53 16.88C293.27 16.88 293.95 15.98 293.95 15.3C293.95 13.82 292.61 13.74 291.15 13.38C289.59 13 287.27 12.82 287.27 10.42C287.27 8.82 288.69 7.52 291.09 7.52C293.63 7.52 294.99 8.96 295.15 10.72H293.55C293.39 9.94 293.01 8.92 291.09 8.92C289.65 8.92 288.87 9.5 288.87 10.3C288.87 11.5 290.25 11.6 291.67 11.94Z" fill="#2B2F34"/>
<path id="25%" d="M320.578 9.02H318.778C318.778 6.16 320.338 3.9 323.758 3.9C326.118 3.9 328.158 5.4 328.158 8.04C328.158 12.78 321.418 13.06 320.558 16.36V16.4H327.958V18H318.378C318.378 15.5 319.958 13.54 322.498 12.06C325.078 10.56 326.358 10.08 326.358 8.06C326.358 6.9 325.838 5.5 323.718 5.5C321.298 5.5 320.578 7.12 320.578 9.02ZM334.871 8.72C337.471 8.72 339.291 10.72 339.291 13.28C339.291 16.26 337.111 18.28 334.331 18.28C331.171 18.28 329.411 16.24 329.331 14.02H331.131C331.291 15.36 332.091 16.68 334.251 16.68C336.151 16.68 337.491 15.5 337.491 13.28C337.491 11.2 336.231 10.32 334.451 10.32C333.211 10.32 332.131 10.72 331.431 11.62H329.511L330.951 4.18H338.551V5.78H332.411L331.591 9.96V10C332.291 9.2 333.331 8.72 334.871 8.72ZM343.43 11.82C341.25 11.82 340.21 10 340.21 7.86C340.21 5.72 341.25 3.9 343.43 3.9C345.65 3.9 346.65 5.72 346.65 7.86C346.65 10 345.65 11.82 343.43 11.82ZM352.19 4.18L344.93 18H343.53L350.79 4.18H352.19ZM343.43 10.42C344.65 10.42 345.25 9.38 345.25 7.86C345.25 6.34 344.65 5.3 343.43 5.3C342.21 5.3 341.61 6.34 341.61 7.86C341.61 9.38 342.21 10.42 343.43 10.42ZM352.29 18.28C350.11 18.28 349.07 16.46 349.07 14.32C349.07 12.18 350.11 10.36 352.29 10.36C354.51 10.36 355.51 12.18 355.51 14.32C355.51 16.46 354.51 18.28 352.29 18.28ZM352.29 16.88C353.51 16.88 354.11 15.84 354.11 14.32C354.11 12.8 353.51 11.76 352.29 11.76C351.07 11.76 350.47 12.8 350.47 14.32C350.47 15.84 351.07 16.88 352.29 16.88Z" fill="#215CFF"/>
</g>
<g id="Share in India&#226;&#128;&#153;s Output_2">
<path id="Engineering and Machinery" d="M66.6791 65.0002H74.0191V66.6002H66.6791V71.6002H75.2191V73.2002H64.8791V58.9002H74.9791V60.5002H66.6791V65.0002ZM82.0805 62.7202C83.9405 62.7202 85.5005 63.7402 85.5005 66.0802V73.2002H83.9005V66.4802C83.9005 65.1602 83.2805 64.1202 81.6805 64.1202C79.8805 64.1202 78.6805 65.2602 78.6805 66.8402V73.2002H77.0805V63.0002H78.6805V64.2202H78.7205C79.2605 63.5002 80.3405 62.7202 82.0805 62.7202ZM94.9069 63.0002H96.5069V72.6402C96.5069 75.3602 94.7869 76.7402 91.9869 76.7402C89.1869 76.7402 87.5269 75.2602 87.3669 73.5202H88.9669C89.1669 74.5602 90.0069 75.3402 91.9069 75.3402C93.8069 75.3402 94.9069 74.5202 94.9069 72.6202V71.0802H94.8669C94.2669 71.9602 93.3069 72.6802 91.6269 72.6802C89.1069 72.6802 87.0669 71.0602 87.0669 67.7002C87.0669 64.3402 89.1069 62.7202 91.6269 62.7202C93.3069 62.7202 94.2669 63.4802 94.8669 64.2602H94.9069V63.0002ZM91.8269 71.2802C93.7269 71.2802 94.9069 70.1002 94.9069 67.7002C94.9069 65.3002 93.7269 64.1202 91.8269 64.1202C89.7269 64.1202 88.6669 65.7002 88.6669 67.7002C88.6669 69.7002 89.7269 71.2802 91.8269 71.2802ZM99.7016 61.0202C99.2616 61.0202 98.7016 60.6802 98.7016 60.0602C98.7016 59.4402 99.2616 59.1002 99.7016 59.1002C100.162 59.1002 100.702 59.4402 100.702 60.0602C100.702 60.6802 100.162 61.0202 99.7016 61.0202ZM98.9016 63.0002H100.502V73.2002H98.9016V63.0002ZM107.901 62.7202C109.761 62.7202 111.321 63.7402 111.321 66.0802V73.2002H109.721V66.4802C109.721 65.1602 109.101 64.1202 107.501 64.1202C105.701 64.1202 104.501 65.2602 104.501 66.8402V73.2002H102.901V63.0002H104.501V64.2202H104.541C105.081 63.5002 106.161 62.7202 107.901 62.7202ZM117.807 72.0802C119.847 72.0802 120.607 70.7602 120.787 70.0602H122.387C121.867 71.9602 120.407 73.4802 117.867 73.4802C114.767 73.4802 112.887 71.3002 112.887 68.1002C112.887 64.7002 114.807 62.7202 117.787 62.7202C120.987 62.7202 122.547 64.9002 122.547 68.5202H114.487C114.487 70.3602 115.587 72.0802 117.807 72.0802ZM117.787 64.1202C115.867 64.1202 114.487 65.4802 114.487 67.1202H120.947C120.947 65.4802 119.707 64.1202 117.787 64.1202ZM128.471 72.0802C130.511 72.0802 131.271 70.7602 131.451 70.0602H133.051C132.531 71.9602 131.071 73.4802 128.531 73.4802C125.431 73.4802 123.551 71.3002 123.551 68.1002C123.551 64.7002 125.471 62.7202 128.451 62.7202C131.651 62.7202 133.211 64.9002 133.211 68.5202H125.151C125.151 70.3602 126.251 72.0802 128.471 72.0802ZM128.451 64.1202C126.531 64.1202 125.151 65.4802 125.151 67.1202H131.611C131.611 65.4802 130.371 64.1202 128.451 64.1202ZM139.255 62.7202C139.635 62.7202 139.915 62.7402 140.195 62.7802V64.3802H140.155C137.935 64.0202 136.395 65.5802 136.395 67.7602V73.2002H134.795V63.0002H136.395V65.0202H136.435C136.975 63.6802 137.795 62.7202 139.255 62.7202ZM142.651 61.0202C142.211 61.0202 141.651 60.6802 141.651 60.0602C141.651 59.4402 142.211 59.1002 142.651 59.1002C143.111 59.1002 143.651 59.4402 143.651 60.0602C143.651 60.6802 143.111 61.0202 142.651 61.0202ZM141.851 63.0002H143.451V73.2002H141.851V63.0002ZM150.85 62.7202C152.71 62.7202 154.27 63.7402 154.27 66.0802V73.2002H152.67V66.4802C152.67 65.1602 152.05 64.1202 150.45 64.1202C148.65 64.1202 147.45 65.2602 147.45 66.8402V73.2002H145.85V63.0002H147.45V64.2202H147.49C148.03 63.5002 149.11 62.7202 150.85 62.7202ZM163.676 63.0002H165.276V72.6402C165.276 75.3602 163.556 76.7402 160.756 76.7402C157.956 76.7402 156.296 75.2602 156.136 73.5202H157.736C157.936 74.5602 158.776 75.3402 160.676 75.3402C162.576 75.3402 163.676 74.5202 163.676 72.6202V71.0802H163.636C163.036 71.9602 162.076 72.6802 160.396 72.6802C157.876 72.6802 155.836 71.0602 155.836 67.7002C155.836 64.3402 157.876 62.7202 160.396 62.7202C162.076 62.7202 163.036 63.4802 163.636 64.2602H163.676V63.0002ZM160.596 71.2802C162.496 71.2802 163.676 70.1002 163.676 67.7002C163.676 65.3002 162.496 64.1202 160.596 64.1202C158.496 64.1202 157.436 65.7002 157.436 67.7002C157.436 69.7002 158.496 71.2802 160.596 71.2802ZM177.715 65.6002C177.715 64.8002 177.275 64.1202 175.635 64.1202C173.695 64.1202 173.055 64.6802 172.955 66.1602H171.355C171.455 64.2002 172.675 62.7202 175.635 62.7202C177.575 62.7202 179.315 63.4802 179.315 65.9402V70.9002C179.315 71.7002 179.455 72.1402 180.475 72.0202V73.1402C180.055 73.2802 179.835 73.3002 179.535 73.3002C178.575 73.3002 177.995 73.0402 177.715 71.9202H177.675C177.035 72.8802 175.895 73.4802 174.215 73.4802C172.155 73.4802 170.855 72.3002 170.855 70.5802C170.855 68.2602 172.575 67.6602 175.215 67.1602C176.935 66.8402 177.715 66.6202 177.715 65.6002ZM174.375 72.0802C176.275 72.0802 177.715 71.2202 177.715 69.2602V67.5602C177.415 67.8602 176.435 68.1402 175.355 68.3602C173.375 68.7802 172.455 69.2802 172.455 70.5002C172.455 71.5002 173.055 72.0802 174.375 72.0802ZM186.67 62.7202C188.53 62.7202 190.09 63.7402 190.09 66.0802V73.2002H188.49V66.4802C188.49 65.1602 187.87 64.1202 186.27 64.1202C184.47 64.1202 183.27 65.2602 183.27 66.8402V73.2002H181.67V63.0002H183.27V64.2202H183.31C183.85 63.5002 184.93 62.7202 186.67 62.7202ZM199.497 58.9002H201.097V73.2002H199.497V71.9402H199.457C198.857 72.7202 197.897 73.4802 196.257 73.4802C193.697 73.4802 191.657 71.4602 191.657 68.1002C191.657 64.7402 193.697 62.7202 196.257 62.7202C197.897 62.7202 198.857 63.4402 199.457 64.3202H199.497V58.9002ZM196.417 72.0802C198.317 72.0802 199.497 70.5002 199.497 68.1002C199.497 65.7002 198.317 64.1202 196.417 64.1202C194.317 64.1202 193.257 66.1002 193.257 68.1002C193.257 70.1002 194.317 72.0802 196.417 72.0802ZM207.535 73.2002V58.9002H209.995L214.475 70.7802H214.515L218.995 58.9002H221.455V73.2002H219.655V61.4402H219.615L215.295 73.2002H213.695L209.375 61.4402H209.335V73.2002H207.535ZM230.137 65.6002C230.137 64.8002 229.697 64.1202 228.057 64.1202C226.117 64.1202 225.477 64.6802 225.377 66.1602H223.777C223.877 64.2002 225.097 62.7202 228.057 62.7202C229.997 62.7202 231.737 63.4802 231.737 65.9402V70.9002C231.737 71.7002 231.877 72.1402 232.897 72.0202V73.1402C232.477 73.2802 232.257 73.3002 231.957 73.3002C230.997 73.3002 230.417 73.0402 230.137 71.9202H230.097C229.457 72.8802 228.317 73.4802 226.637 73.4802C224.577 73.4802 223.277 72.3002 223.277 70.5802C223.277 68.2602 224.997 67.6602 227.637 67.1602C229.357 66.8402 230.137 66.6202 230.137 65.6002ZM226.797 72.0802C228.697 72.0802 230.137 71.2202 230.137 69.2602V67.5602C229.837 67.8602 228.857 68.1402 227.777 68.3602C225.797 68.7802 224.877 69.2802 224.877 70.5002C224.877 71.5002 225.477 72.0802 226.797 72.0802ZM241.332 66.6802C241.252 65.5602 240.492 64.1202 238.452 64.1202C236.032 64.1202 235.112 66.1802 235.112 68.1002C235.112 70.0202 236.032 72.0802 238.452 72.0802C240.512 72.0802 241.252 70.6602 241.332 69.4402H242.932C242.792 71.7602 240.972 73.4802 238.452 73.4802C235.472 73.4802 233.512 71.3002 233.512 68.1002C233.512 64.9002 235.472 62.7202 238.452 62.7202C240.972 62.7202 242.692 64.4002 242.932 66.6802H241.332ZM249.463 62.7202C251.323 62.7202 252.883 63.7402 252.883 66.0802V73.2002H251.283V66.4802C251.283 65.1602 250.663 64.1202 249.063 64.1202C247.263 64.1202 246.063 65.2602 246.063 66.8402V73.2002H244.463V58.9002H246.063V64.2202H246.103C246.643 63.5002 247.723 62.7202 249.463 62.7202ZM256.03 61.0202C255.59 61.0202 255.03 60.6802 255.03 60.0602C255.03 59.4402 255.59 59.1002 256.03 59.1002C256.49 59.1002 257.03 59.4402 257.03 60.0602C257.03 60.6802 256.49 61.0202 256.03 61.0202ZM255.23 63.0002H256.83V73.2002H255.23V63.0002ZM264.229 62.7202C266.089 62.7202 267.649 63.7402 267.649 66.0802V73.2002H266.049V66.4802C266.049 65.1602 265.429 64.1202 263.829 64.1202C262.029 64.1202 260.829 65.2602 260.829 66.8402V73.2002H259.229V63.0002H260.829V64.2202H260.869C261.409 63.5002 262.489 62.7202 264.229 62.7202ZM274.135 72.0802C276.175 72.0802 276.935 70.7602 277.115 70.0602H278.715C278.195 71.9602 276.735 73.4802 274.195 73.4802C271.095 73.4802 269.215 71.3002 269.215 68.1002C269.215 64.7002 271.135 62.7202 274.115 62.7202C277.315 62.7202 278.875 64.9002 278.875 68.5202H270.815C270.815 70.3602 271.915 72.0802 274.135 72.0802ZM274.115 64.1202C272.195 64.1202 270.815 65.4802 270.815 67.1202H277.275C277.275 65.4802 276.035 64.1202 274.115 64.1202ZM284.919 62.7202C285.299 62.7202 285.579 62.7402 285.859 62.7802V64.3802H285.819C283.599 64.0202 282.059 65.5802 282.059 67.7602V73.2002H280.459V63.0002H282.059V65.0202H282.099C282.639 63.6802 283.459 62.7202 284.919 62.7202ZM295.955 63.0002L291.595 74.0402C291.155 75.1402 290.635 76.6402 288.755 76.6402C288.115 76.6402 287.655 76.5202 287.395 76.4402V75.2402H287.635C288.515 75.3202 289.135 75.2602 289.675 74.6802C290.095 74.2202 290.515 73.3602 290.115 72.3602L286.255 63.0002H288.055L291.175 71.3202H291.215L294.155 63.0002H295.955Z" fill="#2B2F34"/>
<path id="22%" d="M319.718 64.2202H317.918C317.918 61.3602 319.478 59.1002 322.898 59.1002C325.258 59.1002 327.298 60.6002 327.298 63.2402C327.298 67.9802 320.558 68.2602 319.698 71.5602V71.6002H327.098V73.2002H317.518C317.518 70.7002 319.098 68.7402 321.638 67.2602C324.218 65.7602 325.498 65.2802 325.498 63.2602C325.498 62.1002 324.978 60.7002 322.858 60.7002C320.438 60.7002 319.718 62.3202 319.718 64.2202ZM330.832 64.2202H329.032C329.032 61.3602 330.592 59.1002 334.012 59.1002C336.372 59.1002 338.412 60.6002 338.412 63.2402C338.412 67.9802 331.672 68.2602 330.812 71.5602V71.6002H338.212V73.2002H328.632C328.632 70.7002 330.212 68.7402 332.752 67.2602C335.332 65.7602 336.612 65.2802 336.612 63.2602C336.612 62.1002 336.092 60.7002 333.972 60.7002C331.552 60.7002 330.832 62.3202 330.832 64.2202ZM343.43 67.0202C341.25 67.0202 340.21 65.2002 340.21 63.0602C340.21 60.9202 341.25 59.1002 343.43 59.1002C345.65 59.1002 346.65 60.9202 346.65 63.0602C346.65 65.2002 345.65 67.0202 343.43 67.0202ZM352.19 59.3802L344.93 73.2002H343.53L350.79 59.3802H352.19ZM343.43 65.6202C344.65 65.6202 345.25 64.5802 345.25 63.0602C345.25 61.5402 344.65 60.5002 343.43 60.5002C342.21 60.5002 341.61 61.5402 341.61 63.0602C341.61 64.5802 342.21 65.6202 343.43 65.6202ZM352.29 73.4802C350.11 73.4802 349.07 71.6602 349.07 69.5202C349.07 67.3802 350.11 65.5602 352.29 65.5602C354.51 65.5602 355.51 67.3802 355.51 69.5202C355.51 71.6602 354.51 73.4802 352.29 73.4802ZM352.29 72.0802C353.51 72.0802 354.11 71.0402 354.11 69.5202C354.11 68.0002 353.51 66.9602 352.29 66.9602C351.07 66.9602 350.47 68.0002 350.47 69.5202C350.47 71.0402 351.07 72.0802 352.29 72.0802Z" fill="#039C6D"/>
</g>
<g id="Share in India&#226;&#128;&#153;s Output_3">
<path id="Automotive and Auto Components" d="M18.1356 124.82H11.8356L10.5756 128.4H8.71563L13.9956 114.1H15.9956L21.2556 128.4H19.3956L18.1356 124.82ZM12.4356 123.22H17.5556L15.0156 115.76H14.9756L12.4356 123.22ZM29.0319 118.2H30.6319V128.4H29.0319V127.18H28.9919C28.4519 127.9 27.3719 128.68 25.6319 128.68C23.7719 128.68 22.2119 127.66 22.2119 125.32V118.2H23.8119V124.92C23.8119 126.24 24.4319 127.28 26.0319 127.28C27.8319 127.28 29.0319 126.14 29.0319 124.56V118.2ZM37.2783 119.6H35.2783V125.74C35.2783 126.9 35.9183 127.1 37.2783 127V128.4C36.9183 128.48 36.4983 128.52 36.0783 128.52C34.7183 128.52 33.6783 127.98 33.6783 125.9V119.6H32.1783V118.2H33.6783V114.8H35.2783V118.2H37.2783V119.6ZM43.2739 128.68C40.1539 128.68 38.2739 126.48 38.2739 123.3C38.2739 120.12 40.1539 117.92 43.2739 117.92C46.3739 117.92 48.2539 120.12 48.2539 123.3C48.2539 126.48 46.3739 128.68 43.2739 128.68ZM43.2739 127.28C45.5539 127.28 46.6539 125.48 46.6539 123.3C46.6539 121.12 45.5539 119.32 43.2739 119.32C40.9739 119.32 39.8739 121.12 39.8739 123.3C39.8739 125.48 40.9739 127.28 43.2739 127.28ZM60.5295 117.92C62.5895 117.92 63.5895 119.14 63.5895 121.28V128.4H61.9895V121.68C61.9895 120.36 61.7295 119.32 60.1295 119.32C58.5295 119.32 57.5295 120.46 57.5295 122.04V128.4H55.9295V121.68C55.9295 120.36 55.6695 119.32 54.0695 119.32C52.4695 119.32 51.4695 120.46 51.4695 122.04V128.4H49.8695V118.2H51.4695V119.42H51.5095C52.0495 118.7 52.9295 117.92 54.4695 117.92C55.9295 117.92 56.7695 118.54 57.1895 119.68H57.2295C57.9295 118.72 58.9895 117.92 60.5295 117.92ZM70.1489 128.68C67.0289 128.68 65.1489 126.48 65.1489 123.3C65.1489 120.12 67.0289 117.92 70.1489 117.92C73.2489 117.92 75.1289 120.12 75.1289 123.3C75.1289 126.48 73.2489 128.68 70.1489 128.68ZM70.1489 127.28C72.4289 127.28 73.5289 125.48 73.5289 123.3C73.5289 121.12 72.4289 119.32 70.1489 119.32C67.8489 119.32 66.7489 121.12 66.7489 123.3C66.7489 125.48 67.8489 127.28 70.1489 127.28ZM80.9892 119.6H78.9892V125.74C78.9892 126.9 79.6292 127.1 80.9892 127V128.4C80.6292 128.48 80.2092 128.52 79.7892 128.52C78.4292 128.52 77.3892 127.98 77.3892 125.9V119.6H75.8892V118.2H77.3892V114.8H78.9892V118.2H80.9892V119.6ZM83.6625 116.22C83.2225 116.22 82.6625 115.88 82.6625 115.26C82.6625 114.64 83.2225 114.3 83.6625 114.3C84.1225 114.3 84.6625 114.64 84.6625 115.26C84.6625 115.88 84.1225 116.22 83.6625 116.22ZM82.8625 118.2H84.4625V128.4H82.8625V118.2ZM85.8017 118.2H87.5417L90.3617 126.8H90.3817L93.2017 118.2H94.9417L91.2817 128.4H89.4617L85.8017 118.2ZM100.225 127.28C102.265 127.28 103.025 125.96 103.205 125.26H104.805C104.285 127.16 102.825 128.68 100.285 128.68C97.1852 128.68 95.3052 126.5 95.3052 123.3C95.3052 119.9 97.2252 117.92 100.205 117.92C103.405 117.92 104.965 120.1 104.965 123.72H96.9052C96.9052 125.56 98.0052 127.28 100.225 127.28ZM100.205 119.32C98.2852 119.32 96.9052 120.68 96.9052 122.32H103.365C103.365 120.68 102.125 119.32 100.205 119.32ZM116.793 120.8C116.793 120 116.353 119.32 114.713 119.32C112.773 119.32 112.133 119.88 112.033 121.36H110.433C110.533 119.4 111.753 117.92 114.713 117.92C116.653 117.92 118.393 118.68 118.393 121.14V126.1C118.393 126.9 118.533 127.34 119.553 127.22V128.34C119.133 128.48 118.913 128.5 118.613 128.5C117.653 128.5 117.073 128.24 116.793 127.12H116.753C116.113 128.08 114.973 128.68 113.293 128.68C111.233 128.68 109.933 127.5 109.933 125.78C109.933 123.46 111.653 122.86 114.293 122.36C116.013 122.04 116.793 121.82 116.793 120.8ZM113.453 127.28C115.353 127.28 116.793 126.42 116.793 124.46V122.76C116.493 123.06 115.513 123.34 114.433 123.56C112.453 123.98 111.533 124.48 111.533 125.7C111.533 126.7 112.133 127.28 113.453 127.28ZM125.748 117.92C127.608 117.92 129.168 118.94 129.168 121.28V128.4H127.568V121.68C127.568 120.36 126.948 119.32 125.348 119.32C123.548 119.32 122.348 120.46 122.348 122.04V128.4H120.748V118.2H122.348V119.42H122.388C122.928 118.7 124.008 117.92 125.748 117.92ZM138.575 114.1H140.175V128.4H138.575V127.14H138.535C137.935 127.92 136.975 128.68 135.335 128.68C132.775 128.68 130.735 126.66 130.735 123.3C130.735 119.94 132.775 117.92 135.335 117.92C136.975 117.92 137.935 118.64 138.535 119.52H138.575V114.1ZM135.495 127.28C137.395 127.28 138.575 125.7 138.575 123.3C138.575 120.9 137.395 119.32 135.495 119.32C133.395 119.32 132.335 121.3 132.335 123.3C132.335 125.3 133.395 127.28 135.495 127.28ZM154.893 124.82H148.593L147.333 128.4H145.473L150.753 114.1H152.753L158.013 128.4H156.153L154.893 124.82ZM149.193 123.22H154.313L151.773 115.76H151.733L149.193 123.22ZM165.79 118.2H167.39V128.4H165.79V127.18H165.75C165.21 127.9 164.13 128.68 162.39 128.68C160.53 128.68 158.97 127.66 158.97 125.32V118.2H160.57V124.92C160.57 126.24 161.19 127.28 162.79 127.28C164.59 127.28 165.79 126.14 165.79 124.56V118.2ZM174.036 119.6H172.036V125.74C172.036 126.9 172.676 127.1 174.036 127V128.4C173.676 128.48 173.256 128.52 172.836 128.52C171.476 128.52 170.436 127.98 170.436 125.9V119.6H168.936V118.2H170.436V114.8H172.036V118.2H174.036V119.6ZM180.032 128.68C176.912 128.68 175.032 126.48 175.032 123.3C175.032 120.12 176.912 117.92 180.032 117.92C183.132 117.92 185.012 120.12 185.012 123.3C185.012 126.48 183.132 128.68 180.032 128.68ZM180.032 127.28C182.312 127.28 183.412 125.48 183.412 123.3C183.412 121.12 182.312 119.32 180.032 119.32C177.732 119.32 176.632 121.12 176.632 123.3C176.632 125.48 177.732 127.28 180.032 127.28ZM201.231 118.82C200.971 117.46 199.931 115.42 196.951 115.42C193.551 115.42 192.131 118.36 192.131 121.24C192.131 124.14 193.551 127.08 196.951 127.08C199.951 127.08 201.111 125.04 201.231 123.24H203.031C202.711 126.4 200.471 128.68 196.951 128.68C193.031 128.68 190.331 125.56 190.331 121.24C190.331 116.94 193.031 113.82 196.951 113.82C200.451 113.82 202.691 116.1 203.031 118.82H201.231ZM209.231 128.68C206.111 128.68 204.231 126.48 204.231 123.3C204.231 120.12 206.111 117.92 209.231 117.92C212.331 117.92 214.211 120.12 214.211 123.3C214.211 126.48 212.331 128.68 209.231 128.68ZM209.231 127.28C211.511 127.28 212.611 125.48 212.611 123.3C212.611 121.12 211.511 119.32 209.231 119.32C206.931 119.32 205.831 121.12 205.831 123.3C205.831 125.48 206.931 127.28 209.231 127.28ZM226.487 117.92C228.547 117.92 229.547 119.14 229.547 121.28V128.4H227.947V121.68C227.947 120.36 227.687 119.32 226.087 119.32C224.487 119.32 223.487 120.46 223.487 122.04V128.4H221.887V121.68C221.887 120.36 221.627 119.32 220.027 119.32C218.427 119.32 217.427 120.46 217.427 122.04V128.4H215.827V118.2H217.427V119.42H217.467C218.007 118.7 218.887 117.92 220.427 117.92C221.887 117.92 222.727 118.54 223.147 119.68H223.187C223.887 118.72 224.947 117.92 226.487 117.92ZM236.566 117.92C239.086 117.92 241.126 119.94 241.126 123.3C241.126 126.66 239.086 128.68 236.566 128.68C234.886 128.68 233.926 127.96 233.326 127.08H233.286V131.84H231.686V118.2H233.286V119.46H233.326C233.926 118.68 234.886 117.92 236.566 117.92ZM236.366 127.28C238.466 127.28 239.526 125.3 239.526 123.3C239.526 121.3 238.466 119.32 236.366 119.32C234.466 119.32 233.286 120.9 233.286 123.3C233.286 125.7 234.466 127.28 236.366 127.28ZM247.219 128.68C244.099 128.68 242.219 126.48 242.219 123.3C242.219 120.12 244.099 117.92 247.219 117.92C250.319 117.92 252.199 120.12 252.199 123.3C252.199 126.48 250.319 128.68 247.219 128.68ZM247.219 127.28C249.499 127.28 250.599 125.48 250.599 123.3C250.599 121.12 249.499 119.32 247.219 119.32C244.919 119.32 243.819 121.12 243.819 123.3C243.819 125.48 244.919 127.28 247.219 127.28ZM258.815 117.92C260.675 117.92 262.235 118.94 262.235 121.28V128.4H260.635V121.68C260.635 120.36 260.015 119.32 258.415 119.32C256.615 119.32 255.415 120.46 255.415 122.04V128.4H253.815V118.2H255.415V119.42H255.455C255.995 118.7 257.075 117.92 258.815 117.92ZM268.721 127.28C270.761 127.28 271.521 125.96 271.701 125.26H273.301C272.781 127.16 271.321 128.68 268.781 128.68C265.681 128.68 263.801 126.5 263.801 123.3C263.801 119.9 265.721 117.92 268.701 117.92C271.901 117.92 273.461 120.1 273.461 123.72H265.401C265.401 125.56 266.501 127.28 268.721 127.28ZM268.701 119.32C266.781 119.32 265.401 120.68 265.401 122.32H271.861C271.861 120.68 270.621 119.32 268.701 119.32ZM280.045 117.92C281.905 117.92 283.465 118.94 283.465 121.28V128.4H281.865V121.68C281.865 120.36 281.245 119.32 279.645 119.32C277.845 119.32 276.645 120.46 276.645 122.04V128.4H275.045V118.2H276.645V119.42H276.685C277.225 118.7 278.305 117.92 280.045 117.92ZM289.856 119.6H287.856V125.74C287.856 126.9 288.496 127.1 289.856 127V128.4C289.496 128.48 289.076 128.52 288.656 128.52C287.296 128.52 286.256 127.98 286.256 125.9V119.6H284.756V118.2H286.256V114.8H287.856V118.2H289.856V119.6ZM295.67 122.34C297.49 122.78 299.55 123.08 299.55 125.6C299.55 127.46 297.85 128.68 295.53 128.68C292.41 128.68 290.97 127.2 290.87 125H292.47C292.57 126.14 292.97 127.28 295.53 127.28C297.27 127.28 297.95 126.38 297.95 125.7C297.95 124.22 296.61 124.14 295.15 123.78C293.59 123.4 291.27 123.22 291.27 120.82C291.27 119.22 292.69 117.92 295.09 117.92C297.63 117.92 298.99 119.36 299.15 121.12H297.55C297.39 120.34 297.01 119.32 295.09 119.32C293.65 119.32 292.87 119.9 292.87 120.7C292.87 121.9 294.25 122 295.67 122.34Z" fill="#2B2F34"/>
<path id="17%" d="M326.132 114.58H327.532V128.4H325.732V118.06C324.892 118.86 324.092 118.86 322.852 118.86V117.56C325.272 117.56 325.932 116.38 326.132 114.58ZM329.546 114.58H339.126V115.98C335.986 118.62 333.446 123.94 333.446 128.4H331.546C331.546 123.78 334.666 118.42 337.126 116.22V116.18H329.546V114.58ZM343.43 122.22C341.25 122.22 340.21 120.4 340.21 118.26C340.21 116.12 341.25 114.3 343.43 114.3C345.65 114.3 346.65 116.12 346.65 118.26C346.65 120.4 345.65 122.22 343.43 122.22ZM352.19 114.58L344.93 128.4H343.53L350.79 114.58H352.19ZM343.43 120.82C344.65 120.82 345.25 119.78 345.25 118.26C345.25 116.74 344.65 115.7 343.43 115.7C342.21 115.7 341.61 116.74 341.61 118.26C341.61 119.78 342.21 120.82 343.43 120.82ZM352.29 128.68C350.11 128.68 349.07 126.86 349.07 124.72C349.07 122.58 350.11 120.76 352.29 120.76C354.51 120.76 355.51 122.58 355.51 124.72C355.51 126.86 354.51 128.68 352.29 128.68ZM352.29 127.28C353.51 127.28 354.11 126.24 354.11 124.72C354.11 123.2 353.51 122.16 352.29 122.16C351.07 122.16 350.47 123.2 350.47 124.72C350.47 126.24 351.07 127.28 352.29 127.28Z" fill="#EE0032"/>
</g>
<g id="Share in India&#226;&#128;&#153;s Output_4">
<path id="Textiles and Apparel" d="M130.848 183.6V170.9H126.088V169.3H137.408V170.9H132.648V183.6H130.848ZM141.088 182.48C143.128 182.48 143.888 181.16 144.068 180.46H145.668C145.148 182.36 143.688 183.88 141.148 183.88C138.048 183.88 136.168 181.7 136.168 178.5C136.168 175.1 138.088 173.12 141.068 173.12C144.268 173.12 145.828 175.3 145.828 178.92H137.768C137.768 180.76 138.868 182.48 141.088 182.48ZM141.068 174.52C139.148 174.52 137.768 175.88 137.768 177.52H144.228C144.228 175.88 142.988 174.52 141.068 174.52ZM146.265 173.4H148.165L150.805 177.3H150.845L153.485 173.4H155.385L151.785 178.38L155.745 183.6H153.845L150.845 179.44H150.805L147.825 183.6H145.925L149.865 178.38L146.265 173.4ZM161.013 174.8H159.013V180.94C159.013 182.1 159.653 182.3 161.013 182.2V183.6C160.653 183.68 160.233 183.72 159.813 183.72C158.453 183.72 157.413 183.18 157.413 181.1V174.8H155.913V173.4H157.413V170H159.013V173.4H161.013V174.8ZM163.686 171.42C163.246 171.42 162.686 171.08 162.686 170.46C162.686 169.84 163.246 169.5 163.686 169.5C164.146 169.5 164.686 169.84 164.686 170.46C164.686 171.08 164.146 171.42 163.686 171.42ZM162.886 173.4H164.486V183.6H162.886V173.4ZM166.75 169.3H168.35V183.6H166.75V169.3ZM174.956 182.48C176.996 182.48 177.756 181.16 177.936 180.46H179.536C179.016 182.36 177.556 183.88 175.016 183.88C171.916 183.88 170.036 181.7 170.036 178.5C170.036 175.1 171.956 173.12 174.936 173.12C178.136 173.12 179.696 175.3 179.696 178.92H171.636C171.636 180.76 172.736 182.48 174.956 182.48ZM174.936 174.52C173.016 174.52 171.636 175.88 171.636 177.52H178.096C178.096 175.88 176.856 174.52 174.936 174.52ZM185.42 177.54C187.24 177.98 189.3 178.28 189.3 180.8C189.3 182.66 187.6 183.88 185.28 183.88C182.16 183.88 180.72 182.4 180.62 180.2H182.22C182.32 181.34 182.72 182.48 185.28 182.48C187.02 182.48 187.7 181.58 187.7 180.9C187.7 179.42 186.36 179.34 184.9 178.98C183.34 178.6 181.02 178.42 181.02 176.02C181.02 174.42 182.44 173.12 184.84 173.12C187.38 173.12 188.74 174.56 188.9 176.32H187.3C187.14 175.54 186.76 174.52 184.84 174.52C183.4 174.52 182.62 175.1 182.62 175.9C182.62 177.1 184 177.2 185.42 177.54ZM201.094 176C201.094 175.2 200.654 174.52 199.014 174.52C197.074 174.52 196.434 175.08 196.334 176.56H194.734C194.834 174.6 196.054 173.12 199.014 173.12C200.954 173.12 202.694 173.88 202.694 176.34V181.3C202.694 182.1 202.834 182.54 203.854 182.42V183.54C203.434 183.68 203.214 183.7 202.914 183.7C201.954 183.7 201.374 183.44 201.094 182.32H201.054C200.414 183.28 199.274 183.88 197.594 183.88C195.534 183.88 194.234 182.7 194.234 180.98C194.234 178.66 195.954 178.06 198.594 177.56C200.314 177.24 201.094 177.02 201.094 176ZM197.754 182.48C199.654 182.48 201.094 181.62 201.094 179.66V177.96C200.794 178.26 199.814 178.54 198.734 178.76C196.754 179.18 195.834 179.68 195.834 180.9C195.834 181.9 196.434 182.48 197.754 182.48ZM210.049 173.12C211.909 173.12 213.469 174.14 213.469 176.48V183.6H211.869V176.88C211.869 175.56 211.249 174.52 209.649 174.52C207.849 174.52 206.649 175.66 206.649 177.24V183.6H205.049V173.4H206.649V174.62H206.689C207.229 173.9 208.309 173.12 210.049 173.12ZM222.876 169.3H224.476V183.6H222.876V182.34H222.836C222.236 183.12 221.276 183.88 219.636 183.88C217.076 183.88 215.036 181.86 215.036 178.5C215.036 175.14 217.076 173.12 219.636 173.12C221.276 173.12 222.236 173.84 222.836 174.72H222.876V169.3ZM219.796 182.48C221.696 182.48 222.876 180.9 222.876 178.5C222.876 176.1 221.696 174.52 219.796 174.52C217.696 174.52 216.636 176.5 216.636 178.5C216.636 180.5 217.696 182.48 219.796 182.48ZM239.194 180.02H232.894L231.634 183.6H229.774L235.054 169.3H237.054L242.314 183.6H240.454L239.194 180.02ZM233.494 178.42H238.614L236.074 170.96H236.034L233.494 178.42ZM248.503 173.12C251.023 173.12 253.063 175.14 253.063 178.5C253.063 181.86 251.023 183.88 248.503 183.88C246.823 183.88 245.863 183.16 245.263 182.28H245.223V187.04H243.623V173.4H245.223V174.66H245.263C245.863 173.88 246.823 173.12 248.503 173.12ZM248.303 182.48C250.403 182.48 251.463 180.5 251.463 178.5C251.463 176.5 250.403 174.52 248.303 174.52C246.403 174.52 245.223 176.1 245.223 178.5C245.223 180.9 246.403 182.48 248.303 182.48ZM259.617 173.12C262.137 173.12 264.177 175.14 264.177 178.5C264.177 181.86 262.137 183.88 259.617 183.88C257.937 183.88 256.977 183.16 256.377 182.28H256.337V187.04H254.737V173.4H256.337V174.66H256.377C256.977 173.88 257.937 173.12 259.617 173.12ZM259.417 182.48C261.517 182.48 262.577 180.5 262.577 178.5C262.577 176.5 261.517 174.52 259.417 174.52C257.517 174.52 256.337 176.1 256.337 178.5C256.337 180.9 257.517 182.48 259.417 182.48ZM272.09 176C272.09 175.2 271.65 174.52 270.01 174.52C268.07 174.52 267.43 175.08 267.33 176.56H265.73C265.83 174.6 267.05 173.12 270.01 173.12C271.95 173.12 273.69 173.88 273.69 176.34V181.3C273.69 182.1 273.83 182.54 274.85 182.42V183.54C274.43 183.68 274.21 183.7 273.91 183.7C272.95 183.7 272.37 183.44 272.09 182.32H272.05C271.41 183.28 270.27 183.88 268.59 183.88C266.53 183.88 265.23 182.7 265.23 180.98C265.23 178.66 266.95 178.06 269.59 177.56C271.31 177.24 272.09 177.02 272.09 176ZM268.75 182.48C270.65 182.48 272.09 181.62 272.09 179.66V177.96C271.79 178.26 270.81 178.54 269.73 178.76C267.75 179.18 266.83 179.68 266.83 180.9C266.83 181.9 267.43 182.48 268.75 182.48ZM280.505 173.12C280.885 173.12 281.165 173.14 281.445 173.18V174.78H281.405C279.185 174.42 277.645 175.98 277.645 178.16V183.6H276.045V173.4H277.645V175.42H277.685C278.225 174.08 279.045 173.12 280.505 173.12ZM286.85 182.48C288.89 182.48 289.65 181.16 289.83 180.46H291.43C290.91 182.36 289.45 183.88 286.91 183.88C283.81 183.88 281.93 181.7 281.93 178.5C281.93 175.1 283.85 173.12 286.83 173.12C290.03 173.12 291.59 175.3 291.59 178.92H283.53C283.53 180.76 284.63 182.48 286.85 182.48ZM286.83 174.52C284.91 174.52 283.53 175.88 283.53 177.52H289.99C289.99 175.88 288.75 174.52 286.83 174.52ZM293.234 169.3H294.834V183.6H293.234V169.3Z" fill="#2B2F34"/>
<path id="10%" d="M324.374 169.78H325.774V183.6H323.974V173.26C323.134 174.06 322.334 174.06 321.094 174.06V172.76C323.514 172.76 324.174 171.58 324.374 169.78ZM333.528 183.88C329.748 183.88 328.208 180.62 328.208 176.7C328.208 172.78 329.748 169.5 333.528 169.5C337.308 169.5 338.848 172.78 338.848 176.7C338.848 180.62 337.308 183.88 333.528 183.88ZM333.528 182.28C336.168 182.28 337.048 179.64 337.048 176.7C337.048 173.76 336.168 171.1 333.528 171.1C330.888 171.1 330.008 173.76 330.008 176.7C330.008 179.64 330.888 182.28 333.528 182.28ZM343.43 177.42C341.25 177.42 340.21 175.6 340.21 173.46C340.21 171.32 341.25 169.5 343.43 169.5C345.65 169.5 346.65 171.32 346.65 173.46C346.65 175.6 345.65 177.42 343.43 177.42ZM352.19 169.78L344.93 183.6H343.53L350.79 169.78H352.19ZM343.43 176.02C344.65 176.02 345.25 174.98 345.25 173.46C345.25 171.94 344.65 170.9 343.43 170.9C342.21 170.9 341.61 171.94 341.61 173.46C341.61 174.98 342.21 176.02 343.43 176.02ZM352.29 183.88C350.11 183.88 349.07 182.06 349.07 179.92C349.07 177.78 350.11 175.96 352.29 175.96C354.51 175.96 355.51 177.78 355.51 179.92C355.51 182.06 354.51 183.88 352.29 183.88ZM352.29 182.48C353.51 182.48 354.11 181.44 354.11 179.92C354.11 178.4 353.51 177.36 352.29 177.36C351.07 177.36 350.47 178.4 350.47 179.92C350.47 181.44 351.07 182.48 352.29 182.48Z" fill="#FF5100"/>
</g>
<g id="Share in India&#226;&#128;&#153;s Output_5">
<path id="Food and Agro Processing" d="M74.8431 230.74H81.2231V232.34H74.8431V238.8H73.0431V224.5H82.7431V226.1H74.8431V230.74ZM87.8872 239.08C84.7672 239.08 82.8872 236.88 82.8872 233.7C82.8872 230.52 84.7672 228.32 87.8872 228.32C90.9872 228.32 92.8672 230.52 92.8672 233.7C92.8672 236.88 90.9872 239.08 87.8872 239.08ZM87.8872 237.68C90.1672 237.68 91.2672 235.88 91.2672 233.7C91.2672 231.52 90.1672 229.72 87.8872 229.72C85.5872 229.72 84.4872 231.52 84.4872 233.7C84.4872 235.88 85.5872 237.68 87.8872 237.68ZM98.9028 239.08C95.7828 239.08 93.9028 236.88 93.9028 233.7C93.9028 230.52 95.7828 228.32 98.9028 228.32C102.003 228.32 103.883 230.52 103.883 233.7C103.883 236.88 102.003 239.08 98.9028 239.08ZM98.9028 237.68C101.183 237.68 102.283 235.88 102.283 233.7C102.283 231.52 101.183 229.72 98.9028 229.72C96.6028 229.72 95.5028 231.52 95.5028 233.7C95.5028 235.88 96.6028 237.68 98.9028 237.68ZM112.758 224.5H114.358V238.8H112.758V237.54H112.718C112.118 238.32 111.158 239.08 109.518 239.08C106.958 239.08 104.918 237.06 104.918 233.7C104.918 230.34 106.958 228.32 109.518 228.32C111.158 228.32 112.118 229.04 112.718 229.92H112.758V224.5ZM109.678 237.68C111.578 237.68 112.758 236.1 112.758 233.7C112.758 231.3 111.578 229.72 109.678 229.72C107.578 229.72 106.518 231.7 106.518 233.7C106.518 235.7 107.578 237.68 109.678 237.68ZM126.797 231.2C126.797 230.4 126.357 229.72 124.717 229.72C122.777 229.72 122.137 230.28 122.037 231.76H120.437C120.537 229.8 121.757 228.32 124.717 228.32C126.657 228.32 128.397 229.08 128.397 231.54V236.5C128.397 237.3 128.537 237.74 129.557 237.62V238.74C129.137 238.88 128.917 238.9 128.617 238.9C127.657 238.9 127.077 238.64 126.797 237.52H126.757C126.117 238.48 124.977 239.08 123.297 239.08C121.237 239.08 119.937 237.9 119.937 236.18C119.937 233.86 121.657 233.26 124.297 232.76C126.017 232.44 126.797 232.22 126.797 231.2ZM123.457 237.68C125.357 237.68 126.797 236.82 126.797 234.86V233.16C126.497 233.46 125.517 233.74 124.437 233.96C122.457 234.38 121.537 234.88 121.537 236.1C121.537 237.1 122.137 237.68 123.457 237.68ZM135.752 228.32C137.612 228.32 139.172 229.34 139.172 231.68V238.8H137.572V232.08C137.572 230.76 136.952 229.72 135.352 229.72C133.552 229.72 132.352 230.86 132.352 232.44V238.8H130.752V228.6H132.352V229.82H132.392C132.932 229.1 134.012 228.32 135.752 228.32ZM148.579 224.5H150.179V238.8H148.579V237.54H148.539C147.939 238.32 146.979 239.08 145.339 239.08C142.779 239.08 140.739 237.06 140.739 233.7C140.739 230.34 142.779 228.32 145.339 228.32C146.979 228.32 147.939 229.04 148.539 229.92H148.579V224.5ZM145.499 237.68C147.399 237.68 148.579 236.1 148.579 233.7C148.579 231.3 147.399 229.72 145.499 229.72C143.399 229.72 142.339 231.7 142.339 233.7C142.339 235.7 143.399 237.68 145.499 237.68ZM164.897 235.22H158.597L157.337 238.8H155.477L160.757 224.5H162.757L168.017 238.8H166.157L164.897 235.22ZM159.197 233.62H164.317L161.777 226.16H161.737L159.197 233.62ZM176.294 228.6H177.894V238.24C177.894 240.96 176.174 242.34 173.374 242.34C170.574 242.34 168.914 240.86 168.754 239.12H170.354C170.554 240.16 171.394 240.94 173.294 240.94C175.194 240.94 176.294 240.12 176.294 238.22V236.68H176.254C175.654 237.56 174.694 238.28 173.014 238.28C170.494 238.28 168.454 236.66 168.454 233.3C168.454 229.94 170.494 228.32 173.014 228.32C174.694 228.32 175.654 229.08 176.254 229.86H176.294V228.6ZM173.214 236.88C175.114 236.88 176.294 235.7 176.294 233.3C176.294 230.9 175.114 229.72 173.214 229.72C171.114 229.72 170.054 231.3 170.054 233.3C170.054 235.3 171.114 236.88 173.214 236.88ZM184.548 228.32C184.928 228.32 185.208 228.34 185.488 228.38V229.98H185.448C183.228 229.62 181.688 231.18 181.688 233.36V238.8H180.088V228.6H181.688V230.62H181.728C182.268 229.28 183.088 228.32 184.548 228.32ZM190.973 239.08C187.853 239.08 185.973 236.88 185.973 233.7C185.973 230.52 187.853 228.32 190.973 228.32C194.073 228.32 195.953 230.52 195.953 233.7C195.953 236.88 194.073 239.08 190.973 239.08ZM190.973 237.68C193.253 237.68 194.353 235.88 194.353 233.7C194.353 231.52 193.253 229.72 190.973 229.72C188.673 229.72 187.573 231.52 187.573 233.7C187.573 235.88 188.673 237.68 190.973 237.68ZM201.813 238.8V224.5H207.493C210.113 224.5 212.133 225.66 212.133 228.66C212.133 231.66 210.113 232.82 207.493 232.82H203.613V238.8H201.813ZM203.613 226.1V231.22H207.693C209.473 231.22 210.333 230.4 210.333 228.66C210.333 226.92 209.473 226.1 207.693 226.1H203.613ZM218.083 228.32C218.463 228.32 218.743 228.34 219.023 228.38V229.98H218.983C216.763 229.62 215.223 231.18 215.223 233.36V238.8H213.623V228.6H215.223V230.62H215.263C215.803 229.28 216.623 228.32 218.083 228.32ZM224.508 239.08C221.388 239.08 219.508 236.88 219.508 233.7C219.508 230.52 221.388 228.32 224.508 228.32C227.608 228.32 229.488 230.52 229.488 233.7C229.488 236.88 227.608 239.08 224.508 239.08ZM224.508 237.68C226.788 237.68 227.888 235.88 227.888 233.7C227.888 231.52 226.788 229.72 224.508 229.72C222.208 229.72 221.108 231.52 221.108 233.7C221.108 235.88 222.208 237.68 224.508 237.68ZM238.344 232.28C238.264 231.16 237.504 229.72 235.464 229.72C233.044 229.72 232.124 231.78 232.124 233.7C232.124 235.62 233.044 237.68 235.464 237.68C237.524 237.68 238.264 236.26 238.344 235.04H239.944C239.804 237.36 237.984 239.08 235.464 239.08C232.484 239.08 230.524 236.9 230.524 233.7C230.524 230.5 232.484 228.32 235.464 228.32C237.984 228.32 239.704 230 239.944 232.28H238.344ZM245.815 237.68C247.855 237.68 248.615 236.36 248.795 235.66H250.395C249.875 237.56 248.415 239.08 245.875 239.08C242.775 239.08 240.895 236.9 240.895 233.7C240.895 230.3 242.815 228.32 245.795 228.32C248.995 228.32 250.555 230.5 250.555 234.12H242.495C242.495 235.96 243.595 237.68 245.815 237.68ZM245.795 229.72C243.875 229.72 242.495 231.08 242.495 232.72H248.955C248.955 231.08 247.715 229.72 245.795 229.72ZM256.279 232.74C258.099 233.18 260.159 233.48 260.159 236C260.159 237.86 258.459 239.08 256.139 239.08C253.019 239.08 251.579 237.6 251.479 235.4H253.079C253.179 236.54 253.579 237.68 256.139 237.68C257.879 237.68 258.559 236.78 258.559 236.1C258.559 234.62 257.219 234.54 255.759 234.18C254.199 233.8 251.879 233.62 251.879 231.22C251.879 229.62 253.299 228.32 255.699 228.32C258.239 228.32 259.599 229.76 259.759 231.52H258.159C257.999 230.74 257.619 229.72 255.699 229.72C254.259 229.72 253.479 230.3 253.479 231.1C253.479 232.3 254.859 232.4 256.279 232.74ZM265.849 232.74C267.669 233.18 269.729 233.48 269.729 236C269.729 237.86 268.029 239.08 265.709 239.08C262.589 239.08 261.149 237.6 261.049 235.4H262.649C262.749 236.54 263.149 237.68 265.709 237.68C267.449 237.68 268.129 236.78 268.129 236.1C268.129 234.62 266.789 234.54 265.329 234.18C263.769 233.8 261.449 233.62 261.449 231.22C261.449 229.62 262.869 228.32 265.269 228.32C267.809 228.32 269.169 229.76 269.329 231.52H267.729C267.569 230.74 267.189 229.72 265.269 229.72C263.829 229.72 263.049 230.3 263.049 231.1C263.049 232.3 264.429 232.4 265.849 232.74ZM272.28 226.62C271.84 226.62 271.28 226.28 271.28 225.66C271.28 225.04 271.84 224.7 272.28 224.7C272.74 224.7 273.28 225.04 273.28 225.66C273.28 226.28 272.74 226.62 272.28 226.62ZM271.48 228.6H273.08V238.8H271.48V228.6ZM280.479 228.32C282.339 228.32 283.899 229.34 283.899 231.68V238.8H282.299V232.08C282.299 230.76 281.679 229.72 280.079 229.72C278.279 229.72 277.079 230.86 277.079 232.44V238.8H275.479V228.6H277.079V229.82H277.119C277.659 229.1 278.739 228.32 280.479 228.32ZM293.305 228.6H294.905V238.24C294.905 240.96 293.185 242.34 290.385 242.34C287.585 242.34 285.925 240.86 285.765 239.12H287.365C287.565 240.16 288.405 240.94 290.305 240.94C292.205 240.94 293.305 240.12 293.305 238.22V236.68H293.265C292.665 237.56 291.705 238.28 290.025 238.28C287.505 238.28 285.465 236.66 285.465 233.3C285.465 229.94 287.505 228.32 290.025 228.32C291.705 228.32 292.665 229.08 293.265 229.86H293.305V228.6ZM290.225 236.88C292.125 236.88 293.305 235.7 293.305 233.3C293.305 230.9 292.125 229.72 290.225 229.72C288.125 229.72 287.065 231.3 287.065 233.3C287.065 235.3 288.125 236.88 290.225 236.88Z" fill="#2B2F34"/>
<path id="8%" d="M328.711 234.92C328.711 233 329.951 232.06 331.271 231.48V231.44C330.291 230.92 329.411 230.04 329.411 228.48C329.411 226.1 331.251 224.7 333.891 224.7C336.531 224.7 338.371 226.1 338.371 228.48C338.371 230.04 337.471 230.92 336.511 231.44V231.48C337.811 232.06 339.071 233 339.071 234.92C339.071 237.7 336.851 239.08 333.891 239.08C330.931 239.08 328.711 237.7 328.711 234.92ZM333.891 230.66C335.491 230.66 336.571 230.02 336.571 228.48C336.571 226.98 335.491 226.3 333.891 226.3C332.291 226.3 331.211 226.98 331.211 228.48C331.211 230.02 332.291 230.66 333.891 230.66ZM333.891 237.48C335.951 237.48 337.271 236.58 337.271 234.86C337.271 233.18 335.951 232.26 333.891 232.26C331.831 232.26 330.511 233.18 330.511 234.86C330.511 236.58 331.831 237.48 333.891 237.48ZM343.43 232.62C341.25 232.62 340.21 230.8 340.21 228.66C340.21 226.52 341.25 224.7 343.43 224.7C345.65 224.7 346.65 226.52 346.65 228.66C346.65 230.8 345.65 232.62 343.43 232.62ZM352.19 224.98L344.93 238.8H343.53L350.79 224.98H352.19ZM343.43 231.22C344.65 231.22 345.25 230.18 345.25 228.66C345.25 227.14 344.65 226.1 343.43 226.1C342.21 226.1 341.61 227.14 341.61 228.66C341.61 230.18 342.21 231.22 343.43 231.22ZM352.29 239.08C350.11 239.08 349.07 237.26 349.07 235.12C349.07 232.98 350.11 231.16 352.29 231.16C354.51 231.16 355.51 232.98 355.51 235.12C355.51 237.26 354.51 239.08 352.29 239.08ZM352.29 237.68C353.51 237.68 354.11 236.64 354.11 235.12C354.11 233.6 353.51 232.56 352.29 232.56C351.07 232.56 350.47 233.6 350.47 235.12C350.47 236.64 351.07 237.68 352.29 237.68Z" fill="#6C4FFF"/>
</g>
<g id="Share in India&#226;&#128;&#153;s Output_6">
<path id="Others" d="M244.425 294.28C240.225 294.28 237.425 291.14 237.425 286.84C237.425 282.54 240.225 279.42 244.425 279.42C248.625 279.42 251.425 282.54 251.425 286.84C251.425 291.14 248.625 294.28 244.425 294.28ZM244.425 292.68C248.025 292.68 249.625 289.92 249.625 286.84C249.625 283.76 248.025 281.02 244.425 281.02C240.825 281.02 239.225 283.76 239.225 286.84C239.225 289.92 240.825 292.68 244.425 292.68ZM257.77 285.2H255.77V291.34C255.77 292.5 256.41 292.7 257.77 292.6V294C257.41 294.08 256.99 294.12 256.57 294.12C255.21 294.12 254.17 293.58 254.17 291.5V285.2H252.67V283.8H254.17V280.4H255.77V283.8H257.77V285.2ZM264.444 283.52C266.304 283.52 267.864 284.54 267.864 286.88V294H266.264V287.28C266.264 285.96 265.644 284.92 264.044 284.92C262.244 284.92 261.044 286.06 261.044 287.64V294H259.444V279.7H261.044V285.02H261.084C261.624 284.3 262.704 283.52 264.444 283.52ZM274.35 292.88C276.39 292.88 277.15 291.56 277.33 290.86H278.93C278.41 292.76 276.95 294.28 274.41 294.28C271.31 294.28 269.43 292.1 269.43 288.9C269.43 285.5 271.35 283.52 274.33 283.52C277.53 283.52 279.09 285.7 279.09 289.32H271.03C271.03 291.16 272.13 292.88 274.35 292.88ZM274.33 284.92C272.41 284.92 271.03 286.28 271.03 287.92H277.49C277.49 286.28 276.25 284.92 274.33 284.92ZM285.134 283.52C285.514 283.52 285.794 283.54 286.074 283.58V285.18H286.034C283.814 284.82 282.274 286.38 282.274 288.56V294H280.674V283.8H282.274V285.82H282.314C282.854 284.48 283.674 283.52 285.134 283.52ZM291.67 287.94C293.49 288.38 295.55 288.68 295.55 291.2C295.55 293.06 293.85 294.28 291.53 294.28C288.41 294.28 286.97 292.8 286.87 290.6H288.47C288.57 291.74 288.97 292.88 291.53 292.88C293.27 292.88 293.95 291.98 293.95 291.3C293.95 289.82 292.61 289.74 291.15 289.38C289.59 289 287.27 288.82 287.27 286.42C287.27 284.82 288.69 283.52 291.09 283.52C293.63 283.52 294.99 284.96 295.15 286.72H293.55C293.39 285.94 293.01 284.92 291.09 284.92C289.65 284.92 288.87 285.5 288.87 286.3C288.87 287.5 290.25 287.6 291.67 287.94Z" fill="#2B2F34"/>
<path id="18%" d="M325.097 280.18H326.497V294H324.697V283.66C323.857 284.46 323.057 284.46 321.817 284.46V283.16C324.237 283.16 324.897 281.98 325.097 280.18ZM328.711 290.12C328.711 288.2 329.951 287.26 331.271 286.68V286.64C330.291 286.12 329.411 285.24 329.411 283.68C329.411 281.3 331.251 279.9 333.891 279.9C336.531 279.9 338.371 281.3 338.371 283.68C338.371 285.24 337.471 286.12 336.511 286.64V286.68C337.811 287.26 339.071 288.2 339.071 290.12C339.071 292.9 336.851 294.28 333.891 294.28C330.931 294.28 328.711 292.9 328.711 290.12ZM333.891 285.86C335.491 285.86 336.571 285.22 336.571 283.68C336.571 282.18 335.491 281.5 333.891 281.5C332.291 281.5 331.211 282.18 331.211 283.68C331.211 285.22 332.291 285.86 333.891 285.86ZM333.891 292.68C335.951 292.68 337.271 291.78 337.271 290.06C337.271 288.38 335.951 287.46 333.891 287.46C331.831 287.46 330.511 288.38 330.511 290.06C330.511 291.78 331.831 292.68 333.891 292.68ZM343.43 287.82C341.25 287.82 340.21 286 340.21 283.86C340.21 281.72 341.25 279.9 343.43 279.9C345.65 279.9 346.65 281.72 346.65 283.86C346.65 286 345.65 287.82 343.43 287.82ZM352.19 280.18L344.93 294H343.53L350.79 280.18H352.19ZM343.43 286.42C344.65 286.42 345.25 285.38 345.25 283.86C345.25 282.34 344.65 281.3 343.43 281.3C342.21 281.3 341.61 282.34 341.61 283.86C341.61 285.38 342.21 286.42 343.43 286.42ZM352.29 294.28C350.11 294.28 349.07 292.46 349.07 290.32C349.07 288.18 350.11 286.36 352.29 286.36C354.51 286.36 355.51 288.18 355.51 290.32C355.51 292.46 354.51 294.28 352.29 294.28ZM352.29 292.88C353.51 292.88 354.11 291.84 354.11 290.32C354.11 288.8 353.51 287.76 352.29 287.76C351.07 287.76 350.47 288.8 350.47 290.32C350.47 291.84 351.07 292.88 352.29 292.88Z" fill="#E300D4"/>
</g>
</g>
</g>
<defs>
<linearGradient id="paint0_linear_245_1740" x1="177" y1="188.399" x2="557" y2="188.399" gradientUnits="userSpaceOnUse">
<stop stop-color="#EFEFEF" stop-opacity="0"/>
<stop offset="1" stop-color="#EFEFEF"/>
</linearGradient>
<linearGradient id="paint1_linear_245_1740" x1="315" y1="330.247" x2="419" y2="330.247" gradientUnits="userSpaceOnUse">
<stop stop-color="#EFEFEF" stop-opacity="0"/>
<stop offset="1" stop-color="#EFEFEF"/>
</linearGradient>
<linearGradient id="paint2_linear_245_1740" x1="286" y1="304.538" x2="448" y2="305.231" gradientUnits="userSpaceOnUse">
<stop stop-color="#EFEFEF" stop-opacity="0"/>
<stop offset="1" stop-color="#EFEFEF"/>
</linearGradient>
<linearGradient id="paint3_linear_245_1740" x1="259" y1="268.618" x2="475" y2="276.185" gradientUnits="userSpaceOnUse">
<stop stop-color="#EFEFEF" stop-opacity="0"/>
<stop offset="1" stop-color="#EFEFEF"/>
</linearGradient>
<linearGradient id="paint4_linear_245_1740" x1="231" y1="235.051" x2="503" y2="235.051" gradientUnits="userSpaceOnUse">
<stop stop-color="#EFEFEF" stop-opacity="0"/>
<stop offset="1" stop-color="#EFEFEF"/>
</linearGradient>
<linearGradient id="paint5_linear_245_1740" x1="204" y1="221.186" x2="530" y2="221.873" gradientUnits="userSpaceOnUse">
<stop stop-color="#E5E5E5" stop-opacity="0"/>
<stop offset="1" stop-color="#EFEFEF"/>
</linearGradient>
</defs>
</svg>
