<svg width="532" height="383" viewBox="0 0 532 383" fill="none" xmlns="http://www.w3.org/2000/svg">
<g id="Services">
<g id="Pie chart">
<path id="Fullsegment" d="M531.307 194C531.307 169.14 526.411 144.523 516.897 121.555C507.383 98.5875 493.439 77.7184 475.86 60.1396C458.282 42.5608 437.413 28.6166 414.445 19.103C391.477 9.58941 366.86 4.69283 342 4.69284C317.14 4.69284 292.523 9.58941 269.555 19.103C246.587 28.6166 225.718 42.5608 208.14 60.1396C190.561 77.7184 176.617 98.5875 167.103 121.555C157.589 144.523 152.693 169.14 152.693 194C152.693 218.86 157.589 243.477 167.103 266.445C176.617 289.413 190.561 310.282 208.14 327.86C225.718 345.439 246.588 359.383 269.555 368.897C292.523 378.411 317.14 383.307 342 383.307C366.86 383.307 391.477 378.411 414.445 368.897C437.413 359.383 458.282 345.439 475.86 327.86C493.439 310.282 507.383 289.412 516.897 266.445C526.411 243.477 531.307 218.86 531.307 194L531.307 194Z" stroke="url(#paint0_linear_245_1781)" stroke-width="1.38567"/>
<path id="Fullsegment_2" d="M388.609 310.178C385.792 304.057 381.797 298.551 376.853 293.974C371.908 289.397 366.11 285.839 359.791 283.503C353.471 281.166 346.753 280.098 340.02 280.358C333.287 280.617 326.672 282.201 320.551 285.018C314.43 287.834 308.924 291.829 304.347 296.774C299.77 301.718 296.212 307.516 293.876 313.836C291.54 320.155 290.471 326.873 290.731 333.606C290.991 340.339 292.574 346.955 295.391 353.075C298.208 359.196 302.203 364.702 307.147 369.279C312.092 373.856 317.889 377.414 324.209 379.75C330.529 382.087 337.247 383.155 343.98 382.895C350.712 382.635 357.328 381.052 363.449 378.235C369.569 375.418 375.075 371.424 379.652 366.479C384.229 361.535 387.788 355.737 390.124 349.417C392.46 343.097 393.529 336.379 393.269 329.647C393.009 322.914 391.425 316.298 388.609 310.178L388.609 310.178Z" stroke="url(#paint1_linear_245_1781)" stroke-width="1.38567"/>
<path id="Fullsegment_3" d="M382.093 233.044C372.955 227.778 362.87 224.365 352.413 222.997C341.956 221.63 331.332 222.335 321.147 225.074C310.963 227.812 301.418 232.53 293.057 238.957C284.695 245.384 277.682 253.396 272.417 262.533C267.152 271.671 263.738 281.756 262.371 292.214C261.003 302.671 261.709 313.295 264.447 323.479C267.186 333.663 271.903 343.209 278.33 351.57C284.758 359.931 292.769 366.944 301.907 372.209C311.045 377.475 321.13 380.888 331.587 382.256C342.044 383.623 352.668 382.918 362.852 380.179C373.037 377.441 382.582 372.723 390.943 366.296C399.304 359.869 406.318 351.857 411.583 342.72C416.848 333.582 420.262 323.496 421.629 313.039C422.997 302.582 422.291 291.958 419.553 281.774C416.814 271.59 412.097 262.044 405.669 253.683C399.242 245.322 391.231 238.309 382.093 233.044L382.093 233.044Z" stroke="url(#paint2_linear_245_1781)" stroke-width="1.38567"/>
<path id="Fullsegment_4" d="M406.183 189.631C394.89 181.202 382.048 175.08 368.389 171.615C354.73 168.149 340.522 167.408 326.576 169.434C312.631 171.459 299.221 176.211 287.112 183.419C275.003 190.627 264.433 200.15 256.004 211.443C247.575 222.736 241.453 235.579 237.988 249.238C234.523 262.897 233.782 277.105 235.807 291.05C237.832 304.996 242.585 318.406 249.793 330.514C257.001 342.623 266.523 353.194 277.816 361.622C289.109 370.051 301.952 376.173 315.611 379.638C329.27 383.104 343.478 383.845 357.424 381.819C371.369 379.794 384.779 375.042 396.888 367.834C408.997 360.626 419.567 351.103 427.996 339.81C436.425 328.517 442.546 315.674 446.012 302.015C449.477 288.356 450.218 274.148 448.193 260.203C446.167 246.257 441.415 232.847 434.207 220.739C426.999 208.63 417.477 198.059 406.183 189.631L406.183 189.631Z" stroke="url(#paint3_linear_245_1781)" stroke-width="1.38567"/>
<path id="Fullsegment_5" d="M461.22 183.638C452.817 167.982 441.413 154.134 427.658 142.885C413.903 131.636 398.067 123.207 381.055 118.078C364.042 112.949 346.186 111.222 328.506 112.994C310.826 114.766 293.668 120.003 278.011 128.406C262.355 136.809 248.507 148.214 237.259 161.969C226.01 175.723 217.58 191.559 212.452 208.572C207.323 225.584 205.595 243.44 207.367 261.121C209.139 278.801 214.377 295.959 222.78 311.615C231.183 327.271 242.587 341.119 256.342 352.368C270.097 363.617 285.933 372.046 302.945 377.175C319.958 382.303 337.814 384.031 355.494 382.259C373.174 380.487 390.332 375.25 405.989 366.847C421.645 358.444 435.493 347.039 446.741 333.284C457.99 319.53 466.42 303.694 471.548 286.681C476.677 269.669 478.405 251.813 476.633 234.132C474.861 216.452 469.623 199.294 461.22 183.638L461.22 183.638Z" stroke="url(#paint4_linear_245_1781)" stroke-width="1.38567"/>
<path id="Fullsegment_6" d="M501.647 191.361C497.804 170.396 489.869 150.393 478.295 132.495C466.722 114.596 451.736 99.1525 434.194 87.0454C416.652 74.9383 396.897 66.405 376.057 61.9326C355.217 57.4602 333.7 57.1363 312.735 60.9794C291.77 64.8226 271.767 72.7575 253.868 84.3311C235.97 95.9047 220.526 110.89 208.419 128.433C196.312 145.975 187.778 165.73 183.306 186.57C178.834 207.41 178.51 228.926 182.353 249.892C186.196 270.857 194.131 290.86 205.705 308.758C217.278 326.657 232.264 342.1 249.806 354.208C267.348 366.315 287.103 374.848 307.943 379.32C328.783 383.793 350.3 384.117 371.265 380.273C392.23 376.43 412.233 368.495 430.132 356.922C448.03 345.348 463.474 330.363 475.581 312.82C487.688 295.278 496.221 275.523 500.694 254.683C505.166 233.843 505.49 212.327 501.647 191.361L501.647 191.361Z" stroke="url(#paint5_linear_245_1781)" stroke-width="1.38567"/>
<path id="segment" d="M531.003 205.895C532.628 180.085 528.948 154.215 520.189 129.882C511.429 105.549 497.777 83.2693 480.075 64.4163C462.372 45.5634 440.995 30.5376 417.261 20.2658C393.527 9.99392 367.94 4.69396 342.079 4.69284" stroke="#215CFF" stroke-width="1.38567"/>
<path id="segment_2" d="M499.369 180.896C490.552 145.971 470.367 114.972 441.995 92.7803C413.622 70.5887 378.674 58.4657 342.654 58.3206" stroke="#039C6D" stroke-width="1.38567"/>
<path id="segment_3" d="M452.06 168.92C439.64 151.551 423.285 137.369 404.332 127.532C385.38 117.695 364.369 112.484 343.017 112.323" stroke="#EE0032" stroke-width="1.38567"/>
<path id="segment_4" d="M405.696 189.268C387.458 175.817 365.431 168.485 342.771 168.322" stroke="#FF5100" stroke-width="1.38567"/>
<path id="segment_5" d="M385.773 235.298C372.996 226.991 358.12 222.491 342.882 222.324" stroke="#6C4FFF" stroke-width="1.38567"/>
<path id="segment_6" d="M389.949 313.369C386.289 303.757 379.825 295.467 371.395 289.575C362.966 283.682 352.96 280.459 342.676 280.324" stroke="#E300D4" stroke-width="1.38567"/>
</g>
<g id="Frame 6451">
<g id="Share in India&#226;&#128;&#153;s Output">
<path id="Financial Services" d="M118.292 9.94H124.672V11.54H118.292V18H116.492V3.7H126.192V5.3H118.292V9.94ZM128.815 5.82C128.375 5.82 127.815 5.48 127.815 4.86C127.815 4.24 128.375 3.9 128.815 3.9C129.275 3.9 129.815 4.24 129.815 4.86C129.815 5.48 129.275 5.82 128.815 5.82ZM128.015 7.8H129.615V18H128.015V7.8ZM137.014 7.52C138.874 7.52 140.434 8.54 140.434 10.88V18H138.834V11.28C138.834 9.96 138.214 8.92 136.614 8.92C134.814 8.92 133.614 10.06 133.614 11.64V18H132.014V7.8H133.614V9.02H133.654C134.194 8.3 135.274 7.52 137.014 7.52ZM148.82 10.4C148.82 9.6 148.38 8.92 146.74 8.92C144.8 8.92 144.16 9.48 144.06 10.96H142.46C142.56 9 143.78 7.52 146.74 7.52C148.68 7.52 150.42 8.28 150.42 10.74V15.7C150.42 16.5 150.56 16.94 151.58 16.82V17.94C151.16 18.08 150.94 18.1 150.64 18.1C149.68 18.1 149.1 17.84 148.82 16.72H148.78C148.14 17.68 147 18.28 145.32 18.28C143.26 18.28 141.96 17.1 141.96 15.38C141.96 13.06 143.68 12.46 146.32 11.96C148.04 11.64 148.82 11.42 148.82 10.4ZM145.48 16.88C147.38 16.88 148.82 16.02 148.82 14.06V12.36C148.52 12.66 147.54 12.94 146.46 13.16C144.48 13.58 143.56 14.08 143.56 15.3C143.56 16.3 144.16 16.88 145.48 16.88ZM157.776 7.52C159.636 7.52 161.196 8.54 161.196 10.88V18H159.596V11.28C159.596 9.96 158.976 8.92 157.376 8.92C155.576 8.92 154.376 10.06 154.376 11.64V18H152.776V7.8H154.376V9.02H154.416C154.956 8.3 156.036 7.52 157.776 7.52ZM170.582 11.48C170.502 10.36 169.742 8.92 167.702 8.92C165.282 8.92 164.362 10.98 164.362 12.9C164.362 14.82 165.282 16.88 167.702 16.88C169.762 16.88 170.502 15.46 170.582 14.24H172.182C172.042 16.56 170.222 18.28 167.702 18.28C164.722 18.28 162.762 16.1 162.762 12.9C162.762 9.7 164.722 7.52 167.702 7.52C170.222 7.52 171.942 9.2 172.182 11.48H170.582ZM174.713 5.82C174.273 5.82 173.713 5.48 173.713 4.86C173.713 4.24 174.273 3.9 174.713 3.9C175.173 3.9 175.713 4.24 175.713 4.86C175.713 5.48 175.173 5.82 174.713 5.82ZM173.913 7.8H175.513V18H173.913V7.8ZM184.153 10.4C184.153 9.6 183.713 8.92 182.073 8.92C180.133 8.92 179.493 9.48 179.393 10.96H177.793C177.893 9 179.113 7.52 182.073 7.52C184.013 7.52 185.753 8.28 185.753 10.74V15.7C185.753 16.5 185.893 16.94 186.912 16.82V17.94C186.493 18.08 186.273 18.1 185.973 18.1C185.013 18.1 184.433 17.84 184.153 16.72H184.113C183.473 17.68 182.333 18.28 180.653 18.28C178.593 18.28 177.293 17.1 177.293 15.38C177.293 13.06 179.013 12.46 181.653 11.96C183.373 11.64 184.153 11.42 184.153 10.4ZM180.813 16.88C182.713 16.88 184.153 16.02 184.153 14.06V12.36C183.853 12.66 182.873 12.94 181.793 13.16C179.813 13.58 178.893 14.08 178.893 15.3C178.893 16.3 179.493 16.88 180.813 16.88ZM188.168 3.7H189.768V18H188.168V3.7ZM201.418 9.66C204.638 10.46 206.738 11 206.738 14.26C206.738 16.34 205.198 18.28 201.578 18.28C198.198 18.28 195.578 16.48 195.378 13.2H197.178C197.378 15.16 198.578 16.68 201.578 16.68C204.058 16.68 204.938 15.54 204.938 14.26C204.938 12.3 203.878 11.94 200.678 11.2C198.538 10.7 195.978 9.96 195.978 7.18C195.978 4.92 197.718 3.42 200.878 3.42C203.918 3.42 206.038 4.98 206.278 7.94H204.478C204.218 6.02 203.138 5.02 200.878 5.02C198.858 5.02 197.778 5.8 197.778 6.98C197.778 8.88 199.318 9.14 201.418 9.66ZM212.897 16.88C214.937 16.88 215.697 15.56 215.877 14.86H217.477C216.957 16.76 215.497 18.28 212.957 18.28C209.857 18.28 207.977 16.1 207.977 12.9C207.977 9.5 209.897 7.52 212.877 7.52C216.077 7.52 217.637 9.7 217.637 13.32H209.577C209.577 15.16 210.677 16.88 212.897 16.88ZM212.877 8.92C210.957 8.92 209.577 10.28 209.577 11.92H216.037C216.037 10.28 214.797 8.92 212.877 8.92ZM223.681 7.52C224.061 7.52 224.341 7.54 224.621 7.58V9.18H224.581C222.361 8.82 220.821 10.38 220.821 12.56V18H219.221V7.8H220.821V9.82H220.861C221.401 8.48 222.221 7.52 223.681 7.52ZM225.017 7.8H226.757L229.577 16.4H229.597L232.417 7.8H234.157L230.497 18H228.677L225.017 7.8ZM236.295 5.82C235.855 5.82 235.295 5.48 235.295 4.86C235.295 4.24 235.855 3.9 236.295 3.9C236.755 3.9 237.295 4.24 237.295 4.86C237.295 5.48 236.755 5.82 236.295 5.82ZM235.495 7.8H237.095V18H235.495V7.8ZM246.735 11.48C246.655 10.36 245.895 8.92 243.855 8.92C241.435 8.92 240.515 10.98 240.515 12.9C240.515 14.82 241.435 16.88 243.855 16.88C245.915 16.88 246.655 15.46 246.735 14.24H248.335C248.195 16.56 246.375 18.28 243.855 18.28C240.875 18.28 238.915 16.1 238.915 12.9C238.915 9.7 240.875 7.52 243.855 7.52C246.375 7.52 248.095 9.2 248.335 11.48H246.735ZM254.206 16.88C256.246 16.88 257.006 15.56 257.186 14.86H258.786C258.266 16.76 256.806 18.28 254.266 18.28C251.166 18.28 249.286 16.1 249.286 12.9C249.286 9.5 251.206 7.52 254.186 7.52C257.386 7.52 258.946 9.7 258.946 13.32H250.886C250.886 15.16 251.986 16.88 254.206 16.88ZM254.186 8.92C252.266 8.92 250.886 10.28 250.886 11.92H257.346C257.346 10.28 256.106 8.92 254.186 8.92ZM264.67 11.94C266.49 12.38 268.55 12.68 268.55 15.2C268.55 17.06 266.85 18.28 264.53 18.28C261.41 18.28 259.97 16.8 259.87 14.6H261.47C261.57 15.74 261.97 16.88 264.53 16.88C266.27 16.88 266.95 15.98 266.95 15.3C266.95 13.82 265.61 13.74 264.15 13.38C262.59 13 260.27 12.82 260.27 10.42C260.27 8.82 261.69 7.52 264.09 7.52C266.63 7.52 267.99 8.96 268.15 10.72H266.55C266.39 9.94 266.01 8.92 264.09 8.92C262.65 8.92 261.87 9.5 261.87 10.3C261.87 11.5 263.25 11.6 264.67 11.94Z" fill="#2B2F34"/>
<path id="26%" d="M292.797 9.02H290.997C290.997 6.16 292.557 3.9 295.977 3.9C298.337 3.9 300.377 5.4 300.377 8.04C300.377 12.78 293.637 13.06 292.777 16.36V16.4H300.177V18H290.597C290.597 15.5 292.177 13.54 294.717 12.06C297.297 10.56 298.577 10.08 298.577 8.06C298.577 6.9 298.057 5.5 295.937 5.5C293.517 5.5 292.797 7.12 292.797 9.02ZM303.77 11.04C304.45 9.74 305.85 8.98 307.47 8.98C310.11 8.98 311.95 10.8 311.95 13.54C311.95 16.1 310.15 18.28 307.15 18.28C303.37 18.28 301.97 15.48 301.97 11.08C301.97 6.48 303.77 3.9 307.21 3.9C309.79 3.9 311.39 5.66 311.59 7.68H309.79C309.61 6.34 308.77 5.5 307.21 5.5C304.35 5.5 303.81 8.22 303.77 11V11.04ZM307.15 16.68C309.05 16.68 310.15 15.5 310.15 13.66C310.15 11.68 308.95 10.58 307.31 10.58C305.31 10.58 303.97 11.84 303.97 13.7C303.97 15.48 305.15 16.68 307.15 16.68ZM316.43 11.82C314.25 11.82 313.21 10 313.21 7.86C313.21 5.72 314.25 3.9 316.43 3.9C318.65 3.9 319.65 5.72 319.65 7.86C319.65 10 318.65 11.82 316.43 11.82ZM325.19 4.18L317.93 18H316.53L323.79 4.18H325.19ZM316.43 10.42C317.65 10.42 318.25 9.38 318.25 7.86C318.25 6.34 317.65 5.3 316.43 5.3C315.21 5.3 314.61 6.34 314.61 7.86C314.61 9.38 315.21 10.42 316.43 10.42ZM325.29 18.28C323.11 18.28 322.07 16.46 322.07 14.32C322.07 12.18 323.11 10.36 325.29 10.36C327.51 10.36 328.51 12.18 328.51 14.32C328.51 16.46 327.51 18.28 325.29 18.28ZM325.29 16.88C326.51 16.88 327.11 15.84 327.11 14.32C327.11 12.8 326.51 11.76 325.29 11.76C324.07 11.76 323.47 12.8 323.47 14.32C323.47 15.84 324.07 16.88 325.29 16.88Z" fill="#215CFF"/>
</g>
<g id="Share in India&#226;&#128;&#153;s Output_2">
<path id="IT/ITES" d="M206.806 58.4998H208.606V72.7998H206.806V58.4998ZM214.669 72.7998V60.0998H209.909V58.4998H221.229V60.0998H216.469V72.7998H214.669ZM227.339 58.4998L221.799 72.7998H220.199L225.739 58.4998H227.339ZM229.364 58.4998H231.164V72.7998H229.364V58.4998ZM237.227 72.7998V60.0998H232.467V58.4998H243.787V60.0998H239.027V72.7998H237.227ZM247.374 64.5998H254.714V66.1998H247.374V71.1998H255.914V72.7998H245.574V58.4998H255.674V60.0998H247.374V64.5998ZM262.96 64.4598C266.18 65.2598 268.28 65.7998 268.28 69.0598C268.28 71.1398 266.74 73.0798 263.12 73.0798C259.74 73.0798 257.12 71.2798 256.92 67.9998H258.72C258.92 69.9598 260.12 71.4798 263.12 71.4798C265.6 71.4798 266.48 70.3398 266.48 69.0598C266.48 67.0998 265.42 66.7398 262.22 65.9998C260.08 65.4998 257.52 64.7598 257.52 61.9798C257.52 59.7198 259.26 58.2198 262.42 58.2198C265.46 58.2198 267.58 59.7798 267.82 62.7398H266.02C265.76 60.8198 264.68 59.8198 262.42 59.8198C260.4 59.8198 259.32 60.5998 259.32 61.7798C259.32 63.6798 260.86 63.9398 262.96 64.4598Z" fill="#2B2F34"/>
<path id="21%" d="M297.523 63.8198H295.723C295.723 60.9598 297.283 58.6998 300.703 58.6998C303.063 58.6998 305.103 60.1998 305.103 62.8398C305.103 67.5798 298.363 67.8598 297.503 71.1598V71.1998H304.903V72.7998H295.323C295.323 70.2998 296.903 68.3398 299.443 66.8598C302.023 65.3598 303.303 64.8798 303.303 62.8598C303.303 61.6998 302.783 60.2998 300.663 60.2998C298.243 60.2998 297.523 61.9198 297.523 63.8198ZM309.776 58.9798H311.176V72.7998H309.376V62.4598C308.536 63.2598 307.736 63.2598 306.496 63.2598V61.9598C308.916 61.9598 309.576 60.7798 309.776 58.9798ZM316.43 66.6198C314.25 66.6198 313.21 64.7998 313.21 62.6598C313.21 60.5198 314.25 58.6998 316.43 58.6998C318.65 58.6998 319.65 60.5198 319.65 62.6598C319.65 64.7998 318.65 66.6198 316.43 66.6198ZM325.19 58.9798L317.93 72.7998H316.53L323.79 58.9798H325.19ZM316.43 65.2198C317.65 65.2198 318.25 64.1798 318.25 62.6598C318.25 61.1398 317.65 60.0998 316.43 60.0998C315.21 60.0998 314.61 61.1398 314.61 62.6598C314.61 64.1798 315.21 65.2198 316.43 65.2198ZM325.29 73.0798C323.11 73.0798 322.07 71.2598 322.07 69.1198C322.07 66.9798 323.11 65.1598 325.29 65.1598C327.51 65.1598 328.51 66.9798 328.51 69.1198C328.51 71.2598 327.51 73.0798 325.29 73.0798ZM325.29 71.6798C326.51 71.6798 327.11 70.6398 327.11 69.1198C327.11 67.5998 326.51 66.5598 325.29 66.5598C324.07 66.5598 323.47 67.5998 323.47 69.1198C323.47 70.6398 324.07 71.6798 325.29 71.6798Z" fill="#039C6D"/>
</g>
<g id="Share in India&#226;&#128;&#153;s Output_3">
<path id="Trade, Tourism, and Hospitality" d="M15.3328 127.6V114.9H10.5728V113.3H21.8928V114.9H17.1328V127.6H15.3328ZM26.3959 117.12C26.7759 117.12 27.0559 117.14 27.3359 117.18V118.78H27.2959C25.0759 118.42 23.5359 119.98 23.5359 122.16V127.6H21.9359V117.4H23.5359V119.42H23.5759C24.1159 118.08 24.9359 117.12 26.3959 117.12ZM34.6408 120C34.6408 119.2 34.2008 118.52 32.5608 118.52C30.6208 118.52 29.9808 119.08 29.8808 120.56H28.2808C28.3808 118.6 29.6008 117.12 32.5608 117.12C34.5008 117.12 36.2408 117.88 36.2408 120.34V125.3C36.2408 126.1 36.3808 126.54 37.4008 126.42V127.54C36.9808 127.68 36.7608 127.7 36.4608 127.7C35.5008 127.7 34.9208 127.44 34.6408 126.32H34.6008C33.9608 127.28 32.8208 127.88 31.1408 127.88C29.0808 127.88 27.7808 126.7 27.7808 124.98C27.7808 122.66 29.5008 122.06 32.1408 121.56C33.8608 121.24 34.6408 121.02 34.6408 120ZM31.3008 126.48C33.2008 126.48 34.6408 125.62 34.6408 123.66V121.96C34.3408 122.26 33.3608 122.54 32.2808 122.76C30.3008 123.18 29.3808 123.68 29.3808 124.9C29.3808 125.9 29.9808 126.48 31.3008 126.48ZM45.8561 113.3H47.4561V127.6H45.8561V126.34H45.8161C45.2161 127.12 44.2561 127.88 42.6161 127.88C40.0561 127.88 38.0161 125.86 38.0161 122.5C38.0161 119.14 40.0561 117.12 42.6161 117.12C44.2561 117.12 45.2161 117.84 45.8161 118.72H45.8561V113.3ZM42.7761 126.48C44.6761 126.48 45.8561 124.9 45.8561 122.5C45.8561 120.1 44.6761 118.52 42.7761 118.52C40.6761 118.52 39.6161 120.5 39.6161 122.5C39.6161 124.5 40.6761 126.48 42.7761 126.48ZM53.9908 126.48C56.0308 126.48 56.7908 125.16 56.9708 124.46H58.5708C58.0508 126.36 56.5908 127.88 54.0508 127.88C50.9508 127.88 49.0708 125.7 49.0708 122.5C49.0708 119.1 50.9908 117.12 53.9708 117.12C57.1708 117.12 58.7308 119.3 58.7308 122.92H50.6708C50.6708 124.76 51.7708 126.48 53.9908 126.48ZM53.9708 118.52C52.0508 118.52 50.6708 119.88 50.6708 121.52H57.1308C57.1308 119.88 55.8908 118.52 53.9708 118.52ZM61.0995 127.72C60.4795 127.92 59.8995 127.58 59.8995 126.7C59.8995 125.94 60.3795 125.54 60.9795 125.54C61.7195 125.54 62.0995 126.16 62.0995 127.1C62.0995 128.16 61.6595 129.86 60.0995 130.14V129.14C60.7195 129 61.0995 128.46 61.0995 127.72ZM72.1883 127.6V114.9H67.4283V113.3H78.7483V114.9H73.9883V127.6H72.1883ZM82.5083 127.88C79.3883 127.88 77.5083 125.68 77.5083 122.5C77.5083 119.32 79.3883 117.12 82.5083 117.12C85.6083 117.12 87.4883 119.32 87.4883 122.5C87.4883 125.68 85.6083 127.88 82.5083 127.88ZM82.5083 126.48C84.7883 126.48 85.8883 124.68 85.8883 122.5C85.8883 120.32 84.7883 118.52 82.5083 118.52C80.2083 118.52 79.1083 120.32 79.1083 122.5C79.1083 124.68 80.2083 126.48 82.5083 126.48ZM95.8639 117.4H97.4639V127.6H95.8639V126.38H95.8239C95.2839 127.1 94.2039 127.88 92.4639 127.88C90.6039 127.88 89.0439 126.86 89.0439 124.52V117.4H90.6439V124.12C90.6439 125.44 91.2639 126.48 92.8639 126.48C94.6639 126.48 95.8639 125.34 95.8639 123.76V117.4ZM104.13 117.12C104.51 117.12 104.79 117.14 105.07 117.18V118.78H105.03C102.81 118.42 101.27 119.98 101.27 122.16V127.6H99.6703V117.4H101.27V119.42H101.31C101.85 118.08 102.67 117.12 104.13 117.12ZM107.526 115.42C107.086 115.42 106.526 115.08 106.526 114.46C106.526 113.84 107.086 113.5 107.526 113.5C107.986 113.5 108.526 113.84 108.526 114.46C108.526 115.08 107.986 115.42 107.526 115.42ZM106.726 117.4H108.326V127.6H106.726V117.4ZM114.865 121.54C116.685 121.98 118.745 122.28 118.745 124.8C118.745 126.66 117.045 127.88 114.725 127.88C111.605 127.88 110.165 126.4 110.065 124.2H111.665C111.765 125.34 112.165 126.48 114.725 126.48C116.465 126.48 117.145 125.58 117.145 124.9C117.145 123.42 115.805 123.34 114.345 122.98C112.785 122.6 110.465 122.42 110.465 120.02C110.465 118.42 111.885 117.12 114.285 117.12C116.825 117.12 118.185 118.56 118.345 120.32H116.745C116.585 119.54 116.205 118.52 114.285 118.52C112.845 118.52 112.065 119.1 112.065 119.9C112.065 121.1 113.445 121.2 114.865 121.54ZM130.955 117.12C133.015 117.12 134.015 118.34 134.015 120.48V127.6H132.415V120.88C132.415 119.56 132.155 118.52 130.555 118.52C128.955 118.52 127.955 119.66 127.955 121.24V127.6H126.355V120.88C126.355 119.56 126.095 118.52 124.495 118.52C122.895 118.52 121.895 119.66 121.895 121.24V127.6H120.295V117.4H121.895V118.62H121.935C122.475 117.9 123.355 117.12 124.895 117.12C126.355 117.12 127.195 117.74 127.615 118.88H127.655C128.355 117.92 129.415 117.12 130.955 117.12ZM137.135 127.72C136.515 127.92 135.935 127.58 135.935 126.7C135.935 125.94 136.415 125.54 137.015 125.54C137.755 125.54 138.135 126.16 138.135 127.1C138.135 128.16 137.695 129.86 136.135 130.14V129.14C136.755 129 137.135 128.46 137.135 127.72ZM150.363 120C150.363 119.2 149.923 118.52 148.283 118.52C146.343 118.52 145.703 119.08 145.603 120.56H144.003C144.103 118.6 145.323 117.12 148.283 117.12C150.223 117.12 151.963 117.88 151.963 120.34V125.3C151.963 126.1 152.103 126.54 153.123 126.42V127.54C152.703 127.68 152.483 127.7 152.183 127.7C151.223 127.7 150.643 127.44 150.363 126.32H150.323C149.683 127.28 148.543 127.88 146.863 127.88C144.803 127.88 143.503 126.7 143.503 124.98C143.503 122.66 145.223 122.06 147.863 121.56C149.583 121.24 150.363 121.02 150.363 120ZM147.023 126.48C148.923 126.48 150.363 125.62 150.363 123.66V121.96C150.063 122.26 149.083 122.54 148.003 122.76C146.023 123.18 145.103 123.68 145.103 124.9C145.103 125.9 145.703 126.48 147.023 126.48ZM159.319 117.12C161.179 117.12 162.739 118.14 162.739 120.48V127.6H161.139V120.88C161.139 119.56 160.519 118.52 158.919 118.52C157.119 118.52 155.919 119.66 155.919 121.24V127.6H154.319V117.4H155.919V118.62H155.959C156.499 117.9 157.579 117.12 159.319 117.12ZM172.145 113.3H173.745V127.6H172.145V126.34H172.105C171.505 127.12 170.545 127.88 168.905 127.88C166.345 127.88 164.305 125.86 164.305 122.5C164.305 119.14 166.345 117.12 168.905 117.12C170.545 117.12 171.505 117.84 172.105 118.72H172.145V113.3ZM169.065 126.48C170.965 126.48 172.145 124.9 172.145 122.5C172.145 120.1 170.965 118.52 169.065 118.52C166.965 118.52 165.905 120.5 165.905 122.5C165.905 124.5 166.965 126.48 169.065 126.48ZM180.184 113.3H181.984V119.38H189.624V113.3H191.424V127.6H189.624V120.98H181.984V127.6H180.184V113.3ZM198.485 127.88C195.365 127.88 193.485 125.68 193.485 122.5C193.485 119.32 195.365 117.12 198.485 117.12C201.585 117.12 203.465 119.32 203.465 122.5C203.465 125.68 201.585 127.88 198.485 127.88ZM198.485 126.48C200.765 126.48 201.865 124.68 201.865 122.5C201.865 120.32 200.765 118.52 198.485 118.52C196.185 118.52 195.085 120.32 195.085 122.5C195.085 124.68 196.185 126.48 198.485 126.48ZM209.22 121.54C211.04 121.98 213.1 122.28 213.1 124.8C213.1 126.66 211.4 127.88 209.08 127.88C205.96 127.88 204.52 126.4 204.42 124.2H206.02C206.12 125.34 206.52 126.48 209.08 126.48C210.82 126.48 211.5 125.58 211.5 124.9C211.5 123.42 210.16 123.34 208.7 122.98C207.14 122.6 204.82 122.42 204.82 120.02C204.82 118.42 206.24 117.12 208.64 117.12C211.18 117.12 212.54 118.56 212.7 120.32H211.1C210.94 119.54 210.56 118.52 208.64 118.52C207.2 118.52 206.42 119.1 206.42 119.9C206.42 121.1 207.8 121.2 209.22 121.54ZM219.531 117.12C222.051 117.12 224.091 119.14 224.091 122.5C224.091 125.86 222.051 127.88 219.531 127.88C217.851 127.88 216.891 127.16 216.291 126.28H216.251V131.04H214.651V117.4H216.251V118.66H216.291C216.891 117.88 217.851 117.12 219.531 117.12ZM219.331 126.48C221.431 126.48 222.491 124.5 222.491 122.5C222.491 120.5 221.431 118.52 219.331 118.52C217.431 118.52 216.251 120.1 216.251 122.5C216.251 124.9 217.431 126.48 219.331 126.48ZM226.764 115.42C226.324 115.42 225.764 115.08 225.764 114.46C225.764 113.84 226.324 113.5 226.764 113.5C227.224 113.5 227.764 113.84 227.764 114.46C227.764 115.08 227.224 115.42 226.764 115.42ZM225.964 117.4H227.564V127.6H225.964V117.4ZM234.403 118.8H232.403V124.94C232.403 126.1 233.043 126.3 234.403 126.2V127.6C234.043 127.68 233.623 127.72 233.203 127.72C231.843 127.72 230.803 127.18 230.803 125.1V118.8H229.303V117.4H230.803V114H232.403V117.4H234.403V118.8ZM242.317 120C242.317 119.2 241.877 118.52 240.237 118.52C238.297 118.52 237.657 119.08 237.557 120.56H235.957C236.057 118.6 237.277 117.12 240.237 117.12C242.177 117.12 243.917 117.88 243.917 120.34V125.3C243.917 126.1 244.057 126.54 245.077 126.42V127.54C244.657 127.68 244.437 127.7 244.137 127.7C243.177 127.7 242.597 127.44 242.317 126.32H242.277C241.637 127.28 240.497 127.88 238.817 127.88C236.757 127.88 235.457 126.7 235.457 124.98C235.457 122.66 237.177 122.06 239.817 121.56C241.537 121.24 242.317 121.02 242.317 120ZM238.977 126.48C240.877 126.48 242.317 125.62 242.317 123.66V121.96C242.017 122.26 241.037 122.54 239.957 122.76C237.977 123.18 237.057 123.68 237.057 124.9C237.057 125.9 237.657 126.48 238.977 126.48ZM246.332 113.3H247.932V127.6H246.332V113.3ZM251.002 115.42C250.562 115.42 250.002 115.08 250.002 114.46C250.002 113.84 250.562 113.5 251.002 113.5C251.462 113.5 252.002 113.84 252.002 114.46C252.002 115.08 251.462 115.42 251.002 115.42ZM250.202 117.4H251.802V127.6H250.202V117.4ZM258.642 118.8H256.642V124.94C256.642 126.1 257.282 126.3 258.642 126.2V127.6C258.282 127.68 257.862 127.72 257.442 127.72C256.082 127.72 255.042 127.18 255.042 125.1V118.8H253.542V117.4H255.042V114H256.642V117.4H258.642V118.8ZM268.955 117.4L264.595 128.44C264.155 129.54 263.635 131.04 261.755 131.04C261.115 131.04 260.655 130.92 260.395 130.84V129.64H260.635C261.515 129.72 262.135 129.66 262.675 129.08C263.095 128.62 263.515 127.76 263.115 126.76L259.255 117.4H261.055L264.175 125.72H264.215L267.155 117.4H268.955Z" fill="#2B2F34"/>
<path id="15%" d="M298.917 113.78H300.317V127.6H298.517V117.26C297.677 118.06 296.877 118.06 295.637 118.06V116.76C298.057 116.76 298.717 115.58 298.917 113.78ZM307.871 118.32C310.471 118.32 312.291 120.32 312.291 122.88C312.291 125.86 310.111 127.88 307.331 127.88C304.171 127.88 302.411 125.84 302.331 123.62H304.131C304.291 124.96 305.091 126.28 307.251 126.28C309.151 126.28 310.491 125.1 310.491 122.88C310.491 120.8 309.231 119.92 307.451 119.92C306.211 119.92 305.131 120.32 304.431 121.22H302.511L303.951 113.78H311.551V115.38H305.411L304.591 119.56V119.6C305.291 118.8 306.331 118.32 307.871 118.32ZM316.43 121.42C314.25 121.42 313.21 119.6 313.21 117.46C313.21 115.32 314.25 113.5 316.43 113.5C318.65 113.5 319.65 115.32 319.65 117.46C319.65 119.6 318.65 121.42 316.43 121.42ZM325.19 113.78L317.93 127.6H316.53L323.79 113.78H325.19ZM316.43 120.02C317.65 120.02 318.25 118.98 318.25 117.46C318.25 115.94 317.65 114.9 316.43 114.9C315.21 114.9 314.61 115.94 314.61 117.46C314.61 118.98 315.21 120.02 316.43 120.02ZM325.29 127.88C323.11 127.88 322.07 126.06 322.07 123.92C322.07 121.78 323.11 119.96 325.29 119.96C327.51 119.96 328.51 121.78 328.51 123.92C328.51 126.06 327.51 127.88 325.29 127.88ZM325.29 126.48C326.51 126.48 327.11 125.44 327.11 123.92C327.11 122.4 326.51 121.36 325.29 121.36C324.07 121.36 323.47 122.4 323.47 123.92C323.47 125.44 324.07 126.48 325.29 126.48Z" fill="#EE0032"/>
</g>
<g id="Share in India&#226;&#128;&#153;s Output_4">
<path id="Real Estate and Construction" d="M23.8166 182.4V168.1H29.6166C32.4366 168.1 34.3366 169.62 34.3366 172.16C34.3366 174.22 33.3566 175.36 31.7766 175.76V175.8C34.9566 176.42 33.7966 182.04 34.5366 182.28V182.4H32.5966C31.9766 181.8 33.3366 176.62 29.7166 176.62H25.6166V182.4H23.8166ZM25.6166 169.7V175.02H29.1966C30.6766 175.02 32.5366 174.84 32.5366 172.36C32.5366 169.88 30.6766 169.7 29.1966 169.7H25.6166ZM40.4752 181.28C42.5152 181.28 43.2752 179.96 43.4552 179.26H45.0552C44.5352 181.16 43.0752 182.68 40.5352 182.68C37.4352 182.68 35.5552 180.5 35.5552 177.3C35.5552 173.9 37.4752 171.92 40.4552 171.92C43.6552 171.92 45.2152 174.1 45.2152 177.72H37.1552C37.1552 179.56 38.2552 181.28 40.4752 181.28ZM40.4552 173.32C38.5352 173.32 37.1552 174.68 37.1552 176.32H43.6152C43.6152 174.68 42.3752 173.32 40.4552 173.32ZM53.0392 174.8C53.0392 174 52.5992 173.32 50.9592 173.32C49.0192 173.32 48.3792 173.88 48.2792 175.36H46.6792C46.7792 173.4 47.9992 171.92 50.9592 171.92C52.8992 171.92 54.6392 172.68 54.6392 175.14V180.1C54.6392 180.9 54.7792 181.34 55.7992 181.22V182.34C55.3792 182.48 55.1592 182.5 54.8592 182.5C53.8992 182.5 53.3192 182.24 53.0392 181.12H52.9992C52.3592 182.08 51.2192 182.68 49.5392 182.68C47.4792 182.68 46.1792 181.5 46.1792 179.78C46.1792 177.46 47.8992 176.86 50.5392 176.36C52.2592 176.04 53.0392 175.82 53.0392 174.8ZM49.6992 181.28C51.5992 181.28 53.0392 180.42 53.0392 178.46V176.76C52.7392 177.06 51.7592 177.34 50.6792 177.56C48.6992 177.98 47.7792 178.48 47.7792 179.7C47.7792 180.7 48.3792 181.28 49.6992 181.28ZM57.0545 168.1H58.6545V182.4H57.0545V168.1ZM66.9642 174.2H74.3042V175.8H66.9642V180.8H75.5042V182.4H65.1642V168.1H75.2642V169.7H66.9642V174.2ZM81.3103 176.34C83.1303 176.78 85.1903 177.08 85.1903 179.6C85.1903 181.46 83.4903 182.68 81.1703 182.68C78.0503 182.68 76.6103 181.2 76.5103 179H78.1103C78.2103 180.14 78.6103 181.28 81.1703 181.28C82.9103 181.28 83.5903 180.38 83.5903 179.7C83.5903 178.22 82.2503 178.14 80.7903 177.78C79.2303 177.4 76.9103 177.22 76.9103 174.82C76.9103 173.22 78.3303 171.92 80.7303 171.92C83.2703 171.92 84.6303 173.36 84.7903 175.12H83.1903C83.0303 174.34 82.6503 173.32 80.7303 173.32C79.2903 173.32 78.5103 173.9 78.5103 174.7C78.5103 175.9 79.8903 176 81.3103 176.34ZM90.9853 173.6H88.9853V179.74C88.9853 180.9 89.6253 181.1 90.9853 181V182.4C90.6253 182.48 90.2053 182.52 89.7853 182.52C88.4253 182.52 87.3853 181.98 87.3853 179.9V173.6H85.8853V172.2H87.3853V168.8H88.9853V172.2H90.9853V173.6ZM98.8986 174.8C98.8986 174 98.4586 173.32 96.8186 173.32C94.8786 173.32 94.2386 173.88 94.1386 175.36H92.5386C92.6386 173.4 93.8586 171.92 96.8186 171.92C98.7586 171.92 100.499 172.68 100.499 175.14V180.1C100.499 180.9 100.639 181.34 101.659 181.22V182.34C101.239 182.48 101.019 182.5 100.719 182.5C99.7586 182.5 99.1786 182.24 98.8986 181.12H98.8586C98.2186 182.08 97.0786 182.68 95.3986 182.68C93.3386 182.68 92.0386 181.5 92.0386 179.78C92.0386 177.46 93.7586 176.86 96.3986 176.36C98.1186 176.04 98.8986 175.82 98.8986 174.8ZM95.5586 181.28C97.4586 181.28 98.8986 180.42 98.8986 178.46V176.76C98.5986 177.06 97.6186 177.34 96.5386 177.56C94.5586 177.98 93.6386 178.48 93.6386 179.7C93.6386 180.7 94.2386 181.28 95.5586 181.28ZM107.099 173.6H105.099V179.74C105.099 180.9 105.739 181.1 107.099 181V182.4C106.739 182.48 106.319 182.52 105.899 182.52C104.539 182.52 103.499 181.98 103.499 179.9V173.6H101.999V172.2H103.499V168.8H105.099V172.2H107.099V173.6ZM113.014 181.28C115.054 181.28 115.814 179.96 115.994 179.26H117.594C117.074 181.16 115.614 182.68 113.074 182.68C109.974 182.68 108.094 180.5 108.094 177.3C108.094 173.9 110.014 171.92 112.994 171.92C116.194 171.92 117.754 174.1 117.754 177.72H109.694C109.694 179.56 110.794 181.28 113.014 181.28ZM112.994 173.32C111.074 173.32 109.694 174.68 109.694 176.32H116.154C116.154 174.68 114.914 173.32 112.994 173.32ZM129.582 174.8C129.582 174 129.142 173.32 127.502 173.32C125.562 173.32 124.922 173.88 124.822 175.36H123.222C123.322 173.4 124.542 171.92 127.502 171.92C129.442 171.92 131.182 172.68 131.182 175.14V180.1C131.182 180.9 131.322 181.34 132.342 181.22V182.34C131.922 182.48 131.702 182.5 131.402 182.5C130.442 182.5 129.862 182.24 129.582 181.12H129.542C128.902 182.08 127.762 182.68 126.082 182.68C124.022 182.68 122.722 181.5 122.722 179.78C122.722 177.46 124.442 176.86 127.082 176.36C128.802 176.04 129.582 175.82 129.582 174.8ZM126.242 181.28C128.142 181.28 129.582 180.42 129.582 178.46V176.76C129.282 177.06 128.302 177.34 127.222 177.56C125.242 177.98 124.322 178.48 124.322 179.7C124.322 180.7 124.922 181.28 126.242 181.28ZM138.538 171.92C140.398 171.92 141.958 172.94 141.958 175.28V182.4H140.358V175.68C140.358 174.36 139.738 173.32 138.138 173.32C136.338 173.32 135.138 174.46 135.138 176.04V182.4H133.538V172.2H135.138V173.42H135.178C135.718 172.7 136.798 171.92 138.538 171.92ZM151.364 168.1H152.964V182.4H151.364V181.14H151.324C150.724 181.92 149.764 182.68 148.124 182.68C145.564 182.68 143.524 180.66 143.524 177.3C143.524 173.94 145.564 171.92 148.124 171.92C149.764 171.92 150.724 172.64 151.324 173.52H151.364V168.1ZM148.284 181.28C150.184 181.28 151.364 179.7 151.364 177.3C151.364 174.9 150.184 173.32 148.284 173.32C146.184 173.32 145.124 175.3 145.124 177.3C145.124 179.3 146.184 181.28 148.284 181.28ZM169.763 172.82C169.503 171.46 168.463 169.42 165.483 169.42C162.083 169.42 160.663 172.36 160.663 175.24C160.663 178.14 162.083 181.08 165.483 181.08C168.483 181.08 169.643 179.04 169.763 177.24H171.563C171.243 180.4 169.003 182.68 165.483 182.68C161.563 182.68 158.863 179.56 158.863 175.24C158.863 170.94 161.563 167.82 165.483 167.82C168.983 167.82 171.223 170.1 171.563 172.82H169.763ZM177.762 182.68C174.642 182.68 172.762 180.48 172.762 177.3C172.762 174.12 174.642 171.92 177.762 171.92C180.862 171.92 182.742 174.12 182.742 177.3C182.742 180.48 180.862 182.68 177.762 182.68ZM177.762 181.28C180.042 181.28 181.142 179.48 181.142 177.3C181.142 175.12 180.042 173.32 177.762 173.32C175.462 173.32 174.362 175.12 174.362 177.3C174.362 179.48 175.462 181.28 177.762 181.28ZM189.358 171.92C191.218 171.92 192.778 172.94 192.778 175.28V182.4H191.178V175.68C191.178 174.36 190.558 173.32 188.958 173.32C187.158 173.32 185.958 174.46 185.958 176.04V182.4H184.358V172.2H185.958V173.42H185.998C186.538 172.7 187.618 171.92 189.358 171.92ZM199.064 176.34C200.884 176.78 202.944 177.08 202.944 179.6C202.944 181.46 201.244 182.68 198.924 182.68C195.804 182.68 194.364 181.2 194.264 179H195.864C195.964 180.14 196.364 181.28 198.924 181.28C200.664 181.28 201.344 180.38 201.344 179.7C201.344 178.22 200.004 178.14 198.544 177.78C196.984 177.4 194.664 177.22 194.664 174.82C194.664 173.22 196.084 171.92 198.484 171.92C201.024 171.92 202.384 173.36 202.544 175.12H200.944C200.784 174.34 200.404 173.32 198.484 173.32C197.044 173.32 196.264 173.9 196.264 174.7C196.264 175.9 197.644 176 199.064 176.34ZM208.739 173.6H206.739V179.74C206.739 180.9 207.379 181.1 208.739 181V182.4C208.379 182.48 207.959 182.52 207.539 182.52C206.179 182.52 205.139 181.98 205.139 179.9V173.6H203.639V172.2H205.139V168.8H206.739V172.2H208.739V173.6ZM214.873 171.92C215.253 171.92 215.533 171.94 215.813 171.98V173.58H215.773C213.553 173.22 212.013 174.78 212.013 176.96V182.4H210.413V172.2H212.013V174.22H212.053C212.593 172.88 213.413 171.92 214.873 171.92ZM224.028 172.2H225.628V182.4H224.028V181.18H223.988C223.448 181.9 222.368 182.68 220.628 182.68C218.768 182.68 217.208 181.66 217.208 179.32V172.2H218.808V178.92C218.808 180.24 219.428 181.28 221.028 181.28C222.828 181.28 224.028 180.14 224.028 178.56V172.2ZM235.074 175.88C234.994 174.76 234.234 173.32 232.194 173.32C229.774 173.32 228.854 175.38 228.854 177.3C228.854 179.22 229.774 181.28 232.194 181.28C234.254 181.28 234.994 179.86 235.074 178.64H236.674C236.534 180.96 234.714 182.68 232.194 182.68C229.214 182.68 227.254 180.5 227.254 177.3C227.254 174.1 229.214 171.92 232.194 171.92C234.714 171.92 236.434 173.6 236.674 175.88H235.074ZM242.645 173.6H240.645V179.74C240.645 180.9 241.285 181.1 242.645 181V182.4C242.285 182.48 241.865 182.52 241.445 182.52C240.085 182.52 239.045 181.98 239.045 179.9V173.6H237.545V172.2H239.045V168.8H240.645V172.2H242.645V173.6ZM245.319 170.22C244.879 170.22 244.319 169.88 244.319 169.26C244.319 168.64 244.879 168.3 245.319 168.3C245.779 168.3 246.319 168.64 246.319 169.26C246.319 169.88 245.779 170.22 245.319 170.22ZM244.519 172.2H246.119V182.4H244.519V172.2ZM252.938 182.68C249.818 182.68 247.938 180.48 247.938 177.3C247.938 174.12 249.818 171.92 252.938 171.92C256.038 171.92 257.918 174.12 257.918 177.3C257.918 180.48 256.038 182.68 252.938 182.68ZM252.938 181.28C255.218 181.28 256.318 179.48 256.318 177.3C256.318 175.12 255.218 173.32 252.938 173.32C250.638 173.32 249.538 175.12 249.538 177.3C249.538 179.48 250.638 181.28 252.938 181.28ZM264.534 171.92C266.394 171.92 267.954 172.94 267.954 175.28V182.4H266.354V175.68C266.354 174.36 265.734 173.32 264.134 173.32C262.334 173.32 261.134 174.46 261.134 176.04V182.4H259.534V172.2H261.134V173.42H261.174C261.714 172.7 262.794 171.92 264.534 171.92Z" fill="#2B2F34"/>
<path id="10%" d="M297.374 168.58H298.774V182.4H296.974V172.06C296.134 172.86 295.334 172.86 294.094 172.86V171.56C296.514 171.56 297.174 170.38 297.374 168.58ZM306.528 182.68C302.748 182.68 301.208 179.42 301.208 175.5C301.208 171.58 302.748 168.3 306.528 168.3C310.308 168.3 311.848 171.58 311.848 175.5C311.848 179.42 310.308 182.68 306.528 182.68ZM306.528 181.08C309.168 181.08 310.048 178.44 310.048 175.5C310.048 172.56 309.168 169.9 306.528 169.9C303.888 169.9 303.008 172.56 303.008 175.5C303.008 178.44 303.888 181.08 306.528 181.08ZM316.43 176.22C314.25 176.22 313.21 174.4 313.21 172.26C313.21 170.12 314.25 168.3 316.43 168.3C318.65 168.3 319.65 170.12 319.65 172.26C319.65 174.4 318.65 176.22 316.43 176.22ZM325.19 168.58L317.93 182.4H316.53L323.79 168.58H325.19ZM316.43 174.82C317.65 174.82 318.25 173.78 318.25 172.26C318.25 170.74 317.65 169.7 316.43 169.7C315.21 169.7 314.61 170.74 314.61 172.26C314.61 173.78 315.21 174.82 316.43 174.82ZM325.29 182.68C323.11 182.68 322.07 180.86 322.07 178.72C322.07 176.58 323.11 174.76 325.29 174.76C327.51 174.76 328.51 176.58 328.51 178.72C328.51 180.86 327.51 182.68 325.29 182.68ZM325.29 181.28C326.51 181.28 327.11 180.24 327.11 178.72C327.11 177.2 326.51 176.16 325.29 176.16C324.07 176.16 323.47 177.2 323.47 178.72C323.47 180.24 324.07 181.28 325.29 181.28Z" fill="#FF5100"/>
</g>
<g id="Share in India&#226;&#128;&#153;s Output_5">
<path id="Transport and Logistics" d="M75.0008 237.2V224.5H70.2408V222.9H81.5608V224.5H76.8008V237.2H75.0008ZM86.0639 226.72C86.4439 226.72 86.7239 226.74 87.0039 226.78V228.38H86.9639C84.7439 228.02 83.2039 229.58 83.2039 231.76V237.2H81.6039V227H83.2039V229.02H83.2439C83.7839 227.68 84.6039 226.72 86.0639 226.72ZM94.3088 229.6C94.3088 228.8 93.8688 228.12 92.2288 228.12C90.2888 228.12 89.6488 228.68 89.5488 230.16H87.9488C88.0488 228.2 89.2688 226.72 92.2288 226.72C94.1688 226.72 95.9088 227.48 95.9088 229.94V234.9C95.9088 235.7 96.0488 236.14 97.0687 236.02V237.14C96.6488 237.28 96.4288 237.3 96.1288 237.3C95.1688 237.3 94.5888 237.04 94.3088 235.92H94.2688C93.6288 236.88 92.4888 237.48 90.8088 237.48C88.7488 237.48 87.4488 236.3 87.4488 234.58C87.4488 232.26 89.1688 231.66 91.8088 231.16C93.5288 230.84 94.3088 230.62 94.3088 229.6ZM90.9688 236.08C92.8688 236.08 94.3088 235.22 94.3088 233.26V231.56C94.0088 231.86 93.0288 232.14 91.9488 232.36C89.9688 232.78 89.0488 233.28 89.0488 234.5C89.0488 235.5 89.6488 236.08 90.9688 236.08ZM103.264 226.72C105.124 226.72 106.684 227.74 106.684 230.08V237.2H105.084V230.48C105.084 229.16 104.464 228.12 102.864 228.12C101.064 228.12 99.8641 229.26 99.8641 230.84V237.2H98.2641V227H99.8641V228.22H99.9041C100.444 227.5 101.524 226.72 103.264 226.72ZM112.97 231.14C114.79 231.58 116.85 231.88 116.85 234.4C116.85 236.26 115.15 237.48 112.83 237.48C109.71 237.48 108.27 236 108.17 233.8H109.77C109.87 234.94 110.27 236.08 112.83 236.08C114.57 236.08 115.25 235.18 115.25 234.5C115.25 233.02 113.91 232.94 112.45 232.58C110.89 232.2 108.57 232.02 108.57 229.62C108.57 228.02 109.99 226.72 112.39 226.72C114.93 226.72 116.29 228.16 116.45 229.92H114.85C114.69 229.14 114.31 228.12 112.39 228.12C110.95 228.12 110.17 228.7 110.17 229.5C110.17 230.7 111.55 230.8 112.97 231.14ZM123.281 226.72C125.801 226.72 127.841 228.74 127.841 232.1C127.841 235.46 125.801 237.48 123.281 237.48C121.601 237.48 120.641 236.76 120.041 235.88H120.001V240.64H118.401V227H120.001V228.26H120.041C120.641 227.48 121.601 226.72 123.281 226.72ZM123.081 236.08C125.181 236.08 126.241 234.1 126.241 232.1C126.241 230.1 125.181 228.12 123.081 228.12C121.181 228.12 120.001 229.7 120.001 232.1C120.001 234.5 121.181 236.08 123.081 236.08ZM133.934 237.48C130.814 237.48 128.934 235.28 128.934 232.1C128.934 228.92 130.814 226.72 133.934 226.72C137.034 226.72 138.914 228.92 138.914 232.1C138.914 235.28 137.034 237.48 133.934 237.48ZM133.934 236.08C136.214 236.08 137.314 234.28 137.314 232.1C137.314 229.92 136.214 228.12 133.934 228.12C131.634 228.12 130.534 229.92 130.534 232.1C130.534 234.28 131.634 236.08 133.934 236.08ZM144.99 226.72C145.37 226.72 145.65 226.74 145.93 226.78V228.38H145.89C143.67 228.02 142.13 229.58 142.13 231.76V237.2H140.53V227H142.13V229.02H142.17C142.71 227.68 143.53 226.72 144.99 226.72ZM151.825 228.4H149.825V234.54C149.825 235.7 150.465 235.9 151.825 235.8V237.2C151.465 237.28 151.045 237.32 150.625 237.32C149.265 237.32 148.225 236.78 148.225 234.7V228.4H146.725V227H148.225V223.6H149.825V227H151.825V228.4ZM163.742 229.6C163.742 228.8 163.302 228.12 161.662 228.12C159.722 228.12 159.082 228.68 158.982 230.16H157.382C157.482 228.2 158.702 226.72 161.662 226.72C163.602 226.72 165.342 227.48 165.342 229.94V234.9C165.342 235.7 165.482 236.14 166.502 236.02V237.14C166.082 237.28 165.862 237.3 165.562 237.3C164.602 237.3 164.022 237.04 163.742 235.92H163.702C163.062 236.88 161.922 237.48 160.242 237.48C158.182 237.48 156.882 236.3 156.882 234.58C156.882 232.26 158.602 231.66 161.242 231.16C162.962 230.84 163.742 230.62 163.742 229.6ZM160.402 236.08C162.302 236.08 163.742 235.22 163.742 233.26V231.56C163.442 231.86 162.462 232.14 161.382 232.36C159.402 232.78 158.482 233.28 158.482 234.5C158.482 235.5 159.082 236.08 160.402 236.08ZM172.698 226.72C174.558 226.72 176.118 227.74 176.118 230.08V237.2H174.518V230.48C174.518 229.16 173.898 228.12 172.298 228.12C170.498 228.12 169.298 229.26 169.298 230.84V237.2H167.698V227H169.298V228.22H169.338C169.878 227.5 170.958 226.72 172.698 226.72ZM185.524 222.9H187.124V237.2H185.524V235.94H185.484C184.884 236.72 183.924 237.48 182.284 237.48C179.724 237.48 177.684 235.46 177.684 232.1C177.684 228.74 179.724 226.72 182.284 226.72C183.924 226.72 184.884 227.44 185.484 228.32H185.524V222.9ZM182.444 236.08C184.344 236.08 185.524 234.5 185.524 232.1C185.524 229.7 184.344 228.12 182.444 228.12C180.344 228.12 179.284 230.1 179.284 232.1C179.284 234.1 180.344 236.08 182.444 236.08ZM193.563 222.9H195.363V235.6H202.863V237.2H193.563V222.9ZM208.426 237.48C205.306 237.48 203.426 235.28 203.426 232.1C203.426 228.92 205.306 226.72 208.426 226.72C211.526 226.72 213.406 228.92 213.406 232.1C213.406 235.28 211.526 237.48 208.426 237.48ZM208.426 236.08C210.706 236.08 211.806 234.28 211.806 232.1C211.806 229.92 210.706 228.12 208.426 228.12C206.126 228.12 205.026 229.92 205.026 232.1C205.026 234.28 206.126 236.08 208.426 236.08ZM222.282 227H223.882V236.64C223.882 239.36 222.162 240.74 219.362 240.74C216.562 240.74 214.902 239.26 214.742 237.52H216.342C216.542 238.56 217.382 239.34 219.282 239.34C221.182 239.34 222.282 238.52 222.282 236.62V235.08H222.242C221.642 235.96 220.682 236.68 219.002 236.68C216.482 236.68 214.442 235.06 214.442 231.7C214.442 228.34 216.482 226.72 219.002 226.72C220.682 226.72 221.642 227.48 222.242 228.26H222.282V227ZM219.202 235.28C221.102 235.28 222.282 234.1 222.282 231.7C222.282 229.3 221.102 228.12 219.202 228.12C217.102 228.12 216.042 229.7 216.042 231.7C216.042 233.7 217.102 235.28 219.202 235.28ZM227.077 225.02C226.637 225.02 226.077 224.68 226.077 224.06C226.077 223.44 226.637 223.1 227.077 223.1C227.537 223.1 228.077 223.44 228.077 224.06C228.077 224.68 227.537 225.02 227.077 225.02ZM226.277 227H227.877V237.2H226.277V227ZM234.416 231.14C236.236 231.58 238.296 231.88 238.296 234.4C238.296 236.26 236.596 237.48 234.276 237.48C231.156 237.48 229.716 236 229.616 233.8H231.216C231.316 234.94 231.716 236.08 234.276 236.08C236.016 236.08 236.696 235.18 236.696 234.5C236.696 233.02 235.356 232.94 233.896 232.58C232.336 232.2 230.016 232.02 230.016 229.62C230.016 228.02 231.436 226.72 233.836 226.72C236.376 226.72 237.736 228.16 237.896 229.92H236.296C236.136 229.14 235.756 228.12 233.836 228.12C232.396 228.12 231.616 228.7 231.616 229.5C231.616 230.7 232.996 230.8 234.416 231.14ZM244.091 228.4H242.091V234.54C242.091 235.7 242.731 235.9 244.091 235.8V237.2C243.731 237.28 243.311 237.32 242.891 237.32C241.531 237.32 240.491 236.78 240.491 234.7V228.4H238.991V227H240.491V223.6H242.091V227H244.091V228.4ZM246.764 225.02C246.324 225.02 245.764 224.68 245.764 224.06C245.764 223.44 246.324 223.1 246.764 223.1C247.224 223.1 247.764 223.44 247.764 224.06C247.764 224.68 247.224 225.02 246.764 225.02ZM245.964 227H247.564V237.2H245.964V227ZM257.203 230.68C257.123 229.56 256.363 228.12 254.323 228.12C251.903 228.12 250.983 230.18 250.983 232.1C250.983 234.02 251.903 236.08 254.323 236.08C256.383 236.08 257.123 234.66 257.203 233.44H258.803C258.663 235.76 256.843 237.48 254.323 237.48C251.343 237.48 249.383 235.3 249.383 232.1C249.383 228.9 251.343 226.72 254.323 226.72C256.843 226.72 258.563 228.4 258.803 230.68H257.203ZM264.67 231.14C266.49 231.58 268.55 231.88 268.55 234.4C268.55 236.26 266.85 237.48 264.53 237.48C261.41 237.48 259.97 236 259.87 233.8H261.47C261.57 234.94 261.97 236.08 264.53 236.08C266.27 236.08 266.95 235.18 266.95 234.5C266.95 233.02 265.61 232.94 264.15 232.58C262.59 232.2 260.27 232.02 260.27 229.62C260.27 228.02 261.69 226.72 264.09 226.72C266.63 226.72 267.99 228.16 268.15 229.92H266.55C266.39 229.14 266.01 228.12 264.09 228.12C262.65 228.12 261.87 228.7 261.87 229.5C261.87 230.7 263.25 230.8 264.67 231.14Z" fill="#2B2F34"/>
<path id="9%" d="M310.128 230.34C309.448 231.64 308.048 232.4 306.428 232.4C303.788 232.4 301.948 230.58 301.948 227.84C301.948 225.28 303.748 223.1 306.748 223.1C310.528 223.1 311.928 225.9 311.928 230.3C311.928 234.9 310.128 237.48 306.688 237.48C304.108 237.48 302.508 235.72 302.308 233.7H304.108C304.288 235.04 305.128 235.88 306.688 235.88C309.548 235.88 310.088 233.16 310.128 230.38V230.34ZM306.748 224.7C304.848 224.7 303.748 225.88 303.748 227.72C303.748 229.7 304.948 230.8 306.588 230.8C308.588 230.8 309.928 229.54 309.928 227.68C309.928 225.9 308.748 224.7 306.748 224.7ZM316.43 231.02C314.25 231.02 313.21 229.2 313.21 227.06C313.21 224.92 314.25 223.1 316.43 223.1C318.65 223.1 319.65 224.92 319.65 227.06C319.65 229.2 318.65 231.02 316.43 231.02ZM325.19 223.38L317.93 237.2H316.53L323.79 223.38H325.19ZM316.43 229.62C317.65 229.62 318.25 228.58 318.25 227.06C318.25 225.54 317.65 224.5 316.43 224.5C315.21 224.5 314.61 225.54 314.61 227.06C314.61 228.58 315.21 229.62 316.43 229.62ZM325.29 237.48C323.11 237.48 322.07 235.66 322.07 233.52C322.07 231.38 323.11 229.56 325.29 229.56C327.51 229.56 328.51 231.38 328.51 233.52C328.51 235.66 327.51 237.48 325.29 237.48ZM325.29 236.08C326.51 236.08 327.11 235.04 327.11 233.52C327.11 232 326.51 230.96 325.29 230.96C324.07 230.96 323.47 232 323.47 233.52C323.47 235.04 324.07 236.08 325.29 236.08Z" fill="#6C4FFF"/>
</g>
<g id="Share in India&#226;&#128;&#153;s Output_6">
<path id="Others" d="M217.425 292.28C213.225 292.28 210.425 289.14 210.425 284.84C210.425 280.54 213.225 277.42 217.425 277.42C221.625 277.42 224.425 280.54 224.425 284.84C224.425 289.14 221.625 292.28 217.425 292.28ZM217.425 290.68C221.025 290.68 222.625 287.92 222.625 284.84C222.625 281.76 221.025 279.02 217.425 279.02C213.825 279.02 212.225 281.76 212.225 284.84C212.225 287.92 213.825 290.68 217.425 290.68ZM230.77 283.2H228.77V289.34C228.77 290.5 229.41 290.7 230.77 290.6V292C230.41 292.08 229.99 292.12 229.57 292.12C228.21 292.12 227.17 291.58 227.17 289.5V283.2H225.67V281.8H227.17V278.4H228.77V281.8H230.77V283.2ZM237.444 281.52C239.304 281.52 240.864 282.54 240.864 284.88V292H239.264V285.28C239.264 283.96 238.644 282.92 237.044 282.92C235.244 282.92 234.044 284.06 234.044 285.64V292H232.444V277.7H234.044V283.02H234.084C234.624 282.3 235.704 281.52 237.444 281.52ZM247.35 290.88C249.39 290.88 250.15 289.56 250.33 288.86H251.93C251.41 290.76 249.95 292.28 247.41 292.28C244.31 292.28 242.43 290.1 242.43 286.9C242.43 283.5 244.35 281.52 247.33 281.52C250.53 281.52 252.09 283.7 252.09 287.32H244.03C244.03 289.16 245.13 290.88 247.35 290.88ZM247.33 282.92C245.41 282.92 244.03 284.28 244.03 285.92H250.49C250.49 284.28 249.25 282.92 247.33 282.92ZM258.134 281.52C258.514 281.52 258.794 281.54 259.074 281.58V283.18H259.034C256.814 282.82 255.274 284.38 255.274 286.56V292H253.674V281.8H255.274V283.82H255.314C255.854 282.48 256.674 281.52 258.134 281.52ZM264.67 285.94C266.49 286.38 268.55 286.68 268.55 289.2C268.55 291.06 266.85 292.28 264.53 292.28C261.41 292.28 259.97 290.8 259.87 288.6H261.47C261.57 289.74 261.97 290.88 264.53 290.88C266.27 290.88 266.95 289.98 266.95 289.3C266.95 287.82 265.61 287.74 264.15 287.38C262.59 287 260.27 286.82 260.27 284.42C260.27 282.82 261.69 281.52 264.09 281.52C266.63 281.52 267.99 282.96 268.15 284.72H266.55C266.39 283.94 266.01 282.92 264.09 282.92C262.65 282.92 261.87 283.5 261.87 284.3C261.87 285.5 263.25 285.6 264.67 285.94Z" fill="#2B2F34"/>
<path id="19%" d="M298.194 278.18H299.594V292H297.794V281.66C296.954 282.46 296.154 282.46 294.914 282.46V281.16C297.334 281.16 297.994 279.98 298.194 278.18ZM310.128 285.14C309.448 286.44 308.048 287.2 306.428 287.2C303.788 287.2 301.948 285.38 301.948 282.64C301.948 280.08 303.748 277.9 306.748 277.9C310.528 277.9 311.928 280.7 311.928 285.1C311.928 289.7 310.128 292.28 306.688 292.28C304.108 292.28 302.508 290.52 302.308 288.5H304.108C304.288 289.84 305.128 290.68 306.688 290.68C309.548 290.68 310.088 287.96 310.128 285.18V285.14ZM306.748 279.5C304.848 279.5 303.748 280.68 303.748 282.52C303.748 284.5 304.948 285.6 306.588 285.6C308.588 285.6 309.928 284.34 309.928 282.48C309.928 280.7 308.748 279.5 306.748 279.5ZM316.43 285.82C314.25 285.82 313.21 284 313.21 281.86C313.21 279.72 314.25 277.9 316.43 277.9C318.65 277.9 319.65 279.72 319.65 281.86C319.65 284 318.65 285.82 316.43 285.82ZM325.19 278.18L317.93 292H316.53L323.79 278.18H325.19ZM316.43 284.42C317.65 284.42 318.25 283.38 318.25 281.86C318.25 280.34 317.65 279.3 316.43 279.3C315.21 279.3 314.61 280.34 314.61 281.86C314.61 283.38 315.21 284.42 316.43 284.42ZM325.29 292.28C323.11 292.28 322.07 290.46 322.07 288.32C322.07 286.18 323.11 284.36 325.29 284.36C327.51 284.36 328.51 286.18 328.51 288.32C328.51 290.46 327.51 292.28 325.29 292.28ZM325.29 290.88C326.51 290.88 327.11 289.84 327.11 288.32C327.11 286.8 326.51 285.76 325.29 285.76C324.07 285.76 323.47 286.8 323.47 288.32C323.47 289.84 324.07 290.88 325.29 290.88Z" fill="#E300D4"/>
</g>
</g>
</g>
<defs>
<linearGradient id="paint0_linear_245_1781" x1="152" y1="183.025" x2="532" y2="183.025" gradientUnits="userSpaceOnUse">
<stop stop-color="#EFEFEF" stop-opacity="0"/>
<stop offset="1" stop-color="#EFEFEF"/>
</linearGradient>
<linearGradient id="paint1_linear_245_1781" x1="290" y1="324.873" x2="394" y2="324.873" gradientUnits="userSpaceOnUse">
<stop stop-color="#EFEFEF" stop-opacity="0"/>
<stop offset="1" stop-color="#EFEFEF"/>
</linearGradient>
<linearGradient id="paint2_linear_245_1781" x1="261" y1="299.165" x2="423" y2="299.857" gradientUnits="userSpaceOnUse">
<stop stop-color="#EFEFEF" stop-opacity="0"/>
<stop offset="1" stop-color="#EFEFEF"/>
</linearGradient>
<linearGradient id="paint3_linear_245_1781" x1="234" y1="263.244" x2="450" y2="270.811" gradientUnits="userSpaceOnUse">
<stop stop-color="#EFEFEF" stop-opacity="0"/>
<stop offset="1" stop-color="#EFEFEF"/>
</linearGradient>
<linearGradient id="paint4_linear_245_1781" x1="206" y1="229.677" x2="478" y2="229.677" gradientUnits="userSpaceOnUse">
<stop stop-color="#EFEFEF" stop-opacity="0"/>
<stop offset="1" stop-color="#EFEFEF"/>
</linearGradient>
<linearGradient id="paint5_linear_245_1781" x1="179" y1="215.812" x2="505" y2="216.5" gradientUnits="userSpaceOnUse">
<stop stop-color="#E5E5E5" stop-opacity="0"/>
<stop offset="1" stop-color="#EFEFEF"/>
</linearGradient>
</defs>
</svg>
