<svg width="64" height="64" viewBox="0 0 64 64" fill="none" xmlns="http://www.w3.org/2000/svg">
<path d="M37.248 25.9192V24L43.554 26.5459V28.1126L37.248 30.6585V28.7001L40.9298 27.3293L37.248 25.9192Z" fill="#A100FF"/>
<path d="M2.4284 40.8416C1.0967 40.8416 0 40.1758 0 38.6874V38.6091C0 36.8073 1.56671 36.1807 3.48592 36.1807H4.38678V35.8282C4.38678 35.084 4.07344 34.6531 3.29009 34.6531C2.58507 34.6531 2.23256 35.0448 2.19339 35.5932H0.235006C0.391677 33.9481 1.68421 33.1648 3.40759 33.1648C5.17013 33.1648 6.46267 33.9089 6.46267 35.7498V40.6849H4.46512V39.8233C4.07344 40.3716 3.40759 40.8416 2.4284 40.8416ZM4.38678 38.2566V37.5515H3.56426C2.5459 37.5515 2.03672 37.8257 2.03672 38.4916V38.5699C2.03672 39.0791 2.35006 39.4316 3.05508 39.4316C3.7601 39.3924 4.38678 39.0007 4.38678 38.2566ZM11.1236 40.8416C9.0869 40.8416 7.59853 39.5883 7.59853 37.0815V36.964C7.59853 34.4573 9.16524 33.1256 11.1236 33.1256C12.8078 33.1256 14.1787 33.9873 14.3354 35.9065H12.377C12.2595 35.2015 11.8678 34.7315 11.1628 34.7315C10.3011 34.7315 9.67442 35.4365 9.67442 36.8857V37.1207C9.67442 38.6091 10.2228 39.2749 11.1628 39.2749C11.8678 39.2749 12.377 38.7657 12.4945 37.9432H14.3745C14.257 39.6666 13.1212 40.8416 11.1236 40.8416ZM18.8005 40.8416C16.7638 40.8416 15.2754 39.5883 15.2754 37.0815V36.964C15.2754 34.4573 16.8421 33.1256 18.8005 33.1256C20.4847 33.1256 21.8556 33.9873 22.0122 35.9065H20.0539C19.9364 35.2015 19.5447 34.7315 18.8397 34.7315C17.978 34.7315 17.3513 35.4365 17.3513 36.8857V37.1207C17.3513 38.6091 17.8996 39.2749 18.8397 39.2749C19.5447 39.2749 20.0539 38.7657 20.1714 37.9432H22.0514C21.9339 39.6666 20.798 40.8416 18.8005 40.8416ZM26.5165 40.8416C24.4015 40.8416 22.9523 39.5883 22.9523 37.1207V36.964C22.9523 34.4965 24.4798 33.1256 26.4774 33.1256C28.3182 33.1256 29.8458 34.1439 29.8458 36.6115V37.5124H25.0282C25.1065 38.8441 25.694 39.3532 26.5557 39.3532C27.339 39.3532 27.7699 38.9224 27.9266 38.4132H29.8458C29.6108 39.7841 28.4357 40.8416 26.5165 40.8416ZM25.0673 36.1415H27.8091C27.7699 35.0448 27.2607 34.5748 26.4382 34.5748C25.8115 34.614 25.224 34.9665 25.0673 36.1415ZM31.0991 33.3214H33.175V34.4181C33.5275 33.7131 34.2717 33.1648 35.4076 33.1648C36.7393 33.1648 37.6401 33.9873 37.6401 35.7498V40.6849H35.5643V36.0632C35.5643 35.2015 35.2118 34.8098 34.4676 34.8098C33.7625 34.8098 33.175 35.2406 33.175 36.1807V40.6849H31.0991V33.3214ZM41.4394 31.0889V33.3214H42.8494V34.849H41.4394V38.3349C41.4394 38.8832 41.6744 39.1574 42.1836 39.1574C42.4969 39.1574 42.6928 39.1182 42.8886 39.0399V40.6458C42.6536 40.7241 42.2228 40.8025 41.7136 40.8025C40.1077 40.8025 39.3635 40.0583 39.3635 38.5699V34.849H38.5018V33.3214H39.3635V31.9506L41.4394 31.0889ZM50.6047 40.6849H48.5679V39.5883C48.2154 40.2933 47.5104 40.8416 46.4137 40.8416C45.082 40.8416 44.1028 40.0191 44.1028 38.2957V33.3214H46.1787V38.0215C46.1787 38.8832 46.5312 39.2749 47.2362 39.2749C47.9412 39.2749 48.5288 38.8049 48.5288 37.904V33.3214H50.6047V40.6849ZM52.1322 33.3214H54.2081V34.6923C54.6389 33.7131 55.3439 33.2431 56.4406 33.2431V35.2798C55.0306 35.2798 54.2081 35.7107 54.2081 36.9249V40.7241H52.1322V33.3214ZM60.6316 40.8416C58.5165 40.8416 57.0673 39.5883 57.0673 37.1207V36.964C57.0673 34.4965 58.5949 33.1256 60.5924 33.1256C62.4333 33.1256 63.9608 34.1439 63.9608 36.6115V37.5124H59.1824C59.2607 38.8441 59.8482 39.3532 60.7099 39.3532C61.4933 39.3532 61.9241 38.9224 62.0808 38.4132H64C63.6867 39.7841 62.5508 40.8416 60.6316 40.8416ZM59.1432 36.1415H61.9241C61.8849 35.0448 61.3758 34.5748 60.5532 34.5748C59.9266 34.614 59.339 34.9665 59.1432 36.1415Z" fill="black"/>
</svg>
