<svg width="40" height="40" viewBox="0 0 40 40" fill="none" xmlns="http://www.w3.org/2000/svg">
<path d="M9.10008 30.816V25.9493C9.10008 24.3327 10.3667 22.8827 12.1667 22.8827C13.7834 22.8827 15.2334 24.1493 15.2334 25.9493V30.6327C15.2334 33.8827 12.5334 36.5827 9.28341 36.5827C6.03341 36.5827 3.33341 33.866 3.33341 30.6327V20.366C3.15008 10.9993 10.5501 3.41602 19.9167 3.41602C29.2834 3.41602 36.6667 10.9993 36.6667 20.1827V30.4494C36.6667 33.6994 33.9667 36.3993 30.7167 36.3993C27.4667 36.3993 24.7667 33.6994 24.7667 30.4494V25.766C24.7667 24.1493 26.0334 22.6993 27.8334 22.6993C29.4501 22.6993 30.9001 23.966 30.9001 25.766V30.816" stroke="black" stroke-width="1.5" stroke-linecap="round" stroke-linejoin="round"/>
</svg>
