<svg width="64" height="64" viewBox="0 0 64 64" fill="none" xmlns="http://www.w3.org/2000/svg">
<path d="M12.7843 31.8635C12.5069 30.624 11.3283 27.6889 10.6883 26.8383C10.5816 26.7516 10.5229 26.7096 10.4803 26.648L8.56562 31.539C8.56562 31.539 9.56561 31.7936 10.6883 31.9531C11.4109 32.037 12.1763 32.037 12.7843 31.8635ZM58.1174 27.4063V37.3001C58.1174 39.2587 57.3654 38.9509 57.0907 39.0153L60.3147 41.8636L64 38.7578C63.9627 38.5172 63.832 38.2794 63.6693 38.2122C62.4027 39.0348 62.488 37.3672 62.488 37.3672V25.582C62.488 24.1047 60 22.5126 59.0614 22.8232L55.584 26.4522C55.624 26.6033 55.744 26.9055 56.1254 26.9726C57.752 25.4057 58.1174 26.9726 58.1174 27.4063ZM43.2481 33.5172V37.7142C43.2481 39.1915 42.7148 38.9117 42.3201 39.0796C43.4188 39.6896 44.9121 40.9487 46.1974 41.9084L50.0534 39.3454L52.9147 41.9756L56.2907 38.5172C56.2907 38.5172 56.248 38.0136 55.8374 38.0388C54.6534 39.2587 54.3041 37.2329 54.3041 37.2329V32.1042C54.3041 29.863 51.5627 29.3621 50.9867 29.3845L48.2267 32.2105C48.3466 32.4194 48.5283 32.5815 48.7441 32.6722C50.0347 31.6033 50.2561 33.1478 50.2561 33.1478V37.3448C50.2187 39.0796 47.2161 39.7148 47.2161 37.3672V31.5194C46.9628 29.9077 44.7841 29.0152 44.4748 29.2978L41.3255 32.0174C41.4721 32.2776 41.4855 32.5882 41.8774 32.5407C43.2721 31.5138 43.2481 33.5172 43.2481 33.5172ZM22.4349 32.7141V37.2805C22.4349 38.5396 21.5442 38.5172 21.2616 38.5816L24.6589 41.6706L27.9309 38.6487C27.8647 38.4611 27.76 38.2911 27.6242 38.1507C27.0829 38.4501 26.6722 38.2794 26.6722 37.5351V32.9072C26.9602 31.4746 28.9068 31.7964 28.9068 32.7757V37.5211C28.8588 38.4724 28.4909 38.8866 28.0802 39.0181L31.1628 41.693L34.4775 38.7746C34.4242 38.5368 34.4242 38.3269 34.1335 38.215C33.8028 38.2374 33.1815 38.9145 33.1815 37.4092V32.8848C33.8642 31.0577 35.5415 32.0174 35.6081 33.0387V37.2805C35.5841 38.2794 35.4108 38.9117 34.6322 39.1915L37.8428 41.8217L41.2455 38.604C41.2455 38.3885 40.9521 38.1647 40.8455 38.1059C39.7281 39.1244 39.7895 37.8401 39.7735 37.6442V31.7964C39.7281 30.7751 37.9068 28.6486 35.4801 29.6055L33.0535 31.4746C31.7628 29.1691 29.8802 29.1047 29.3788 29.2362C28.5575 29.3593 26.8135 31.5809 26.6109 31.2312C25.8429 29.2362 23.8029 29.1942 23.3869 29.2558L20.5336 31.8412C20.6776 32.1685 20.9096 32.2105 21.0669 32.2748C21.8376 31.7992 22.3602 31.9055 22.4349 32.7141ZM7.57896 34.088L6.6883 36.623L8.79495 38.0388C9.09362 38.2374 9.46961 38.1059 10.0643 37.5351L10.4829 37.9744C9.53095 39.1216 8.53629 40.2128 7.56029 41.3656C6.27496 40.1289 4.76031 38.9117 3.30965 38.9117C1.63499 38.9481 0.074997 40.6465 1.69366 43.7159C1.73899 43.7775 1.44299 44.102 1.27766 43.9677C0.0376638 42.8625 -0.461 39.8211 0.514995 38.1059C1.19766 36.9951 2.43498 35.9095 4.54964 36.1669L5.3843 33.7886C4.61897 33.4724 3.78964 33.7886 2.74965 34.6504C3.10165 32.7757 4.21898 31.4718 6.51496 31.1472L8.86695 25.2323C7.62162 24.709 6.45896 25.3442 5.8803 26.4522C5.5283 26.4046 5.2803 26.2759 5.21364 26.0409L7.62162 21.3402C8.79495 20.9121 9.80028 20.9121 10.6909 21.2059C14.3603 22.4258 16.2029 28.9284 18.9522 36.1053C19.2056 36.7992 19.5416 36.8636 20.3282 35.9766L20.8882 36.4971L15.9282 41.6734L13.6456 34.5161C13.6456 34.5776 12.5336 34.8658 10.6936 34.6923C9.63804 34.6063 8.59405 34.4037 7.57896 34.088Z" fill="#EE1C24"/>
</svg>
