<svg width="64" height="64" viewBox="0 0 64 64" fill="none" xmlns="http://www.w3.org/2000/svg">
<path fill-rule="evenodd" clip-rule="evenodd" d="M29.0126 1.37242C28.665 1.45469 27.7594 1.82275 26.7629 2.28686C25.8456 2.7143 24.9206 3.14233 24.7072 3.23837C24.1411 3.49332 22.7791 4.11517 22.1085 4.42503C21.4191 4.74362 19.0399 5.83618 18.2686 6.18834C17.97 6.32474 17.1322 6.70891 16.4068 7.04205C15.6815 7.3752 14.8612 7.752 14.5839 7.87908C14.3065 8.00636 13.8178 8.23279 13.4978 8.38219C13.1778 8.5314 12.7415 8.73222 12.5282 8.82826C12.3148 8.9243 11.6516 9.22815 11.0543 9.50366C10.4569 9.77899 9.73201 10.1131 9.44344 10.246C8.81257 10.5367 8.81955 10.5497 9.85186 11.0015C10.2572 11.1789 10.8332 11.4398 11.1318 11.5815C11.4305 11.7229 11.8668 11.9255 12.1015 12.0314C12.3362 12.1374 12.7725 12.3359 13.0712 12.4726C16.1695 13.8912 17.3979 14.4542 17.7256 14.6064C17.9389 14.7055 18.3404 14.892 18.6177 15.0208C19.8926 15.613 20.3298 15.812 20.3552 15.812C20.3703 15.812 20.7797 16 21.2649 16.23C22.0278 16.5914 24.2011 17.5924 25.289 18.0837C25.481 18.1702 25.9992 18.4106 26.4406 18.6176C26.8818 18.8247 27.2538 18.9941 27.2668 18.9941C27.2922 18.9941 27.951 19.296 29.8399 20.1732C31.2622 20.8334 31.5337 21.0661 31.5337 21.6237C31.5337 22.1454 31.2735 22.4605 30.552 22.8121C28.1321 23.9916 24.3229 25.6765 24.1654 25.6369C24.0676 25.6125 23.6433 25.4318 23.2227 25.2357C22.8018 25.0397 22.3529 24.8325 22.2249 24.7754C21.8766 24.62 17.4258 22.5837 16.7559 22.2733C16.4359 22.1251 16.0345 21.9401 15.8638 21.8627C15.6932 21.7851 15.2743 21.5928 14.9329 21.4353C14.2726 21.1305 13.6258 20.8348 12.9936 20.5488C12.7803 20.4522 12.3265 20.2422 11.9851 20.0822C11.0789 19.6569 7.98796 18.2447 7.59234 18.0751C7.26013 17.9325 5.8093 17.2701 4.80957 16.8043C3.77745 16.3233 2.19844 15.5941 1.82298 15.4251C1.60966 15.3291 1.20821 15.1487 0.930885 15.0241C0.653559 14.8997 0.365954 14.7641 0.291871 14.723C0.217788 14.6816 0.121791 14.6479 0.0785439 14.6479C0.0261816 14.6479 0 16.7348 0 20.9215V27.1951L0.989066 27.6435C2.6922 28.416 3.34614 28.7148 4.30534 29.1591C5.01398 29.4874 5.61518 29.7635 7.60223 30.6736C10.0146 31.7784 10.3976 31.9657 10.3609 32.0231C10.3237 32.0815 9.98355 32.2563 9.30885 32.5635C8.08861 33.1193 7.17654 33.5402 6.01196 34.0854C5.36364 34.3889 4.5466 34.7662 2.59096 35.6654C1.56272 36.138 0.559113 36.6037 0.360718 36.7001L0 36.8753V43.1548C0 48.1474 0.0197813 49.4259 0.0969672 49.3944C0.233885 49.3389 2.01246 48.5233 2.75387 48.1763C3.40316 47.8723 3.78793 47.6961 4.49928 47.377C4.73394 47.2718 5.15284 47.0799 5.43016 46.9509C6.03097 46.6709 11.6174 44.1107 12.0627 43.9111C12.4929 43.7182 16.8975 41.6967 17.6092 41.3653C17.9292 41.2162 18.3656 41.0148 18.5789 40.9178C18.7922 40.8206 20.1548 40.1953 21.607 39.528L24.2472 38.3146L25.3693 38.8258C25.9864 39.107 26.666 39.4188 26.8793 39.5187C27.4547 39.7886 28.2888 40.1699 29.6178 40.7706C31.2312 41.4997 31.6941 41.9349 31.5351 42.5723C31.3877 43.1633 31.23 43.2617 28.2756 44.6043C27.593 44.9148 26.8075 45.2735 26.5302 45.402C26.2529 45.5302 25.7991 45.7382 25.5218 45.8638C25.2444 45.9895 24.8081 46.1932 24.5521 46.3166C24.2961 46.4398 23.8772 46.6325 23.6212 46.7446C23.1598 46.9466 21.0618 47.9014 20.0916 48.351C19.8143 48.4794 19.4128 48.6639 19.1995 48.7611C18.7599 48.9612 17.8893 49.3624 17.1438 49.7084C16.8665 49.8372 15.8541 50.3004 14.8942 50.7375C13.9342 51.1748 12.9393 51.6296 12.6833 51.7482C12.4273 51.8667 11.991 52.0687 11.7136 52.1971C11.4363 52.3254 10.965 52.5412 10.6664 52.6762C8.70726 53.5629 8.77534 53.5053 9.37168 53.7703C9.93312 54.0198 10.3747 54.2222 11.093 54.5586C12.0645 55.0138 12.5026 55.2152 14.4287 56.0924C15.3887 56.5296 16.4534 57.0181 16.7947 57.1784C17.136 57.3385 17.5898 57.5468 17.8032 57.6413C18.0165 57.7358 18.4005 57.9116 18.6565 58.0321C18.9125 58.1526 19.2965 58.3284 19.5098 58.4229C19.7231 58.5173 20.1769 58.7255 20.5182 58.8856C20.8596 59.0455 21.7672 59.4644 22.5352 59.8166C24.1437 60.5542 24.3386 60.6439 26.4139 61.6018C26.7125 61.7397 27.1489 61.9392 27.3835 62.0453C27.6182 62.1513 27.9847 62.3172 28.198 62.4142C29.2393 62.887 30.718 62.893 31.7364 62.4285C32.7227 61.9786 35.7677 60.5872 36.2657 60.3587C36.9218 60.0577 37.4656 59.8103 37.9336 59.5998C38.1256 59.5135 38.5968 59.2969 38.9808 59.1186C39.3648 58.9403 39.836 58.7236 40.028 58.6371C40.22 58.5507 40.6564 58.3489 40.9977 58.1889C41.6014 57.906 42.6906 57.4087 43.6352 56.9849C44.0836 56.7837 44.4548 56.6126 45.5358 56.1083C45.8131 55.9791 46.2495 55.7794 46.5055 55.6648C46.7614 55.5503 48.0356 54.9676 49.3369 54.3702C51.5784 53.3411 51.9007 53.1941 52.692 52.8398C52.8733 52.7585 53.3533 52.5367 53.7586 52.3467C54.1639 52.157 55.281 51.6436 56.241 51.2061C58.842 50.0204 59.5279 49.7039 60.517 49.2332C60.8422 49.0784 61.1349 48.9517 61.1671 48.9517C61.4047 48.9517 62.7847 48.0712 63.2003 47.6546C64.1894 46.6628 64.2679 45.2343 63.3973 44.0733C63.0389 43.5952 62.1185 43.1 58.4101 41.3905C56.385 40.457 54.4744 39.5761 54.1641 39.433C53.8538 39.29 53.5877 39.1728 53.5726 39.1728C53.5575 39.1728 53.1481 38.9859 52.6629 38.7577C51.5749 38.2461 51.2834 38.1114 49.5308 37.3107C48.7628 36.9599 47.7734 36.502 47.332 36.293C46.8908 36.0841 46.5126 35.9131 46.4921 35.9131C46.4715 35.9131 46.1868 35.7868 45.8595 35.6326C44.8714 35.1669 44.3532 34.9269 43.9455 34.7461C43.7322 34.6514 42.842 34.2443 41.9674 33.8413C41.0927 33.4383 40.22 33.0365 40.028 32.9482C39.836 32.8599 39.4695 32.6905 39.2135 32.572C38.9575 32.4534 38.5997 32.2943 38.4184 32.2183C37.9912 32.0396 38.0012 31.9996 38.5348 31.7553C38.7801 31.6432 39.3648 31.3758 39.8341 31.1612C40.3034 30.9466 40.9143 30.6669 41.1917 30.5392C41.469 30.4117 41.8879 30.2202 42.1225 30.1139C42.6326 29.8828 43.385 29.5359 44.0231 29.2377C44.2791 29.1179 44.698 28.9262 44.954 28.8114C45.8699 28.4008 48.1488 27.3529 48.937 26.9798C49.3782 26.7708 49.7579 26.5999 49.7808 26.5999C49.8035 26.5999 50.0707 26.4807 50.3746 26.335C50.6785 26.1893 51.1191 25.9836 51.3538 25.8783C51.5885 25.7727 52.0074 25.582 52.2847 25.4545C52.9394 25.1532 54.3685 24.5001 54.961 24.2314C55.217 24.1152 55.6882 23.8981 56.0082 23.7491C56.3282 23.5998 56.6599 23.4508 56.7452 23.4177C56.9843 23.3251 60.7592 21.5866 61.6335 21.1668C63.3836 20.3258 63.9605 19.6134 63.9584 18.2956C63.9557 16.7078 63.2969 16.0747 60.1584 14.6436C59.8598 14.5074 59.4234 14.3085 59.1888 14.2014C58.9541 14.0943 58.0814 13.6933 57.2494 13.3101C56.4174 12.9269 54.9862 12.2714 54.0689 11.8535C53.1516 11.4358 52.1742 10.9899 51.8968 10.8628C51.6195 10.7357 50.9912 10.4486 50.5005 10.2249C50.0098 10.001 49.3169 9.68236 48.9607 9.51647C48.6044 9.35077 48.2997 9.21515 48.2832 9.21515C48.267 9.21515 47.9126 9.0541 47.4959 8.85717C46.3887 8.33388 45.8558 8.0863 45.4194 7.89266C45.2061 7.79817 44.3683 7.41575 43.5577 7.04303C42.1648 6.40254 40.0876 5.45104 39.0584 4.98189C38.8024 4.86528 38.2667 4.61751 37.8682 4.43124C37.4697 4.24517 37.1324 4.09286 37.119 4.09286C37.1056 4.09286 36.7684 3.94055 36.3699 3.75428C35.9713 3.56802 35.4706 3.33635 35.2573 3.23934C35.0439 3.14233 34.1887 2.74981 33.3567 2.367C30.7584 1.17122 30.3034 1.06702 29.0126 1.37242Z" fill="#0A53A0"/>
</svg>
