<svg width="64" height="64" viewBox="0 0 64 64" fill="none" xmlns="http://www.w3.org/2000/svg">
<path d="M0 20.356V32.2596H11.4645V20.356H0ZM7.93694 28.5969H3.52666V24.0176H7.93694V28.5969Z" fill="black"/>
<path d="M14.9922 24.0186H19.4016V28.5969H14.9922V24.0186Z" fill="black"/>
<path d="M22.9287 20.356H29.316C31.6606 20.356 32.7315 21.9791 32.7315 23.4625C32.7315 24.531 32.3359 25.2202 31.2743 25.8625C32.6132 26.3764 33.3412 27.3033 33.3412 28.7333C33.3412 30.4434 32.1453 32.2583 29.3245 32.2583H22.9258L22.9287 20.356ZM26.4172 29.5713H28.7284C29.5526 29.5713 29.9221 28.9598 29.9221 28.4195C29.9221 28.6695 30.0281 27.4333 28.8456 27.4333H26.4172V29.5713ZM26.4255 25.0424H28.2829C29.132 25.0424 29.4704 24.6318 29.4704 24.0298C29.4704 23.8911 29.4289 23.1135 28.5266 23.1135H26.4255V25.0424Z" fill="black"/>
<path d="M36.9736 20.356H40.6666L44.8728 32.2437H41.0822L40.5274 30.4628H36.9889L36.5185 32.2344H32.7568L36.9736 20.356ZM38.6699 23.8853L37.695 27.8554H39.7794L38.6699 23.8853Z" fill="black"/>
<path d="M50.7625 23.8917H54.2845C54.2854 21.8734 52.8224 20 49.3517 20C45.5446 20 44.3658 22.1817 44.3658 23.7784C44.3658 26.353 47.4002 27.0376 47.4944 27.0681C47.9477 27.2164 49.8312 27.7402 50.301 27.9148C50.7086 28.0658 51.0984 28.4047 51.0984 28.8573C51.0984 29.5511 50.301 29.8862 49.6372 29.8862C49.2109 29.8862 47.7787 29.7396 47.7787 28.1632H44.1406C44.1406 30.2567 45.5276 32.5996 49.4196 32.5996C53.714 32.5996 54.6126 29.9399 54.6126 28.5254C54.6126 27.3711 53.9829 26.0907 52.5295 25.4811C51.655 25.1145 50.2059 24.7933 49.478 24.5726C49.1111 24.4609 47.8887 24.204 47.8887 23.4294C47.8887 22.4372 49.4639 22.5656 49.234 22.5656C49.9455 22.5656 50.7625 22.9816 50.7625 23.8917Z" fill="black"/>
<path d="M55.2095 20.354H63.9996V23.4957H58.7219V25.5899H63.428V28.5919H58.7055V32.257H55.1924L55.2095 20.354Z" fill="black"/>
<path d="M4.57498 41.6769L4.5712 41.6621L3.47219 37.3735H2.78281L1.66665 41.6769H1.62255L1.61921 41.6617L0.645829 37.3735H0.00878906L1.27596 42.5065H1.93728L3.08885 38.1599H3.13162L3.13541 38.1745L4.26871 42.5065H4.93048L6.25311 37.3735H5.62989L4.61819 41.6769H4.57498Z" fill="black"/>
<path d="M9.17803 39.4367C9.05031 39.2266 8.87816 39.0494 8.67464 38.9187C8.4666 38.7838 8.20153 38.7149 7.88591 38.7149C7.65444 38.7128 7.42517 38.7617 7.21323 38.8583C7.01143 38.952 6.8306 39.0883 6.68222 39.2584C6.52955 39.4362 6.4112 39.6428 6.33363 39.8669C6.24848 40.1157 6.20633 40.3781 6.20911 40.6422C6.21598 40.9078 6.25665 41.1714 6.33006 41.426C6.39499 41.6522 6.50435 41.8619 6.65125 42.0421C6.79546 42.2154 6.97576 42.3523 7.17848 42.4424C7.38675 42.5377 7.63666 42.5865 7.92021 42.5865C8.3236 42.5865 8.66283 42.4797 8.92789 42.2713C9.18761 42.0664 9.35934 41.7595 9.4402 41.3577H8.89181C8.8388 41.6001 8.73032 41.7837 8.57039 41.9047C8.41046 42.0257 8.19597 42.0897 7.94159 42.0897C7.7438 42.0897 7.57006 42.056 7.42417 41.9873C7.28515 41.9237 7.16145 41.8289 7.06199 41.7097C6.96705 41.5937 6.89683 41.4581 6.85595 41.3119C6.81289 41.1582 6.79364 40.9983 6.79893 40.8383V40.8189H9.50012C9.50624 40.586 9.48636 40.3531 9.44087 40.125C9.39372 39.8808 9.30469 39.6473 9.17803 39.4358M6.7976 40.3147L6.79893 40.2934C6.80772 40.1503 6.83886 40.0097 6.89115 39.8771C6.94205 39.7508 7.01466 39.6351 7.10542 39.5357C7.19714 39.4367 7.30724 39.358 7.42907 39.3044C7.56298 39.2461 7.70706 39.2171 7.85228 39.2193C7.99499 39.2177 8.13649 39.2466 8.26791 39.3044C8.38985 39.3587 8.50086 39.4363 8.59512 39.5332C8.68922 39.6315 8.76397 39.7479 8.81519 39.8759C8.86891 40.0089 8.90083 40.1502 8.90963 40.2941L8.91119 40.3154L6.7976 40.3147Z" fill="black"/>
<path d="M13.6664 42.0899C13.4775 42.0899 13.3124 42.0506 13.1763 41.9717C13.0427 41.8961 12.9282 41.7887 12.8422 41.6583C12.755 41.5225 12.6915 41.3718 12.6544 41.2131C12.6145 41.0456 12.5945 40.8736 12.5948 40.7011C12.5945 40.5157 12.6133 40.3309 12.6509 40.1497C12.685 39.981 12.7486 39.8202 12.8387 39.6753C12.928 39.5364 13.0487 39.4224 13.1904 39.3432C13.3374 39.2602 13.5211 39.2181 13.7367 39.2181C13.9916 39.2181 14.1976 39.2852 14.3495 39.4184C14.497 39.5477 14.5968 39.7318 14.6458 39.9644H15.2227C15.204 39.773 15.1486 39.5873 15.0598 39.4184C14.9766 39.2633 14.8627 39.1283 14.7257 39.0222C14.5853 38.9148 14.4266 38.8359 14.258 38.7895C14.0718 38.7382 13.8799 38.7128 13.6873 38.7139C13.4078 38.7139 13.1594 38.7657 12.9491 38.8684C12.7447 38.9653 12.5644 39.1097 12.4221 39.2903C12.2784 39.4768 12.1716 39.6908 12.1076 39.9203C12.0373 40.174 12.0024 40.437 12.004 40.7011C12.0014 40.9604 12.0375 41.2187 12.1112 41.4666C12.1764 41.6863 12.2846 41.8897 12.429 42.064C12.5722 42.2332 12.7514 42.3655 12.9523 42.4504C13.1601 42.5409 13.4033 42.586 13.6739 42.586C14.1272 42.586 14.4903 42.4615 14.7531 42.2148C15.0117 41.9724 15.1763 41.6232 15.2431 41.1775H14.6738C14.6339 41.4627 14.5306 41.6863 14.3664 41.8454C14.1976 42.0073 13.9626 42.0896 13.6664 42.0896" fill="black"/>
<path d="M17.0577 38.9142C16.8216 39.0821 16.6323 39.3117 16.5087 39.5798L16.5036 39.5904H16.4842V38.8011H15.9639V42.5068H16.5192V40.8613C16.5161 40.6432 16.5396 40.4256 16.5891 40.2137C16.6307 40.0381 16.7085 39.874 16.8172 39.7326C16.9267 39.5957 17.069 39.4911 17.2297 39.4292C17.3939 39.3628 17.5941 39.3286 17.8249 39.3261V38.7139C17.8111 38.7139 17.7977 38.7139 17.7843 38.7139C17.4948 38.7139 17.2498 38.7816 17.0586 38.9148" fill="black"/>
<path d="M20.8539 39.4367C20.7263 39.2265 20.5541 39.0493 20.3505 38.9187C20.1427 38.7838 19.8774 38.7149 19.5618 38.7149C19.3304 38.7128 19.1012 38.7616 18.8894 38.8583C18.6876 38.9523 18.5068 39.0889 18.3586 39.2593C18.2059 39.4368 18.0875 39.6431 18.0097 39.8669C17.9247 40.116 17.8828 40.3788 17.8859 40.6431C17.8927 40.9087 17.9333 41.1723 18.0066 41.4269C18.0717 41.6531 18.1811 41.8629 18.328 42.043C18.4722 42.2163 18.6524 42.3532 18.8551 42.4434C19.0633 42.5386 19.3132 42.5874 19.597 42.5874C20.0002 42.5874 20.3394 42.4806 20.6047 42.2722C20.8642 42.0673 21.0361 41.7604 21.117 41.3587H20.5677C20.5142 41.6015 20.4064 41.7847 20.247 41.9056C20.0875 42.0266 19.8723 42.0907 19.6179 42.0907C19.4201 42.0907 19.2464 42.0569 19.1007 41.9882C18.9617 41.9247 18.838 41.8299 18.7386 41.7107C18.6436 41.5946 18.5734 41.4591 18.5325 41.3129C18.4892 41.1588 18.4698 40.9986 18.4748 40.8383V40.8189H21.1758C21.1822 40.586 21.1624 40.3531 21.1168 40.125C21.0697 39.8808 20.9807 39.6473 20.8539 39.4358M18.4735 40.3147L18.4748 40.2934C18.4838 40.1503 18.515 40.0098 18.5673 39.8771C18.6176 39.7502 18.6899 39.6339 18.7807 39.5341C18.8724 39.4351 18.9825 39.3564 19.1043 39.3028C19.2382 39.2445 19.3823 39.2155 19.5275 39.2177C19.6701 39.216 19.8116 39.245 19.9429 39.3028C20.0646 39.3572 20.1754 39.4349 20.2692 39.532C20.3635 39.6303 20.4383 39.7467 20.4895 39.8748C20.5435 40.0081 20.5758 40.1498 20.5851 40.2941L20.5866 40.3154L18.4735 40.3147Z" fill="black"/>
<path d="M24.775 41.9737C24.7588 41.9059 24.7507 41.8 24.7507 41.6499V39.7241C24.7507 39.5115 24.7115 39.3369 24.6343 39.2048C24.5602 39.0754 24.4544 38.9687 24.3275 38.8958C24.194 38.8209 24.0486 38.7714 23.8983 38.7497C23.5419 38.6963 23.1742 38.7002 22.8481 38.7779C22.6784 38.817 22.5173 38.8887 22.373 38.9893C22.2358 39.0871 22.123 39.2174 22.044 39.3695C21.9645 39.5221 21.9186 39.7097 21.9081 39.9276H22.463C22.4806 39.6565 22.5743 39.4678 22.7434 39.3683C22.9125 39.2689 23.1276 39.2176 23.3809 39.2176C23.4764 39.2177 23.5717 39.2251 23.6662 39.2395C23.7589 39.2525 23.8486 39.2827 23.9311 39.3286C24.0115 39.3746 24.0789 39.4419 24.1264 39.5235C24.177 39.6086 24.2026 39.7222 24.2026 39.8605C24.2026 39.9812 24.1676 40.0758 24.0983 40.1394C24.0194 40.2082 23.9259 40.2567 23.8255 40.281C23.6976 40.316 23.5673 40.3407 23.4357 40.355C23.2914 40.3707 23.1359 40.3964 22.9733 40.4299C22.8211 40.4586 22.6708 40.4954 22.5247 40.5386C22.387 40.5783 22.2569 40.6425 22.1404 40.7285C22.0274 40.8132 21.9349 40.9241 21.8703 41.0523C21.8023 41.1839 21.7676 41.3571 21.7676 41.5646C21.7676 41.7496 21.799 41.9083 21.8602 42.0382C21.9183 42.164 22.005 42.2733 22.1128 42.3565C22.2244 42.4413 22.3513 42.5019 22.4859 42.5346C22.6353 42.571 22.7884 42.5888 22.9419 42.5877C23.1792 42.5899 23.4149 42.5451 23.6362 42.4559C23.855 42.3628 24.0478 42.2142 24.197 42.0237L24.2306 41.9809V42.0359C24.2306 42.2318 24.2752 42.3747 24.3607 42.4596C24.4463 42.5445 24.5665 42.5877 24.714 42.5877C24.8855 42.5877 25.0225 42.5593 25.1209 42.5024V42.063C25.0685 42.0808 25.0138 42.0904 24.9586 42.0917C24.8552 42.0917 24.7942 42.0533 24.7755 41.976M24.1963 41.2262C24.1941 41.3252 24.1722 41.4227 24.1322 41.5125C24.0848 41.6199 24.0166 41.716 23.9317 41.7947C23.8298 41.888 23.7118 41.9605 23.584 42.0084C23.4426 42.0639 23.2722 42.0926 23.0746 42.0926C22.9853 42.0929 22.8962 42.0831 22.8089 42.0632C22.7271 42.0465 22.6491 42.0136 22.5792 41.9663C22.5139 41.9208 22.4593 41.8605 22.4198 41.7898C22.3766 41.708 22.3551 41.6157 22.3576 41.5225C22.3576 41.365 22.393 41.2373 22.463 41.145C22.5338 41.0515 22.6265 40.9784 22.7323 40.9327C22.8498 40.8808 22.9734 40.8449 23.0998 40.8259C23.2272 40.8051 23.3624 40.7859 23.5007 40.7678C23.6344 40.7509 23.7611 40.7287 23.8794 40.7031C23.9819 40.6836 24.0792 40.6415 24.1647 40.5798L24.1952 40.5553L24.1963 41.2262Z" fill="black"/>
<path d="M30.5928 39.4367C30.4652 39.2265 30.2929 39.0493 30.0892 38.9187C29.8812 38.7838 29.6157 38.7149 29.3003 38.7149C29.0689 38.7128 28.8397 38.7616 28.6278 38.8583C28.4259 38.9522 28.2451 39.0888 28.0968 39.2593C27.9441 39.4368 27.8258 39.643 27.7482 39.8669C27.6634 40.1158 27.6214 40.3782 27.6241 40.6422C27.6305 40.9078 27.6711 41.1715 27.7449 41.426C27.8095 41.6524 27.9186 41.8626 28.0654 42.043C28.2098 42.2159 28.39 42.3528 28.5924 42.4434C28.8009 42.5386 29.0508 42.5874 29.3348 42.5874C29.738 42.5874 30.0765 42.4806 30.3416 42.2722C30.6009 42.0673 30.7735 41.7604 30.8539 41.3587H30.3064C30.2529 41.601 30.1447 41.7847 29.9848 41.9056C29.8248 42.0266 29.6106 42.0907 29.356 42.0907C29.1586 42.0907 28.9846 42.0569 28.8385 41.9882C28.6995 41.9247 28.5758 41.8299 28.4764 41.7107C28.3814 41.5946 28.3112 41.4591 28.2703 41.3129C28.2275 41.1592 28.2084 40.9995 28.214 40.8397V40.8202H30.9145C30.9206 40.5873 30.9006 40.3545 30.8548 40.1264C30.8077 39.8823 30.7189 39.6489 30.5926 39.4372M28.2247 40.3161L28.226 40.2948C28.2342 40.1516 28.2654 40.0109 28.3184 39.8785C28.3681 39.7514 28.4403 39.635 28.5312 39.5355C28.623 39.4365 28.7331 39.3578 28.855 39.3042C28.9889 39.2459 29.133 39.2169 29.2782 39.2191C29.4835 39.2161 29.685 39.277 29.8567 39.3941C30.0283 39.5111 30.1622 39.6789 30.2411 39.8757C30.2955 40.0089 30.328 40.1506 30.3371 40.295L30.3385 40.3163L28.2247 40.3161Z" fill="black"/>
<path d="M35.0888 42.0899C34.9003 42.0899 34.7353 42.0506 34.5987 41.9717C34.4651 41.896 34.3507 41.7886 34.2646 41.6583C34.1773 41.5225 34.1136 41.3718 34.0764 41.2131C34.0369 41.0455 34.017 40.8736 34.0171 40.701C34.0167 40.5157 34.0356 40.3308 34.0735 40.1497C34.1073 39.9812 34.1707 39.8206 34.2606 39.676C34.3502 39.537 34.471 39.4227 34.6128 39.3432C34.7591 39.2602 34.9431 39.2181 35.1596 39.2181C35.4135 39.2181 35.62 39.2852 35.7717 39.4184C35.9202 39.5477 36.0196 39.7318 36.0679 39.9644H36.6453C36.6265 39.7728 36.5712 39.5869 36.4824 39.4177C36.399 39.263 36.2852 39.1283 36.1483 39.0222C36.0077 38.9152 35.8491 38.8363 35.6806 38.7895C35.4943 38.7382 35.3024 38.7128 35.1097 38.7139C34.8304 38.7139 34.5816 38.7657 34.3718 38.8684C34.1673 38.9651 33.987 39.1095 33.845 39.2902C33.701 39.4766 33.5941 39.6907 33.5305 39.9203C33.4603 40.1741 33.4254 40.437 33.4269 40.701C33.4243 40.9604 33.4604 41.2186 33.5338 41.4666C33.599 41.686 33.7067 41.8893 33.8503 42.064C33.9939 42.2329 34.173 42.3651 34.3738 42.4504C34.5825 42.5409 34.8253 42.586 35.095 42.586C35.5496 42.586 35.9125 42.4615 36.1753 42.2148C36.4328 41.9731 36.5985 41.6238 36.6653 41.1775H36.0976C36.0581 41.4626 35.9552 41.6863 35.7899 41.8454C35.6224 42.0073 35.3868 42.0896 35.0899 42.0896" fill="black"/>
<path d="M40.089 39.0915C39.9873 38.9684 39.8582 38.8731 39.7128 38.8139C39.5568 38.7476 39.3604 38.7136 39.1269 38.7136C39.0167 38.7143 38.9068 38.7265 38.7988 38.7499C38.6873 38.7733 38.5788 38.8105 38.4756 38.8607C38.3742 38.9096 38.2806 38.9744 38.1981 39.0528C38.1168 39.1299 38.0328 39.2263 37.9876 39.3392L37.9832 39.3514H37.9564V37.3735H37.4014V42.5065H37.9564V40.4114C37.9548 40.2508 37.9774 40.0909 38.0233 39.9375C38.0656 39.7981 38.1345 39.669 38.2257 39.5577C38.3184 39.448 38.4341 39.3617 38.5639 39.3056C38.6986 39.2471 38.8597 39.2178 39.0425 39.2178C39.2742 39.2178 39.4599 39.2871 39.5934 39.4259C39.7268 39.5647 39.7938 39.7536 39.7938 39.9905V42.5065H40.3507V40.064C40.3522 39.8788 40.3324 39.6941 40.2919 39.5138C40.257 39.3586 40.1878 39.214 40.0896 39.0915" fill="black"/>
<path d="M44.0724 39.4367C43.945 39.226 43.7728 39.0484 43.569 38.9177C43.3611 38.7829 43.0956 38.7139 42.78 38.7139C42.5485 38.7118 42.3193 38.7606 42.1073 38.8573C41.9055 38.9514 41.7247 39.088 41.5763 39.2584C41.4239 39.4363 41.3056 39.6429 41.2277 39.8669C41.1427 40.1157 41.1007 40.3781 41.1037 40.6421C41.1102 40.9078 41.1507 41.1713 41.2242 41.4259C41.2893 41.6521 41.3988 41.8619 41.5458 42.042C41.69 42.2151 41.8701 42.352 42.0726 42.4424C42.2808 42.5377 42.5312 42.5865 42.8148 42.5865C43.2179 42.5865 43.556 42.4796 43.8218 42.2712C44.081 42.0663 44.2534 41.7599 44.3341 41.3577H43.787C43.7338 41.6001 43.6255 41.7837 43.4649 41.9047C43.3043 42.0256 43.0905 42.0897 42.8366 42.0897C42.639 42.0897 42.4648 42.0559 42.3192 41.9872C42.1801 41.9238 42.0564 41.829 41.957 41.7097C41.862 41.5937 41.7919 41.4581 41.7512 41.3119C41.7077 41.1584 41.6885 40.9986 41.6941 40.8387V40.8193H44.3947C44.4008 40.5864 44.3807 40.3535 44.3347 40.1254C44.2878 39.8812 44.199 39.6478 44.0726 39.4362M41.6919 40.3151L41.6937 40.2938C41.7021 40.1507 41.7333 40.01 41.7859 39.8775C41.8356 39.7504 41.9079 39.634 41.9989 39.5345C42.0908 39.4357 42.2009 39.357 42.3227 39.3032C42.4566 39.2447 42.6007 39.2158 42.7459 39.2181C42.8835 39.2165 43.02 39.2434 43.1474 39.2973C43.2748 39.3512 43.3906 39.431 43.4879 39.532C43.5821 39.6304 43.6572 39.7468 43.7091 39.8747C43.7627 40.0081 43.7949 40.1498 43.8042 40.294L43.806 40.3153L41.6919 40.3151Z" fill="black"/>
<path d="M49.8048 38.9635C49.6956 38.8747 49.5697 38.8105 49.4353 38.775C49.2762 38.7326 49.1124 38.7121 48.9481 38.7139C48.7238 38.7119 48.5025 38.7684 48.3046 38.8784C48.1115 38.9871 47.9492 39.1466 47.834 39.3409L47.8117 39.3772L47.7984 39.3372C47.7266 39.1115 47.6003 38.9498 47.4246 38.8557C47.2388 38.7593 47.0335 38.7103 46.8259 38.713C46.328 38.713 45.92 38.9248 45.6558 39.3418L45.65 39.3509H45.6277V38.8011H45.1074V42.5069H45.6625V40.1941C45.6662 40.0993 45.6841 40.0057 45.7155 39.9166C45.7543 39.8002 45.8119 39.6916 45.8859 39.5953C45.9702 39.4866 46.0743 39.3961 46.1922 39.3291C46.3171 39.2553 46.4693 39.2181 46.6443 39.2181C46.7811 39.2181 46.8954 39.2392 46.9836 39.2817C47.0693 39.3206 47.1431 39.3831 47.1972 39.4623C47.2517 39.5439 47.2896 39.6361 47.3085 39.7334C47.3304 39.8445 47.3409 39.9577 47.34 40.0711V42.5069H47.8957V40.1941C47.8957 39.9008 47.9815 39.6622 48.1518 39.4855C48.3222 39.3088 48.5595 39.2186 48.8564 39.2186C49.002 39.2186 49.1237 39.2417 49.2161 39.2852C49.3044 39.3253 49.3807 39.3892 49.4373 39.4702C49.4914 39.5519 49.5279 39.6447 49.5442 39.7424C49.5639 39.8511 49.5735 39.9616 49.5729 40.0722V42.5069H50.128V39.7813C50.128 39.5916 50.0993 39.4276 50.0425 39.2923C49.99 39.1644 49.9085 39.0515 49.8048 38.9635Z" fill="black"/>
<path d="M51.6547 38.0877H51.0996V37.3735H51.6547V38.0877ZM51.6547 38.8008H51.0996V42.5065H51.6547V38.8008Z" fill="black"/>
<path d="M54.9744 42.3432C55.1161 42.2546 55.2357 42.1327 55.3237 41.9873C55.4128 41.8418 55.4573 41.6551 55.4573 41.4322C55.4573 41.2594 55.4241 41.1116 55.3589 40.9928C55.2937 40.8764 55.2048 40.7763 55.0985 40.6993C54.9844 40.6172 54.8592 40.5532 54.7269 40.5094C54.5843 40.4606 54.4392 40.4196 54.2924 40.3868C54.1529 40.353 54.0137 40.3207 53.8736 40.289C53.7443 40.2609 53.6173 40.2222 53.4938 40.1733C53.3903 40.1328 53.295 40.0726 53.2127 39.9957C53.1757 39.9602 53.1464 39.9168 53.1267 39.8686C53.107 39.8204 53.0974 39.7685 53.0985 39.7161C53.095 39.6272 53.121 39.5398 53.1722 39.4684C53.2228 39.4038 53.2872 39.3525 53.3604 39.3185C53.4409 39.2797 53.5263 39.2532 53.6141 39.2399C53.8016 39.2066 53.9935 39.2105 54.1797 39.2515C54.2736 39.272 54.3638 39.3079 54.4469 39.3579C54.5275 39.4071 54.5961 39.4749 54.6474 39.5561C54.7003 39.6445 54.732 39.7448 54.7399 39.8486H55.2949C55.2796 39.6338 55.2337 39.4524 55.1591 39.3084C55.0857 39.1648 54.9784 39.0429 54.8472 38.9543C54.7098 38.8635 54.5569 38.8007 54.3968 38.7692C54.2118 38.7319 54.0237 38.7137 53.8353 38.7149C53.6758 38.7155 53.517 38.736 53.3622 38.776C53.211 38.8137 53.0666 38.8765 52.9348 38.9621C52.8103 39.0452 52.7051 39.1558 52.6265 39.2859C52.5479 39.4171 52.5078 39.5771 52.5078 39.7607C52.5078 39.9964 52.5648 40.1817 52.6777 40.3121C52.7957 40.4488 52.9426 40.5552 53.1069 40.6229C53.2892 40.7002 53.4785 40.758 53.672 40.7957C53.8743 40.836 54.0658 40.8822 54.2418 40.9345C54.3986 40.9762 54.5477 41.0442 54.6833 41.1359C54.8045 41.222 54.8661 41.3492 54.8661 41.5145C54.8661 41.6348 54.8367 41.7349 54.7771 41.8131C54.7197 41.8907 54.644 41.9515 54.5572 41.9896C54.4653 42.03 54.3686 42.0573 54.2696 42.0708C54.0532 42.1041 53.8329 42.0991 53.6181 42.0559C53.5083 42.0337 53.4029 41.9923 53.3063 41.9336C53.2136 41.8769 53.1357 41.7975 53.0793 41.7023C53.0222 41.6003 52.9904 41.4851 52.9867 41.3672H52.4336C52.4441 41.5867 52.4906 41.7747 52.5699 41.9285C52.6478 42.0826 52.7609 42.2147 52.8991 42.3131C53.0434 42.4132 53.2044 42.4844 53.3738 42.5231C53.7168 42.6062 54.1048 42.6099 54.4855 42.5342C54.6584 42.5021 54.8244 42.438 54.9755 42.345" fill="black"/>
<path d="M56.9601 37.6787H56.4043V38.8013H55.8125V39.3051H56.4043V41.7085C56.4043 41.8794 56.4208 42.0193 56.4529 42.1225C56.4778 42.2143 56.528 42.2966 56.5972 42.3593C56.6718 42.42 56.76 42.4598 56.8536 42.475C56.9825 42.4986 57.1132 42.5094 57.2441 42.5073H57.6788V42.0034H57.4256C57.3491 42.0041 57.2726 42.0006 57.1964 41.993C57.1449 41.9886 57.0952 41.971 57.0518 41.9419C57.0152 41.915 56.9891 41.8754 56.9783 41.8302C56.9645 41.7715 56.9584 41.7111 56.9601 41.6507V39.3051H57.7002V38.8013H56.9601V37.6787Z" fill="black"/>
<path d="M26.4946 37.6787H25.9377V38.8013H25.3457V39.3051H25.9377V41.7085C25.9377 41.8794 25.9542 42.0193 25.9863 42.1225C26.0111 42.2144 26.0613 42.2967 26.1306 42.3593C26.2051 42.4201 26.2934 42.4599 26.387 42.475C26.5158 42.4986 26.6465 42.5094 26.7773 42.5073H27.2121V42.0034H26.9588C26.8823 42.0041 26.8059 42.0006 26.7298 41.993C26.6781 41.9885 26.6282 41.971 26.5846 41.9419C26.5483 41.9148 26.5224 41.8752 26.5115 41.8302C26.4979 41.7714 26.4919 41.7111 26.4937 41.6507V39.3051H27.2337V38.8013H26.4937L26.4946 37.6787Z" fill="black"/>
<path d="M59.0773 39.625L59.0722 39.6354H59.0525V38.8015H58.5322V42.5072H59.0873V40.9052C59.0846 40.6878 59.1083 40.4709 59.1579 40.2597C59.1992 40.0839 59.2766 39.9195 59.3847 39.7777C59.4943 39.641 59.6364 39.5363 59.797 39.474C59.9613 39.4074 60.1616 39.3739 60.3921 39.3716V38.7587C60.0847 38.7527 59.827 38.8202 59.6266 38.959C59.3906 39.1274 59.2012 39.357 59.0773 39.625Z" fill="black"/>
<path d="M62.227 43.4745C62.3046 43.3251 62.3728 43.1705 62.431 43.0119L63.9915 38.801H63.4053L62.3927 41.8657H62.3521L62.3475 41.8518L61.2981 38.8008H60.6709L62.0931 42.5054L62.0904 42.5121L61.8454 43.1421C61.7985 43.244 61.73 43.3335 61.6449 43.4039C61.5672 43.465 61.4643 43.4953 61.3398 43.4953C61.2772 43.4951 61.215 43.4849 61.1554 43.465C61.1064 43.4493 61.058 43.4321 61.0099 43.4155V43.9393C61.0702 43.9613 61.1325 43.9768 61.1959 43.9856C61.2644 43.9948 61.3335 43.9995 61.4026 43.9995C61.5187 44.0019 61.6344 43.984 61.7447 43.9465C61.8427 43.9096 61.932 43.8517 62.0071 43.7767C62.0947 43.6879 62.1688 43.5858 62.227 43.474" fill="black"/>
</svg>
