<svg width="64" height="64" viewBox="0 0 64 64" fill="none" xmlns="http://www.w3.org/2000/svg">
<path d="M29.9879 61.9745C30.389 61.9745 30.7566 62 31.1482 62C36.4933 62 41.5783 60.5914 45.9613 58.1101L1.36182 37.2846C3.81119 50.9327 15.6498 61.4254 29.9879 61.9745ZM29.9879 24.7879L14.332 31.6733L29.9879 38.67L55.3076 49.9435C59.1345 44.9578 61.3618 38.7488 61.3618 32.0139C61.3618 25.1493 59.0246 18.8106 55.0975 13.7484L29.9879 24.7879ZM45.6223 5.68368C41.3085 3.33678 36.3644 2 31.1482 2C30.7566 2 30.389 2 29.9879 2.0278C15.8861 2.55603 4.2027 12.7313 1.49312 26.0412L29.9879 12.912L45.6223 5.68368Z" fill="#006CB7"/>
</svg>
