<svg width="64" height="64" viewBox="0 0 64 64" fill="none" xmlns="http://www.w3.org/2000/svg">
<rect width="64" height="64" fill="#0055A7"/>
<path d="M27.9897 24.2066H27.3839L27.8796 21.3426H27.1636L27.2187 20.957H28.5956L27.9897 24.2066Z" fill="white"/>
<path d="M31.019 22.444C30.9088 22.389 30.7987 22.2788 30.7436 22.1686C30.6885 22.0585 30.6885 21.8933 30.6885 21.7831C30.7436 21.5628 30.9088 21.3425 31.1291 21.1772C31.4045 21.012 31.6799 20.9019 31.9553 20.9019C32.2858 20.9019 32.5611 21.012 32.7264 21.1772C32.8916 21.3425 33.0018 21.5628 32.9467 21.7831C32.9467 21.8933 32.8365 22.0585 32.7815 22.1686C32.6713 22.2788 32.5611 22.389 32.3959 22.444C32.6162 22.4991 32.7264 22.6093 32.8365 22.7745C32.9467 22.8846 32.9467 23.0499 32.8916 23.2702C32.8365 23.6007 32.6713 23.821 32.3959 24.0413C32.1205 24.2616 31.735 24.3167 31.3494 24.3167C30.9639 24.3167 30.6885 24.2065 30.4682 24.0413C30.2479 23.821 30.1928 23.6006 30.2479 23.3253C30.303 23.1049 30.358 22.9397 30.4682 22.8296C30.6334 22.6093 30.7987 22.4991 31.019 22.444ZM30.8537 23.2702C30.8537 23.4354 30.8537 23.6006 31.019 23.7108C31.1291 23.821 31.2944 23.876 31.5147 23.876C31.735 23.876 31.9553 23.821 32.1205 23.7108C32.2858 23.6006 32.3959 23.4354 32.3959 23.2702C32.3959 23.105 32.3959 22.9397 32.2858 22.8296C32.1756 22.7194 32.0104 22.6643 31.7901 22.6643C31.5698 22.6643 31.3494 22.7194 31.2393 22.8296C30.9639 22.9397 30.8537 23.0499 30.8537 23.2702ZM31.2944 21.7831C31.2944 21.8933 31.2944 22.0034 31.3494 22.1136C31.4596 22.1686 31.5698 22.2237 31.735 22.2237C31.9002 22.2237 32.0104 22.1686 32.1756 22.1136C32.2858 22.0585 32.3408 21.9483 32.3959 21.7831C32.3959 21.6729 32.3959 21.5628 32.2858 21.4526C32.1756 21.3425 32.0654 21.3425 31.9002 21.3425C31.735 21.3425 31.6248 21.3976 31.4596 21.4526C31.4045 21.5628 31.3494 21.6729 31.2944 21.7831Z" fill="white"/>
<path d="M35.2049 24.2066H34.5439L36.692 21.3976H34.8744L34.9295 20.957H37.3529L37.2427 21.4527L35.2049 24.2066Z" fill="white"/>
<path d="M26.888 18.809H27.4388C27.4388 18.9742 27.4388 19.1394 27.4939 19.2496C27.549 19.3597 27.6591 19.4148 27.8244 19.4148C27.9896 19.4148 28.0998 19.3597 28.1548 19.3046C28.265 19.1945 28.3201 19.1394 28.3751 18.9742C28.3751 18.864 28.3751 18.7539 28.3201 18.6988C28.265 18.5886 28.1548 18.5336 28.0447 18.4785C27.9896 18.4785 27.9345 18.4234 27.8244 18.4234C27.6041 18.3683 27.4939 18.2582 27.4388 18.2031C27.3287 18.0929 27.2736 17.9828 27.2185 17.8726C27.2185 17.7625 27.2185 17.5973 27.2185 17.4871C27.2736 17.2117 27.3837 16.9914 27.6041 16.8262C27.8244 16.6609 28.0447 16.5508 28.3201 16.5508C28.5954 16.5508 28.8158 16.6609 28.9259 16.8262C29.0911 16.9914 29.0911 17.2117 29.0911 17.4871H28.5404C28.5404 17.3769 28.5404 17.2668 28.4853 17.2117C28.4302 17.1566 28.3201 17.1016 28.2099 17.1016C28.0998 17.1016 27.9896 17.1566 27.9345 17.2117C27.8244 17.2668 27.8244 17.3769 27.7693 17.4871C27.7142 17.6523 27.8794 17.8176 28.1548 17.9277C28.265 17.9828 28.3201 17.9828 28.3751 17.9828C28.5954 18.093 28.7607 18.2031 28.8158 18.3683C28.9259 18.5336 28.9259 18.6988 28.8708 18.9742C28.8158 19.2496 28.6505 19.525 28.4302 19.6902C28.2099 19.9105 27.9345 19.9656 27.6041 19.9656C27.3287 19.9656 27.0533 19.8554 26.9431 19.6902C26.888 19.4148 26.833 19.1394 26.888 18.809Z" fill="white"/>
<path d="M29.8623 19.8555L30.4682 16.606H31.0189L30.4682 19.8555H29.8623Z" fill="white"/>
<path d="M32.2309 19.8554H31.625L32.2309 16.6059H32.7816L32.7265 16.9914C32.8918 16.8262 33.057 16.7711 33.1672 16.6609C33.2773 16.5508 33.4976 16.5508 33.6629 16.5508C34.1035 16.5508 34.4339 16.6609 34.5992 16.9363C34.7644 17.2117 34.8195 17.5422 34.7644 18.0379L34.4339 19.9105H33.8281L34.1035 18.2031C34.1586 17.8726 34.1586 17.5973 34.0484 17.432C33.9382 17.2668 33.773 17.2117 33.4976 17.2117C33.2222 17.2117 32.9469 17.3219 32.7816 17.4871C32.6164 17.7074 32.5062 18.0379 32.3961 18.4785L32.2309 19.8554Z" fill="white"/>
<path d="M38.8949 18.7537C38.6746 19.1392 38.4543 19.4697 38.1238 19.6349C37.7933 19.8552 37.4629 19.9103 37.0773 19.9103C36.857 19.9103 36.6367 19.8552 36.4164 19.8002C36.2512 19.7451 36.0859 19.5799 35.9207 19.4146C35.8105 19.2494 35.7004 19.0842 35.6453 18.8638C35.5902 18.6435 35.5902 18.4232 35.6453 18.2029C35.7004 17.9826 35.7555 17.7623 35.8656 17.542C35.9758 17.3217 36.0859 17.1564 36.3062 16.9912C36.5265 16.826 36.6918 16.6607 36.9672 16.6057C37.1875 16.4955 37.4078 16.4404 37.6832 16.4404C38.0687 16.4404 38.3441 16.5506 38.6195 16.7709C38.8398 16.9912 39.005 17.2666 39.0601 17.6521H38.3992C38.3441 17.4318 38.2339 17.3217 38.0687 17.2115C37.9035 17.1014 37.7383 17.0463 37.5179 17.0463C37.2426 17.0463 36.9672 17.1564 36.6918 17.3768C36.4715 17.5971 36.3062 17.8724 36.2512 18.2029C36.1961 18.5334 36.2512 18.8088 36.4164 19.0291C36.5816 19.2494 36.8019 19.3595 37.1324 19.3595C37.3527 19.3595 37.5179 19.3045 37.7383 19.1943C37.9035 19.0841 38.0687 18.9189 38.1789 18.7537H38.8949Z" fill="white"/>
<path d="M40.1619 18.4232C40.1619 18.6986 40.217 18.9189 40.4373 19.0842C40.6025 19.2494 40.8228 19.3595 41.0982 19.3595C41.3185 19.3595 41.4838 19.3045 41.649 19.1943C41.8142 19.0841 41.9795 18.974 42.0896 18.8088H42.7505C42.5302 19.1392 42.2548 19.4146 41.9795 19.6349C41.649 19.8552 41.3185 19.9103 40.9881 19.9103C40.7678 19.9103 40.5475 19.8552 40.3822 19.8002C40.1619 19.69 40.0518 19.5799 39.8865 19.4146C39.7764 19.2494 39.6662 19.0842 39.6111 18.8638C39.5561 18.6435 39.5561 18.4232 39.6111 18.2029C39.6111 17.9826 39.7213 17.7623 39.8314 17.542C39.9416 17.3217 40.1068 17.1564 40.2721 16.9912C40.4924 16.826 40.6576 16.6607 40.8779 16.6057C41.0982 16.4955 41.3185 16.4404 41.5939 16.4404C41.8693 16.4404 42.1447 16.4955 42.365 16.6608C42.5853 16.7709 42.7505 16.9912 42.8607 17.2115C42.9158 17.3768 42.9709 17.542 42.9709 17.7072C42.9709 17.8725 42.9709 18.0928 42.9158 18.3131V18.4232H40.1619ZM42.365 17.8724C42.365 17.5971 42.2548 17.4318 42.0896 17.2666C41.9244 17.1014 41.7592 17.0463 41.4838 17.0463C41.2084 17.0463 40.9881 17.1014 40.7678 17.2666C40.5475 17.4318 40.3822 17.5971 40.2721 17.8724H42.365Z" fill="white"/>
<path d="M40.0518 24.2068H39.3909L40.5475 23.1052C40.4924 23.1052 40.4374 23.1603 40.3823 23.1603C40.3272 23.1603 40.2721 23.1603 40.2171 23.1603C39.8315 23.1603 39.5561 23.0502 39.3358 22.8298C39.1155 22.6095 39.0053 22.3342 39.0604 22.0588C39.0604 21.9486 39.1155 21.8385 39.1706 21.7283C39.2257 21.6181 39.2807 21.508 39.3909 21.3978C39.5561 21.2326 39.7764 21.0674 39.9967 20.9572C40.217 20.8471 40.4924 20.792 40.7678 20.792C40.9881 20.792 41.1534 20.8471 41.3186 20.9021C41.4838 20.9572 41.6491 21.0674 41.7592 21.1224C41.8694 21.2326 41.9795 21.3428 42.0346 21.508C42.0897 21.6732 42.0897 21.7834 42.0897 21.8935C42.0346 22.1689 41.7592 22.5545 41.2635 23.0502L40.0518 24.2068ZM41.3737 22.1138C41.3737 21.8935 41.3186 21.7283 41.2084 21.6182C41.0432 21.4529 40.8229 21.3978 40.6026 21.3978C40.3272 21.3978 40.1069 21.4529 39.9417 21.5631C39.7764 21.6732 39.6663 21.8385 39.6112 22.0588C39.6112 22.2791 39.6112 22.4443 39.7764 22.5545C39.8866 22.6646 40.1069 22.7748 40.3272 22.7748C40.6026 22.7748 40.8229 22.7197 40.9881 22.5545C41.2635 22.4443 41.3737 22.2791 41.3737 22.1138Z" fill="white"/>
<path d="M44.1272 28.117L45.394 21.4527C45.6694 19.9656 45.7795 19.0293 45.6694 18.5336C45.6143 18.0379 45.2288 17.4871 44.6229 16.8812H47.4869C48.5885 16.8812 49.4697 16.6059 50.1307 16L45.0635 42.7676C44.7882 44.2547 44.678 45.191 44.7331 45.6867C44.7882 46.1273 45.1737 46.7332 45.7795 47.339H40.437L42.4198 36.8192C42.7503 35.0568 42.9155 33.8451 42.9155 33.1291C42.9155 32.4131 42.7503 31.7521 42.4198 31.0361C41.9792 30.21 41.4284 29.549 40.6574 29.0533C39.8863 28.5576 39.005 28.3373 38.0136 28.3373C36.2512 28.3373 34.1582 29.0533 32.7262 30.4853C31.2942 31.9173 30.3579 33.7349 29.9723 35.938C29.4766 38.6368 29.8622 40.8399 31.129 42.5473C32.2305 43.9793 34.1582 44.7504 35.9758 44.7504C37.2426 44.7504 38.5644 44.3098 39.9413 43.4836L36.6918 47.6144C35.9758 47.8347 35.2598 47.9449 34.4887 47.9449C32.0653 47.9449 29.752 47.3941 28.32 46.2925C27.0532 45.2461 26.172 43.9242 25.6763 42.2719C25.1806 40.6196 25.1806 38.7469 25.5111 36.654C26.1169 33.4044 27.6591 30.7057 30.0274 28.4475C32.2856 26.3545 35.2047 25.3081 37.9035 25.3081C40.437 25.4182 42.4749 26.2995 44.1272 28.117Z" fill="white"/>
<path d="M23.1979 29.9347L26.2272 26.0242C27.3838 25.6386 28.3752 25.4734 29.2014 25.4734C31.1841 25.4734 34.0482 26.1894 35.4251 27.6214C37.3528 29.6593 37.9587 32.4682 37.2977 36.1033C36.5817 39.9037 34.4337 42.9329 31.5146 45.1911C29.0912 47.0637 25.1807 48 21.6558 48C18.5714 48 15.9828 47.7247 14 47.1739C14.6059 46.8434 14.9914 46.4579 15.2668 46.0173C15.4871 45.5766 15.7074 44.9157 15.9277 43.9243L20.1687 21.4527C20.4441 19.9657 20.5542 19.0294 20.4441 18.5887C20.389 18.093 20.0585 17.5423 19.3976 16.9364H22.3167C23.4182 16.9364 24.2995 16.661 24.9053 16.0552L19.5628 44.1997C20.7745 44.5852 21.9862 44.7505 23.0327 44.7505C25.2358 44.7505 28.0998 44.0345 29.5869 42.6575C31.1291 41.2255 32.1205 39.3529 32.5611 37.0397C33.0017 34.6162 32.7814 32.6885 31.9552 31.1464C31.074 29.6593 28.7057 28.8882 26.8881 28.8882C25.7866 28.8882 24.5749 29.2737 23.1979 29.9347Z" fill="#D3A000"/>
</svg>
