<svg width="64" height="64" viewBox="0 0 64 64" fill="none" xmlns="http://www.w3.org/2000/svg">
<path d="M56 2H8V57.9072H56V2Z" fill="#FDDA2A"/>
<path d="M54.8829 3.11621H9.11719V37.4431H54.8829V3.11621Z" fill="white"/>
<path d="M56 57.8955H8V62.0003H56V57.8955Z" fill="#0C80C4"/>
<path fill-rule="evenodd" clip-rule="evenodd" d="M32.0302 6.50098C40.2143 6.50098 46.8807 13.1743 46.8807 21.3599C46.8807 29.5456 40.2143 36.2189 32.0302 36.2189C23.846 36.2189 17.1797 29.5456 17.1797 21.3599C17.1797 13.1743 23.846 6.50098 32.0302 6.50098Z" fill="#0C80C4"/>
<path fill-rule="evenodd" clip-rule="evenodd" d="M43.3948 24.3243C43.3948 30.6015 38.2948 35.6905 31.9928 35.6905C25.6907 35.6905 20.5908 30.6015 20.5908 24.3243C20.5908 18.047 25.6907 12.958 31.9928 12.958C38.2948 12.958 43.3948 18.047 43.3948 24.3243ZM31.7742 14.5663C26.2493 14.5663 21.7808 18.9952 21.7808 24.4683C21.7808 29.9414 26.2493 34.3703 31.7742 34.3703C37.2991 34.3703 41.7676 29.9414 41.7676 24.4683C41.7676 18.9952 37.287 14.5663 31.7742 14.5663Z" fill="white"/>
<path fill-rule="evenodd" clip-rule="evenodd" d="M35.6126 21.1797C37.8833 21.1797 39.0125 22.4399 39.0125 25.2965C39.0125 29.4253 35.4669 31.5138 31.9941 31.5138C29.3105 31.5138 27.4648 30.0615 27.4648 30.0615C27.4648 30.0615 29.8084 30.1335 31.1684 28.9932C32.0062 28.2851 32.7955 27.2049 32.7955 25.8486C32.8076 23.1721 33.7183 21.1797 35.6126 21.1797Z" fill="#FDDA2A"/>
<path fill-rule="evenodd" clip-rule="evenodd" d="M27.719 27.7691C25.7518 27.7691 24.4404 26.5568 24.4404 23.7003C24.4404 19.5714 28.1197 17.375 31.5925 17.375C34.276 17.375 36.231 18.9353 36.231 18.9353C36.231 18.9353 33.7781 18.8513 32.4182 19.9915C31.5803 20.6997 30.7668 21.8639 30.7668 23.2202C30.7546 25.7287 29.9168 27.7691 27.719 27.7691Z" fill="#FDDA2A"/>
<path d="M17.75 40.9121H19.875C20.9435 40.9121 21.6964 40.9601 22.1456 41.1402C22.6435 41.3442 22.9228 41.7763 22.9228 42.3764C22.9228 43.0125 22.5828 43.3966 21.8664 43.5886C22.7042 43.7447 23.1049 44.1648 23.1049 44.8969C23.1049 45.9531 22.3156 46.4932 20.7614 46.4932H17.75V40.9121ZM20.1421 43.1446C20.5914 43.1446 20.8342 42.9645 20.8342 42.6285C20.8342 42.2924 20.5914 42.1003 20.1421 42.1003H19.8628V43.1326H20.1421V43.1446ZM19.8507 45.305H20.215C20.6885 45.305 20.9192 45.125 20.9192 44.7409C20.9192 44.3808 20.6885 44.2008 20.215 44.2008H19.8507V45.305Z" fill="#0C80C4"/>
<path d="M23.8818 40.9121H25.764V43.2046C26.0068 42.7365 26.4439 42.5084 27.0389 42.5084C27.9496 42.5084 28.3625 43.0125 28.3625 44.0567V46.4932H26.4682V44.0807C26.4682 43.7687 26.3589 43.6367 26.1161 43.6367C25.8975 43.6367 25.764 43.8047 25.764 44.0687V46.4932H23.8818V40.9121Z" fill="#0C80C4"/>
<path d="M31.2766 42.5078C32.0173 42.5078 32.5759 42.6518 32.8916 42.8799C33.2802 43.1559 33.3409 43.564 33.3409 44.1881V46.4926H31.6531L31.6045 46.1085C31.3252 46.4446 30.9366 46.5886 30.3902 46.5886C29.6131 46.5886 29.1152 46.1325 29.1152 45.3764C29.1152 44.3562 29.8559 44.0081 31.5195 44.0081H31.5802V43.7681C31.5802 43.492 31.4831 43.372 31.2402 43.372C30.9973 43.372 30.8759 43.48 30.8516 43.7321H29.2974C29.3824 42.9399 30.0624 42.5078 31.2766 42.5078ZM31.3252 44.7523C30.9366 44.7523 30.7302 44.9203 30.7302 45.2084C30.7302 45.4604 30.8881 45.6164 31.1431 45.6164C31.4345 45.6164 31.5802 45.4364 31.5802 45.0523V44.7523H31.3252Z" fill="#0C80C4"/>
<path d="M36.3402 42.8199C36.5345 42.6398 36.668 42.5078 37.008 42.5078C37.178 42.5078 37.3238 42.5438 37.4695 42.6278V44.0801C37.178 43.9961 36.9473 43.9601 36.7773 43.9601C36.3888 43.9601 36.2188 44.2002 36.2188 44.7403V46.5046H34.2881V42.6158H36.1459V43.0359L36.3402 42.8199Z" fill="#0C80C4"/>
<path d="M40.0686 42.5078C40.8093 42.5078 41.3679 42.6518 41.6836 42.8799C42.0722 43.1559 42.1329 43.564 42.1329 44.1881V46.4926H40.445L40.3965 46.1085C40.1172 46.4446 39.7286 46.5886 39.1822 46.5886C38.4051 46.5886 37.9072 46.1325 37.9072 45.3764C37.9072 44.3562 38.6479 44.0081 40.3115 44.0081H40.3722V43.7681C40.3722 43.492 40.275 43.372 40.0322 43.372C39.7893 43.372 39.6679 43.48 39.6436 43.7321H38.0894C38.1865 42.9399 38.8665 42.5078 40.0686 42.5078ZM40.1293 44.7523C39.7408 44.7523 39.5343 44.9203 39.5343 45.2084C39.5343 45.4604 39.6922 45.6164 39.9472 45.6164C40.2386 45.6164 40.3843 45.4364 40.3843 45.0523V44.7523H40.1293Z" fill="#0C80C4"/>
<path d="M42.7646 42.5924H43.2746V41.9203L45.1325 41.2842V42.5924H46.0189V43.7327H45.1325V44.9209C45.1325 45.173 45.266 45.305 45.5453 45.305C45.6425 45.305 45.776 45.281 45.946 45.233V46.3852C45.4482 46.5052 45.0232 46.5652 44.6589 46.5652C43.7361 46.5652 43.2746 46.1572 43.2746 45.389V43.7207H42.7646V42.5924Z" fill="#0C80C4"/>
<path d="M9.76019 50.2012H12.5651C14.1923 50.2012 14.9937 50.7893 14.9937 52.0135C14.9937 53.2378 14.1923 53.8859 12.638 53.8859H11.9216V55.7703H9.74805V50.2012H9.76019ZM11.9216 52.6137C11.9823 52.6257 12.043 52.6257 12.1037 52.6257C12.5651 52.6257 12.808 52.4216 12.808 52.0135C12.808 51.6295 12.5651 51.4614 12.0552 51.4614H11.9216V52.6137Z" fill="#0C80C4"/>
<path d="M16.9972 54.1389V54.2469C16.9972 54.703 17.1793 54.931 17.5315 54.931C17.8229 54.931 17.9686 54.799 18.0293 54.463H19.6321C19.6321 55.3391 18.9036 55.8552 17.5315 55.8552C16.0501 55.8552 15.1758 55.0631 15.1758 53.8148C15.1758 52.5786 16.0622 51.7744 17.5315 51.7744C18.9279 51.7744 19.705 52.5066 19.705 53.8148C19.705 53.9108 19.6929 54.0069 19.6929 54.1149H16.9972V54.1389ZM17.9807 53.3347C17.9807 53.2987 17.9929 53.2627 17.9929 53.2267C17.9929 52.8906 17.8107 52.6986 17.5072 52.6986C17.1915 52.6986 16.985 52.9146 16.985 53.2867V53.3347H17.9807Z" fill="#0C80C4"/>
<path d="M20.1064 51.8942H20.6164V51.2221L22.4743 50.5859V51.8942H23.3607V53.0344H22.4743V54.2227C22.4743 54.4747 22.6078 54.6067 22.8871 54.6067C22.9843 54.6067 23.1178 54.5827 23.2878 54.5347V55.687C22.79 55.807 22.365 55.867 22.0007 55.867C21.0779 55.867 20.6164 55.4589 20.6164 54.6908V53.0224H20.1064V51.8942Z" fill="#0C80C4"/>
<path d="M26.2498 52.1099C26.4441 51.9299 26.5777 51.7979 26.9176 51.7979C27.0876 51.7979 27.2334 51.8339 27.3791 51.9179V53.3702C27.0876 53.2861 26.8569 53.2501 26.6869 53.2501C26.2984 53.2501 26.1284 53.4902 26.1284 54.0303V55.7946H24.1855V51.9059H26.0434V52.326L26.2498 52.1099Z" fill="#0C80C4"/>
<path d="M32.5282 53.8263C32.5282 55.0745 31.6661 55.8667 30.1604 55.8667C28.6668 55.8667 27.8047 55.0865 27.8047 53.8383C27.8047 52.59 28.6668 51.7979 30.1604 51.7979C31.6661 51.7979 32.5282 52.59 32.5282 53.8263ZM29.7597 53.8383C29.7597 54.5224 29.8447 54.8465 30.1604 54.8465C30.4761 54.8465 30.5611 54.5344 30.5611 53.8383C30.5611 53.1541 30.4761 52.8181 30.1604 52.8181C29.8568 52.8181 29.7597 53.1541 29.7597 53.8383Z" fill="#0C80C4"/>
<path d="M35.2354 50.2012H33.3047V55.7823H35.2354V50.2012Z" fill="#0C80C4"/>
<path d="M37.8345 54.1389V54.2469C37.8345 54.703 38.0167 54.931 38.3688 54.931C38.6602 54.931 38.8059 54.799 38.8666 54.463H40.4573C40.4573 55.3391 39.7288 55.8552 38.3567 55.8552C36.8753 55.8552 36.001 55.0631 36.001 53.8148C36.001 52.5786 36.8874 51.7744 38.3567 51.7744C39.7531 51.7744 40.5302 52.5066 40.5302 53.8148C40.5302 53.9108 40.5181 54.0069 40.5181 54.1149H37.8345V54.1389ZM38.8181 53.3347C38.8181 53.2987 38.8302 53.2627 38.8302 53.2267C38.8302 52.8906 38.6481 52.6986 38.3445 52.6986C38.0288 52.6986 37.8224 52.9146 37.8224 53.2867V53.3347H38.8181Z" fill="#0C80C4"/>
<path d="M43.1409 51.8945V54.295C43.1409 54.6071 43.2502 54.7511 43.5052 54.7511C43.7238 54.7511 43.8573 54.5831 43.8573 54.319V51.8945H45.7394V55.2432C45.7394 55.3032 45.7516 55.4712 45.7759 55.7833H43.9545V55.1712C43.6388 55.6393 43.1652 55.8793 42.5823 55.8793C41.6716 55.8793 41.2588 55.3752 41.2588 54.331V51.8945H43.1409Z" fill="#0C80C4"/>
<path d="M46.6985 52.4223C46.6985 52.3743 46.6864 52.1942 46.6621 51.8822H48.4835V52.4823C48.7992 52.0142 49.2728 51.7861 49.8435 51.7861C50.3899 51.7861 50.7542 51.9902 51.1063 52.4943C51.3735 52.0382 51.847 51.7861 52.442 51.7861C53.3527 51.7861 53.7656 52.2902 53.7656 53.3344V55.7709H51.8713V53.3584C51.8713 53.0464 51.762 52.9144 51.5192 52.9144C51.3006 52.9144 51.1792 53.0584 51.1792 53.3344V55.7709H49.2849V53.3584C49.2849 53.0464 49.1756 52.9144 48.9328 52.9144C48.7142 52.9144 48.5807 53.0824 48.5807 53.3464V55.7709H46.6985V52.4223Z" fill="#0C80C4"/>
</svg>
