<svg width="64" height="64" viewBox="0 0 64 64" fill="none" xmlns="http://www.w3.org/2000/svg">
<g clip-path="url(#clip0_3359_7063)">
<path d="M62.4825 24.183C62.4625 23.995 62.3832 23.8183 62.2562 23.6783C62.1291 23.5383 61.9609 23.4424 61.7757 23.4043C59.0205 22.7982 47.5827 20.5293 32.4816 20.5293H31.2286C16.1204 20.5293 4.68258 22.8006 1.92735 23.4043C1.74239 23.4433 1.57439 23.5395 1.44712 23.6792C1.31984 23.819 1.23975 23.9952 1.21817 24.183L-0.147461 36.1119C-0.147461 36.1359 -0.13069 36.155 -0.113919 36.155C17.0164 35.2997 27.0479 39.2313 30.5051 41.3397C31.3316 41.8476 32.3858 41.8476 33.2148 41.3397C36.6456 39.2313 46.6843 35.3021 63.8146 36.155C63.8386 36.155 63.8481 36.1359 63.8481 36.1119L62.4825 24.1806" fill="#EB1923"/>
<path d="M-0.147267 36.1118L-0.123309 35.9034C11.6787 34.7462 28.7227 35.3691 37.6377 40.3596C36.1523 40.9658 33.9002 42.2188 33.215 42.6357C32.3764 43.1532 31.3318 43.1532 30.5029 42.6357C29.5846 42.0806 28.6386 41.5729 27.6686 41.1143C22.8242 38.7975 13.7247 35.7572 0.128256 36.3945C0.0907803 36.3971 0.0531872 36.3915 0.0180886 36.3781C-0.01701 36.3647 -0.0487723 36.3439 -0.0749912 36.317C-0.10121 36.2901 -0.121257 36.2578 -0.133738 36.2223C-0.146219 36.1869 -0.150836 36.1492 -0.147267 36.1118Z" fill="#FDD700"/>
<path d="M63.8486 36.1117L63.8247 35.9033C52.0323 34.7461 34.9618 35.3762 26.0469 40.3787C27.5227 40.9753 29.7772 42.2092 30.496 42.6332C31.3752 43.1771 32.3791 43.1531 33.2081 42.6332C33.8909 42.2187 34.8325 41.718 36.04 41.1143C40.8437 38.704 49.9838 35.7571 63.5731 36.3944C63.736 36.4016 63.875 36.2746 63.8486 36.1117Z" fill="#7FBD3F"/>
<path d="M10.9532 28.7159C11.2553 28.8382 11.5121 29.0511 11.6884 29.3252C11.8647 29.5993 11.9519 29.9212 11.9379 30.2468C11.9379 31.4567 11.1353 32.2761 9.75289 32.2761H6.56641V25.4168H9.48455C10.7376 25.4168 11.6456 26.1595 11.6456 27.4557C11.6441 27.7067 11.58 27.9535 11.4591 28.1735C11.3382 28.3936 11.1643 28.58 10.9532 28.7159ZM8.02548 26.6794V28.2343H9.37434C9.87508 28.2343 10.1937 27.966 10.2033 27.4988C10.2105 26.998 9.88227 26.6794 9.37434 26.6794H8.02548ZM8.02548 29.4346V30.9967H9.65945C10.1602 30.9967 10.4525 30.7044 10.4884 30.2468C10.4974 30.1178 10.4743 29.9886 10.4212 29.8708C10.3681 29.7529 10.2867 29.65 10.1841 29.5712C10.0116 29.4514 9.81279 29.4346 9.58997 29.4346H8.02548ZM18.5648 32.0701V32.2761H17.6568C17.4519 32.2793 17.2497 32.2282 17.0709 32.1281C16.8921 32.028 16.7429 31.8823 16.6386 31.7059L15.5748 30.0048H14.3481V32.2761H12.8795V25.4C13.857 25.4 14.8321 25.3952 15.8168 25.4C17.3813 25.4 18.2366 26.5404 18.2366 27.7575C18.2481 28.1781 18.1387 28.5931 17.9212 28.9533C17.7037 29.3134 17.3875 29.6036 17.0099 29.7892L18.5648 32.0701ZM15.8 28.8045C16.4134 28.8045 16.8207 28.3277 16.8111 27.7312C16.8111 27.1538 16.4301 26.6866 15.8 26.6866H14.3314V28.8045H15.8ZM19.4968 32.2857H20.9655V25.4168H19.4968V32.2857ZM47.8685 32.2857H49.3443V25.4168H47.8685V32.2857ZM21.8999 26.6866V25.4168H27.5756L27.1779 26.2721C27.1211 26.3979 27.0287 26.5043 26.9119 26.578C26.7952 26.6516 26.6595 26.6894 26.5215 26.6866H25.2421V32.2857H23.8165V26.6866H21.8999ZM28.292 31.1453L27.7649 32.2857H26.2364V32.0868L29.3893 25.3545H30.0721L33.2155 32.0868V32.2857H31.6869L31.1526 31.1453H28.292ZM28.776 29.909H30.6759L29.7271 27.6449M35.3334 28.3637V32.2857H33.8719V25.3832H34.3295L38.1845 29.3124V25.4168H39.6603V32.3096H39.2195M42.3389 28.3637V32.2857H40.8774V25.3832H41.3374L45.1971 29.3124V25.4168H46.6658V32.3096H46.2249M52.2194 31.1453L51.6923 32.2857H50.1661V32.0868L53.3191 25.3545H54.0019L57.1357 32.0868V32.2857H55.6167L55.08 31.1453H52.2194ZM52.7057 29.909H54.6056L53.6545 27.6449" fill="white"/>
</g>
<defs>
<clipPath id="clip0_3359_7063">
<rect width="64" height="64" fill="white"/>
</clipPath>
</defs>
</svg>
