<svg width="64" height="64" viewBox="0 0 64 64" fill="none" xmlns="http://www.w3.org/2000/svg">
<g clip-path="url(#clip0_3362_7837)">
<path d="M19.5508 21.1514H24.2162V24.2205H19.5508V21.1514Z" fill="#233F8C"/>
<path d="M12.6678 28.2083H17.7517C17.7517 28.2083 16.5901 21.5976 9.33084 21.003C9.33084 21.003 2.77909 20.6548 0.472475 27.4692C0.472475 27.4692 -1.33613 32.0081 2.12379 36.3618C2.12379 36.3618 4.37754 39.5795 9.01624 39.6603C9.01624 39.6603 12.8162 39.9849 15.6731 36.5511C15.6731 36.5511 17.5925 34.2612 17.7326 32.3505H12.7354C12.7354 32.3505 11.34 35.3073 8.33483 34.6942C8.33483 34.6942 5.50665 34.5819 4.80549 31.0166C4.80549 31.0166 4.3094 27.5677 7.48147 26.1951C7.48147 26.1951 10.9554 25.0032 12.6678 28.2083Z" fill="#233F8C"/>
<path d="M19.5506 25.627H24.2027V39.3497H19.543L19.5506 25.627Z" fill="#233F8C"/>
<path d="M31.6077 33.9864C32.2107 34.8603 33.3469 35.3964 34.3715 35.1251C34.5912 35.0705 34.7848 34.9404 35.0045 34.8859C35.9025 34.3642 36.4966 33.2663 36.3788 32.1052C36.2177 31.299 35.714 30.4744 34.9727 30.1084C34.3785 29.7648 33.5201 29.7043 32.9113 29.9428C32.4005 30.1544 31.9407 30.4915 31.6057 30.9777C31.032 31.8227 31.0543 33.1368 31.6077 33.9864ZM31.174 26.9519C31.174 26.9519 32.091 26.032 32.8775 25.735C32.8775 25.735 34.5549 25.0451 36.4807 25.8296C36.4807 25.8296 38.381 26.3566 39.8878 28.4795C39.8878 28.4795 41.3035 30.4534 41.0933 32.8194C41.0933 32.8194 41.1067 35.4424 39.1541 37.3624C39.1541 37.3624 37.3589 39.4847 34.5021 39.4578C34.5021 39.4578 32.9558 39.7823 31.174 37.9702V43H26.4824V25.6345H31.174V26.8914" fill="#233F8C"/>
<path d="M42.877 21.1069H47.5679V39.3496H42.877V21.1069Z" fill="#233F8C"/>
<path d="M53.9107 32.7917C54.0273 33.9022 54.8265 34.7728 55.7384 35.1098C56.7243 35.4463 57.919 35.096 58.5915 34.2497C59.1913 33.5059 59.3206 32.4671 59.0111 31.5624C58.6755 30.5571 57.6349 29.8678 56.6052 29.8356C55.7225 29.8264 54.8972 30.2712 54.3705 30.9887C54.061 31.5249 53.8509 32.1353 53.9107 32.7917ZM59.1786 25.6265H64.0007V39.3492H59.1786V38.0817C59.1786 38.0817 57.754 39.6291 55.9989 39.4892C55.9989 39.4892 52.2601 39.6876 50.233 36.0639C50.233 36.0639 49.0975 34.117 49.307 32.2786C49.307 32.2786 49.3242 30.5479 50.163 29.124C50.163 29.124 50.8444 27.8256 51.7882 27.0864C51.7882 27.0864 53.4662 25.771 54.7061 25.6987C54.7061 25.6987 57.3089 24.8866 59.1786 26.9596V25.6265Z" fill="#233F8C"/>
</g>
<defs>
<clipPath id="clip0_3362_7837">
<rect width="64" height="64" fill="white"/>
</clipPath>
</defs>
</svg>
