<svg width="40" height="40" viewBox="0 0 40 40" fill="none" xmlns="http://www.w3.org/2000/svg">
<path d="M17.9169 37.5H22.1169C23.7169 37.5 24.7502 36.3667 24.4502 34.9834L23.7669 31.9668H16.2669L15.5835 34.9834C15.2835 36.2834 16.4169 37.5 17.9169 37.5Z" stroke="black" stroke-width="1.5" stroke-linecap="round" stroke-linejoin="round"/>
<path d="M23.7668 31.9503L26.6501 29.3836C28.2668 27.9502 28.3334 26.9502 27.0501 25.3335L21.9667 18.8836C20.9001 17.5336 19.1501 17.5336 18.0834 18.8836L13.0001 25.3335C11.7168 26.9502 11.7167 28.0002 13.4001 29.3836L16.2834 31.9503" stroke="black" stroke-width="1.5" stroke-linecap="round" stroke-linejoin="round"/>
<path d="M20.0166 18.5332V22.7499" stroke="#292D32" stroke-width="1.5" stroke-linecap="round" stroke-linejoin="round"/>
<path d="M20.8665 8.33398H19.1999C18.2832 8.33398 17.5332 7.58398 17.5332 6.66732V5.00065C17.5332 4.08398 18.2832 3.33398 19.1999 3.33398H20.8665C21.7832 3.33398 22.5332 4.08398 22.5332 5.00065V6.66732C22.5332 7.58398 21.7832 8.33398 20.8665 8.33398Z" stroke="#292D32" stroke-width="1.5" stroke-linecap="round" stroke-linejoin="round"/>
<path d="M5.44987 23.6173H7.11654C8.0332 23.6173 8.7832 22.8673 8.7832 21.9506V20.284C8.7832 19.3673 8.0332 18.6172 7.11654 18.6172H5.44987C4.5332 18.6172 3.7832 19.3673 3.7832 20.284V21.9506C3.7832 22.8673 4.5332 23.6173 5.44987 23.6173Z" stroke="#292D32" stroke-width="1.5" stroke-linecap="round" stroke-linejoin="round"/>
<path d="M34.5496 23.6173H32.883C31.9663 23.6173 31.2163 22.8673 31.2163 21.9506V20.284C31.2163 19.3673 31.9663 18.6172 32.883 18.6172H34.5496C35.4663 18.6172 36.2163 19.3673 36.2163 20.284V21.9506C36.2163 22.8673 35.4663 23.6173 34.5496 23.6173Z" stroke="#292D32" stroke-width="1.5" stroke-linecap="round" stroke-linejoin="round"/>
<path d="M17.5333 5.93359C11.1833 6.68359 6.25 12.0669 6.25 18.6169" stroke="#292D32" stroke-width="1.5" stroke-linecap="round" stroke-linejoin="round"/>
<path d="M33.7499 18.6169C33.7499 12.0836 28.8499 6.71693 22.5332 5.93359" stroke="#292D32" stroke-width="1.5" stroke-linecap="round" stroke-linejoin="round"/>
</svg>
