<svg width="64" height="64" viewBox="0 0 64 64" fill="none" xmlns="http://www.w3.org/2000/svg">
<g clip-path="url(#clip0_3362_7948)">
<path fill-rule="evenodd" clip-rule="evenodd" d="M0 37.0001H2.34934V34.4124H6.79456V33.1891H2.34934V31.6365H7.1861V30.1074H2.18808C1.29748 30.1074 0.034549 31.2972 0.034549 32.307L0 37.0001Z" fill="#0165B0"/>
<path fill-rule="evenodd" clip-rule="evenodd" d="M10.2046 30.1831C9.43124 30.1831 8.13281 31.4485 8.13281 32.1592V35.0039C8.13281 35.763 9.43411 37.0005 10.0635 37.0005H14.7109C15.2266 37.0005 16.5932 35.8818 16.5932 35.0039V32.2868C16.5932 31.4359 15.4101 30.1831 14.602 30.1831H10.2046ZM10.4585 31.6899H14.3481C14.3481 31.6899 14.3784 35.407 14.3481 35.5226C14.3178 35.6382 10.4585 35.5226 10.4585 35.5226V31.6899Z" fill="#0165B0"/>
<path fill-rule="evenodd" clip-rule="evenodd" d="M17.2511 30.0835H19.9228L21.3969 31.8949L23.0322 30.0835H25.8191L22.8249 33.5652L25.727 36.9997H23.0783L21.3969 35.0942L19.8537 36.9997H17.0898L20.061 33.5652L17.2511 30.0835Z" fill="#0165B0"/>
<path fill-rule="evenodd" clip-rule="evenodd" d="M33.4432 31.7304H28.5603V35.5414H33.4432V36.9999H28.5603C28.0643 36.9999 26.3262 35.8548 26.3262 34.9768V32.1304C26.3262 31.524 27.7235 30.1543 28.5603 30.1543H33.4662L33.4432 31.7304Z" fill="#0165B0"/>
<path fill-rule="evenodd" clip-rule="evenodd" d="M43.9688 37.0003H46.3411V31.7072H50.1414V37.0003H52.4351V32.4129C52.4514 31.5008 51.3067 30.1026 50.222 30.1193H44.0148L43.9688 37.0003Z" fill="#0165B0"/>
<path d="M62.8665 28C63.0571 28 63.2431 28.05 63.4247 28.1498C63.6063 28.2497 63.7477 28.3927 63.849 28.5786C63.9503 28.7646 64.001 28.9585 64.001 29.1603C64.001 29.3601 63.9511 29.5522 63.8513 29.7366C63.7515 29.921 63.6115 30.0642 63.4315 30.1661C63.2514 30.2681 63.0631 30.319 62.8665 30.319C62.6699 30.319 62.4815 30.2681 62.3015 30.1661C62.1214 30.0642 61.9812 29.921 61.8809 29.7366C61.7806 29.5522 61.7305 29.3601 61.7305 29.1603C61.7305 28.9585 61.7814 28.7646 61.8832 28.5786C61.985 28.3927 62.1267 28.2497 62.3083 28.1498C62.4898 28.05 62.6759 28 62.8665 28ZM62.8665 28.1921C62.707 28.1921 62.5518 28.2338 62.4008 28.3174C62.2498 28.4009 62.1317 28.5202 62.0464 28.6754C61.9612 28.8306 61.9186 28.9923 61.9186 29.1603C61.9186 29.3273 61.9604 29.4874 62.0442 29.6405C62.1279 29.7937 62.2451 29.9131 62.3955 29.9986C62.546 30.0842 62.703 30.1269 62.8665 30.1269C63.03 30.1269 63.187 30.0842 63.3374 29.9986C63.4879 29.9131 63.6048 29.7937 63.688 29.6405C63.7713 29.4874 63.8129 29.3273 63.8129 29.1603C63.8129 28.9923 63.7705 28.8306 63.6858 28.6754C63.601 28.5202 63.4829 28.4009 63.3314 28.3174C63.1799 28.2338 63.025 28.1921 62.8665 28.1921ZM62.3684 29.8011V28.5532H62.7882C62.9317 28.5532 63.0355 28.5648 63.0997 28.5878C63.1639 28.6109 63.2151 28.6511 63.2532 28.7085C63.2913 28.7658 63.3103 28.8268 63.3103 28.8914C63.3103 28.9825 63.2785 29.0619 63.2148 29.1295C63.1511 29.1972 63.0666 29.2351 62.9613 29.2433C63.0044 29.2617 63.039 29.2837 63.0651 29.3094C63.1142 29.3585 63.1744 29.441 63.2456 29.5568L63.3946 29.8011H63.1539L63.0455 29.6044C62.9603 29.4497 62.8916 29.3529 62.8394 29.314C62.8033 29.2853 62.7506 29.2709 62.6814 29.2709H62.5655V29.8011H62.3684ZM62.5655 29.0988H62.8048C62.9191 29.0988 62.9971 29.0814 63.0388 29.0466C63.0804 29.0117 63.1012 28.9656 63.1012 28.9083C63.1012 28.8714 63.0912 28.8383 63.0711 28.8091C63.051 28.7799 63.0232 28.7582 62.9876 28.7438C62.952 28.7295 62.886 28.7223 62.7897 28.7223H62.5655V29.0988Z" fill="#0165B0"/>
<path fill-rule="evenodd" clip-rule="evenodd" d="M36.5698 30.1831C35.7965 30.1831 34.498 31.4485 34.498 32.1592V35.0039C34.498 35.763 35.7993 37.0005 36.4287 37.0005H41.0761C41.5918 37.0005 42.9584 35.8818 42.9584 35.0039V32.2868C42.9584 31.4359 41.7753 30.1831 40.9673 30.1831H36.5698ZM36.8237 31.6899H40.7133C40.7133 31.6899 40.7437 35.407 40.7133 35.5226C40.683 35.6382 36.8237 35.5226 36.8237 35.5226V31.6899Z" fill="#0165B0"/>
<path fill-rule="evenodd" clip-rule="evenodd" d="M53.3555 37.0003H55.7278V31.7072H59.5281V37.0003H61.8218V32.4129C61.8381 31.5008 60.6934 30.1026 59.6088 30.1193H53.4015L53.3555 37.0003Z" fill="#0165B0"/>
</g>
<defs>
<clipPath id="clip0_3362_7948">
<rect width="64" height="64" fill="white"/>
</clipPath>
</defs>
</svg>
