<svg width="64" height="64" viewBox="0 0 64 64" fill="none" xmlns="http://www.w3.org/2000/svg">
<g clip-path="url(#clip0_621_22714)">
<path d="M8.25798 0C3.69723 0 0 3.69723 0 8.25798V55.7414C0 60.3021 3.69723 63.9994 8.25798 63.9994H55.7414C60.3021 63.9994 63.9994 60.3021 63.9994 55.7414V8.25798C63.9994 3.69723 60.3021 0 55.7414 0H8.25798ZM8.25798 4.12899H55.7414C58.0218 4.12899 59.8704 5.9776 59.8704 8.25798V55.7414C59.8704 58.0218 58.0218 59.8704 55.7414 59.8704H8.25798C5.9776 59.8704 4.12899 58.0218 4.12899 55.7414V8.25798C4.12899 5.9776 5.9776 4.12899 8.25798 4.12899Z" fill="#0671D8"/>
<path d="M28.9023 43.3535V47.4825H51.6118V43.3535H28.9023Z" fill="#0671D8"/>
<path d="M28.9023 16.5156V38.709H33.5475V20.6446H38.1926V38.709H42.8377V20.6446H45.9344C46.7896 20.6446 47.4828 21.3378 47.4828 22.193V38.709H52.1279V21.6769C52.1279 18.8264 49.8172 16.5156 46.9667 16.5156H28.9023Z" fill="#0671D8"/>
<path d="M17.0323 16.5156C14.1819 16.5156 11.8711 18.8264 11.8711 21.6769V33.5477C11.8711 36.3982 14.1819 38.709 17.0323 38.709H21.1613V39.7412C21.1613 41.7365 19.3127 43.3541 17.0323 43.3541H14.4517V47.4831H17.0323C21.8781 47.4831 25.8064 44.0169 25.8064 39.7412V16.5156H17.0323ZM18.0646 20.6446H21.1613V34.58H18.0646C17.2094 34.58 16.5162 33.8867 16.5162 33.0316V22.193C16.5162 21.3378 17.2094 20.6446 18.0646 20.6446Z" fill="#0671D8"/>
</g>
<defs>
<clipPath id="clip0_621_22714">
<rect width="64" height="64" fill="white"/>
</clipPath>
</defs>
</svg>
