<svg width="64" height="64" viewBox="0 0 64 64" fill="none" xmlns="http://www.w3.org/2000/svg">
<path fill-rule="evenodd" clip-rule="evenodd" d="M22.8838 36.6628L26.6178 28H27.1192L30.8638 36.6628H29.1355L29.1035 36.5988L26.2764 30.0483L23.4172 36.6628H22.8838ZM12.5034 28.128H10.9032V36.6628H12.5034V28.128ZM64 28.128H62.3997V36.6628H64V28.128ZM49.0322 28L45.3089 36.6628H45.8316L48.6908 30.0483L51.5286 36.5988L51.5499 36.6628H53.2782L49.5336 28H49.0322ZM34.011 28.16L38.2143 34.113V28.128H38.7051V36.7695H38.225L38.1823 36.7055L32.9014 29.3229V36.6735H32.4107V28.128H34.0003L34.011 28.16ZM41.9697 35.4146C41.9697 35.788 41.9056 36.044 41.7776 36.1827C41.6496 36.3214 41.4789 36.3854 41.2655 36.3854H41.1269L41.0948 36.8335H41.2549C41.6709 36.8335 42.0337 36.7695 42.3324 36.6521C42.6311 36.5241 42.8765 36.3427 43.0578 36.1187C43.2499 35.8947 43.3779 35.628 43.4526 35.3399C43.5272 35.0519 43.5699 34.7425 43.5699 34.4118V28.128H41.9697V35.4146ZM56.9802 36.2147L57.3749 36.204C59.3806 36.076 60.1274 34.5184 60.1274 34.5184V36.6628H57.3749H55.1985V28.128H56.7988V36.2147H56.9802ZM20.3981 28.128H17.6563H14.9038V30.2724C14.9038 30.2724 15.6506 28.7148 17.6563 28.5868L18.0403 28.5761H18.2217V36.6521H19.822V28.5761H20.0033L20.3874 28.5868C22.4037 28.7148 23.1399 30.2724 23.1399 30.2724V28.128H20.3981ZM6.51842 36.2148V32.4808H8.11868V36.6948H7.57459H6.52908H5.24887H4.70478C4.05401 36.6948 3.45657 36.5881 2.93382 36.3641C2.41107 36.1401 1.94166 35.852 1.54692 35.5C1.42957 35.4146 1.29088 35.2759 1.10952 35.0839C0.938823 34.9025 0.768127 34.6678 0.597432 34.4011C0.426737 34.1237 0.288048 33.8037 0.170695 33.4516C0.0640107 33.1316 0.0106684 32.7688 0 32.3528C0 31.9367 0.0640107 31.574 0.170695 31.2539C0.288048 30.8912 0.426737 30.5711 0.597432 30.3044C0.757459 30.0271 0.938823 29.803 1.10952 29.6217C1.29088 29.4296 1.44024 29.2909 1.54692 29.1949C1.95232 28.8429 2.41107 28.5548 2.93382 28.3308C3.44591 28.1174 4.04334 28.0001 4.70478 28.0001H5.24887H7.85197V30.1444C7.85197 30.1444 7.0305 28.4161 4.75812 28.4481H4.69411C4.06467 28.4481 3.56326 28.5655 3.18986 28.7895C2.81647 29.0136 2.52842 29.3123 2.31505 29.6857C2.10168 30.0697 1.96299 30.4965 1.88831 30.9765C1.8243 31.4246 1.78163 31.8834 1.78163 32.3314C1.7923 32.7902 1.8243 33.2383 1.88831 33.6863C1.95232 34.1664 2.10168 34.6038 2.31505 34.9772C2.52842 35.3506 2.81647 35.6493 3.18986 35.8734C3.57393 36.0974 4.07534 36.2148 4.69411 36.2148H4.75812H6.51842Z" fill="#4E0000"/>
</svg>
