<svg width="64" height="64" viewBox="0 0 64 64" fill="none" xmlns="http://www.w3.org/2000/svg">
<g clip-path="url(#clip0_3362_7640)">
<path d="M7.02316 31.5255L10.2003 28.4316C9.37315 26.9129 6.95195 26.0233 5.59889 26.0006C2.55871 25.9553 0.0443901 28.3862 0.000573987 31.4178C-0.0432422 34.4438 2.42726 36.9541 5.44005 36.9994C8.45287 37.0447 10.9836 34.5968 11.0275 31.5878L7.02316 31.5255ZM6.78213 33.6164C6.73828 34.5401 5.98237 35.2484 5.08949 35.2031C4.24042 35.1634 3.56662 34.4438 3.5502 33.5654L3.57214 31.9732L6.80404 32.0242L6.78213 33.6164ZM6.82047 31.1912L3.58856 31.1402L3.61047 29.5422C3.65429 28.6186 4.41569 27.9102 5.30312 27.9556C6.15218 27.9952 6.82595 28.7149 6.84237 29.5932L6.82047 31.1912Z" fill="#E40715"/>
<path d="M18.0422 34.2773C18.013 35.0335 17.8083 35.6202 17.4165 36.0497C17.089 36.4248 16.5627 36.7333 15.8493 36.9813L15.551 36.5034C15.8201 36.443 16.0656 36.2978 16.2469 36.086C16.3756 35.8441 16.4341 35.5718 16.4224 35.2936L16.4399 34.5737C15.7323 34.985 15.1534 35.1908 14.709 35.1787C14.1534 35.1544 13.6213 34.9306 13.2002 34.5495C12.7495 34.1926 12.4099 33.7068 12.2236 33.1521C12.0833 32.7166 12.019 32.2568 12.0306 31.8031C12.0131 30.8473 12.4049 29.9339 13.1008 29.3108C13.5628 28.8934 14.3406 28.4639 15.4282 28.0404C16.206 28.0526 17.0072 28.4397 17.8259 29.208L16.9545 30.557C16.4048 29.6738 15.7323 29.1414 14.937 28.966C14.44 29.0809 14.0891 29.2926 13.8903 29.6012C13.6739 29.9339 13.5628 30.4844 13.5511 31.2466C13.5218 32.0391 13.7441 32.8194 14.1885 33.4667C14.6154 34.0716 15.0891 34.3801 15.6095 34.3862C15.7323 34.3862 16.0247 34.1079 16.4926 33.5453L16.5335 32.4201C16.5393 32.2145 16.4926 32.1056 16.3756 32.0814H16.3113L16.0891 32.0754L16.0949 31.5914L18.1416 31.3797L18.0364 34.2712M21.8024 34.9972C21.51 35.0456 21.2117 35.0516 20.9135 35.0032L20.317 34.9548L19.9311 34.973L19.2937 35.0153L19.3639 28.4941C19.3639 28.3913 19.3112 28.0284 19.2059 27.4053C19.1767 27.2298 19.1299 27.1391 19.0481 27.1391L18.9837 27.127L18.7674 27.1875L18.7791 26.6552L20.5509 26.1772C20.7849 27.0544 20.9194 27.9558 20.9427 28.8692L20.9311 29.8008L20.8141 34.12L21.2117 34.1926L21.3813 34.2107L21.51 34.2289L21.703 34.1684L22.3462 33.7631L22.6737 34.1805C22.3345 34.6342 22.048 34.9064 21.8024 34.9972ZM27.6736 34.5435C27.3461 34.8157 26.9543 34.9972 26.5391 35.0698L25.317 35.2875C24.5333 35.1968 23.814 34.7975 23.3111 34.1745C22.8082 33.5272 22.5509 32.7105 22.5918 31.8818C22.6094 30.8171 22.9544 29.9883 23.6269 29.3834C24.1357 28.9176 24.9368 28.5304 26.0245 28.2098C26.7731 28.2219 27.5216 28.6272 28.2701 29.4257L27.1824 30.3452C26.8666 29.9762 26.4982 29.6617 26.0947 29.4015C25.8687 29.2393 25.6113 29.1299 25.3403 29.0809C24.9895 29.0749 24.6971 29.341 24.4515 29.8674C24.2643 30.2727 24.1532 30.7082 24.124 31.1558L26.4514 31.2466C26.8374 31.2466 27.2058 31.1317 27.5333 30.92L27.7906 31.4099C27.4631 31.6398 27.1064 31.8273 26.7321 31.9725C26.3476 32.0932 25.9467 32.1483 25.545 32.1358L24.1474 32.1237C24.2292 32.7105 24.4982 33.255 24.9018 33.6724C25.3637 34.1745 25.8257 34.4285 26.2877 34.4345C26.7146 34.4406 27.0596 33.8901 27.3111 32.7831L28.3403 33.1824C28.1765 33.8115 27.9543 34.2591 27.6795 34.5253V34.5435H27.6736ZM33.3928 35.3238C33.2817 35.3238 33.1881 35.2391 33.1121 35.0697C33.0478 34.9427 33.0127 34.7975 33.0244 34.6584L33.0302 34.4527L33.0419 34.2773L33.3987 31.053L33.4045 30.9078C33.4104 30.5691 33.2349 30.2424 32.884 29.9218C32.5799 29.6193 32.1823 29.4439 31.7612 29.4136C31.4747 29.6193 31.2525 29.8976 31.118 30.2303C30.9426 30.563 30.8432 30.932 30.8198 31.3071L30.7145 35.0637L29.2058 35.2754L29.3461 30.7324L29.3169 30.3634L29.2642 30.0367L29.1005 29.3894L29.0829 29.3048L29.042 29.2806L28.8432 29.2745L28.7204 28.7361L30.4396 28.2885L30.7204 29.1475L30.7964 29.4802C31.4806 28.8148 32.1121 28.4215 32.6969 28.3066C33.3226 28.4094 33.884 28.7361 34.2934 29.2322C34.7378 29.698 34.9776 30.3331 34.9425 30.9865L34.9132 31.2587L34.5332 34.2713L34.5624 34.5314V34.5616H34.5916L34.8723 34.5314L34.9191 35.1L33.3928 35.3238ZM43.3341 35.4932L43.2581 35.4206L43.2347 35.3964C43.0827 35.2512 43.0242 34.979 43.0476 34.61L43.0534 34.4346L43.416 31.0832C43.4336 30.7263 43.3108 30.3755 43.0827 30.1033C42.8897 29.8129 42.5856 29.6314 42.2464 29.6133L41.919 29.6738C41.7435 29.9339 41.5798 30.2061 41.4394 30.4844L41.3868 30.6175L41.2816 35.2331L39.7728 35.4388L39.9248 31.0288C39.9423 30.6729 39.8434 30.3213 39.6441 30.0307C39.457 29.7403 39.1471 29.5588 38.8079 29.5588L38.6851 29.5709L38.4453 29.6435L38.0769 30.2605L37.9483 30.5449L37.8372 35.1847L36.3284 35.3904L36.4688 30.8534L36.4395 30.4844L36.3869 30.1577L36.2173 29.5105L36.1998 29.4257L36.1588 29.4015L35.96 29.3955L35.8372 28.8571L37.5448 28.4094C37.6851 28.8329 37.7845 29.1535 37.8372 29.3713C38.2407 28.9115 38.767 28.5849 39.3401 28.4094H39.4219C40.0828 28.4215 40.6441 28.8208 41.1178 29.6193C41.5445 29.0568 42.1351 28.6516 42.802 28.4639C43.3575 28.476 43.8604 28.7543 44.3107 29.3108C44.761 29.8674 44.9832 30.4178 44.9774 30.9562L44.9481 31.1377L44.9189 31.416L44.568 34.2592C44.5505 34.4185 44.5564 34.5796 44.5856 34.737H44.6382L44.9072 34.6584L44.954 35.2633L43.3341 35.4932ZM50.065 35.7473L49.4802 34.8762L49.258 34.4467C48.4978 35.0274 47.6089 35.4025 46.6733 35.5234C46.3934 35.4268 46.1419 35.2582 45.9423 35.0335C45.7259 34.8157 45.6031 34.5132 45.6031 34.2047C45.6148 33.3154 46.5329 32.4504 48.3575 31.6035C48.1762 30.9623 48.065 30.6054 48.0358 30.5328C47.9072 30.1819 47.6849 29.8794 47.3925 29.6617L46.8312 30.0428L46.4978 29.6254L47.451 28.8632L47.8077 28.6272L48.0884 28.5546C48.4685 28.5607 48.8487 28.8268 49.2229 29.3532C49.4334 29.6556 49.679 30.4118 49.948 31.6217C50.1995 32.7831 50.6615 33.8841 51.3165 34.8641L50.065 35.7473ZM48.5387 32.2931L48.6849 32.396L48.4861 32.3899C48.0943 32.3718 47.7083 32.4928 47.3925 32.7287C47.2598 32.8181 47.1493 32.9386 47.07 33.0805C46.9908 33.2225 46.945 33.3817 46.9364 33.5453C46.9306 33.8115 47.1587 34.1502 47.6206 34.5616H47.6674L47.761 34.5676C48.3165 34.5737 48.6908 34.247 48.8837 33.5756L48.5387 32.2931ZM53.603 33.7571L53.5561 35.4388L52.0533 35.6323L52.1936 31.1075L52.1644 30.7384L52.1176 30.4057L51.9422 29.7585L51.9305 29.6738L51.8778 29.6496L51.6907 29.6435L51.5738 29.1112L53.2813 28.6514L53.4918 29.2382L53.5679 29.5044C54.0181 29.1535 54.5093 28.8752 55.0298 28.6635C55.6789 28.7059 56.2988 28.9841 56.7784 29.4378C57.2579 29.9218 57.5093 30.5933 57.4742 31.2889C57.4567 32.2508 56.8368 32.9706 55.6146 33.4425C56.4626 34.5253 57.0707 35.0758 57.4391 35.0818H57.5327L57.7959 35.0516L57.79 35.5295C57.4859 35.6928 57.1526 35.7775 56.8134 35.7775L56.4567 35.8017C55.8953 35.7957 55.293 35.4509 54.6556 34.7733L54.1702 34.2531L54.0766 34.1382C53.9363 33.993 53.7842 33.8599 53.6205 33.7449L53.603 33.7571ZM53.6088 33.2307L53.7842 33.2368C54.2755 33.2671 54.7608 33.1582 55.1994 32.9344C55.6556 32.6984 55.9362 32.2145 55.9187 31.6882C55.9304 31.1861 55.7549 30.7082 55.4333 30.3331C55.1819 29.9762 54.7901 29.7584 54.3632 29.7282L54.2579 29.7403L54.0883 29.8068C53.9126 30.1394 53.7827 30.4957 53.7024 30.8655C53.6673 31.0712 53.6497 31.2769 53.6439 31.4825L53.6088 33.2307ZM61.1935 32.3173C61.4508 32.4444 61.7782 32.7892 62.1759 33.3457L62.5677 33.8841L62.6496 34.0232C63.1993 34.7794 63.6203 35.1605 63.9185 35.1665L64.0004 35.6263L63.2753 35.8501L62.7256 35.9106C62.4507 35.9046 62.1291 35.7049 61.7665 35.2996C61.6671 35.1968 61.4215 34.8762 61.0122 34.3378L60.9303 34.2168C60.597 33.7752 60.3689 33.5393 60.2519 33.4969L60.1116 33.6542L60.0824 35.5295L58.5736 35.7594L58.6496 30.4783C58.6614 29.8068 58.6262 29.1354 58.5444 28.476C58.4859 28.0405 58.4333 27.8227 58.3865 27.8166H58.3105L58.1233 27.8529L58.0122 27.3145L59.7549 26.8185C60.0473 27.6231 60.1818 28.9599 60.1525 30.8352L60.1292 32.4443C61.1759 31.2103 61.8016 30.0246 62.0063 28.8934L63.5911 28.9176C63.3396 29.456 63.0355 29.9641 62.6905 30.436C62.2928 30.9683 61.7899 31.5914 61.1935 32.3052V32.3173Z" fill="#E40715"/>
</g>
<defs>
<clipPath id="clip0_3362_7640">
<rect width="64" height="64" fill="white"/>
</clipPath>
</defs>
</svg>
