<svg width="40" height="40" viewBox="0 0 40 40" fill="none" xmlns="http://www.w3.org/2000/svg">
<path d="M19.9997 24.1673C22.3009 24.1673 24.1663 22.3018 24.1663 20.0007C24.1663 17.6995 22.3009 15.834 19.9997 15.834C17.6985 15.834 15.833 17.6995 15.833 20.0007C15.833 22.3018 17.6985 24.1673 19.9997 24.1673Z" stroke="black" stroke-width="1.5" stroke-miterlimit="10" stroke-linecap="round" stroke-linejoin="round"/>
<path d="M30.833 15.834V24.1673" stroke="black" stroke-width="1.5" stroke-miterlimit="10" stroke-linecap="round" stroke-linejoin="round"/>
<path d="M8.33366 36.6673C12.0156 36.6673 15.0003 33.6826 15.0003 30.0007C15.0003 26.3188 12.0156 23.334 8.33366 23.334C4.65176 23.334 1.66699 26.3188 1.66699 30.0007C1.66699 33.6826 4.65176 36.6673 8.33366 36.6673Z" stroke="black" stroke-width="1.5" stroke-miterlimit="10" stroke-linecap="round" stroke-linejoin="round"/>
<path d="M8.75033 27.918V29.468C8.75033 30.0513 8.45034 30.6013 7.93368 30.9013L6.66699 31.668" stroke="black" stroke-width="1.5" stroke-miterlimit="10" stroke-linecap="round" stroke-linejoin="round"/>
<path d="M3.33301 25.3327V14.9993C3.33301 9.16602 6.66634 6.66602 11.6663 6.66602H28.333C33.333 6.66602 36.6663 9.16602 36.6663 14.9993V24.9993C36.6663 30.8327 33.333 33.3327 28.333 33.3327H14.1663" stroke="black" stroke-width="1.5" stroke-miterlimit="10" stroke-linecap="round" stroke-linejoin="round"/>
</svg>
