<svg width="64" height="64" viewBox="0 0 64 64" fill="none" xmlns="http://www.w3.org/2000/svg">
<path d="M17.1613 11.3694C19.5569 11.3543 21.9535 11.3522 24.349 11.3705C24.3415 12.4913 24.3415 13.6121 24.3523 14.7329C23.8882 14.7447 23.4242 14.7468 22.9602 14.7382C22.9429 14.7996 22.9085 14.9223 22.8902 14.9837C22.9612 15.9785 22.9235 16.9766 22.8783 17.9714C24.4922 18.0295 26.1061 18.0134 27.7211 18.0155C27.748 16.9432 27.7297 15.8719 27.7329 14.7996C27.2689 14.7092 26.7952 14.7501 26.3258 14.7415C26.3225 13.6207 26.3214 12.501 26.3279 11.3812C26.3839 11.3769 26.498 11.3672 26.5551 11.3629C28.7116 11.3565 30.8671 11.3608 33.0236 11.3597C33.184 11.3608 33.3444 11.3608 33.5059 11.3629C33.4995 12.488 33.493 13.6131 33.5081 14.7393C33.0343 14.7393 32.5606 14.7436 32.0869 14.7382C32.0061 18.0339 32.0632 21.3316 32.0481 24.6283C32.5316 24.6315 33.016 24.6294 33.5005 24.6326C33.5016 25.8191 33.4984 27.0056 33.5016 28.1909C31.1093 28.1963 28.7181 28.1877 26.3268 28.1813C26.3214 26.998 26.3236 25.8137 26.3258 24.6305C26.8146 24.6305 27.3033 24.6369 27.7921 24.6208C27.7932 23.9931 27.692 23.3686 27.7415 22.741C27.7792 22.3631 27.7857 21.983 27.7878 21.6029C26.6627 21.5868 25.5387 21.506 24.4147 21.5588C23.9033 21.6008 23.3897 21.5771 22.8783 21.5954C22.9871 22.4438 22.8676 23.2954 22.8848 24.146C22.8837 24.3042 22.8837 24.4636 22.8837 24.6229C23.3714 24.6337 23.8592 24.6305 24.3469 24.6337C24.3447 25.8191 24.3458 27.0034 24.3436 28.1877C23.5749 28.1683 22.8105 28.2728 22.0418 28.2469C20.9673 28.2469 19.8928 28.248 18.8172 28.248C18.2681 28.1942 17.7169 28.1909 17.1646 28.1899C17.1678 27.0045 17.1656 25.818 17.1646 24.6315C17.6351 24.6305 18.1066 24.6294 18.5771 24.638C18.6503 22.6441 18.5911 20.6469 18.6105 18.6518C18.6266 17.3706 18.5567 16.0883 18.6159 14.8082C18.1314 14.7565 17.6458 14.7382 17.1592 14.7264C17.1699 13.6078 17.1689 12.488 17.1613 11.3694Z" fill="#CC0113"/>
<path d="M35.0867 11.3705C38.2316 11.3673 41.3765 11.3694 44.5214 11.3694C45.3095 11.2984 46.0696 11.5535 46.7899 11.8432C46.9395 11.9099 47.0914 11.9734 47.2442 12.037C48.1863 12.5258 49.0272 13.2977 49.3835 14.3195C49.6635 15.1097 49.7701 15.9667 49.6904 16.8011C49.6215 17.4633 49.3329 18.0705 49.0595 18.668L49.0239 18.696C48.6105 19.3851 48.0722 19.9912 47.4423 20.4897C46.9029 20.8482 46.3183 21.1303 45.7122 21.3543C44.8982 21.5685 44.0552 21.4619 43.2283 21.5588C42.4219 21.575 41.6155 21.5739 40.8102 21.5954C40.8167 22.6064 40.8145 23.6174 40.8091 24.6294C41.2785 24.638 41.748 24.6348 42.2185 24.637C42.366 25.3637 42.1894 26.0947 42.2507 26.8247C42.2281 27.2801 42.2045 27.7388 42.2787 28.1921C40.3709 28.2448 38.4609 28.1662 36.5542 28.2394C36.0643 28.2416 35.5755 28.2383 35.0857 28.2416C35.077 27.039 35.0749 25.8353 35.0878 24.6327C35.5615 24.6337 36.0353 24.6359 36.5101 24.6327C36.5154 21.351 36.5187 18.0683 36.5079 14.7867C36.031 14.7813 35.5518 14.7964 35.0781 14.7383C35.0889 13.6153 35.0684 12.4924 35.0867 11.3705ZM40.8091 14.7846C40.8156 15.9118 40.8188 17.0401 40.807 18.1674C41.9374 18.1954 43.0668 18.1717 44.1973 18.1835C44.4342 18.2094 44.6452 18.0985 44.8498 17.9951C45.1652 17.7281 45.4527 17.4245 45.6368 17.0498C45.682 16.532 45.6863 16.0033 45.5238 15.5038C45.2707 15.2669 45.008 15.0419 44.7249 14.8438C44.5139 14.8007 44.2985 14.7716 44.0832 14.777C42.9915 14.7835 41.8998 14.7738 40.8091 14.7846Z" fill="#CC0113"/>
<path d="M25.7868 2.64346C30.0718 1.74553 34.5507 1.78429 38.8153 2.77912C43.0465 3.75133 47.0441 5.68391 50.4646 8.35184C53.5223 10.7506 56.1224 13.7362 58.0528 17.1114C60.9651 22.1749 62.3422 28.1159 61.9277 33.9427C56.9493 33.6864 51.8944 34.5025 47.2939 36.4405C43.5073 38.0522 40.0814 40.5619 37.5545 43.8241C34.738 47.4115 33.0606 51.7859 32.2768 56.2519C32.013 57.6591 31.8741 59.0845 31.7126 60.5046C31.5964 57.9659 31.1495 55.4444 30.4745 52.9961C29.3193 48.8123 27.223 44.8448 24.161 41.743C21.3736 38.8877 17.8357 36.8227 14.0653 35.5587C11.5223 34.6942 8.86618 34.1849 6.19179 33.9578C4.8126 33.8695 3.42588 33.7909 2.04562 33.9018C1.9358 31.5557 2.01009 29.1936 2.4246 26.8788C3.33329 21.5537 5.72775 16.4935 9.26885 12.414C13.5065 7.46576 19.4087 3.97312 25.7868 2.64346ZM22.4632 4.90119C17.2877 6.70565 12.6635 10.0476 9.31084 14.3811C6.25746 18.2753 4.27643 22.9792 3.55185 27.8704C5.18943 27.9694 6.82593 28.1363 8.44091 28.4313C12.5666 29.1527 16.59 30.6514 20.0407 33.0491C23.5936 35.506 26.5243 38.8468 28.5171 42.6786C30.3797 46.2305 31.3939 50.1893 31.7008 54.1783C32.5363 48.6346 34.2934 43.1028 37.6503 38.5496C40.0803 35.2088 43.3943 32.5312 47.1539 30.8247C51.3055 28.9007 55.9017 28.1309 60.4494 28.0168C59.9456 24.367 58.7214 20.8216 56.876 17.6336C54.9069 14.2217 52.2195 11.2297 49.0531 8.88694C45.1804 6.0209 40.5724 4.14646 35.791 3.53385C34.0091 3.27007 32.2036 3.27976 30.4077 3.32713C27.7021 3.46279 25.017 4.00111 22.4632 4.90119Z" fill="#010269"/>
<path d="M57.3178 35.1602C58.8133 35.0138 60.3152 35.0041 61.815 35.0429C61.7913 36.0216 61.5835 36.9862 61.4058 37.9466C59.9739 45.2054 55.6942 51.8407 49.7134 56.1872C48.1534 57.3489 46.462 58.3254 44.7103 59.1662C40.9861 60.8943 36.911 61.8697 32.8047 61.9655C33.0017 57.4888 33.8221 52.9755 35.759 48.908C37.4816 45.2495 40.1733 42.0389 43.5367 39.7844C47.6 37.0196 52.4557 35.5952 57.3178 35.1602ZM44.637 44.1955C42.5376 45.3421 40.689 46.9258 39.1946 48.7906C36.4728 52.2003 34.9117 56.3896 34.0385 60.6273C38.0523 60.3463 42.0068 59.2169 45.549 57.3058C51.6374 54.0651 56.4769 48.5516 58.8929 42.0895C54.0857 41.3886 48.9512 41.8193 44.637 44.1955Z" fill="#010269"/>
<path d="M2.13477 35.0204C6.75358 34.8396 11.4305 35.6072 15.6994 37.3977C19.4365 38.9825 22.8161 41.4846 25.2472 44.7522C27.8117 48.1351 29.3255 52.2134 30.0802 56.3639C30.4129 58.2103 30.6046 60.0794 30.6875 61.9517C26.2097 61.7622 21.775 60.5574 17.8291 58.4278C14.3806 56.5889 11.3067 54.0545 8.82182 51.0399C5.07509 46.5158 2.72154 40.8645 2.13477 35.0204ZM5.10201 42.0585C7.22408 47.8455 11.3326 52.8616 16.5188 56.1787C20.2817 58.5904 24.6184 60.1171 29.0703 60.5445C28.8561 57.6839 28.2973 54.8006 27.0118 52.2166C26.0342 50.2313 24.571 48.5173 22.8721 47.1133C21.3712 45.8903 19.8305 44.6909 18.1068 43.794C16.1506 42.7518 13.9876 42.0994 11.7815 41.8808C9.55825 41.6063 7.31559 41.8001 5.10201 42.0585Z" fill="#010269"/>
<path d="M22.4631 4.90102C25.0169 4.00094 27.702 3.46262 30.4076 3.32696C32.2035 3.27959 34.009 3.2699 35.7909 3.53368C40.5723 4.14629 45.1803 6.02073 49.053 8.88677C52.2194 11.2296 54.9068 14.2216 56.8759 17.6335C58.7213 20.8214 59.9455 24.3668 60.4493 28.0166C55.9016 28.1308 51.3054 28.9006 47.1538 30.8245C43.3942 32.531 40.0802 35.2086 37.6503 38.5495C34.2933 43.1026 32.5362 48.6344 31.7007 54.1781C31.3939 50.1891 30.3797 46.2303 28.5171 42.6784C26.5242 38.8466 23.5935 35.5058 20.0406 33.0489C16.59 30.6512 12.5665 29.1525 8.44081 28.4311C6.82584 28.1361 5.18934 27.9693 3.55176 27.8702C4.27634 22.979 6.25737 18.2751 9.31074 14.3809C12.6634 10.0474 17.2876 6.70548 22.4631 4.90102ZM17.125 11.3028C17.1326 12.4214 17.1337 13.5411 17.1229 14.6598C17.6095 14.6716 18.0951 14.6899 18.5796 14.7416C18.5204 16.0217 18.5904 17.304 18.5742 18.5852C18.5548 20.5802 18.6141 22.5774 18.5408 24.5714C18.0703 24.5628 17.5988 24.5638 17.1283 24.5649C17.1294 25.7514 17.1315 26.9378 17.1283 28.1232C17.6806 28.1243 18.2318 28.1275 18.7809 28.1814C19.8565 28.1814 20.931 28.1803 22.0055 28.1803C22.7742 28.2061 23.5386 28.1017 24.3074 28.1211C24.3095 26.9368 24.3084 25.7524 24.3106 24.5671C23.8229 24.5638 23.3352 24.5671 22.8474 24.5563C22.8474 24.397 22.8474 24.2376 22.8485 24.0793C22.8313 23.2288 22.9508 22.3772 22.842 21.5288C23.3535 21.5105 23.867 21.5341 24.3784 21.4922C25.5024 21.4394 26.6265 21.5201 27.7516 21.5363C27.7494 21.9164 27.7429 22.2964 27.7053 22.6743C27.6557 23.302 27.7569 23.9265 27.7559 24.5541C27.2671 24.5703 26.7783 24.5638 26.2895 24.5638C26.2873 25.7471 26.2852 26.9314 26.2906 28.1146C28.6818 28.1211 31.073 28.1297 33.4653 28.1243C33.4621 26.9389 33.4653 25.7524 33.4643 24.566C32.9798 24.5628 32.4953 24.5649 32.0119 24.5617C32.0269 21.265 31.9699 17.9672 32.0506 14.6716C32.5243 14.677 32.9981 14.6727 33.4718 14.6727C33.4567 13.5465 33.4632 12.4214 33.4696 11.2963C33.3081 11.2942 33.1477 11.2942 32.9873 11.2931C30.8308 11.2942 28.6753 11.2898 26.5188 11.2963C26.4617 11.3006 26.3476 11.3103 26.2916 11.3146C26.2852 12.4343 26.2862 13.554 26.2895 14.6748C26.7589 14.6834 27.2326 14.6425 27.6966 14.733C27.6934 15.8053 27.7117 16.8766 27.6848 17.9489C26.0698 17.9468 24.4559 17.9629 22.842 17.9048C22.8873 16.9099 22.9249 15.9119 22.8539 14.9171C22.8722 14.8557 22.9066 14.733 22.9239 14.6716C23.3879 14.6802 23.8519 14.6781 24.316 14.6662C24.3052 13.5454 24.3052 12.4246 24.3127 11.3038C21.9172 11.2855 19.5206 11.2877 17.125 11.3028ZM34.9737 11.3189C34.9554 12.4408 34.9759 13.5637 34.9651 14.6867C35.4388 14.7448 35.9179 14.7297 36.3949 14.7351C36.4057 18.0167 36.4024 21.2994 36.397 24.5811C35.9222 24.5843 35.4485 24.5821 34.9748 24.5811C34.9619 25.7837 34.964 26.9874 34.9726 28.19C35.4625 28.1868 35.9513 28.19 36.4412 28.1878C38.3479 28.1146 40.2579 28.1932 42.1657 28.1405C42.0914 27.6872 42.1151 27.2285 42.1377 26.7731C42.0764 26.0431 42.2529 25.3121 42.1054 24.5854C41.6349 24.5832 41.1655 24.5864 40.6961 24.5778C40.7015 23.5658 40.7036 22.5548 40.6972 21.5438C41.5025 21.5223 42.3089 21.5234 43.1153 21.5072C43.9422 21.4103 44.7852 21.5169 45.5991 21.3027C46.2053 21.0787 46.7899 20.7966 47.3293 20.4381C47.9592 19.9396 48.4975 19.3335 48.9109 18.6444L48.9464 18.6164C49.2199 18.0189 49.5084 17.4117 49.5774 16.7495C49.657 15.9151 49.5504 15.0581 49.2705 14.2679C48.9141 13.2461 48.0733 12.4742 47.1312 11.9854C46.9783 11.9218 46.8265 11.8583 46.6769 11.7916C45.9566 11.5019 45.1965 11.2468 44.4084 11.3178C41.2635 11.3178 38.1186 11.3157 34.9737 11.3189Z" fill="#FDFDFD"/>
<path d="M40.6965 14.7328C41.7871 14.722 42.8789 14.7317 43.9706 14.7253C44.1859 14.7199 44.4012 14.7489 44.6123 14.792C44.8954 14.9901 45.1581 15.2151 45.4111 15.452C45.5737 15.9516 45.5694 16.4802 45.5242 16.9981C45.3401 17.3727 45.0526 17.6763 44.7371 17.9434C44.5326 18.0467 44.3216 18.1576 44.0847 18.1318C42.9542 18.1199 41.8248 18.1436 40.6943 18.1156C40.7062 16.9884 40.7029 15.86 40.6965 14.7328Z" fill="#FDFDFD"/>
<path d="M5.10254 42.0582C7.31613 41.7998 9.55878 41.606 11.7821 41.8806C13.9881 42.0991 16.1511 42.7516 18.1074 43.7938C19.8311 44.6906 21.3718 45.89 22.8726 47.1131C24.5716 48.517 26.0347 50.231 27.0123 52.2164C28.2978 54.8003 28.8566 57.6836 29.0709 60.5443C24.6189 60.1168 20.2822 58.5901 16.5193 56.1784C11.3331 52.8613 7.22461 47.8452 5.10254 42.0582Z" fill="#FDFDFD"/>
<path d="M44.6366 44.1953C48.9507 41.8192 54.0853 41.3885 58.8925 42.0894C56.4765 48.5515 51.637 54.065 45.5485 57.3057C42.0064 59.2167 38.0518 60.3461 34.0381 60.6271C34.9112 56.3894 36.4724 52.2002 39.1942 48.7905C40.6885 46.9257 42.5371 45.342 44.6366 44.1953Z" fill="#FDFDFD"/>
</svg>
