<svg width="40" height="40" viewBox="0 0 40 40" fill="none" xmlns="http://www.w3.org/2000/svg">
<path d="M1.6665 36.666H38.3332" stroke="black" stroke-width="1.5" stroke-miterlimit="10" stroke-linecap="round" stroke-linejoin="round"/>
<path d="M32.9668 36.6834V29.25" stroke="black" stroke-width="1.5" stroke-miterlimit="10" stroke-linecap="round" stroke-linejoin="round"/>
<path d="M33.0002 18.1504C30.9669 18.1504 29.3335 19.7837 29.3335 21.8171V25.6003C29.3335 27.6337 30.9669 29.267 33.0002 29.267C35.0335 29.267 36.6669 27.6337 36.6669 25.6003V21.8171C36.6669 19.7837 35.0335 18.1504 33.0002 18.1504Z" stroke="black" stroke-width="1.5" stroke-miterlimit="10" stroke-linecap="round" stroke-linejoin="round"/>
<path d="M3.5 36.6676V10.0509C3.5 6.70094 5.16675 5.01758 8.48342 5.01758H18.8667C22.1834 5.01758 23.8334 6.70094 23.8334 10.0509V36.6676" stroke="black" stroke-width="1.5" stroke-miterlimit="10" stroke-linecap="round" stroke-linejoin="round"/>
<path d="M9.6665 13.75H17.9165" stroke="black" stroke-width="1.5" stroke-miterlimit="10" stroke-linecap="round" stroke-linejoin="round"/>
<path d="M9.6665 20H17.9165" stroke="black" stroke-width="1.5" stroke-miterlimit="10" stroke-linecap="round" stroke-linejoin="round"/>
<path d="M13.75 36.666V30.416" stroke="#292D32" stroke-width="1.5" stroke-miterlimit="10" stroke-linecap="round" stroke-linejoin="round"/>
</svg>
