<svg width="40" height="40" viewBox="0 0 40 40" fill="none" xmlns="http://www.w3.org/2000/svg">
<path d="M11.1664 30.0007H6.91638C4.53305 30.0007 3.33301 28.8006 3.33301 26.4173V6.91736C3.33301 4.53403 4.53305 3.33398 6.91638 3.33398H14.083C16.4664 3.33398 17.6663 4.53403 17.6663 6.91736V10.0007" stroke="#292D32" stroke-width="1.5" stroke-miterlimit="10" stroke-linecap="round" stroke-linejoin="round"/>
<path d="M28.9503 14.0333V32.6334C28.9503 35.3167 27.617 36.6667 24.9337 36.6667H15.2003C12.517 36.6667 11.167 35.3167 11.167 32.6334V14.0333C11.167 11.35 12.517 10 15.2003 10H24.9337C27.617 10 28.9503 11.35 28.9503 14.0333Z" stroke="#292D32" stroke-width="1.5" stroke-miterlimit="10" stroke-linecap="round" stroke-linejoin="round"/>
<path d="M22.333 10.0007V6.91736C22.333 4.53403 23.5329 3.33398 25.9163 3.33398H33.0829C35.4663 3.33398 36.6663 4.53403 36.6663 6.91736V26.4173C36.6663 28.8006 35.4663 30.0007 33.0829 30.0007H28.9496" stroke="#292D32" stroke-width="1.5" stroke-miterlimit="10" stroke-linecap="round" stroke-linejoin="round"/>
<path d="M16.667 18.334H23.3337" stroke="#292D32" stroke-width="1.5" stroke-miterlimit="10" stroke-linecap="round" stroke-linejoin="round"/>
<path d="M16.667 23.334H23.3337" stroke="#292D32" stroke-width="1.5" stroke-miterlimit="10" stroke-linecap="round" stroke-linejoin="round"/>
<path d="M20 36.666V31.666" stroke="#292D32" stroke-width="1.5" stroke-miterlimit="10" stroke-linecap="round" stroke-linejoin="round"/>
</svg>
