<svg width="40" height="40" viewBox="0 0 40 40" fill="none" xmlns="http://www.w3.org/2000/svg">
<path d="M20.0001 13.1504L18.2168 16.2504C17.8168 16.9337 18.1501 17.5004 18.9334 17.5004H21.0501C21.8501 17.5004 22.1668 18.0671 21.7668 18.7504L20.0001 21.8504" stroke="black" stroke-width="1.5" stroke-linecap="round" stroke-linejoin="round"/>
<path d="M13.8334 30.0663V28.133C10.0001 25.8163 6.8501 21.2996 6.8501 16.4996C6.8501 8.24964 14.4334 1.78297 23.0001 3.64964C26.7668 4.48297 30.0668 6.98298 31.7834 10.433C35.2668 17.433 31.6001 24.8663 26.2168 28.1163V30.0496C26.2168 30.533 26.4001 31.6496 24.6168 31.6496H15.4334C13.6001 31.6663 13.8334 30.9496 13.8334 30.0663Z" stroke="black" stroke-width="1.5" stroke-linecap="round" stroke-linejoin="round"/>
<path d="M14.1665 36.666C17.9832 35.5827 22.0165 35.5827 25.8332 36.666" stroke="#292D32" stroke-width="1.5" stroke-linecap="round" stroke-linejoin="round"/>
</svg>
