<svg width="40" height="40" viewBox="0 0 40 40" fill="none" xmlns="http://www.w3.org/2000/svg">
<path d="M14.2832 25.4507L25.1832 14.5508" stroke="black" stroke-width="1.5" stroke-linecap="round" stroke-linejoin="round"/>
<path d="M14.967 17.2836C16.0992 17.2836 17.017 16.3658 17.017 15.2336C17.017 14.1014 16.0992 13.1836 14.967 13.1836C13.8348 13.1836 12.917 14.1014 12.917 15.2336C12.917 16.3658 13.8348 17.2836 14.967 17.2836Z" stroke="black" stroke-width="1.5" stroke-linecap="round" stroke-linejoin="round"/>
<path d="M25.8664 26.8168C26.9986 26.8168 27.9164 25.8989 27.9164 24.7668C27.9164 23.6346 26.9986 22.7168 25.8664 22.7168C24.7342 22.7168 23.8164 23.6346 23.8164 24.7668C23.8164 25.8989 24.7342 26.8168 25.8664 26.8168Z" stroke="black" stroke-width="1.5" stroke-linecap="round" stroke-linejoin="round"/>
<path d="M19.9997 36.6673C29.2044 36.6673 36.6663 29.2054 36.6663 20.0007C36.6663 10.7959 29.2044 3.33398 19.9997 3.33398C10.7949 3.33398 3.33301 10.7959 3.33301 20.0007C3.33301 29.2054 10.7949 36.6673 19.9997 36.6673Z" stroke="black" stroke-width="1.5" stroke-linecap="round" stroke-linejoin="round"/>
</svg>
