<svg width="40" height="40" viewBox="0 0 40 40" fill="none" xmlns="http://www.w3.org/2000/svg">
<path d="M36.6668 20.0007C36.6668 10.8007 29.2002 3.33398 20.0002 3.33398C10.8002 3.33398 3.3335 10.8007 3.3335 20.0007C3.3335 29.2007 10.8002 36.6673 20.0002 36.6673" stroke="black" stroke-width="1.5" stroke-linecap="round" stroke-linejoin="round"/>
<path d="M13.3333 5H15C11.75 14.7333 11.75 25.2667 15 35H13.3333" stroke="black" stroke-width="1.5" stroke-linecap="round" stroke-linejoin="round"/>
<path d="M25 5C26.6167 9.86667 27.4333 14.9333 27.4333 20" stroke="black" stroke-width="1.5" stroke-linecap="round" stroke-linejoin="round"/>
<path d="M5 26.6667V25C9.86667 26.6167 14.9333 27.4334 20 27.4334" stroke="black" stroke-width="1.5" stroke-linecap="round" stroke-linejoin="round"/>
<path d="M5 15C14.7333 11.75 25.2667 11.75 35 15" stroke="#292D32" stroke-width="1.5" stroke-linecap="round" stroke-linejoin="round"/>
<path d="M32.5002 24.4992C31.8836 24.3159 31.1836 24.1992 30.4169 24.1992C26.9669 24.1992 24.1836 26.9992 24.1836 30.4325C24.1836 33.8825 26.9836 36.6659 30.4169 36.6659C33.8502 36.6659 36.6502 33.8659 36.6502 30.4325C36.6502 29.1492 36.2669 27.9492 35.6002 26.9658" stroke="#292D32" stroke-width="1.5" stroke-linecap="round" stroke-linejoin="round"/>
<path d="M33.4002 24.6665L31.3169 22.2832" stroke="#292D32" stroke-width="1.5" stroke-linecap="round" stroke-linejoin="round"/>
<path d="M33.4002 24.666L30.9668 26.4327" stroke="#292D32" stroke-width="1.5" stroke-linecap="round" stroke-linejoin="round"/>
</svg>
