<svg width="64" height="64" viewBox="0 0 64 64" fill="none" xmlns="http://www.w3.org/2000/svg">
<rect width="64" height="64" fill="white"/>
<path d="M30.4067 3.31938C32.3204 3.26976 34.2438 3.27581 36.1346 3.59292C39.903 4.12304 43.5558 5.44714 46.8204 7.40423C51.0565 9.95923 54.6393 13.6084 57.0664 17.9353C60.1238 23.2728 61.3422 29.6331 60.5311 35.7319C59.9961 39.9729 58.4607 44.0771 56.124 47.6487C52.3399 53.4462 46.4372 57.8373 39.7705 59.6673C32.5735 61.7212 24.5787 60.7953 18.0554 57.1074C10.8861 53.1521 5.51243 45.9894 3.8843 37.9202C3.12869 34.6257 3.09254 31.192 3.54205 27.8515C3.94818 25.5676 4.47602 23.2873 5.40517 21.1547C8.14683 14.4108 13.5614 8.82636 20.1776 5.85017C21.6273 5.16997 23.1578 4.68705 24.6884 4.22713C26.5659 3.76236 28.4785 3.44647 30.4067 3.31938ZM29.2112 4.56844C28.1422 4.70279 27.0697 4.83592 26.0224 5.09735C25.0451 5.34789 24.0496 5.54154 23.112 5.92763C21.0609 6.61994 19.1014 7.57489 17.2841 8.75132C11.5248 12.3775 7.20683 18.2342 5.42686 24.8232C5.13763 26.0553 4.78212 27.2802 4.69294 28.5486C4.36515 30.9547 4.4001 33.4056 4.70981 35.813C5.52448 41.7775 8.35049 47.4503 12.6456 51.6561C14.9473 54.0005 17.7143 55.8596 20.6825 57.2442C24.7534 59.096 29.2714 59.9311 33.7304 59.6915C34.3293 59.5656 34.9452 59.6201 35.5441 59.5063C38.6184 59.1178 41.6336 58.2234 44.4042 56.823C50.9492 53.5939 56.1047 47.6548 58.3776 40.6942C58.6258 39.9099 58.9488 39.1486 59.1428 38.3474C59.4212 37.1504 59.5911 35.9292 59.6803 34.7043C59.6888 33.9818 59.6948 33.2592 59.7791 32.5403C59.8418 31.6107 59.655 30.6873 59.6767 29.7553C59.4309 27.3189 58.9597 24.8898 58.0823 22.5986C55.983 16.806 51.8675 11.7832 46.6409 8.55888C41.4914 5.32731 35.244 3.91728 29.2112 4.56844Z" fill="#FEFEFE"/>
<path d="M10.4124 26.3189C11.1078 26.0381 11.8983 27.0342 11.3331 27.6006C10.9776 28.0981 10.1292 27.9916 9.90144 27.4239C9.62065 26.9894 10.0388 26.5174 10.4124 26.3189Z" fill="#FEFEFE"/>
<path d="M14.1228 26.7731C15.1653 26.2442 16.4548 26.2926 17.4924 26.8094C18.2287 27.1313 18.8795 27.7595 19.0639 28.5644C23.4505 28.6079 27.8396 28.5825 32.2262 28.5946C32.2166 28.9238 32.2166 29.2542 32.2286 29.5834C32.0153 29.5955 31.802 29.604 31.5887 29.6149C31.6224 31.7233 31.5405 33.8281 31.5309 35.9352C31.0271 35.9606 30.5234 35.9534 30.0196 35.9425C30.0534 34.8278 30.0473 33.7131 30.0606 32.5996C29.5545 32.6044 29.0483 32.5863 28.5434 32.5984C28.2421 32.9264 28.0119 33.3572 27.5552 33.4928C26.8803 33.7881 26.1861 33.0849 26.197 32.4192C26.1018 31.8407 26.6826 31.3735 27.2153 31.3711C28.1987 31.3529 29.1905 31.4473 30.1703 31.3142C30.1618 30.7454 30.1799 30.1753 30.2137 29.6077C28.6699 29.6234 27.1249 29.6016 25.5812 29.6319C25.5763 31.7536 25.4667 33.874 25.5137 35.9982C25.0039 35.9788 24.4953 35.9812 23.9856 35.997C23.9747 35.4317 23.9856 34.8665 23.9976 34.3013C23.2492 34.685 22.308 34.7794 21.5536 34.363C20.704 33.8692 20.0991 33.0014 19.8966 32.0392C20.4714 31.8613 21.1089 31.4885 21.221 30.8398C21.3126 30.4718 21.115 30.1099 20.8595 29.8594C20.4534 29.3946 19.7785 29.667 19.2458 29.598C19.2808 30.2733 19.3169 30.9535 19.247 31.6289C18.6119 31.5986 17.9768 31.6398 17.3417 31.6422C16.9573 31.6604 16.5391 31.5781 16.2029 31.8141C16.2198 31.9666 16.2402 32.1191 16.2607 32.2716C17.2827 32.5354 18.4034 32.4325 19.3531 32.9481C19.5893 33.0728 19.8303 33.2483 19.9255 33.5097C20.0316 34.4405 19.4905 35.4172 18.618 35.7755C17.3767 36.3189 15.9221 35.9546 14.8519 35.1921C15.0785 34.8956 15.3388 34.6257 15.5738 34.3352C16.3933 34.6535 17.3731 34.9924 18.1925 34.4913C18.4782 34.3872 18.354 34.0508 18.354 33.8244C17.4164 33.5315 16.3535 33.6041 15.4931 33.0643C15.0448 32.7787 14.6254 32.2498 14.8315 31.6906C14.8399 31.1557 15.2219 30.7163 15.6967 30.5154C16.2656 30.2104 16.9272 30.3121 17.5454 30.3072C17.5502 30.0748 17.5538 29.8412 17.5599 29.6101C16.3559 29.5943 15.152 29.6089 13.9493 29.6016C13.9698 31.7281 13.9397 33.8547 13.9541 35.98C13.4998 35.9909 13.0455 35.9861 12.5923 36.0078C12.5417 33.891 12.5658 31.7717 12.5562 29.6536C12.1886 29.5096 11.7475 29.6403 11.3511 29.5871C11.3462 30.2285 11.3908 30.8724 11.3245 31.5115C10.2195 31.5054 9.09266 31.4425 8.00202 31.6458C7.98274 31.8673 7.88272 32.2425 8.19725 32.2909C9.10833 32.3926 10.1062 32.0779 10.9558 32.533C11.6041 32.8804 11.6921 33.7022 11.6849 34.363C11.7078 34.8459 11.4137 35.2623 11.1329 35.6254C10.7509 36.0708 9.98084 35.8856 9.67594 36.4145C9.71812 36.7135 10.0013 36.8793 10.2122 37.0584C9.93022 37.3695 9.6904 37.7144 9.39997 38.0182C8.82151 37.597 8.33464 37.0463 8.03215 36.3927C7.44646 36.3528 6.82341 36.0454 6.57395 35.4886C6.48839 35.0904 6.4197 34.5688 6.78364 34.2856C7.103 33.9539 7.63085 34.0072 8.02854 34.1476C8.43828 34.2759 8.64556 34.7043 9.03602 34.8653C9.60002 34.944 10.0447 34.4816 10.217 33.983C9.5241 33.264 8.45515 33.4867 7.57782 33.2544C7.01744 33.1515 6.60649 32.6214 6.57877 32.0598C6.56913 31.6531 6.52093 31.1484 6.8909 30.8773C7.62723 30.1499 8.7263 30.2043 9.68317 30.191C9.65786 29.9962 9.71089 29.7783 9.61327 29.6004C8.62748 29.5992 7.64049 29.5883 6.6547 29.6077C6.6559 29.2651 6.6547 28.9226 6.65108 28.5813C8.63471 28.5631 10.6196 28.597 12.602 28.5559C12.8069 27.7728 13.3986 27.1144 14.1228 26.7731ZM14.0505 28.5934C15.2147 28.6224 16.3788 28.5801 17.543 28.5789C17.3996 27.8248 16.609 27.4218 15.8968 27.4593C15.1255 27.3831 14.2012 27.7438 14.0505 28.5934ZM22.5141 29.6173C22.6563 30.2903 22.7901 31.0286 22.5057 31.6834C22.3406 32.1106 21.9453 32.3732 21.6392 32.6891C21.8212 32.9566 22.0405 33.2943 22.4032 33.2919C23.0106 33.3802 23.6084 32.9397 23.8012 32.3708C24.0748 31.4752 23.9627 30.5311 23.9808 29.6101C23.4915 29.6125 23.0034 29.6149 22.5141 29.6173Z" fill="#FEFEFE"/>
<path d="M41.5928 26.5469C41.8555 26.7296 42.1339 26.8858 42.4207 27.0274C42.1062 27.6277 41.4856 27.9956 40.8565 28.182C39.8948 28.5149 38.7523 27.9291 38.4053 26.9802C38.6559 26.8374 38.9343 26.6522 39.2272 26.651C39.5043 26.8422 39.7695 27.0903 40.1214 27.1218C40.6793 27.2343 41.2144 26.9378 41.5928 26.5469Z" fill="#FEFEFE"/>
<path d="M33.8459 28.5632C35.1498 28.0851 36.8575 29.0243 36.925 30.4791C36.8756 31.117 36.7996 31.8456 36.2862 32.291C36.5441 32.5439 36.8816 32.7824 36.9358 33.1672C37.037 33.7276 37.1636 34.3776 36.7418 34.8435C35.8175 36.1991 33.5759 36.1519 32.6179 34.8641C32.4009 34.5821 32.3419 34.219 32.2539 33.8825C32.5564 33.6901 32.8577 33.4952 33.1614 33.3028C33.3168 33.7204 33.5036 34.1851 33.9278 34.3945C34.2882 34.6148 34.816 34.6172 35.0956 34.2638C35.4957 33.8983 35.3595 33.3125 35.345 32.8344C35.1209 32.2377 34.3761 32.5088 33.8965 32.4362C33.9085 32.159 33.9218 31.8831 33.9326 31.6071C34.6352 31.7427 35.2137 31.1073 35.3679 30.4779C35.3366 30.0894 34.9449 29.8292 34.5738 29.8885C34.0604 29.7735 33.8543 30.4476 33.3867 30.4634C33.1216 30.3327 32.9035 30.1233 32.6673 29.949C32.7203 29.2906 33.2132 28.7266 33.8459 28.5632Z" fill="#FEFEFE"/>
<path d="M37.2491 28.5723C44.0544 28.5626 50.8597 28.559 57.6639 28.5747C57.6494 28.9148 57.6494 29.2561 57.6603 29.5962C57.2626 29.6023 56.8661 29.5914 56.4696 29.589C56.4901 31.7119 56.4588 33.8336 56.4841 35.9565C55.9924 35.9686 55.4983 35.9928 55.0102 35.9299C55.0391 34.8527 54.9656 33.7755 54.9572 32.6983C54.8101 32.731 54.6704 32.783 54.539 32.8556C53.8376 33.2429 53.0699 33.4983 52.3927 33.9304C52.1757 33.56 52.0094 33.1643 51.807 32.7854C52.0552 32.6293 52.3589 32.5301 52.5505 32.2989C52.3662 32.035 52.0311 31.8377 51.7045 31.9322C51.1984 32.0883 50.7513 32.5869 50.82 33.1449C50.8224 33.9001 51.519 34.3419 51.9829 34.8333C51.8046 35.2133 51.6081 35.5837 51.4105 35.9541C50.5127 35.4167 49.7498 34.5876 49.451 33.5661C49.3148 32.8568 49.3341 32.0617 49.7691 31.4529C50.1668 30.7388 51.0092 30.3636 51.8058 30.4241C52.6626 30.4301 53.4267 30.878 54.0979 31.3718C54.3546 31.2507 54.6173 31.1418 54.8849 31.0474C54.88 30.5669 54.8752 30.0864 54.9102 29.6071C52.7783 29.5793 50.6452 29.6035 48.5134 29.5974C48.5459 31.7167 48.4784 33.8372 48.5278 35.9553C48.0482 35.9867 47.5661 35.9734 47.0865 35.9674C47.0877 35.3719 47.1034 34.7752 47.1203 34.1797C46.1308 34.4412 44.9522 34.6881 44.0604 34.026C43.3506 33.5673 43.2639 32.6487 43.1482 31.8862C44.0773 31.9055 44.7341 30.5911 44.0604 29.9121C43.5796 29.3675 42.7951 29.6701 42.1684 29.5587C42.1563 31.6889 42.16 33.8215 42.1768 35.9529C41.7044 35.942 41.232 35.9444 40.7608 35.9129C40.8114 33.8069 40.7536 31.6998 40.7897 29.5926C40.4234 29.5914 40.057 29.5878 39.6907 29.5817C39.7304 31.701 39.6762 33.8215 39.7196 35.942C39.211 35.9831 38.7001 35.9686 38.1903 35.9589C38.2144 34.7934 38.2276 33.6266 38.1975 32.4611C37.8263 32.4829 37.4552 32.4913 37.084 32.4865C37.0864 32.0253 37.0864 31.5654 37.1081 31.1055C37.4793 31.1067 37.8504 31.1067 38.2228 31.1031C38.2144 30.5984 38.2023 30.0949 38.2204 29.5902C37.895 29.5962 37.5709 29.6047 37.2467 29.6059C37.2551 29.261 37.2599 28.916 37.2491 28.5723ZM45.5319 29.5841C45.697 30.1409 45.6633 30.7351 45.6259 31.3076C45.5415 31.8668 45.1511 32.2759 44.6955 32.5664C45.039 33.4438 46.5635 33.4935 46.9021 32.5809C47.2745 31.6284 47.0672 30.5839 47.1178 29.5878C46.5888 29.5938 46.061 29.5926 45.5319 29.5841Z" fill="#FEFEFE"/>
<path d="M29.3294 2.13435C30.2308 2.06657 31.1395 2.07867 32.0421 2C33.1279 2.09925 34.2246 2.03752 35.3032 2.21786C39.4886 2.67899 43.5763 4.02124 47.2001 6.1732C49.0958 7.27097 50.8396 8.62411 52.4701 10.085C53.1571 10.81 53.9271 11.4575 54.5418 12.2478C56.0867 13.929 57.3497 15.8558 58.4717 17.8419C58.7633 18.4822 59.1477 19.0753 59.3803 19.7434C60.1685 21.3119 60.6397 23.01 61.1374 24.6863C61.5134 26.3166 61.7833 27.9712 61.9521 29.6353C62.0195 31.2293 62.0123 32.8246 61.9521 34.4185C61.7653 36.1469 61.5025 37.8716 61.0795 39.56C60.7722 40.4024 60.612 41.292 60.2709 42.1223C58.6404 46.6852 55.8674 50.8269 52.2894 54.0815C51.5591 54.7653 50.7782 55.3911 50.0021 56.0216C49.1127 56.5796 48.3089 57.2767 47.3628 57.7427C45.6745 58.803 43.8391 59.6042 41.9783 60.3038C41.183 60.5398 40.3984 60.8085 39.603 61.0433C37.7845 61.4391 35.9551 61.8506 34.0884 61.8929C32.9303 62.0321 31.7589 62.014 30.596 61.9595C29.9452 61.8494 29.2775 61.928 28.6304 61.7937C28.2122 61.7199 27.7832 61.7477 27.3686 61.6497C26.0767 61.3568 24.7499 61.1934 23.493 60.7613C22.1034 60.2977 20.6898 59.8681 19.3907 59.1782C18.2724 58.7376 17.2649 58.0719 16.2104 57.5055C14.4907 56.3629 12.8023 55.1563 11.3321 53.6966C7.82273 50.3827 5.12326 46.2035 3.59395 41.6151C3.42644 41.1976 3.2758 40.7728 3.18903 40.3298C2.27675 37.2241 1.88629 33.9623 2.0285 30.7271C2.05381 29.1488 2.34786 27.5911 2.59129 26.0371C3.24929 23.0415 4.27726 20.1149 5.79813 17.4474C6.11025 16.7732 6.58748 16.1995 6.93094 15.5435C8.68922 13.0067 10.703 10.6115 13.1614 8.73304C14.2689 7.79867 15.4729 6.99138 16.7045 6.23614C17.2781 5.9856 17.759 5.56562 18.3471 5.35018C20.2355 4.38313 22.2155 3.57826 24.2751 3.06145C25.9237 2.57854 27.6326 2.36794 29.3294 2.13435ZM30.4067 3.31925C28.4785 3.44634 26.566 3.76223 24.6884 4.227C23.1579 4.68692 21.6274 5.16984 20.1777 5.85004C13.5615 8.82623 8.14691 14.4107 5.40526 21.1546C4.4761 23.2872 3.94826 25.5674 3.54213 27.8513C3.09262 31.1918 3.12878 34.6255 3.88439 37.92C5.51251 45.9893 10.8862 53.152 18.0554 57.1073C24.5788 60.7952 32.5736 61.7211 39.7706 59.6671C46.4373 57.8371 52.34 53.4461 56.1241 47.6486C58.4608 44.0769 59.9961 39.9727 60.5312 35.7318C61.3423 29.6329 60.1239 23.2727 57.0665 17.9351C54.6394 13.6082 51.0565 9.9591 46.8205 7.4041C43.5558 5.44701 39.9031 4.12291 36.1347 3.59279C34.2439 3.27568 32.3205 3.26963 30.4067 3.31925Z" fill="#02164F"/>
<path d="M29.2112 4.56784C35.244 3.91668 41.4914 5.32671 46.6409 8.55828C51.8675 11.7826 55.983 16.8054 58.0823 22.598C58.9596 24.8892 59.4309 27.3183 59.6767 29.7547C59.655 30.6866 59.8418 31.6101 59.7791 32.5397C59.6948 33.2586 59.6887 33.9812 59.6803 34.7037C59.5911 35.9286 59.4212 37.1498 59.1428 38.3468C58.9488 39.148 58.6258 39.9093 58.3776 40.6936C56.1047 47.6542 50.9492 53.5933 44.4042 56.8224C41.6336 58.2227 38.6184 59.1172 35.5441 59.5057C34.9452 59.6195 34.3293 59.565 33.7304 59.6909C29.2714 59.9305 24.7534 59.0954 20.6825 57.2436C17.7143 55.859 14.9473 53.9999 12.6455 51.6555C8.35049 47.4496 5.52447 41.7769 4.70981 35.8124C4.40009 33.405 4.36515 30.9541 4.69294 28.548C4.78212 27.2796 5.13763 26.0547 5.42686 24.8226C7.20683 18.2336 11.5248 12.3769 17.2841 8.75072C19.1014 7.57428 21.0609 6.61934 23.112 5.92703C24.0496 5.54094 25.0451 5.34729 26.0224 5.09675C27.0697 4.83532 28.1422 4.70218 29.2112 4.56784ZM26.2646 5.7007C22.2709 6.60239 18.4771 8.40457 15.286 10.985C11.7911 13.7675 8.99402 17.4348 7.2478 21.5584C6.81516 22.5157 6.52473 23.5288 6.14632 24.5079C19.4786 24.5055 32.8109 24.491 46.1407 24.4123C50.0839 24.4099 54.0271 24.3905 57.9714 24.399C56.7049 19.9462 54.1741 15.882 50.8636 12.6698C47.4796 9.40672 43.2509 7.02116 38.6931 5.88346C34.6403 4.85226 30.3488 4.822 26.2646 5.7007ZM10.4125 26.3186C10.0389 26.5171 9.62069 26.9891 9.90148 27.4236C10.1293 27.9913 10.9777 28.0978 11.3332 27.6003C11.8984 27.0339 11.1078 26.0378 10.4125 26.3186ZM14.123 26.7725C13.3987 27.1138 12.807 27.7722 12.6022 28.5553C10.6197 28.5964 8.6349 28.5625 6.65126 28.5807C6.65488 28.922 6.65609 29.2645 6.65488 29.607C7.64067 29.5877 8.62767 29.5986 9.61346 29.5998C9.71107 29.7777 9.65805 29.9956 9.68336 30.1904C8.72649 30.2037 7.62741 30.1493 6.89108 30.8767C6.52111 31.1478 6.56932 31.6525 6.57896 32.0592C6.60667 32.6207 7.01762 33.1509 7.578 33.2537C8.45533 33.4861 9.52428 33.2634 10.2172 33.9824C10.0449 34.481 9.6002 34.9434 9.0362 34.8647C8.64574 34.7037 8.43846 34.2753 8.02872 34.147C7.63103 34.0066 7.10319 33.9533 6.78383 34.2849C6.41988 34.5682 6.48857 35.0898 6.57414 35.488C6.8236 36.0448 7.44665 36.3522 8.03234 36.3921C8.33482 37.0457 8.82169 37.5964 9.40015 38.0176C9.69059 37.7138 9.93041 37.3688 10.2124 37.0578C10.0015 36.8787 9.7183 36.7129 9.67612 36.4139C9.98102 35.885 10.7511 36.0702 11.1331 35.6248C11.4139 35.2617 11.708 34.8453 11.6851 34.3624C11.6923 33.7016 11.6043 32.8798 10.956 32.5324C10.1064 32.0773 9.10851 32.392 8.19744 32.2903C7.8829 32.2419 7.98293 31.8667 8.00221 31.6452C9.09284 31.4419 10.2196 31.5048 11.3247 31.5109C11.391 30.8718 11.3464 30.2279 11.3512 29.5865C11.7477 29.6397 12.1888 29.509 12.5564 29.653C12.566 31.7711 12.5419 33.8904 12.5925 36.0072C13.0456 35.9854 13.5 35.9903 13.9543 35.9794C13.9399 33.8541 13.97 31.7275 13.9495 29.601C15.1522 29.6082 16.3561 29.5937 17.56 29.6095C17.554 29.8406 17.5504 30.0742 17.5456 30.3066C16.9274 30.3114 16.2657 30.2098 15.6969 30.5148C15.2221 30.7157 14.8401 31.155 14.8316 31.69C14.6256 32.2492 15.0449 32.7781 15.4933 33.0637C16.3537 33.6035 17.4166 33.5309 18.3542 33.8238C18.3542 34.0501 18.4783 34.3866 18.1927 34.4907C17.3732 34.9918 16.3935 34.6529 15.574 34.3346C15.339 34.625 15.0787 34.8949 14.8521 35.1915C15.9223 35.954 17.3769 36.3183 18.6181 35.7749C19.4906 35.4166 20.0318 34.4399 19.9257 33.5091C19.8305 33.2477 19.5895 33.0722 19.3533 32.9475C18.4036 32.4319 17.2829 32.5348 16.2609 32.271C16.2404 32.1185 16.2199 31.966 16.2031 31.8135C16.5393 31.5774 16.9575 31.6597 17.3419 31.6416C17.977 31.6392 18.6121 31.598 19.2472 31.6283C19.3171 30.9529 19.281 30.2727 19.246 29.5974C19.7787 29.6663 20.4535 29.394 20.8597 29.8588C21.1152 30.1093 21.3128 30.4712 21.2212 30.8391C21.1091 31.4879 20.4716 31.8607 19.8968 32.0386C20.0992 33.0008 20.7042 33.8686 21.5538 34.3624C22.3082 34.7788 23.2494 34.6843 23.9978 34.3007C23.9858 34.8659 23.9749 35.4311 23.9858 35.9963C24.4955 35.9806 25.0041 35.9782 25.5139 35.9976C25.4669 33.8734 25.5765 31.7529 25.5813 29.6312C27.1251 29.601 28.6701 29.6228 30.2138 29.607C30.1801 30.1747 30.162 30.7447 30.1705 31.3136C29.1907 31.4467 28.1989 31.3523 27.2155 31.3705C26.6828 31.3729 26.102 31.8401 26.1972 32.4186C26.1863 33.0843 26.8805 33.7875 27.5553 33.4922C28.0121 33.3566 28.2423 32.9257 28.5435 32.5977C29.0485 32.5856 29.5546 32.6038 30.0608 32.599C30.0475 33.7125 30.0536 34.8272 30.0198 35.9419C30.5236 35.9528 31.0273 35.96 31.531 35.9346C31.5407 33.8274 31.6226 31.7227 31.5889 29.6143C31.8022 29.6034 32.0155 29.5949 32.2288 29.5828C32.2168 29.2536 32.2168 28.9232 32.2264 28.594C27.8397 28.5819 23.4507 28.6073 19.064 28.5637C18.8797 27.7589 18.2289 27.1307 17.4926 26.8088C16.4549 26.292 15.1655 26.2435 14.123 26.7725ZM41.5926 26.5461C41.2142 26.9371 40.6791 27.2336 40.1212 27.121C39.7693 27.0896 39.5041 26.8414 39.227 26.6502C38.9341 26.6514 38.6557 26.8366 38.4051 26.9794C38.7521 27.9283 39.8946 28.5141 40.8563 28.1813C41.4854 27.9949 42.106 27.6269 42.4205 27.0266C42.1337 26.885 41.8553 26.7289 41.5926 26.5461ZM33.8461 28.5625C33.2134 28.7259 32.7205 29.2899 32.6675 29.9483C32.9037 30.1226 33.1218 30.332 33.3869 30.4627C33.8545 30.447 34.0606 29.7729 34.574 29.8878C34.9452 29.8285 35.3368 30.0887 35.3682 30.4773C35.2139 31.1066 34.6354 31.7421 33.9328 31.6065C33.922 31.8824 33.9087 32.1584 33.8967 32.4356C34.3763 32.5082 35.1211 32.2371 35.3453 32.8338C35.3597 33.3118 35.4959 33.8976 35.0958 34.2632C34.8162 34.6166 34.2884 34.6142 33.928 34.3939C33.5038 34.1845 33.317 33.7197 33.1616 33.3022C32.8579 33.4946 32.5566 33.6895 32.2541 33.8819C32.3421 34.2184 32.4011 34.5815 32.6181 34.8635C33.5761 36.1513 35.8177 36.1985 36.742 34.8429C37.1638 34.3769 37.0372 33.727 36.936 33.1666C36.8818 32.7817 36.5444 32.5433 36.2865 32.2903C36.7998 31.8449 36.8758 31.1163 36.9252 30.4785C36.8577 29.0237 35.15 28.0844 33.8461 28.5625ZM37.2493 28.5722C37.2602 28.9159 37.2554 29.2609 37.2469 29.6058C37.5711 29.6046 37.8953 29.5961 38.2207 29.5901C38.2026 30.0948 38.2147 30.5983 38.2231 31.103C37.8507 31.1066 37.4795 31.1066 37.1083 31.1054C37.0867 31.5653 37.0867 32.0253 37.0842 32.4864C37.4554 32.4912 37.8266 32.4828 38.1978 32.461C38.2279 33.6265 38.2147 34.7933 38.1905 35.9588C38.7003 35.9685 39.2113 35.983 39.7199 35.9419C39.6765 33.8214 39.7307 31.7009 39.6909 29.5816C40.0573 29.5877 40.4236 29.5913 40.79 29.5925C40.7538 31.6997 40.8117 33.8069 40.7611 35.9128C41.2323 35.9443 41.7047 35.9419 42.1771 35.9528C42.1602 33.8214 42.1566 31.6888 42.1687 29.5586C42.7953 29.67 43.5799 29.3674 44.0607 29.912C44.7344 30.591 44.0776 31.9054 43.1484 31.8861C43.2641 32.6486 43.3509 33.5672 44.0607 34.0259C44.9525 34.688 46.1311 34.4411 47.1205 34.1796C47.1036 34.7751 47.088 35.3718 47.0868 35.9673C47.5664 35.9733 48.0485 35.9867 48.5281 35.9552C48.4787 33.8371 48.5462 31.7166 48.5136 29.5974C50.6455 29.6034 52.7786 29.5792 54.9104 29.607C54.8755 30.0863 54.8803 30.5668 54.8851 31.0473C54.6176 31.1417 54.3549 31.2507 54.0982 31.3717C53.4269 30.8779 52.6629 30.4301 51.806 30.424C51.0094 30.3635 50.1671 30.7387 49.7694 31.4528C49.3343 32.0616 49.315 32.8568 49.4512 33.566C49.7501 34.5875 50.5129 35.4166 51.4108 35.954C51.6084 35.5836 51.8048 35.2133 51.9832 34.8332C51.5192 34.3418 50.8227 33.9001 50.8202 33.1448C50.7516 32.5869 51.1987 32.0882 51.7048 31.9321C52.0314 31.8377 52.3664 32.0349 52.5508 32.2988C52.3592 32.53 52.0555 32.6292 51.8072 32.7854C52.0097 33.1642 52.176 33.56 52.3929 33.9303C53.0702 33.4982 53.8379 33.2429 54.5393 32.8555C54.6706 32.7829 54.8104 32.7309 54.9574 32.6982C54.9659 33.7754 55.0394 34.8526 55.0105 35.9298C55.4985 35.9927 55.9926 35.9685 56.4843 35.9564C56.459 33.8335 56.4904 31.7118 56.4699 29.5889C56.8663 29.5913 57.2628 29.6022 57.6605 29.5961C57.6497 29.256 57.6497 28.9147 57.6641 28.5746C50.86 28.5589 44.0547 28.5625 37.2493 28.5722ZM6.18729 39.5934C7.74793 45.0242 11.1006 49.8872 15.539 53.3512C17.8553 55.1764 20.4885 56.5815 23.2579 57.574C24.563 58.023 25.9067 58.3389 27.2553 58.6294C28.4736 58.8739 29.7161 58.9393 30.9514 59.0458C32.0504 59.0433 33.1555 59.1002 34.2498 58.9635C36.5672 58.8376 38.8461 58.2881 41.0395 57.5413C45.026 56.1422 48.6655 53.7784 51.5963 50.7272C54.4983 47.6929 56.6916 43.9748 57.9341 39.9553C56.2132 39.9347 54.4923 39.9577 52.7713 39.9384C51.888 39.8863 51.0034 39.9033 50.1189 39.8972C45.8202 39.8972 41.5227 39.8536 37.224 39.8343C35.0138 39.8633 32.8061 39.7774 30.5971 39.7592C25.9369 39.6757 21.2766 39.7205 16.6164 39.6636C13.1396 39.6346 9.66287 39.6479 6.18729 39.5934Z" fill="#02164F"/>
<path d="M14.0508 28.5932C14.2014 27.7436 15.1258 27.3829 15.897 27.4592C16.6093 27.4216 17.3998 27.8247 17.5432 28.5787C16.3791 28.5799 15.2149 28.6223 14.0508 28.5932Z" fill="#02164F"/>
<path d="M22.5146 29.6171C23.0038 29.6147 23.4919 29.6123 23.9812 29.6099C23.9631 30.5309 24.0752 31.475 23.8016 32.3706C23.6088 32.9395 23.0111 33.38 22.4037 33.2917C22.041 33.2941 21.8216 32.9564 21.6396 32.6889C21.9457 32.373 22.341 32.1104 22.5061 31.6832C22.7905 31.0284 22.6568 30.2901 22.5146 29.6171Z" fill="#02164F"/>
<path d="M45.5326 29.5845C46.0617 29.5929 46.5895 29.5942 47.1186 29.5881C47.068 30.5842 47.2753 31.6287 46.9029 32.5812C46.5642 33.4938 45.0397 33.4442 44.6963 32.5667C45.1518 32.2762 45.5423 31.8671 45.6266 31.308C45.664 30.7355 45.6977 30.1412 45.5326 29.5845Z" fill="#02164F"/>
<path d="M26.2648 5.7003C30.349 4.82161 34.6404 4.85186 38.6933 5.88306C43.251 7.02077 47.4798 9.40632 50.8638 12.6694C54.1743 15.8816 56.705 19.9458 57.9716 24.3986C54.0272 24.3901 50.0841 24.4095 46.1409 24.4119C32.811 24.4906 19.4788 24.5051 6.14648 24.5075C6.52489 23.5284 6.81533 22.5153 7.24797 21.558C8.99419 17.4344 11.7913 13.7671 15.2861 10.9846C18.4773 8.40417 22.271 6.60199 26.2648 5.7003Z" fill="#F37022"/>
<path d="M6.1875 39.5928C9.66308 39.6472 13.1399 39.6339 16.6166 39.663C21.2769 39.7199 25.9371 39.6751 30.5973 39.7586C32.8063 39.7767 35.0141 39.8627 37.2243 39.8336C41.5229 39.853 45.8204 39.8966 50.1191 39.8966C51.0036 39.9026 51.8882 39.8857 52.7716 39.9377C54.4925 39.9571 56.2134 39.9341 57.9343 39.9547C56.6918 43.9741 54.4985 47.6923 51.5966 50.7266C48.6657 53.7778 45.0262 56.1415 41.0397 57.5407C38.8463 58.2875 36.5675 58.8369 34.25 58.9628C33.1558 59.0996 32.0507 59.0427 30.9516 59.0451C29.7163 58.9386 28.4739 58.8733 27.2555 58.6288C25.9069 58.3383 24.5632 58.0224 23.2581 57.5734C20.4887 56.5809 17.8555 55.1757 15.5393 53.3505C11.1008 49.8866 7.74813 45.0235 6.1875 39.5928Z" fill="#F37022"/>
</svg>
