<svg width="64" height="64" viewBox="0 0 64 64" fill="none" xmlns="http://www.w3.org/2000/svg">
<path d="M36.1813 20.6014L30.9653 24.1454C42.2522 24.4701 49.9206 20.8811 49.9206 20.8811C41.7436 24.8457 33.1068 25.2056 29.4811 25.1533L23.2676 29.377C23.2676 29.377 42.6924 28.8955 55.0561 17.0003C55.0561 17.0003 47.4145 22.6476 36.1813 20.6014Z" fill="#ED1C24"/>
<mask id="mask0_621_2637" style="mask-type:luminance" maskUnits="userSpaceOnUse" x="0" y="17" width="64" height="30">
<path d="M64 17H0V47H64V17Z" fill="white"/>
</mask>
<g mask="url(#mask0_621_2637)">
<path d="M59.55 29.2993H59.0414C59.0414 29.2993 59.2731 29.6409 58.9512 30.1126L54.6438 35.9508L55.1645 30.3923C55.2669 29.6798 55.8304 29.2968 55.8304 29.2968H53.9937V29.2993H49.357L44.4496 35.9508L44.9667 30.4287C44.9691 30.4239 44.9728 30.419 44.974 30.4129C45.0704 29.6908 45.6423 29.3029 45.6423 29.3029H45.0728V29.3005L39.1714 29.2993V29.3029C38.8641 29.2871 24.0748 28.6038 21.8625 32.5357C22.7711 30.712 23.3882 29.3819 23.4247 29.3236H12.6916C12.805 29.3576 13.3989 29.6762 13.1965 30.2342C12.6367 32.1369 11.2745 36.5441 9.75369 39.8085C7.76218 44.0844 3.27305 45.6516 0.191268 46.7445C-0.0904455 46.8442 -0.0465409 47.0509 0.248588 47.0521C7.82803 47.102 14.0526 46.4965 18.76 38.3629C19.8515 36.4773 20.9235 34.4153 21.7637 32.7339C21.7088 32.8591 21.6649 32.988 21.6357 33.1229C20.6674 37.5107 28.8907 37.7915 28.7688 38.8383C28.6614 39.7623 23.7613 39.479 20.5271 38.4176C20.5125 38.4128 20.4991 38.4055 20.4832 38.3994C19.8649 38.1952 19.6027 37.8316 19.6027 37.8316L19.6295 38.0833C19.6283 38.0833 19.6283 38.0821 19.6271 38.0821C19.6283 38.0833 19.6307 38.0991 19.6344 38.121L19.7649 39.2906C19.8942 40.5234 20.0661 42.2607 20.0661 42.2607C20.0661 42.2607 37.1934 44.4188 37.5092 38.8687C37.7482 34.6694 29.4993 34.1636 29.5895 33.2433C29.6737 32.3801 33.6896 32.2719 36.125 32.6317C36.1324 32.6342 36.1372 32.6354 36.1445 32.6366C37.2336 32.8068 37.3897 33.3928 37.3897 33.3928L37.5665 32.9843C37.5665 32.9855 37.569 32.9855 37.569 32.9855C37.5726 32.9661 39.0422 29.6142 39.169 29.3236L38.0641 41.0936C38.0641 41.0948 38.0641 41.0948 38.0641 41.096C37.9678 41.8182 37.3946 42.2072 37.3946 42.2072H38.5507L43.8606 42.2109L48.7765 35.5484L48.2546 41.1033C48.1546 41.8206 47.5875 42.2072 47.5875 42.2072H48.1509V42.2097L54.0559 42.2072L63.5781 29.3005L59.55 29.2993Z" fill="#2744A0"/>
</g>
</svg>
