<svg width="64" height="64" viewBox="0 0 64 64" fill="none" xmlns="http://www.w3.org/2000/svg">
<path d="M32.4543 2.45508C15.9062 2.45508 2.45215 15.9092 2.45215 32.4529C2.45215 49.001 15.9106 62.4551 32.4543 62.4551C49.0024 62.4551 62.4478 48.9966 62.4478 32.4529C62.4478 15.9092 49.0024 2.45508 32.4543 2.45508ZM32.4543 6.20206C46.9777 6.20206 58.7095 17.9339 58.7095 32.4573C58.7095 46.9675 46.9953 58.6949 32.4894 58.7125L45.3256 36.2568H52.6968L57.0048 28.8856H36.7009L32.393 36.2568H41.0132L28.3611 58.3969C15.7879 56.438 6.19037 45.5871 6.19037 32.4573C6.19037 20.8526 13.6887 11.0271 24.1102 7.55186L11.8656 28.8856L7.78119 36.2568H27.9711L32.279 28.8856H16.1736L29.0711 6.41681C30.1798 6.27218 31.3105 6.20206 32.4543 6.20206Z" fill="#174171"/>
</svg>
