<svg width="64" height="64" viewBox="0 0 64 64" fill="none" xmlns="http://www.w3.org/2000/svg">
<path d="M44.9524 2.56627H17.7636V47.2943H44.9524V2.56627ZM17.4795 1.99998H45.5207V47.8594H17.1953V1.99998" fill="#00AE4D"/>
<path fill-rule="evenodd" clip-rule="evenodd" d="M31.5689 39.1787H31.3131L29.7945 36.6697C29.3194 35.8912 29.0801 35.2558 29.0801 34.7634C29.0801 34.2405 29.284 33.8266 29.6908 33.5218C30.0928 33.2193 30.6517 33.0669 31.3614 33.0669C32.0912 33.0669 32.6737 33.2169 33.1087 33.5159C33.539 33.8114 33.7548 34.2147 33.7548 34.7258C33.7548 35.0494 33.6628 35.4047 33.4789 35.7974C33.295 36.1902 32.6619 37.3169 31.5689 39.1787Z" fill="#00AE4D"/>
<path fill-rule="evenodd" clip-rule="evenodd" d="M31.5689 40.4184H31.3131L29.7945 42.9274C29.3194 43.7059 29.0801 44.3414 29.0801 44.8338C29.0801 45.3555 29.284 45.7705 29.6908 46.0754C30.0928 46.3779 30.6517 46.5303 31.3614 46.5303C32.0912 46.5303 32.6737 46.3802 33.1087 46.0812C33.539 45.7858 33.7548 45.3813 33.7548 44.8713C33.7548 44.5477 33.6628 44.1925 33.4789 43.7997C33.295 43.4069 32.6619 42.2802 31.5689 40.4184Z" fill="#00AE4D"/>
<path fill-rule="evenodd" clip-rule="evenodd" d="M31.7769 39.9869L31.6484 40.2061C32.5857 41.2976 33.8661 43.4514 35.0168 44.1478C35.4354 44.4022 35.8692 44.428 36.3184 44.2264C36.7629 44.0282 37.1272 43.7363 37.4833 43.1278C37.8511 42.5017 38.0244 41.9296 38.0044 41.4125C37.9844 40.899 37.7686 40.518 37.3595 40.2706C37.1001 40.1135 36.77 40.0197 36.3644 39.9869C35.9577 39.954 33.8166 39.9517 31.7769 39.9869Z" fill="#00AE4D"/>
<path fill-rule="evenodd" clip-rule="evenodd" d="M31.7769 39.5741L31.6484 39.3549C32.5857 38.2633 33.8661 36.1096 35.0168 35.4132C35.4354 35.1588 35.8692 35.133 36.3184 35.3346C36.7629 35.5328 37.1272 35.8247 37.4833 36.4332C37.8511 37.0593 38.0244 37.6314 38.0044 38.1484C37.9844 38.662 37.7686 39.043 37.3595 39.2904C37.1001 39.4475 36.77 39.5413 36.3644 39.5741C35.9577 39.6069 33.8166 39.6093 31.7769 39.5741Z" fill="#00AE4D"/>
<path fill-rule="evenodd" clip-rule="evenodd" d="M31.022 39.9869L31.1505 40.2061C30.2132 41.2976 28.9328 43.4514 27.7821 44.1478C27.3647 44.4022 26.9309 44.428 26.4817 44.2264C26.0372 44.0282 25.6729 43.7363 25.3156 43.1278C24.9478 42.5017 24.7745 41.9296 24.7945 41.4125C24.8146 40.899 25.0303 40.518 25.4394 40.2706C25.6988 40.1135 26.0289 40.0197 26.4357 39.9869C26.8424 39.954 28.9823 39.9517 31.022 39.9869Z" fill="#00AE4D"/>
<path fill-rule="evenodd" clip-rule="evenodd" d="M31.022 39.5741L31.1505 39.3549C30.2132 38.2633 28.9328 36.1096 27.7821 35.4132C27.3647 35.1588 26.9309 35.133 26.4817 35.3346C26.0372 35.5328 25.6729 35.8247 25.3156 36.4332C24.9478 37.0593 24.7745 37.6314 24.7945 38.1484C24.8146 38.662 25.0303 39.043 25.4394 39.2904C25.6988 39.4475 26.0289 39.5413 26.4357 39.5741C26.8424 39.6069 28.9823 39.6093 31.022 39.5741Z" fill="#00AE4D"/>
<path fill-rule="evenodd" clip-rule="evenodd" d="M40.0558 31.6182H39.8967L38.9523 30.0577C38.6575 29.5746 38.5078 29.1795 38.5078 28.8735C38.5078 28.5488 38.6351 28.2908 38.8874 28.1009C39.1386 27.9133 39.4852 27.8183 39.9273 27.8183C40.3812 27.8183 40.7432 27.9121 41.0132 28.0974C41.2808 28.2814 41.4152 28.5335 41.4152 28.8501C41.4152 29.0517 41.3574 29.2733 41.2443 29.5172C41.1299 29.7599 40.7349 30.4598 40.0558 31.6182Z" fill="#00AE4D"/>
<path fill-rule="evenodd" clip-rule="evenodd" d="M40.0558 32.3877H39.8967L38.9523 33.9482C38.6575 34.4312 38.5078 34.8263 38.5078 35.1323C38.5078 35.4571 38.6351 35.715 38.8874 35.9049C39.1386 36.0925 39.4852 36.1875 39.9273 36.1875C40.3812 36.1875 40.7432 36.0949 41.0132 35.9085C41.2808 35.7244 41.4152 35.4723 41.4152 35.1558C41.4152 34.9541 41.3574 34.7337 41.2443 34.4887C41.1299 34.246 40.7349 33.546 40.0558 32.3877Z" fill="#00AE4D"/>
<path fill-rule="evenodd" clip-rule="evenodd" d="M40.1837 32.118L40.1035 32.254C40.6859 32.9328 41.4829 34.2717 42.1974 34.7044C42.4568 34.8615 42.7268 34.8779 43.0062 34.7536C43.2821 34.6293 43.5096 34.4488 43.7313 34.0701C43.96 33.6808 44.0673 33.3256 44.0543 33.0043C44.0425 32.6854 43.9081 32.4486 43.6546 32.2939C43.4931 32.1965 43.288 32.1391 43.0345 32.118C42.7822 32.0981 41.4523 32.0969 40.1837 32.118Z" fill="#00AE4D"/>
<path fill-rule="evenodd" clip-rule="evenodd" d="M40.1837 31.8625L40.1035 31.7265C40.6859 31.0477 41.4829 29.7088 42.1974 29.2762C42.4568 29.1191 42.7268 29.1027 43.0062 29.2269C43.2821 29.3512 43.5096 29.5318 43.7313 29.9105C43.96 30.2985 44.0673 30.6549 44.0543 30.9762C44.0425 31.2951 43.9081 31.5319 43.6546 31.6867C43.4931 31.784 43.288 31.8414 43.0345 31.8625C42.7822 31.8825 41.4523 31.8836 40.1837 31.8625Z" fill="#00AE4D"/>
<path fill-rule="evenodd" clip-rule="evenodd" d="M39.7147 32.118L39.7937 32.254C39.2112 32.9328 38.4142 34.2717 37.6998 34.7044C37.4416 34.8615 37.1704 34.8779 36.891 34.7536C36.6151 34.6293 36.3875 34.4488 36.1659 34.0701C35.9372 33.6808 35.8299 33.3256 35.8428 33.0043C35.8546 32.6854 35.989 32.4486 36.2425 32.2939C36.404 32.1965 36.6092 32.1391 36.8627 32.118C37.1162 32.0981 38.4449 32.0969 39.7147 32.118Z" fill="#00AE4D"/>
<path fill-rule="evenodd" clip-rule="evenodd" d="M39.7147 31.8625L39.7937 31.7265C39.2112 31.0477 38.4142 29.7088 37.6998 29.2762C37.4416 29.1191 37.1704 29.1027 36.891 29.2269C36.6151 29.3512 36.3875 29.5318 36.1659 29.9105C35.9372 30.2985 35.8299 30.6549 35.8428 30.9762C35.8546 31.2951 35.989 31.5319 36.2425 31.6867C36.404 31.784 36.6092 31.8414 36.8627 31.8625C37.1162 31.8825 38.4449 31.8836 39.7147 31.8625Z" fill="#00AE4D"/>
<path fill-rule="evenodd" clip-rule="evenodd" d="M22.9718 31.6182H22.8127L21.8683 30.0577C21.5724 29.5746 21.4238 29.1795 21.4238 28.8735C21.4238 28.5488 21.5512 28.2908 21.8035 28.1009C22.0546 27.9133 22.4012 27.8183 22.8433 27.8183C23.2973 27.8183 23.6592 27.9121 23.9292 28.0974C24.1968 28.2814 24.3312 28.5335 24.3312 28.8501C24.3312 29.0517 24.2735 29.2733 24.1603 29.5172C24.0459 29.7599 23.6509 30.4598 22.9718 31.6182Z" fill="#00AE4D"/>
<path fill-rule="evenodd" clip-rule="evenodd" d="M22.9718 32.3877H22.8127L21.8683 33.9482C21.5724 34.4312 21.4238 34.8263 21.4238 35.1323C21.4238 35.4571 21.5512 35.715 21.8035 35.9049C22.0546 36.0925 22.4012 36.1875 22.8433 36.1875C23.2973 36.1875 23.6592 36.0949 23.9292 35.9085C24.1968 35.7244 24.3312 35.4723 24.3312 35.1558C24.3312 34.9541 24.2735 34.7337 24.1603 34.4887C24.0459 34.246 23.6509 33.546 22.9718 32.3877Z" fill="#00AE4D"/>
<path fill-rule="evenodd" clip-rule="evenodd" d="M23.1036 32.118L23.0234 32.254C23.6059 32.9328 24.4029 34.2717 25.1173 34.7044C25.3767 34.8615 25.6467 34.8779 25.9261 34.7536C26.202 34.6293 26.4296 34.4488 26.6512 34.0701C26.8799 33.6808 26.9872 33.3256 26.9743 33.0043C26.9625 32.6854 26.8281 32.4486 26.5746 32.2939C26.413 32.1965 26.2079 32.1391 25.9544 32.118C25.7021 32.0981 24.3722 32.0969 23.1036 32.118Z" fill="#00AE4D"/>
<path fill-rule="evenodd" clip-rule="evenodd" d="M23.1036 31.8625L23.0234 31.7265C23.6059 31.0477 24.4029 29.7088 25.1173 29.2762C25.3767 29.1191 25.6467 29.1027 25.9261 29.2269C26.202 29.3512 26.4296 29.5318 26.6512 29.9105C26.8799 30.2985 26.9872 30.6549 26.9743 30.9762C26.9625 31.2951 26.8281 31.5319 26.5746 31.6867C26.413 31.784 26.2079 31.8414 25.9544 31.8625C25.7021 31.8825 24.3722 31.8836 23.1036 31.8625Z" fill="#00AE4D"/>
<path fill-rule="evenodd" clip-rule="evenodd" d="M22.6334 32.118L22.7136 32.254C22.1312 32.9328 21.3342 34.2717 20.6197 34.7044C20.3603 34.8615 20.0903 34.8779 19.8109 34.7536C19.535 34.6293 19.3075 34.4488 19.0858 34.0701C18.8571 33.6808 18.7498 33.3256 18.7628 33.0043C18.7746 32.6854 18.909 32.4486 19.1624 32.2939C19.324 32.1965 19.5291 32.1391 19.7826 32.118C20.0349 32.0981 21.3648 32.0969 22.6334 32.118Z" fill="#00AE4D"/>
<path fill-rule="evenodd" clip-rule="evenodd" d="M22.6334 31.8625L22.7136 31.7265C22.1312 31.0477 21.3342 29.7088 20.6197 29.2762C20.3603 29.1191 20.0903 29.1027 19.8109 29.2269C19.535 29.3512 19.3075 29.5318 19.0858 29.9105C18.8571 30.2985 18.7498 30.6549 18.7628 30.9762C18.7746 31.2951 18.909 31.5319 19.1624 31.6867C19.324 31.784 19.5291 31.8414 19.7826 31.8625C20.0349 31.8825 21.3648 31.8836 22.6334 31.8625Z" fill="#00AE4D"/>
<path fill-rule="evenodd" clip-rule="evenodd" d="M31.3828 26.2552C31.1458 26.2693 30.8063 26.4522 30.7167 26.56C30.0741 27.335 28.8515 27.9904 28.0074 27.4511C27.8364 27.3421 27.6207 27.1674 27.5275 26.9821C27.3129 26.56 27.3424 26.2294 27.6136 25.8648C27.7645 25.6631 27.8435 25.5611 27.8423 25.5553C27.8376 25.5166 27.6914 25.3302 27.4568 24.996L27.3507 24.751C27.1502 23.731 28.6145 22.8997 29.4457 23.3242C29.6733 23.4402 29.9598 23.5633 30.1661 23.7392C30.6236 24.1237 30.9619 24.5998 31.5007 24.6384C31.9924 24.6713 32.6243 23.6067 33.3859 23.2808C34.2832 22.8997 35.6414 23.6243 35.4622 24.7076L35.3549 24.9538C35.1214 25.288 34.9752 25.4744 34.9705 25.5131C34.9705 25.5189 35.0471 25.6209 35.1992 25.8226C35.4692 26.186 35.4987 26.5178 35.2853 26.9399C35.191 27.1252 34.9752 27.2998 34.8066 27.4089C33.9601 27.9494 32.6774 27.3995 32.0525 26.5812C31.8827 26.3596 31.6387 26.24 31.3828 26.2552Z" fill="#00AE4D"/>
<path fill-rule="evenodd" clip-rule="evenodd" d="M31.3828 21.3543C31.1458 21.3684 30.8063 21.5513 30.7167 21.6592C30.0741 22.4341 28.8515 23.0907 28.0074 22.5502C27.8364 22.4412 27.6207 22.2665 27.5275 22.0812C27.3129 21.6592 27.3424 21.3285 27.6136 20.9639C27.7645 20.7623 27.8435 20.6603 27.8423 20.6544C27.8376 20.6157 27.6914 20.4293 27.4568 20.0951L27.3507 19.8489C27.1502 18.8301 28.6145 17.9988 29.4457 18.4233C29.6733 18.5393 29.9598 18.6624 30.1661 18.8383C30.6236 19.2229 30.9619 19.7 31.5007 19.7376C31.9924 19.7704 32.6243 18.7058 33.3859 18.3799C34.2832 17.9988 35.6414 18.7234 35.4622 19.8067L35.3549 20.0529C35.1214 20.3871 34.9752 20.5735 34.9705 20.6122C34.9705 20.618 35.0471 20.72 35.1992 20.9217C35.4692 21.2852 35.4987 21.617 35.2853 22.039C35.191 22.2243 34.9752 22.399 34.8066 22.508C33.9601 23.0485 32.6774 22.4986 32.0525 21.6803C31.8827 21.4587 31.6387 21.3391 31.3828 21.3543Z" fill="#00AE4D"/>
<path fill-rule="evenodd" clip-rule="evenodd" d="M31.3828 16.3304C31.1458 16.3445 30.8063 16.5274 30.7167 16.6352C30.0741 17.4102 28.8515 18.0656 28.0074 17.5263C27.8364 17.4173 27.6207 17.2426 27.5275 17.0573C27.3129 16.6352 27.3424 16.3046 27.6136 15.94C27.7645 15.7383 27.8435 15.6363 27.8423 15.6305C27.8376 15.5918 27.6914 15.4054 27.4568 15.0712L27.3507 14.825C27.1502 13.8062 28.6145 12.9749 29.4457 13.3982C29.6733 13.5154 29.9598 13.6385 30.1661 13.8144C30.6236 14.1989 30.9619 14.6749 31.5007 14.7125C31.9924 14.7453 32.6243 13.6819 33.3859 13.356C34.2832 12.9749 35.6414 13.6995 35.4622 14.7828L35.3549 15.029C35.1214 15.3632 34.9752 15.5496 34.9705 15.5883C34.9705 15.5941 35.0471 15.6961 35.1992 15.8978C35.4692 16.2612 35.4987 16.593 35.2853 17.0151C35.191 17.2004 34.9752 17.375 34.8066 17.4841C33.9601 18.0234 32.6774 17.4747 32.0525 16.6563C31.8827 16.4348 31.6387 16.3152 31.3828 16.3304Z" fill="#00AE4D"/>
<path fill-rule="evenodd" clip-rule="evenodd" d="M31.3828 11.3675C31.1458 11.3816 30.8063 11.5645 30.7167 11.6724C30.0741 12.4473 28.8515 13.1027 28.0074 12.5634C27.8364 12.4544 27.6207 12.2797 27.5275 12.0944C27.3129 11.6724 27.3424 11.3417 27.6136 10.9783C27.7645 10.7754 27.8435 10.6734 27.8423 10.6676C27.8376 10.6289 27.6914 10.4425 27.4568 10.1083L27.3507 9.86213C27.1502 8.84329 28.6145 8.01204 29.4457 8.43646C29.6733 8.55253 29.9598 8.67564 30.1661 8.8515C30.6236 9.23605 30.9619 9.71323 31.5007 9.74958C31.9924 9.7824 32.6243 8.71901 33.3859 8.39308C34.2832 8.01204 35.6414 8.7366 35.4622 9.81992L35.3549 10.0661C35.1214 10.4003 34.9752 10.5867 34.9705 10.6254C34.9705 10.6312 35.0471 10.7332 35.1992 10.9349C35.4692 11.2983 35.4987 11.6301 35.2853 12.0522C35.191 12.2375 34.9752 12.4122 34.8066 12.5212C33.9601 13.0605 32.6774 12.5118 32.0525 11.6935C31.8827 11.4719 31.6387 11.3523 31.3828 11.3675Z" fill="#00AE4D"/>
<path fill-rule="evenodd" clip-rule="evenodd" d="M31.3872 6.85135C31.2151 6.86073 30.9675 6.99438 30.9027 7.07411C30.4334 7.63804 29.5421 8.11639 28.9255 7.72363C28.8017 7.64391 28.6461 7.51611 28.5777 7.38128C28.4209 7.07411 28.4433 6.83259 28.6402 6.56762C28.7498 6.4199 28.8064 6.34486 28.8064 6.34134C28.8017 6.3132 28.6956 6.1772 28.527 5.93334L28.4492 5.75396C28.303 5.01181 29.3688 4.40567 29.9748 4.71519C30.141 4.7996 30.3497 4.88988 30.5018 5.01768C30.8343 5.29671 31.0807 5.64492 31.4733 5.67189C31.8317 5.69651 32.2927 4.92154 32.8492 4.68353C33.5012 4.40567 34.4915 4.93443 34.3606 5.72347L34.2828 5.90286C34.1119 6.14672 34.0058 6.28272 34.0022 6.30969C34.0011 6.31438 34.0588 6.38941 34.1685 6.53597C34.3665 6.80093 34.3878 7.04245 34.2321 7.3508C34.1638 7.48446 34.0058 7.61342 33.882 7.69198C33.2654 8.08591 32.3304 7.68611 31.8753 7.08935C31.7527 6.92755 31.5747 6.8408 31.3872 6.85135Z" fill="#00AE4D"/>
<path fill-rule="evenodd" clip-rule="evenodd" d="M31.3828 31.2787C31.1458 31.2927 30.8063 31.4756 30.7167 31.5835C30.0741 32.3585 28.8515 33.0138 28.0074 32.4745C27.8364 32.3655 27.6207 32.1908 27.5275 32.0056C27.3129 31.5835 27.3424 31.2517 27.6136 30.8882C27.7645 30.6866 27.8435 30.5846 27.8423 30.5787C27.8376 30.54 27.6914 30.3536 27.4568 30.0195L27.3507 29.7733C27.1502 28.7544 28.6145 27.9232 29.4457 28.3464C29.6733 28.4637 29.9598 28.5868 30.1661 28.7626C30.6236 29.1472 30.9619 29.6244 31.5007 29.6607C31.9924 29.6935 32.6243 28.6301 33.3859 28.3042C34.2832 27.9232 35.6414 28.6477 35.4622 29.7311L35.3549 29.9773C35.1214 30.3114 34.9752 30.4978 34.9705 30.5365C34.9705 30.5424 35.0471 30.6444 35.1992 30.846C35.4692 31.2095 35.4987 31.5413 35.2853 31.9634C35.191 32.1486 34.9752 32.3233 34.8066 32.4323C33.9601 32.9728 32.6774 32.4229 32.0525 31.6046C31.8827 31.383 31.6387 31.2634 31.3828 31.2787Z" fill="#00AE4D"/>
<path d="M31.4121 3.63446L31.5 33.0459" stroke="#00AE4D" stroke-width="0.661248" stroke-miterlimit="2.613"/>
<path fill-rule="evenodd" clip-rule="evenodd" d="M46.0215 61.8086V50.5369H49.9016L53.3985 55.583V50.5369H56.9991V61.8086L53.4456 61.7617L50.2258 57.3006L50.1315 61.8086" fill="#00AE4D"/>
<path d="M40.4004 61.8086H44.2379V50.5374H40.4004V61.8086Z" fill="#00AE4D"/>
<path fill-rule="evenodd" clip-rule="evenodd" d="M16.3125 50.5384H20.4107V56.1437C20.4107 56.8132 20.0275 58.7793 21.6144 58.8262C22.8029 58.8614 22.6909 56.9773 22.6909 56.1437V50.5384H26.7478V56.9105C26.7478 58.6691 26.3245 59.9541 25.4815 60.7736C24.635 61.5908 23.3004 62 21.4765 62C19.6644 62 18.351 61.5955 17.5363 60.7901C16.7204 59.9811 16.3125 58.6902 16.3125 56.9105" fill="#00AE4D"/>
<path fill-rule="evenodd" clip-rule="evenodd" d="M15.7481 58.9109V61.8232H7V50.5387H11.0298V58.9109" fill="#00AE4D"/>
<path fill-rule="evenodd" clip-rule="evenodd" d="M32.7538 53.5749V55.2268H33.9399C34.8088 55.2268 35.0435 54.7051 35.0435 54.4249C35.0435 53.7542 34.5282 53.5749 34.1828 53.5749H32.7538ZM28.8184 61.8076V50.5383H34.4528C35.8275 50.5383 36.8249 50.8103 37.4474 51.3519C39.269 52.9417 39.546 55.3745 37.7952 57.1519C37.1444 57.8143 36.3309 58.1461 35.5551 58.1461H32.7385V61.8076" fill="#00AE4D"/>
</svg>
