<svg width="64" height="64" viewBox="0 0 64 64" fill="none" xmlns="http://www.w3.org/2000/svg">
<rect width="64" height="64" fill="#7C074B"/>
<path d="M32.0003 12C29.9237 12 27.8938 12.6158 26.1672 13.7694C24.4406 14.9231 23.0949 16.5629 22.3002 18.4814C21.5055 20.3999 21.2976 22.5109 21.7027 24.5476C22.1078 26.5843 23.1078 28.455 24.5762 29.9234C26.0445 31.3917 27.9153 32.3917 29.952 32.7968C31.9886 33.2019 34.0997 32.994 36.0182 32.1994C37.9367 31.4047 39.5764 30.059 40.7301 28.3324C41.8838 26.6058 42.4995 24.5758 42.4995 22.4993C42.4995 19.7147 41.3934 17.0442 39.4244 15.0752C37.4554 13.1062 34.7848 12 32.0003 12ZM22.5156 22.4993C22.5158 20.6231 23.0723 18.789 24.1149 17.2291C25.1575 15.6692 26.6392 14.4535 28.3727 13.7357C30.1062 13.0179 32.0136 12.8303 33.8538 13.1966C35.6939 13.5629 37.3841 14.4666 38.7106 15.7935C40.0371 17.1203 40.9404 18.8108 41.3061 20.651C41.6719 22.4912 41.4837 24.3986 40.7655 26.1319C40.0472 27.8652 38.8311 29.3466 37.2709 30.3887C35.7107 31.4309 33.8765 31.9869 32.0003 31.9866C29.4844 31.9862 27.0718 30.9864 25.2931 29.2072C23.5144 27.428 22.5153 25.0151 22.5156 22.4993Z" fill="white"/>
<path d="M36.9651 16.6539C36.9193 16.6538 36.8752 16.6716 36.8422 16.7035L31.992 21.55L27.1433 16.7056C27.1271 16.689 27.1079 16.6758 27.0866 16.6668C27.0653 16.6577 27.0424 16.653 27.0193 16.6528H26.3387C26.2924 16.6528 26.248 16.6712 26.2152 16.704C26.1825 16.7367 26.1641 16.7812 26.1641 16.8275V28.1709C26.1641 28.2172 26.1825 28.2617 26.2152 28.2944C26.248 28.3272 26.2924 28.3456 26.3387 28.3456H26.9855C27.0319 28.3456 27.0763 28.3272 27.109 28.2944C27.1418 28.2617 27.1602 28.2172 27.1602 28.1709V18.1227L31.2908 22.2523L30.0699 23.4726C30.893 23.4726 31.4538 23.4921 31.9925 22.954C32.5306 23.4932 33.0915 23.4726 33.914 23.4726L32.6926 22.2523L36.8243 18.118V28.1741C36.8243 28.197 36.8288 28.2197 36.8376 28.2409C36.8463 28.2621 36.8592 28.2814 36.8754 28.2976C36.8916 28.3138 36.9109 28.3266 36.9321 28.3354C36.9533 28.3442 36.976 28.3487 36.9989 28.3487H37.6605C37.7068 28.3487 37.7513 28.3303 37.784 28.2976C37.8168 28.2648 37.8352 28.2204 37.8352 28.1741V16.8306C37.8352 16.7843 37.8168 16.7399 37.784 16.7071C37.7513 16.6744 37.7068 16.656 37.6605 16.656L36.9651 16.6539ZM31.3356 24.2334C31.3356 24.3653 31.3747 24.4943 31.448 24.6039C31.5213 24.7136 31.6254 24.7991 31.7473 24.8495C31.8692 24.9 32.0032 24.9132 32.1326 24.8875C32.262 24.8618 32.3808 24.7982 32.4741 24.705C32.5673 24.6117 32.6309 24.4929 32.6566 24.3635C32.6823 24.2342 32.6691 24.1001 32.6186 23.9782C32.5682 23.8564 32.4827 23.7522 32.373 23.6789C32.2633 23.6056 32.1344 23.5665 32.0025 23.5665C31.9149 23.5665 31.8282 23.5838 31.7473 23.6173C31.6664 23.6508 31.5929 23.6999 31.5309 23.7619C31.469 23.8238 31.4199 23.8973 31.3864 23.9782C31.3529 24.0591 31.3356 24.1458 31.3356 24.2334Z" fill="white"/>
<path d="M10.8609 36.7843H10.3596C10.3429 36.7842 10.3264 36.7883 10.3116 36.7961C10.2968 36.8039 10.2841 36.8152 10.2747 36.8291L7.48209 40.9444L4.68949 36.8291C4.68008 36.8152 4.66742 36.8039 4.65261 36.7961C4.6378 36.7883 4.62129 36.7842 4.60454 36.7843H4.10333C4.07619 36.7843 4.05015 36.795 4.03096 36.8142C4.01176 36.8334 4.00098 36.8595 4.00098 36.8866V44.0557C4.00098 44.0828 4.01176 44.1089 4.03096 44.128C4.05015 44.1472 4.07619 44.158 4.10333 44.158H4.61564C4.64278 44.158 4.66882 44.1472 4.68801 44.128C4.70721 44.1089 4.71799 44.0828 4.71799 44.0557V38.1587L7.36813 42.0144C7.37784 42.0278 7.39061 42.0388 7.40537 42.0464C7.42013 42.054 7.43647 42.0581 7.45308 42.0582H7.49423C7.51084 42.0581 7.52718 42.054 7.54194 42.0464C7.5567 42.0388 7.56945 42.0278 7.57917 42.0144L10.2262 38.1587V44.0546C10.2262 44.0818 10.2369 44.1078 10.2561 44.127C10.2753 44.1462 10.3014 44.157 10.3285 44.157H10.8609C10.888 44.157 10.914 44.1462 10.9332 44.127C10.9524 44.1078 10.9632 44.0818 10.9632 44.0546V36.8845C10.9629 36.8575 10.952 36.8318 10.9329 36.8128C10.9137 36.7938 10.8878 36.7832 10.8609 36.7832" fill="white"/>
<path d="M18.1958 41.464H14.7353L16.4706 37.6653L18.1958 41.464ZM16.8304 36.7916C16.8223 36.7737 16.8092 36.7586 16.7928 36.7481C16.7763 36.7375 16.7571 36.7319 16.7376 36.7319H16.2258C16.2062 36.7319 16.187 36.7375 16.1706 36.7481C16.1541 36.7586 16.141 36.7737 16.1329 36.7916L12.7943 44.0113C12.7873 44.027 12.7842 44.0442 12.7854 44.0614C12.7866 44.0786 12.792 44.0953 12.8011 44.1099C12.8104 44.1243 12.8231 44.1362 12.8381 44.1444C12.8532 44.1526 12.87 44.1569 12.8871 44.1569H13.4401C13.4598 44.1569 13.4791 44.1511 13.4957 44.1404C13.5123 44.1296 13.5254 44.1143 13.5334 44.0962L14.4172 42.1494H18.5124L19.3962 44.0962C19.4045 44.114 19.4177 44.1291 19.4342 44.1399C19.4507 44.1506 19.4699 44.1565 19.4895 44.1569H20.0725C20.0897 44.157 20.1066 44.1528 20.1216 44.1446C20.1367 44.1363 20.1494 44.1244 20.1585 44.1099C20.1676 44.0953 20.173 44.0786 20.1742 44.0614C20.1754 44.0442 20.1724 44.027 20.1654 44.0113L16.8304 36.7916Z" fill="white"/>
<path d="M26.8444 43.4617H22.738V36.8846C22.738 36.8574 22.7273 36.8314 22.7081 36.8122C22.6889 36.793 22.6628 36.7822 22.6357 36.7822H22.1033C22.0762 36.7822 22.0502 36.793 22.031 36.8122C22.0118 36.8314 22.001 36.8574 22.001 36.8846V44.0558C22.001 44.0829 22.0118 44.1089 22.031 44.1281C22.0502 44.1473 22.0762 44.1581 22.1033 44.1581H26.8444C26.8715 44.1581 26.8975 44.1473 26.9167 44.1281C26.9359 44.1089 26.9467 44.0829 26.9467 44.0558V43.564C26.9467 43.5369 26.9359 43.5108 26.9167 43.4917C26.8975 43.4725 26.8715 43.4617 26.8444 43.4617Z" fill="white"/>
<path d="M33.7233 41.464H30.2627L31.998 37.6653L33.7233 41.464ZM32.3568 36.7916C32.3486 36.7738 32.3355 36.7587 32.3191 36.7482C32.3026 36.7376 32.2835 36.732 32.2639 36.7319H31.7516C31.7321 36.732 31.7131 36.7376 31.6967 36.7482C31.6804 36.7588 31.6674 36.7738 31.6593 36.7916L28.3206 44.0113C28.3136 44.027 28.3106 44.0442 28.3118 44.0614C28.313 44.0786 28.3184 44.0953 28.3275 44.1099C28.3368 44.1243 28.3495 44.1362 28.3645 44.1444C28.3795 44.1526 28.3964 44.1569 28.4135 44.1569H28.9664C28.9861 44.1565 29.0053 44.1506 29.0218 44.1399C29.0383 44.1291 29.0514 44.114 29.0598 44.0962L29.9435 42.1494H34.0409L34.9246 44.0962C34.933 44.114 34.9462 44.1291 34.9627 44.1399C34.9792 44.1506 34.9983 44.1565 35.018 44.1569H35.601C35.6183 44.157 35.6352 44.1528 35.6504 44.1447C35.6656 44.1365 35.6785 44.1246 35.6878 44.1101C35.6972 44.0957 35.7028 44.0791 35.704 44.0619C35.7052 44.0447 35.7021 44.0275 35.6949 44.0118L32.3568 36.7916Z" fill="white"/>
<path d="M40.5296 40.0917H38.2667V37.4806H40.5813C41.6396 37.4806 42.2696 37.9359 42.2696 38.6999V38.7204C42.2696 39.5646 41.6027 40.0922 40.5285 40.0922M40.7649 43.462H38.2656V40.7886H40.5902C41.9314 40.7886 42.6695 41.2471 42.6695 42.0792V42.0997C42.6695 42.9397 41.9388 43.462 40.7649 43.462ZM41.9847 40.3486C42.301 40.1989 42.567 39.9604 42.7502 39.6623C42.9334 39.3641 43.026 39.0191 43.0167 38.6693V38.6487C43.0167 37.5165 42.0638 36.7847 40.5897 36.7847H37.6278C37.6006 36.7847 37.5746 36.7955 37.5554 36.8146C37.5362 36.8338 37.5254 36.8599 37.5254 36.887V44.0556C37.5254 44.0827 37.5362 44.1087 37.5554 44.1279C37.5746 44.1471 37.6006 44.1579 37.6278 44.1579H40.7406C42.3646 44.1579 43.4129 43.3502 43.4129 42.1003V42.0797C43.4129 41.2593 42.9196 40.6647 41.981 40.3486" fill="white"/>
<path d="M50.1561 41.464H46.6955L48.4308 37.6653L50.1561 41.464ZM48.7906 36.7916C48.7825 36.7738 48.7694 36.7587 48.7529 36.7482C48.7365 36.7376 48.7173 36.732 48.6978 36.7319H48.186C48.1665 36.732 48.1473 36.7376 48.1308 36.7482C48.1144 36.7587 48.1013 36.7738 48.0931 36.7916L44.7545 44.0123C44.7473 44.0279 44.7442 44.0449 44.7454 44.062C44.7465 44.0791 44.7519 44.0956 44.7611 44.11C44.7703 44.1244 44.783 44.1363 44.7979 44.1446C44.8129 44.1529 44.8297 44.1573 44.8468 44.1574H45.3997C45.4195 44.1571 45.4388 44.1513 45.4554 44.1405C45.472 44.1298 45.4852 44.1146 45.4936 44.0967L46.3774 42.1499H50.4748L51.3585 44.0967C51.3668 44.1145 51.38 44.1297 51.3965 44.1404C51.413 44.1511 51.4322 44.157 51.4519 44.1574H52.0349C52.052 44.1575 52.069 44.1532 52.0841 44.145C52.0992 44.1368 52.112 44.1249 52.1213 44.1104C52.1306 44.096 52.1361 44.0794 52.1374 44.0623C52.1386 44.0451 52.1354 44.0279 52.1282 44.0123L48.7906 36.7916Z" fill="white"/>
<path d="M54.6967 37.4806H57.0413C58.2664 37.4806 58.9971 38.0277 58.9971 38.9447V38.9652C58.9971 39.8986 58.2168 40.5016 57.0102 40.5016H54.6956V37.4806H54.6967ZM59.979 43.9928L57.7193 41.0677C58.9855 40.8393 59.7342 40.0563 59.7342 38.9452V38.9246C59.7342 37.6452 58.6642 36.7847 57.0714 36.7847H54.0604C54.0332 36.7847 54.0072 36.7955 53.988 36.8146C53.9688 36.8338 53.958 36.8599 53.958 36.887V44.0556C53.958 44.0827 53.9688 44.1087 53.988 44.1279C54.0072 44.1471 54.0332 44.1579 54.0604 44.1579H54.5927C54.6199 44.1579 54.6459 44.1471 54.6651 44.1279C54.6843 44.1087 54.6951 44.0827 54.6951 44.0556V41.1891H56.8878L59.1406 44.1189C59.1504 44.1312 59.1627 44.1411 59.1767 44.1481C59.1908 44.155 59.2062 44.1587 59.2219 44.159H59.8978C59.9165 44.1579 59.9347 44.1519 59.9503 44.1415C59.966 44.1311 59.9785 44.1167 59.9868 44.0998C59.995 44.0829 59.9985 44.0642 59.9971 44.0454C59.9956 44.0267 59.9892 44.0087 59.9785 43.9933" fill="white"/>
<path d="M7.39286 48.6233H5.88023C5.86623 48.6233 5.85281 48.6289 5.84292 48.6387C5.83303 48.6486 5.82748 48.6621 5.82748 48.6761V48.9314C5.82748 48.9454 5.83303 48.9588 5.84292 48.9687C5.85281 48.9786 5.86623 48.9842 5.88023 48.9842H7.07525V49.9798C6.7508 50.2344 6.35124 50.3747 5.9388 50.3786C5.72656 50.3852 5.51531 50.3468 5.31896 50.2659C5.1226 50.1851 4.94557 50.0636 4.79949 49.9095C4.6534 49.7554 4.54156 49.5721 4.47131 49.3717C4.40106 49.1713 4.37399 48.9583 4.39187 48.7468V48.7362C4.3816 48.5319 4.41213 48.3276 4.4817 48.1353C4.55126 47.943 4.65847 47.7664 4.79704 47.6159C4.9356 47.4655 5.10275 47.3442 5.28873 47.259C5.47472 47.1739 5.67579 47.1267 5.88023 47.1202C6.31053 47.1063 6.72892 47.2627 7.04465 47.5554C7.05488 47.5642 7.0681 47.5688 7.08158 47.5681C7.09517 47.5671 7.10785 47.5608 7.11694 47.5507L7.29843 47.3428C7.30748 47.3323 7.31202 47.3187 7.31109 47.3048C7.30979 47.2911 7.30316 47.2784 7.29262 47.2695C6.9086 46.9302 6.40925 46.7508 5.89712 46.7682C5.64218 46.7718 5.39049 46.826 5.15672 46.9278C4.92295 47.0295 4.71178 47.1768 4.53549 47.361C4.35921 47.5452 4.22134 47.7626 4.12992 48.0006C4.0385 48.2386 3.99537 48.4924 4.00303 48.7473V48.7578C3.98826 49.0166 4.02763 49.2756 4.11865 49.5183C4.20966 49.761 4.35031 49.9821 4.53159 50.1673C4.71288 50.3526 4.93082 50.498 5.17149 50.5942C5.41215 50.6905 5.67026 50.7355 5.9293 50.7263C6.48152 50.722 7.01368 50.5187 7.42822 50.1539C7.43356 50.1491 7.43785 50.1432 7.44085 50.1367C7.44384 50.1301 7.44547 50.1231 7.44563 50.1159V48.6771C7.44563 48.6631 7.44007 48.6497 7.43017 48.6398C7.42028 48.6299 7.40686 48.6244 7.39286 48.6244" fill="white"/>
<path d="M10.3726 50.3703C10.164 50.3667 9.95818 50.3216 9.76722 50.2375C9.57626 50.1534 9.40399 50.0321 9.26048 49.8806C9.11698 49.7292 9.00512 49.5506 8.93146 49.3554C8.8578 49.1602 8.82381 48.9522 8.83148 48.7437V48.7332C8.82137 48.5255 8.8534 48.3179 8.92561 48.123C8.99782 47.928 9.10873 47.7496 9.25168 47.5987C9.39462 47.4477 9.56665 47.3272 9.75738 47.2444C9.94812 47.1617 10.1536 47.1184 10.3615 47.1171C10.5702 47.1207 10.7761 47.1659 10.9671 47.25C11.1581 47.3341 11.3303 47.4555 11.4739 47.607C11.6174 47.7585 11.7292 47.9371 11.8029 48.1324C11.8765 48.3277 11.9104 48.5357 11.9027 48.7442V48.7548C11.9126 48.9624 11.8805 49.1699 11.8082 49.3648C11.736 49.5597 11.6251 49.738 11.4821 49.889C11.3392 50.0399 11.1673 50.1604 10.9766 50.2432C10.7859 50.326 10.5805 50.3695 10.3726 50.3708M10.3726 46.7642C10.1152 46.7649 9.86049 46.817 9.62342 46.9174C9.38635 47.0177 9.17165 47.1643 8.99187 47.3485C8.81209 47.5328 8.67083 47.751 8.57635 47.9905C8.48186 48.2299 8.43606 48.4858 8.4416 48.7432V48.7537C8.4326 49.0106 8.47576 49.2667 8.56847 49.5064C8.66118 49.7461 8.80152 49.9646 8.98102 50.1485C9.16051 50.3325 9.37543 50.4782 9.61279 50.5768C9.85016 50.6754 10.105 50.7249 10.3621 50.7222C10.6183 50.7214 10.8719 50.6698 11.108 50.5703C11.3442 50.4708 11.5583 50.3255 11.7379 50.1427C11.9175 49.9599 12.059 49.7433 12.1543 49.5054C12.2496 49.2676 12.2968 49.0131 12.2931 48.7569C12.2981 48.7444 12.2981 48.7304 12.2931 48.7179C12.3002 48.4623 12.2556 48.2078 12.1621 47.9698C12.0685 47.7319 11.9278 47.5152 11.7484 47.3329C11.5691 47.1507 11.3548 47.0065 11.1184 46.909C10.882 46.8115 10.6283 46.7628 10.3726 46.7657" fill="white"/>
<path d="M15.9159 50.3014H13.778V46.8799C13.778 46.8659 13.7725 46.8525 13.7626 46.8426C13.7527 46.8327 13.7393 46.8271 13.7253 46.8271H13.4483C13.4413 46.8271 13.4345 46.8285 13.4281 46.8312C13.4217 46.8338 13.4159 46.8377 13.411 46.8426C13.4061 46.8475 13.4022 46.8533 13.3995 46.8597C13.3969 46.8661 13.3955 46.873 13.3955 46.8799V50.6085C13.3955 50.6154 13.3969 50.6223 13.3995 50.6287C13.4022 50.6351 13.4061 50.6409 13.411 50.6458C13.4159 50.6507 13.4217 50.6546 13.4281 50.6572C13.4345 50.6599 13.4413 50.6612 13.4483 50.6612H15.9159C15.9299 50.6612 15.9433 50.6557 15.9532 50.6458C15.9631 50.6359 15.9686 50.6225 15.9686 50.6085V50.3531C15.9691 50.3461 15.968 50.339 15.9656 50.3324C15.9631 50.3258 15.9592 50.3198 15.9542 50.3148C15.9492 50.3098 15.9432 50.3059 15.9366 50.3034C15.93 50.3009 15.9229 50.2999 15.9159 50.3003" fill="white"/>
<path d="M18.2561 50.3012H17.3434V47.1883H18.2561C18.468 47.1755 18.6802 47.2064 18.8796 47.279C19.0791 47.3517 19.2614 47.4645 19.4154 47.6105C19.5694 47.7566 19.6918 47.9327 19.7749 48.128C19.858 48.3233 19.9001 48.5336 19.8985 48.7458V48.7564C19.9015 48.9685 19.8602 49.179 19.7774 49.3743C19.6947 49.5697 19.5721 49.7457 19.4177 49.8912C19.2632 50.0367 19.0802 50.1484 18.8802 50.2194C18.6803 50.2903 18.4677 50.3189 18.2561 50.3033M18.2561 46.8301H17.0147C17.0007 46.8301 16.9872 46.8357 16.9774 46.8456C16.9675 46.8554 16.9619 46.8689 16.9619 46.8829V50.6114C16.9619 50.6254 16.9675 50.6388 16.9774 50.6487C16.9872 50.6586 17.0007 50.6642 17.0147 50.6642H18.2556C18.517 50.6808 18.779 50.6435 19.0254 50.5547C19.2718 50.4658 19.4973 50.3273 19.6879 50.1477C19.8785 49.968 20.0302 49.7511 20.1335 49.5104C20.2368 49.2697 20.2895 49.0104 20.2884 48.7485V48.7326C20.289 48.4714 20.2359 48.2128 20.1323 47.973C20.0288 47.7332 19.877 47.5172 19.6865 47.3385C19.4959 47.1598 19.2707 47.0221 19.0247 46.9341C18.7787 46.8461 18.5173 46.8096 18.2566 46.8269" fill="white"/>
<path d="M23.7379 50.371C23.6334 50.3787 23.5284 50.3649 23.4294 50.3304C23.3304 50.2959 23.2396 50.2415 23.1626 50.1705C23.0855 50.0994 23.0238 50.0133 22.9814 49.9175C22.939 49.8217 22.9167 49.7182 22.9159 49.6134C22.9159 49.244 23.195 48.9386 23.703 48.756L24.7503 49.8387C24.6302 49.9955 24.4775 50.1243 24.3027 50.2162C24.1278 50.3081 23.9351 50.3609 23.7379 50.371ZM24.0544 47.0999C24.1259 47.0981 24.1969 47.1109 24.2632 47.1375C24.3296 47.164 24.3898 47.2037 24.4403 47.2543C24.4908 47.3048 24.5306 47.365 24.5571 47.4314C24.5836 47.4977 24.5964 47.5687 24.5947 47.6401C24.5947 47.9657 24.3536 48.2041 23.8561 48.3698C23.5537 48.0448 23.4598 47.8755 23.4598 47.656C23.4597 47.5798 23.4753 47.5043 23.5055 47.4344C23.5358 47.3644 23.5801 47.3014 23.6357 47.2493C23.6913 47.1971 23.757 47.157 23.8288 47.1313C23.9005 47.1056 23.9768 47.0949 24.0529 47.0999M25.2341 49.787C25.4447 49.4843 25.6235 49.1608 25.7676 48.8214C25.7728 48.8086 25.7728 48.7942 25.7676 48.7813C25.7622 48.7685 25.752 48.7582 25.7391 48.7529L25.4885 48.6516C25.476 48.6469 25.4622 48.6471 25.4498 48.6522C25.4375 48.6573 25.4275 48.6669 25.422 48.679C25.302 48.9742 25.1534 49.2569 24.9783 49.5232L24.0966 48.6178C24.686 48.3972 24.9714 48.0728 24.9714 47.6269C24.9699 47.51 24.945 47.3945 24.8982 47.2873C24.8514 47.1801 24.7837 47.0833 24.6991 47.0026C24.6144 46.9219 24.5145 46.859 24.4051 46.8174C24.2958 46.7758 24.1793 46.7565 24.0624 46.7606C23.9379 46.7528 23.8131 46.7702 23.6956 46.8118C23.578 46.8534 23.4701 46.9183 23.3783 47.0027C23.2865 47.087 23.2127 47.1891 23.1613 47.3027C23.1099 47.4164 23.0821 47.5392 23.0794 47.6639C23.092 47.9813 23.2281 48.2812 23.4588 48.4996C23.2056 48.5637 22.9794 48.7066 22.8126 48.9076C22.6459 49.1087 22.5474 49.3575 22.5312 49.6181C22.5333 49.7698 22.5665 49.9195 22.6287 50.0579C22.691 50.1962 22.781 50.3203 22.8932 50.4225C23.0054 50.5246 23.1373 50.6026 23.2809 50.6517C23.4245 50.7007 23.5766 50.7198 23.7279 50.7076C23.9717 50.7045 24.2118 50.6473 24.4308 50.5399C24.6498 50.4326 24.8422 50.278 24.9941 50.0872L25.5998 50.7134C25.6045 50.7184 25.6103 50.7223 25.6166 50.725C25.623 50.7276 25.6298 50.7289 25.6367 50.7287C25.6488 50.7288 25.6605 50.7247 25.67 50.7171L25.8884 50.5356C25.8938 50.531 25.8982 50.5254 25.9014 50.519C25.9046 50.5127 25.9064 50.5058 25.9068 50.4987C25.9074 50.4917 25.9064 50.4846 25.9038 50.478C25.9013 50.4714 25.8973 50.4655 25.8921 50.4607L25.2341 49.787Z" fill="white"/>
<path d="M29.5281 50.3012H28.6153V47.1883H29.5281C29.7399 47.1755 29.9521 47.2064 30.1516 47.279C30.351 47.3517 30.5334 47.4645 30.6874 47.6105C30.8414 47.7566 30.9637 47.9327 31.0468 48.128C31.1299 48.3233 31.172 48.5336 31.1705 48.7458V48.7564C31.1734 48.9685 31.1322 49.179 31.0494 49.3743C30.9666 49.5697 30.8441 49.7457 30.6896 49.8912C30.5351 50.0367 30.3522 50.1484 30.1522 50.2194C29.9522 50.2903 29.7397 50.3189 29.5281 50.3033M29.5281 46.8301H28.2871C28.2731 46.8301 28.2597 46.8357 28.2498 46.8455C28.2399 46.8554 28.2344 46.8689 28.2344 46.8829V50.6114C28.2344 50.6254 28.2399 50.6388 28.2498 50.6487C28.2597 50.6586 28.2731 50.6642 28.2871 50.6642H29.5281C29.7895 50.6808 30.0515 50.6435 30.2979 50.5547C30.5443 50.4658 30.7698 50.3273 30.9604 50.1477C31.151 49.968 31.3027 49.7511 31.406 49.5104C31.5093 49.2697 31.562 49.0104 31.5609 48.7485V48.7326C31.5613 48.4713 31.508 48.2128 31.4044 47.9729C31.3007 47.7331 31.1489 47.5171 30.9582 47.3384C30.7676 47.1597 30.5423 47.0221 30.2963 46.9341C30.0503 46.8461 29.7888 46.8096 29.5281 46.8269" fill="white"/>
<path d="M33.0329 46.8281H32.7559C32.7489 46.8281 32.7421 46.8295 32.7357 46.8321C32.7293 46.8348 32.7235 46.8387 32.7186 46.8436C32.7137 46.8485 32.7098 46.8543 32.7072 46.8607C32.7045 46.8671 32.7031 46.874 32.7031 46.8809V50.6095C32.7031 50.6164 32.7045 50.6232 32.7072 50.6296C32.7098 50.636 32.7137 50.6419 32.7186 50.6468C32.7235 50.6517 32.7293 50.6555 32.7357 50.6582C32.7421 50.6608 32.7489 50.6622 32.7559 50.6622H33.0329C33.0469 50.6622 33.0603 50.6567 33.0702 50.6468C33.0801 50.6369 33.0856 50.6234 33.0856 50.6095V46.8809C33.0856 46.8669 33.0801 46.8535 33.0702 46.8436C33.0603 46.8337 33.0469 46.8281 33.0329 46.8281Z" fill="white"/>
<path d="M36.8889 49.2625H35.0824L35.9872 47.2798L36.8889 49.2625ZM36.174 46.8308C36.1696 46.8221 36.1629 46.8148 36.1546 46.8096C36.1463 46.8045 36.1368 46.8018 36.127 46.8018H35.8632C35.8535 46.8018 35.844 46.8045 35.8357 46.8096C35.8274 46.8148 35.8207 46.8221 35.8163 46.8308L34.0799 50.5857C34.0768 50.5935 34.0756 50.6019 34.0764 50.6102C34.0772 50.6185 34.0799 50.6266 34.0844 50.6336C34.0889 50.6407 34.095 50.6466 34.1022 50.6508C34.1094 50.655 34.1175 50.6575 34.1259 50.658H34.4134C34.4233 50.6579 34.4329 50.655 34.4412 50.6497C34.4495 50.6444 34.4561 50.6368 34.4603 50.6279L34.9209 49.6144H37.0551L37.5152 50.6279C37.5194 50.6368 37.526 50.6444 37.5343 50.6497C37.5426 50.655 37.5523 50.6579 37.5621 50.658H37.8655C37.8739 50.6578 37.8823 50.6557 37.8897 50.6516C37.8971 50.6476 37.9035 50.6418 37.9082 50.6348C37.913 50.6277 37.9158 50.6195 37.9163 50.6109C37.9169 50.6024 37.9152 50.5939 37.9114 50.5863L36.174 46.8308Z" fill="white"/>
<path d="M42.4332 46.8282H42.1731C42.1649 46.8284 42.1568 46.8305 42.1496 46.8344C42.1424 46.8382 42.1361 46.8437 42.1314 46.8504L40.6773 48.9935L39.2232 46.8504C39.2186 46.8434 39.2123 46.8378 39.205 46.8339C39.1976 46.83 39.1893 46.8281 39.181 46.8282H38.9209C38.9069 46.8282 38.8935 46.8338 38.8836 46.8437C38.8737 46.8536 38.8682 46.867 38.8682 46.881V50.6095C38.8682 50.6235 38.8737 50.6369 38.8836 50.6468C38.8935 50.6567 38.9069 50.6623 38.9209 50.6623H39.1847C39.1987 50.6623 39.2121 50.6567 39.222 50.6468C39.2319 50.6369 39.2375 50.6235 39.2375 50.6095V47.5352L40.6198 49.5464C40.6246 49.5533 40.6308 49.5589 40.6382 49.5628C40.6455 49.5668 40.6537 49.5689 40.662 49.5691H40.6836C40.6919 49.5691 40.7001 49.567 40.7074 49.5631C40.7146 49.5591 40.7208 49.5534 40.7253 49.5464L42.1071 47.5352V50.6085C42.1071 50.6225 42.1127 50.6359 42.1226 50.6458C42.1325 50.6557 42.1459 50.6612 42.1598 50.6612H42.4369C42.4438 50.6612 42.4506 50.6599 42.457 50.6572C42.4634 50.6546 42.4693 50.6507 42.4742 50.6458C42.4791 50.6409 42.483 50.6351 42.4856 50.6287C42.4883 50.6223 42.4896 50.6154 42.4896 50.6085V46.8799C42.4896 46.873 42.4883 46.8661 42.4856 46.8597C42.483 46.8533 42.4791 46.8475 42.4742 46.8426C42.4693 46.8377 42.4634 46.8338 42.457 46.8312C42.4506 46.8285 42.4438 46.8271 42.4369 46.8271" fill="white"/>
<path d="M45.522 50.3703C45.3134 50.3667 45.1076 50.3216 44.9166 50.2375C44.7257 50.1534 44.5534 50.0321 44.4099 49.8806C44.2664 49.7292 44.1545 49.5506 44.0809 49.3554C44.0072 49.1602 43.9732 48.9522 43.9809 48.7437V48.7332C43.9708 48.5255 44.0028 48.3179 44.075 48.123C44.1472 47.928 44.2581 47.7496 44.4011 47.5987C44.544 47.4477 44.7161 47.3272 44.9068 47.2444C45.0975 47.1617 45.303 47.1184 45.5109 47.1171C45.7196 47.1207 45.9255 47.1659 46.1165 47.25C46.3075 47.3341 46.4798 47.4555 46.6233 47.607C46.7668 47.7585 46.8786 47.9371 46.9523 48.1324C47.0259 48.3277 47.0598 48.5357 47.0521 48.7442V48.7548C47.062 48.9624 47.0299 49.1699 46.9577 49.3648C46.8854 49.5597 46.7745 49.738 46.6315 49.889C46.4886 50.0399 46.3167 50.1604 46.126 50.2432C45.9353 50.326 45.7299 50.3695 45.522 50.3708M45.522 46.7642C45.2646 46.7651 45.01 46.8173 44.773 46.9176C44.536 47.018 44.3214 47.1646 44.1416 47.3488C43.9619 47.533 43.8206 47.7512 43.726 47.9906C43.6315 48.23 43.5856 48.4859 43.591 48.7432V48.7537C43.582 49.0106 43.6252 49.2667 43.7179 49.5064C43.8106 49.7461 43.9509 49.9646 44.1304 50.1485C44.3099 50.3325 44.5248 50.4782 44.7622 50.5768C44.9996 50.6754 45.2545 50.7249 45.5115 50.7222C45.7677 50.7214 46.0213 50.6698 46.2574 50.5703C46.4936 50.4708 46.7077 50.3255 46.8873 50.1427C47.0669 49.9599 47.2084 49.7433 47.3037 49.5054C47.399 49.2676 47.4462 49.0131 47.4425 48.7569C47.4475 48.7444 47.4475 48.7304 47.4425 48.7179C47.4496 48.4623 47.4051 48.2078 47.3115 47.9698C47.2179 47.7319 47.0772 47.5152 46.8979 47.3329C46.7185 47.1507 46.5042 47.0065 46.2678 46.909C46.0314 46.8115 45.7777 46.7628 45.522 46.7657" fill="white"/>
<path d="M51.7006 46.8281H51.4367C51.4228 46.8281 51.4094 46.8337 51.3995 46.8436C51.3896 46.8535 51.384 46.8669 51.384 46.8809V49.9774L48.9043 46.8492C48.8994 46.8432 48.8933 46.8384 48.8864 46.835C48.8795 46.8317 48.8719 46.8298 48.8642 46.8297H48.6035C48.5895 46.8297 48.5761 46.8353 48.5662 46.8452C48.5563 46.8551 48.5508 46.8685 48.5508 46.8825V50.611C48.5508 50.625 48.5563 50.6384 48.5662 50.6483C48.5761 50.6582 48.5895 50.6638 48.6035 50.6638H48.8673C48.8813 50.6638 48.8948 50.6582 48.9047 50.6483C48.9145 50.6384 48.9201 50.625 48.9201 50.611V47.4454L51.4526 50.6437C51.4574 50.6497 51.4635 50.6546 51.4705 50.658C51.4774 50.6613 51.485 50.6631 51.4927 50.6633H51.7006C51.7145 50.6633 51.728 50.6577 51.7379 50.6478C51.7478 50.6379 51.7533 50.6245 51.7533 50.6105V46.8809C51.7533 46.8669 51.7478 46.8535 51.7379 46.8436C51.728 46.8337 51.7145 46.8281 51.7006 46.8281Z" fill="white"/>
<path d="M54.316 50.3012H53.4032V47.1883H54.316C54.5278 47.1755 54.7401 47.2064 54.9395 47.279C55.1389 47.3516 55.3213 47.4645 55.4753 47.6105C55.6293 47.7565 55.7517 47.9327 55.8348 48.128C55.9179 48.3233 55.96 48.5335 55.9584 48.7458V48.7563C55.9613 48.9685 55.9201 49.1789 55.8373 49.3743C55.7545 49.5697 55.632 49.7457 55.4776 49.8912C55.3231 50.0366 55.1401 50.1484 54.9401 50.2193C54.7401 50.2903 54.5276 50.3189 54.316 50.3033M54.316 46.8301H53.0772C53.0632 46.8301 53.0498 46.8356 53.0399 46.8455C53.03 46.8554 53.0244 46.8688 53.0244 46.8828V50.6114C53.0244 50.6254 53.03 50.6388 53.0399 50.6487C53.0498 50.6586 53.0632 50.6641 53.0772 50.6641H54.3181C54.5795 50.6807 54.8414 50.6434 55.0878 50.5545C55.3341 50.4656 55.5595 50.327 55.7501 50.1474C55.9406 49.9678 56.0923 49.7509 56.1955 49.5103C56.2988 49.2696 56.3515 49.0103 56.3504 48.7484V48.7326C56.3508 48.4714 56.2976 48.2128 56.194 47.973C56.0903 47.7332 55.9385 47.5173 55.7479 47.3386C55.5574 47.1599 55.3321 47.0223 55.0862 46.9343C54.8402 46.8462 54.5788 46.8097 54.3181 46.8269" fill="white"/>
<path d="M58.7343 48.5542C57.8554 48.3738 57.6886 48.1464 57.6886 47.7897V47.7792C57.6886 47.4019 58.0495 47.1276 58.5481 47.1276C58.9471 47.1198 59.3338 47.2662 59.6276 47.5365C59.6328 47.5409 59.6388 47.5442 59.6454 47.5462C59.6519 47.5482 59.6588 47.5489 59.6656 47.5481C59.6793 47.5468 59.692 47.5402 59.7009 47.5296L59.8766 47.3112C59.8808 47.3061 59.884 47.3002 59.8858 47.2938C59.8876 47.2875 59.8881 47.2808 59.8872 47.2743C59.8856 47.2609 59.879 47.2486 59.8687 47.24C59.5054 46.9269 59.038 46.7613 58.5587 46.7757C58.4088 46.7594 58.2572 46.7732 58.1128 46.8163C57.9684 46.8595 57.8341 46.9311 57.7177 47.0269C57.6014 47.1227 57.5053 47.2408 57.4353 47.3742C57.3652 47.5077 57.3226 47.6538 57.3098 47.804V47.8145C57.3098 48.4086 57.6855 48.7273 58.6082 48.9135C59.4603 49.085 59.6218 49.3076 59.6218 49.6569V49.6675C59.6218 50.0732 59.2525 50.357 58.7301 50.357C58.4875 50.3623 58.2464 50.317 58.0222 50.224C57.798 50.1309 57.5957 49.9923 57.428 49.8168C57.4179 49.8076 57.4047 49.8027 57.3911 49.8031C57.3773 49.8039 57.3644 49.8102 57.3552 49.8205L57.1737 50.0283C57.165 50.0386 57.1605 50.0518 57.1612 50.0652C57.1619 50.0786 57.1677 50.0913 57.1774 50.1006C57.5893 50.4982 58.1414 50.7171 58.7138 50.71C58.8694 50.7304 59.0276 50.7185 59.1784 50.6749C59.3291 50.6314 59.4693 50.5572 59.5901 50.4569C59.7108 50.3567 59.8096 50.2325 59.8801 50.0923C59.9507 49.9521 59.9915 49.7989 60.0001 49.6421V49.6316C60.0001 49.0549 59.6228 48.7347 58.7338 48.5521" fill="white"/>
</svg>
