<svg width="64" height="64" viewBox="0 0 64 64" fill="none" xmlns="http://www.w3.org/2000/svg">
<g clip-path="url(#clip0_3362_7179)">
<path fill-rule="evenodd" clip-rule="evenodd" d="M25.7986 23.285C26.0679 23.285 26.2851 23.0677 26.2851 22.8012C26.2922 22.5342 26.0801 22.3124 25.8108 22.3053C25.5415 22.2983 25.3178 22.5087 25.3107 22.7757C25.3107 22.7847 25.3107 22.7929 25.3107 22.8019C25.3107 23.0677 25.5273 23.285 25.7986 23.285ZM31.6887 33.2015C32.4124 33.2015 32.8989 33.1046 33.2917 32.9612C33.6818 32.8171 33.9813 32.6444 34.1998 32.4666C34.4068 32.2983 34.5386 32.1281 34.759 32.0159C34.9538 31.9159 35.2282 31.8923 35.5361 31.8923C35.9783 31.8923 36.4758 32.028 36.8389 32.2263L36.891 31.5551C36.6487 31.4365 35.7945 31.1395 35.0528 31.1395C34.2101 31.1395 33.8913 31.3652 33.5802 31.6437C33.2184 31.9694 32.7601 32.3563 31.5228 32.3563C31.1931 32.3563 30.4019 32.2677 30.0805 32.2677C29.8851 32.2677 29.7354 32.3161 29.7354 32.3161C29.7945 32.4997 29.9205 33.0052 29.9205 33.0052C30.2168 33.0434 30.7335 33.2015 31.6887 33.2015ZM27.8843 31.2122C28.1349 31.2122 28.8638 31.3225 29.7058 31.4028C30.184 31.4474 30.6956 31.4824 31.179 31.4824C32.1244 31.4824 33.1599 31.0363 34.0758 30.571L33.8965 29.9247C33.4691 30.1567 32.6547 30.4155 31.9766 30.5225C31.8095 30.5493 31.3249 30.5563 31.1867 30.534C30.9579 30.4989 30.6834 30.4174 30.389 30.3638C29.9751 30.2867 29.5226 30.2682 29.2546 30.2567C28.9589 30.2434 28.428 30.2931 28.1677 30.3103C27.21 30.367 26.5769 30.5907 25.9708 30.9961C25.6649 31.2013 25.2741 31.5366 24.9727 31.9426C25.1276 31.9541 25.5704 32.0765 25.5704 32.0765C26.2228 31.5251 27.2043 31.2122 27.8843 31.2122Z" fill="#2463A9"/>
<path fill-rule="evenodd" clip-rule="evenodd" d="M16.3414 31.5242C16.8081 31.5242 16.9951 31.674 17.2522 31.8276C17.4322 31.9379 17.5742 32.0596 17.7086 32.1801C17.9965 32.435 17.9142 32.669 17.6886 32.8455C17.5723 32.9373 17.4733 33.0476 17.1802 33.2362C17.0388 33.3287 16.7952 33.4765 16.6288 33.5466C16.3357 33.6671 16.2078 33.6805 16.1017 33.6805C15.9937 33.6805 15.8228 33.6639 15.7263 33.5689L14.9808 34.0209C15.2044 34.1942 15.459 34.2529 15.8864 34.2529C16.3697 34.2529 16.7547 34.1496 17.231 33.9648C17.848 33.7226 18.5422 33.2464 18.7729 33.1164C19.2447 32.8493 19.721 32.676 20.2307 32.676C20.6799 32.676 21.1864 32.9398 21.754 33.2088C22.4237 33.5275 23.2419 33.8398 23.9939 33.8398C24.4451 33.8398 24.9503 33.7748 25.4787 33.6677C26.4177 33.4778 27.4274 33.1636 28.416 32.8315L28.0953 32.2591C27.8542 32.3471 27.0296 32.5772 26.142 32.7729C25.4067 32.9328 24.6604 33.0775 24.2735 33.0775C23.9573 33.0775 23.5851 33.0546 23.2516 32.9526C22.6859 32.7837 22.1775 32.6071 22.1775 32.1565C22.1775 31.8448 22.3119 31.6243 22.693 31.4726C23.3088 31.2272 24.2684 31.2425 24.7736 31.2425C24.868 31.1424 25.2498 30.6867 25.2498 30.6867C24.8456 30.6057 24.4336 30.5643 24.0209 30.563C23.3885 30.563 22.8036 30.6433 22.3189 30.8454C21.8697 31.0328 21.5162 31.303 21.2603 31.6683C21.1575 31.8136 21.0515 31.9519 20.8972 31.9519C20.6407 31.9519 20.1966 31.7447 19.7325 31.7447C19.5301 31.7447 19.3591 31.7862 19.1804 31.7862C18.7106 31.7862 18.0981 31.4477 17.5524 31.159C17.2091 30.9773 16.8556 30.8065 16.4449 30.8065C16.2746 30.8065 16.0413 30.8486 15.8337 30.9353C15.4352 31.1004 15.0309 31.3674 14.8271 31.5363L15.1922 31.7849C15.4056 31.6746 15.7932 31.5242 16.3414 31.5242ZM49.3186 36.7202C47.5626 35.2516 45.8645 33.6454 44.6664 32.3318C42.5981 30.0671 39.7803 25.745 38.8181 23.2994C38.4627 22.3994 37.7287 22.7053 38.1047 23.62C39.0135 25.8304 41.1088 29.0798 43.2967 31.7594C42.787 31.5357 42.1546 31.2348 41.8126 31.0851C41.6963 31.2737 41.4083 31.6472 41.112 31.9544C40.7688 32.3082 40.4153 32.595 40.306 32.6957C40.065 32.9182 39.8889 32.9347 39.7269 32.6881C39.6537 32.5708 39.4968 32.3611 39.4159 31.9965L38.9511 31.4127C38.7018 31.1023 37.5345 29.5184 37.1772 28.9855C36.8205 28.4552 36.3583 27.8873 35.6089 27.8873C34.6814 27.8873 34.362 28.9058 34.2893 29.8351L34.9051 29.57C35.0484 28.9944 35.3332 28.6936 35.6089 28.6936C35.8056 28.6936 36.0466 28.9772 36.0466 29.1895C35.9573 29.438 35.7953 29.9524 35.7162 30.3495L36.323 30.5535C36.323 30.2609 36.447 29.73 36.6174 29.4553C36.6174 29.4553 36.7851 29.5968 36.8481 29.7121C36.8879 29.7867 37.1881 30.2412 37.5352 30.8454C37.845 31.3846 38.1895 32.0507 38.5057 32.581C38.6587 32.8366 38.8342 33.0654 38.9518 33.2452C39.108 33.4829 39.2487 33.6486 39.3979 33.7328C39.5373 33.8092 39.6877 33.8112 39.8092 33.8112C40.2013 33.8112 40.3812 33.6824 40.6473 33.4574C41.1461 33.031 41.5755 32.4389 42.0196 31.9079L43.0666 32.3764C43.4715 32.5676 43.8803 32.7505 44.2923 32.9258C45.1851 33.931 46.1846 34.9157 47.2329 35.8521L47.945 36.4748C48.1391 36.6412 48.3339 36.805 48.5312 36.9669L49.3186 36.7202Z" fill="#2463A9"/>
<path fill-rule="evenodd" clip-rule="evenodd" d="M53.2483 36.4184C51.4551 32.5259 49.0924 27.7385 47.0709 24.8059L46.5992 24.1481C45.9243 23.2456 45.1941 22.4973 44.4788 21.7713L43.9234 21.2289C42.5229 19.8834 40.9514 18.5378 39.7533 17.5792C38.6967 16.7353 37.9459 14.7881 35.5254 14.7881C33.3439 14.7881 32.5983 16.2585 32.3541 17.1203C32.1921 17.6856 32.1221 17.8813 31.9697 18.0936L30.584 19.7297L32.2185 19.5997L31.39 20.9631C31.865 20.8649 34.7309 20.2938 35.3203 21.2117C36.0357 22.322 35.5479 23.5267 36.8854 26.0526L37.4639 27.0508C38.1298 28.1126 38.9184 29.1554 39.619 29.9783L38.9493 31.4118L39.414 31.9956L40.4552 29.8177C39.9237 29.3466 38.3322 27.2254 37.6747 26.045C36.1797 23.3609 36.7672 21.9804 35.8551 20.7502C35.0099 19.6086 32.5938 20.1479 32.5938 20.1479L33.4853 18.9082L31.9427 19.0949L32.6562 18.244C32.8079 18.0241 32.8432 17.8902 32.9056 17.678C33.2083 16.5887 34.0027 15.5083 35.5112 15.5083C37.3424 15.5083 37.8662 16.9023 39.1389 18.012C40.4276 19.137 43.1296 21.3003 45.6016 24.0978C47.5948 26.3528 50.1503 31.596 52.1126 35.7339C49.9671 34.6969 46.3324 31.1319 44.8104 28.4607L44.0918 28.3772C45.7263 31.4519 49.2338 35.0321 52.7033 36.9812L53.2483 36.4184Z" fill="#2463A9"/>
<path fill-rule="evenodd" clip-rule="evenodd" d="M48.2801 23.5672C48.8521 23.1599 49.5295 22.8272 50.243 22.5588C50.682 23.0866 51.7174 23.5487 52.5389 23.657L52.4077 24.5188C51.4963 24.0631 49.8863 23.599 48.2801 23.5672L47.5602 24.181C49.7397 24.2211 51.1268 24.6584 52.9226 25.4079L53.2793 23.1331C52.5671 23.0362 51.4443 22.8342 51.0561 22.2867C52.6989 21.7908 54.4034 21.6034 55.4106 21.6174V18.8148C54.9613 19.0755 54.3957 19.319 53.8623 19.4828C53.2092 19.681 52.616 19.7684 52.4521 19.4828C52.2715 19.1692 53.172 18.6096 54.1007 18.1207L52.0112 16.3998C51.6949 16.8224 50.9757 18.0041 50.2423 18.7849C49.7217 19.3394 49.185 19.7027 48.8784 19.4764C48.7178 19.356 48.7113 19.0092 48.8444 18.572C49.0983 17.7319 49.7667 16.5655 50.1736 16.0511L47.2857 15.7802C47.2857 16.9505 46.7317 18.2393 46.0491 19.2808C45.461 20.1769 44.6068 20.8283 43.9236 21.2286L44.4789 21.771C45.3241 21.1885 46.1468 20.4759 46.7831 19.4605C47.2954 18.6446 47.771 17.658 47.9497 16.5024L48.9498 16.6178C48.5339 17.3737 48.0641 18.5478 48.0287 19.3152C48.0538 19.8372 48.1554 19.9309 48.4266 20.1298C48.9279 20.502 49.5495 20.2515 50.1414 19.7492C50.7945 19.1966 51.4366 18.2699 52.0877 17.4317L52.9316 18.1296C51.8614 18.7836 51.5587 19.4834 51.8852 19.9468C52.0125 20.1272 52.2875 20.2623 52.6288 20.2725C52.9676 20.2808 53.368 20.182 53.8057 20.0788C54.1136 20.0048 54.4472 19.8984 54.755 19.8047V20.9195C52.3229 21.0916 48.1721 22.068 46.5999 24.1459L47.0717 24.8037C47.208 24.5819 47.3725 24.3741 47.5595 24.1791L48.2801 23.5672ZM16.4785 18.0888L16.805 18.3323C17.6605 17.6414 18.66 16.3845 19.2243 15.2008L18.9331 14.9956C18.3875 15.4915 17.0865 17.1085 16.4785 18.0888Z" fill="#2463A9"/>
<path fill-rule="evenodd" clip-rule="evenodd" d="M15.9765 17.3329C15.497 15.654 16.7272 14.6488 18.0114 14.7419C18.4928 13.8221 19.2487 13.6386 20.0515 14.116C20.799 14.5622 20.7366 15.6948 20.1138 16.2257C20.3362 17.2354 19.4325 18.6746 18.0287 18.6025C18.1952 19.9965 16.4714 20.7894 15.4263 19.8792C14.5573 19.1239 14.7392 17.8651 15.9765 17.3329ZM15.3819 17.076C14.9359 17.1729 14.7038 17.3947 14.5052 17.874C14.6383 16.7841 13.9075 15.7388 12.7043 15.8191C12.8219 13.8712 10.8763 12.7112 9.15571 13.6596C8.13953 12.7966 7.00317 12.9719 6.31929 13.775C5.66627 14.5424 5.68812 15.8382 7.00831 16.5291C6.67473 17.8747 7.91715 19.2112 9.3781 18.9008C9.46229 19.3151 9.76824 19.537 10.1725 19.702C9.56513 19.7371 9.31575 20.3362 9.31575 20.3362C7.37853 19.8442 6.37907 21.1209 6.34629 22.4613C4.93226 22.8871 4.53697 24.6399 5.61935 25.6629C6.73836 26.7241 8.07333 26.2888 8.65565 25.2033C9.9045 25.6743 11.2414 24.9095 11.2761 23.541C12.6683 23.671 13.2018 22.583 13.0726 21.4364L12.631 21.4013C12.4408 22.4664 11.9311 22.9253 10.7658 22.9253C10.715 23.9483 9.6127 24.8362 8.36385 24.6016C8.01356 25.4194 6.98517 25.6865 6.2833 25.0025C5.58335 24.318 5.81538 23.0311 7.05073 22.7991C6.99995 21.5441 8.23209 20.7665 9.99127 20.8493C10.4913 20.2349 10.895 19.9742 11.6444 20.0462L11.6515 19.6893C10.9496 19.5956 10.1584 18.9359 10.0999 18.2271C8.60166 18.345 7.57649 17.4941 7.62727 16.1588C6.66444 15.7114 6.83798 14.7317 7.14907 14.3595C7.68576 13.717 8.43648 13.7686 9.04258 14.2874C10.7542 13.6386 12.1329 14.9784 12.1329 16.4424C12.1329 16.4424 12.9331 16.4271 13.3824 16.8912C13.9769 17.5069 13.9769 18.0429 14.1177 18.6402C14.2507 19.2042 14.5367 19.9538 15.2354 20.4943C16.4707 21.4491 18.3848 21.1903 18.5802 19.1762C20.2243 19.3209 21.3054 18.041 20.763 16.4756C21.9141 15.661 21.6853 13.9815 20.6029 13.332C19.6716 12.722 18.4176 12.9763 17.8025 13.8999C17.7459 13.9847 17.6964 14.0733 17.654 14.1651C15.9694 13.7807 14.5965 15.4468 15.3819 17.076ZM22.9836 26.8357C23.1315 26.248 22.3505 26.1607 22.2432 26.7025C22.1288 27.2818 21.4186 28.2698 20.7456 28.8893L20.986 29.1462C21.8691 28.4916 22.794 27.5852 22.9836 26.8357ZM26.9069 17.1289C27.1814 17.1187 27.3948 16.8899 27.3845 16.6184C27.3748 16.3609 27.1666 16.1543 26.9069 16.1448C26.6325 16.1448 26.412 16.3666 26.412 16.6368C26.4127 16.909 26.6331 17.1289 26.9069 17.1289ZM34.2155 17.5783C34.2232 17.2557 34.4932 17.0008 34.8184 17.0091C35.1321 17.0167 35.3853 17.2672 35.3924 17.5783C35.3937 17.9008 35.1302 18.1634 34.8049 18.164C34.8043 18.164 34.8043 18.164 34.8036 18.164C34.4803 18.164 34.2155 17.9021 34.2155 17.5783ZM33.2829 28.0792C29.4522 27.7873 25.6382 28.0257 25.6382 28.0257L25.9068 27.3296C29.5698 27.0658 33.3369 27.3296 33.3369 27.3296L33.2829 28.0792Z" fill="#2463A9"/>
<path fill-rule="evenodd" clip-rule="evenodd" d="M10.1341 30.7225C10.1341 30.7225 10.3513 31.0099 10.6894 31.3668C10.8038 31.5275 10.9298 31.6422 11.0898 31.7907C11.7923 32.4702 12.8252 32.9788 13.8909 33.1828C14.1936 33.2401 14.4629 33.2847 14.7631 33.2847C15.2175 33.2847 15.6359 33.0425 15.904 32.8054L15.4868 32.3229C15.3525 32.3624 15.0729 32.3624 14.8878 32.3624C13.3426 32.3624 11.3816 31.3598 10.9304 30.1979C10.8848 30.0844 10.8308 30.0213 10.8764 29.9142C10.9201 29.8072 10.9773 29.5822 11.0095 29.3757C11.1008 29.4789 11.2871 29.6344 11.5243 29.7861C12.1002 30.152 13.1942 30.6574 13.4082 30.7932C13.8562 30.6657 14.2907 30.4943 14.704 30.2807C15.0253 30.1157 15.465 29.9671 15.9734 29.9671C17.1027 29.9671 18.4004 30.6045 19.6196 31.2005L20.4526 30.8767C19.3703 30.1208 17.0178 29.064 15.7079 29.064C14.9366 29.064 14.211 29.6249 13.6949 29.6249C13.0598 29.6249 11.2422 28.7453 11.2422 28.0123C11.2422 27.4482 12.4184 27.1276 14.31 26.8969C13.9802 27.3794 13.6704 27.8759 13.3825 28.3845L13.8639 28.6497C16.8263 24.3881 19.9063 21.6212 22.4991 19.9366C23.4414 19.3234 23.6554 18.9652 23.9839 18.296C24.7866 16.6668 25.5444 15.4131 26.8621 15.4131C27.4765 15.4131 27.9798 15.7573 28.3249 16.1811L29.2775 16.4648L28.3127 17.1136L29.2993 17.5043C28.0113 17.8632 26.2527 19.1067 25.5393 20.9309C24.167 21.0029 23.5057 22.1063 23.0583 23.0311C22.7549 23.6538 22.2742 23.9024 21.5723 24.3747L15.9624 28.259L16.735 28.366L21.9174 24.9171C22.9413 24.2332 23.426 23.729 23.6715 23.2408C24.151 22.286 24.6697 21.5766 25.6865 21.5766C26.1865 21.5766 26.7194 21.7882 27.1474 22.191L28.0582 22.4849L27.0652 23.0872L27.8981 23.5965C25.5181 24.3365 24.0449 26.0287 23.1901 29.2635L23.8193 29.4037C24.1343 28.3342 24.4473 27.3507 25.0039 26.4826C26.3806 26.4679 27.7767 26.4175 29.1451 26.4175C32.7978 26.4175 35.8302 26.5712 37.4666 27.0498L36.8882 26.0517C35.138 25.7547 32.5979 25.603 29.1457 25.603C27.9894 25.603 26.8158 25.6444 25.6511 25.6578C26.4038 24.8681 27.4842 24.202 29.1509 23.6902L27.9695 23.0439L29.282 22.3191L27.4926 21.6582C27.1796 21.3796 26.7907 21.1241 26.3009 21.0004C26.8749 19.2527 28.8256 18.2316 30.6973 17.5266L29.3861 16.9938L30.7069 16.2761L28.672 15.6317C28.1398 15.0109 27.6301 14.7285 26.8453 14.7285C24.957 14.7285 24.1625 16.3558 23.415 17.7982C23.0191 18.5592 22.7716 18.8798 22.1019 19.3139C20.6493 20.2566 18.7995 21.699 17.0326 23.5468C16.1103 22.8864 14.2225 20.9526 13.7135 19.8977C13.511 20.1463 13.3111 20.6874 13.3111 20.6874C13.5052 20.8889 15.7246 23.1172 16.5512 24.0624C16.4889 24.1306 16.4271 24.1994 16.3648 24.2696C15.4842 24.4429 13.1987 24.6622 12.4209 24.557L11.9832 25.327C12.5636 25.2702 14.8364 25.0045 15.7786 24.9496C15.49 25.2977 15.2098 25.6527 14.9386 26.0147C12.0186 26.3449 10.0659 26.9396 10.0659 28.011C10.0659 28.1882 10.1379 28.3883 10.1379 28.5764C10.1379 29.0251 9.9676 29.1908 9.64623 29.391C9.43734 29.5229 9.42384 29.6134 9.51318 29.7364C9.99781 30.5128 8.49315 30.8984 9.54146 32.2872L10.4304 32.3408C10.4304 32.3414 9.56332 31.8411 10.1341 30.7225ZM8.98228 15.3034L8.69305 15.5973C9.1089 16.1869 10.9504 17.8224 11.8843 18.4305L12.2275 18.0079C11.6149 17.2934 9.87376 15.7528 8.98228 15.3034ZM7.71094 23.5499L7.98346 23.8451C8.68533 23.5079 10.0049 22.5397 10.7183 21.8137L10.5216 21.525C9.68351 21.8723 8.38774 22.8233 7.71094 23.5499Z" fill="#2463A9"/>
<path fill-rule="evenodd" clip-rule="evenodd" d="M48.3788 35.6114C48.3794 35.1034 47.9648 34.691 47.4526 34.6904H47.4519L46.079 34.6898C45.5661 34.6904 45.1509 35.1041 45.1515 35.6127V35.6133L45.1522 49.8564C45.1509 50.3644 45.5655 50.7767 46.0771 50.778C46.0777 50.778 46.0784 50.778 46.079 50.778H47.4519C47.9648 50.7767 48.3794 50.3637 48.3781 49.8551V35.6114H48.3788ZM50.1289 35.99V36.6676C50.1302 36.948 50.3603 37.1749 50.6431 37.1736H60.1178C60.5491 37.1736 60.9 36.8282 60.9 36.3992V35.2526C60.9 34.8249 60.5452 34.4367 60.1158 34.4781C60.1158 34.4781 50.9581 35.3692 50.6624 35.4023C50.3211 35.44 50.1289 35.7102 50.1289 35.99ZM42.4591 50.7787C40.1022 50.7787 38.6187 49.0067 38.6187 47.0334L38.6168 41.3345H37.9419C37.5833 41.3351 37.2915 41.047 37.2915 40.6914C37.2915 40.6907 37.2915 40.6907 37.2915 40.6901V39.7359C37.2915 39.3796 37.5846 39.0935 37.9432 39.0935L38.6174 39.0941L38.6162 35.5904C38.6155 35.0951 39.0192 34.6936 39.5179 34.6923C39.5186 34.6923 39.5192 34.6923 39.5198 34.6923H40.8593C41.3594 34.6936 41.7643 35.0964 41.7637 35.5929L41.7643 39.0941H43.8519C44.2119 39.0941 44.5049 39.3809 44.5049 39.7372V40.6914C44.5049 41.047 44.2138 41.3351 43.8558 41.3345C43.8551 41.3345 43.8551 41.3345 43.8545 41.3345H41.7643L41.7656 46.6057C41.7656 47.6408 42.398 48.347 43.5293 48.347L43.7195 48.3458C44.1097 48.3458 44.4265 48.6574 44.4265 49.0443V50.0801C44.4265 50.4657 44.1116 50.7787 43.7227 50.7787C43.7221 50.7787 43.7208 50.7787 43.7202 50.7787H42.4604H42.4591ZM20.3867 38.6836C16.5766 38.6836 14.4395 41.6405 14.4395 44.756C14.4395 48.0761 16.7283 50.9998 20.4112 50.9998C22.932 50.9998 25.4168 49.6824 25.8867 47.5191C25.9503 47.2271 25.7517 46.8447 25.3371 46.8434H23.5362C23.209 46.8434 22.9416 46.9983 22.7809 47.2329C22.2655 47.9824 21.5102 48.3815 20.3938 48.3815C18.8165 48.3815 17.7226 47.1487 17.6403 45.7815H25.3005C26.0062 45.7815 26.3212 45.4023 26.3212 44.7554C26.3218 41.7169 24.508 38.6836 20.3867 38.6836ZM20.3867 41.1223C21.7931 41.1223 23.0072 42.1147 23.1306 43.4576H17.6647C17.7868 42.1147 18.9804 41.1223 20.3867 41.1223ZM55.2927 38.6836C51.4832 38.6836 49.3461 41.6405 49.3461 44.756C49.3461 48.0761 51.6355 50.9998 55.3178 50.9998C57.8386 50.9998 60.3234 49.6824 60.7933 47.5191C60.8569 47.2271 60.6583 46.8447 60.2438 46.8434H58.4421C58.115 46.8434 57.8476 46.9983 57.6863 47.2329C57.1714 47.9824 56.4156 48.3815 55.2991 48.3815C53.7219 48.3815 52.6286 47.1487 52.5456 45.7815H60.2065C60.9116 45.7815 61.2271 45.4023 61.2271 44.7554C61.2278 41.7169 59.414 38.6836 55.2927 38.6836ZM55.2927 41.1223C56.6997 41.1223 57.9138 42.1147 58.0372 43.4576H52.5701C52.6928 42.1147 53.8858 41.1223 55.2927 41.1223Z" fill="white"/>
<path fill-rule="evenodd" clip-rule="evenodd" d="M36.0391 34.8509H11.2255C10.6624 34.8509 10.2061 35.3035 10.2061 35.8618C10.2061 35.8625 10.2061 35.8631 10.2061 35.8637L10.2916 45.5278C10.2916 45.5278 4.94461 35.9504 4.66566 35.4615C4.40406 35.002 3.84102 34.5781 3.06202 34.5781H1.02132C0.456989 34.5781 0 35.0313 0 35.5909V35.5916L0.00128527 49.7645C0.000642525 50.3241 0.457632 50.7773 1.02196 50.7779H2.33058C2.89491 50.7767 3.35189 50.3216 3.35061 49.7619L3.26834 39.827C3.26834 39.827 8.66672 49.5 8.89811 49.8811C9.20919 50.3961 9.73624 50.7786 10.5005 50.7786H12.3753C12.939 50.7779 13.396 50.3248 13.3954 49.7651C13.3954 49.7651 13.3954 49.7651 13.3954 49.7645L13.3947 37.252L36.0404 37.2526C36.4248 37.2539 36.7378 36.9454 36.7391 36.5642C36.7391 36.5636 36.7391 36.5636 36.7391 36.5629V35.5406C36.7378 35.1594 36.4248 34.8503 36.0391 34.8509Z" fill="white"/>
<path fill-rule="evenodd" clip-rule="evenodd" d="M32.0243 41.004C33.1035 41.004 33.9101 41.3921 34.2006 42.0627C34.3401 42.3846 34.6107 42.447 34.9822 42.447H36.4656C36.7105 42.447 36.9927 42.238 36.9927 41.9199C36.9927 40.2098 34.9359 38.6826 32.0224 38.6826C29.0098 38.6826 27.0308 40.1059 27.0308 42.3737C27.0308 44.1081 28.4134 45.1406 30.1128 45.5811C30.8873 45.7818 32.2101 46.1056 32.8534 46.2739C33.5476 46.4543 34.1685 46.6646 34.1685 47.2542C34.1685 48.1848 33.1793 48.5016 32.0989 48.5016C31.075 48.5016 30.0556 48.0484 29.7631 47.3243C29.5941 46.9049 29.2971 46.8443 28.8479 46.8443H27.3387C27.0758 46.8443 26.7725 47.0681 26.7725 47.4091V47.6022C26.7725 49.2575 29.0118 50.9912 32.1014 50.9912C34.2919 50.9912 37.3443 50.088 37.3443 47.1745C37.3443 45.4874 36.206 44.3197 34.3536 43.8525C33.6292 43.6702 31.888 43.231 31.5088 43.1341C30.8339 42.9608 30.2034 42.7428 30.2034 42.1685C30.2034 41.2991 31.0139 41.004 32.0243 41.004Z" fill="white"/>
<path fill-rule="evenodd" clip-rule="evenodd" d="M48.3781 35.6114C48.3788 35.1034 47.9642 34.691 47.4519 34.6904H47.4513L46.0784 34.6898C45.5655 34.6904 45.1503 35.1041 45.1509 35.6127V35.6133L45.1515 49.8564C45.1503 50.3644 45.5648 50.7767 46.0765 50.778C46.0771 50.778 46.0777 50.778 46.0784 50.778H47.4513C47.9642 50.7767 48.3787 50.3637 48.3775 49.8551V35.6114H48.3781ZM50.1283 35.99V36.6676C50.1296 36.948 50.3597 37.1749 50.6425 37.1736H60.1171C60.5484 37.1736 60.8993 36.8282 60.8993 36.3992V35.2526C60.8993 34.8249 60.5446 34.4367 60.1152 34.4781C60.1152 34.4781 50.9574 35.3692 50.6618 35.4023C50.3205 35.44 50.1283 35.7102 50.1283 35.99ZM42.4585 50.7787C40.1015 50.7787 38.6181 49.0067 38.6181 47.0334L38.6162 41.3345H37.9413C37.5826 41.3351 37.2908 41.047 37.2908 40.6914C37.2908 40.6907 37.2908 40.6907 37.2908 40.6901V39.7359C37.2908 39.3796 37.5839 39.0935 37.9426 39.0935L38.6168 39.0941L38.6155 35.5904C38.6149 35.0951 39.0185 34.6936 39.5173 34.6923C39.5179 34.6923 39.5186 34.6923 39.5192 34.6923H40.8587C41.3587 34.6936 41.7637 35.0964 41.763 35.5929L41.7637 39.0941H43.8513C44.2112 39.0941 44.5043 39.3809 44.5043 39.7372V40.6914C44.5043 41.047 44.2131 41.3351 43.8551 41.3345C43.8545 41.3345 43.8545 41.3345 43.8539 41.3345H41.7637L41.7649 46.6057C41.7649 47.6408 42.3974 48.347 43.5286 48.347L43.7189 48.3458C44.109 48.3458 44.4259 48.6574 44.4259 49.0443V50.0801C44.4259 50.4657 44.111 50.7787 43.7221 50.7787C43.7214 50.7787 43.7202 50.7787 43.7195 50.7787H42.4597H42.4585ZM26.3212 44.7554C26.3212 41.7176 24.5073 38.6836 20.3867 38.6836C16.5766 38.6836 14.4395 41.6405 14.4395 44.756C14.4395 48.0761 16.7283 50.9998 20.4112 50.9998C22.932 50.9998 25.4168 49.6824 25.8867 47.5191C25.9503 47.2271 25.7517 46.8447 25.3371 46.8434H23.5355C23.2084 46.8434 22.941 46.9983 22.7803 47.2329C22.2648 47.9824 21.5096 48.3815 20.3932 48.3815C18.8159 48.3815 17.7219 47.1487 17.6397 45.7815H25.2998C26.0056 45.7815 26.3212 45.4017 26.3212 44.7554ZM17.6634 43.457C17.7862 42.114 18.9798 41.1216 20.3867 41.1216C21.7931 41.1216 23.0072 42.114 23.1306 43.457H17.6634ZM61.2271 44.7554C61.2271 41.7176 59.4133 38.6836 55.2921 38.6836C51.4825 38.6836 49.3454 41.6405 49.3454 44.756C49.3454 48.0761 51.6349 50.9998 55.3171 50.9998C57.838 50.9998 60.3228 49.6824 60.7926 47.5191C60.8563 47.2271 60.6577 46.8447 60.2431 46.8434H58.4415C58.1143 46.8434 57.847 46.9983 57.6856 47.2329C57.1708 47.9824 56.4149 48.3815 55.2985 48.3815C53.7212 48.3815 52.6279 47.1487 52.545 45.7815H60.2058C60.9116 45.7815 61.2271 45.4017 61.2271 44.7554ZM52.5694 43.457C52.6922 42.114 53.8851 41.1216 55.2921 41.1216C56.699 41.1216 57.9132 42.114 58.0366 43.457H52.5694Z" fill="#2463A9"/>
<path fill-rule="evenodd" clip-rule="evenodd" d="M36.0391 34.8509H11.2255C10.6624 34.8509 10.2061 35.3035 10.2061 35.8618C10.2061 35.8625 10.2061 35.8631 10.2061 35.8637L10.2916 45.5278C10.2916 45.5278 4.94461 35.9504 4.66566 35.4615C4.40406 35.002 3.84102 34.5781 3.06202 34.5781H1.02132C0.456989 34.5781 0 35.0313 0 35.5909V35.5916L0.00128527 49.7645C0.000642525 50.3241 0.457632 50.7773 1.02196 50.7779H2.33058C2.89491 50.7767 3.35189 50.3216 3.35061 49.7619L3.26834 39.827C3.26834 39.827 8.66672 49.5 8.89811 49.8811C9.20919 50.3961 9.73624 50.7786 10.5005 50.7786H12.3753C12.939 50.7779 13.396 50.3248 13.3954 49.7651C13.3954 49.7651 13.3954 49.7651 13.3954 49.7645L13.3947 37.252L36.0404 37.2526C36.4248 37.2539 36.7378 36.9454 36.7391 36.5642C36.7391 36.5636 36.7391 36.5636 36.7391 36.5629V35.5406C36.7378 35.1594 36.4248 34.8503 36.0391 34.8509Z" fill="#2463A9"/>
<path fill-rule="evenodd" clip-rule="evenodd" d="M32.0243 41.004C33.1035 41.004 33.9101 41.3921 34.2006 42.0627C34.3401 42.3846 34.6107 42.447 34.9822 42.447H36.4656C36.7105 42.447 36.9927 42.238 36.9927 41.9199C36.9927 40.2098 34.9359 38.6826 32.0224 38.6826C29.0098 38.6826 27.0308 40.1059 27.0308 42.3737C27.0308 44.1081 28.4134 45.1406 30.1128 45.5811C30.8873 45.7818 32.2101 46.1056 32.8534 46.2739C33.5476 46.4543 34.1685 46.6646 34.1685 47.2542C34.1685 48.1848 33.1793 48.5016 32.0989 48.5016C31.075 48.5016 30.0556 48.0484 29.7631 47.3243C29.5941 46.9049 29.2971 46.8443 28.8479 46.8443H27.3387C27.0758 46.8443 26.7725 47.0681 26.7725 47.4091V47.6022C26.7725 49.2575 29.0118 50.9912 32.1014 50.9912C34.2919 50.9912 37.3443 50.088 37.3443 47.1745C37.3443 45.4874 36.206 44.3197 34.3536 43.8525C33.6292 43.6702 31.888 43.231 31.5088 43.1341C30.8339 42.9608 30.2034 42.7428 30.2034 42.1685C30.2034 41.2991 31.0139 41.004 32.0243 41.004ZM62.2923 50.1804H61.9561V48.6207H62.5436C62.9491 48.6207 63.1889 48.7355 63.1889 49.0918C63.1889 49.3786 63.0186 49.4825 62.8103 49.4984L63.212 50.1804H62.8135L62.4504 49.5252H62.2916V50.1804H62.2923ZM62.5892 49.2607C62.7402 49.2607 62.8289 49.2295 62.8289 49.0567C62.8289 48.8961 62.6548 48.8846 62.5281 48.8846H62.2916V49.2607H62.5892ZM62.5352 50.8503C61.7588 50.8503 61.0665 50.3175 61.0665 49.4015C61.0665 48.4863 61.7588 47.9534 62.5352 47.9534C63.3084 47.9534 64.0007 48.4863 64.0007 49.4015C64.0007 50.3181 63.3084 50.8503 62.5352 50.8503ZM62.5352 48.2906C61.9561 48.2906 61.4882 48.7355 61.4882 49.4022C61.4882 50.0695 61.9561 50.5182 62.5352 50.5144V50.5189C63.1002 50.5189 63.579 50.0702 63.579 49.4028C63.5784 48.7355 63.1002 48.2906 62.5352 48.2906Z" fill="#2463A9"/>
</g>
<defs>
<clipPath id="clip0_3362_7179">
<rect width="64" height="41.4241" fill="white" transform="translate(0 11)"/>
</clipPath>
</defs>
</svg>
