<svg width="64" height="64" viewBox="0 0 64 64" fill="none" xmlns="http://www.w3.org/2000/svg">
<rect width="64" height="64" fill="white"/>
<path d="M14.3623 49.7598H14.3645C14.3641 49.7605 14.363 49.7616 14.3623 49.762V49.7598Z" fill="#CC0113"/>
<path d="M62 2H2V62H62V2Z" fill="#8F2927"/>
<path fill-rule="evenodd" clip-rule="evenodd" d="M17.7225 6.55994H33.0255V7.90394H32.2814V14.1439H30.589V10.4359H29.3648C29.5088 10.7359 29.5808 11.0599 29.5808 11.3959C29.5808 12.6799 28.4766 13.7359 27.1084 13.7359C25.7521 13.7359 24.6359 12.6919 24.6359 11.3959C24.6359 9.96794 25.6561 9.12794 26.9883 9.10394L27.4804 9.09194H30.589V7.90394H23.7117C23.9397 8.19194 24.1078 8.51594 24.2038 8.88794C24.4318 9.72794 24.1678 10.5319 23.5196 11.1319C22.8235 11.7679 21.7673 12.0439 20.7831 11.6839L21.2512 10.0999C21.4552 10.3399 21.7913 10.3399 22.0553 10.2079C22.5954 9.94394 22.6435 9.22394 22.4754 8.71994C22.3674 8.39594 22.1874 8.11994 21.9713 7.97594C21.9353 7.95194 21.8513 7.92794 21.7553 7.90394H20.0749V11.6359C20.0869 12.5719 20.195 12.7879 21.0591 12.7999H24.2518V14.1439H20.0749C18.3706 14.1439 18.3826 12.3199 18.3826 12.2479V7.90394H17.7105V6.55994H17.7225ZM27.1204 10.4719C26.6403 10.4719 26.2562 10.8919 26.2562 11.3959C26.2562 11.9119 26.6523 12.3199 27.1204 12.3199C27.6004 12.3199 27.9845 11.8999 27.9845 11.3959C27.9845 10.8799 27.6004 10.4719 27.1204 10.4719ZM8.55264 6.41594C7.13635 6.41594 5.98412 7.48394 5.98412 8.79194C5.98412 8.86394 5.98412 8.93594 5.99613 9.00794H7.61645C7.60445 8.94794 7.60445 8.89994 7.60445 8.83994C7.60445 8.32394 8.02453 7.91594 8.55264 7.91594C9.06874 7.91594 9.50083 8.33594 9.50083 8.83994C9.50083 9.16394 9.33279 9.45194 9.06874 9.61994C8.96072 9.69194 8.76868 9.69194 8.76868 9.69194H8.24057V11.0359H8.98472C8.96072 11.0359 9.15276 11.0479 9.24878 11.1319C9.47682 11.3119 9.62085 11.5999 9.62085 11.9119C9.62085 12.4639 9.16476 12.9199 8.60065 12.9199C8.03653 12.9199 7.58044 12.4639 7.58044 11.9119C7.58044 11.7679 7.60445 11.6359 7.66446 11.5159H5.92411C5.91211 11.5999 5.91211 11.6719 5.91211 11.7559C5.91211 13.1839 7.13635 14.3479 8.63665 14.3479C9.8489 14.3479 10.8811 13.5919 11.2292 12.5479H12.0213V14.1439H13.7137V7.90394H14.7339V14.1439H16.4262V7.90394H17.0623V6.55994H16.3182L15.7541 5.28794C15.49 4.25594 14.7579 3.94394 13.7977 3.97994H12.3574V5.28794H12.8855C13.1856 5.28794 13.4616 5.28794 13.7377 5.39594C14.1938 5.57594 14.3018 5.87594 14.4338 6.29594L14.5178 6.55994H11.3972V7.90394H12.0093V11.4919H11.3372C11.2772 10.9639 11.0611 10.4839 10.7131 10.0999C10.9771 9.72794 11.1332 9.28394 11.1332 8.80394C11.1212 7.48394 9.96892 6.41594 8.55264 6.41594ZM52.8055 14.1439H54.4978V7.90394H55.518V14.1439H57.2104V7.90394H57.9185V6.55994H57.3664C57.5344 6.31994 57.6185 6.05594 57.6185 5.76794C57.6185 4.69994 56.2982 3.83594 54.6899 3.83594C53.0695 3.83594 51.7613 4.69994 51.7613 5.76794C51.7613 6.04394 51.8573 6.30794 52.0133 6.55994H46.6123V7.90394H49.1448C49.1928 7.92794 49.2408 7.95194 49.2888 7.97594C49.5648 8.13194 49.7809 8.41994 49.8769 8.75594C50.0089 9.18794 49.9609 9.72794 49.6129 10.0519C49.4208 10.2319 49.1688 10.3159 48.8807 10.2559C48.6887 10.2079 48.5206 10.0999 48.3646 9.96794V8.83994H46.6843V12.1759C46.6843 12.1759 46.6843 14.1799 48.2446 14.1799H51.6533V12.8359H49.2888C48.4126 12.8239 48.4246 12.7759 48.3886 12.0679V11.4679C48.5566 11.5879 48.7487 11.6719 48.9527 11.7079C49.7689 11.8519 50.525 11.5519 51.0531 11.0119H52.8055V14.1439ZM55.314 6.55994H54.0777C53.8257 6.42794 53.6577 6.21194 53.6577 5.95994C53.6577 5.55194 54.1258 5.21594 54.7019 5.21594C55.278 5.21594 55.7461 5.55194 55.7461 5.95994C55.7461 6.19994 55.5781 6.41594 55.314 6.55994ZM52.8055 7.90394V9.66794H51.7493C51.8453 9.07994 51.7253 8.45594 51.2932 7.90394H52.8055ZM33.9137 6.55994H39.7949C39.6269 6.31994 39.5428 6.05594 39.5428 5.77994C39.5428 4.71194 40.8631 3.84794 42.4714 3.84794C44.0797 3.84794 45.4 4.71194 45.4 5.77994C45.4 6.05594 45.304 6.31994 45.148 6.55994H45.6641V7.90394H44.7639V14.1439H43.0715V7.90394H41.9553V14.1439H40.263V10.2679H39.0747C39.3268 10.6639 39.4708 11.1319 39.4708 11.6239C39.4708 13.0519 38.2706 14.2279 36.8063 14.2279C35.342 14.2279 34.1418 13.0639 34.1418 11.6239C34.1418 11.4559 34.1538 11.2879 34.1898 11.1199H35.9781C35.9541 11.2399 35.9421 11.3599 35.9421 11.4919C35.9421 12.1759 36.3502 12.7279 36.8423 12.7279C37.3344 12.7279 37.7425 12.1759 37.7425 11.4919C37.7425 10.8439 37.3704 10.3159 36.9143 10.2679H36.0741V8.92394H40.263V7.90394H33.9257V6.55994H33.9137ZM41.8593 6.55994H43.0956C43.3476 6.42794 43.5156 6.21194 43.5156 5.95994C43.5156 5.55194 43.0475 5.21594 42.4714 5.21594C41.8953 5.21594 41.4272 5.55194 41.4272 5.95994C41.4272 6.19994 41.5952 6.41594 41.8593 6.55994ZM18.0465 54.9079V55.2199L18.0345 55.5079L18.0105 55.7839L17.9865 56.0479L17.9505 56.2999L17.9025 56.5399L17.8545 56.7679L17.7945 56.9839L17.7345 57.1879L17.6625 57.3799L17.5904 57.5599L17.5064 57.7279L17.4104 57.8839L17.3144 58.0279L17.2064 58.1599L17.0983 58.2799L16.9783 58.3879L16.8463 58.4839L16.7023 58.5799L16.5462 58.6639L16.3782 58.7479L16.1982 58.8199L16.0061 58.8919L15.8021 58.9519L15.586 59.0119L15.358 59.0599L15.118 59.0959L14.8659 59.1319L14.6018 59.1559L14.3258 59.1799L14.0257 59.1919H13.7137H12.2134H11.9013L11.6133 59.1799L11.3372 59.1559L11.0731 59.1319L10.8211 59.0959L10.581 59.0479L10.353 58.9999L10.137 58.9399L9.93291 58.8799L9.74087 58.8079L9.56084 58.7359L9.39281 58.6519L9.23677 58.5559L9.09275 58.4599L8.96072 58.3519L8.84069 58.2439L8.73267 58.1239L8.62465 57.9919L8.52863 57.8479L8.43261 57.6919L8.3486 57.5239L8.26458 57.3439L8.19257 57.1519L8.13255 56.9479L8.07254 56.7319L8.02453 56.5039L7.97652 56.2639L7.94051 56.0119L7.91651 55.7479L7.89251 55.4719L7.8805 55.1839V54.8839V52.6879V52.3879L7.89251 52.0999L7.91651 51.8239L7.94051 51.5599L7.97652 51.3079L8.02453 51.0679L8.07254 50.8399L8.13255 50.6239L8.19257 50.4199L8.26458 50.2279L8.3486 50.0479L8.43261 49.8799L8.52863 49.7239L8.62465 49.5799L8.73267 49.4479L8.84069 49.3279L8.96072 49.2199L9.09275 49.1119L9.23677 49.0159L9.39281 48.9199L9.56084 48.8359L9.74087 48.7519L9.93291 48.6799L10.137 48.6199L10.353 48.5599L10.581 48.5119L10.8211 48.4639L11.0731 48.4279L11.3372 48.4039L11.6133 48.3799L11.9013 48.3679H12.2014H13.7017H14.0137L14.3018 48.3799L14.5778 48.4039L14.8419 48.4279L15.0939 48.4639L15.334 48.5119L15.562 48.5599L15.7781 48.6199L15.9821 48.6799L16.1742 48.7519L16.3542 48.8359L16.5222 48.9199L16.6783 49.0159L16.8223 49.1119L16.9543 49.2199L17.0743 49.3279L17.1824 49.4479L17.2904 49.5799L17.3864 49.7239L17.4824 49.8799L17.5664 50.0479L17.6505 50.2279L17.7225 50.4199L17.7825 50.6239L17.8425 50.8399L17.8905 51.0679L17.9385 51.3079L17.9745 51.5599L17.9985 51.8239L18.0225 52.0999L18.0345 52.3879V52.6879V54.9079H18.0465ZM15.7301 54.6679V52.9399V52.6999V52.4839V52.2919V52.1239L15.7181 51.9799L15.7061 51.8599L15.6941 51.7519L15.6821 51.6559L15.6221 51.4399L15.514 51.2359L15.37 51.0559L15.19 50.9119L14.9859 50.8039L14.7579 50.7319L14.5178 50.6959L14.2658 50.6839H11.6613L11.4332 50.6959L11.2172 50.7319L11.0131 50.7919L10.8211 50.8759L10.6531 50.9839L10.509 51.1279L10.389 51.2959L10.305 51.4879L10.269 51.6079L10.245 51.7279L10.233 51.8719L10.221 52.0399L10.209 52.2319L10.197 52.4479V52.6879V52.9519V54.6799V54.9199V55.1359V55.3279V55.4959L10.209 55.6399L10.221 55.7599L10.233 55.8679L10.245 55.9639L10.317 56.1799L10.425 56.3839L10.569 56.5639L10.7491 56.7079L10.9531 56.8159L11.1812 56.8879L11.4212 56.9239L11.6733 56.9359H14.2778L14.5058 56.9239L14.7219 56.8879L14.9259 56.8279L15.118 56.7439L15.286 56.6239L15.43 56.4799L15.55 56.3119L15.6341 56.1199L15.6701 55.9999L15.6941 55.8679L15.7061 55.7239L15.7181 55.5559L15.7301 55.3639L15.7421 55.1479V54.9079L15.7301 54.6679ZM43.7077 53.1199H41.5832H39.0747V55.4359H41.3672L41.3552 55.5799L41.3432 55.7479L41.3312 55.8919L41.3072 56.0239L41.2712 56.1439L41.1872 56.3359L41.0671 56.5039L40.9231 56.6479L40.7551 56.7679L40.563 56.8519L40.359 56.9119L40.143 56.9479L39.9149 56.9599H37.3104L37.0583 56.9479L36.8183 56.9119L36.5902 56.8399L36.3862 56.7319L36.2062 56.5879L36.0621 56.4079L35.9541 56.2039L35.8821 55.9879L35.8701 55.8919L35.8581 55.7839L35.8461 55.6639L35.8341 55.5199V55.3519V55.1599V54.9439V54.7039V52.9759V52.7119V52.4719L35.8461 52.2559L35.8581 52.0639L35.8701 51.8959L35.8821 51.7519L35.9061 51.6319L35.9421 51.5119L36.0261 51.3199L36.1462 51.1519L36.2902 51.0079L36.4582 50.8999L36.6503 50.8159L36.8543 50.7559L37.0703 50.7199L37.2984 50.7079H39.9029L40.155 50.7199L40.395 50.7559L40.6231 50.8279L40.8271 50.9359L41.0071 51.0799L41.1512 51.2479L41.2592 51.4519L41.3192 51.6679L41.3312 51.7639L41.3432 51.8719L41.3552 51.9919C41.3552 52.1239 41.3672 52.1359 41.3672 52.2559H43.6837V52.2439L43.6477 51.8239L43.6237 51.5599L43.5877 51.3079L43.5396 51.0679L43.4916 50.8399L43.4316 50.6239L43.3716 50.4199L43.2996 50.2279L43.2156 50.0479L43.1316 49.8799L43.0355 49.7239L42.9395 49.5799L42.8315 49.4479L42.7235 49.3279L42.6035 49.2199L42.4714 49.1119L42.3274 49.0159L42.1714 48.9199L42.0033 48.8359L41.8233 48.7519L41.6313 48.6799L41.4272 48.6199L41.2112 48.5599L40.9831 48.5119L40.7431 48.4639L40.491 48.4279L40.227 48.4039L39.9509 48.3799L39.6629 48.3679H39.3508H37.8505H37.5384L37.2504 48.3799L36.9743 48.4039L36.7103 48.4279L36.4822 48.4879L36.2422 48.5359L36.0141 48.5839L35.7981 48.6439L35.594 48.7039L35.402 48.7759L35.222 48.8599L35.0539 48.9439L34.8979 49.0399L34.7539 49.1359L34.6219 49.2439L34.5018 49.3519L34.3938 49.4719L34.2858 49.6039L34.1898 49.7479L34.0938 49.9039L34.0097 50.0719L33.9257 50.2519L33.8537 50.4439L33.7937 50.6479L33.7337 50.8639L33.6857 51.0919L33.6377 51.3319L33.6017 51.5839L33.5776 51.8479L33.5536 52.1239L33.5416 52.4119V52.7119V54.9319V55.2319L33.5536 55.5199L33.5776 55.7959L33.6017 56.0599L33.6377 56.3119L33.6857 56.5519L33.7337 56.7799L33.7937 56.9959L33.8537 57.1999L33.9257 57.3919L34.0097 57.5719L34.0938 57.7399L34.1898 57.8959L34.2858 58.0399L34.3938 58.1719L34.5018 58.2919L34.6219 58.3999L34.7539 58.5079L34.8979 58.6039L35.0539 58.6999L35.222 58.7839L35.402 58.8679L35.594 58.9399L35.7981 58.9999L36.0141 59.0599L36.2422 59.1079L36.4822 59.1559L36.7343 59.1919L36.9983 59.2159L37.2744 59.2399L37.5624 59.2519H37.8625H39.3628H39.6749L39.9749 59.2399L40.251 59.2159L40.515 59.1919L40.7671 59.1559L41.0071 59.1199L41.2352 59.0719L41.4512 59.0119L41.6553 58.9519L41.8473 58.8799L42.0273 58.8079L42.1954 58.7239L42.3514 58.6399L42.4954 58.5439L42.6275 58.4479L42.7475 58.3399L42.8555 58.2199L42.9635 58.0879L43.0595 57.9439L43.1556 57.7879L43.2396 57.6199L43.3116 57.4399L43.3836 57.2479L43.4436 57.0439L43.5036 56.8279L43.5516 56.5999L43.5997 56.3599L43.6357 56.1079L43.6597 55.8439L43.6837 55.5679L43.6957 55.2799V54.9679V53.1199H43.7077ZM54.2938 55.2319V55.3759L54.2818 55.5679L54.2698 55.7359L54.2578 55.8799L54.2338 56.0119L54.1978 56.1319L54.1138 56.3239L53.9937 56.4919L53.8497 56.6359L53.6817 56.7559L53.4896 56.8399L53.2856 56.8999L53.0695 56.9359L52.8415 56.9479H50.237L49.9849 56.9359L49.7449 56.8999L49.5168 56.8279L49.3128 56.7199L49.1328 56.5759L48.9887 56.3959L48.8807 56.1919L48.8087 55.9759L48.7967 55.8799L48.7847 55.7719L48.7727 55.6519V55.5079V55.3399V55.1479V54.9319V54.6919V52.9639V52.6999V52.4599L48.7847 52.2439L48.7967 52.0519L48.8087 51.8839L48.8207 51.7399L48.8447 51.6199L48.8807 51.4999L48.9647 51.3079L49.0848 51.1399L49.2288 50.9959L49.3968 50.8879L49.5889 50.8039L49.7929 50.7439L50.0089 50.7079L50.237 50.6959H52.8415L53.0935 50.7079L53.3336 50.7439L53.5616 50.8159L53.7657 50.9239L53.9457 51.0679L54.0898 51.2479L54.1978 51.4519L54.2578 51.6679L54.2698 51.7639L54.2818 51.8719L54.2938 51.9919L54.3058 52.1359V52.3039V52.4119H56.6223V52.3879L56.6103 52.0999L56.5863 51.8239L56.5622 51.5599L56.5262 51.3079L56.4782 51.0679L56.4302 50.8399L56.3702 50.6239L56.3102 50.4199L56.2382 50.2279L56.1542 50.0479L56.0701 49.8799L55.9741 49.7239L55.8781 49.5799L55.7701 49.4479L55.6621 49.3279L55.542 49.2199L55.41 49.1119L55.266 49.0159L55.11 48.9199L54.9419 48.8359L54.7619 48.7519L54.5699 48.6799L54.3658 48.6199L54.1498 48.5599L53.9217 48.5119L53.6817 48.4639L53.4296 48.4279L53.1656 48.4039L52.8895 48.3799L52.6015 48.3679H52.2894H50.7891H50.489L50.201 48.3799L49.9249 48.4039L49.6609 48.4279L49.4088 48.4639L49.1688 48.5119L48.9407 48.5599L48.7247 48.6199L48.5206 48.6799L48.3286 48.7519L48.1486 48.8359L47.9805 48.9199L47.8245 49.0159L47.6805 49.1119L47.5484 49.2199L47.4284 49.3279L47.3204 49.4479L47.2124 49.5799L47.1164 49.7239L47.0203 49.8799L46.9363 50.0479L46.8523 50.2279L46.7803 50.4199L46.7203 50.6239L46.6603 50.8399L46.6123 51.0679L46.5642 51.3079L46.5282 51.5599L46.5042 51.8239L46.4802 52.0999L46.4682 52.3879V52.6879V54.9079V55.2079L46.4802 55.4959L46.5042 55.7719L46.5282 56.0359L46.5642 56.2879L46.6123 56.5279L46.6603 56.7559L46.7203 56.9719L46.7803 57.1759L46.8523 57.3679L46.9363 57.5479L47.0203 57.7159L47.1164 57.8719L47.2124 58.0159L47.3204 58.1479L47.4284 58.2679L47.5484 58.3759L47.6805 58.4839L47.8245 58.5799L47.9805 58.6759L48.1486 58.7599L48.3286 58.8319L48.5206 58.9039L48.7247 58.9639L48.9407 59.0239L49.1688 59.0719L49.4088 59.1199L49.6609 59.1559L49.9249 59.1799L50.201 59.2039L50.489 59.2159H50.7891H52.2894H52.6015L52.9015 59.2039L53.1776 59.1799L53.4416 59.1559L53.6937 59.1199L53.9337 59.0839L54.1618 59.0359L54.3778 58.9759L54.5818 58.9159L54.7739 58.8439L54.9539 58.7719L55.122 58.6879L55.278 58.6039L55.422 58.5079L55.554 58.4119L55.6741 58.3039L55.7821 58.1839L55.8901 58.0519L55.9861 57.9079L56.0821 57.7519L56.1662 57.5839L56.2502 57.4039L56.3222 57.2119L56.3822 57.0079L56.4422 56.7919L56.4902 56.5639L56.5382 56.3239L56.5743 56.0719L56.5983 55.8079L56.6223 55.5319L56.6343 55.2439H54.2938V55.2319ZM30.8891 52.1839C30.8771 50.8639 30.373 49.8679 29.6049 49.2199C29.1728 48.8479 28.7647 48.6439 28.3206 48.5359C27.8765 48.4279 27.4084 48.4039 26.8443 48.3799C26.1242 48.3559 25.428 48.3319 24.7679 48.6919C24.1558 49.0279 23.5796 49.5559 23.1596 50.0959V48.3919H20.9991V59.0839H23.3036V53.4799C23.3156 52.3759 23.8077 51.5959 24.4918 51.1279C25.0919 50.7199 25.6921 50.6359 26.4002 50.6599C27.5884 50.6959 28.3686 51.3679 28.5606 52.4119C28.6447 52.8679 28.5846 53.3599 28.5846 53.8279V59.0959H30.8891V52.1839ZM45.9161 36.2839C45.9761 36.1759 46.0001 36.0439 46.0361 35.9239C46.1202 35.6719 46.1922 35.4199 46.2522 35.1799C46.5882 33.8959 46.7803 32.5399 46.7683 31.2079C46.7203 27.1399 45.0279 23.4679 42.3274 20.8279C39.7589 18.3079 36.2782 16.7239 32.4494 16.6159L32.4614 17.5879C36.0261 17.6959 39.2548 19.1719 41.6433 21.5119C44.1638 23.9839 45.7481 27.4159 45.7961 31.2199C45.8081 32.4679 45.6281 33.7399 45.316 34.9399C45.28 35.0599 45.256 35.1799 45.22 35.2999L36.7103 35.3839C36.4822 35.4079 36.3622 35.2519 36.3622 34.8919L35.7501 32.0119L32.6535 17.4799L32.4734 17.4679L32.5694 42.4159C32.4134 42.3919 32.2454 42.3799 32.0773 42.3799C31.8973 42.3799 31.7173 42.3919 31.5492 42.4279L31.3692 17.4679L31.1892 17.4799L28.2606 32.0479L27.6845 34.9279C27.6845 35.2879 27.5644 35.4199 27.3364 35.4199L18.8267 35.4319C18.7907 35.3119 18.7547 35.2039 18.7307 35.0719C18.4066 33.8719 18.2026 32.5999 18.2026 31.3639C18.2026 27.5599 19.7509 24.1159 22.2354 21.6079C24.5998 19.2439 27.8165 17.7199 31.3692 17.5759V16.6039C27.5404 16.7599 24.0837 18.3799 21.5392 20.9239C18.8747 23.5999 17.2184 27.2959 17.2184 31.3519C17.2184 32.6719 17.4224 34.0399 17.7825 35.3119C17.8545 35.5519 17.9265 35.7919 18.0105 36.0439C18.0465 36.1639 18.0705 36.2839 18.1306 36.3919C18.3466 36.7879 18.2266 36.6319 19.1388 36.6439L28.4406 36.5959C28.6447 36.6079 28.7527 36.4519 28.7887 35.8999L30.301 24.9319L30.385 37.6519H28.9207H28.8487H18.8267L19.5228 38.6239H26.9883C25.9201 39.3319 24.9599 40.2319 24.2038 41.2639C23.9757 41.5879 23.7597 41.9119 23.5676 42.2479C23.3756 42.5839 23.2076 42.9199 23.0515 43.2799V43.2919L24.0597 43.7839C24.0597 43.7959 24.0597 43.7959 24.0597 43.7839L24.0957 43.7119C24.2278 43.3999 24.3838 43.0879 24.5518 42.7879C24.7319 42.4879 24.9119 42.1879 25.1159 41.9119C26.1602 40.4839 27.6245 39.3319 29.2448 38.6839C29.3408 38.6479 29.4248 38.6119 29.5328 38.5999H30.433L30.445 40.1119C28.9207 40.5079 27.5764 41.4559 26.6763 42.7399C26.4722 43.0279 26.2922 43.3399 26.1362 43.6639C25.9801 43.9879 25.8481 44.3239 25.7521 44.6719V44.6839L26.8323 44.9839V44.9719C26.9163 44.6959 27.0243 44.4199 27.1564 44.1439C27.2884 43.8799 27.4324 43.6279 27.6125 43.3759C28.3086 42.3919 29.3168 41.6359 30.469 41.2639L30.481 42.7519C29.4968 43.3159 28.8367 44.3839 28.8367 45.5959V45.7519L35.39 45.7279V45.5959C35.39 44.3719 34.7059 43.2919 33.7097 42.7399L33.6977 41.2639C34.8499 41.6239 35.8701 42.3559 36.5782 43.3399C36.7463 43.5799 36.9023 43.8319 37.0343 44.0959C37.1664 44.3599 37.2744 44.6359 37.3584 44.9119V44.9239L38.4386 44.6119C38.4386 44.5999 38.4386 44.5999 38.4386 44.5999C38.3306 44.2519 38.1986 43.9159 38.0425 43.5919C37.8865 43.2679 37.6945 42.9679 37.4904 42.6799C36.5782 41.4079 35.222 40.4719 33.6857 40.0999L33.6737 38.5879L34.4298 38.5759C34.7779 38.5759 34.8739 38.6359 35.114 38.7559C36.6503 39.4039 38.0185 40.4839 39.0387 41.8279C39.2428 42.1039 39.4348 42.3919 39.6149 42.6919C39.7949 42.9919 39.9509 43.3039 40.083 43.6159L40.119 43.6879C40.119 43.6999 40.119 43.6999 40.119 43.6879L41.1152 43.1839V43.1719C40.9591 42.8119 40.7791 42.4759 40.5871 42.1399C40.395 41.8039 40.179 41.4799 39.9389 41.1679C39.1708 40.1479 38.2106 39.2479 37.1304 38.5639H44.5958L45.28 37.5799C41.4152 37.6039 37.5264 37.5799 33.6857 37.6279L33.6257 24.9079L35.27 35.8519C35.306 36.4159 35.438 36.5599 35.6301 36.5479L44.9319 36.4879C45.8081 36.5239 45.7001 36.6799 45.9161 36.2839Z" fill="white"/>
</svg>
