<svg width="64" height="64" viewBox="0 0 64 64" fill="none" xmlns="http://www.w3.org/2000/svg">
<path d="M31.1904 20.0705C31.0285 20.1135 30.5683 20.2082 30.1678 20.2857C29.7672 20.3631 29.1963 20.475 28.8895 20.5439C27.2107 20.8796 25.3188 21.2325 24.5007 21.3616C24.049 21.4305 23.0605 21.6199 21.9867 21.835C21.6373 21.9039 21.1174 22.0072 20.8362 22.0502C20.555 22.1019 20.1885 22.1794 20.0266 22.2224C19.7369 22.2999 18.7142 22.4892 17.0865 22.7819C15.5356 23.0573 14.8623 23.1779 14.4447 23.2639C14.2146 23.307 13.5244 23.4447 12.9108 23.5652C11.3939 23.8665 10.8059 23.9784 9.41678 24.2366C8.76059 24.3571 7.91691 24.5121 7.54194 24.5809C7.16698 24.6584 6.7494 24.7273 6.60453 24.7531C6.13582 24.8219 4.52517 25.1318 2.64181 25.5192C2.05379 25.6397 1.21864 25.8032 0.792543 25.8807C0.357923 25.9668 0 26.0787 0 26.1303C0 26.182 0.153395 26.5951 0.349401 27.0427C0.536884 27.4903 0.724367 27.9379 0.766977 28.0326C0.809587 28.1273 0.997071 28.5491 1.19308 28.9709C1.38908 29.3926 1.64474 29.9608 1.76405 30.219C1.87483 30.4858 2.00266 30.7785 2.04527 30.8732C2.08788 30.9679 2.19867 31.2347 2.30093 31.4757C2.53103 32.018 2.62477 32.2418 3.06791 33.1887C3.25539 33.6104 3.57071 34.3249 3.75819 34.7811C3.94567 35.2373 4.2269 35.8743 4.38881 36.21C4.88309 37.2601 5.17284 37.9143 5.49667 38.7062C5.66711 39.128 6.01651 39.9027 6.26365 40.4278C6.51079 40.9442 6.80053 41.5898 6.9028 41.8481C7.16698 42.5109 7.20107 42.5883 7.53342 43.3372L7.84021 44H32H56.1683L56.2961 43.6729C56.3728 43.5008 56.5007 43.1995 56.5774 43.0101C56.6626 42.8207 56.8415 42.4162 56.9694 42.1063C57.1057 41.7964 57.3955 41.1422 57.6256 40.643C58.1795 39.4379 58.2391 39.3002 58.4607 38.7493C58.563 38.491 58.7931 37.966 58.972 37.5872C59.3726 36.7351 59.6794 36.055 59.9435 35.4095C60.0543 35.1426 60.31 34.5745 60.506 34.1441C60.702 33.7223 60.9491 33.1801 61.0599 32.939C61.1707 32.7066 61.4178 32.1213 61.6138 31.6479C61.8184 31.1745 62.1422 30.417 62.3553 29.9694C62.5598 29.5218 62.7643 29.0742 62.8069 28.9795C62.8495 28.8848 63.0029 28.5405 63.1393 28.222C63.2842 27.8949 63.4035 27.6108 63.4035 27.585C63.4035 27.5592 63.5398 27.2493 63.7017 26.8964C63.8636 26.5435 64 26.1992 64 26.1303C64 26.0012 64.0085 26.0012 62.6791 25.743C61.2474 25.4675 60.6083 25.347 59.8668 25.1921C58.955 25.0027 57.9238 24.8133 57.3529 24.7273C57.0972 24.6842 56.6711 24.6153 56.4154 24.5637C56.1598 24.5121 55.4865 24.3829 54.9241 24.2796C54.3616 24.185 53.535 24.0214 53.0919 23.9267C51.4471 23.591 49.7683 23.2639 49.1718 23.1779C48.9161 23.1348 48.49 23.066 48.2344 23.0057C47.9787 22.9541 47.2117 22.8163 46.53 22.6872C45.8482 22.5667 45.0301 22.4118 44.6977 22.3515C44.1353 22.2396 43.82 22.1794 42.0985 21.835C41.2122 21.6543 40.1726 21.4649 39.5419 21.3702C39.2863 21.3272 38.6301 21.2067 38.0932 21.1034C35.869 20.6902 35.2213 20.5611 33.8748 20.2857C32.5454 20.0102 32.4176 19.993 31.9574 20.0016C31.7017 20.0016 31.3523 20.036 31.1904 20.0705ZM57.1142 28.6093C57.0972 28.9192 57.0205 29.4271 56.9438 29.7284L56.7989 30.2706L55.9893 30.262C55.5462 30.262 54.4128 30.2276 53.4839 30.1846L51.788 30.1157L51.8391 30.3223C51.8732 30.4428 51.9158 30.7613 51.9499 31.0367L52.0096 31.536L52.572 31.4843C52.8788 31.4585 53.4839 31.3983 53.9015 31.3552C54.8985 31.2433 54.9838 31.295 55.1286 32.0869C55.2138 32.5603 55.2138 32.6808 55.1201 32.7669C55.0605 32.8271 54.5491 33.0165 53.9867 33.1973C53.4242 33.378 52.93 33.5502 52.8788 33.5846C52.8362 33.6191 52.6828 33.6707 52.555 33.7051C52.3334 33.7568 52.3164 33.7826 52.3419 34.17L52.3675 34.5745L52.751 34.5659C53.1174 34.5573 53.6543 34.454 55.0093 34.1355C55.3417 34.0581 55.7252 33.9892 55.8615 33.9806C56.1087 33.972 56.1172 33.9892 56.1427 34.3938C56.1598 34.6176 56.1257 35.0049 56.0746 35.2545C56.0234 35.4955 55.9467 35.9173 55.9041 36.2014C55.7763 37.088 56.0405 37.0277 52.1033 37.0277C48.9161 37.0277 48.6604 37.0191 48.5838 36.8728C48.49 36.692 48.4218 28.2478 48.5156 28.0929C48.5752 28.0154 49.4956 27.9896 52.8618 28.0068L57.1398 28.0326L57.1142 28.6093ZM43.6154 28.179C43.6751 28.2564 43.6666 28.5663 43.5814 29.1947C43.4109 30.4084 43.2149 32.0094 43.1212 32.853C43.0871 33.2317 43.0274 33.7482 42.9933 33.9892C42.9252 34.5057 42.9337 34.5057 43.5899 34.3593C45.4732 33.9289 46.743 33.6707 46.9731 33.6707C47.2628 33.6707 47.331 33.8687 47.2202 34.3765C47.1776 34.5745 47.0754 35.0565 46.9987 35.4353C46.922 35.814 46.8027 36.3305 46.726 36.5715L46.5981 37.0277L43.6495 37.0449C39.7294 37.0708 39.8146 37.0794 39.7465 37.0019C39.6698 36.9244 39.4482 32.414 39.3459 28.8504L39.3289 28.2048L39.9254 28.1531C41.1696 28.0498 43.5217 28.0671 43.6154 28.179ZM24.6626 28.2478C24.816 28.3081 24.8927 28.4114 24.9353 28.6524C24.9609 28.8331 25.0375 29.1516 25.0972 29.3668C25.1569 29.582 25.2676 29.978 25.3443 30.2534C25.6511 31.3983 25.7534 31.7426 25.8216 31.9061C25.8642 32.0008 25.9324 32.2332 25.975 32.4226C26.0261 32.6119 26.2051 33.292 26.3755 33.9289C26.5545 34.5659 26.7249 35.2287 26.7675 35.3923C26.8953 35.9431 27.0828 36.6404 27.134 36.7781C27.2533 37.0622 26.9976 37.1224 25.6426 37.0966L24.3302 37.0708L24.1342 36.6576L23.9467 36.253H21.9867C19.8221 36.253 19.9755 36.2186 19.575 36.8556C19.4727 37.0191 19.2937 37.1741 19.1744 37.2085C18.9103 37.286 16.8479 37.3032 16.669 37.2343C16.4644 37.1568 16.5071 36.9158 16.8309 36.2702C16.9928 35.9518 17.2655 35.3836 17.436 35.0049C17.6064 34.6262 17.9814 33.8084 18.2796 33.1973C18.5694 32.5775 18.8932 31.8803 19.004 31.6479C19.1148 31.4069 19.5153 30.5547 19.9073 29.737L20.6232 28.2564L21.2794 28.222C22.8048 28.1617 24.4581 28.1704 24.6626 28.2478ZM35.7071 28.3769C36.5933 28.7643 37.2154 29.3496 37.5137 30.0813C37.9398 31.14 37.42 32.5517 36.4229 33.0682C36.1928 33.1887 35.9883 33.292 35.9712 33.3006C35.9371 33.3178 36.2695 34.0494 36.9939 35.5042C37.3177 36.1583 37.5819 36.7523 37.5819 36.8125C37.5819 36.8814 37.5052 36.9761 37.42 37.0277C37.2495 37.1138 34.4458 37.1482 34.1305 37.0622C34.0368 37.0363 33.4658 36.3994 32.8522 35.6505C32.2471 34.9016 31.7188 34.2819 31.6932 34.2819C31.6676 34.2732 31.5654 34.8586 31.4802 35.573C31.3949 36.2875 31.2842 36.933 31.233 37.0019C31.1563 37.1052 30.8581 37.1396 29.8184 37.1827C28.6679 37.2171 28.4889 37.2085 28.3867 37.0794C28.31 36.9847 28.2503 36.4768 28.1992 35.4095C28.1566 34.5745 28.0799 33.5588 28.0373 33.1542C27.9947 32.7497 27.9521 32.1471 27.9521 31.8114C27.9521 31.4757 27.9265 30.9593 27.9009 30.6666L27.8413 30.1415H27.2959C26.8868 30.1415 26.7419 30.1071 26.7079 30.0124C26.6738 29.9349 26.6482 29.5304 26.6397 29.1C26.6312 28.4974 26.6567 28.3081 26.759 28.2478C26.8357 28.1876 28.4549 28.1704 31.1052 28.1876C35.0509 28.2048 35.3491 28.222 35.7071 28.3769ZM15.4503 28.4028C16.1747 28.5835 16.9246 28.9967 17.2996 29.4357C17.8791 30.0985 18.024 30.4342 18.024 31.1745C18.024 31.9578 17.8961 32.2332 17.2229 32.896C16.294 33.8084 15.1435 34.213 13.1238 34.3335L11.9734 34.4024L11.9137 35.134C11.837 36.1583 11.7007 37.1224 11.6154 37.1999C11.5814 37.2343 11.0104 37.286 10.3457 37.3204C9.39121 37.3634 9.11851 37.3462 8.99068 37.2515C8.84581 37.1482 8.81172 36.9416 8.7265 35.9001C8.48788 33.0854 8.43675 32.4656 8.34301 31.5188C8.29188 30.9765 8.23222 30.4772 8.21518 30.417C8.19814 30.3481 8.01065 30.3137 7.6783 30.3137C7.26072 30.3137 7.14993 30.2792 7.07324 30.1501C6.95393 29.9091 6.96245 28.4802 7.09028 28.3511C7.23515 28.2048 14.8538 28.2564 15.4503 28.4028Z" fill="#FF0000"/>
<path d="M22.0212 31.9231C21.9359 32.1469 21.6973 32.6634 21.5013 33.0593C21.3053 33.4639 21.169 33.8254 21.186 33.8598C21.2457 33.9545 22.8222 33.9459 22.8819 33.8426C22.9074 33.7996 22.8307 33.4208 22.72 33.0077C22.6007 32.5945 22.4643 32.0866 22.4132 31.88C22.362 31.6821 22.2939 31.5185 22.2513 31.5185C22.2172 31.5185 22.1064 31.6993 22.0212 31.9231Z" fill="#FF0000"/>
<path d="M32.0936 30.5029C31.9743 30.8902 31.8721 31.4669 31.8721 31.7338V32.0522L32.409 31.992C32.6987 31.9662 33.0651 31.9059 33.2271 31.8629C33.8747 31.6907 34.1304 31.0968 33.7043 30.7525C33.3293 30.4598 32.1618 30.279 32.0936 30.5029Z" fill="#FF0000"/>
<path d="M12.4424 30.7009C12.4083 30.7439 12.3571 30.9763 12.3316 31.2173C12.2975 31.4497 12.2549 31.7596 12.2208 31.8973L12.1611 32.147L12.9281 32.1039C13.7547 32.0695 14.1638 31.8801 14.3172 31.467C14.428 31.1915 14.3428 31.0194 14.0274 30.8472C13.7207 30.6837 12.5446 30.5718 12.4424 30.7009Z" fill="#FF0000"/>
</svg>
