<svg width="40" height="40" viewBox="0 0 40 40" fill="none" xmlns="http://www.w3.org/2000/svg">
<path d="M21.9997 35.6165C20.8997 37.0832 19.0997 37.0832 17.9997 35.6165L15.4997 32.2832C15.2163 31.9165 14.6163 31.6165 14.1663 31.6165H13.333C6.66634 31.6165 3.33301 29.9499 3.33301 21.6165V13.2832C3.33301 6.61654 6.66634 3.2832 13.333 3.2832H26.6663C33.333 3.2832 36.6663 6.61654 36.6663 13.2832V21.6165" stroke="black" stroke-width="1.5" stroke-miterlimit="10" stroke-linecap="round" stroke-linejoin="round"/>
<path d="M30.3334 35.6667C33.2789 35.6667 35.6667 33.2788 35.6667 30.3333C35.6667 27.3878 33.2789 25 30.3334 25C27.3878 25 25 27.3878 25 30.3333C25 33.2788 27.3878 35.6667 30.3334 35.6667Z" stroke="black" stroke-width="1.5" stroke-linecap="round" stroke-linejoin="round"/>
<path d="M36.6667 36.6667L35 35" stroke="black" stroke-width="1.5" stroke-linecap="round" stroke-linejoin="round"/>
<path d="M26.6611 18.3333H26.6761" stroke="#292D32" stroke-width="2" stroke-linecap="round" stroke-linejoin="round"/>
<path d="M19.9921 18.3333H20.0071" stroke="#292D32" stroke-width="2" stroke-linecap="round" stroke-linejoin="round"/>
<path d="M13.3242 18.3333H13.3391" stroke="#292D32" stroke-width="2" stroke-linecap="round" stroke-linejoin="round"/>
</svg>
