<svg width="40" height="40" viewBox="0 0 40 40" fill="none" xmlns="http://www.w3.org/2000/svg">
<path d="M19.9999 36.666H28.3333C33.3333 36.666 36.6666 33.3327 36.6666 28.3327V19.9993C36.6666 15.4993 33.8333 12.166 29.6666 11.666C29.3333 11.666 28.8333 11.666 28.3333 11.666H11.6666C11.1666 11.666 10.8332 11.666 10.3332 11.8326C5.99991 12.3326 3.33325 15.4993 3.33325 19.9993C3.33325 20.4993 3.33325 21.166 3.33325 21.666" stroke="black" stroke-width="1.5" stroke-linecap="round" stroke-linejoin="round"/>
<path d="M29.6666 11.6667C29.3333 11.6667 28.8333 11.6667 28.3333 11.6667H11.6666C11.1666 11.6667 10.8333 11.6666 10.3333 11.8333C10.4999 11.3333 10.8333 11 11.3333 10.5L16.6666 5C18.9999 2.66667 22.6666 2.66667 24.9999 5L27.9999 7.99998C28.9999 8.99998 29.4999 10.3333 29.6666 11.6667Z" stroke="black" stroke-width="1.5" stroke-linecap="round" stroke-linejoin="round"/>
<path d="M36.6666 20.834H31.6666C29.8333 20.834 28.3333 22.334 28.3333 24.1673C28.3333 26.0007 29.8333 27.5007 31.6666 27.5007H36.6666" stroke="black" stroke-width="1.5" stroke-linecap="round" stroke-linejoin="round"/>
<path d="M9.66928 35.6667C12.6193 35.6667 15.0026 33.2834 15.0026 30.3334C15.0026 27.3834 12.6193 25 9.66928 25C6.71928 25 4.33594 27.3834 4.33594 30.3334C4.33594 33.2834 6.71928 35.6667 9.66928 35.6667Z" stroke="black" stroke-width="1.5" stroke-linecap="round" stroke-linejoin="round"/>
<path d="M3.33325 36.6667L4.99992 35" stroke="#292D32" stroke-width="1.5" stroke-linecap="round" stroke-linejoin="round"/>
</svg>
