<svg width="64" height="64" viewBox="0 0 64 64" fill="none" xmlns="http://www.w3.org/2000/svg">
<g clip-path="url(#clip0_621_1420)">
<path fill-rule="evenodd" clip-rule="evenodd" d="M26.1413 25.025C26.1413 25.025 26.2266 28.6161 22.4564 28.6502C22.2175 28.6587 21.7655 28.6587 21.5266 28.6417C21.5266 28.6417 22.7208 28.2408 22.8146 27.1319C22.8232 26.9783 22.8232 26.7992 22.8232 26.6115V23.7114C22.8232 23.7114 22.5587 20.3165 25.9878 19.8473C26.201 19.8047 28.1032 19.5488 29.2377 19.6341C29.2377 19.6341 26.1584 20.1373 26.1498 22.1333L26.1413 22.0651V25.025ZM25.9195 16.5548C26.4996 18.747 29.2377 19.037 29.2377 19.037C27.6043 19.0299 26.4164 18.806 26.0626 18.7393C25.9897 18.7255 25.9522 18.7184 25.9536 18.7214C24.8789 18.4313 22.917 17.7916 22.9255 14.772C22.934 11.3856 25.7063 10.7885 26.4569 10.6862C26.6446 10.6606 26.8663 10.635 27.0881 10.635H29.2462C29.2462 10.635 26.491 10.7544 25.9281 12.9637V12.9551C25.7233 14.0043 25.638 15.0706 25.9195 16.5548ZM34.2703 12.0339V26.6371C34.2868 27.7873 35.395 28.0275 35.4768 28.036H29.8177C29.8177 28.036 30.9692 27.8399 31.0545 26.731V11.9315C30.9692 10.8312 29.8177 10.6265 29.8177 10.6265H31.0545H34.2703H35.4816C35.4816 10.6265 34.2874 10.8397 34.2703 12.0339ZM35.4816 28.036H35.4768C35.4799 28.0364 35.4816 28.0364 35.4816 28.036ZM42.5017 27.1319C42.5955 28.2493 43.7897 28.6417 43.7897 28.6417C43.5424 28.6587 43.0903 28.6587 42.86 28.6587C39.0897 28.6161 39.175 25.025 39.175 25.025V22.0651L39.1665 22.1333C39.158 20.1373 36.0787 19.6341 36.0787 19.6341C37.2046 19.5488 39.1153 19.8132 39.3286 19.8473C42.7576 20.3165 42.4932 23.7114 42.4932 23.7114V26.6115C42.4932 26.7992 42.4932 26.9698 42.5017 27.1319ZM39.3968 16.5548C38.8168 18.747 36.0787 19.037 36.0787 19.037C37.6737 19.03 38.8459 18.8145 39.2331 18.7433C39.3221 18.7269 39.3696 18.7182 39.3712 18.7214C40.446 18.4313 42.4079 17.7916 42.3993 14.772C42.3908 11.3856 39.6186 10.7885 38.868 10.6862C38.6803 10.6606 38.4585 10.635 38.2367 10.635H36.0787C36.0787 10.635 38.8253 10.7544 39.3883 12.9637V12.9551C39.593 14.0043 39.6783 15.0706 39.3968 16.5548ZM26.2351 35.2779L26.2437 35.3377L26.2266 35.4144L22.1237 51.0498L22.0043 51.391L21.9616 51.5019C21.211 53.5149 18.507 53.9158 17.4152 52.1331L17.3811 52.0819L17.3384 52.0137L17.3299 51.9881L17.3128 51.971C17.0996 51.5957 16.6646 50.5721 17.0399 50.1968L17.1081 50.1285L17.1337 50.103L17.1508 50.0859L17.2446 50.0177L17.4408 49.9068L17.654 49.7959L17.944 49.6679L18.2085 49.557L18.4814 49.4632L18.78 49.3779L19.0871 49.3097L19.1297 49.3011H19.1809L19.2065 49.3182L19.2747 49.3267L19.3174 49.3438L19.3685 49.395C19.3981 49.4793 19.4288 49.5787 19.4621 49.6868L19.4621 49.6868C19.6884 50.4205 20.0365 51.5488 20.9807 50.9986L21.0063 50.9901L21.1342 50.8962L21.2281 50.7939L21.3048 50.6915L21.3816 50.5636L21.4157 50.4953L21.4328 50.4783C21.6546 49.9494 21.7655 49.2073 21.8337 48.6358V48.6017L21.8422 48.5846V48.559L21.8508 48.542V48.5079L21.8593 48.4908V48.4652L21.8678 48.4482V48.3884L21.8593 48.3714L21.8252 48.3629H21.7825L21.7569 48.3543H21.6972L21.6802 48.3458H21.6375L21.5351 48.3287L21.4669 48.3031L21.4413 48.2861L21.4243 48.269L21.3901 48.2349L21.3475 48.1667L21.2707 47.9619L19.5136 43.0316L19.505 43.0061L19.4453 42.844L17.6199 37.6663L17.5687 37.5896L17.5517 37.5725L17.5261 37.5469L17.4408 37.4957L17.3384 37.4531C17.1782 37.3958 16.9719 37.4018 16.7729 37.4075C16.527 37.4145 16.2924 37.4212 16.1698 37.3081L16.1442 37.291L16.1272 37.2825L16.1186 37.2654L16.1016 37.2484L16.076 37.1972L16.0504 37.1204V37.0351L16.076 36.9413L16.1101 36.873L16.1442 36.8304L16.2381 36.7707L16.4257 36.6769L16.4598 36.6513L16.639 36.566L16.6731 36.5404L16.8437 36.4551L16.8778 36.4295L18.3364 35.7044L19.1382 35.3121L19.2065 35.2865L19.2491 35.2779H19.2747L19.3259 35.2865L19.3515 35.295L19.3941 35.3377L19.4197 35.3803L19.4709 35.4997L19.4965 35.5765L22.5502 44.422V44.4647L22.5843 44.55L22.6099 44.5841L22.644 44.6097L22.6782 44.6182L22.7293 44.6097L22.772 44.5756L22.7805 44.5585L22.7976 44.5414L22.8232 44.4988L22.8488 44.422L24.7253 35.8239L24.7765 35.7641L24.8021 35.7386L24.8362 35.7044L24.8533 35.6959L24.8703 35.6788L24.8874 35.6703L24.9045 35.6533L24.9215 35.6447L24.9386 35.6277C25.2115 35.3974 25.6807 35.1926 26.0389 35.1841L26.1498 35.2012L26.1925 35.2182L26.2181 35.2438L26.2351 35.2779ZM45.2739 47.3137L45.7175 47.0492L45.9222 46.8957L45.9393 46.8786C47.3552 45.8892 47.2614 42.0592 47.1761 40.4556L47.1676 40.4385V40.3703L47.159 40.3532C47.1351 39.9225 47.1037 39.4992 47.0719 39.0694L47.0718 39.0693L47.0718 39.0691L47.0652 38.9799V38.9373L47.0567 38.9202V38.8776C46.9799 38.0416 46.852 37.2739 46.3914 36.5489L46.3061 36.4295L46.289 36.4124C45.8881 35.9006 45.2228 35.2097 44.5062 35.2694L44.4892 35.2779H44.4295L44.3612 35.2865L44.3356 35.295H44.3015L44.148 35.3291C40.9151 36.566 40.2072 38.6217 40.0366 41.8289V41.9142L40.028 41.9313C39.8148 44.55 40.3522 50.3503 44.3101 47.8681L44.3442 47.8425L44.3698 47.834L44.8218 47.5781L45.2739 47.3137ZM44.8133 44.7973L44.8048 44.8315V44.8656L44.711 45.3518L44.6257 45.71C44.4977 46.2304 43.9603 47.8852 43.2268 46.836L43.167 46.7336L43.1585 46.708C42.7064 45.8721 42.5273 44.5926 42.442 43.6117L42.4335 43.5946V43.5605L42.4249 43.5434C42.3311 42.3151 42.3396 41.0612 42.4761 39.8329V39.8073L42.5358 39.3552L42.587 39.014L42.6808 38.5534C43.8238 34.1691 44.9583 38.7752 44.9754 40.5324L44.9839 40.5494V40.6091C45.0777 41.9398 45.0351 43.3217 44.8389 44.6438L44.8304 44.6779L44.8218 44.712L44.8133 44.7718V44.7973ZM51.7993 37.8625L51.7908 37.8795L51.7396 38.0246L51.6287 38.2037L51.5264 38.3999L51.4581 38.5364L51.4325 38.6131L51.3984 38.7581L51.3643 38.997V39.0226L51.3589 39.0628C51.3438 39.1743 51.3302 39.275 51.3302 39.3893L51.3216 39.4064V47.0919C51.3023 47.2527 51.1133 47.3698 50.9594 47.4652C50.9091 47.4964 50.8626 47.5252 50.8269 47.5525L50.7757 47.5866L50.6819 47.6548L50.6222 47.689L50.5284 47.7487C50.4351 47.8098 50.3418 47.8697 50.249 47.9293L50.2487 47.9295L50.2484 47.9297L50.2481 47.9299C50.095 48.0281 49.9433 48.1256 49.7948 48.2264L49.7436 48.2605L49.6498 48.3202L49.6375 48.3281C49.5162 48.4063 49.3126 48.5377 49.1806 48.414L49.1636 48.4055L49.1465 48.3799L49.1295 48.3628L49.1124 48.3202V48.2946L49.1039 48.269V46.981L49.0953 46.9639V45.5138L49.0868 45.4968V44.0467L49.0783 44.0296V42.5795L49.0697 42.5625V41.1039L49.0612 41.0868V39.6367L49.0527 39.6197V38.289L49.0442 38.2634V38.1952L49.0356 38.1781V38.1099L49.01 37.9478L48.9589 37.7857L48.8991 37.6492L48.848 37.5725L48.8309 37.5298L48.8139 37.5128L48.7712 37.4531C48.5391 37.1345 48.1856 37.1534 47.8675 37.1704C47.5893 37.1853 47.3381 37.1988 47.2188 36.9839L47.2017 36.9242V36.8474L47.2188 36.7962L47.2358 36.7707L47.2529 36.7536L47.2785 36.7195L47.3467 36.6512L47.4405 36.583L47.5685 36.5148L48.2168 36.2162L49.7436 35.4997L49.846 35.4571L49.9654 35.4229L50.0933 35.4059H50.1786L50.2981 35.4229L50.3919 35.4571L50.4431 35.4826L50.4601 35.4997C50.5369 35.5253 50.6734 35.6618 50.716 35.7385L50.7331 35.7556L50.7928 35.858L50.8951 36.0712L51.2961 37.0863L51.3302 37.146L51.3728 37.1886L51.424 37.2057H51.4667L51.5093 37.1886L51.5861 37.163L51.6031 37.146L51.7396 37.018L51.7567 36.9924L51.9017 36.8474L51.9102 36.8304L52.0637 36.6768C52.117 36.6091 52.1811 36.5414 52.2438 36.4752L52.2439 36.4752C52.2917 36.4247 52.3387 36.3751 52.3794 36.3271L52.4476 36.2674L52.4561 36.2503L52.5158 36.1906L52.5244 36.1736C52.6044 36.0869 52.6809 36.0026 52.7544 35.9214C53.6296 34.9558 54.098 34.439 55.3648 35.8238L55.3734 35.8409L55.3904 35.858L55.3989 35.875L55.5695 36.0968L55.6037 36.1565C56.3428 37.003 56.2023 38.3736 56.0728 39.6375C56.0274 40.0801 55.9834 40.5097 55.979 40.8991V40.9162V40.9589L55.9705 40.9759C55.9492 41.2566 55.9279 41.5351 55.9067 41.8136C55.8853 42.0938 55.8639 42.374 55.8425 42.6563V42.699L55.834 42.716C55.8169 42.9932 55.7956 43.2703 55.7743 43.5475V43.5475V43.5476V43.5476V43.5477L55.7742 43.5485V43.5485V43.5486V43.5487C55.7529 43.8256 55.7316 44.1025 55.7146 44.3794L55.706 44.3964V44.4476V44.4646V44.5073L55.6975 44.5244V44.567L55.689 44.5841V44.6267C55.6677 44.9074 55.6464 45.1859 55.6252 45.4645C55.6038 45.7446 55.5824 46.0248 55.561 46.3071L55.5525 46.3242V46.4095L55.5695 46.4265L55.5951 46.4351L55.6975 46.4436L55.9278 46.4777L55.9875 46.4862L56.0472 46.5033L56.1155 46.5289L56.1325 46.546L56.1411 46.5545L56.1496 46.5715L56.1581 46.5801L56.1752 46.6483V46.6739L56.1837 46.691V46.7848L56.1666 46.836L56.1496 46.8616L56.1155 46.8957L53.71 48.2861L53.5735 48.3458L53.4712 48.3714L53.3774 48.3799L53.3006 48.3628L53.275 48.3543L53.2579 48.3372L53.2494 48.3287L53.2153 48.2775C53.199 48.1907 53.2069 48.1038 53.2148 48.017C53.2193 47.9673 53.2238 47.9177 53.2238 47.8681L53.2323 47.851V47.8084C53.2353 47.7789 53.2372 47.7473 53.2392 47.7152C53.2429 47.6543 53.2468 47.5912 53.2579 47.5354V47.4928L53.2665 47.4672V47.4245L53.275 47.4075V47.3648C53.321 46.8297 53.3629 46.2947 53.4047 45.7606L53.4047 45.7597C53.4482 45.2043 53.4916 44.65 53.5394 44.0979V44.0552L53.548 44.0382V43.9955L53.5565 43.9784C53.5991 43.4281 53.6439 42.8757 53.6887 42.3232C53.7335 41.7711 53.7783 41.2189 53.8209 40.6688V40.6262L53.8294 40.6091L53.8394 40.5122L53.8507 40.4032C54.0079 38.9014 54.3687 35.4542 51.9699 37.6578L51.9529 37.6748L51.9358 37.6919L51.7993 37.8625ZM17.5517 47.9108L17.8587 47.7231L18.3876 47.4075L18.2767 47.2625L18.2682 47.2454C17.4267 46.2336 17.2835 45.3115 17.1079 44.1802C17.0022 43.4996 16.8847 42.7432 16.5963 41.846L15.223 35.6106L15.1548 35.3291L15.1377 35.2865L15.1121 35.2524L15.0865 35.2268L15.0353 35.2097H14.9756L14.95 35.2012H14.4553L14.4382 35.1927H13.952L13.935 35.1841H13.4402L13.4232 35.1756H12.9284L12.9114 35.1671H12.4166L12.3996 35.1585H11.9049L11.8878 35.15H11.5466V35.1585C10.941 35.9433 10.3439 36.7366 9.74678 37.5299L9.73825 37.5469H9.74678H12.8005L12.8261 37.5554H12.8943L12.954 37.6152L13.0308 37.6407L13.082 37.6663L13.1417 37.709L13.1843 37.7516L13.2014 37.7687L13.2441 37.8369L13.2696 37.9052L13.3208 38.0587L13.4573 38.5961L13.5085 38.8093L13.7388 39.8073C13.7423 39.8283 13.7466 39.8507 13.751 39.874L13.7511 39.8741L13.7511 39.8741C13.7794 40.0219 13.8151 40.2087 13.7047 40.3191L13.6364 40.3874L13.5938 40.413L13.5767 40.43C13.2824 40.6034 12.9689 40.7616 12.6554 40.9198L12.6554 40.9198C12.3056 41.0962 11.9557 41.2728 11.6319 41.4707L11.376 41.6242L11.0433 41.8289L10.7192 42.0592C9.28617 42.9464 9.2691 44.4135 9.81502 45.838L9.93444 46.0854L10.0539 46.2901L10.1989 46.5119L10.2159 46.5289C11.0007 47.6805 12.3484 48.542 13.7729 48.4737L13.7985 48.4652H13.8411L13.8582 48.4567C14.4212 48.4567 14.7794 47.9193 15.0609 47.4928L15.078 47.4757L15.1121 47.416L15.1803 47.3307L15.1974 47.3137L15.223 47.271L15.2742 47.2113L15.3083 47.1772L15.3509 47.1601L15.3936 47.1687L15.4362 47.1857L15.4704 47.2198L15.4789 47.2369L15.6324 47.4502L15.641 47.4672L15.8542 47.7572L15.8627 47.7743L15.9992 47.9534L16.0077 47.9705L16.221 48.2349L16.2295 48.252L16.2892 48.3202L16.3063 48.3373L16.3319 48.3543L16.3489 48.3714L16.4087 48.397L16.4769 48.4055H16.5451L16.639 48.3884L16.7328 48.3543L17.1166 48.1496L17.5517 47.9108ZM14.9415 45.6247V45.6418V45.6759L14.9159 45.8209L14.8818 45.9318C14.7976 46.1633 14.6616 46.3659 14.5258 46.5681L14.5256 46.5684C14.4963 46.612 14.467 46.6556 14.4382 46.6995L14.4212 46.7166L14.3871 46.7678L14.37 46.7848L14.3188 46.8531L14.3018 46.8701L14.2762 46.9042L14.1994 46.981L14.1653 47.0066L14.1482 47.0237L14.1056 47.0492L14.0373 47.0748H13.9435L13.8241 47.0322L13.7473 46.9895L13.7132 46.9725C13.1843 46.546 12.5617 45.9489 12.2375 45.3347L12.2119 45.2921L12.2034 45.2665L12.1863 45.2494L12.1778 45.2238C11.7769 44.4732 11.4442 43.279 12.1437 42.571L12.1522 42.554L12.246 42.4601L12.2631 42.4516C12.4258 42.296 12.6236 42.1815 12.8178 42.0691C12.8578 42.0459 12.8976 42.0228 12.937 41.9995L13.372 41.8033L13.7047 41.6754L13.7644 41.6583H13.8667L13.952 41.6754L14.0032 41.6925L14.0544 41.718L14.1141 41.7607L14.1226 41.7778L14.1397 41.7948L14.1568 41.8289L14.1823 41.9057L14.5918 43.7482L14.7624 44.5585L14.9074 45.3347L14.9159 45.3859L14.9244 45.4712V45.6247H14.9415ZM59.971 48.4396L59.9539 48.4481H59.8516L59.826 48.4652H59.6639L59.6383 48.4567H59.5445C56.6102 48.0387 57.0026 42.008 58.1797 40.1229L58.2991 39.9267L58.3418 39.867L58.3759 39.8158L58.4783 39.6794C58.8861 39.1379 59.5027 38.7877 60.0938 38.452C60.2197 38.3805 60.3444 38.3097 60.4657 38.2378L60.4999 38.2122L60.551 38.1781C61.3556 37.7013 61.1257 37.4913 60.634 37.0423C60.5627 36.9772 60.486 36.9071 60.406 36.8304L60.389 36.8218L60.3719 36.8048L60.3549 36.7963C59.9439 36.4337 59.5085 36.0931 59.0722 35.7518C58.1229 35.0093 57.1697 34.2637 56.4567 33.2819L56.4311 33.2222L56.4226 33.1881V33.1369L56.4311 33.0857L56.4481 33.0516L56.4908 32.9919L56.5164 32.9748C56.6877 32.845 56.9223 32.7279 57.1546 32.6118C57.304 32.5372 57.4525 32.4631 57.5826 32.3863L57.6253 32.3607L57.6594 32.3436L57.702 32.318C57.7617 32.2882 57.8193 32.2562 57.8769 32.2242C57.9345 32.1922 57.9921 32.1602 58.0518 32.1304L58.12 32.0963L58.1627 32.0707L58.2309 32.0366L58.2735 32.011L58.6489 31.8318L58.8792 31.7295L58.9474 31.7124L59.0412 31.7209L59.1265 31.7465L59.1948 31.7807L59.2118 31.7977L59.2545 31.8318L59.2971 31.8915L59.3313 31.9683V32.0366L59.3057 32.1048L59.2715 32.1389L59.246 32.1645L59.1265 32.2925L59.0754 32.3522L59.0242 32.4375L58.9986 32.4886V32.5228L59.0242 32.5739L59.1009 32.6848C59.1607 32.7701 59.2289 32.8554 59.3057 32.9322L59.3142 32.9493L59.3739 33.009L59.3824 33.026C59.8666 33.5192 60.4073 33.9039 60.9488 34.2892C61.4377 34.6371 61.9272 34.9854 62.3764 35.4144L62.3935 35.4315L62.4106 35.44L62.4532 35.4826L62.4703 35.4912L62.5044 35.5253C63.2465 36.1992 63.9715 37.0777 64.1165 38.1099L64.1251 38.144L64.1336 38.2122L64.1421 38.2549C64.1592 40.865 64.1507 43.569 64.091 46.1792L64.0568 46.3242L64.0142 46.4607C63.8059 47.2748 62.2622 47.7527 61.1796 48.0879C60.7989 48.2058 60.4752 48.306 60.2866 48.397L60.1416 48.4225L60.0222 48.4396H59.971ZM59.826 45.6418L59.8345 45.6674H59.8089L59.8601 45.9574L59.9028 46.1451L59.9625 46.3242L60.0478 46.5033C60.3634 47.0492 60.8155 47.2966 61.3614 46.8872L61.4296 46.8274L61.4723 46.7933L61.4808 46.7763C61.6002 46.6654 61.6599 46.4863 61.7026 46.3327L61.7367 46.128V46.0853L61.7452 46.0683V46.0256L61.7538 46.0086V45.9489L61.7623 45.9318V45.838L61.7708 45.8209V45.1471L61.7794 45.1215V44.2173L61.7879 44.2002V43.2875L61.7964 43.2705V42.3578L61.8049 42.3407V41.4365L61.8135 41.4195V40.5068L61.822 40.4897V39.577L61.8305 39.5599V39.5173L61.822 39.5002V39.4064L61.8135 39.3296L61.7879 39.2017L61.7623 39.1249L61.7282 39.0482C61.5234 38.6472 60.9861 38.997 60.7984 39.2358L60.7813 39.2529L60.7643 39.2699L60.7472 39.287L60.6278 39.4491C59.9881 40.5409 59.553 44.0638 59.8175 45.5735L59.826 45.6418ZM39.1238 47.1004L39.1494 47.0748L39.1665 47.0578L39.175 47.0237V46.964L39.158 46.9042L39.1238 46.8531L39.0897 46.8275L39.0385 46.8104L38.74 46.7592H38.7144L38.6973 46.7507H38.6718L38.6547 46.7422L38.5523 46.7336L38.5182 46.7166L38.4841 46.691L38.4585 46.6569L38.4329 46.5801C38.4045 46.4777 38.414 46.3754 38.4235 46.273C38.4282 46.2219 38.4329 46.1707 38.4329 46.1195L38.4415 46.1024V46.0683L38.45 46.0513L38.45 46.051C38.4671 45.8208 38.4841 45.5906 38.5097 45.3689V45.3347L38.5182 45.3177V45.275C38.5329 45.1049 38.5486 44.9349 38.5642 44.7651L38.5642 44.7649C38.5941 44.441 38.6238 44.1183 38.6462 43.7994L38.6547 43.7823V43.7482V43.7311C38.7485 42.699 38.8424 41.6669 38.9277 40.6262L38.9362 40.6092V40.5665L38.9447 40.5494V40.5153L38.9532 40.4983L38.9539 40.4909V40.4909C38.9963 39.9986 39.0388 39.5064 39.0812 39.0226V38.9885L39.0897 38.9714V38.9373C39.0954 38.8747 39.1019 38.8122 39.1085 38.7496C39.1313 38.5307 39.1542 38.3118 39.1409 38.0928L39.1324 38.0758V38.0417C39.0556 37.1375 38.6291 36.276 37.9552 35.6618L37.9382 35.6533L37.9126 35.6277L37.8955 35.6192L37.8699 35.5936L37.8529 35.585C36.9251 34.7594 36.4104 35.224 35.7543 35.8161C35.6986 35.8664 35.642 35.9175 35.5839 35.9689L35.5669 35.9774L35.5413 36.003C35.3622 36.1565 35.1852 36.3122 35.0082 36.4679C34.8312 36.6236 34.6542 36.7792 34.475 36.9328L34.4494 36.9583L34.4324 36.9669L34.4153 36.9839L34.3897 37.0095L34.2106 36.7878L34.1936 36.7707L34.1509 36.7195C34.0417 36.5915 33.9327 36.4427 33.8207 36.2897L33.8206 36.2897C33.3204 35.6065 32.7592 34.84 31.8393 35.4741L31.8222 35.4912L31.8052 35.5083L31.7881 35.5168L31.6431 35.6703C31.5834 35.7087 31.5365 35.7642 31.4896 35.8196C31.4426 35.8751 31.3957 35.9305 31.336 35.9689L31.2081 36.0968L31.191 36.1139C31.0631 36.2418 30.9351 36.3677 30.8072 36.4935C30.6792 36.6193 30.5513 36.7451 30.4233 36.8731L30.4063 36.8816L30.3892 36.9072L30.2868 36.9925L30.2698 37.0095C30.173 37.0765 30.1217 36.9941 30.0762 36.921L30.0762 36.921C30.0696 36.9103 30.063 36.8999 30.0565 36.8901L30.0309 36.8304L30.0054 36.7878L29.9708 36.7166C29.8188 36.4036 29.6558 36.0678 29.4339 35.7983L29.4253 35.7812L29.4083 35.7642L29.2888 35.6447L29.2547 35.6021L29.1694 35.5339L29.1524 35.5168L29.0756 35.4571L28.9903 35.3974L28.9135 35.3803L28.8368 35.3888L28.7429 35.4144L28.6576 35.4486L28.2482 35.6959L28.052 35.8068L27.9752 35.8495C27.9369 35.8665 27.8985 35.8878 27.8601 35.9091L27.8601 35.9092L27.86 35.9092C27.8217 35.9305 27.7833 35.9518 27.7449 35.9689L27.7023 35.9945L27.6426 36.0201L27.5999 36.0456L27.5402 36.0712C27.3543 36.1888 27.1516 36.2778 26.9492 36.3665C26.6965 36.4773 26.4445 36.5879 26.2266 36.7536L26.201 36.7792L26.184 36.7878C26.1238 36.8705 26.1233 36.8736 26.1123 36.9433L26.1072 36.9754L26.1157 37.0181V37.0436L26.1328 37.0948L26.1669 37.146L26.2181 37.1887C26.3592 37.2195 26.4865 37.224 26.6073 37.2283C26.888 37.2383 27.1337 37.2471 27.4378 37.581L27.5146 37.6834L27.5487 37.7516L27.5658 37.7687C27.617 37.8881 27.7876 38.3828 27.7876 38.5023L27.7961 38.5193V38.5449L27.8046 38.562V48.2776L27.8132 48.3287L27.8388 48.3714L27.8899 48.4055L27.9496 48.414L28.0008 48.4055L28.0776 48.3799L28.2311 48.3117L29.9542 47.271L30.048 47.2199V38.5705L30.0651 38.4767L30.0736 38.4255L30.1248 38.2208L30.2101 38.0246C30.7048 37.1972 31.4981 36.8816 31.8052 38.0246L31.899 38.3999L31.9075 38.4596L31.9161 38.4767L31.9417 46.273L31.9502 46.2986V47.689C31.9641 47.7677 31.9591 47.8691 31.9542 47.9687C31.9411 48.236 31.9287 48.4904 32.2828 48.2605L32.334 48.2264L32.3681 48.2093L32.3937 48.1923L32.4449 48.1581L32.479 48.1326C32.6667 48.0132 32.8564 47.8895 33.0462 47.7658C33.236 47.6421 33.4258 47.5184 33.6135 47.399L33.6476 47.3734L33.6988 47.3393L33.7329 47.3137L33.7841 47.2796L33.8182 47.254L33.8694 47.2199L33.9035 47.1943L33.9547 47.1601L34.0741 47.0748L34.1253 47.0237L34.1509 46.9725L34.168 46.9298V46.8872L34.1765 46.8701V45.9148L34.185 45.8977C34.2608 45.2844 34.2267 44.0075 34.1905 42.6521C34.1411 40.8027 34.0879 38.8072 34.3044 38.1525L34.3556 38.0417L34.4409 37.8881L34.5262 37.7431L34.6371 37.5981L34.748 37.4787C37.0915 35.6928 36.656 39.6027 36.4876 41.1144C36.4782 41.1983 36.4697 41.2749 36.4625 41.3427V41.3769L36.454 41.3939V41.4366L36.4454 41.4536C36.4113 41.8375 36.3781 42.2214 36.345 42.6053V42.6054C36.2786 43.373 36.2123 44.1406 36.1384 44.9082V44.9509L36.1298 44.968V45.0021L36.1298 45.0028C36.0786 45.557 36.0275 46.1112 35.9848 46.6739L35.9763 46.691V46.7336V46.7507C35.9676 46.8862 35.9543 47.0216 35.9412 47.1559L35.9412 47.1561L35.9412 47.1563C35.9287 47.2841 35.9164 47.4108 35.9081 47.5355L35.8995 47.5525V47.5866L35.891 47.6037V47.6463L35.8825 47.6634V47.6975L35.8739 47.7146V47.7487L35.8654 47.7658V47.8084L35.8995 47.8511V47.8852L35.891 47.9022V47.9449L35.8825 47.962V47.9961L35.8739 48.0217V48.0643L35.8654 48.0814V48.1155L35.8569 48.1326V48.1667L35.8484 48.1837V48.2264L35.8398 48.2434V48.2946L35.8484 48.3543L35.8654 48.3885L35.891 48.4055L35.9251 48.414H36.0104L36.0701 48.397L36.1725 48.3629L38.4244 47.399L38.9874 47.1346L39.1238 47.1004ZM4.04879 47.4587L3.90378 47.5184L3.53699 47.6719L1.74571 48.3287H1.73718L1.72865 48.3202V46.9213L1.72012 46.9042C1.71799 46.1228 1.71639 45.3419 1.7148 44.5614C1.71 42.2151 1.7052 39.8725 1.686 37.5298L1.66894 37.4445L1.62629 37.3336C1.41304 36.8816 1.08891 36.856 0.628289 36.873L0.611229 36.8645H0.406511L0.389451 36.856H0.295622L0.270032 36.8474C0.159143 36.8048 0.125023 36.7024 0.167673 36.5915L0.193263 36.5404L0.244442 36.4977L0.346802 36.438L2.5987 35.0732L2.67547 35.0306L2.74371 35.005L2.80342 34.9879L2.84607 34.9794H2.97402C3.34081 35.0135 3.77583 35.3973 3.92084 35.7385L3.94643 35.7812L4.1085 36.1395L4.24498 36.4806L4.33881 36.4209L4.35587 36.4124L4.42411 36.3698L4.44117 36.3527C4.89319 36.0542 5.33669 35.7472 5.78019 35.4401L5.78036 35.44L5.79742 35.4229L5.86566 35.3803L5.88272 35.3632L5.95096 35.3206C5.99169 35.29 6.03242 35.2625 6.07134 35.2362C6.09762 35.2185 6.12308 35.2013 6.14715 35.1841L6.21539 35.1414V35.15L6.39452 35.0306L6.47982 34.9879L6.57365 34.9623H6.63336L6.65895 34.9538H6.71013L6.76984 34.9623C7.16221 34.9964 7.59724 35.4144 7.84461 35.7044L7.85314 35.7215L7.8702 35.7385L7.96403 35.858L7.97256 35.875L7.98962 35.8921C8.76584 36.9242 9.31175 38.8178 9.19234 40.1485L9.15822 40.3788L9.11557 40.5665C8.95139 41.2642 8.55344 41.4985 8.07687 41.779C7.86015 41.9066 7.62717 42.0437 7.39252 42.2383L7.23898 42.3578L7.22192 42.3748L7.20486 42.3834L7.1878 42.4004L7.17074 42.4175L7.15368 42.4345L7.13662 42.4431C6.88925 42.6393 6.86366 42.7757 6.9319 43.0743L7.05985 43.424L7.17927 43.714C7.43517 44.277 7.75078 44.8314 8.1005 45.3432L8.20286 45.4968L8.21992 45.5138L8.31375 45.6503L8.33081 45.6674C8.48232 45.9082 8.67274 46.1685 8.86502 46.4314C9.09495 46.7457 9.32754 47.0637 9.49941 47.3563L9.50794 47.399V47.4672L9.49088 47.5269L9.45676 47.5781L9.40558 47.6207L9.36293 47.6549L9.33734 47.6719L8.83408 48.0046L8.7829 48.0387L8.55259 48.1837L8.22845 48.3628L8.16874 48.3799L8.12609 48.3884H8.03226L8.02374 48.397H7.94697L7.92991 48.3884H7.85314L7.67401 48.3543L7.50341 48.2946C6.94896 48.0302 6.43717 47.3819 6.1045 46.8957L5.89125 46.563L5.84007 46.4777L5.75478 46.3327C5.67431 46.2049 5.60434 46.0719 5.53469 45.9394C5.47882 45.8331 5.42314 45.7272 5.3624 45.6247L5.35387 45.5991L5.32828 45.5565L4.98708 44.8656L4.50941 43.859L4.50088 43.842L4.46676 43.7993L4.43264 43.7737L4.38146 43.7567L4.34734 43.7652L4.30469 43.7823L4.27057 43.8164L4.25351 43.859L4.24498 43.9102V47.1857L4.22792 47.2539L4.1938 47.3137L4.15115 47.3734L4.1085 47.416L4.04879 47.4587ZM4.30469 38.1781L4.28763 38.2975V41.718L4.30469 41.7948L4.33881 41.863L4.38146 41.9227L4.42411 41.9654L4.4497 41.9483L4.535 41.9995L4.62029 42.0336L4.73971 42.0592L4.80795 42.0677L4.83354 42.0763H4.91884L4.9359 42.0848H5.96802L5.97655 42.0763H5.99361L6.06185 42.0592L6.14715 42.0166L6.24098 41.9569C6.47982 41.7692 6.69307 41.4962 6.71866 41.1806V41.1465V41.1295V41.0953L6.72719 41.0783C6.73008 41.0407 6.73199 41.0022 6.73391 40.9633C6.73767 40.8875 6.74149 40.8104 6.75278 40.7371V40.6944V40.6774C6.77837 40.3532 6.7869 40.0291 6.77837 39.705L6.76984 39.6879V39.577V39.5514V39.4576L6.76131 39.4405C6.71866 38.5875 6.6163 38.1866 6.07891 37.3678L6.0192 37.291L6.00214 37.2739L5.99361 37.2569C5.80595 37.018 5.48182 36.7024 5.14915 36.8816L5.1065 36.9157L5.02973 36.9839C4.82501 37.2142 4.62029 37.5298 4.47529 37.8028L4.4497 37.8454L4.34734 38.0587L4.30469 38.1781Z" fill="#EC1A3A"/>
</g>
<defs>
<clipPath id="clip0_621_1420">
<rect width="64" height="64" fill="white"/>
</clipPath>
</defs>
</svg>
