<svg width="64" height="64" viewBox="0 0 64 64" fill="none" xmlns="http://www.w3.org/2000/svg">
<path fill-rule="evenodd" clip-rule="evenodd" d="M35.915 28.7034C35.1658 29.2297 34.1811 29.3086 33.4181 28.9667C33.4181 28.9667 33.2101 28.8877 33.0161 28.6773C32.8492 28.4795 28.6324 23.9674 28.6324 23.9674L28.6187 23.954C29.9228 24.1778 31.3514 23.586 32.0866 22.5072C32.8215 21.481 32.7943 20.0207 32.1006 18.9946C31.2685 17.8763 29.6452 17.5082 28.2859 17.6789C25.9278 17.9947 24.2353 19.9813 23.7088 22.0601C23.1674 24.4278 23.556 26.6643 24.4025 28.7692C24.5962 29.2166 24.8601 29.677 25.1792 30.0713C22.6958 29.0456 20.5043 27.1511 19.3532 24.6118C18.077 21.8755 18.1047 18.4156 19.6168 15.6399C20.8096 13.4957 22.9178 11.5091 25.5257 10.667C28.2581 9.60158 31.9341 9.82515 34.5975 11.2458C37.8293 12.7719 40.2706 16.5743 40.2844 19.9682C40.3954 23.4808 38.7581 26.6643 35.915 28.7034Z" fill="#BFA161"/>
<path fill-rule="evenodd" clip-rule="evenodd" d="M26.8428 30.0324C25.6362 28.7954 24.665 27.1906 25.4005 25.52C26.0521 24.2438 26.6347 22.9413 26.9123 21.4677C27.0231 23.0071 28.0084 24.3753 28.4795 25.8489C28.6597 26.5593 28.674 27.296 28.3827 28.0325C28.0636 28.8349 27.5502 29.5188 26.9398 30.1372L26.8428 30.0324Z" fill="#BFA161"/>
<path fill-rule="evenodd" clip-rule="evenodd" d="M11.6235 43.9341H8.41134C7.69955 42.8751 7.05673 41.9602 6.47926 41.1896C5.90509 40.4192 5.28247 39.624 4.61037 38.8049H3.39039V42.3961C3.39039 42.5814 3.42203 42.7445 3.48244 42.8862C3.54264 43.0246 3.67469 43.1341 3.87838 43.2072C3.97889 43.2455 4.15423 43.2807 4.40668 43.3109C4.65913 43.3434 4.87189 43.3626 5.04693 43.3678V43.9341H0V43.3678C0.135038 43.3567 0.330481 43.3382 0.585817 43.3109C0.841256 43.2865 1.01918 43.2507 1.11968 43.2072C1.28658 43.139 1.40955 43.0385 1.48439 42.9053C1.56149 42.7715 1.59922 42.6029 1.59922 42.3961V34.2114C1.59922 34.0236 1.57057 33.8604 1.51274 33.7161C1.45872 33.5716 1.32626 33.4628 1.11968 33.389C0.979183 33.3402 0.795696 33.297 0.571594 33.2583C0.347183 33.2177 0.158129 33.1933 0 33.1823V32.6159H5.50915C6.01436 32.6159 6.48782 32.6653 6.93014 32.7631C7.37165 32.8612 7.77408 33.0189 8.13322 33.2365C8.4803 33.4493 8.75904 33.7272 8.96561 34.0701C9.1725 34.4131 9.27826 34.8269 9.27826 35.3117C9.27826 35.7474 9.20672 36.1341 9.06591 36.4685C8.925 36.8035 8.71842 37.0923 8.44587 37.3371C8.19332 37.5656 7.8886 37.765 7.53585 37.9308C7.1829 38.0997 6.79222 38.2414 6.36772 38.358C6.95591 39.0986 7.44391 39.7196 7.83459 40.2261C8.22497 40.7296 8.7009 41.345 9.2695 42.0663C9.51649 42.3877 9.73739 42.6217 9.93902 42.7741C10.1368 42.9239 10.3347 43.0496 10.5301 43.1445C10.6765 43.2128 10.8571 43.2673 11.078 43.3051C11.2963 43.3408 11.4774 43.3626 11.6235 43.3678V43.9341ZM7.19991 35.4937C7.19991 34.8077 6.99303 34.266 6.57719 33.8631C6.16373 33.4628 5.57491 33.2615 4.82014 33.2615H3.39039V38.1186H4.49286C5.26494 38.1186 5.91127 37.8846 6.42442 37.4132C6.94159 36.9426 7.19991 36.3024 7.19991 35.4937ZM19.234 42.0829C18.8868 42.712 18.4214 43.2102 17.8393 43.5832C17.256 43.956 16.5846 44.1411 15.8292 44.1411C15.1601 44.1411 14.5777 44.0294 14.0754 43.8061C13.5728 43.5832 13.1593 43.2806 12.8353 42.8969C12.5109 42.5154 12.2666 42.0664 12.1062 41.5572C11.9479 41.0454 11.8681 40.5063 11.8681 39.9373C11.8681 39.4281 11.954 38.9273 12.1232 38.4341C12.2953 37.9417 12.5455 37.5005 12.8785 37.1057C13.1971 36.7298 13.593 36.4247 14.0667 36.1936C14.5403 35.9619 15.0718 35.8455 15.6603 35.8455C16.2657 35.8455 16.7853 35.935 17.216 36.1176C17.6493 36.2969 18 36.5448 18.2671 36.8578C18.5248 37.1577 18.717 37.5086 18.8436 37.9116C18.9701 38.3174 19.0332 38.7558 19.0332 39.2267V39.755H13.5416C13.5416 40.2694 13.593 40.738 13.6961 41.1568C13.7993 41.579 13.9635 41.9464 14.1899 42.2681C14.4083 42.5755 14.6926 42.818 15.0458 42.9977C15.3988 43.1745 15.821 43.2647 16.309 43.2647C16.808 43.2647 17.2391 43.1526 17.6002 42.9324C17.9597 42.712 18.3094 42.3143 18.6455 41.7395L19.234 42.0829ZM17.3767 39.085C17.3767 38.7857 17.351 38.4672 17.2963 38.1267C17.2417 37.7865 17.1581 37.5034 17.041 37.2746C16.9112 37.0297 16.7338 36.8308 16.5094 36.6755C16.2862 36.5205 15.9957 36.4441 15.6428 36.4441C15.0543 36.4441 14.5663 36.6755 14.1756 37.1411C13.7856 37.6067 13.5758 38.2547 13.5416 39.085H17.3767ZM23.9221 43.9341H20.0168V43.427C20.1415 43.4162 20.2745 43.4032 20.4162 43.3901C20.5577 43.3797 20.6736 43.3582 20.7654 43.3324C20.9176 43.2876 21.031 43.2058 21.1061 43.0906C21.1809 42.9747 21.2223 42.8246 21.2198 42.6409L21.0924 34.2416C21.0912 34.1467 21.0474 33.8726 20.9947 33.6837C20.9708 33.598 20.9451 33.5292 20.9205 33.5028C20.8945 33.4746 20.8858 33.4459 20.8495 33.4151C20.7093 33.2961 20.8834 33.4613 20.7525 33.3509C20.666 33.2778 20.7882 33.3234 20.5287 33.2726C20.2713 33.2221 19.8405 33.335 19.6825 33.3245L19.6685 32.771L22.5806 32.6205L22.7191 32.7329L22.7304 42.5488C22.7304 42.7276 22.765 42.8743 22.8357 42.9904C22.9058 43.1053 23.0189 43.1956 23.1767 43.256C23.2955 43.3086 23.4118 43.3455 23.5282 43.3716C23.6451 43.398 23.7777 43.4162 23.9221 43.427V43.9341ZM28.9403 43.9341H24.964V43.4128C25.0924 43.4025 25.2227 43.3916 25.3594 43.3806C25.4965 43.3701 25.6127 43.3486 25.7124 43.3158C25.8693 43.27 25.9862 43.1863 26.0598 43.0676C26.1337 42.9488 26.174 42.7947 26.174 42.6058V37.7893C26.174 37.6195 26.1311 37.4654 26.0514 37.3249C25.9716 37.1847 25.8576 37.0686 25.7124 36.9742C25.6075 36.9094 25.4564 36.8554 25.2545 36.8122C25.055 36.7663 24.8729 36.7393 24.7049 36.7284V36.2157L27.6085 36.04L27.7251 36.151V42.5114C27.7251 42.6952 27.7619 42.8487 27.8361 42.9703C27.91 43.0893 28.0298 43.1805 28.192 43.2377C28.3141 43.2865 28.434 43.324 28.5506 43.3536C28.6672 43.3806 28.7951 43.4026 28.9403 43.4128V43.9341ZM27.8901 32.9651C27.8901 33.2647 27.7876 33.5266 27.577 33.7507C27.3692 33.9745 27.1132 34.0881 26.8055 34.0881C26.5238 34.0881 26.2761 33.9804 26.0683 33.7669C25.8605 33.5536 25.755 33.3077 25.755 33.0351C25.755 32.7436 25.8605 32.4925 26.0683 32.2765C26.2761 32.0605 26.5238 31.9526 26.8055 31.9526C27.1245 31.9526 27.3835 32.0524 27.5854 32.2553C27.7876 32.46 27.8901 32.6949 27.8901 32.9651ZM37.8104 43.7898C37.5463 43.8796 37.3166 43.953 37.1188 44.0102C36.9178 44.0648 36.6939 44.0947 36.4415 44.0947C36.002 44.0947 35.6548 43.9966 35.3933 43.8036C35.1321 43.6075 34.9658 43.3243 34.8937 42.9541H34.8422C34.4779 43.3349 34.0872 43.629 33.6679 43.8308C33.2515 44.0319 32.7493 44.133 32.161 44.133C31.538 44.133 31.0269 43.953 30.6252 43.5913C30.2231 43.229 30.0221 42.7556 30.0221 42.1727C30.0221 41.8678 30.0683 41.5981 30.157 41.3586C30.2489 41.1191 30.3812 40.9037 30.5621 40.7106C30.7027 40.5527 30.8861 40.4111 31.1161 40.2856C31.3455 40.1608 31.5637 40.0598 31.7648 39.9861C32.0173 39.8967 32.5284 39.7277 33.298 39.4824C34.0703 39.2373 34.5898 39.0473 34.8595 38.9082V38.1186C34.8595 38.0504 34.8451 37.9171 34.8134 37.7211C34.7817 37.5252 34.7161 37.3371 34.6155 37.1629C34.5033 36.9643 34.3452 36.7928 34.1386 36.6485C33.9352 36.501 33.6451 36.4279 33.269 36.4279C33.0108 36.4279 32.7723 36.4685 32.5511 36.5529C32.3302 36.6349 32.1724 36.7216 32.0835 36.8119C32.0835 36.9181 32.1093 37.0729 32.1643 37.2825C32.218 37.4895 32.2443 37.6802 32.2443 37.8573C32.2443 38.0422 32.1552 38.2112 31.9802 38.3662C31.8021 38.5218 31.5582 38.5979 31.2423 38.5979C30.9639 38.5979 30.7573 38.5026 30.6252 38.3148C30.4928 38.1267 30.4273 37.9142 30.4273 37.6802C30.4273 37.4349 30.5192 37.2012 30.7 36.9777C30.8838 36.7548 31.1187 36.5556 31.4121 36.3814C31.6643 36.2317 31.9684 36.1065 32.3272 36.0002C32.6861 35.8969 33.0364 35.8455 33.3784 35.8455C33.849 35.8455 34.2596 35.878 34.6129 35.9375C34.9626 35.9977 35.2788 36.1309 35.5655 36.3326C35.8527 36.5286 36.068 36.7951 36.2174 37.1327C36.3664 37.471 36.4415 37.9064 36.4415 38.437C36.4415 39.1993 36.4327 39.8723 36.4152 40.4598C36.3983 41.0483 36.3897 41.6907 36.3897 42.3877C36.3897 42.5947 36.4266 42.7581 36.5043 42.8803C36.5791 43.0031 36.6966 43.1066 36.8517 43.1936C36.9379 43.2398 37.0703 43.2673 37.2506 43.2726C37.4344 43.2777 37.6212 43.2808 37.8104 43.2808V43.7898ZM34.8768 39.5779C34.4001 39.7112 33.9809 39.8418 33.6221 39.9698C33.2632 40.0981 32.9301 40.2557 32.6233 40.4491C32.3416 40.6291 32.1207 40.8442 31.9568 41.0915C31.7961 41.3369 31.7128 41.6309 31.7128 41.9711C31.7128 42.4121 31.8367 42.7387 32.0804 42.9457C32.325 43.1526 32.6346 43.2563 33.0075 43.2563C33.4069 43.2563 33.757 43.1637 34.0612 42.9814C34.363 42.7988 34.6181 42.5814 34.8247 42.3306L34.8768 39.5779ZM47.7921 43.9341H43.7302V43.4087C43.8591 43.398 44.0025 43.387 44.1547 43.3762C44.3102 43.3651 44.4358 43.3434 44.5396 43.3109C44.6945 43.2647 44.8122 43.18 44.887 43.0604C44.9641 42.9404 45.0019 42.7854 45.0019 42.5947V38.5488C45.0019 37.9906 44.8613 37.5607 44.5852 37.2581C44.307 36.9559 43.968 36.8035 43.5721 36.8035C43.2738 36.8035 43.0011 36.8471 42.7536 36.9341C42.5099 37.0213 42.2887 37.1301 42.0994 37.2581C41.9156 37.3806 41.7663 37.5115 41.657 37.6532C41.5483 37.7946 41.468 37.9064 41.4191 37.9906V42.5154C41.4191 42.6952 41.4562 42.8452 41.5369 42.9622C41.6147 43.0789 41.7318 43.1692 41.8899 43.2319C42.0076 43.2865 42.1336 43.3243 42.2715 43.3518C42.4094 43.3786 42.5503 43.398 42.6966 43.4087V43.9341H38.6344V43.4087C38.7633 43.398 38.8957 43.387 39.0333 43.3762C39.1712 43.3651 39.2893 43.3434 39.3921 43.3109C39.5473 43.2647 39.6648 43.18 39.7399 43.0604C39.8176 42.9404 39.8547 42.7854 39.8547 42.5947V37.7371C39.8547 37.5548 39.8141 37.3887 39.7311 37.239C39.6507 37.0866 39.5359 36.9618 39.3921 36.8662C39.286 36.8035 39.1595 36.7573 39.0132 36.7271C38.8671 36.6972 38.7093 36.6784 38.5424 36.6673V36.1503L41.3011 35.9733L41.4191 36.0847V37.1928H41.4592C41.5942 37.0677 41.7636 36.9124 41.9641 36.7355C42.1654 36.5585 42.358 36.4113 42.5359 36.3002C42.7455 36.1721 42.9924 36.0655 43.2764 35.9811C43.5637 35.8969 43.8851 35.8534 44.2442 35.8534C45.039 35.8534 45.6304 36.0899 46.015 36.5585C46.3998 37.0297 46.5888 37.6558 46.5888 38.437V42.5294C46.5888 42.717 46.6239 42.867 46.6928 42.9814C46.7586 43.0958 46.8734 43.1855 47.037 43.2482C47.1718 43.3025 47.2866 43.3382 47.3845 43.3594C47.4823 43.3811 47.62 43.398 47.7921 43.4087V43.9341ZM52.6465 44.1411C51.4464 44.1411 50.5078 43.7626 49.8276 43.0084C49.1497 42.2545 48.8113 41.2413 48.8113 39.9698C48.8113 39.4174 48.9033 38.9001 49.0839 38.4181C49.268 37.9363 49.5316 37.5005 49.8793 37.1057C50.2092 36.7298 50.6253 36.4247 51.125 36.1936C51.6217 35.9619 52.1669 35.8455 52.7554 35.8455C53.568 35.8455 54.2314 36.0304 54.7393 36.4005C55.2506 36.7707 55.506 37.2746 55.506 37.9116C55.506 38.1784 55.4396 38.4123 55.3047 38.617C55.1699 38.8234 54.9484 38.9248 54.6384 38.9248C54.3085 38.9248 54.0531 38.8452 53.8693 38.6846C53.6884 38.527 53.5967 38.3473 53.5967 38.1511C53.5967 37.9116 53.6312 37.6666 53.6972 37.4132C53.7662 37.1603 53.8033 36.9754 53.8144 36.8578C53.7145 36.6947 53.5652 36.5831 53.3644 36.5286C53.1663 36.4711 52.951 36.4441 52.7207 36.4441C52.4545 36.4441 52.1962 36.4987 51.9519 36.6075C51.7079 36.7164 51.4724 36.9181 51.2427 37.2091C51.0332 37.4762 50.867 37.8355 50.7372 38.2873C50.6086 38.7395 50.542 39.2783 50.542 39.9047C50.542 40.8956 50.7746 41.7015 51.2371 42.3276C51.6988 42.9515 52.3081 43.2647 53.0571 43.2647C53.6023 43.2647 54.0587 43.139 54.4266 42.8888C54.7912 42.6382 55.1322 42.2649 55.4458 41.7641L55.9852 42.0991C55.6149 42.7279 55.127 43.2238 54.5212 43.5913C53.9152 43.9588 53.2896 44.1411 52.6465 44.1411ZM64 42.0829C63.6529 42.712 63.188 43.2102 62.6053 43.5832C62.0224 43.956 61.3506 44.1411 60.5958 44.1411C59.9267 44.1411 59.3441 44.0294 58.8417 43.8061C58.3391 43.5832 57.9257 43.2806 57.601 42.8969C57.2773 42.5154 57.0333 42.0664 56.8724 41.5572C56.7145 41.0454 56.6336 40.5063 56.6336 39.9373C56.6336 39.4281 56.7198 38.9273 56.8896 38.4341C57.0616 37.9417 57.3118 37.5005 57.6443 37.1057C57.9634 36.7298 58.359 36.4247 58.833 36.1936C59.3066 35.9619 59.8378 35.8455 60.4261 35.8455C61.0322 35.8455 61.5514 35.935 61.9817 36.1176C62.4157 36.2969 62.766 36.5448 63.0328 36.8578C63.2911 37.1577 63.4833 37.5086 63.6096 37.9116C63.7361 38.3174 63.7993 38.7558 63.7993 39.2267V39.755H58.3074C58.3074 40.2694 58.359 40.738 58.4625 41.1568C58.5656 41.579 58.7298 41.9464 58.9566 42.2681C59.1749 42.5755 59.4589 42.818 59.8115 42.9977C60.1646 43.1745 60.5868 43.2647 61.0747 43.2647C61.5748 43.2647 62.0051 43.1526 62.3669 42.9324C62.7254 42.712 63.0761 42.3143 63.4118 41.7395L64 42.0829ZM62.1428 39.085C62.1428 38.7857 62.1171 38.4672 62.0625 38.1267C62.0077 37.7865 61.9245 37.5034 61.8073 37.2746C61.6775 37.0297 61.4999 36.8308 61.2764 36.6755C61.0519 36.5205 60.7624 36.4441 60.4091 36.4441C59.8203 36.4441 59.3326 36.6755 58.9419 37.1411C58.5513 37.6067 58.3421 38.2547 58.3074 39.085H62.1428Z" fill="#1F1917"/>
<path d="M2.3394 53.9072H0.00292969V53.6735C0.0693149 53.6684 0.163638 53.6622 0.288678 53.6534C0.413201 53.6453 0.500615 53.632 0.551744 53.614C0.631221 53.5862 0.689876 53.5469 0.727604 53.4976C0.76358 53.4482 0.781413 53.3794 0.781413 53.292V49.9124C0.781413 49.8364 0.768835 49.7718 0.741312 49.7205C0.715026 49.6688 0.651322 49.6261 0.551744 49.5905C0.47804 49.5646 0.387224 49.5399 0.276204 49.5164C0.164875 49.494 0.0742629 49.4804 0.00292969 49.4758V49.2427H2.3394V49.4758C2.26312 49.4778 2.17344 49.4862 2.06819 49.5008C1.96367 49.5141 1.87244 49.5332 1.79389 49.5547C1.70184 49.5815 1.63926 49.6239 1.60834 49.6824C1.57587 49.7419 1.56092 49.8082 1.56092 49.8799V53.2563C1.56092 53.3278 1.57793 53.3919 1.61329 53.4482C1.64803 53.5042 1.70936 53.549 1.79389 53.5815C1.84502 53.5998 1.92882 53.6183 2.04489 53.639C2.15973 53.6601 2.25786 53.6712 2.3394 53.6735V53.9072Z" fill="#1F1917"/>
<path d="M7.05321 53.9072H5.28865V53.6903C5.34472 53.6862 5.40699 53.6811 5.47306 53.6767C5.54058 53.6726 5.59542 53.6634 5.64016 53.65C5.70799 53.6308 5.7588 53.5963 5.79128 53.5469C5.82509 53.4976 5.84148 53.4335 5.84148 53.355V51.6872C5.84148 51.4573 5.78015 51.2803 5.66067 51.1557C5.53934 51.0312 5.39235 50.9682 5.2203 50.9682C5.09021 50.9682 4.97156 50.9862 4.86467 51.0222C4.75859 51.0579 4.66242 51.1029 4.58006 51.1557C4.50058 51.2062 4.43543 51.26 4.38843 51.3186C4.34101 51.3766 4.30565 51.4228 4.28493 51.4573V53.3223C4.28493 53.3966 4.3007 53.4584 4.33575 53.5066C4.36935 53.5548 4.42048 53.5917 4.48914 53.6175C4.54037 53.6398 4.595 53.6558 4.65489 53.6669C4.71509 53.6778 4.77612 53.686 4.83983 53.6903V53.9072H3.07495V53.6903C3.13102 53.6862 3.18834 53.6811 3.24823 53.6767C3.30812 53.6726 3.35925 53.6634 3.40419 53.65C3.4714 53.6308 3.52284 53.5963 3.55469 53.5469C3.58892 53.4976 3.605 53.4335 3.605 53.355V51.3532C3.605 51.2779 3.58747 51.2094 3.55119 51.1477C3.51645 51.0849 3.46646 51.0336 3.40419 50.9943C3.35812 50.9682 3.30317 50.9491 3.23947 50.9369C3.17576 50.9247 3.10711 50.9165 3.03516 50.9122V50.6988L4.23349 50.6263L4.28493 50.6721V51.1287H4.30184C4.36059 51.0771 4.4343 51.0132 4.52192 50.9404C4.60902 50.8671 4.69231 50.8068 4.76973 50.7606C4.86055 50.7081 4.96806 50.6639 5.09176 50.6294C5.21649 50.5948 5.35616 50.5769 5.51192 50.5769C5.85725 50.5769 6.11444 50.6744 6.28123 50.8671C6.44874 51.0614 6.5311 51.3198 6.5311 51.6414V53.3278C6.5311 53.4056 6.54605 53.4671 6.57584 53.5142C6.6047 53.5615 6.65439 53.5987 6.72541 53.6242C6.78417 53.6468 6.83386 53.661 6.87653 53.67C6.9189 53.6793 6.97879 53.686 7.05321 53.6903V53.9072Z" fill="#1F1917"/>
<path d="M11.623 53.8475L10.366 53.92L10.311 53.874V53.5711L10.2821 53.565C10.155 53.693 9.99921 53.7963 9.81191 53.878C9.62605 53.9592 9.43411 53.9995 9.23691 53.9995C9.03229 53.9995 8.83417 53.9577 8.64316 53.8756C8.45256 53.794 8.28546 53.6781 8.14434 53.5289C8.00116 53.3775 7.88602 53.196 7.80272 52.9838C7.71892 52.7707 7.67676 52.5361 7.67676 52.2801C7.67676 52.0458 7.72149 51.8238 7.81118 51.6127C7.9024 51.4028 8.02569 51.219 8.18433 51.0605C8.33277 50.9133 8.51482 50.7967 8.73078 50.7084C8.94643 50.6207 9.16589 50.5772 9.39061 50.5772C9.55884 50.5772 9.72336 50.5964 9.88582 50.6344C10.0478 50.6736 10.1874 50.7217 10.3034 50.7812V49.6538C10.3034 49.5614 10.287 49.4772 10.2523 49.4024C10.2187 49.3258 10.171 49.2685 10.11 49.2293C10.0416 49.1878 9.95045 49.1579 9.83438 49.1385C9.71872 49.1204 9.59368 49.1074 9.46008 49.0981V48.894L10.9322 48.8188L10.9868 48.8682V53.2395C10.9868 53.317 11.0029 53.3821 11.0368 53.436C11.069 53.4889 11.1178 53.5348 11.1815 53.5716C11.2276 53.599 11.2937 53.6143 11.3823 53.621C11.4699 53.6271 11.5494 53.6324 11.623 53.6346V53.8475ZM10.3034 53.2782V51.3823C10.2847 51.325 10.2523 51.2641 10.2088 51.1982C10.1649 51.132 10.11 51.0725 10.0439 51.0174C9.97406 50.9625 9.89056 50.9163 9.79552 50.8807C9.70089 50.8449 9.58986 50.8269 9.4639 50.8269C9.3169 50.8269 9.18197 50.8603 9.06013 50.9288C8.93653 50.9959 8.82808 51.094 8.73345 51.2209C8.64192 51.344 8.5709 51.4998 8.51863 51.6894C8.46637 51.8793 8.44008 52.0888 8.44008 52.319C8.44008 52.5031 8.46018 52.6703 8.49874 52.8208C8.53729 52.9711 8.60337 53.1105 8.69573 53.239C8.78191 53.3627 8.89035 53.4611 9.02384 53.5354C9.15589 53.6094 9.31309 53.6477 9.49668 53.6477C9.69099 53.6477 9.85314 53.6086 9.98055 53.5319C10.1091 53.4559 10.2163 53.3705 10.3034 53.2782Z" fill="#1F1917"/>
<path d="M16.0169 53.8468L14.8431 53.9193L14.7884 53.8732V53.4615H14.7671C14.7086 53.5167 14.6427 53.5759 14.5687 53.6381C14.4968 53.7007 14.4118 53.757 14.3171 53.8075C14.2073 53.8667 14.1012 53.9118 13.9992 53.9419C13.8964 53.973 13.7517 53.9878 13.5649 53.9878C13.2453 53.9878 13.0025 53.8949 12.8353 53.7077C12.6694 53.5199 12.5856 53.2476 12.5856 52.8905V51.3385C12.5856 51.2598 12.5685 51.194 12.5359 51.1402C12.5034 51.0863 12.455 51.0393 12.3913 50.9997C12.3473 50.9742 12.2927 50.9551 12.2279 50.9429C12.1616 50.9304 12.0917 50.9225 12.0195 50.9179V50.7037L13.2208 50.6253L13.2757 50.6711V52.923C13.2757 53.1578 13.3341 53.3338 13.4513 53.4528C13.5688 53.5704 13.7084 53.6299 13.8718 53.6299C14.005 53.6299 14.1249 53.6107 14.2294 53.5735C14.334 53.537 14.4218 53.4931 14.4927 53.4427C14.5588 53.3968 14.6161 53.3474 14.6663 53.2969C14.7163 53.2452 14.7548 53.1968 14.7808 53.1532V51.3154C14.7808 51.2434 14.765 51.1795 14.7297 51.1234C14.6964 51.0671 14.6488 51.0201 14.5877 50.9809C14.5441 50.9538 14.4793 50.9382 14.3919 50.9327C14.3057 50.9275 14.2087 50.9224 14.1012 50.9179V50.7037L15.4097 50.6253L15.4646 50.6711V53.2452C15.4646 53.3202 15.4822 53.3832 15.5155 53.436C15.5502 53.4885 15.5982 53.5335 15.6589 53.5704C15.7028 53.5953 15.755 53.6107 15.8149 53.6188C15.8761 53.6249 15.9433 53.6311 16.0169 53.6333V53.8468Z" fill="#1F1917"/>
<path d="M19.0176 52.3197C19.117 52.3981 19.1947 52.489 19.2484 52.5923C19.3019 52.6956 19.3279 52.8214 19.3279 52.9706C19.3279 53.271 19.2035 53.5158 18.9539 53.7068C18.7046 53.8975 18.3802 53.9927 17.9838 53.9927C17.7739 53.9927 17.5805 53.9593 17.4046 53.8906C17.2276 53.8232 17.1016 53.7605 17.0253 53.7033L16.9535 53.9175H16.6791L16.6426 52.7898H16.8947C16.9146 52.8751 16.9557 52.9749 17.0192 53.0882C17.0817 53.2028 17.1591 53.3061 17.2489 53.3982C17.3439 53.4946 17.4584 53.575 17.5907 53.6414C17.7243 53.7068 17.8728 53.7401 18.0384 53.7401C18.273 53.7401 18.4522 53.692 18.5796 53.5968C18.7058 53.5012 18.7689 53.3654 18.7689 53.1868C18.7689 53.0951 18.7494 53.0167 18.7096 52.9491C18.6681 52.8817 18.6097 52.8236 18.5322 52.7729C18.451 52.7227 18.3525 52.6776 18.2353 52.6371C18.1182 52.5969 17.9887 52.5566 17.8449 52.5174C17.7301 52.4855 17.603 52.4442 17.463 52.3902C17.3225 52.3366 17.2027 52.2738 17.103 52.2007C16.9958 52.1246 16.9081 52.0303 16.8398 51.9194C16.7711 51.8067 16.7378 51.6758 16.7378 51.5243C16.7378 51.2592 16.8474 51.034 17.0669 50.8497C17.2862 50.6655 17.5794 50.5739 17.9475 50.5739C18.0884 50.5739 18.2327 50.5907 18.3802 50.6232C18.5275 50.6568 18.647 50.6964 18.7405 50.7422L18.8238 50.5704H19.0877L19.1423 51.6128H18.8902C18.8391 51.3806 18.728 51.1921 18.5586 51.0465C18.3902 50.9002 18.183 50.8276 17.94 50.8276C17.7401 50.8276 17.5831 50.8723 17.4683 50.962C17.3534 51.0517 17.2959 51.1606 17.2959 51.2874C17.2959 51.3861 17.3149 51.4682 17.3534 51.5345C17.3912 51.5992 17.4472 51.6555 17.5232 51.7013C17.5969 51.7452 17.6877 51.7864 17.7988 51.825C17.9099 51.863 18.0472 51.9067 18.2108 51.9548C18.3715 52.001 18.5223 52.055 18.6643 52.1157C18.808 52.1771 18.9252 52.2456 19.0176 52.3197Z" fill="#1F1917"/>
<path d="M22.28 53.7653C22.121 53.8246 21.9714 53.874 21.8308 53.9145C21.6883 53.9552 21.5164 53.9761 21.3119 53.9761C21.0101 53.9761 20.797 53.907 20.6747 53.7697C20.551 53.633 20.4899 53.44 20.4899 53.1897V50.9942H19.8389V50.6786H20.5036V49.6698H21.1699V50.6786H22.2037V50.9942H21.1761V52.8062C21.1761 52.9418 21.1821 53.0553 21.1933 53.1461C21.2032 53.2368 21.2298 53.3165 21.2719 53.3839C21.3105 53.448 21.3691 53.4963 21.4466 53.5284C21.5249 53.5613 21.6298 53.5778 21.761 53.5778C21.8221 53.5778 21.9116 53.5737 22.029 53.5634C22.1476 53.5531 22.2309 53.5409 22.28 53.5249V53.7653Z" fill="#1F1917"/>
<path d="M25.577 51.0829C25.577 51.195 25.5461 51.2936 25.4862 51.3813C25.4248 51.4678 25.3316 51.5102 25.2042 51.5102C25.068 51.5102 24.9634 51.4788 24.8924 51.4149C24.82 51.3519 24.784 51.2814 24.784 51.2051C24.784 51.1569 24.7889 51.1127 24.7966 51.0739C24.805 51.0336 24.8138 50.9943 24.82 50.9548C24.7063 50.9548 24.5719 50.9961 24.4185 51.0793C24.2651 51.1633 24.135 51.2814 24.0278 51.435V53.3223C24.0278 53.3989 24.0442 53.4613 24.0768 53.5089C24.1105 53.5571 24.1616 53.594 24.2326 53.6175C24.2936 53.6398 24.372 53.6558 24.4685 53.6669C24.5645 53.6778 24.6478 53.686 24.7176 53.6903V53.9072H22.818V53.6903C22.8742 53.6862 22.9314 53.6811 22.9916 53.6767C23.0513 53.6726 23.1026 53.6634 23.1474 53.65C23.2149 53.6308 23.2657 53.5963 23.2985 53.5469C23.3321 53.4976 23.3484 53.4335 23.3484 53.355V51.3532C23.3484 51.2847 23.3305 51.2187 23.295 51.1522C23.2596 51.0861 23.2096 51.0336 23.1474 50.9943C23.1012 50.9682 23.0462 50.9491 22.9825 50.9369C22.9194 50.9247 22.8508 50.9165 22.7783 50.9122V50.6988L23.977 50.6263L24.0278 50.6721V51.1287H24.0453C24.1963 50.9513 24.3647 50.8166 24.5505 50.7249C24.7352 50.6329 24.905 50.5867 25.0584 50.5867C25.2118 50.5867 25.3365 50.6317 25.4327 50.7214C25.5283 50.8111 25.577 50.9325 25.577 51.0829Z" fill="#1F1917"/>
<path d="M27.8141 53.9072H26.0717V53.6903C26.1278 53.6862 26.1851 53.6811 26.245 53.6767C26.3052 53.6726 26.356 53.6634 26.3996 53.65C26.4686 53.6308 26.5197 53.5963 26.5518 53.5469C26.5845 53.4976 26.6018 53.4335 26.6018 53.355V51.3532C26.6018 51.2826 26.5831 51.2187 26.5483 51.1601C26.5132 51.1018 26.4635 51.0535 26.3996 51.0141C26.3537 50.9874 26.2874 50.9647 26.1991 50.9467C26.1115 50.9282 26.032 50.9165 25.958 50.9122V50.6988L27.2306 50.6263L27.2815 50.6721V53.3156C27.2815 53.3919 27.2981 53.4561 27.3299 53.5066C27.3627 53.556 27.415 53.594 27.486 53.6175C27.5397 53.6378 27.5921 53.6534 27.6432 53.6656C27.6943 53.6767 27.7504 53.686 27.8141 53.6903V53.9072ZM27.3542 49.3481C27.3542 49.4723 27.3092 49.5815 27.2169 49.6743C27.1257 49.7675 27.0135 49.8149 26.8787 49.8149C26.7555 49.8149 26.647 49.7698 26.5556 49.6813C26.4648 49.5927 26.4186 49.4905 26.4186 49.377C26.4186 49.2563 26.4648 49.1517 26.5556 49.0621C26.647 48.9721 26.7555 48.9271 26.8787 48.9271C27.0184 48.9271 27.1321 48.9689 27.2204 49.0531C27.3092 49.1381 27.3542 49.2357 27.3542 49.3481Z" fill="#1F1917"/>
<path d="M31.6387 53.1444C31.488 53.4037 31.286 53.6093 31.033 53.7625C30.7794 53.9164 30.4874 53.9927 30.1599 53.9927C29.8692 53.9927 29.6158 53.9468 29.3976 53.8548C29.1792 53.7625 28.9999 53.6382 28.8584 53.4798C28.7178 53.3227 28.6118 53.1374 28.542 52.9276C28.4733 52.7171 28.4385 52.4948 28.4385 52.2605C28.4385 52.0503 28.4756 51.8439 28.5495 51.6407C28.624 51.4375 28.7325 51.256 28.8774 51.0935C29.0158 50.9385 29.188 50.8128 29.3937 50.7173C29.5997 50.622 29.8305 50.5739 30.0862 50.5739C30.3492 50.5739 30.5751 50.6107 30.7624 50.6859C30.9503 50.76 31.1025 50.8622 31.2185 50.9913C31.3308 51.1144 31.4146 51.2592 31.4695 51.4256C31.5245 51.5925 31.5517 51.7733 31.5517 51.9676V52.185H29.1655C29.1655 52.3972 29.188 52.5899 29.233 52.763C29.2777 52.9369 29.3487 53.0882 29.4474 53.2208C29.5424 53.3477 29.6655 53.4475 29.8192 53.5213C29.9726 53.5944 30.156 53.6313 30.3682 53.6313C30.5851 53.6313 30.7721 53.5854 30.929 53.4946C31.0852 53.4037 31.2375 53.2397 31.3833 53.0031L31.6387 53.1444ZM30.8316 51.9089C30.8316 51.7858 30.8205 51.6543 30.7971 51.5141C30.7732 51.3739 30.7372 51.257 30.6861 51.1625C30.63 51.0619 30.5526 50.9799 30.4553 50.9158C30.3583 50.8519 30.232 50.8206 30.0786 50.8206C29.823 50.8206 29.6105 50.9158 29.4414 51.108C29.2719 51.2996 29.1804 51.567 29.1655 51.9089H30.8316Z" fill="#1F1917"/>
<path d="M34.614 52.3197C34.714 52.3981 34.7914 52.489 34.8449 52.5923C34.8986 52.6956 34.9249 52.8214 34.9249 52.9706C34.9249 53.271 34.8001 53.5158 34.5506 53.7068C34.3013 53.8975 33.977 53.9927 33.5802 53.9927C33.371 53.9927 33.1772 53.9593 33.0013 53.8906C32.8246 53.8232 32.6983 53.7605 32.6223 53.7033L32.5502 53.9175H32.2757L32.2393 52.7898H32.4914C32.511 52.8751 32.5528 52.9749 32.6162 53.0882C32.6787 53.2028 32.7556 53.3061 32.8456 53.3982C32.9405 53.4946 33.0548 53.575 33.1872 53.6414C33.3207 53.7068 33.4691 53.7401 33.6351 53.7401C33.8697 53.7401 34.0492 53.692 34.1763 53.5968C34.3026 53.5012 34.366 53.3654 34.366 53.1868C34.366 53.0951 34.3461 53.0167 34.3061 52.9491C34.2648 52.8817 34.2064 52.8236 34.129 52.7729C34.0477 52.7227 33.9492 52.6776 33.8321 52.6371C33.7149 52.5969 33.5851 52.5566 33.442 52.5174C33.3271 52.4855 33.1998 52.4442 33.0601 52.3902C32.9189 52.3366 32.7994 52.2738 32.6995 52.2007C32.5922 52.1246 32.5052 52.0303 32.4365 51.9194C32.3678 51.8067 32.3342 51.6758 32.3342 51.5243C32.3342 51.2592 32.4438 51.034 32.6635 50.8497C32.883 50.6655 33.1761 50.5739 33.544 50.5739C33.6848 50.5739 33.8297 50.5907 33.977 50.6232C34.124 50.6568 34.2438 50.6964 34.3373 50.7422L34.4209 50.5704H34.6842L34.7391 51.6128H34.4869C34.4357 51.3806 34.3247 51.1921 34.1549 51.0465C33.9869 50.9002 33.7795 50.8276 33.5367 50.8276C33.3368 50.8276 33.1796 50.8723 33.0651 50.962C32.9502 51.0517 32.8929 51.1606 32.8929 51.2874C32.8929 51.3861 32.9117 51.4682 32.9502 51.5345C32.9878 51.5992 33.044 51.6555 33.12 51.7013C33.1936 51.7452 33.2845 51.7864 33.3955 51.825C33.5066 51.863 33.6439 51.9067 33.8073 51.9548C33.9683 52.001 34.119 52.055 34.2613 52.1157C34.4048 52.1771 34.5219 52.2456 34.614 52.3197Z" fill="#1F1917"/>
<path d="M41.533 52.5202L41.4234 53.9072H37.3711V53.6735C37.4295 53.6684 37.5143 53.661 37.6253 53.65C37.7363 53.6397 37.8138 53.625 37.8573 53.6076C37.9298 53.5792 37.9833 53.5379 38.0157 53.4828C38.0493 53.4276 38.0654 53.3585 38.0654 53.2729V49.9327C38.0654 49.8584 38.0519 49.7925 38.023 49.7353C37.9959 49.6778 37.9397 49.632 37.8573 49.5974C37.8009 49.5713 37.7226 49.5457 37.6215 49.5196C37.5205 49.4952 37.4369 49.4804 37.3711 49.4758V49.2427H39.5597V49.4758C39.4913 49.4778 39.404 49.4883 39.2955 49.5085C39.1869 49.5286 39.1082 49.5457 39.0598 49.5611C38.9762 49.5872 38.9201 49.632 38.8888 49.6961C38.859 49.7597 38.8438 49.827 38.8438 49.9002V53.0328C38.8438 53.1773 38.8514 53.2897 38.8677 53.3696C38.8835 53.4494 38.9201 53.5109 38.9788 53.556C39.0349 53.5952 39.1182 53.6207 39.2293 53.632C39.3403 53.6444 39.4948 53.65 39.6947 53.65C39.7856 53.65 39.8791 53.6492 39.9767 53.6449C40.074 53.6397 40.1661 53.6312 40.2548 53.6179C40.3392 53.6045 40.4182 53.5866 40.4904 53.5639C40.5617 53.5404 40.6151 53.5113 40.6485 53.4762C40.7484 53.3755 40.8644 53.2228 40.9979 53.0187C41.1303 52.8135 41.2227 52.6475 41.2738 52.5206L41.533 52.5202Z" fill="#1F1917"/>
<path d="M43.7223 53.9072H41.9802V53.6903C42.036 53.6862 42.0935 53.6811 42.1534 53.6767C42.2134 53.6726 42.2645 53.6634 42.308 53.65C42.3767 53.6308 42.4275 53.5963 42.46 53.5469C42.4926 53.4976 42.5097 53.4335 42.5097 53.355V51.3532C42.5097 51.2826 42.4915 51.2187 42.4561 51.1601C42.4217 51.1018 42.3714 51.0535 42.308 51.0141C42.2618 50.9874 42.1958 50.9647 42.107 50.9467C42.0196 50.9282 41.9398 50.9165 41.8662 50.9122V50.6988L43.1388 50.6263L43.1899 50.6721V53.3156C43.1899 53.3919 43.206 53.4561 43.2384 53.5066C43.2708 53.556 43.3232 53.594 43.3941 53.6175C43.4479 53.6378 43.5002 53.6534 43.5511 53.6656C43.6024 53.6767 43.6586 53.686 43.7223 53.6903V53.9072ZM43.2621 49.3481C43.2621 49.4723 43.2171 49.5815 43.1247 49.6743C43.0338 49.7675 42.9217 49.8149 42.7869 49.8149C42.663 49.8149 42.5546 49.7698 42.4638 49.6813C42.3729 49.5927 42.3267 49.4905 42.3267 49.377C42.3267 49.2563 42.3729 49.1517 42.4638 49.0621C42.5546 48.9721 42.663 48.9271 42.7869 48.9271C42.9266 48.9271 43.04 48.9689 43.1286 49.0531C43.2171 49.1381 43.2621 49.2357 43.2621 49.3481Z" fill="#1F1917"/>
<path d="M50.5183 53.9072H48.7609V53.6903C48.817 53.6862 48.8731 53.6811 48.9304 53.6767C48.9879 53.6726 49.0388 53.6634 49.0827 53.65C49.1513 53.6308 49.201 53.5963 49.2337 53.5469C49.2671 53.4976 49.2837 53.4335 49.2837 53.355V51.682C49.2837 51.453 49.2261 51.2779 49.1104 51.1534C48.9941 51.0301 48.8495 50.9682 48.6773 50.9682C48.5575 50.9682 48.4454 50.985 48.3408 51.0176C48.2361 51.05 48.1398 51.0965 48.0523 51.1557C47.9813 51.204 47.9229 51.2556 47.8756 51.3113C47.8265 51.3679 47.7916 51.4138 47.7666 51.4518V53.3223C47.7666 53.3989 47.7817 53.4613 47.8104 53.5109C47.8402 53.5602 47.8902 53.5987 47.9603 53.6242C48.0164 53.6444 48.0675 53.6593 48.1122 53.6689C48.157 53.6781 48.2157 53.686 48.2896 53.6903V53.9072H46.5683V53.6903C46.6243 53.6862 46.6793 53.6811 46.7315 53.6767C46.7839 53.6726 46.8312 53.6634 46.875 53.65C46.9437 53.6308 46.9934 53.5963 47.0273 53.5469C47.0594 53.4976 47.076 53.4335 47.076 53.355V51.682C47.076 51.453 47.0185 51.2779 46.9022 51.1534C46.7865 51.0301 46.643 50.9682 46.4698 50.9682C46.3496 50.9682 46.2386 50.985 46.1341 51.0187C46.0294 51.0535 45.9321 51.0994 45.8444 51.1589C45.7737 51.2071 45.7153 51.2608 45.6665 51.3217C45.618 51.3825 45.5803 51.4271 45.5566 51.4573V53.3156C45.5566 53.3898 45.5727 53.4526 45.608 53.5031C45.6413 53.5536 45.6923 53.5917 45.7614 53.6175C45.8124 53.6398 45.8646 53.6558 45.9181 53.6669C45.9718 53.6778 46.032 53.686 46.097 53.6903V53.9072H44.3469V53.6903C44.403 53.6862 44.4603 53.6811 44.5202 53.6767C44.5798 53.6726 44.6312 53.6634 44.6762 53.65C44.7434 53.6308 44.7945 53.5963 44.8273 53.5469C44.8606 53.4976 44.877 53.4335 44.877 53.355V51.3395C44.877 51.2692 44.8591 51.2062 44.8232 51.1499C44.7884 51.0953 44.7384 51.0472 44.6762 51.0073C44.6301 50.9818 44.5728 50.9603 44.5041 50.9438C44.4352 50.9269 44.3653 50.9165 44.292 50.9122V50.6988L45.4979 50.6263L45.5493 50.6721V51.1357H45.5738C45.6353 51.0806 45.71 51.0164 45.7974 50.9415C45.8848 50.8671 45.9669 50.8068 46.042 50.7606C46.1276 50.7081 46.234 50.6639 46.3625 50.6294C46.4896 50.5948 46.6278 50.5769 46.7766 50.5769C47.0109 50.5769 47.2117 50.6341 47.3799 50.7464C47.5471 50.8594 47.668 50.9955 47.7421 51.1557C47.8291 51.0782 47.9065 51.0109 47.974 50.9537C48.0398 50.8956 48.1286 50.8337 48.2382 50.7673C48.3306 50.7101 48.4403 50.6639 48.5652 50.6294C48.691 50.5948 48.8307 50.5769 48.9842 50.5769C49.2886 50.5769 49.5291 50.6663 49.7076 50.8462C49.8847 51.0268 49.9744 51.3026 49.9744 51.6754V53.3223C49.9744 53.3989 49.9881 53.4613 50.018 53.5109C50.0469 53.5602 50.0966 53.5987 50.1679 53.6242C50.2243 53.6444 50.2789 53.6593 50.3339 53.6689C50.3888 53.6781 50.4508 53.686 50.5183 53.6903V53.9072Z" fill="#1F1917"/>
<path d="M52.8685 53.9072H51.1261V53.6903C51.1825 53.6862 51.2398 53.6811 51.2997 53.6767C51.3596 53.6726 51.4107 53.6634 51.4543 53.65C51.523 53.6308 51.5741 53.5963 51.6062 53.5469C51.6389 53.4976 51.6565 53.4335 51.6565 53.355V51.3532C51.6565 51.2826 51.6378 51.2187 51.6024 51.1601C51.5676 51.1018 51.518 51.0535 51.4543 51.0141C51.4081 50.9874 51.342 50.9647 51.2535 50.9467C51.1662 50.9282 51.0867 50.9165 51.0127 50.9122V50.6988L52.2849 50.6263L52.3362 50.6721V53.3156C52.3362 53.3919 52.3525 53.4561 52.3846 53.5066C52.4174 53.556 52.4697 53.594 52.5407 53.6175C52.5942 53.6378 52.6465 53.6534 52.6982 53.6656C52.749 53.6767 52.8051 53.686 52.8685 53.6903V53.9072ZM52.4086 49.3481C52.4086 49.4723 52.3639 49.5815 52.2709 49.6743C52.1804 49.7675 52.0682 49.8149 51.9332 49.8149C51.8098 49.8149 51.7015 49.7698 51.6103 49.6813C51.5191 49.5927 51.4733 49.4905 51.4733 49.377C51.4733 49.2563 51.5191 49.1517 51.6103 49.0621C51.7015 48.9721 51.8098 48.9271 51.9332 48.9271C52.0731 48.9271 52.1865 48.9689 52.275 49.0531C52.3639 49.1381 52.4086 49.2357 52.4086 49.3481Z" fill="#1F1917"/>
<path d="M55.7172 53.7653C55.5588 53.8246 55.4095 53.874 55.2683 53.9145C55.1261 53.9552 54.9536 53.9761 54.7494 53.9761C54.4476 53.9761 54.2342 53.907 54.1122 53.7697C53.9888 53.633 53.9274 53.44 53.9274 53.1897V50.9942H53.2764V50.6786H53.9412V49.6698H54.6071V50.6786H55.6412V50.9942H54.6136V52.8062C54.6136 52.9418 54.6197 53.0553 54.6308 53.1461C54.6411 53.2368 54.6671 53.3165 54.7096 53.3839C54.7483 53.448 54.8069 53.4963 54.8838 53.5284C54.9627 53.5613 55.0673 53.5778 55.1985 53.5778C55.2596 53.5778 55.3493 53.5737 55.4665 53.5634C55.5851 53.5531 55.6687 53.5409 55.7172 53.5249V53.7653Z" fill="#1F1917"/>
<path d="M59.4564 53.1444C59.3054 53.4037 59.1034 53.6093 58.85 53.7625C58.597 53.9164 58.3051 53.9927 57.9769 53.9927C57.6862 53.9927 57.4335 53.9468 57.2151 53.8548C56.9966 53.7625 56.8169 53.6382 56.6761 53.4798C56.5349 53.3227 56.4288 53.1374 56.359 52.9276C56.2907 52.7171 56.2559 52.4948 56.2559 52.2605C56.2559 52.0503 56.2933 51.8439 56.3667 51.6407C56.4417 51.4375 56.5502 51.256 56.6948 51.0935C56.8333 50.9385 57.0057 50.8128 57.2114 50.7173C57.4168 50.622 57.6477 50.5739 57.9033 50.5739C58.1666 50.5739 58.3921 50.6107 58.5794 50.6859C58.768 50.76 58.9202 50.8622 59.0359 50.9913C59.1484 51.1144 59.2314 51.2592 59.2866 51.4256C59.3415 51.5925 59.3691 51.7733 59.3691 51.9676V52.185H56.9826C56.9826 52.3972 57.0057 52.5899 57.0504 52.763C57.0954 52.9369 57.1664 53.0882 57.2648 53.2208C57.3596 53.3477 57.4832 53.4475 57.6362 53.5213C57.7896 53.5944 57.9732 53.6313 58.1853 53.6313C58.4021 53.6313 58.5898 53.5854 58.7466 53.4946C58.9024 53.4037 59.0547 53.2397 59.2007 53.0031L59.4564 53.1444ZM58.6493 51.9089C58.6493 51.7858 58.6382 51.6543 58.6143 51.5141C58.5909 51.3739 58.5544 51.257 58.5033 51.1625C58.4471 51.0619 58.37 50.9799 58.2727 50.9158C58.1754 50.8519 58.0494 50.8206 57.896 50.8206C57.6401 50.8206 57.4282 50.9158 57.2584 51.108C57.089 51.2996 56.9981 51.567 56.9826 51.9089H58.6493Z" fill="#1F1917"/>
<path d="M63.9999 53.8475L62.7426 53.92L62.6877 53.874V53.5711L62.6593 53.565C62.5319 53.693 62.3762 53.7963 62.1889 53.878C62.003 53.9592 61.8111 53.9995 61.6141 53.9995C61.4093 53.9995 61.2111 53.9577 61.02 53.8756C60.8292 53.794 60.6624 53.6781 60.5215 53.5289C60.3778 53.3775 60.263 53.196 60.1797 52.9838C60.0958 52.7707 60.0537 52.5361 60.0537 52.2801C60.0537 52.0458 60.0984 51.8238 60.1884 51.6127C60.2794 51.4028 60.403 51.219 60.5613 51.0605C60.7094 50.9133 60.8918 50.7967 61.1074 50.7084C61.3234 50.6207 61.5428 50.5772 61.7675 50.5772C61.9358 50.5772 62.1003 50.5964 62.2625 50.6344C62.4247 50.6736 62.5643 50.7217 62.6801 50.7812V49.6538C62.6801 49.5614 62.664 49.4772 62.6292 49.4024C62.5956 49.3258 62.5483 49.2685 62.4872 49.2293C62.4185 49.1878 62.3276 49.1579 62.2113 49.1385C62.0954 49.1204 61.9705 49.1074 61.8374 49.0981V48.894L63.3089 48.8188L63.3638 48.8682V53.2395C63.3638 53.317 63.3799 53.3821 63.4141 53.436C63.446 53.4889 63.4947 53.5348 63.5581 53.5716C63.6043 53.599 63.6706 53.6143 63.7594 53.621C63.8465 53.6271 63.9266 53.6324 63.9999 53.6346V53.8475ZM62.6801 53.2782V51.3823C62.6619 51.325 62.6292 51.2641 62.5856 51.1982C62.5418 51.132 62.4872 51.0725 62.4209 51.0174C62.351 50.9625 62.2674 50.9163 62.1725 50.8807C62.0778 50.8449 61.9668 50.8269 61.8409 50.8269C61.6936 50.8269 61.5591 50.8603 61.437 50.9288C61.3132 50.9959 61.2047 51.094 61.11 51.2209C61.0189 51.344 60.9479 51.4998 60.8956 51.6894C60.8432 51.8793 60.8166 52.0888 60.8166 52.319C60.8166 52.5031 60.8368 52.6703 60.8757 52.8208C60.9139 52.9711 60.9803 53.1105 61.0724 53.239C61.1589 53.3627 61.2672 53.4611 61.4005 53.5354C61.5328 53.6094 61.6901 53.6477 61.8733 53.6477C62.0676 53.6477 62.2301 53.6086 62.3572 53.5319C62.4857 53.4559 62.5933 53.3705 62.6801 53.2782Z" fill="#1F1917"/>
</svg>
