<svg width="64" height="64" viewBox="0 0 64 64" fill="none" xmlns="http://www.w3.org/2000/svg">
<path d="M63.9603 26.2379C64.8322 31.4106 51.2307 38.1846 33.5773 41.3678C15.926 44.5511 0.909918 42.9358 0.0394819 37.761C-0.830252 32.5876 12.7747 25.8157 30.426 22.6332C48.078 19.4486 63.0913 21.0638 63.9603 26.2379Z" fill="#034EA2"/>
<path d="M47.3467 33.9167L47.256 28.5381H48.8942V35.3173H46.5389L44.9042 29.7537H44.869L44.9597 35.3173H43.332V28.5381H45.7894L47.3102 33.9167H47.3467Z" fill="white"/>
<path d="M17.5679 29.1728L16.6616 35.3886H14.875L16.1019 28.5381H19.0451L20.2664 35.3886H18.4868L17.6051 29.1728H17.5679Z" fill="white"/>
<path d="M24.4272 35.3886L23.3205 29.2296H23.2846L23.2431 35.3886H21.5859L21.7322 28.5381H24.4321L25.2491 33.7748H25.2842L26.1019 28.5381H28.8004L28.9439 35.3886H27.2902L27.2466 29.2296H27.2121L26.1062 35.3886H24.4272Z" fill="white"/>
<path d="M12.0882 33.4563C12.1529 33.6223 12.1332 33.8356 12.1029 33.9644C12.0474 34.1922 11.8983 34.4245 11.4582 34.4245C11.0434 34.4245 10.7917 34.1784 10.7917 33.8021V33.1389H9.01703L9.01562 33.6696C9.01562 35.1968 10.1771 35.6576 11.4216 35.6576C12.6183 35.6576 13.604 35.2339 13.7608 34.0925C13.841 33.5007 13.7812 33.1135 13.7538 32.9671C13.4747 31.5331 10.9632 31.1051 10.7762 30.3029C10.7445 30.1654 10.7537 30.0198 10.7692 29.9419C10.8149 29.7235 10.9597 29.4826 11.3738 29.4826C11.7605 29.4826 11.989 29.7301 11.989 30.1042C11.989 30.2301 11.989 30.5271 11.989 30.5271H13.6392V30.046C13.6392 28.5537 12.3455 28.3208 11.4083 28.3208C10.2313 28.3208 9.26944 28.7233 9.09367 29.8385C9.04586 30.1464 9.03883 30.4209 9.10843 30.7644C9.39741 32.1642 11.7479 32.5697 12.0882 33.4563Z" fill="white"/>
<path d="M33.6036 33.4437C33.669 33.6082 33.6479 33.8157 33.6183 33.9445C33.5642 34.1716 33.4165 34.4002 32.9792 34.4002C32.57 34.4002 32.3204 34.1541 32.3204 33.7865L32.319 33.1292H30.5627L30.5605 33.6526C30.5605 35.1645 31.7115 35.6209 32.9433 35.6209C34.1274 35.6209 35.104 35.2031 35.258 34.0719C35.3381 33.4844 35.2812 33.1023 35.2523 32.9589C34.9746 31.538 32.4884 31.1143 32.3035 30.3202C32.2719 30.1833 32.281 30.0392 32.2972 29.9657C32.3443 29.7458 32.4863 29.5107 32.8962 29.5107C33.2794 29.5107 33.503 29.7524 33.503 30.1236C33.503 30.2481 33.503 30.5422 33.503 30.5422H35.1405V30.0661C35.1405 28.5899 33.8574 28.3584 32.9293 28.3584C31.7657 28.3584 30.8116 28.7558 30.6393 29.863C30.5915 30.1666 30.5866 30.4359 30.6548 30.778C30.9395 32.1633 33.2668 32.5658 33.6036 33.4437Z" fill="white"/>
<path d="M39.1617 34.3637C39.6208 34.3637 39.7643 34.0346 39.7959 33.8665C39.8093 33.7922 39.8128 33.6932 39.8114 33.6044V28.5352H41.4848V33.4494C41.4883 33.5753 41.4763 33.8345 41.4707 33.8992C41.3533 35.1782 40.3767 35.5931 39.161 35.5931C37.944 35.5931 36.9666 35.1782 36.8506 33.8992C36.845 33.8345 36.8331 33.5753 36.8366 33.4494V28.5352H38.5085V33.6044C38.5085 33.6932 38.5114 33.793 38.524 33.8665C38.5599 34.0346 38.6991 34.3637 39.1617 34.3637Z" fill="white"/>
<path d="M52.9659 34.2924C53.4454 34.2924 53.6128 33.9787 53.6437 33.796C53.6557 33.7173 53.6592 33.622 53.6585 33.5354V32.541H52.9793V31.5408H55.3255V33.3796C55.3241 33.5077 55.3213 33.6023 55.3016 33.8309C55.1912 35.0771 54.1471 35.5219 52.9744 35.5219C51.7995 35.5219 50.7568 35.0771 50.645 33.8309C50.626 33.6023 50.6232 33.5077 50.6211 33.3796L50.6225 30.4948C50.6225 30.3733 50.6373 30.1578 50.6499 30.0435C50.7969 28.7631 51.7995 28.3511 52.9744 28.3511C54.1478 28.3511 55.1751 28.7609 55.2967 30.0435C55.3185 30.2619 55.3115 30.4948 55.3115 30.4948V30.7234H53.643V30.3398C53.6444 30.3405 53.6409 30.1767 53.6212 30.0792C53.5931 29.9278 53.4658 29.5798 52.9617 29.5798C52.4794 29.5798 52.3381 29.9088 52.3029 30.0792C52.2825 30.1694 52.2748 30.2917 52.2748 30.4024V33.5354C52.2734 33.622 52.2783 33.7173 52.2917 33.796C52.3205 33.9794 52.4871 34.2924 52.9659 34.2924Z" fill="white"/>
</svg>
