<svg width="64" height="64" viewBox="0 0 64 64" fill="none" xmlns="http://www.w3.org/2000/svg">
<path d="M47.7799 22.0246L40.9119 54.7463H52.1899L59.058 22.0246H47.7799ZM26.8474 18.3474C32.078 17.1773 38.2951 20.0197 38.2951 20.0197L41.0746 11.6693C30.6176 8.49482 23.7425 10.1707 23.7425 10.1707C9.03079 12.8435 8.05127 20.186 8.214 26.5319C8.37644 32.8778 18.3495 36.3809 22.6002 38.0493C26.8511 39.7182 24.722 44.3955 24.722 44.3955C19.1626 52.0771 4.61738 45.2293 4.61738 45.2293L2 53.576C19.8166 58.9177 34.2068 55.4149 36.4951 43.2255C38.783 31.0357 24.2341 28.2002 24.2341 28.2002C16.3865 24.6971 21.617 19.5177 26.8474 18.3474ZM62 8H50.7222L49.2006 16.0291H60.4781L62 8Z" fill="#231F20"/>
</svg>
