<svg width="40" height="40" viewBox="0 0 40 40" fill="none" xmlns="http://www.w3.org/2000/svg">
<path d="M20 25C22.7614 25 25 22.7614 25 20C25 17.2386 22.7614 15 20 15C17.2386 15 15 17.2386 15 20C15 22.7614 17.2386 25 20 25Z" stroke="black" stroke-width="1.5" stroke-miterlimit="10" stroke-linecap="round" stroke-linejoin="round"/>
<path d="M3.3335 21.4657V18.5324C3.3335 16.7991 4.75016 15.3657 6.50016 15.3657C9.51683 15.3657 10.7502 13.2324 9.2335 10.6157C8.36683 9.11575 8.8835 7.16575 10.4002 6.29908L13.2835 4.64908C14.6002 3.86575 16.3002 4.33241 17.0835 5.64908L17.2668 5.96575C18.7668 8.58241 21.2335 8.58241 22.7502 5.96575L22.9335 5.64908C23.7168 4.33241 25.4168 3.86575 26.7335 4.64908L29.6168 6.29908C31.1335 7.16575 31.6502 9.11575 30.7835 10.6157C29.2668 13.2324 30.5002 15.3657 33.5168 15.3657C35.2502 15.3657 36.6835 16.7824 36.6835 18.5324V21.4657C36.6835 23.1991 35.2668 24.6324 33.5168 24.6324C30.5002 24.6324 29.2668 26.7657 30.7835 29.3824C31.6502 30.8991 31.1335 32.8324 29.6168 33.6991L26.7335 35.3491C25.4168 36.1324 23.7168 35.6658 22.9335 34.3491L22.7502 34.0324C21.2502 31.4157 18.7835 31.4157 17.2668 34.0324L17.0835 34.3491C16.3002 35.6658 14.6002 36.1324 13.2835 35.3491L10.4002 33.6991C8.8835 32.8324 8.36683 30.8824 9.2335 29.3824C10.7502 26.7657 9.51683 24.6324 6.50016 24.6324C4.75016 24.6324 3.3335 23.1991 3.3335 21.4657Z" stroke="black" stroke-width="1.5" stroke-miterlimit="10" stroke-linecap="round" stroke-linejoin="round"/>
</svg>
