<svg width="40" height="40" viewBox="0 0 40 40" fill="none" xmlns="http://www.w3.org/2000/svg">
<path d="M20 25C22.7614 25 25 22.7614 25 20C25 17.2386 22.7614 15 20 15C17.2386 15 15 17.2386 15 20C15 22.7614 17.2386 25 20 25Z" stroke="black" stroke-width="1.5" stroke-miterlimit="10" stroke-linecap="round" stroke-linejoin="round"/>
<path d="M3.33301 21.4657V18.5324C3.33301 16.7991 4.74967 15.3657 6.49967 15.3657C9.51634 15.3657 10.7497 13.2324 9.23301 10.6157C8.36634 9.11575 8.88301 7.16575 10.3997 6.29908L13.283 4.64908C14.5997 3.86575 16.2997 4.33241 17.083 5.64908L17.2663 5.96575C18.7663 8.58241 21.233 8.58241 22.7497 5.96575L22.933 5.64908C23.7163 4.33241 25.4163 3.86575 26.733 4.64908L29.6163 6.29908C31.133 7.16575 31.6497 9.11575 30.783 10.6157C29.2663 13.2324 30.4997 15.3657 33.5163 15.3657C35.2497 15.3657 36.683 16.7824 36.683 18.5324V21.4657C36.683 23.1991 35.2663 24.6324 33.5163 24.6324C30.4997 24.6324 29.2663 26.7657 30.783 29.3824C31.6497 30.8991 31.133 32.8324 29.6163 33.6991L26.733 35.3491C25.4163 36.1324 23.7163 35.6658 22.933 34.3491L22.7497 34.0324C21.2497 31.4157 18.783 31.4157 17.2663 34.0324L17.083 34.3491C16.2997 35.6658 14.5997 36.1324 13.283 35.3491L10.3997 33.6991C8.88301 32.8324 8.36634 30.8824 9.23301 29.3824C10.7497 26.7657 9.51634 24.6324 6.49967 24.6324C4.74967 24.6324 3.33301 23.1991 3.33301 21.4657Z" stroke="black" stroke-width="1.5" stroke-miterlimit="10" stroke-linecap="round" stroke-linejoin="round"/>
</svg>
