<svg width="40" height="40" viewBox="0 0 40 40" fill="none" xmlns="http://www.w3.org/2000/svg">
<path d="M13.9668 20.0001L17.9835 24.0335L26.0335 15.9668" stroke="black" stroke-width="1.5" stroke-linecap="round" stroke-linejoin="round"/>
<path d="M17.9168 4.0832C19.0668 3.09987 20.9501 3.09987 22.1168 4.0832L24.7501 6.34987C25.2501 6.7832 26.1835 7.1332 26.8501 7.1332H29.6835C31.4501 7.1332 32.9001 8.5832 32.9001 10.3499V13.1832C32.9001 13.8332 33.2501 14.7832 33.6835 15.2832L35.9501 17.9165C36.9335 19.0665 36.9335 20.9499 35.9501 22.1165L33.6835 24.7499C33.2501 25.2499 32.9001 26.1832 32.9001 26.8499V29.6832C32.9001 31.4499 31.4501 32.8999 29.6835 32.8999H26.8501C26.2001 32.8999 25.2501 33.2499 24.7501 33.6832L22.1168 35.9499C20.9668 36.9332 19.0835 36.9332 17.9168 35.9499L15.2835 33.6832C14.7835 33.2499 13.8501 32.8999 13.1835 32.8999H10.3001C8.53346 32.8999 7.08346 31.4499 7.08346 29.6832V26.8332C7.08346 26.1832 6.73346 25.2499 6.3168 24.7499L4.0668 22.0999C3.10013 20.9499 3.10013 19.0832 4.0668 17.9332L6.3168 15.2832C6.73346 14.7832 7.08346 13.8499 7.08346 13.1999V10.3332C7.08346 8.56654 8.53346 7.11654 10.3001 7.11654H13.1835C13.8335 7.11654 14.7835 6.76654 15.2835 6.3332L17.9168 4.0832Z" stroke="black" stroke-width="1.5" stroke-linecap="round" stroke-linejoin="round"/>
</svg>
