<svg width="64" height="64" viewBox="0 0 64 64" fill="none" xmlns="http://www.w3.org/2000/svg">
<g clip-path="url(#clip0_3362_7725)">
<path d="M43.2549 6.60248C47.4008 9.45363 49.3175 14.0449 48.6029 18.9084C48.0124 22.6873 45.3564 26.0041 41.9489 28.0383C39.2616 32.2764 34.2842 34.3687 29.1569 33.4664C25.56 32.8129 22.2537 30.4092 20.3729 27.1887C16.1111 24.4165 14.0813 19.7662 14.7444 14.7611C15.4222 10.9296 17.7794 7.18342 21.6016 5.52593C24.4003 1.37583 29.2912 -0.691044 34.3329 0.2076C37.9556 0.918343 41.3235 3.21215 43.2549 6.60248Z" fill="black"/>
<path d="M42.3106 5.90105C37.5576 3.51103 32.0551 4.25354 29.2399 6.31951C25.4443 8.84297 23.6519 12.7761 23.4679 17.1277C23.5875 19.3671 24.6001 21.3568 26.3107 22.9517C22.5041 20.9774 19.94 16.9235 19.8609 12.7589C19.7928 8.25931 22.0157 4.2844 26.0329 1.93613C28.3883 0.648079 31.1492 -0.0399742 34.0361 0.533705C37.3801 1.06744 40.4188 2.98727 42.3106 5.90105Z" fill="#F58220"/>
<path d="M42.3106 5.90105C37.5576 3.51103 32.0551 4.25354 29.2399 6.31951C25.4443 8.84297 23.6519 12.7761 23.4679 17.1277C23.5875 19.3671 24.6001 21.3568 26.3107 22.9517C22.5041 20.9774 19.94 16.9235 19.8609 12.7589C19.7928 8.25931 22.0157 4.2844 26.0329 1.93613C28.3883 0.648078 31.1492 -0.0399734 34.0361 0.533705C37.3801 1.06744 40.4188 2.98727 42.3106 5.90105Z" stroke="black" stroke-width="0.141637" stroke-miterlimit="2.613" stroke-linejoin="bevel"/>
<path d="M47.0937 11.6516C48.991 15.208 48.6645 20.3648 46.2687 23.6071C45.3968 24.8616 44.1819 26.1615 42.7886 26.8677C44.0219 24.2562 44.5176 20.7533 43.5924 17.9003C42.5973 13.8446 38.5957 10.1593 34.5261 9.15443C31.1692 8.17319 27.3746 9.07728 25.1406 11.7659C26.1771 9.0918 28.8019 6.61191 31.55 5.5054C35.7934 4.00221 41.0651 4.85275 44.2895 7.95261C45.4768 9.02644 46.4867 10.29 47.0937 11.6516Z" fill="#FDD1B0"/>
<path d="M47.0937 11.6516C48.991 15.208 48.6645 20.3648 46.2687 23.6071C45.3968 24.8616 44.1819 26.1615 42.7886 26.8677C44.0219 24.2562 44.5176 20.7533 43.5924 17.9003C42.5973 13.8446 38.5957 10.1593 34.5261 9.15443C31.1692 8.17319 27.3746 9.07728 25.1406 11.7659C26.1771 9.0918 28.8019 6.61191 31.55 5.5054C35.7934 4.00222 41.0651 4.85275 44.2895 7.95261C45.4768 9.02644 46.4867 10.29 47.0937 11.6516Z" stroke="black" stroke-width="0.141637" stroke-miterlimit="2.613" stroke-linejoin="bevel"/>
<path d="M21.002 6.31694C18.9014 10.0722 18.9861 15.6891 21.5124 19.1839C24.2099 22.684 27.9972 25.1884 32.6021 24.7591C34.779 24.4423 36.7572 23.3367 38.2453 21.5721C36.5807 25.8729 31.9142 28.842 27.2706 28.7667C22.7954 28.7812 18.7699 26.5482 16.5424 22.6731C14.3802 19.3591 14.5338 14.2522 16.4505 10.8537C17.4566 9.0165 19.0578 7.28366 21.002 6.31694Z" fill="#FDD1B0"/>
<path d="M21.002 6.31694C18.9014 10.0722 18.9861 15.6891 21.5124 19.1839C24.2099 22.684 27.9972 25.1884 32.6021 24.7591C34.779 24.4423 36.7572 23.3367 38.2453 21.5721C36.5807 25.8729 31.9142 28.842 27.2706 28.7667C22.7954 28.7812 18.7699 26.5482 16.5424 22.6731C14.3802 19.3591 14.5338 14.2522 16.4505 10.8537C17.4566 9.0165 19.0578 7.28367 21.002 6.31694Z" stroke="black" stroke-width="0.141637" stroke-miterlimit="2.613" stroke-linejoin="bevel"/>
<path d="M38.8542 14.133C40.0407 16.8271 39.1789 20.2057 37.0838 22.229C35.5204 23.7122 33.6157 24.3449 31.5307 24.4692C28.8305 24.265 26.3391 22.9788 24.9412 20.6123C23.4862 18.2441 23.534 14.5025 25.3219 12.3294C25.8369 11.4807 26.7106 10.9524 27.4731 10.3633C29.6619 8.92998 32.9737 8.76387 35.2647 10.0719C36.8585 10.936 38.2003 12.491 38.8542 14.133Z" fill="white"/>
<path d="M38.8542 14.133C40.0407 16.8271 39.1789 20.2057 37.0838 22.229C35.5204 23.7122 33.6157 24.3449 31.5307 24.4692C28.8305 24.265 26.3391 22.9788 24.9412 20.6123C23.4862 18.2441 23.534 14.5025 25.3219 12.3294C25.8369 11.4807 26.7106 10.9524 27.4731 10.3633C29.6619 8.92998 32.9737 8.76387 35.2647 10.0719C36.8585 10.936 38.2003 12.491 38.8542 14.133Z" stroke="black" stroke-width="0.141637" stroke-miterlimit="2.613" stroke-linejoin="bevel"/>
<path d="M43.2656 18.3079C43.3659 18.5739 43.3806 18.6165 43.4183 18.8162C44.4631 23.9076 42.0893 28.9101 37.776 31.5842C34.3621 33.7854 28.9414 33.9071 25.4567 31.7213C23.8335 30.8835 22.373 29.4647 21.3457 27.8934C22.235 28.1494 22.9837 28.5179 23.8804 28.7621C29.2753 30.1473 34.6546 27.9851 37.6923 23.5082C39.6402 20.8659 40.5029 16.6495 39.0442 13.5823C38.5163 12.3914 37.5001 11.323 36.4783 10.3935L36.5087 10.339C39.7966 11.6807 42.4425 15.012 43.2656 18.3079Z" fill="#F58220"/>
<path d="M43.2656 18.3079C43.3659 18.5739 43.3806 18.6165 43.4183 18.8162C44.4631 23.9076 42.0893 28.9101 37.776 31.5842C34.3621 33.7854 28.9414 33.9071 25.4567 31.7213C23.8335 30.8835 22.373 29.4647 21.3457 27.8934C22.235 28.1494 22.9837 28.5179 23.8804 28.7621C29.2753 30.1473 34.6546 27.9851 37.6923 23.5082C39.6402 20.8659 40.5029 16.6495 39.0442 13.5823C38.5163 12.3914 37.5001 11.323 36.4783 10.3935L36.5087 10.339C39.7966 11.6807 42.4425 15.012 43.2656 18.3079Z" stroke="black" stroke-width="0.141637" stroke-miterlimit="2.613" stroke-linejoin="bevel"/>
<path d="M41.4584 48.206C41.4584 49.5421 41.6019 50.5588 41.8897 51.255C42.1776 51.9521 42.6365 52.396 43.2601 52.583C43.4284 52.6347 43.6583 52.6719 43.9489 52.6955C44.372 52.7328 44.5844 52.848 44.5844 53.0432C44.5844 53.1612 44.5393 53.2483 44.4465 53.2974C44.3572 53.3455 44.1733 53.3691 43.8956 53.3691H38.7692C38.5154 53.3691 38.3443 53.3455 38.2579 53.2974C38.1705 53.2483 38.1254 53.1612 38.1254 53.0432C38.1254 52.848 38.3075 52.7355 38.6717 52.7064C38.7977 52.6983 38.8869 52.6928 38.9458 52.6837C39.55 52.563 40.0117 52.1246 40.3281 51.3675C40.6445 50.6105 40.8036 49.5703 40.8036 48.2523V38.6195C40.4991 38.0586 39.8912 37.7554 38.9908 37.71C38.7784 37.7009 38.6129 37.69 38.4979 37.6755C38.336 37.6691 38.2155 37.6374 38.1319 37.5802C38.0472 37.5257 38.0059 37.4449 38.0059 37.3378C38.0059 37.2117 38.05 37.1218 38.1429 37.0673C38.2321 37.0156 38.4004 36.9902 38.6404 36.9902H44.1696C44.2984 36.9902 44.4023 37.0011 44.475 37.0247C44.5476 37.0474 44.6092 37.0846 44.6598 37.1372C44.6764 37.1508 44.727 37.2834 44.8134 37.5285C44.9008 37.7763 45.0065 37.9859 45.1298 38.1593L52.4662 49.4323V41.9863C52.4662 40.6955 52.3236 39.7115 52.0413 39.0371C51.7562 38.3636 51.3055 37.9433 50.6838 37.7763C50.5247 37.7327 50.292 37.6982 49.9848 37.6755C49.5563 37.6465 49.3411 37.5339 49.3411 37.3378C49.3411 37.2117 49.3916 37.1218 49.4891 37.0673C49.5875 37.0156 49.766 36.9902 50.0299 36.9902H55.2427C55.4828 36.9902 55.6511 37.0156 55.7485 37.0673C55.847 37.1218 55.8966 37.2117 55.8966 37.3378C55.8883 37.5339 55.7072 37.6465 55.3512 37.6755C55.2197 37.6837 55.125 37.69 55.0661 37.6982C54.3975 37.8334 53.9046 38.2456 53.5919 38.9363C53.2783 39.6244 53.121 40.6356 53.121 41.9627V50.1639C53.3481 50.458 53.6498 50.6822 54.0278 50.8374C54.4058 50.9963 54.5962 51.1288 54.5962 51.2323C54.5962 51.3076 54.392 51.4456 53.9837 51.6444C53.5772 51.8423 53.2194 52.0592 52.9141 52.2889C52.5784 52.5367 52.2537 52.848 51.9346 53.2247C51.6182 53.5996 51.4398 53.7866 51.3947 53.7866C51.2807 53.7866 51.1179 53.625 50.9137 53.3028C50.8769 53.2483 50.8521 53.2102 50.8383 53.1902L41.4584 38.6431V48.206Z" fill="black"/>
<path d="M52.1828 61.8919V61.0668H53.508L52.192 57.9506L52.1828 57.9706V56.9385H52.8321L56.0004 64.0015H54.7469L53.8465 61.8919H52.1828ZM52.1828 56.9385V57.9706L50.8575 61.0668H52.1828V61.8919H50.5016L49.5948 64.0015H48.3982L51.5574 56.9385H52.1828ZM34.7785 60.9769V60.1618H34.7896C35.5023 60.1618 36.0054 60.0647 36.3006 59.8732C36.594 59.6816 36.7421 59.363 36.7421 58.9146C36.7421 58.4952 36.6041 58.2002 36.3264 58.0269C36.0486 57.8553 35.5363 57.7682 34.7896 57.7682H34.7785V56.9385H34.9809C35.5143 56.9385 35.9088 56.9585 36.1608 56.9957C36.4128 57.0356 36.64 57.0992 36.8386 57.1872C37.1973 57.3515 37.4686 57.5784 37.6562 57.868C37.8439 58.1594 37.9358 58.5016 37.9358 58.8946C37.9358 59.2759 37.8374 59.6017 37.6424 59.8722C37.4456 60.1418 37.1541 60.3533 36.766 60.5067C37.0943 60.5839 37.3316 60.7137 37.4714 60.8952C37.6112 61.0768 37.6976 61.3863 37.7335 61.8202L37.8319 62.9857C37.8512 63.2344 37.8908 63.4205 37.9496 63.5431C38.0112 63.6665 38.0995 63.7546 38.22 63.8054V64.0015H36.8855C36.7779 63.8544 36.7025 63.5403 36.6611 63.0574V63.0347L36.5903 62.108C36.5508 61.635 36.4312 61.3291 36.2261 61.1884C36.0302 61.0523 35.5465 60.9815 34.7785 60.9769ZM40.5965 57.9842V64.0015H39.5342V56.9385H41.1851L43.2912 62.3422C43.3528 62.4956 43.3979 62.6154 43.4255 62.7007C43.4549 62.7842 43.477 62.8596 43.4926 62.9231C43.5239 62.8051 43.5533 62.6989 43.5855 62.6072C43.6168 62.5137 43.648 62.4257 43.6839 62.3422L45.8672 56.9385H47.5218V64.0015H46.4025V57.9842C46.3749 58.0859 46.3455 58.1893 46.3105 58.2937C46.2765 58.3972 46.2388 58.4998 46.2002 58.6014L44.0131 64.0015H42.9215L40.7869 58.6014C40.7482 58.5134 40.7142 58.4172 40.6829 58.3155C40.6508 58.212 40.6241 58.1022 40.5965 57.9842ZM34.7785 56.9385V57.7682H32.815V60.1618H34.7785V60.9769H34.6967H32.8269V64.0015H31.6838V56.9385H34.7785ZM26.9878 61.8919V61.0668H28.3131L26.997 57.9506L26.9878 57.9706V56.9385H27.6371L30.8055 64.0015H29.5519L28.6515 61.8919H26.9878ZM11.423 60.1718H11.4864C12.1596 60.1718 12.6314 60.081 12.8972 59.9031C13.1649 59.7234 13.2991 59.4166 13.2991 58.9818C13.2991 58.5624 13.1667 58.261 12.9009 58.0795C12.6351 57.898 12.1937 57.8063 11.5729 57.8063H11.423V56.9385H11.5214C12.03 56.9385 12.4162 56.9603 12.682 57.0011C12.946 57.042 13.1842 57.1101 13.3911 57.2072C13.7378 57.3642 14.0045 57.5948 14.1876 57.9025C14.3724 58.2093 14.4653 58.5688 14.4653 58.9818C14.4653 59.3739 14.3724 59.7216 14.1876 60.0229C14.0045 60.3225 13.7341 60.563 13.3791 60.7409C13.1768 60.8444 12.9359 60.9161 12.6599 60.9588C12.4043 61.0005 11.9922 61.0214 11.423 61.0241V60.1718ZM26.9878 56.9385V57.9706L25.6625 61.0668H26.9878V61.8919H25.3066L24.3998 64.0015H23.2042L26.3624 56.9385H26.9878ZM15.602 64.0015V56.9385H16.7572V59.8405H21.1662V56.9385H22.3268V64.0015H21.1662V60.6937H16.7572V64.0015H15.602ZM9.54679 60.1718H11.423V61.0241H11.3006H9.54679V64.0015H8.39258V56.9385H11.423V57.8063H9.54679V60.1718Z" fill="black"/>
<path d="M23.322 42.2422C23.322 40.4804 23.2328 39.3512 23.0534 38.8555C22.8741 38.3608 22.5522 38.0177 22.0878 37.8216C21.9121 37.7472 21.6261 37.6955 21.2288 37.6637C20.8315 37.6347 20.6328 37.5167 20.6328 37.3151C20.6328 37.1971 20.6751 37.1109 20.7588 37.0619C20.8425 37.0129 21.0025 36.9902 21.2343 36.9902H29.0498C29.3267 36.9902 29.5115 37.0129 29.6062 37.0619C29.7019 37.1109 29.7497 37.1971 29.7497 37.3151C29.7497 37.5112 29.506 37.6292 29.0167 37.6755C28.7702 37.6982 28.5688 37.7245 28.4143 37.7527C27.7512 37.8652 27.2951 38.182 27.0495 38.7003C26.8003 39.2159 26.677 40.3996 26.677 42.2422V48.9031C26.677 49.6084 26.7166 50.1521 26.7975 50.5352C26.8784 50.9182 27.01 51.255 27.1921 51.5491C27.4965 52.0502 27.9554 52.4305 28.5688 52.6837C29.1813 52.9397 29.9318 53.0668 30.8212 53.0668C32.4748 53.0668 33.6722 52.6574 34.4107 51.8396C35.1529 51.0226 35.5217 49.6892 35.5217 47.8347V41.9173C35.5217 40.641 35.3764 39.6679 35.0858 38.9908C34.7942 38.3173 34.3436 37.9115 33.7393 37.7763C33.5572 37.7327 33.3255 37.6982 33.0404 37.6755C32.5952 37.6374 32.3708 37.5167 32.3626 37.3151C32.3626 37.1971 32.4076 37.1109 32.4941 37.0619C32.5814 37.0129 32.7488 36.9902 32.9981 36.9902H38.1667C38.4436 36.9902 38.6275 37.0129 38.7176 37.0619C38.8096 37.1109 38.8547 37.1971 38.8547 37.3151C38.8547 37.5021 38.6808 37.6092 38.3314 37.6292C38.1686 37.6465 38.049 37.661 37.9699 37.6755C37.3942 37.779 36.9518 38.1965 36.641 38.9254C36.3301 39.6507 36.1765 40.6356 36.1765 41.871V48.1824C36.1765 50.173 35.6845 51.6008 34.7023 52.4759C33.7173 53.3491 32.1023 53.7866 29.8582 53.7866C28.7647 53.7866 27.7797 53.6623 26.9014 53.4154C26.025 53.1676 25.292 52.8072 24.7098 52.3352C24.2003 51.9231 23.8425 51.4511 23.6328 50.9182C23.4259 50.3863 23.322 49.5739 23.322 48.4883V42.2422Z" fill="black"/>
<path d="M20.3515 40.7209C20.3965 40.8389 20.4241 40.9315 20.4379 40.9941C20.4526 41.0604 20.4609 41.1121 20.4609 41.1584C20.4609 41.2791 20.4379 41.3717 20.3965 41.4343C20.3515 41.4979 20.2871 41.5296 20.1979 41.5296C20.024 41.5296 19.7215 41.1784 19.291 40.4731C19.0584 40.0991 18.868 39.7932 18.7227 39.5626C18.2582 38.8573 17.62 38.2727 16.8116 37.8125C16.0004 37.3514 15.1975 37.1218 14.3937 37.1218C13.3811 37.1218 12.5617 37.375 11.9344 37.8815C11.3081 38.3853 10.9945 39.0416 10.9945 39.8422C10.9945 40.2253 11.0754 40.5684 11.2346 40.8734C11.3946 41.1756 11.6429 41.4552 11.9795 41.7085C12.2618 41.9272 13.5126 42.3448 15.7291 42.9584C16.3112 43.1227 16.761 43.2516 17.0829 43.3415C18.5047 43.7445 19.5568 44.3318 20.242 45.0952C20.9281 45.8604 21.2693 46.828 21.2693 47.9971C21.2693 49.6247 20.6733 50.9609 19.4814 52.0056C18.2923 53.0513 16.7499 53.5751 14.8646 53.5751C14.3606 53.5751 13.8235 53.5297 13.2524 53.4344C12.6785 53.3418 12.3538 53.2928 12.2729 53.2928C11.8949 53.2928 11.5647 53.497 11.2907 53.9064C11.0138 54.3158 10.8345 54.52 10.7536 54.52C10.6892 54.52 10.6331 54.4973 10.5908 54.4474C10.5466 54.3984 10.496 54.2985 10.4372 54.1488L8.15359 48.8531C8.12324 48.7778 8.09289 48.697 8.0561 48.6162C8.02023 48.5327 8 48.481 8 48.4583C8 48.3457 8.02575 48.2568 8.07542 48.1878C8.12876 48.1215 8.19589 48.087 8.2851 48.087C8.42306 48.087 8.69989 48.3893 9.11375 48.9965C9.53037 49.6038 9.95618 50.1375 10.393 50.595C11.1509 51.4038 11.9068 51.9911 12.6619 52.3569C13.4142 52.72 14.2401 52.9016 15.1386 52.9016C16.165 52.9016 17.0047 52.6256 17.6568 52.0746C18.3088 51.5218 18.6362 50.8165 18.6362 49.9551C18.6362 48.6053 17.0498 47.4652 13.8796 46.5348C13.6552 46.4685 13.4878 46.4195 13.3784 46.3878C11.4838 45.8177 10.1714 45.1787 9.44392 44.4697C8.71368 43.7617 8.34948 42.8204 8.34948 41.6422C8.34948 40.1935 8.91785 38.9753 10.0537 37.9877C11.1932 36.9974 12.6086 36.5018 14.3072 36.5018C14.8112 36.5018 15.3814 36.5626 16.0169 36.687C16.6552 36.8104 17.0415 36.873 17.1721 36.873C17.5363 36.873 17.7938 36.6979 17.9419 36.3438C18.0909 35.9926 18.2104 35.8174 18.2978 35.8174C18.3474 35.8174 18.398 35.8482 18.4459 35.9118C18.4937 35.9753 18.5433 36.0906 18.6022 36.2549L20.3515 40.7209Z" fill="black"/>
</g>
<defs>
<clipPath id="clip0_3362_7725">
<rect width="64" height="64" fill="white"/>
</clipPath>
</defs>
</svg>
