<svg width="64" height="64" viewBox="0 0 64 64" fill="none" xmlns="http://www.w3.org/2000/svg">
<path d="M26.2964 42.9534C25.7475 41.5145 23.6183 39.8262 23.6183 39.8262C21.9799 38.3874 20.8904 36.3997 20.6409 35.4599L19.9922 35.2603V46.172H20.9819V38.7783C21.4809 40.2171 23.9094 42.105 23.9094 42.105C23.9094 42.105 25.7974 43.6936 26.6873 45.8726L27.2861 46.172V35.41H26.2964V42.9534Z" fill="#DDAD7F"/>
<path d="M16.3248 35.5598C14.6365 38.2378 13.3474 38.9365 11.4594 40.8161C9.87092 42.4046 8.6816 44.1927 9.2721 46.1721H11.1101C10.7109 45.1824 11.0103 44.0846 11.2598 43.6937H15.7759V46.1721H16.9153V35.2105C16.9236 35.2105 16.5743 35.1606 16.3248 35.5598ZM15.7842 42.9535H11.6175C12.2662 41.2153 14.7446 40.1757 15.7842 38.2378V42.9535Z" fill="#DDAD7F"/>
<path d="M6.65236 44.7412L7.59217 37.0481C7.84167 36.0085 7.99138 35.4596 9.3304 34.3701C8.39059 34.2703 7.94148 34.8192 7.20127 34.7693H1.34619C0.156876 34.6695 -0.142532 35.7091 0.0570731 36.1083C0.206777 35.759 0.406382 35.759 0.755691 35.7091H6.31137C6.31137 35.7091 5.61275 36.4992 5.47136 37.597C5.47136 37.597 4.87255 44.2422 4.97235 46.3297C5.07215 50.4965 8.1993 52.7836 9.63812 52.584C7.30108 50.4466 6.40285 47.86 6.65236 44.7412Z" fill="#DDAD7F"/>
<path d="M38.1564 29.6049C38.5057 29.7546 38.7552 29.6548 38.3061 29.3055C35.6779 27.6171 34.1393 23.6001 33.9896 20.1735V13.3287C34.5385 13.678 35.5781 13.7279 35.5781 13.7279H39.5453C40.5849 13.7279 41.1338 14.0772 41.533 15.0171C41.8823 13.3786 40.8344 11.8899 39.2043 11.8899H34.7298C33.5904 11.9398 32.0518 11 32.0518 11V18.4935C32.0518 26.0868 36.2185 29.3138 38.1564 29.6049Z" fill="#DDAD7F"/>
<path d="M31.012 11C31.012 11 29.5232 11.9398 28.3339 11.8899H23.8678C22.2792 11.8899 21.1897 13.3786 21.539 15.0171C21.9881 14.0772 22.5287 13.7279 23.5683 13.7279H27.4856C27.4856 13.7279 28.5252 13.678 29.0741 13.3287V20.1735C28.9244 23.5918 27.3858 27.6171 24.7577 29.2971C24.3085 29.6465 24.5581 29.7463 24.9074 29.5965C26.8452 29.2971 31.012 26.0785 31.012 18.4852V11Z" fill="#DDAD7F"/>
<path d="M32.2014 35.4097H30.8125V46.1717H32.2014V35.4097Z" fill="#DDAD7F"/>
<path d="M63.0572 43.7433C63.9471 42.5041 64.496 40.4166 63.3566 38.3873C62.317 36.4494 59.3894 34.6696 59.3395 34.0708C57.9007 35.2102 56.7114 36.1999 56.0627 37.6886C55.3641 39.1774 55.1728 41.3065 56.0627 43.1445C57.0524 45.1822 58.2001 46.2717 59.5391 47.6107C60.4789 48.6503 62.2671 50.7378 61.6766 52.5759C62.1257 52.5759 62.7162 51.4864 62.816 51.0871C63.0655 49.798 62.9158 49.1493 62.3669 48.2095C62.0176 47.5691 61.2774 46.9204 60.7285 46.28C61.5186 45.6313 62.3669 44.6915 63.0572 43.7433ZM59.93 45.5315C58.7906 44.5917 58.092 43.7932 57.4017 42.2546C56.7031 40.8657 56.6615 39.2273 56.9526 38.0879C57.3019 36.8486 58.1419 35.9587 58.9403 35.31C59.8302 35.9587 60.7784 36.7488 61.4687 37.8882C62.6081 39.8261 62.6081 41.215 61.8679 43.0946C61.4188 44.1924 60.9281 44.8328 59.93 45.5315Z" fill="#DDAD7F"/>
<path d="M51.4054 42.1048H47.4798V35.4097H46.041V45.8806H47.4798V42.9531H51.4054V46.0303H52.8941V35.4097H51.4054V42.1048Z" fill="#DDAD7F"/>
<path d="M41.2338 40.2254C39.795 39.4852 38.5558 38.9862 37.4163 38.0963C36.8175 37.5973 36.8175 36.7074 37.3664 36.3082C37.9653 35.8591 38.955 35.909 39.6453 36.2583C40.294 36.6575 40.4853 37.0983 40.9843 37.5474C41.3336 37.8468 41.6829 37.9965 42.0239 37.8967C41.8742 37.1981 41.4251 36.5577 40.8346 36.0088C39.4457 34.8195 37.067 35.1189 36.1688 36.0587C35.1292 37.1981 35.4702 38.2876 36.4682 39.2856C37.6076 40.425 39.6453 40.8741 41.2754 42.4128C42.0655 43.153 42.2152 44.3007 41.1257 44.991C40.3855 45.4401 39.0964 45.5898 37.9486 45.1407C37.1585 44.7914 36.8092 44.5003 36.2603 43.7518C35.911 43.2112 35.6199 42.812 34.7217 42.812C34.8714 44.151 35.911 45.2405 37.25 45.7894C38.9882 46.4381 40.9261 46.3383 42.4564 45.2904C44.311 44.0429 43.8619 41.6143 41.2338 40.2254Z" fill="#DDAD7F"/>
<path d="M31.553 30.8438C30.7629 30.8438 30.1641 31.4426 30.1641 32.2327C30.1641 32.9729 30.7629 33.6216 31.553 33.6216C32.2516 33.6216 32.892 32.9729 32.892 32.2327C32.9003 31.4426 32.2516 30.8438 31.553 30.8438Z" fill="#DDAD7F"/>
</svg>
