<svg width="64" height="64" viewBox="0 0 64 64" fill="none" xmlns="http://www.w3.org/2000/svg">
<path d="M2 43.5601H16.4446V47.9557H12.3007V58.5197H6.28175V47.9557H2V43.5601Z" fill="#486AAE"/>
<path d="M23.759 49.6044L20.7178 58.5197H14.9375L20.6067 43.5601H26.8842L32.69 58.5197H26.8386L23.759 49.6044Z" fill="#486AAE"/>
<path d="M31.3105 43.5601H45.7546V47.9557H41.612V58.5197H35.5933V47.9557H31.3105V43.5601Z" fill="#486AAE"/>
<path d="M53.0727 49.6044L50.0303 58.5197H44.25L49.921 43.5601H56.1967L62.0005 58.5197H56.1512L53.0727 49.6044Z" fill="#486AAE"/>
<path fill-rule="evenodd" clip-rule="evenodd" d="M53.2847 16.0825C52.7453 15.0219 52.035 14.0054 51.1514 13.0522C49.1657 10.9089 46.364 9.12549 43.0485 7.89545C39.7056 6.65589 35.8928 6 32.0182 6C28.1436 6 24.3308 6.65589 20.9896 7.89545C17.6724 9.12563 14.8706 10.9091 12.8848 13.0522C12.0018 14.0053 11.2892 15.0232 10.75 16.0844C15.0664 15.0406 22.4499 13.6624 29.3056 13.5167C29.9669 13.5025 30.4222 13.7143 30.722 14.0943C31.0872 14.557 31.0598 16.2064 31.0508 16.9443L30.8559 36.0168C31.242 36.0296 31.63 36.0378 32.0182 36.0378C32.4097 36.0378 32.7997 36.0314 33.1858 36.0186L32.9909 16.9441C32.9808 16.2064 32.9525 14.5568 33.319 14.0941C33.6195 13.7143 34.0733 13.5025 34.7344 13.5166C41.5873 13.6611 48.9691 15.0396 53.2847 16.0825Z" fill="#486AAE"/>
<path fill-rule="evenodd" clip-rule="evenodd" d="M54.2061 18.5624C47.8886 17.1342 43.6697 16.8701 39.5069 16.6391C35.8784 16.4374 35.831 17.7331 36.1932 20.2093C36.217 20.3604 36.2461 20.5509 36.2807 20.7681C37.4978 27.9769 39.0134 34.1804 39.2738 35.2333C48.1199 33.2112 54.4995 27.6049 54.4995 21.019C54.4995 20.1897 54.3993 19.368 54.2061 18.5624Z" fill="#486AAE"/>
<path fill-rule="evenodd" clip-rule="evenodd" d="M27.8477 20.2093C28.2103 17.7333 28.1638 16.4374 24.5357 16.6391C20.3715 16.8701 16.1516 17.1341 9.83165 18.5633C9.63861 19.3689 9.53711 20.1895 9.53711 21.0188C9.53711 23.8653 10.6951 26.6196 12.8862 28.986C14.8719 31.1292 17.6737 32.9127 20.991 34.1436C22.1916 34.5881 23.4586 34.9524 24.7637 35.2438C25.0086 34.2574 26.5591 27.9248 27.7894 20.5871C27.8121 20.4465 27.8332 20.3167 27.8477 20.2093Z" fill="#486AAE"/>
</svg>
