<svg width="64" height="64" viewBox="0 0 64 64" fill="none" xmlns="http://www.w3.org/2000/svg">
<path fill-rule="evenodd" clip-rule="evenodd" d="M62.271 24.9117C61.5034 23.4021 60.4923 21.9552 59.2346 20.5984C56.4082 17.5478 52.4204 15.0093 47.7011 13.2585C42.943 11.4941 37.516 10.5605 32.001 10.5605C26.486 10.5605 21.0589 11.4941 16.3033 13.2585C11.5816 15.0095 7.59358 17.548 4.76717 20.5984C3.51027 21.955 2.49597 23.4039 1.72852 24.9144C7.8724 23.4286 18.3819 21.467 28.14 21.2596C29.0813 21.2394 29.7294 21.5408 30.1561 22.0817C30.6759 22.7403 30.6368 25.088 30.6241 26.1383L30.3467 53.2855C30.8962 53.3037 31.4484 53.3154 32.001 53.3154C32.5582 53.3154 33.1134 53.3063 33.663 53.2881L33.3856 26.1381C33.3712 25.088 33.3309 22.7401 33.8525 22.0815C34.2803 21.5408 34.9261 21.2394 35.8672 21.2594C45.6213 21.4652 56.1283 23.4272 62.271 24.9117Z" fill="#486AAE"/>
<path fill-rule="evenodd" clip-rule="evenodd" d="M63.5817 28.4425C54.5896 26.4097 48.5845 26.0337 42.6593 25.7049C37.4945 25.4178 37.4272 27.2621 37.9427 30.7866C37.9765 31.0016 38.018 31.2728 38.0671 31.5819C39.7995 41.8427 41.9568 50.6726 42.3275 52.1713C54.9188 49.2931 63.9993 41.3132 63.9993 31.9391C63.9993 30.7586 63.8567 29.5891 63.5817 28.4425Z" fill="#486AAE"/>
<path fill-rule="evenodd" clip-rule="evenodd" d="M26.0627 30.7866C26.5789 27.2623 26.5127 25.4178 21.3485 25.7049C15.4213 26.0337 9.41482 26.4095 0.419237 28.4437C0.144466 29.5904 0 30.7584 0 31.9388C0 35.9904 1.64822 39.9108 4.767 43.2791C7.59341 46.3297 11.5814 48.8682 16.3031 50.6202C18.012 51.2529 19.8154 51.7715 21.673 52.1863C22.0217 50.7823 24.2285 41.7687 25.9797 31.3244C26.0121 31.1243 26.0421 30.9395 26.0627 30.7866Z" fill="#486AAE"/>
</svg>
