<svg width="64" height="64" viewBox="0 0 64 64" fill="none" xmlns="http://www.w3.org/2000/svg">
<path d="M2 43.5601H16.4446V47.9557H12.3007V58.5197H6.28175V47.9557H2V43.5601Z" fill="#486AAE"/>
<path d="M23.76 49.6044L20.7188 58.5197H14.9385L20.6076 43.5601H26.8852L32.691 58.5197H26.8396L23.76 49.6044Z" fill="#486AAE"/>
<path d="M31.3105 43.5601H45.7546V47.9557H41.612V58.5197H35.5933V47.9557H31.3105V43.5601Z" fill="#486AAE"/>
<path d="M53.0717 49.6044L50.0293 58.5197H44.249L49.92 43.5601H56.1957L61.9995 58.5197H56.1503L53.0717 49.6044Z" fill="#486AAE"/>
<path fill-rule="evenodd" clip-rule="evenodd" d="M53.2856 16.0825C52.7463 15.0219 52.036 14.0054 51.1524 13.0522C49.1666 10.9089 46.365 9.12549 43.0494 7.89545C39.7066 6.65589 35.8938 6 32.0192 6C28.1445 6 24.3317 6.65589 20.9906 7.89545C17.6733 9.12563 14.8715 10.9091 12.8858 13.0522C12.0028 14.0053 11.2902 15.0232 10.751 16.0844C15.0674 15.0406 22.4509 13.6624 29.3066 13.5167C29.9679 13.5025 30.4232 13.7143 30.723 14.0943C31.0882 14.557 31.0608 16.2064 31.0518 16.9443L30.8569 36.0168C31.243 36.0296 31.6309 36.0378 32.0192 36.0378C32.4106 36.0378 32.8007 36.0314 33.1868 36.0186L32.9919 16.9441C32.9818 16.2064 32.9535 14.5568 33.32 14.0941C33.6205 13.7143 34.0742 13.5025 34.7354 13.5166C41.5882 13.6611 48.97 15.0396 53.2856 16.0825Z" fill="#486AAE"/>
<path fill-rule="evenodd" clip-rule="evenodd" d="M54.2071 18.5624C47.8896 17.1342 43.6707 16.8701 39.5079 16.6391C35.8793 16.4374 35.832 17.7331 36.1942 20.2093C36.218 20.3604 36.2471 20.5509 36.2816 20.7681C37.4987 27.9769 39.0144 34.1804 39.2748 35.2333C48.1209 33.2112 54.5005 27.6049 54.5005 21.019C54.5005 20.1897 54.4003 19.368 54.2071 18.5624Z" fill="#486AAE"/>
<path fill-rule="evenodd" clip-rule="evenodd" d="M27.8467 20.2093C28.2093 17.7333 28.1628 16.4374 24.5347 16.6391C20.3705 16.8701 16.1506 17.1341 9.83067 18.5633C9.63763 19.3689 9.53613 20.1895 9.53613 21.0188C9.53613 23.8653 10.6941 26.6196 12.8852 28.986C14.8709 31.1292 17.6728 32.9127 20.99 34.1436C22.1906 34.5881 23.4576 34.9524 24.7627 35.2438C25.0076 34.2574 26.5581 27.9248 27.7884 20.5871C27.8112 20.4465 27.8322 20.3167 27.8467 20.2093Z" fill="#486AAE"/>
</svg>
