<svg width="40" height="40" viewBox="0 0 40 40" fill="none" xmlns="http://www.w3.org/2000/svg">
<path d="M36.6665 10.0007V14.034C36.6665 16.6673 34.9998 18.334 32.3665 18.334H26.6665V6.68398C26.6665 4.83398 28.1832 3.33398 30.0332 3.33398C31.8498 3.35065 33.5165 4.08398 34.7165 5.28398C35.9165 6.50065 36.6665 8.16732 36.6665 10.0007Z" stroke="black" stroke-width="1.5" stroke-miterlimit="10" stroke-linecap="round" stroke-linejoin="round"/>
<path d="M3.3335 11.6673V35.0007C3.3335 36.384 4.90016 37.1673 6.00016 36.334L8.85016 34.2006C9.51683 33.7006 10.4502 33.7673 11.0502 34.3673L13.8168 37.1507C14.4668 37.8007 15.5335 37.8007 16.1835 37.1507L18.9835 34.3507C19.5668 33.7673 20.5002 33.7006 21.1502 34.2006L24.0002 36.334C25.1002 37.1507 26.6668 36.3673 26.6668 35.0007V6.66732C26.6668 4.83398 28.1668 3.33398 30.0002 3.33398H11.6668H10.0002C5.00016 3.33398 3.3335 6.31732 3.3335 10.0007V11.6673Z" stroke="black" stroke-width="1.5" stroke-miterlimit="10" stroke-linecap="round" stroke-linejoin="round"/>
<path d="M10.4502 22.8832L19.5502 13.7832" stroke="black" stroke-width="1.5" stroke-linecap="round" stroke-linejoin="round"/>
<path d="M19.8745 22.4993H19.8894" stroke="black" stroke-width="2" stroke-linecap="round" stroke-linejoin="round"/>
<path d="M10.3247 14.1673H10.3396" stroke="black" stroke-width="2" stroke-linecap="round" stroke-linejoin="round"/>
</svg>
