<svg width="64" height="64" viewBox="0 0 64 64" fill="none" xmlns="http://www.w3.org/2000/svg">
<path d="M0 26.3358C0 22.8676 2.26306 20.7867 5.57061 20.7867V14.8909C5.57061 13.1568 4.40927 12 2.7853 12C1.16134 12 0 13.1568 0 14.8909V26.3358Z" fill="url(#paint0_linear_3355_6623)"/>
<path d="M9.86541 51.941C11.2581 51.941 12.5339 51.7106 13.6952 51.3044C7.83367 52.2878 5.57061 48.2994 5.57061 43.7908V25.2957H12.3598C13.9265 25.2957 14.971 24.3716 14.971 23.0414C14.971 21.7112 13.9265 20.7871 12.3598 20.7871H5.57061C2.26306 20.7871 0 22.868 0 26.3361V42.2302C0 48.5892 3.65571 51.941 9.86541 51.941Z" fill="url(#paint1_linear_3355_6623)"/>
<path d="M13.6949 51.3036C16.0152 50.4365 17.8156 48.8189 18.9746 46.4482L16.3634 41.7662C15.202 45.2343 13.1727 47.0848 10.3874 47.0848C7.48521 47.0848 5.57031 45.4077 5.57031 41.5928V43.7901C5.57031 48.2986 7.83337 52.287 13.6949 51.3036Z" fill="url(#paint2_linear_3355_6623)"/>
<path d="M37.5417 50.3805C24.3115 52.345 20.1335 45.2947 20.1335 36.2205C20.1335 29.6311 24.1946 25.1225 30.0562 25.1225C32.2024 25.1225 34.0028 25.5857 35.6268 26.3363C36.3804 26.6831 37.0194 26.7995 37.5989 26.7995C38.9916 26.7995 39.9192 25.8755 39.9192 24.4882C39.9192 23.6212 39.397 22.7542 38.1784 22.1769C35.9726 21.0795 33.13 20.4429 30.0538 20.4429C20.8847 20.4429 14.5605 26.9159 14.5605 36.3369C14.5605 45.5845 20.6534 52.0006 30.4592 52.0006C33.1324 51.9982 35.4527 51.478 37.5417 50.3805Z" fill="url(#paint3_linear_3355_6623)"/>
<path d="M14.5654 36.334C14.5654 26.913 20.8896 20.4399 30.0587 20.4399C33.1349 20.4399 35.9775 21.0766 38.1833 22.174C39.4019 22.7512 39.9241 23.6183 39.9241 24.4853C39.9241 25.8726 38.9965 26.7966 37.6038 26.7966C37.0243 26.7966 36.3852 26.6802 35.6317 26.3334C33.6595 25.4094 31.7447 25.1196 30.0611 25.1196C21.9913 25.1219 14.5654 30.2077 14.5654 36.334Z" fill="url(#paint4_linear_3355_6623)"/>
<path d="M49.2051 22.29C48.6828 22.8103 48.3919 23.4469 48.3919 24.1975C48.3919 26.105 50.1899 28.9365 54.3679 31.8274L59.1253 35.1222C62.607 37.5499 63.9996 39.8612 63.9996 43.3293C63.9996 45.814 63.0124 47.9543 61.3884 49.4555C61.9679 48.9353 62.316 48.2417 62.316 47.3177C62.316 45.2938 60.2843 42.1154 55.9322 39.1105L51.5802 36.1056C47.9245 33.5615 46.4746 31.1932 46.4746 27.9555C46.4746 26.048 47.1709 24.3139 48.3323 23.0431C48.6256 22.7509 48.9141 22.5205 49.2051 22.29Z" fill="url(#paint5_linear_3355_6623)"/>
<path d="M45.4355 48.2415C45.4355 49.1656 45.9006 49.9186 47.1191 50.4958C48.8027 51.3058 51.5284 51.9995 53.9655 51.9995C57.0418 51.9995 59.5934 51.0754 61.3938 49.4554C61.9733 48.9352 62.3215 48.2415 62.3215 47.3175C62.3215 45.2936 60.2897 42.1153 55.9377 39.1104C57.9098 40.4976 58.723 41.6544 58.723 43.3291C58.723 45.8138 56.7508 47.4909 53.9059 47.4909C51.1779 47.4909 48.8576 46.1036 47.5818 46.1036C46.306 46.1036 45.4355 46.9707 45.4355 48.2415Z" fill="url(#paint6_linear_3355_6623)"/>
<path d="M54.371 31.8283C52.5133 30.4981 51.7025 29.2842 51.7025 27.84C51.7025 25.9895 53.212 24.8351 55.3582 24.8351C58.0863 24.8351 59.3621 26.1059 60.9861 26.1059C62.2619 26.1059 63.1323 25.2389 63.1323 23.968C63.1323 23.044 62.6673 22.291 61.4487 21.7137C59.5338 20.7897 57.4448 20.4429 55.1818 20.4429C52.8018 20.4429 50.7129 21.1365 49.2057 22.2933C48.6835 22.8136 48.3926 23.4502 48.3926 24.2008C48.3926 26.1059 50.193 28.9374 54.371 31.8283Z" fill="url(#paint7_linear_3355_6623)"/>
<path d="M20.1367 36.2199C20.1367 45.2941 24.3147 52.3468 37.5449 50.3799C41.7801 48.1826 44.7991 43.7335 46.8857 36.9136L48.1042 32.9252C46.9429 31.4216 46.4803 29.7469 46.4803 27.9534C46.4803 26.0459 47.1766 24.3119 48.3379 23.041C46.5971 24.8915 45.1472 27.6066 43.9859 31.4216L42.6505 35.8137C40.2706 43.56 36.5004 47.2586 30.6388 47.2586C24.1978 47.2586 20.1367 42.8094 20.1367 36.2199Z" fill="url(#paint8_linear_3355_6623)"/>
<defs>
<linearGradient id="paint0_linear_3355_6623" x1="2.78604" y1="13.5266" x2="2.78604" y2="24.971" gradientUnits="userSpaceOnUse">
<stop stop-color="#FFC708"/>
<stop offset="0.9997" stop-color="#F05731"/>
<stop offset="1" stop-color="#F05731"/>
</linearGradient>
<linearGradient id="paint1_linear_3355_6623" x1="9.10117" y1="22.3212" x2="6.11955" y2="43.978" gradientUnits="userSpaceOnUse">
<stop stop-color="#F80000"/>
<stop offset="1" stop-color="#EE3984"/>
</linearGradient>
<linearGradient id="paint2_linear_3355_6623" x1="4.92938" y1="47.9362" x2="20.6478" y2="42.9292" gradientUnits="userSpaceOnUse">
<stop stop-color="#EE3984"/>
<stop offset="0.9997" stop-color="#7800DA"/>
<stop offset="1" stop-color="#7800DA"/>
</linearGradient>
<linearGradient id="paint3_linear_3355_6623" x1="26.3112" y1="28.3297" x2="32.0173" y2="48.5298" gradientUnits="userSpaceOnUse">
<stop stop-color="#FF0000"/>
<stop offset="0.9994" stop-color="#EE3984"/>
<stop offset="1" stop-color="#EE3984"/>
</linearGradient>
<linearGradient id="paint4_linear_3355_6623" x1="14.5649" y1="28.3875" x2="39.9216" y2="28.3875" gradientUnits="userSpaceOnUse">
<stop stop-color="#FFC708"/>
<stop offset="1" stop-color="#FA3B00"/>
</linearGradient>
<linearGradient id="paint5_linear_3355_6623" x1="46.4782" y1="35.8723" x2="64.0017" y2="35.8723" gradientUnits="userSpaceOnUse">
<stop stop-color="#FF0000"/>
<stop offset="1" stop-color="#EE3984"/>
</linearGradient>
<linearGradient id="paint6_linear_3355_6623" x1="60.6142" y1="44.2972" x2="45.195" y2="48.3946" gradientUnits="userSpaceOnUse">
<stop stop-color="#EE3984"/>
<stop offset="1" stop-color="#7800DA"/>
</linearGradient>
<linearGradient id="paint7_linear_3355_6623" x1="48.3937" y1="26.1339" x2="63.132" y2="26.1339" gradientUnits="userSpaceOnUse">
<stop stop-color="#FFC708"/>
<stop offset="1" stop-color="#F05731"/>
</linearGradient>
<linearGradient id="paint8_linear_3355_6623" x1="29.0743" y1="44.902" x2="39.7522" y2="27.3886" gradientUnits="userSpaceOnUse">
<stop stop-color="#EE3984"/>
<stop offset="1" stop-color="#7800DA"/>
</linearGradient>
</defs>
</svg>
