<svg width="40" height="40" viewBox="0 0 40 40" fill="none" xmlns="http://www.w3.org/2000/svg">
<path d="M33.3332 15.9993C33.3332 9.33268 30.6665 6.66602 23.9998 6.66602H15.9998C9.33317 6.66602 6.6665 9.33268 6.6665 15.9993V23.9993C6.6665 30.666 9.33317 33.3327 15.9998 33.3327" stroke="black" stroke-width="1.5" stroke-linecap="round" stroke-linejoin="round"/>
<path d="M27.2498 13.3327C26.3332 12.166 24.7998 11.666 22.4998 11.666H17.4998C13.3332 11.666 11.6665 13.3327 11.6665 17.4993V22.4993C11.6665 24.7993 12.1665 26.3327 13.3165 27.2493" stroke="black" stroke-width="1.5" stroke-linecap="round" stroke-linejoin="round"/>
<path d="M13.3501 6.66732V3.33398" stroke="black" stroke-width="1.5" stroke-linecap="round" stroke-linejoin="round"/>
<path d="M20 6.66732V3.33398" stroke="black" stroke-width="1.5" stroke-linecap="round" stroke-linejoin="round"/>
<path d="M26.6665 6.66732V3.33398" stroke="black" stroke-width="1.5" stroke-linecap="round" stroke-linejoin="round"/>
<path d="M33.3335 13.334H36.6668" stroke="black" stroke-width="1.5" stroke-linecap="round" stroke-linejoin="round"/>
<path d="M13.3501 33.334V36.6673" stroke="#292D32" stroke-width="1.5" stroke-linecap="round" stroke-linejoin="round"/>
<path d="M3.3335 13.334H6.66683" stroke="#292D32" stroke-width="1.5" stroke-linecap="round" stroke-linejoin="round"/>
<path d="M3.3335 20H6.66683" stroke="#292D32" stroke-width="1.5" stroke-linecap="round" stroke-linejoin="round"/>
<path d="M3.3335 26.666H6.66683" stroke="#292D32" stroke-width="1.5" stroke-linecap="round" stroke-linejoin="round"/>
<path d="M27.8502 30.9836C29.3137 30.9836 30.5002 29.7971 30.5002 28.3336C30.5002 26.87 29.3137 25.6836 27.8502 25.6836C26.3866 25.6836 25.2002 26.87 25.2002 28.3336C25.2002 29.7971 26.3866 30.9836 27.8502 30.9836Z" stroke="#292D32" stroke-width="1.5" stroke-miterlimit="10" stroke-linecap="round" stroke-linejoin="round"/>
<path d="M19.0166 29.1005V27.5505C19.0166 26.6339 19.7666 25.8839 20.6833 25.8839C22.2833 25.8839 22.9333 24.7505 22.1333 23.3672C21.6666 22.5672 21.9499 21.5339 22.7499 21.0839L24.2666 20.2005C24.9666 19.7839 25.8666 20.0339 26.2833 20.7339L26.3833 20.9005C27.1833 22.2839 28.4833 22.2839 29.2833 20.9005L29.3833 20.7339C29.7999 20.0339 30.6999 19.8005 31.3999 20.2005L32.9166 21.0839C33.7166 21.5505 33.9999 22.5672 33.5333 23.3672C32.7333 24.7505 33.3833 25.8839 34.9833 25.8839C35.8999 25.8839 36.6499 26.6339 36.6499 27.5505V29.1005C36.6499 30.0172 35.8999 30.7672 34.9833 30.7672C33.3833 30.7672 32.7333 31.9005 33.5333 33.2839C33.9999 34.0839 33.7166 35.1172 32.9166 35.5672L31.3999 36.4505C30.6999 36.8672 29.7999 36.6172 29.3833 35.9172L29.2833 35.7505C28.4833 34.3672 27.1833 34.3672 26.3833 35.7505L26.2833 35.9172C25.8666 36.6172 24.9666 36.8505 24.2666 36.4505L22.7499 35.5672C21.9499 35.1005 21.6666 34.0839 22.1333 33.2839C22.9333 31.9005 22.2833 30.7672 20.6833 30.7672C19.7666 30.7839 19.0166 30.0339 19.0166 29.1005Z" stroke="#292D32" stroke-width="1.5" stroke-miterlimit="10" stroke-linecap="round" stroke-linejoin="round"/>
</svg>
