<svg width="40" height="40" viewBox="0 0 40 40" fill="none" xmlns="http://www.w3.org/2000/svg">
<path d="M16.0003 33.3327H24.0003C30.667 33.3327 33.3337 30.666 33.3337 23.9993V15.9993C33.3337 9.33268 30.667 6.66602 24.0003 6.66602H16.0003C9.33366 6.66602 6.66699 9.33268 6.66699 15.9993V23.9993C6.66699 30.666 9.33366 33.3327 16.0003 33.3327Z" stroke="black" stroke-width="1.5" stroke-linecap="round" stroke-linejoin="round"/>
<path d="M17.5003 28.3327H22.5003C26.667 28.3327 28.3337 26.666 28.3337 22.4993V17.4993C28.3337 13.3327 26.667 11.666 22.5003 11.666H17.5003C13.3337 11.666 11.667 13.3327 11.667 17.4993V22.4993C11.667 26.666 13.3337 28.3327 17.5003 28.3327Z" stroke="black" stroke-width="1.5" stroke-linecap="round" stroke-linejoin="round"/>
<path d="M13.3496 6.66732V3.33398" stroke="black" stroke-width="1.5" stroke-linecap="round" stroke-linejoin="round"/>
<path d="M20 6.66732V3.33398" stroke="black" stroke-width="1.5" stroke-linecap="round" stroke-linejoin="round"/>
<path d="M26.667 6.66732V3.33398" stroke="black" stroke-width="1.5" stroke-linecap="round" stroke-linejoin="round"/>
<path d="M33.333 13.334H36.6663" stroke="black" stroke-width="1.5" stroke-linecap="round" stroke-linejoin="round"/>
<path d="M33.333 20H36.6663" stroke="#292D32" stroke-width="1.5" stroke-linecap="round" stroke-linejoin="round"/>
<path d="M33.333 26.666H36.6663" stroke="#292D32" stroke-width="1.5" stroke-linecap="round" stroke-linejoin="round"/>
<path d="M26.667 33.334V36.6673" stroke="#292D32" stroke-width="1.5" stroke-linecap="round" stroke-linejoin="round"/>
<path d="M20.0166 33.334V36.6673" stroke="#292D32" stroke-width="1.5" stroke-linecap="round" stroke-linejoin="round"/>
<path d="M13.3496 33.334V36.6673" stroke="#292D32" stroke-width="1.5" stroke-linecap="round" stroke-linejoin="round"/>
<path d="M3.33301 13.334H6.66634" stroke="#292D32" stroke-width="1.5" stroke-linecap="round" stroke-linejoin="round"/>
<path d="M3.33301 20H6.66634" stroke="#292D32" stroke-width="1.5" stroke-linecap="round" stroke-linejoin="round"/>
<path d="M3.33301 26.666H6.66634" stroke="#292D32" stroke-width="1.5" stroke-linecap="round" stroke-linejoin="round"/>
<path d="M19.9999 16.166L18.4332 18.8993C18.0832 19.4993 18.3665 19.9993 19.0665 19.9993H20.9332C21.6332 19.9993 21.9165 20.4993 21.5665 21.0993L19.9999 23.8327" stroke="#292D32" stroke-width="1.5" stroke-linecap="round" stroke-linejoin="round"/>
</svg>
