<svg width="64" height="64" viewBox="0 0 64 64" fill="none" xmlns="http://www.w3.org/2000/svg">
<g clip-path="url(#clip0_3362_7540)">
<path d="M15.8397 12.9797C11.4591 13.7537 7.27619 15.7999 4.15133 21.3332C2.99444 23.3794 0.371864 28.7975 0.98119 34.8372C1.2982 37.9827 2.73095 40.3953 3.85902 42.215C5.2053 44.3847 7.00035 46.4021 8.37957 47.806C11.1421 50.6097 15.008 53.4587 18.5611 53.8334C20.105 53.9981 21.9041 53.9198 23.7321 53.3311C26.2765 52.5118 28.9361 50.795 31.5051 48.3577C34.2636 45.7392 35.3052 44.2036 36.6021 42.7873C38.6441 40.5517 39.8134 39.366 41.5014 37.5957C44.021 34.9566 43.9387 30.4237 41.9213 26.8213C39.6405 22.7454 37.0632 20.8021 37.0632 20.8021C37.0632 20.8021 32.7403 16.3269 26.6305 14.0995C22.8346 12.7121 18.7546 12.4651 15.8397 12.9797Z" fill="url(#paint0_linear_3362_7540)"/>
<path d="M31.6702 50.1364C30.608 50.9557 28.0636 52.3885 24.9141 52.8907C25.2228 52.8907 25.5481 52.8907 25.8857 52.8825C26.9438 52.8578 28.0801 52.9772 29.3317 52.936C32.8065 52.8331 33.8069 50.7704 35.7831 48.0614C36.9853 46.4146 37.7593 44.8089 38.4057 42.8245C38.6692 42.0176 38.9286 41.1283 39.155 40.0537C38.9697 40.2472 38.7845 40.4448 38.591 40.6507C36.9894 44.8213 34.4904 47.9585 31.6702 50.1364Z" fill="url(#paint1_linear_3362_7540)"/>
<path d="M14.6173 51.3344C10.7308 49.6341 9.88264 49.1689 6.55193 45.8176C6.519 45.7846 6.48606 45.7517 6.45312 45.7188C7.51533 47.7526 8.51578 49.7247 10.6072 50.6922C11.2125 50.9721 11.8918 51.1862 12.5999 51.3509C13.6209 51.5856 14.6996 51.7091 15.7083 51.7544C15.3172 51.6185 14.9508 51.4785 14.6173 51.3344Z" fill="#FAB571" fill-opacity="0.7"/>
<path d="M39.6119 37.2334C39.5542 37.5339 39.4925 37.8098 39.4307 38.0445C39.1878 38.9543 38.9078 39.823 38.5908 40.6506C38.7843 40.4447 38.9696 40.2471 39.1549 40.0536C39.2619 39.5431 39.3648 38.9914 39.4513 38.3862C39.5089 37.9909 39.5625 37.6081 39.6119 37.2334Z" fill="#FDE727" fill-opacity="0.5"/>
<path d="M26.639 14.0955C25.128 13.5479 23.5759 13.1774 22.069 12.9633C19.7799 12.638 17.5979 12.671 15.8399 12.9798C14.4195 13.2309 13.0238 13.6138 11.6734 14.2066C9.71781 15.767 7.91453 17.9573 6.44886 20.3658C4.42326 23.6965 2.53764 28.287 2.00242 30.749C1.69776 32.1571 1.52896 34.9526 2.08888 36.0559C2.10123 36.0765 2.11358 36.1012 2.12593 36.1218C1.8048 33.3922 2.14652 30.4155 3.62866 27.4965C3.89627 26.6484 4.23387 25.8497 4.64146 25.1086C5.55957 23.4412 6.97584 21.8315 8.94792 20.5058C10.356 19.143 11.8834 18.019 13.7073 17.0145C16.581 14.7624 19.3271 13.6303 21.0603 13.4409C21.7191 13.3668 22.3737 13.3585 23.0159 13.4079C24.0534 13.482 25.0704 13.7085 26.0585 14.0584C26.359 14.1037 26.6596 14.1531 26.9519 14.2149C26.8489 14.1737 26.746 14.1367 26.639 14.0955Z" fill="url(#paint2_linear_3362_7540)"/>
<path d="M23.0157 13.4039C22.3693 13.3545 21.7188 13.3669 21.0601 13.4369C19.3268 13.6304 16.5807 14.7626 13.707 17.0146C14.584 16.5329 15.5309 16.08 16.5643 15.6395C19.3433 14.4579 21.7765 13.9309 23.9956 13.9186C24.7037 13.9145 25.3913 13.9639 26.0582 14.0585C25.0743 13.7086 24.0573 13.4822 23.0157 13.4039Z" fill="#E74765"/>
<path d="M8.94404 20.5054C6.97197 21.8311 5.5557 23.4408 4.64171 25.1083C4.23412 25.8493 3.89652 26.6522 3.62891 27.4962C3.93769 26.8909 4.29587 26.2857 4.70346 25.6846C6.1362 23.6055 7.47837 21.9258 8.94404 20.5054Z" fill="#E84978"/>
<path d="M39.8913 28.3568C39.8213 27.698 39.7349 27.134 39.6402 26.6523C39.1667 24.2315 38.3433 22.6176 37.7545 21.7077C37.3593 21.0943 37.067 20.8019 37.067 20.8019C37.067 20.8019 36.9764 20.7073 36.8035 20.5426C35.8113 19.5751 32.0277 16.1455 26.9555 14.2146C26.659 14.1529 26.3626 14.0994 26.0621 14.0582C25.391 13.9635 24.7076 13.9141 23.9994 13.9182C21.7762 13.9306 19.3471 14.4575 16.5681 15.6391C15.5306 16.0797 14.5878 16.5325 13.7109 17.0142C12.8874 17.6565 12.0558 18.3935 11.2324 19.2251C11.2118 19.2457 11.1912 19.2704 11.1665 19.291C8.89389 21.6007 7.05767 24.1903 5.70727 26.607C4.25395 29.2131 3.35643 31.7039 3.03118 34.0836C2.94884 34.6724 2.90355 35.257 2.8912 35.8293C2.87885 36.418 2.91178 36.9944 2.99001 37.5625C3.26997 39.6787 4.14279 41.7043 5.50142 43.9687C5.83902 44.5327 6.14368 45.1091 6.44423 45.6855C6.48128 45.7308 6.52245 45.7761 6.55951 45.8214C9.8861 49.1727 10.7383 49.6338 14.6248 51.3383C14.9583 51.4823 15.3247 51.6264 15.7159 51.7582C18.4825 52.6969 22.5337 53.2733 24.9175 52.8945C28.0671 52.3922 30.6114 50.9636 31.6736 50.1402C34.4938 47.9623 36.9929 44.825 38.5903 40.6545C38.9073 39.8269 39.1914 38.9582 39.4302 38.0484C39.4919 37.8096 39.5537 37.5378 39.6113 37.2373C40.1301 33.2355 40.1013 30.3659 39.8913 28.3568Z" fill="url(#paint3_linear_3362_7540)"/>
<path d="M33.0576 16.858C31.0772 15.5982 29.0928 14.6636 26.9561 14.2148C32.0283 16.1457 35.8119 19.5753 36.8123 20.5387C36.9852 20.7033 37.0758 20.798 37.0758 20.798C37.0758 20.798 35.9724 18.7107 33.0576 16.858Z" fill="#FFE0B0" fill-opacity="0.5"/>
<path d="M20.2902 51.3835C19.578 51.54 18.8493 51.6511 18.1123 51.7129C20.4014 52.4787 22.1388 52.8698 24.9096 52.8863C26.4411 52.2358 28.0056 51.2806 29.5536 50.0537C28.5614 50.5354 27.491 50.9471 26.3341 51.2971C24.1397 51.9681 22.1676 51.927 20.2902 51.3835Z" fill="#F6903F"/>
<path d="M39.8916 28.3569C39.8216 27.6982 39.7352 27.1341 39.6405 26.6525C39.167 24.2316 38.3436 22.6177 37.7548 21.7079C37.3596 21.0944 37.0673 20.8021 37.0673 20.8021C37.0673 20.8021 36.9767 20.7074 36.8038 20.5427C36.3921 20.1557 35.5193 19.4188 34.3994 18.9288C33.8354 18.6818 33.1643 18.4677 32.3203 18.2495C32.4397 18.3689 32.555 18.4924 32.6744 18.6159C35.7169 21.8561 38.3642 25.2773 39.1588 30.4113C39.3687 31.7659 39.0558 33.3921 38.6606 34.7672C39.447 36.9781 39.2658 37.3898 38.8335 38.8349C38.6565 39.4318 38.1336 40.2017 37.2114 41.0375C36.9726 41.725 36.7091 42.3714 36.4291 42.9808C36.4868 42.9149 36.5444 42.849 36.6062 42.7872C37.3596 41.9597 37.9978 41.2763 38.5824 40.6546C38.8994 39.8271 39.1835 38.9584 39.4223 38.0485C39.484 37.8097 39.5458 37.538 39.6034 37.2374C40.1304 33.2356 40.1016 30.366 39.8916 28.3569Z" fill="url(#paint4_linear_3362_7540)"/>
<path d="M38.665 34.7632V34.7714C38.6527 35.9571 38.0351 38.6826 37.2158 41.0294C38.138 40.1977 38.6609 39.4237 38.8379 38.8267C39.2702 37.3858 39.4555 36.9741 38.665 34.7632Z" fill="#FFC93D"/>
<path d="M11.2291 19.225C12.0525 18.3934 12.8842 17.6564 13.7076 17.0142C11.8796 18.0187 10.3563 19.1427 8.94824 20.5054C9.59462 20.069 10.3028 19.6656 11.0727 19.295C11.1221 19.2703 11.1756 19.2456 11.2291 19.225Z" fill="#F05922"/>
<path d="M6.43666 45.6812C6.13612 45.1048 5.83145 44.5284 5.49385 43.9644C4.13522 41.7 3.26652 39.6744 2.98244 37.5582C2.90833 36.9901 2.8754 36.4137 2.88363 35.8249C2.89598 35.2485 2.94127 34.668 3.02361 34.0793C2.77659 31.7614 2.99891 29.5011 3.62882 27.4961C2.15079 30.411 1.80908 33.3876 2.12609 36.1214C2.47604 39.1021 3.61235 41.7864 4.92158 43.7709C5.41975 44.5284 5.94261 45.183 6.45725 45.7141C6.44901 45.7059 6.4449 45.6935 6.43666 45.6812Z" fill="#EF818A"/>
<path d="M6.55581 43.0877C5.67476 41.902 4.96662 40.6546 4.41494 39.3741C3.66563 37.6367 3.20863 35.8417 3.02337 34.0796C2.94102 34.6683 2.89574 35.253 2.88339 35.8252C2.87103 36.414 2.90397 36.9904 2.9822 37.5585C3.26216 39.6747 4.13497 41.7003 5.49361 43.9647C5.83121 44.5287 6.13587 45.1051 6.43642 45.6815C6.47347 45.7268 6.51464 45.7721 6.55169 45.8174C9.87829 49.1687 10.7305 49.6298 14.617 51.3342C14.9505 51.4783 15.3169 51.6224 15.7081 51.7542C16.5973 51.7953 17.429 51.7748 18.1124 51.7171C15.531 50.8484 10.8705 48.901 6.55581 43.0877Z" fill="url(#paint5_linear_3362_7540)"/>
<path d="M26.0582 14.0582C25.3871 13.9635 24.7037 13.9141 23.9955 13.9182C21.7723 13.9306 19.3433 14.4575 16.5642 15.6391C15.5267 16.0797 14.5839 16.5325 13.707 17.0142C12.8836 17.6565 12.0519 18.3935 11.2285 19.2251C14.658 17.6277 19.5615 16.5614 22.8387 16.619C24.3743 16.6478 26.5399 17.0266 28.9813 17.5124C29.4754 17.6112 29.9324 17.7059 30.3605 17.7924C31.1057 17.9488 31.7562 18.097 32.3285 18.2411C30.4758 16.3596 28.3473 14.8692 26.0582 14.0582Z" fill="url(#paint6_linear_3362_7540)"/>
<path d="M3.02365 34.0797C3.35302 31.7 4.24642 29.2092 5.69975 26.6031C7.05014 24.1823 8.88636 21.5967 11.159 19.2871C11.1796 19.2665 11.2002 19.2418 11.2249 19.2212C11.1754 19.2459 11.1219 19.2706 11.0684 19.2953C10.2985 19.6617 9.59038 20.0693 8.944 20.5057C7.47832 21.9261 6.13204 23.61 4.70341 25.6891C4.29171 26.2861 3.93352 26.8913 3.62886 27.5006C2.99895 29.5056 2.78074 31.7659 3.02365 34.0797Z" fill="#EC514E"/>
<path d="M37.2161 41.0332C36.5656 42.4824 35.4951 43.8822 33.5848 45.0967C32.3621 45.8708 31.0816 46.3936 29.8383 46.7559C29.513 46.9988 29.1754 47.2417 28.8214 47.4764C26.1947 49.2344 23.358 50.7124 20.2949 51.3835C22.1723 51.927 24.1444 51.9681 26.3388 51.2971C27.4957 50.943 28.5702 50.5354 29.5583 50.0537C32.5761 48.5798 34.8405 46.4101 36.4338 42.9723C36.7179 42.3671 36.9773 41.7208 37.2161 41.0332Z" fill="url(#paint7_linear_3362_7540)"/>
<path d="M38.6642 34.7714V34.7632C38.1125 36.6859 37.2109 38.3903 35.6299 40.56C34.8683 41.6099 34.1107 42.6021 33.2832 43.5449C35.0206 42.7215 36.3134 41.8487 37.2191 41.0335C38.0343 38.6826 38.6519 35.9613 38.6642 34.7714Z" fill="url(#paint8_linear_3362_7540)"/>
<path d="M18.1122 51.7172C18.8492 51.6555 19.5779 51.5443 20.2901 51.3879C23.3532 50.7168 26.1899 49.2388 28.8166 47.4808C29.1707 47.242 29.5124 47.0032 29.8335 46.7603C31.1839 45.7475 32.2832 44.6853 33.2795 43.5531C33.9012 42.8449 34.4817 42.108 35.0581 41.3422C35.2475 41.087 35.441 40.8276 35.6304 40.5682C37.2113 38.3985 38.1129 36.694 38.6646 34.7714C39.0599 33.3922 39.3728 31.77 39.1628 30.4155C38.3682 25.2774 35.725 21.8561 32.6825 18.6119C32.5672 18.4884 32.4479 18.3649 32.3285 18.2455C30.4758 16.3598 28.3473 14.8695 26.0582 14.0543C25.3871 13.9596 24.7036 13.9102 23.9955 13.9143C21.7723 13.9267 19.3432 14.4536 16.5642 15.6352C15.5267 16.0758 14.5839 16.5286 13.707 17.0103C12.8835 17.6526 12.0519 18.3896 11.2285 19.2212C11.2079 19.2418 11.1873 19.2665 11.1626 19.2871C8.88998 21.5968 7.05377 24.1823 5.70337 26.6031C4.25004 29.2092 3.35252 31.7 3.02727 34.0797C2.94493 34.6684 2.89964 35.2531 2.88729 35.8253C2.87494 36.4141 2.90788 36.9905 2.9861 37.5586C3.26606 39.6748 4.13888 41.7004 5.49751 43.9648C5.83511 44.5288 6.13978 45.1052 6.44032 45.6816C6.47738 45.7269 6.51855 45.7722 6.5556 45.8175C9.88219 49.1688 10.7344 49.6299 14.6209 51.3343C14.9544 51.4784 15.3208 51.6225 15.712 51.7543C16.5971 51.7955 17.4288 51.7749 18.1122 51.7172Z" fill="url(#paint9_linear_3362_7540)"/>
<path d="M39.167 30.4073C38.3683 25.2774 35.7251 21.8561 32.6826 18.6119C32.5673 18.4884 32.4479 18.3648 32.3285 18.2454C31.7563 18.0972 31.1058 17.9531 30.3606 17.7967C29.9324 17.7061 29.4754 17.6155 28.9814 17.5167C26.5358 17.0268 24.3744 16.648 22.8387 16.6233C19.5615 16.5657 14.6581 17.632 11.2285 19.2294C11.208 19.25 11.1874 19.2747 11.1627 19.2953C8.89005 21.605 7.05384 24.1905 5.70344 26.6113C4.25011 29.2174 3.35259 31.7083 3.02734 34.0879C3.21261 35.85 3.66961 37.641 4.41891 39.3825C4.9706 40.6588 5.67874 41.9104 6.55979 43.0961C10.8745 48.9094 15.5309 50.8568 18.1164 51.7255C18.8534 51.6637 19.5821 51.5525 20.2943 51.3961C23.3574 50.725 26.1941 49.247 28.8208 47.489C29.1749 47.2502 29.5166 47.0114 29.8377 46.7685C31.1881 45.7557 32.2874 44.6935 33.2837 43.5613C33.9054 42.8532 34.4859 42.1162 35.0623 41.3504C35.2517 41.0952 35.4452 40.8358 35.6345 40.5764C37.2155 38.4067 38.1171 36.7023 38.6688 34.7796C39.0599 33.388 39.377 31.7618 39.167 30.4073Z" fill="url(#paint10_linear_3362_7540)"/>
<path d="M37.4581 26.1049C37.2934 25.6315 37.1082 25.191 36.9106 24.7751C36.89 24.734 36.8694 24.6969 36.8488 24.6599C36.2601 23.5606 35.6343 22.6466 34.9797 21.8726C34.3703 21.1521 33.7445 20.5551 33.1023 20.057C31.5378 18.8342 29.9033 18.1796 28.3265 17.6649C24.9505 16.5575 20.5246 16.788 15.8312 18.756C11.3847 20.6169 8.85272 22.8854 7.51879 24.9069C6.18486 26.9284 5.67023 28.7769 4.86328 30.8478C4.3363 32.2023 3.76814 33.3098 6.6048 37.0687C7.90991 38.7979 9.24384 40.2677 10.6231 41.5398C12.554 43.3225 14.5754 44.7264 16.7246 45.9245C17.2392 46.2127 17.7127 46.4515 18.1573 46.6574C20.9075 47.9213 22.4555 47.7484 24.3164 47.6125C25.6833 47.5137 27.6966 47.3778 29.8333 46.7562C31.1837 45.7434 32.283 44.6812 33.2793 43.549C34.1109 42.602 34.8644 41.6139 35.6301 40.5641C37.2111 38.3944 38.1127 36.6899 38.6644 34.7673C38.6685 32.1941 38.2321 28.4352 37.4581 26.1049Z" fill="url(#paint11_linear_3362_7540)"/>
<path d="M22.8711 19.2872C19.4004 18.2167 15.9833 20.0941 13.8424 20.9834C11.7015 21.8727 9.30125 23.7748 8.98836 30.0368C8.81956 33.4211 9.4083 38.2668 10.6228 41.5358C12.5537 43.3185 14.5752 44.7224 16.7243 45.9205C17.239 46.2087 17.7124 46.4475 18.1571 46.6533C19.9027 46.6904 21.8748 46.4928 23.9498 46.1593C25.9672 45.834 28.5321 45.3359 30.4342 44.6854C31.4881 44.3272 32.4351 43.9402 33.275 43.5449C34.1066 42.598 34.86 41.6099 35.6258 40.5601C37.2068 38.3904 38.1084 36.6859 38.6601 34.7632C38.0508 33.0546 37.1573 31.2472 34.79 28.1594C30.5659 22.6549 26.3418 20.3576 22.8711 19.2872Z" fill="url(#paint12_linear_3362_7540)"/>
<path d="M17.034 46.2949C18.759 44.1746 18.6643 41.2433 16.8281 39.7488C14.9878 38.2543 12.1017 38.7648 10.3808 40.8851C8.65984 43.0054 8.75042 45.9367 10.5866 47.4312C12.4228 48.9257 15.313 48.4152 17.034 46.2949Z" fill="url(#paint13_radial_3362_7540)"/>
<path d="M29.9693 19.431C27.0955 11.8268 18.2685 8.1173 10.2608 11.1475C2.25314 14.1776 -1.9051 22.7988 0.968613 30.403C3.84233 38.0072 12.6693 41.7167 20.677 38.6865C28.6847 35.6564 32.8471 27.0394 29.9693 19.431Z" fill="url(#paint14_radial_3362_7540)"/>
<path d="M10.6279 41.5356C10.6485 41.5892 10.6691 41.6468 10.6897 41.7003C11.719 44.3805 13.2052 45.6815 14.8397 46.1879C15.799 46.4844 16.927 46.6285 18.1663 46.6532C17.7216 46.4473 17.2441 46.2044 16.7335 45.9203C14.5762 44.7223 12.5588 43.3183 10.6279 41.5356Z" fill="#F9A31A"/>
<path d="M29.8379 46.7559C31.0812 46.3977 32.3617 45.8708 33.5844 45.0967C35.4947 43.8822 36.5693 42.4824 37.2157 41.0332C36.3099 41.8484 35.0172 42.7253 33.2798 43.5446C32.2875 44.6768 31.1883 45.7431 29.8379 46.7559Z" fill="url(#paint15_linear_3362_7540)"/>
<path d="M25.7286 22.1279C23.2377 20.8145 18.8654 22.9595 14.7566 25.755C10.6477 28.5546 10.7877 31.1978 11.8705 33.668C12.9615 36.1588 14.5795 36.9452 17.2021 40.0495C19.8247 43.1537 21.1792 46.2127 26.2103 44.9035C31.2413 43.5943 32.5505 34.2362 32.287 30.082C32.0236 25.932 28.2194 23.4412 25.7286 22.1279Z" fill="url(#paint16_linear_3362_7540)"/>
<path d="M16.6672 40.0537C24.5686 40.0537 30.974 33.5561 30.974 25.541C30.974 17.5259 24.5686 11.0283 16.6672 11.0283C8.76573 11.0283 2.36035 17.5259 2.36035 25.541C2.36035 33.5561 8.76573 40.0537 16.6672 40.0537Z" fill="url(#paint17_radial_3362_7540)"/>
<path d="M26.0579 35.7716C29.8847 35.7716 32.987 32.6694 32.987 28.8426C32.987 25.0158 29.8847 21.9136 26.0579 21.9136C22.2311 21.9136 19.1289 25.0158 19.1289 28.8426C19.1289 32.6694 22.2311 35.7716 26.0579 35.7716Z" fill="url(#paint18_radial_3362_7540)"/>
<path fill-rule="evenodd" clip-rule="evenodd" d="M64.0589 26.6276H61.0576C59.2543 26.6276 57.1011 25.9688 57.1011 22.8193V13.7329H58.8508V13.8153L58.8014 22.8687C58.8014 24.3673 59.4848 25.0343 61.0123 25.0343H64.0589V26.6276ZM48.2576 26.6276H46.512V13.7329H50.6908C53.618 13.7329 55.2978 15.4127 55.2978 18.3399C55.2978 21.0942 53.4451 22.9469 50.6908 22.9469H48.2576V26.6276ZM48.2576 21.4112H50.4932C51.613 21.4112 53.4945 21.0119 53.4945 18.3399C53.4945 16.302 52.4858 15.2727 50.4932 15.2727H48.2576V21.4112ZM39.8094 26.8293C36.9645 26.8293 35.1982 25.1907 35.1982 22.5517V13.7329H36.948V22.5599C36.948 24.742 38.5042 25.2031 39.8135 25.2031C41.1227 25.2031 42.679 24.7461 42.679 22.5599V13.7329H44.4287V22.5476C44.4246 25.1907 42.6584 26.8293 39.8094 26.8293ZM45.4333 30.9052C45.4333 31.3416 45.3633 31.7245 45.2315 32.0539C45.0957 32.3874 44.8939 32.6426 44.6263 32.8279C44.3587 33.0131 44.0252 33.1078 43.6218 33.1078C43.2183 33.1078 42.8807 33.0131 42.6131 32.8279C42.3414 32.6426 42.1437 32.3832 42.0079 32.0498C41.8761 31.7163 41.8061 31.3334 41.8061 30.897C41.8061 30.4606 41.8761 30.0818 42.012 29.7524C42.1479 29.4231 42.3537 29.1678 42.6254 28.9825C42.8972 28.7973 43.2348 28.7026 43.6382 28.7026C44.0252 28.7026 44.3546 28.7931 44.6222 28.9702C44.8898 29.1472 45.0916 29.4025 45.2315 29.7277C45.3674 30.0571 45.4333 30.4482 45.4333 30.9052ZM42.1726 30.9052C42.1726 31.284 42.2261 31.6175 42.329 31.9015C42.4319 32.1856 42.5925 32.4079 42.8066 32.5685C43.0207 32.7291 43.2965 32.8073 43.6259 32.8073C43.9553 32.8073 44.227 32.7291 44.4411 32.5685C44.651 32.4121 44.8075 32.1897 44.9104 31.9057C45.0133 31.6216 45.0627 31.2881 45.0627 30.9052C45.0627 30.3123 44.9433 29.8512 44.7046 29.5178C44.4658 29.1843 44.1117 29.0196 43.6341 29.0196C43.3006 29.0196 43.0289 29.0978 42.8107 29.2584C42.5925 29.4148 42.4319 29.6372 42.3249 29.9212C42.222 30.2012 42.1726 30.5306 42.1726 30.9052ZM47.3395 29.8018C47.7224 29.8018 48.0229 29.9377 48.237 30.2135C48.4511 30.4853 48.5623 30.897 48.5623 31.4404C48.5623 31.9839 48.4511 32.3956 48.2247 32.6838C48.0023 32.9679 47.6977 33.112 47.3148 33.112C47.0513 33.112 46.8413 33.0502 46.6807 32.9308C46.5202 32.8114 46.4049 32.6673 46.3267 32.4985H46.302C46.3061 32.6014 46.3102 32.7126 46.3185 32.8279C46.3267 32.9432 46.3267 33.0543 46.3267 33.1572V34.4624H45.985V29.8636H46.2567L46.3102 30.4606H46.3267C46.4008 30.2835 46.5243 30.1312 46.6849 29.9995C46.8495 29.8677 47.0678 29.8018 47.3395 29.8018ZM47.2901 30.1024C46.9648 30.1024 46.7219 30.2135 46.5614 30.4359C46.4049 30.6582 46.3226 30.9793 46.3226 31.3993V31.461C46.3226 31.918 46.3967 32.2556 46.549 32.482C46.7013 32.7085 46.9401 32.8196 47.2613 32.8196C47.5659 32.8196 47.7965 32.6961 47.957 32.4532C48.1176 32.2103 48.1958 31.8686 48.1958 31.4363C48.1958 31.0081 48.1217 30.6788 47.9694 30.4523C47.8212 30.2177 47.5947 30.1024 47.2901 30.1024ZM50.3326 29.8018C50.5879 29.8018 50.8019 29.8636 50.979 29.9912C51.156 30.1188 51.2878 30.2876 51.3742 30.51C51.4607 30.7323 51.506 30.9793 51.506 31.2634V31.5022H49.3733C49.3774 31.9221 49.468 32.2433 49.6533 32.4697C49.8344 32.6961 50.0938 32.8073 50.4355 32.8073C50.6249 32.8073 50.7855 32.7908 50.9254 32.7579C51.0654 32.725 51.2178 32.6714 51.3824 32.5891V32.902C51.2342 32.972 51.086 33.0255 50.9378 33.0584C50.7896 33.0914 50.6167 33.1078 50.4232 33.1078C49.9703 33.1078 49.6245 32.9637 49.3857 32.6714C49.1469 32.3791 49.0234 31.9839 49.0234 31.4775C49.0234 31.1522 49.0769 30.864 49.1798 30.6129C49.2827 30.3618 49.431 30.16 49.6245 30.0159C49.818 29.8759 50.0526 29.8018 50.3326 29.8018ZM50.3326 30.09C50.0609 30.09 49.8427 30.1888 49.6739 30.3823C49.5051 30.5758 49.4104 30.8558 49.3815 31.214H51.156C51.1519 30.8805 51.0819 30.6088 50.9543 30.3988C50.8184 30.193 50.6126 30.09 50.3326 30.09ZM53.3751 29.8018C53.7168 29.8018 53.9803 29.8965 54.1615 30.0818C54.3426 30.2712 54.4332 30.5635 54.4332 30.9628V33.0461H54.0956V30.9875C54.0956 30.6829 54.0297 30.4606 53.9021 30.3165C53.7703 30.1724 53.5851 30.1024 53.3381 30.1024C52.6876 30.1024 52.3623 30.5059 52.3623 31.3128V33.0502H52.0247V29.8636H52.2964L52.35 30.4153H52.3747C52.4529 30.2382 52.5805 30.0941 52.7493 29.9789C52.914 29.8595 53.124 29.8018 53.3751 29.8018ZM57.9286 33.0502L57.4016 31.5763H55.7342L55.2072 33.0502H54.849L56.4176 28.7643H56.7552L58.2868 33.0502H57.9286ZM57.2904 31.2634L56.7635 29.7195C56.747 29.6619 56.7182 29.5754 56.6811 29.456C56.6399 29.3366 56.607 29.2296 56.5782 29.139C56.5494 29.2419 56.5205 29.349 56.4835 29.4519C56.4506 29.5589 56.4176 29.6495 56.3888 29.7236L55.8495 31.2634H57.2904ZM59.6989 29.8018C59.9295 29.8018 60.123 29.8512 60.2794 29.9459C60.4359 30.0406 60.5594 30.1765 60.6582 30.3494H60.6829L60.7323 29.8636H61.0082V33.1531C61.0082 33.5731 60.9052 33.8983 60.7035 34.133C60.5018 34.3677 60.1683 34.4871 59.703 34.4871C59.4807 34.4871 59.279 34.4665 59.1061 34.4253C58.9332 34.3841 58.7767 34.3347 58.6367 34.2689V33.9395C58.7767 34.0136 58.9373 34.0754 59.1267 34.1206C59.3119 34.1659 59.5095 34.1906 59.7236 34.1906C60.0448 34.1906 60.2877 34.1001 60.4441 33.9148C60.6006 33.7295 60.6788 33.4825 60.6788 33.1655V32.7291C60.6788 32.6467 60.6829 32.5644 60.6911 32.482H60.6747C60.4976 32.8979 60.1642 33.1037 59.6742 33.1037C59.2913 33.1037 58.9908 32.9637 58.7726 32.6838C58.5544 32.4038 58.4473 32.0003 58.4473 31.4734C58.4473 30.9587 58.5544 30.5511 58.7726 30.2465C58.9784 29.9542 59.2913 29.8018 59.6989 29.8018ZM59.7483 30.1024C59.4272 30.1024 59.1884 30.2218 59.0278 30.4647C58.8673 30.7076 58.7891 31.0452 58.7891 31.4857C58.7891 31.9221 58.8673 32.2515 59.0278 32.4779C59.1843 32.7044 59.4148 32.8196 59.7154 32.8196C59.9583 32.8196 60.1518 32.7661 60.2918 32.6591C60.4318 32.552 60.5306 32.4038 60.5882 32.2144C60.6459 32.0251 60.6747 31.811 60.6747 31.5722V31.3663C60.6747 30.9587 60.6047 30.6458 60.4647 30.4276C60.3206 30.2135 60.0818 30.1024 59.7483 30.1024ZM62.333 28.7277C62.4858 28.7277 62.6348 28.767 62.7806 28.8454C62.9259 28.9237 63.0395 29.0359 63.1206 29.1819C63.2017 29.3278 63.2425 29.48 63.2425 29.6384C63.2425 29.7952 63.2026 29.946 63.1223 30.0907C63.0424 30.2354 62.9304 30.3478 62.7859 30.4278C62.6418 30.5079 62.4907 30.5478 62.333 30.5478C62.1753 30.5478 62.0247 30.5079 61.8802 30.4278C61.7356 30.3478 61.6232 30.2354 61.543 30.0907C61.4627 29.946 61.4223 29.7952 61.4223 29.6384C61.4223 29.48 61.4631 29.3278 61.5446 29.1819C61.6265 29.0359 61.7402 28.9237 61.8855 28.8454C62.0312 28.767 62.1803 28.7277 62.333 28.7277ZM62.333 28.8785C62.205 28.8785 62.0807 28.9113 61.9596 28.9768C61.8386 29.0424 61.7439 29.136 61.6755 29.2578C61.6072 29.3797 61.573 29.5065 61.573 29.6384C61.573 29.7695 61.6068 29.8951 61.6739 30.0153C61.741 30.1356 61.8349 30.2292 61.9555 30.2964C62.0761 30.3635 62.2021 30.3971 62.333 30.3971C62.464 30.3971 62.5899 30.3635 62.7106 30.2964C62.8312 30.2292 62.9247 30.1356 62.9918 30.0153C63.0585 29.8951 63.0918 29.7695 63.0918 29.6384C63.0918 29.5065 63.0576 29.3797 62.9897 29.2578C62.9218 29.136 62.8271 29.0424 62.7056 28.9768C62.5842 28.9113 62.4602 28.8785 62.333 28.8785ZM61.9337 30.1414V29.162H62.2705C62.3853 29.162 62.4685 29.171 62.5199 29.1891C62.5714 29.2072 62.6126 29.2387 62.643 29.2838C62.6735 29.3288 62.6887 29.3767 62.6887 29.4273C62.6887 29.4989 62.6632 29.5612 62.6122 29.6143C62.5611 29.6674 62.4936 29.6971 62.4092 29.7036C62.4438 29.718 62.4714 29.7353 62.4924 29.7554C62.5315 29.794 62.5801 29.8587 62.6369 29.9496L62.7563 30.1414H62.5636L62.4767 29.987C62.4084 29.8656 62.3532 29.7896 62.3112 29.759C62.2824 29.7365 62.24 29.7253 62.1848 29.7253H62.0918V30.1414H61.9337ZM62.0918 29.5902H62.2836C62.3754 29.5902 62.4376 29.5765 62.471 29.5492C62.5043 29.5218 62.5212 29.4856 62.5212 29.4406C62.5212 29.4117 62.5129 29.3857 62.4969 29.3628C62.4808 29.3399 62.4586 29.3228 62.4302 29.3115C62.4014 29.3003 62.3487 29.2947 62.2717 29.2947H62.0918V29.5902Z" fill="black"/>
</g>
<defs>
<linearGradient id="paint0_linear_3362_7540" x1="3.36161" y1="22.6219" x2="38.4759" y2="43.8615" gradientUnits="userSpaceOnUse">
<stop stop-color="#DB72AB" stop-opacity="0.5"/>
<stop offset="0.48" stop-color="#F8A780" stop-opacity="0.5"/>
<stop offset="0.82" stop-color="#FDC25A" stop-opacity="0.5"/>
<stop offset="1" stop-color="#F79A5C" stop-opacity="0.5"/>
</linearGradient>
<linearGradient id="paint1_linear_3362_7540" x1="28.247" y1="53.2287" x2="38.8702" y2="39.8178" gradientUnits="userSpaceOnUse">
<stop stop-color="#F27321" stop-opacity="0.5"/>
<stop offset="0.01" stop-color="#F27321" stop-opacity="0.5"/>
<stop offset="0.52" stop-color="#FCBF10" stop-opacity="0.5"/>
<stop offset="0.99" stop-color="#FFD898" stop-opacity="0.5"/>
<stop offset="1" stop-color="#FFD898" stop-opacity="0.5"/>
</linearGradient>
<linearGradient id="paint2_linear_3362_7540" x1="22.5558" y1="10.5856" x2="0.713574" y2="34.0609" gradientUnits="userSpaceOnUse">
<stop stop-color="#F5906B" stop-opacity="0.5"/>
<stop offset="0.03" stop-color="#F5906B" stop-opacity="0.5"/>
<stop offset="0.26" stop-color="#F17895" stop-opacity="0.5"/>
<stop offset="0.99" stop-color="#F3807C" stop-opacity="0.5"/>
<stop offset="1" stop-color="#F3807C" stop-opacity="0.5"/>
</linearGradient>
<linearGradient id="paint3_linear_3362_7540" x1="34.6677" y1="18.5355" x2="9.76852" y2="49.5325" gradientUnits="userSpaceOnUse">
<stop stop-color="#FFE273" stop-opacity="0.35"/>
<stop offset="0.41" stop-color="#FDE241" stop-opacity="0.7"/>
<stop offset="0.75" stop-color="#F58A5D" stop-opacity="0.7"/>
<stop offset="1" stop-color="#F3806F" stop-opacity="0.7"/>
</linearGradient>
<linearGradient id="paint4_linear_3362_7540" x1="35.488" y1="18.6981" x2="38.6745" y2="42.0232" gradientUnits="userSpaceOnUse">
<stop stop-color="#FDBE39" stop-opacity="0.5"/>
<stop offset="0.03" stop-color="#FDBE39" stop-opacity="0.5"/>
<stop offset="0.49" stop-color="#FFDC78" stop-opacity="0.5"/>
<stop offset="1" stop-color="#FFCF56" stop-opacity="0.5"/>
</linearGradient>
<linearGradient id="paint5_linear_3362_7540" x1="2.48415" y1="37.3914" x2="17.9097" y2="54.5162" gradientUnits="userSpaceOnUse">
<stop stop-color="#F16A2A"/>
<stop offset="0.47" stop-color="#F47E31"/>
<stop offset="1" stop-color="#F89D31"/>
</linearGradient>
<linearGradient id="paint6_linear_3362_7540" x1="11.3207" y1="16.9706" x2="32.3756" y2="15.8476" gradientUnits="userSpaceOnUse">
<stop stop-color="#F0572E"/>
<stop offset="0.02" stop-color="#F0572E"/>
<stop offset="0.99" stop-color="#F37D32"/>
<stop offset="1" stop-color="#F37D32"/>
</linearGradient>
<linearGradient id="paint7_linear_3362_7540" x1="21.4872" y1="52.4927" x2="36.9737" y2="43.4837" gradientUnits="userSpaceOnUse">
<stop stop-color="#F48438"/>
<stop offset="0.48" stop-color="#F79B37"/>
<stop offset="0.99" stop-color="#FCB734"/>
<stop offset="1" stop-color="#FCB734"/>
</linearGradient>
<linearGradient id="paint8_linear_3362_7540" x1="34.1363" y1="44.0167" x2="39.6459" y2="35.1567" gradientUnits="userSpaceOnUse">
<stop stop-color="#F89E1C"/>
<stop offset="0.99" stop-color="#FAAB18"/>
<stop offset="1" stop-color="#FAAB18"/>
</linearGradient>
<linearGradient id="paint9_linear_3362_7540" x1="9.37217" y1="22.7585" x2="33.6133" y2="45.1498" gradientUnits="userSpaceOnUse">
<stop stop-color="#F0592F"/>
<stop offset="0.4" stop-color="#F37B33"/>
<stop offset="0.99" stop-color="#FDBC18"/>
<stop offset="1" stop-color="#FDBC18"/>
</linearGradient>
<linearGradient id="paint10_linear_3362_7540" x1="10.3391" y1="21.7654" x2="32.5496" y2="44.0088" gradientUnits="userSpaceOnUse">
<stop stop-color="#E93125"/>
<stop offset="0.43" stop-color="#F47F20"/>
<stop offset="0.7" stop-color="#F8A01B"/>
<stop offset="0.99" stop-color="#FFCA36"/>
<stop offset="1" stop-color="#FFCA36"/>
</linearGradient>
<linearGradient id="paint11_linear_3362_7540" x1="14.692" y1="19.2996" x2="31.1425" y2="46.5492" gradientUnits="userSpaceOnUse">
<stop stop-color="#EF5323"/>
<stop offset="0.02" stop-color="#EF5323"/>
<stop offset="0.47" stop-color="#F89E1C"/>
<stop offset="0.99" stop-color="#FFD451"/>
<stop offset="1" stop-color="#FFD451"/>
</linearGradient>
<linearGradient id="paint12_linear_3362_7540" x1="16.8695" y1="19.8578" x2="28.1389" y2="46.3041" gradientUnits="userSpaceOnUse">
<stop stop-color="#F5861F"/>
<stop offset="0.02" stop-color="#F5861F"/>
<stop offset="0.37" stop-color="#FBAE17"/>
<stop offset="0.66" stop-color="#FCB614"/>
<stop offset="1" stop-color="#FFCC39"/>
</linearGradient>
<radialGradient id="paint13_radial_3362_7540" cx="0" cy="0" r="1" gradientUnits="userSpaceOnUse" gradientTransform="translate(13.7074 43.5896) rotate(39.0896) scale(4.28851 4.94913)">
<stop stop-color="#FFC730"/>
<stop offset="0.01" stop-color="#FFC730"/>
<stop offset="1" stop-color="#FFC733" stop-opacity="0"/>
</radialGradient>
<radialGradient id="paint14_radial_3362_7540" cx="0" cy="0" r="1" gradientUnits="userSpaceOnUse" gradientTransform="translate(15.4706 24.9172) rotate(-20.7195) scale(15.5027 14.7219)">
<stop stop-color="#F16A22"/>
<stop offset="0.24" stop-color="#F26E22" stop-opacity="0.76"/>
<stop offset="0.45" stop-color="#F37920" stop-opacity="0.55"/>
<stop offset="0.66" stop-color="#F68B1E" stop-opacity="0.34"/>
<stop offset="0.86" stop-color="#FAA51A" stop-opacity="0.14"/>
<stop offset="1" stop-color="#FDBC17" stop-opacity="0"/>
</radialGradient>
<linearGradient id="paint15_linear_3362_7540" x1="29.9359" y1="46.8897" x2="37.3813" y2="41.4545" gradientUnits="userSpaceOnUse">
<stop stop-color="#F9A31A"/>
<stop offset="0.99" stop-color="#FAA919"/>
<stop offset="1" stop-color="#FAA919"/>
</linearGradient>
<linearGradient id="paint16_linear_3362_7540" x1="18.5203" y1="23.8042" x2="28.211" y2="44.2181" gradientUnits="userSpaceOnUse">
<stop stop-color="#FBAF17"/>
<stop offset="0.02" stop-color="#FBAF17"/>
<stop offset="0.51" stop-color="#FCB614"/>
<stop offset="1" stop-color="#FFC730"/>
</linearGradient>
<radialGradient id="paint17_radial_3362_7540" cx="0" cy="0" r="1" gradientUnits="userSpaceOnUse" gradientTransform="translate(16.6672 25.5406) scale(14.3064 14.5135)">
<stop stop-color="#F37C20"/>
<stop offset="0.26" stop-color="#F4801F" stop-opacity="0.73"/>
<stop offset="0.51" stop-color="#F58B1E" stop-opacity="0.49"/>
<stop offset="0.74" stop-color="#F89D1B" stop-opacity="0.26"/>
<stop offset="0.96" stop-color="#FCB718" stop-opacity="0.04"/>
<stop offset="1" stop-color="#FDBC17" stop-opacity="0"/>
</radialGradient>
<radialGradient id="paint18_radial_3362_7540" cx="0" cy="0" r="1" gradientUnits="userSpaceOnUse" gradientTransform="translate(26.06 28.8438) scale(6.93068)">
<stop stop-color="#FBB116"/>
<stop offset="1" stop-color="#FDBC17" stop-opacity="0"/>
</radialGradient>
<clipPath id="clip0_3362_7540">
<rect width="64" height="64" fill="white"/>
</clipPath>
</defs>
</svg>
