<svg width="64" height="64" viewBox="0 0 64 64" fill="none" xmlns="http://www.w3.org/2000/svg">
<g clip-path="url(#clip0_621_22700)">
<path d="M32.0379 60.8674C16.1823 60.8674 3.19206 47.8135 3.19206 31.9579C3.19206 28.3919 3.82883 25.017 5.0387 21.8331L21.9132 55.7732C22.1043 56.219 22.4226 56.601 22.9321 56.601C23.4415 56.601 23.7599 56.219 23.9509 55.7732L31.7195 38.3893C31.7832 38.1982 31.9106 38.0072 32.1016 38.0072C32.2926 38.0072 32.3563 38.1982 32.4837 38.3893L40.2523 55.7732C40.4434 56.219 40.7617 56.601 41.2712 56.601C41.7806 56.601 42.099 56.219 42.29 55.7732L59.1645 21.8331C60.3744 25.017 61.0112 28.3919 61.0112 31.9579C60.8838 47.8135 47.8936 60.8674 32.0379 60.8674ZM32.0379 25.3991C31.8469 25.3991 31.7832 25.208 31.6559 25.017L22.6137 4.64024C25.5428 3.55772 28.7267 2.98462 32.0379 2.98462C35.3492 2.98462 38.533 3.55772 41.4622 4.64024L32.42 25.017C32.2926 25.2717 32.229 25.3991 32.0379 25.3991ZM22.8047 46.349C22.6137 46.349 22.55 46.1579 22.4226 45.9669L7.77683 16.4206C10.3876 12.4089 13.8899 9.03398 18.1563 6.67792L28.7267 30.1749C28.8541 30.5569 29.1724 30.6843 29.4908 30.6843H34.585C34.9671 30.6843 35.2218 30.6206 35.4128 30.1749L45.9833 6.67792C50.186 9.03398 53.7519 12.4089 56.3627 16.4206L41.5896 45.9669C41.5259 46.1579 41.3985 46.349 41.2075 46.349C41.0165 46.349 40.9528 46.1579 40.8254 45.9669L35.2855 33.3588C35.0944 32.913 34.8397 32.8493 34.4577 32.8493H29.3635C28.9814 32.8493 28.7267 32.913 28.5357 33.3588L23.1868 45.9669C23.1231 46.1579 22.9957 46.349 22.8047 46.349ZM32.0379 63.7966C49.6766 63.7966 63.8766 49.5965 63.8766 31.9579C63.8766 14.3192 49.6766 0.119141 32.0379 0.119141C14.3993 0.119141 0.199219 14.3192 0.199219 31.9579C0.199219 49.5965 14.3993 63.7966 32.0379 63.7966Z" fill="#001E50"/>
</g>
<defs>
<clipPath id="clip0_621_22700">
<rect width="64" height="64" fill="white"/>
</clipPath>
</defs>
</svg>
