<svg width="64" height="64" viewBox="0 0 64 64" fill="none" xmlns="http://www.w3.org/2000/svg">
<rect width="64" height="64" fill="white"/>
<path fill-rule="evenodd" clip-rule="evenodd" d="M27.0199 1.73735C44.6045 0.662921 56.0149 8.44996 61.2511 25.0985C63.7135 41.3006 57.6055 52.8689 42.927 59.8034C25.5214 64.8615 12.5464 59.4699 4.00187 43.6285C-1.27844 27.8287 2.86018 15.1846 16.4177 5.6964C19.9077 3.99651 23.4417 2.67683 27.0199 1.73735Z" fill="#2D2B7C"/>
<path fill-rule="evenodd" clip-rule="evenodd" d="M38.1628 22.9494C38.9231 22.8611 39.6392 22.9507 40.3113 23.218C38.1628 24.6505 36.3945 26.4192 35.0063 28.5239C36.9316 31.3865 38.7895 34.3178 40.5798 37.3179C43.1305 31.1412 47.2912 26.3517 53.0619 22.9494C53.42 23.0402 53.756 23.1297 54.0699 23.218C46.8202 29.3038 42.413 37.0908 40.8484 46.5791C40.1764 46.9372 39.5497 46.8477 38.9685 46.3105C37.2222 41.434 34.9181 36.8248 32.0561 32.483C29.7286 37.0039 28.0498 41.7921 27.0197 46.8477C26.3502 46.9385 25.747 46.7594 25.2098 46.3105C22.257 37.1804 17.0442 29.662 9.57129 23.7552C11.8521 23.397 14.1342 23.397 16.4175 23.7552C20.6236 27.648 23.9786 32.169 26.4826 37.3179C27.6035 34.8992 28.8568 32.5933 30.2424 30.4003C28.1847 27.8959 25.8806 25.6808 23.3299 23.7552C27.4452 22.6366 30.891 23.5995 33.6674 26.6437C35.3229 25.4784 36.8213 24.247 38.1628 22.9494Z" fill="#F7F7FA"/>
</svg>
