<svg width="64" height="64" viewBox="0 0 64 64" fill="none" xmlns="http://www.w3.org/2000/svg">
<path d="M57.9364 26.629C58.2931 27.9781 59.6859 28.7875 61.0617 28.4165C62.4205 28.0624 63.2358 26.6796 62.8621 25.3137C62.5054 23.9646 61.1126 23.1551 59.7368 23.5261C58.395 23.8971 57.5797 25.2799 57.9364 26.629Z" fill="#2A4C87"/>
<path d="M54.4884 29.3276C55.4056 29.0746 55.9662 28.1303 55.7114 27.2197C55.4566 26.309 54.5054 25.7525 53.5882 26.0055C52.671 26.2584 52.1105 27.2028 52.3653 28.1134C52.6031 29.024 53.5543 29.5637 54.4884 29.3276Z" fill="#2A4C87"/>
<path d="M49.3932 30.2041C50.0726 30.0186 50.4802 29.3272 50.2934 28.6527C50.1065 27.9781 49.4102 27.5734 48.7307 27.7589C48.0513 27.9444 47.6437 28.6358 47.8305 29.3104C48.0174 29.9849 48.7138 30.3896 49.3932 30.2041Z" fill="#2A4C87"/>
<path d="M45.4353 30.7944C45.8599 30.6764 46.1147 30.2379 46.0128 29.8163C45.9109 29.3947 45.4523 29.1418 45.0276 29.243C44.603 29.361 44.3482 29.7995 44.4502 30.221C44.5521 30.6426 44.9937 30.8956 45.4353 30.7944Z" fill="#2E4E88"/>
<path d="M56.0514 21.5026C56.6968 22.5987 58.1066 22.9866 59.2106 22.3458C60.3146 21.705 60.7053 20.3053 60.0598 19.2092C59.4144 18.1131 58.0046 17.7252 56.9006 18.366C55.7966 19.0068 55.4059 20.4065 56.0514 21.5026Z" fill="#1F3D70"/>
<path d="M50.9387 24.4202C51.3803 25.1959 52.3654 25.4488 53.1467 25.0104C53.9281 24.5719 54.1828 23.5939 53.7412 22.8181C53.2996 22.0424 52.3145 21.7895 51.5331 22.2279C50.7688 22.6664 50.4971 23.6444 50.9387 24.4202Z" fill="#1F3D70"/>
<path d="M47.3032 25.1783C46.7427 25.4987 46.5559 26.1901 46.8786 26.7466C47.2013 27.3031 47.8977 27.4886 48.4582 27.1682C49.0187 26.8478 49.2056 26.1564 48.8829 25.5999C48.5771 25.0603 47.8637 24.8748 47.3032 25.1783Z" fill="#1F3D70"/>
<path d="M44.0597 27.5057C43.7031 27.708 43.5672 28.1633 43.771 28.5175C43.9748 28.8716 44.4334 29.0065 44.7901 28.8041C45.1468 28.6018 45.2827 28.1465 45.0788 27.7923C44.875 27.4382 44.4164 27.3033 44.0597 27.5057Z" fill="#1F3D70"/>
<path d="M55.796 17C56.6113 16.1906 56.6113 14.8921 55.796 14.0827C54.9807 13.2732 53.6728 13.2732 52.8576 14.0827C52.0423 14.8921 52.0423 16.1906 52.8576 17C53.6559 17.8095 54.9807 17.8095 55.796 17Z" fill="#194C88"/>
<path d="M50.7174 19.1077C50.123 18.5175 49.1718 18.5175 48.5943 19.1077C47.9998 19.6979 47.9998 20.6423 48.5943 21.2156C49.1888 21.8059 50.1399 21.8059 50.7174 21.2156C51.3119 20.6254 51.3119 19.6811 50.7174 19.1077Z" fill="#194C88"/>
<path d="M45.2823 23.0373C44.8747 23.442 44.8747 24.0997 45.2823 24.5044C45.6899 24.9091 46.3524 24.9091 46.76 24.5044C47.1676 24.0997 47.1676 23.442 46.76 23.0542C46.3524 22.6326 45.6899 22.6326 45.2823 23.0373Z" fill="#194C88"/>
<path d="M42.7175 27.051C42.9893 27.3209 43.4309 27.3209 43.7026 27.051C43.9744 26.7812 43.9744 26.3428 43.7026 26.073C43.4309 25.8032 42.9893 25.8032 42.7175 26.073C42.4457 26.3428 42.4457 26.7812 42.7175 27.051Z" fill="#194C88"/>
<path d="M48.4752 13.5261C49.4094 14.0658 50.6154 13.7454 51.1589 12.8179C51.7024 11.8904 51.3797 10.6931 50.4455 10.1535C49.5113 9.61383 48.3054 9.93424 47.7619 10.8617C47.2014 11.7892 47.5241 12.9865 48.4752 13.5261Z" fill="#3468A3"/>
<path d="M44.9593 16.8149C44.5686 17.4726 44.8064 18.3157 45.4688 18.7036C46.1312 19.0915 46.9805 18.8554 47.3712 18.1977C47.7618 17.54 47.524 16.6969 46.8616 16.309C46.1822 15.9211 45.3329 16.1572 44.9593 16.8149Z" fill="#3468A3"/>
<path d="M44.0423 21.1317C43.6007 20.8788 43.0402 21.0305 42.7854 21.469C42.5307 21.9074 42.6835 22.4639 43.1251 22.7169C43.5668 22.9698 44.1273 22.8181 44.382 22.3796C44.6368 21.9412 44.484 21.3847 44.0423 21.1317Z" fill="#3468A3"/>
<path d="M41.9022 24.8078C41.5964 24.6392 41.2058 24.7403 41.0359 25.0439C40.8661 25.3474 40.968 25.7353 41.2737 25.9039C41.5794 26.0726 41.9701 25.9714 42.14 25.6678C42.3098 25.3643 42.2079 24.9764 41.9022 24.8078Z" fill="#3468A3"/>
<path d="M43.3122 11.2836C44.2974 11.5534 45.3165 10.9632 45.5713 9.98514C45.843 9.00706 45.2485 7.99525 44.2634 7.7423C43.2783 7.48935 42.2592 8.06271 42.0044 9.04078C41.7326 10.0189 42.3271 11.0307 43.3122 11.2836Z" fill="#4C8DCB"/>
<path d="M41.7494 17.0508C42.4288 17.2363 43.1252 16.8316 43.312 16.157C43.4989 15.4825 43.0912 14.7911 42.4118 14.6056C41.7324 14.4201 41.036 14.8248 40.8492 15.4994C40.6793 16.1739 41.07 16.8653 41.7494 17.0508Z" fill="#4C8DCB"/>
<path d="M40.5271 21.6037C40.9857 21.7217 41.4612 21.4519 41.5801 20.9966C41.699 20.5413 41.4273 20.0691 40.9687 19.951C40.5101 19.833 40.0345 20.1028 39.9156 20.5581C39.7967 20.9966 40.0685 21.4688 40.5271 21.6037Z" fill="#4C8DCB"/>
<path d="M39.168 24.4373C39.0831 24.7409 39.2699 25.0613 39.5756 25.1456C39.8814 25.2299 40.2041 25.0444 40.289 24.7409C40.3739 24.4373 40.1871 24.1169 39.8814 24.0326C39.5586 23.9483 39.2359 24.1338 39.168 24.4373Z" fill="#4C8DCB"/>
<path d="M37.7071 10.4401C38.6583 10.4401 39.4396 9.66442 39.4396 8.72007C39.4396 7.77572 38.6583 7 37.7071 7C36.7559 7 35.9746 7.77572 35.9746 8.72007C35.9746 9.68129 36.7559 10.4401 37.7071 10.4401Z" fill="#3498B3"/>
<path d="M37.7067 14.1167C37.0613 14.1167 36.5518 14.6226 36.5518 15.2634C36.5518 15.9042 37.0613 16.4101 37.7067 16.4101C38.3522 16.4101 38.8617 15.9042 38.8617 15.2634C38.8617 14.6395 38.3522 14.1167 37.7067 14.1167Z" fill="#3498B3"/>
<path d="M38.5222 20.3729C38.5222 19.9345 38.1655 19.5635 37.7069 19.5635C37.2483 19.5635 36.8916 19.9176 36.8916 20.3729C36.8916 20.8282 37.2483 21.1824 37.7069 21.1824C38.1655 21.1824 38.5222 20.8114 38.5222 20.3729Z" fill="#3498B3"/>
<path d="M37.7072 23.813C37.4185 23.813 37.1807 24.0491 37.1807 24.3358C37.1807 24.6224 37.4185 24.8585 37.7072 24.8585C37.996 24.8585 38.2337 24.6224 38.2337 24.3358C38.2337 24.0491 37.996 23.813 37.7072 23.813Z" fill="#3498B3"/>
<path d="M32.0506 11.0808C32.9168 10.8447 33.4264 9.96781 33.1886 9.10778C32.9508 8.24774 32.0676 7.74184 31.2013 7.97793C30.3351 8.21402 29.8255 9.09092 30.0633 9.95095C30.3011 10.7941 31.2013 11.3 32.0506 11.0808Z" fill="#0AA496"/>
<path d="M32.3395 16.1066C32.4923 16.6631 33.0529 16.9835 33.6134 16.8317C34.1739 16.6799 34.4966 16.1235 34.3437 15.567C34.1909 15.0105 33.6303 14.6901 33.0698 14.8418C32.5263 14.9936 32.1866 15.567 32.3395 16.1066Z" fill="#0AA496"/>
<path d="M33.9534 20.9796C34.0553 21.3844 34.48 21.6204 34.8706 21.5024C35.2783 21.4012 35.516 20.9796 35.3971 20.5918C35.2952 20.187 34.8706 19.951 34.48 20.069C34.0723 20.1702 33.8515 20.5749 33.9534 20.9796Z" fill="#0AA496"/>
<path d="M35.2613 24.7237C35.3293 24.9766 35.584 25.1115 35.8218 25.0441C36.0766 24.9766 36.2125 24.7237 36.1446 24.4876C36.0766 24.2346 35.8218 24.0997 35.584 24.1672C35.3463 24.2346 35.1934 24.4707 35.2613 24.7237Z" fill="#0AA496"/>
<path d="M26.7341 13.1554C27.4475 12.7506 27.7023 11.8231 27.2946 11.1149C26.887 10.4066 25.9528 10.1537 25.2394 10.5584C24.5261 10.9631 24.2713 11.8906 24.6789 12.5989C25.1036 13.324 26.0207 13.5601 26.7341 13.1554Z" fill="#00AA75"/>
<path d="M29.7406 18.315C30.1822 18.0621 30.3351 17.5056 30.0803 17.0671C29.8255 16.6287 29.265 16.4769 28.8234 16.7299C28.3818 16.9828 28.2289 17.5393 28.4837 17.9778C28.7215 18.4162 29.299 18.568 29.7406 18.315Z" fill="#00AA75"/>
<path d="M32.1872 22.5484C32.5269 22.3629 32.6288 21.9413 32.442 21.604C32.2551 21.2668 31.8305 21.1656 31.4908 21.3511C31.1511 21.5366 31.0492 21.9582 31.236 22.2954C31.4399 22.6158 31.8645 22.7339 32.1872 22.5484Z" fill="#00AA75"/>
<path d="M34.1914 25.1783C34.0725 24.9928 33.8347 24.9253 33.6309 25.0265C33.444 25.1445 33.3761 25.3806 33.478 25.583C33.5969 25.7685 33.8347 25.8359 34.0215 25.7348C34.2423 25.6167 34.3103 25.3638 34.1914 25.1783Z" fill="#00AA75"/>
<path d="M22.0976 16.5445C22.6412 16.0048 22.6412 15.1279 22.0976 14.5883C21.5541 14.0487 20.6709 14.0487 20.1274 14.5883C19.5838 15.1279 19.5838 16.0048 20.1274 16.5445C20.6879 17.0841 21.5711 17.0841 22.0976 16.5445Z" fill="#4FBA6A"/>
<path d="M26.3605 19.6304C26.0378 19.31 25.5282 19.31 25.2225 19.6304C24.8998 19.9508 24.8998 20.4567 25.2225 20.7603C25.5452 21.0807 26.0548 21.0807 26.3605 20.7603C26.6662 20.4399 26.6662 19.934 26.3605 19.6304Z" fill="#4FBA6A"/>
<path d="M29.8764 23.3572C29.6217 23.1042 29.231 23.1042 28.9762 23.3572C28.7215 23.6101 28.7215 23.998 28.9762 24.251C29.231 24.5039 29.6217 24.5039 29.8764 24.251C30.1142 23.998 30.1142 23.6101 29.8764 23.3572Z" fill="#4FBA6A"/>
<path d="M32.4923 26.3593C32.3564 26.2243 32.1356 26.2412 32.0167 26.3761C31.8808 26.511 31.8978 26.7303 32.0337 26.8483C32.1695 26.9663 32.3734 26.9663 32.5092 26.8483C32.6281 26.7134 32.6281 26.4942 32.4923 26.3593Z" fill="#4FBA6A"/>
<path d="M16.7308 21.4519C17.3423 21.806 18.1236 21.5868 18.4633 20.9966C18.82 20.3895 18.5992 19.6138 18.0047 19.2765C17.3932 18.9224 16.6119 19.1416 16.2722 19.7318C15.9155 20.322 16.1193 21.0978 16.7308 21.4519Z" fill="#7EC45F"/>
<path d="M23.4569 23.0706C23.1172 22.8851 22.7096 23.0031 22.5058 23.3235C22.3189 23.6608 22.4378 24.0655 22.7606 24.2679C23.1003 24.4534 23.5079 24.3522 23.7117 24.0149C23.8986 23.6777 23.7797 23.2561 23.4569 23.0706Z" fill="#7EC45F"/>
<path d="M27.8552 25.7179C27.5835 25.5661 27.2268 25.6504 27.0739 25.9371C26.921 26.2069 27.006 26.5611 27.2947 26.7128C27.5665 26.8646 27.9232 26.7803 28.076 26.5105C28.2289 26.2407 28.127 25.8865 27.8552 25.7179Z" fill="#7EC45F"/>
<path d="M61.2143 29.2427C59.6856 29.2427 58.4287 30.4737 58.4287 32.0083C58.4287 33.526 59.6686 34.7739 61.2143 34.7739C62.7429 34.7739 63.9828 33.5429 63.9998 32.0251C63.9828 30.4906 62.7429 29.2427 61.2143 29.2427Z" fill="#4C609B"/>
<path d="M56.6112 32.0082C56.6112 30.9121 55.728 30.0352 54.624 30.0352C53.5199 30.0352 52.6367 30.9121 52.6367 32.0082C52.6367 33.1043 53.5199 33.9812 54.624 33.9812C55.711 33.9812 56.6112 33.1043 56.6112 32.0082Z" fill="#4C609B"/>
<path d="M49.478 30.6592C48.7306 30.6592 48.1191 31.2663 48.1191 32.0083C48.1191 32.7502 48.7306 33.3573 49.478 33.3573C50.2253 33.3573 50.8368 32.7502 50.8368 32.0083C50.8368 31.2663 50.2253 30.6592 49.478 30.6592Z" fill="#4C609B"/>
<path d="M46.369 32.0082C46.369 31.5192 45.9783 31.1313 45.4858 31.1313C44.9932 31.1313 44.6025 31.5192 44.6025 32.0082C44.6025 32.4973 44.9932 32.8851 45.4858 32.8851C45.9783 32.8851 46.369 32.4973 46.369 32.0082Z" fill="#54669F"/>
<path d="M61.0617 35.5838C59.7029 35.2128 58.3101 36.0222 57.9365 37.3713C57.5628 38.7204 58.3781 40.1032 59.7369 40.4742C61.0957 40.8452 62.4885 40.0357 62.8622 38.6866V38.6698C63.2188 37.3376 62.4036 35.9548 61.0617 35.5838Z" fill="#746FA7"/>
<path d="M53.5884 37.9946C54.5056 38.2475 55.4568 37.691 55.7116 36.7804C55.9663 35.8698 55.4058 34.9254 54.4886 34.6725C53.5714 34.4195 52.6203 34.976 52.3655 35.8866C52.1107 36.7973 52.6542 37.7416 53.5884 37.9946Z" fill="#746FA7"/>
<path d="M48.7308 36.2417C49.4102 36.4272 50.1066 36.0225 50.2935 35.348C50.4803 34.6734 50.0727 33.982 49.3932 33.7965C48.7138 33.611 48.0175 34.0157 47.8306 34.6903C47.6608 35.3648 48.0514 36.0562 48.7308 36.2417Z" fill="#746FA7"/>
<path d="M45.011 34.7742C45.4356 34.8923 45.8772 34.6393 45.9961 34.2009C46.115 33.7793 45.8602 33.3409 45.4186 33.2228C44.994 33.1048 44.5524 33.3577 44.4335 33.7962C44.3146 34.2009 44.5694 34.6562 45.011 34.7742Z" fill="#746FA7"/>
<path d="M59.2106 41.6546C58.1066 41.0138 56.6968 41.4016 56.0514 42.4978C55.4059 43.5939 55.7966 44.9935 56.9006 45.6344C58.0046 46.2752 59.4144 45.8873 60.0598 44.7912C60.6883 43.6951 60.3146 42.2954 59.2106 41.6546Z" fill="#99558E"/>
<path d="M53.7576 41.1819C54.1992 40.4062 53.9444 39.4281 53.1631 38.9896C52.3818 38.5512 51.3967 38.8041 50.955 39.5799C50.5134 40.3556 50.7682 41.3337 51.5495 41.7721C52.3139 42.2106 53.299 41.9407 53.7576 41.1819Z" fill="#99558E"/>
<path d="M48.8829 38.3994C49.2056 37.8429 49.0187 37.1515 48.4582 36.8311C47.8977 36.5107 47.2013 36.6962 46.8786 37.2527C46.5559 37.8092 46.7427 38.5006 47.3032 38.821C47.8637 39.1245 48.5601 38.939 48.8829 38.3994Z" fill="#99558E"/>
<path d="M45.0955 36.2079C45.2993 35.8538 45.1804 35.3985 44.8237 35.1793C44.467 34.9769 44.0084 35.0949 43.7876 35.4491C43.5668 35.8032 43.7027 36.2585 44.0594 36.4777H44.0764C44.4331 36.6801 44.8917 36.5621 45.0955 36.2079Z" fill="#99558E"/>
<path d="M52.841 47.0007C52.0257 47.8101 52.0257 49.1086 52.841 49.9181C53.6562 50.7275 54.9641 50.7275 55.7794 49.9181C56.5947 49.1086 56.5947 47.8101 55.7794 47.0007C54.9811 46.2081 53.6562 46.2081 52.841 47.0007Z" fill="#AF3379"/>
<path d="M50.7174 44.8924C51.3119 44.3022 51.3119 43.3578 50.7174 42.7845C50.123 42.1942 49.1718 42.1942 48.5943 42.7845C47.9998 43.3747 47.9998 44.319 48.5943 44.8924C49.1718 45.4826 50.123 45.4826 50.7174 44.8924Z" fill="#AF3379"/>
<path d="M46.76 40.963C47.1676 40.5583 47.1676 39.9006 46.76 39.4959C46.3524 39.0912 45.6899 39.0912 45.2823 39.4959C44.8747 39.9006 44.8747 40.5583 45.2823 40.9462C45.6899 41.3678 46.3524 41.3678 46.76 40.963Z" fill="#AF3379"/>
<path d="M42.7175 37.9104C42.9893 38.1802 43.4309 38.1802 43.7026 37.9104C43.9744 37.6406 43.9744 37.2022 43.7026 36.9323C43.4309 36.6625 42.9893 36.6625 42.7175 36.9323C42.4457 37.2022 42.4457 37.6406 42.7175 37.9104Z" fill="#AF3379"/>
<path d="M48.4757 50.4738C47.5415 51.0134 47.2188 52.2107 47.7623 53.1382C48.3058 54.0657 49.5118 54.3861 50.4459 53.8465C51.3801 53.3068 51.7028 52.1095 51.1593 51.182C50.6158 50.2546 49.4098 49.9341 48.4757 50.4738Z" fill="#BE266A"/>
<path d="M47.3546 45.8193C46.9639 45.1616 46.1316 44.9255 45.4522 45.3134C44.7898 45.7012 44.552 46.5276 44.9427 47.2021C45.3333 47.8598 46.1656 48.0959 46.845 47.708C47.5074 47.3201 47.7452 46.477 47.3546 45.8193Z" fill="#BE266A"/>
<path d="M44.0423 42.8683C44.484 42.6153 44.6368 42.0588 44.382 41.6204C44.1273 41.1819 43.5668 41.0301 43.1251 41.2831C42.6835 41.536 42.5307 42.0925 42.7854 42.531C43.0402 42.9694 43.6007 43.1212 44.0423 42.8683Z" fill="#BE266A"/>
<path d="M41.2737 38.0959C40.968 38.2645 40.8661 38.6524 41.0359 38.9559C41.2058 39.2595 41.5964 39.3606 41.9022 39.192C42.2079 39.0234 42.3098 38.6355 42.14 38.332C41.9701 38.0284 41.5794 37.9273 41.2737 38.0959Z" fill="#BE266A"/>
<path d="M43.3122 52.7163C42.3271 52.9861 41.7326 53.9811 42.0044 54.9592C42.2761 55.9372 43.2783 56.5275 44.2634 56.2576C45.2485 55.9878 45.843 54.9929 45.5713 54.0148C45.3165 53.0367 44.2974 52.4465 43.3122 52.7163Z" fill="#D4525C"/>
<path d="M42.4118 49.3779C43.0912 49.1924 43.4989 48.501 43.312 47.8265C43.1252 47.152 42.4288 46.7473 41.7494 46.9328C41.07 47.1182 40.6793 47.8096 40.8492 48.4842C41.036 49.1756 41.7324 49.5634 42.4118 49.3779Z" fill="#D4525C"/>
<path d="M41.5801 43.0034C41.4612 42.5481 40.9857 42.2783 40.5271 42.3964C40.0685 42.5144 39.7967 42.9866 39.9156 43.4419C40.0345 43.8972 40.5101 44.167 40.9687 44.049C41.4443 43.9478 41.716 43.4756 41.5801 43.0034Z" fill="#D4525C"/>
<path d="M40.2714 39.2596C40.1865 38.956 39.8638 38.7705 39.5581 38.8549C39.2523 38.9392 39.0655 39.2596 39.1504 39.5631C39.2353 39.8667 39.5411 40.0522 39.8638 39.9678C40.1695 39.8835 40.3564 39.5631 40.2714 39.2596Z" fill="#D4525C"/>
<path d="M37.7071 53.5596C36.7559 53.5596 35.9746 54.3353 35.9746 55.2796C35.9746 56.224 36.7559 56.9997 37.7071 56.9997C38.6583 56.9997 39.4396 56.2409 39.4396 55.2796C39.4396 54.3353 38.6752 53.5596 37.7071 53.5596Z" fill="#E0654F"/>
<path d="M36.5518 48.7366C36.5518 49.3774 37.0613 49.8833 37.7067 49.8833C38.3522 49.8833 38.8617 49.3774 38.8617 48.7366C38.8617 48.0957 38.3522 47.5898 37.7067 47.5898C37.0783 47.5898 36.5518 48.0957 36.5518 48.7366Z" fill="#E0654F"/>
<path d="M37.7069 44.4202C38.1485 44.4202 38.5222 44.066 38.5222 43.6107C38.5222 43.1554 38.1655 42.8013 37.7069 42.8013C37.2653 42.8013 36.8916 43.1554 36.8916 43.6107C36.9086 44.066 37.2653 44.4202 37.7069 44.4202Z" fill="#E0654F"/>
<path d="M37.7072 39.1421C37.4185 39.1421 37.1807 39.3782 37.1807 39.6649C37.1807 39.9515 37.4185 40.1876 37.7072 40.1876C37.996 40.1876 38.2337 39.9515 38.2337 39.6649C38.2337 39.3782 37.996 39.1421 37.7072 39.1421Z" fill="#E0654F"/>
<path d="M32.0514 52.9192C31.1851 52.6831 30.3019 53.2058 30.0641 54.049C29.8263 54.9091 30.3529 55.786 31.2021 56.022C32.0684 56.2581 32.9516 55.7354 33.1894 54.8922C33.4272 54.0322 32.9176 53.1553 32.0514 52.9192Z" fill="#F57F2A"/>
<path d="M33.6134 47.1522C33.0529 47.0004 32.4923 47.3377 32.3395 47.8773C32.1866 48.4338 32.5263 48.9903 33.0698 49.1421C33.6303 49.2939 34.1909 48.9566 34.3437 48.417C34.4966 47.8773 34.1739 47.304 33.6134 47.1522Z" fill="#F57F2A"/>
<path d="M34.8705 42.498C34.4628 42.3969 34.0552 42.633 33.9533 43.0208C33.8514 43.4255 34.0892 43.8303 34.4798 43.9314C34.8875 44.0326 35.2951 43.7965 35.397 43.4087C35.5159 43.0208 35.2781 42.6161 34.8705 42.498Z" fill="#F57F2A"/>
<path d="M36.1615 39.5124C36.2294 39.2594 36.0765 39.0065 35.8387 38.9559C35.6009 38.9053 35.3292 39.0402 35.2782 39.2763C35.2273 39.5124 35.3632 39.7822 35.6009 39.8328C35.8387 39.9002 36.0935 39.7653 36.1615 39.5124Z" fill="#F57F2A"/>
<path d="M26.7345 50.8453C26.0211 50.4406 25.1039 50.6767 24.6793 51.385C24.2716 52.0932 24.5094 53.0038 25.2228 53.4254C25.9362 53.8302 26.8534 53.5941 27.278 52.8858C27.7026 52.1775 27.4479 51.2669 26.7345 50.8453Z" fill="#F89828"/>
<path d="M29.7406 45.6849C29.299 45.432 28.7385 45.5838 28.4837 46.0222C28.2289 46.4607 28.3818 47.0172 28.8234 47.2701C29.265 47.5231 29.8255 47.3713 30.0803 46.9328C30.3351 46.4944 30.1822 45.9379 29.7406 45.6849Z" fill="#F89828"/>
<path d="M31.5074 42.6495C31.8471 42.835 32.2717 42.7338 32.4586 42.3965C32.6454 42.0592 32.5435 41.6377 32.2038 41.4522C31.8641 41.2667 31.4395 41.3678 31.2526 41.7051C31.0658 42.0424 31.1677 42.464 31.5074 42.6495Z" fill="#F89828"/>
<path d="M34.0552 38.2646C33.8683 38.1466 33.6135 38.214 33.5116 38.4164C33.3927 38.6019 33.4607 38.8548 33.6645 38.956C33.8513 39.0741 34.1061 39.0066 34.208 38.8043C34.3099 38.6356 34.242 38.3827 34.0552 38.2646Z" fill="#F89828"/>
<path d="M20.144 47.4555C19.6004 47.9951 19.6004 48.872 20.144 49.4117C20.6875 49.9513 21.5707 49.9513 22.1142 49.4117C22.6578 48.872 22.6578 47.9951 22.1142 47.4555C21.5707 46.9159 20.6875 46.9159 20.144 47.4555Z" fill="#FEC127"/>
<path d="M25.2225 43.2393C24.8998 43.5597 24.8998 44.0656 25.2225 44.3692C25.5452 44.6896 26.0548 44.6896 26.3605 44.3692C26.6662 44.0488 26.6832 43.5429 26.3605 43.2393C26.0548 42.9189 25.5282 42.9189 25.2225 43.2393Z" fill="#FEC127"/>
<path d="M28.9762 39.7488C28.7215 40.0017 28.7215 40.3896 28.9762 40.6426C29.231 40.8955 29.6217 40.8955 29.8764 40.6426C30.1312 40.3896 30.1312 40.0017 29.8764 39.7488C29.6217 39.4958 29.214 39.4958 28.9762 39.7488Z" fill="#FEC127"/>
<path d="M32.4923 37.1517C32.3564 37.0168 32.1356 37.0337 32.0167 37.1686C31.8808 37.3035 31.8978 37.5227 32.0337 37.6408C32.1695 37.7588 32.3734 37.7588 32.5092 37.6408C32.6281 37.5059 32.6281 37.2866 32.4923 37.1517Z" fill="#FEC127"/>
<path d="M16.764 42.5141C16.1525 42.8682 15.9487 43.6271 16.3054 44.2342C16.6621 44.8413 17.4264 45.0436 18.0379 44.6895C18.6493 44.3353 18.8532 43.5765 18.4965 42.9694C18.1568 42.3623 17.3755 42.16 16.764 42.5141Z" fill="#FED627"/>
<path d="M22.7606 39.7317C22.4378 39.9172 22.3189 40.3388 22.5058 40.6761C22.6926 40.9965 23.1172 41.1145 23.4569 40.929C23.7797 40.7435 23.8986 40.3219 23.7117 39.9847C23.5249 39.6643 23.1003 39.5462 22.7606 39.7317Z" fill="#FED627"/>
<path d="M27.2781 37.2865C27.0063 37.4383 26.9044 37.7924 27.0742 38.0623C27.2271 38.3321 27.5838 38.4333 27.8556 38.2646C28.1273 38.1129 28.2292 37.7587 28.0594 37.4889C27.9065 37.2191 27.5498 37.1179 27.2781 37.2865Z" fill="#FED627"/>
<path d="M14.1826 27.995H16.2208V35.7859H14.1826V27.995ZM15.4225 24.5212C14.7941 24.3525 14.1486 24.7235 13.9788 25.3475C13.8089 25.9714 14.1826 26.6122 14.811 26.7809C15.4395 26.9495 16.0849 26.5785 16.2548 25.9546C16.4246 25.3306 16.051 24.6729 15.4225 24.5212ZM22.5223 35.9546C22.0297 35.9546 21.5372 35.8702 21.0786 35.6679C20.6709 35.4824 20.3142 35.1957 20.0425 34.8416V39.6814H18.0552V27.995H20.0255V29.0743C20.2803 28.6864 20.6369 28.3829 21.0616 28.1637C21.5032 27.9444 21.9958 27.8264 22.5053 27.8264C22.9979 27.8264 23.4735 27.9276 23.9321 28.1131C24.3907 28.2986 24.7983 28.5852 25.138 28.9225C25.4947 29.2935 25.7834 29.732 25.9703 30.2041C26.1911 30.7438 26.293 31.3003 26.276 31.8736C26.293 32.447 26.1741 33.0203 25.9533 33.56C25.7495 34.0321 25.4607 34.4706 25.104 34.8416C24.4416 35.5498 23.4904 35.9546 22.5223 35.9546ZM22.1146 34.0659C22.4034 34.0659 22.6921 34.0153 22.9639 33.8972C23.2187 33.7792 23.4565 33.6274 23.6603 33.4251C23.8641 33.2227 24.017 32.9866 24.1189 32.7337C24.3397 32.1772 24.3397 31.5701 24.1189 31.0136C24.017 30.7606 23.8471 30.5245 23.6603 30.3222C23.4565 30.1198 23.2187 29.968 22.9639 29.85C22.6921 29.732 22.4034 29.6814 22.1146 29.6814C21.5372 29.6814 20.9766 29.9175 20.552 30.3222C20.3482 30.5245 20.1953 30.7606 20.0934 31.0136C19.8726 31.5701 19.8726 32.1772 20.0934 32.7168C20.1953 32.9697 20.3482 33.2058 20.552 33.4082C20.9766 33.8466 21.5372 34.0827 22.1146 34.0659ZM27.7367 27.995H29.707V29.1923C29.8769 28.7707 30.1656 28.4166 30.5563 28.1805C30.9639 27.9613 31.4055 27.8433 31.8811 27.8601C32.1359 27.8601 32.3737 27.8938 32.6115 27.9444C32.8153 27.995 33.0191 28.0625 33.2059 28.1637L32.4756 30.1198C32.3397 30.0355 32.1868 29.968 32.034 29.9175C31.8301 29.8669 31.6263 29.8331 31.4225 29.8331C30.9639 29.8163 30.5223 29.968 30.1826 30.2547C29.8769 30.5414 29.724 31.0136 29.724 31.6544V35.7691H27.7367V27.995ZM37.6391 35.9546C37.0786 35.9546 36.518 35.8534 35.9915 35.6342C35.4989 35.4318 35.0573 35.1283 34.6667 34.7573C33.9023 33.9984 33.4777 32.9697 33.4777 31.8905C33.4777 31.3509 33.5796 30.8112 33.7834 30.3053C33.9873 29.8163 34.276 29.3778 34.6497 29.0068C36.2972 27.4217 38.913 27.4217 40.5605 29.0068C41.3248 29.7657 41.7665 30.7944 41.7665 31.8736C41.7665 32.4132 41.6645 32.9529 41.4437 33.4419C41.2399 33.931 40.9342 34.3694 40.5775 34.7404C40.2038 35.1114 39.7622 35.4149 39.2527 35.6173C38.7601 35.8365 38.1996 35.9546 37.6391 35.9546ZM37.6561 34.0659C37.9448 34.0659 38.2335 34.0153 38.5053 33.8972C38.7601 33.7792 38.9809 33.6274 39.1847 33.4419C39.3885 33.2396 39.5414 33.0035 39.6433 32.7505C39.8641 32.194 39.8641 31.5869 39.6433 31.0473C39.5414 30.7944 39.3885 30.5583 39.1847 30.3559C38.9809 30.1535 38.7601 30.0018 38.5053 29.9006C37.9618 29.6645 37.3503 29.6645 36.8238 29.9006C36.569 30.0186 36.3482 30.1704 36.1444 30.3559C35.9406 30.5583 35.7877 30.7944 35.6858 31.0473C35.465 31.6038 35.465 32.2109 35.6858 32.7505C35.7877 33.0035 35.9406 33.2396 36.1444 33.4419C36.3482 33.6443 36.569 33.796 36.8238 33.8972C37.0786 33.9984 37.3673 34.0659 37.6561 34.0659ZM0 27.995H2.03822L3.61783 32.9697L5.4862 27.995H7.25265L9.08705 32.9697L10.7346 27.995H12.7728L10.1062 35.7859H8.22081L6.35244 30.71L4.46709 35.7859H2.54777L0 27.995Z" fill="#351A55"/>
</svg>
