<svg width="53" height="30" viewBox="0 0 53 30" fill="none" xmlns="http://www.w3.org/2000/svg">
<path fill-rule="evenodd" clip-rule="evenodd" d="M40.7972 0.000732422H39.7972V2.00073H40.7972H48.992L27.3249 22.9059L19.4085 11.4488C19.2416 11.2073 18.9771 11.0513 18.685 11.0222C18.3929 10.9931 18.1027 11.0938 17.8915 11.2977L0.719647 27.8656L0 28.5599L1.38868 29.9992L2.10833 29.3049L18.4326 13.5547L26.349 25.0117C26.5159 25.2532 26.7804 25.4092 27.0725 25.4383C27.3647 25.4674 27.6548 25.3667 27.8661 25.1629L50.4041 3.41747L50.5296 3.29636V11.3557V12.3557H52.5296V11.3557V1.00073C52.5296 0.448448 52.0819 0.000732422 51.5296 0.000732422H40.7972ZM50.5296 2.10736V2.00073H50.4267L50.5296 2.10736Z" fill="#FF5100"/>
</svg>
