<svg width="113" height="80" viewBox="0 0 113 80" fill="none" xmlns="http://www.w3.org/2000/svg">
<path fill-rule="evenodd" clip-rule="evenodd" d="M72.6477 0.394312C72.4519 0.199556 72.1353 0.200375 71.9406 0.396142C71.7458 0.591909 71.7467 0.90849 71.9424 1.10325L110.539 39.5002H1.25C0.973858 39.5002 0.75 39.7241 0.75 40.0002C0.75 40.2764 0.973858 40.5002 1.25 40.5002H110.538L71.9424 78.8969C71.7467 79.0917 71.7458 79.4082 71.9406 79.604C72.1353 79.7998 72.4519 79.8006 72.6477 79.6058L112.103 40.3545C112.197 40.2607 112.25 40.1331 112.25 40.0001C112.25 39.867 112.197 39.7395 112.103 39.6456L72.6477 0.394312Z" fill="#ff8000"/>
</svg>
