<svg width="12" height="12" viewBox="0 0 12 12" fill="none" xmlns="http://www.w3.org/2000/svg">
<path fill-rule="evenodd" clip-rule="evenodd" d="M11.8125 0.143236C11.8289 0.157979 11.8445 0.173678 11.8592 0.190247C11.8974 0.233476 11.9279 0.281178 11.9505 0.33153C11.9823 0.402032 12 0.480263 12 0.562627V8.72828C12 9.03901 11.7481 9.29091 11.4374 9.29091C11.1267 9.29091 10.8748 9.03901 10.8748 8.72828V1.92092L0.960478 11.8352C0.740758 12.0549 0.384521 12.0549 0.1648 11.8352C-0.05492 11.6155 -0.05492 11.2592 0.1648 11.0395L10.0791 1.12526H3.29094C2.98021 1.12526 2.72831 0.873358 2.72831 0.562627C2.72831 0.251895 2.98021 -2.14577e-06 3.29094 -2.14577e-06H11.4374C11.5815 -2.14577e-06 11.7129 0.0541605 11.8125 0.143236Z" fill="#FF5100"/>
</svg>
